solid 
 facet normal  9.999840e-01 -5.650316e-03  0.000000e+00
   outer loop
     vertex  3.150997e+02 -1.905000e+01 -2.312670e+02
     vertex  3.150997e+02 -1.905000e+01  0.000000e+00
     vertex  3.150798e+02 -2.257346e+01  0.000000e+00
   endloop
 endfacet
 facet normal  9.998563e-01 -1.695023e-02  0.000000e+00
   outer loop
     vertex  3.150798e+02 -2.257346e+01 -2.312670e+02
     vertex  3.150798e+02 -2.257346e+01  0.000000e+00
     vertex  3.150201e+02 -2.609646e+01  0.000000e+00
   endloop
 endfacet
 facet normal  9.999840e-01 -5.650316e-03  0.000000e+00
   outer loop
     vertex  3.150798e+02 -2.257346e+01 -2.312670e+02
     vertex  3.150997e+02 -1.905000e+01 -2.312670e+02
     vertex  3.150798e+02 -2.257346e+01  0.000000e+00
   endloop
 endfacet
 facet normal  9.998563e-01 -1.695023e-02  0.000000e+00
   outer loop
     vertex  3.150201e+02 -2.609646e+01 -2.312670e+02
     vertex  3.150798e+02 -2.257346e+01 -2.312670e+02
     vertex  3.150201e+02 -2.609646e+01  0.000000e+00
   endloop
 endfacet
 facet normal  9.992179e-01 -3.954211e-02  0.000000e+00
   outer loop
     vertex  3.149205e+02 -2.961857e+01 -2.312670e+02
     vertex  3.149205e+02 -2.961857e+01  0.000000e+00
     vertex  3.147812e+02 -3.313932e+01  0.000000e+00
   endloop
 endfacet
 facet normal  9.996009e-01 -2.824797e-02  0.000000e+00
   outer loop
     vertex  3.149205e+02 -2.961857e+01 -2.312670e+02
     vertex  3.150201e+02 -2.609646e+01  0.000000e+00
     vertex  3.149205e+02 -2.961857e+01  0.000000e+00
   endloop
 endfacet
 facet normal  9.996009e-01 -2.824797e-02  0.000000e+00
   outer loop
     vertex  3.149205e+02 -2.961857e+01 -2.312670e+02
     vertex  3.150201e+02 -2.609646e+01 -2.312670e+02
     vertex  3.150201e+02 -2.609646e+01  0.000000e+00
   endloop
 endfacet
 facet normal  9.992179e-01 -3.954211e-02  0.000000e+00
   outer loop
     vertex  3.147812e+02 -3.313932e+01 -2.312670e+02
     vertex  3.149205e+02 -2.961857e+01 -2.312670e+02
     vertex  3.147812e+02 -3.313932e+01  0.000000e+00
   endloop
 endfacet
 facet normal  9.987073e-01 -5.083120e-02  0.000000e+00
   outer loop
     vertex  3.146021e+02 -3.665828e+01 -2.312670e+02
     vertex  3.147812e+02 -3.313932e+01 -2.312670e+02
     vertex  3.147812e+02 -3.313932e+01  0.000000e+00
   endloop
 endfacet
 facet normal  9.987073e-01 -5.083120e-02  0.000000e+00
   outer loop
     vertex  3.146021e+02 -3.665828e+01 -2.312670e+02
     vertex  3.147812e+02 -3.313932e+01  0.000000e+00
     vertex  3.146021e+02 -3.665828e+01  0.000000e+00
   endloop
 endfacet
 facet normal  9.980691e-01 -6.211380e-02  0.000000e+00
   outer loop
     vertex  3.143832e+02 -4.017499e+01 -2.312670e+02
     vertex  3.146021e+02 -3.665828e+01 -2.312670e+02
     vertex  3.146021e+02 -3.665828e+01  0.000000e+00
   endloop
 endfacet
 facet normal  9.980691e-01 -6.211380e-02  0.000000e+00
   outer loop
     vertex  3.143832e+02 -4.017499e+01 -2.312670e+02
     vertex  3.146021e+02 -3.665828e+01  0.000000e+00
     vertex  3.143832e+02 -4.017499e+01  0.000000e+00
   endloop
 endfacet
 facet normal  9.973034e-01 -7.338847e-02  0.000000e+00
   outer loop
     vertex  3.141247e+02 -4.368900e+01 -2.312670e+02
     vertex  3.143832e+02 -4.017499e+01 -2.312670e+02
     vertex  3.143832e+02 -4.017499e+01  0.000000e+00
   endloop
 endfacet
 facet normal  9.964104e-01 -8.465376e-02  0.000000e+00
   outer loop
     vertex  3.141247e+02 -4.368900e+01 -2.312670e+02
     vertex  3.141247e+02 -4.368900e+01  0.000000e+00
     vertex  3.138264e+02 -4.719986e+01  0.000000e+00
   endloop
 endfacet
 facet normal  9.973034e-01 -7.338847e-02  0.000000e+00
   outer loop
     vertex  3.141247e+02 -4.368900e+01 -2.312670e+02
     vertex  3.143832e+02 -4.017499e+01  0.000000e+00
     vertex  3.141247e+02 -4.368900e+01  0.000000e+00
   endloop
 endfacet
 facet normal  9.964104e-01 -8.465376e-02  0.000000e+00
   outer loop
     vertex  3.138264e+02 -4.719986e+01 -2.312670e+02
     vertex  3.141247e+02 -4.368900e+01 -2.312670e+02
     vertex  3.138264e+02 -4.719986e+01  0.000000e+00
   endloop
 endfacet
 facet normal  9.953902e-01 -9.590824e-02  0.000000e+00
   outer loop
     vertex  3.134884e+02 -5.070713e+01 -2.312670e+02
     vertex  3.138264e+02 -4.719986e+01 -2.312670e+02
     vertex  3.138264e+02 -4.719986e+01  0.000000e+00
   endloop
 endfacet
 facet normal  9.942428e-01 -1.071505e-01  0.000000e+00
   outer loop
     vertex  3.134884e+02 -5.070713e+01 -2.312670e+02
     vertex  3.134884e+02 -5.070713e+01  0.000000e+00
     vertex  3.131109e+02 -5.421035e+01  0.000000e+00
   endloop
 endfacet
 facet normal  9.953902e-01 -9.590824e-02  0.000000e+00
   outer loop
     vertex  3.134884e+02 -5.070713e+01 -2.312670e+02
     vertex  3.138264e+02 -4.719986e+01  0.000000e+00
     vertex  3.134884e+02 -5.070713e+01  0.000000e+00
   endloop
 endfacet
 facet normal  9.942428e-01 -1.071505e-01  0.000000e+00
   outer loop
     vertex  3.131109e+02 -5.421035e+01 -2.312670e+02
     vertex  3.134884e+02 -5.070713e+01 -2.312670e+02
     vertex  3.131109e+02 -5.421035e+01  0.000000e+00
   endloop
 endfacet
 facet normal  9.929685e-01 -1.183790e-01  0.000000e+00
   outer loop
     vertex  3.126938e+02 -5.770909e+01 -2.312670e+02
     vertex  3.131109e+02 -5.421035e+01 -2.312670e+02
     vertex  3.131109e+02 -5.421035e+01  0.000000e+00
   endloop
 endfacet
 facet normal  9.929685e-01 -1.183790e-01  0.000000e+00
   outer loop
     vertex  3.126938e+02 -5.770909e+01 -2.312670e+02
     vertex  3.131109e+02 -5.421035e+01  0.000000e+00
     vertex  3.126938e+02 -5.770909e+01  0.000000e+00
   endloop
 endfacet
 facet normal  9.915673e-01 -1.295925e-01  0.000000e+00
   outer loop
     vertex  3.122372e+02 -6.120289e+01 -2.312670e+02
     vertex  3.126938e+02 -5.770909e+01 -2.312670e+02
     vertex  3.126938e+02 -5.770909e+01  0.000000e+00
   endloop
 endfacet
 facet normal  9.915673e-01 -1.295925e-01  0.000000e+00
   outer loop
     vertex  3.122372e+02 -6.120289e+01 -2.312670e+02
     vertex  3.126938e+02 -5.770909e+01  0.000000e+00
     vertex  3.122372e+02 -6.120289e+01  0.000000e+00
   endloop
 endfacet
 facet normal  9.900396e-01 -1.407894e-01  0.000000e+00
   outer loop
     vertex  3.117411e+02 -6.469130e+01 -2.312670e+02
     vertex  3.122372e+02 -6.120289e+01 -2.312670e+02
     vertex  3.122372e+02 -6.120289e+01  0.000000e+00
   endloop
 endfacet
 facet normal  9.900396e-01 -1.407894e-01  0.000000e+00
   outer loop
     vertex  3.117411e+02 -6.469130e+01 -2.312670e+02
     vertex  3.122372e+02 -6.120289e+01  0.000000e+00
     vertex  3.117411e+02 -6.469130e+01  0.000000e+00
   endloop
 endfacet
 facet normal  9.883854e-01 -1.519683e-01  0.000000e+00
   outer loop
     vertex  3.112056e+02 -6.817389e+01 -2.312670e+02
     vertex  3.117411e+02 -6.469130e+01 -2.312670e+02
     vertex  3.117411e+02 -6.469130e+01  0.000000e+00
   endloop
 endfacet
 facet normal  9.883854e-01 -1.519683e-01  0.000000e+00
   outer loop
     vertex  3.112056e+02 -6.817389e+01 -2.312670e+02
     vertex  3.117411e+02 -6.469130e+01  0.000000e+00
     vertex  3.112056e+02 -6.817389e+01  0.000000e+00
   endloop
 endfacet
 facet normal  9.866050e-01 -1.631278e-01  0.000000e+00
   outer loop
     vertex  3.106309e+02 -7.165020e+01 -2.312670e+02
     vertex  3.112056e+02 -6.817389e+01 -2.312670e+02
     vertex  3.112056e+02 -6.817389e+01  0.000000e+00
   endloop
 endfacet
 facet normal  9.866050e-01 -1.631278e-01  0.000000e+00
   outer loop
     vertex  3.106309e+02 -7.165020e+01 -2.312670e+02
     vertex  3.112056e+02 -6.817389e+01  0.000000e+00
     vertex  3.106309e+02 -7.165020e+01  0.000000e+00
   endloop
 endfacet
 facet normal  9.846985e-01 -1.742664e-01  0.000000e+00
   outer loop
     vertex  3.100168e+02 -7.511980e+01 -2.312670e+02
     vertex  3.106309e+02 -7.165020e+01 -2.312670e+02
     vertex  3.106309e+02 -7.165020e+01  0.000000e+00
   endloop
 endfacet
 facet normal  9.846985e-01 -1.742664e-01  0.000000e+00
   outer loop
     vertex  3.100168e+02 -7.511980e+01 -2.312670e+02
     vertex  3.106309e+02 -7.165020e+01  0.000000e+00
     vertex  3.100168e+02 -7.511980e+01  0.000000e+00
   endloop
 endfacet
 facet normal  9.826664e-01 -1.853828e-01  0.000000e+00
   outer loop
     vertex  3.093636e+02 -7.858224e+01 -2.312670e+02
     vertex  3.100168e+02 -7.511980e+01 -2.312670e+02
     vertex  3.100168e+02 -7.511980e+01  0.000000e+00
   endloop
 endfacet
 facet normal  9.826664e-01 -1.853828e-01  0.000000e+00
   outer loop
     vertex  3.093636e+02 -7.858224e+01 -2.312670e+02
     vertex  3.100168e+02 -7.511980e+01  0.000000e+00
     vertex  3.093636e+02 -7.858224e+01  0.000000e+00
   endloop
 endfacet
 facet normal  9.805087e-01 -1.964756e-01  0.000000e+00
   outer loop
     vertex  3.086713e+02 -8.203707e+01 -2.312670e+02
     vertex  3.093636e+02 -7.858224e+01 -2.312670e+02
     vertex  3.093636e+02 -7.858224e+01  0.000000e+00
   endloop
 endfacet
 facet normal  9.782258e-01 -2.075432e-01  0.000000e+00
   outer loop
     vertex  3.086713e+02 -8.203707e+01 -2.312670e+02
     vertex  3.086713e+02 -8.203707e+01  0.000000e+00
     vertex  3.079401e+02 -8.548386e+01  0.000000e+00
   endloop
 endfacet
 facet normal  9.805087e-01 -1.964756e-01  0.000000e+00
   outer loop
     vertex  3.086713e+02 -8.203707e+01 -2.312670e+02
     vertex  3.093636e+02 -7.858224e+01  0.000000e+00
     vertex  3.086713e+02 -8.203707e+01  0.000000e+00
   endloop
 endfacet
 facet normal  9.782258e-01 -2.075432e-01  0.000000e+00
   outer loop
     vertex  3.079401e+02 -8.548386e+01 -2.312670e+02
     vertex  3.086713e+02 -8.203707e+01 -2.312670e+02
     vertex  3.079401e+02 -8.548386e+01  0.000000e+00
   endloop
 endfacet
 facet normal  9.758181e-01 -2.185844e-01  0.000000e+00
   outer loop
     vertex  3.071699e+02 -8.892217e+01 -2.312670e+02
     vertex  3.079401e+02 -8.548386e+01  0.000000e+00
     vertex  3.071699e+02 -8.892217e+01  0.000000e+00
   endloop
 endfacet
 facet normal  9.758181e-01 -2.185844e-01  0.000000e+00
   outer loop
     vertex  3.071699e+02 -8.892217e+01 -2.312670e+02
     vertex  3.079401e+02 -8.548386e+01 -2.312670e+02
     vertex  3.079401e+02 -8.548386e+01  0.000000e+00
   endloop
 endfacet
 facet normal  9.732856e-01 -2.295976e-01  0.000000e+00
   outer loop
     vertex  3.063609e+02 -9.235155e+01 -2.312670e+02
     vertex  3.071699e+02 -8.892217e+01  0.000000e+00
     vertex  3.063609e+02 -9.235155e+01  0.000000e+00
   endloop
 endfacet
 facet normal  9.732856e-01 -2.295976e-01  0.000000e+00
   outer loop
     vertex  3.063609e+02 -9.235155e+01 -2.312670e+02
     vertex  3.071699e+02 -8.892217e+01 -2.312670e+02
     vertex  3.071699e+02 -8.892217e+01  0.000000e+00
   endloop
 endfacet
 facet normal  9.678483e-01 -2.515347e-01  0.000000e+00
   outer loop
     vertex  3.055132e+02 -9.577157e+01 -2.312670e+02
     vertex  3.055132e+02 -9.577157e+01  0.000000e+00
     vertex  3.046269e+02 -9.918180e+01  0.000000e+00
   endloop
 endfacet
 facet normal  9.706289e-01 -2.405815e-01  0.000000e+00
   outer loop
     vertex  3.055132e+02 -9.577157e+01 -2.312670e+02
     vertex  3.063609e+02 -9.235155e+01  0.000000e+00
     vertex  3.055132e+02 -9.577157e+01  0.000000e+00
   endloop
 endfacet
 facet normal  9.706289e-01 -2.405815e-01  0.000000e+00
   outer loop
     vertex  3.055132e+02 -9.577157e+01 -2.312670e+02
     vertex  3.063609e+02 -9.235155e+01 -2.312670e+02
     vertex  3.063609e+02 -9.235155e+01  0.000000e+00
   endloop
 endfacet
 facet normal  9.678483e-01 -2.515347e-01  0.000000e+00
   outer loop
     vertex  3.046269e+02 -9.918180e+01 -2.312670e+02
     vertex  3.055132e+02 -9.577157e+01 -2.312670e+02
     vertex  3.046269e+02 -9.918180e+01  0.000000e+00
   endloop
 endfacet
 facet normal  9.649440e-01 -2.624557e-01  0.000000e+00
   outer loop
     vertex  3.037021e+02 -1.025818e+02 -2.312670e+02
     vertex  3.046269e+02 -9.918180e+01  0.000000e+00
     vertex  3.037021e+02 -1.025818e+02  0.000000e+00
   endloop
 endfacet
 facet normal  9.649440e-01 -2.624557e-01  0.000000e+00
   outer loop
     vertex  3.037021e+02 -1.025818e+02 -2.312670e+02
     vertex  3.046269e+02 -9.918180e+01 -2.312670e+02
     vertex  3.046269e+02 -9.918180e+01  0.000000e+00
   endloop
 endfacet
 facet normal  9.619165e-01 -2.733433e-01  0.000000e+00
   outer loop
     vertex  3.027390e+02 -1.059711e+02 -2.312670e+02
     vertex  3.037021e+02 -1.025818e+02  0.000000e+00
     vertex  3.027390e+02 -1.059711e+02  0.000000e+00
   endloop
 endfacet
 facet normal  9.619165e-01 -2.733433e-01  0.000000e+00
   outer loop
     vertex  3.027390e+02 -1.059711e+02 -2.312670e+02
     vertex  3.037021e+02 -1.025818e+02 -2.312670e+02
     vertex  3.037021e+02 -1.025818e+02  0.000000e+00
   endloop
 endfacet
 facet normal  9.554935e-01 -2.950123e-01  0.000000e+00
   outer loop
     vertex  3.017376e+02 -1.093493e+02 -2.312670e+02
     vertex  3.017376e+02 -1.093493e+02  0.000000e+00
     vertex  3.006982e+02 -1.127160e+02  0.000000e+00
   endloop
 endfacet
 facet normal  9.587662e-01 -2.841959e-01  0.000000e+00
   outer loop
     vertex  3.017376e+02 -1.093493e+02 -2.312670e+02
     vertex  3.027390e+02 -1.059711e+02  0.000000e+00
     vertex  3.017376e+02 -1.093493e+02  0.000000e+00
   endloop
 endfacet
 facet normal  9.587662e-01 -2.841959e-01  0.000000e+00
   outer loop
     vertex  3.017376e+02 -1.093493e+02 -2.312670e+02
     vertex  3.027390e+02 -1.059711e+02 -2.312670e+02
     vertex  3.027390e+02 -1.059711e+02  0.000000e+00
   endloop
 endfacet
 facet normal  9.554935e-01 -2.950123e-01  0.000000e+00
   outer loop
     vertex  3.006982e+02 -1.127160e+02 -2.312670e+02
     vertex  3.017376e+02 -1.093493e+02 -2.312670e+02
     vertex  3.006982e+02 -1.127160e+02  0.000000e+00
   endloop
 endfacet
 facet normal  9.520987e-01 -3.057909e-01  0.000000e+00
   outer loop
     vertex  2.996207e+02 -1.160708e+02 -2.312670e+02
     vertex  3.006982e+02 -1.127160e+02  0.000000e+00
     vertex  2.996207e+02 -1.160708e+02  0.000000e+00
   endloop
 endfacet
 facet normal  9.520987e-01 -3.057909e-01  0.000000e+00
   outer loop
     vertex  2.996207e+02 -1.160708e+02 -2.312670e+02
     vertex  3.006982e+02 -1.127160e+02 -2.312670e+02
     vertex  3.006982e+02 -1.127160e+02  0.000000e+00
   endloop
 endfacet
 facet normal  9.485823e-01 -3.165306e-01  0.000000e+00
   outer loop
     vertex  2.985054e+02 -1.194131e+02 -2.312670e+02
     vertex  2.996207e+02 -1.160708e+02  0.000000e+00
     vertex  2.985054e+02 -1.194131e+02  0.000000e+00
   endloop
 endfacet
 facet normal  9.485823e-01 -3.165306e-01  0.000000e+00
   outer loop
     vertex  2.985054e+02 -1.194131e+02 -2.312670e+02
     vertex  2.996207e+02 -1.160708e+02 -2.312670e+02
     vertex  2.996207e+02 -1.160708e+02  0.000000e+00
   endloop
 endfacet
 facet normal  9.449448e-01 -3.272298e-01  0.000000e+00
   outer loop
     vertex  2.973524e+02 -1.227426e+02 -2.312670e+02
     vertex  2.985054e+02 -1.194131e+02 -2.312670e+02
     vertex  2.985054e+02 -1.194131e+02  0.000000e+00
   endloop
 endfacet
 facet normal  9.449448e-01 -3.272298e-01  0.000000e+00
   outer loop
     vertex  2.973524e+02 -1.227426e+02 -2.312670e+02
     vertex  2.985054e+02 -1.194131e+02  0.000000e+00
     vertex  2.973524e+02 -1.227426e+02  0.000000e+00
   endloop
 endfacet
 facet normal  9.411866e-01 -3.378872e-01  0.000000e+00
   outer loop
     vertex  2.961619e+02 -1.260589e+02 -2.312670e+02
     vertex  2.973524e+02 -1.227426e+02 -2.312670e+02
     vertex  2.973524e+02 -1.227426e+02  0.000000e+00
   endloop
 endfacet
 facet normal  9.411866e-01 -3.378872e-01  0.000000e+00
   outer loop
     vertex  2.961619e+02 -1.260589e+02 -2.312670e+02
     vertex  2.973524e+02 -1.227426e+02  0.000000e+00
     vertex  2.961619e+02 -1.260589e+02  0.000000e+00
   endloop
 endfacet
 facet normal  9.373082e-01 -3.485014e-01  0.000000e+00
   outer loop
     vertex  2.949339e+02 -1.293615e+02 -2.312670e+02
     vertex  2.961619e+02 -1.260589e+02 -2.312670e+02
     vertex  2.961619e+02 -1.260589e+02  0.000000e+00
   endloop
 endfacet
 facet normal  9.373082e-01 -3.485014e-01  0.000000e+00
   outer loop
     vertex  2.949339e+02 -1.293615e+02 -2.312670e+02
     vertex  2.961619e+02 -1.260589e+02  0.000000e+00
     vertex  2.949339e+02 -1.293615e+02  0.000000e+00
   endloop
 endfacet
 facet normal  9.333102e-01 -3.590712e-01  0.000000e+00
   outer loop
     vertex  2.936687e+02 -1.326500e+02 -2.312670e+02
     vertex  2.949339e+02 -1.293615e+02 -2.312670e+02
     vertex  2.949339e+02 -1.293615e+02  0.000000e+00
   endloop
 endfacet
 facet normal  9.333102e-01 -3.590712e-01  0.000000e+00
   outer loop
     vertex  2.936687e+02 -1.326500e+02 -2.312670e+02
     vertex  2.949339e+02 -1.293615e+02  0.000000e+00
     vertex  2.936687e+02 -1.326500e+02  0.000000e+00
   endloop
 endfacet
 facet normal  9.291929e-01 -3.695951e-01  0.000000e+00
   outer loop
     vertex  2.923665e+02 -1.359241e+02 -2.312670e+02
     vertex  2.936687e+02 -1.326500e+02 -2.312670e+02
     vertex  2.936687e+02 -1.326500e+02  0.000000e+00
   endloop
 endfacet
 facet normal  9.291929e-01 -3.695951e-01  0.000000e+00
   outer loop
     vertex  2.923665e+02 -1.359241e+02 -2.312670e+02
     vertex  2.936687e+02 -1.326500e+02  0.000000e+00
     vertex  2.923665e+02 -1.359241e+02  0.000000e+00
   endloop
 endfacet
 facet normal  9.249570e-01 -3.800718e-01  0.000000e+00
   outer loop
     vertex  2.910273e+02 -1.391832e+02 -2.312670e+02
     vertex  2.923665e+02 -1.359241e+02 -2.312670e+02
     vertex  2.923665e+02 -1.359241e+02  0.000000e+00
   endloop
 endfacet
 facet normal  9.249570e-01 -3.800718e-01  0.000000e+00
   outer loop
     vertex  2.910273e+02 -1.391832e+02 -2.312670e+02
     vertex  2.923665e+02 -1.359241e+02  0.000000e+00
     vertex  2.910273e+02 -1.391832e+02  0.000000e+00
   endloop
 endfacet
 facet normal  9.206029e-01 -3.905000e-01  0.000000e+00
   outer loop
     vertex  2.896513e+02 -1.424269e+02 -2.312670e+02
     vertex  2.910273e+02 -1.391832e+02 -2.312670e+02
     vertex  2.910273e+02 -1.391832e+02  0.000000e+00
   endloop
 endfacet
 facet normal  9.161313e-01 -4.008782e-01  0.000000e+00
   outer loop
     vertex  2.896513e+02 -1.424269e+02 -2.312670e+02
     vertex  2.896513e+02 -1.424269e+02  0.000000e+00
     vertex  2.882388e+02 -1.456549e+02  0.000000e+00
   endloop
 endfacet
 facet normal  9.206029e-01 -3.905000e-01  0.000000e+00
   outer loop
     vertex  2.896513e+02 -1.424269e+02 -2.312670e+02
     vertex  2.910273e+02 -1.391832e+02  0.000000e+00
     vertex  2.896513e+02 -1.424269e+02  0.000000e+00
   endloop
 endfacet
 facet normal  9.161313e-01 -4.008782e-01  0.000000e+00
   outer loop
     vertex  2.882388e+02 -1.456549e+02 -2.312670e+02
     vertex  2.896513e+02 -1.424269e+02 -2.312670e+02
     vertex  2.882388e+02 -1.456549e+02  0.000000e+00
   endloop
 endfacet
 facet normal  9.115427e-01 -4.112054e-01  0.000000e+00
   outer loop
     vertex  2.867899e+02 -1.488668e+02 -2.312670e+02
     vertex  2.882388e+02 -1.456549e+02 -2.312670e+02
     vertex  2.882388e+02 -1.456549e+02  0.000000e+00
   endloop
 endfacet
 facet normal  9.115427e-01 -4.112054e-01  0.000000e+00
   outer loop
     vertex  2.867899e+02 -1.488668e+02 -2.312670e+02
     vertex  2.882388e+02 -1.456549e+02  0.000000e+00
     vertex  2.867899e+02 -1.488668e+02  0.000000e+00
   endloop
 endfacet
 facet normal  9.068377e-01 -4.214799e-01  0.000000e+00
   outer loop
     vertex  2.853049e+02 -1.520620e+02 -2.312670e+02
     vertex  2.867899e+02 -1.488668e+02 -2.312670e+02
     vertex  2.867899e+02 -1.488668e+02  0.000000e+00
   endloop
 endfacet
 facet normal  9.068377e-01 -4.214799e-01  0.000000e+00
   outer loop
     vertex  2.853049e+02 -1.520620e+02 -2.312670e+02
     vertex  2.867899e+02 -1.488668e+02  0.000000e+00
     vertex  2.853049e+02 -1.520620e+02  0.000000e+00
   endloop
 endfacet
 facet normal  9.020169e-01 -4.317007e-01  0.000000e+00
   outer loop
     vertex  2.837838e+02 -1.552403e+02 -2.312670e+02
     vertex  2.853049e+02 -1.520620e+02  0.000000e+00
     vertex  2.837838e+02 -1.552403e+02  0.000000e+00
   endloop
 endfacet
 facet normal  9.020169e-01 -4.317007e-01  0.000000e+00
   outer loop
     vertex  2.837838e+02 -1.552403e+02 -2.312670e+02
     vertex  2.853049e+02 -1.520620e+02 -2.312670e+02
     vertex  2.853049e+02 -1.520620e+02  0.000000e+00
   endloop
 endfacet
 facet normal  8.920303e-01 -4.519755e-01  0.000000e+00
   outer loop
     vertex  2.822268e+02 -1.584011e+02 -2.312670e+02
     vertex  2.822268e+02 -1.584011e+02  0.000000e+00
     vertex  2.806343e+02 -1.615442e+02  0.000000e+00
   endloop
 endfacet
 facet normal  8.970809e-01 -4.418663e-01  0.000000e+00
   outer loop
     vertex  2.822268e+02 -1.584011e+02 -2.312670e+02
     vertex  2.837838e+02 -1.552403e+02  0.000000e+00
     vertex  2.822268e+02 -1.584011e+02  0.000000e+00
   endloop
 endfacet
 facet normal  8.970809e-01 -4.418663e-01  0.000000e+00
   outer loop
     vertex  2.822268e+02 -1.584011e+02 -2.312670e+02
     vertex  2.837838e+02 -1.552403e+02 -2.312670e+02
     vertex  2.837838e+02 -1.552403e+02  0.000000e+00
   endloop
 endfacet
 facet normal  8.868658e-01 -4.620270e-01  0.000000e+00
   outer loop
     vertex  2.806343e+02 -1.615442e+02 -2.312670e+02
     vertex  2.806343e+02 -1.615442e+02  0.000000e+00
     vertex  2.790063e+02 -1.646691e+02  0.000000e+00
   endloop
 endfacet
 facet normal  8.920303e-01 -4.519755e-01  0.000000e+00
   outer loop
     vertex  2.806343e+02 -1.615442e+02 -2.312670e+02
     vertex  2.822268e+02 -1.584011e+02 -2.312670e+02
     vertex  2.806343e+02 -1.615442e+02  0.000000e+00
   endloop
 endfacet
 facet normal  8.868658e-01 -4.620270e-01  0.000000e+00
   outer loop
     vertex  2.790063e+02 -1.646691e+02 -2.312670e+02
     vertex  2.806343e+02 -1.615442e+02 -2.312670e+02
     vertex  2.790063e+02 -1.646691e+02  0.000000e+00
   endloop
 endfacet
 facet normal  8.815881e-01 -4.720195e-01  0.000000e+00
   outer loop
     vertex  2.773432e+02 -1.677754e+02 -2.312670e+02
     vertex  2.790063e+02 -1.646691e+02  0.000000e+00
     vertex  2.773432e+02 -1.677754e+02  0.000000e+00
   endloop
 endfacet
 facet normal  8.815881e-01 -4.720195e-01  0.000000e+00
   outer loop
     vertex  2.773432e+02 -1.677754e+02 -2.312670e+02
     vertex  2.790063e+02 -1.646691e+02 -2.312670e+02
     vertex  2.790063e+02 -1.646691e+02  0.000000e+00
   endloop
 endfacet
 facet normal  8.761978e-01 -4.819517e-01  0.000000e+00
   outer loop
     vertex  2.756450e+02 -1.708627e+02 -2.312670e+02
     vertex  2.773432e+02 -1.677754e+02  0.000000e+00
     vertex  2.756450e+02 -1.708627e+02  0.000000e+00
   endloop
 endfacet
 facet normal  8.761978e-01 -4.819517e-01  0.000000e+00
   outer loop
     vertex  2.756450e+02 -1.708627e+02 -2.312670e+02
     vertex  2.773432e+02 -1.677754e+02 -2.312670e+02
     vertex  2.773432e+02 -1.677754e+02  0.000000e+00
   endloop
 endfacet
 facet normal  8.706956e-01 -4.918224e-01  0.000000e+00
   outer loop
     vertex  2.739121e+02 -1.739306e+02 -2.312670e+02
     vertex  2.756450e+02 -1.708627e+02  0.000000e+00
     vertex  2.739121e+02 -1.739306e+02  0.000000e+00
   endloop
 endfacet
 facet normal  8.706956e-01 -4.918224e-01  0.000000e+00
   outer loop
     vertex  2.739121e+02 -1.739306e+02 -2.312670e+02
     vertex  2.756450e+02 -1.708627e+02 -2.312670e+02
     vertex  2.756450e+02 -1.708627e+02  0.000000e+00
   endloop
 endfacet
 facet normal  8.650821e-01 -5.016302e-01  0.000000e+00
   outer loop
     vertex  2.721446e+02 -1.769787e+02 -2.312670e+02
     vertex  2.739121e+02 -1.739306e+02  0.000000e+00
     vertex  2.721446e+02 -1.769787e+02  0.000000e+00
   endloop
 endfacet
 facet normal  8.650821e-01 -5.016302e-01  0.000000e+00
   outer loop
     vertex  2.721446e+02 -1.769787e+02 -2.312670e+02
     vertex  2.739121e+02 -1.739306e+02 -2.312670e+02
     vertex  2.739121e+02 -1.739306e+02  0.000000e+00
   endloop
 endfacet
 facet normal  8.593583e-01 -5.113740e-01  0.000000e+00
   outer loop
     vertex  2.703427e+02 -1.800067e+02 -2.312670e+02
     vertex  2.721446e+02 -1.769787e+02  0.000000e+00
     vertex  2.703427e+02 -1.800067e+02  0.000000e+00
   endloop
 endfacet
 facet normal  8.593583e-01 -5.113740e-01  0.000000e+00
   outer loop
     vertex  2.703427e+02 -1.800067e+02 -2.312670e+02
     vertex  2.721446e+02 -1.769787e+02 -2.312670e+02
     vertex  2.721446e+02 -1.769787e+02  0.000000e+00
   endloop
 endfacet
 facet normal  8.535246e-01 -5.210525e-01  0.000000e+00
   outer loop
     vertex  2.685068e+02 -1.830141e+02 -2.312670e+02
     vertex  2.703427e+02 -1.800067e+02  0.000000e+00
     vertex  2.685068e+02 -1.830141e+02  0.000000e+00
   endloop
 endfacet
 facet normal  8.535246e-01 -5.210525e-01  0.000000e+00
   outer loop
     vertex  2.685068e+02 -1.830141e+02 -2.312670e+02
     vertex  2.703427e+02 -1.800067e+02 -2.312670e+02
     vertex  2.703427e+02 -1.800067e+02  0.000000e+00
   endloop
 endfacet
 facet normal  8.415311e-01 -5.402086e-01  0.000000e+00
   outer loop
     vertex  2.666370e+02 -1.860005e+02 -2.312670e+02
     vertex  2.666370e+02 -1.860005e+02  0.000000e+00
     vertex  2.647336e+02 -1.889657e+02  0.000000e+00
   endloop
 endfacet
 facet normal  8.475820e-01 -5.306644e-01  0.000000e+00
   outer loop
     vertex  2.666370e+02 -1.860005e+02 -2.312670e+02
     vertex  2.685068e+02 -1.830141e+02  0.000000e+00
     vertex  2.666370e+02 -1.860005e+02  0.000000e+00
   endloop
 endfacet
 facet normal  8.475820e-01 -5.306644e-01  0.000000e+00
   outer loop
     vertex  2.666370e+02 -1.860005e+02 -2.312670e+02
     vertex  2.685068e+02 -1.830141e+02 -2.312670e+02
     vertex  2.685068e+02 -1.830141e+02  0.000000e+00
   endloop
 endfacet
 facet normal  8.415311e-01 -5.402086e-01  0.000000e+00
   outer loop
     vertex  2.647336e+02 -1.889657e+02 -2.312670e+02
     vertex  2.666370e+02 -1.860005e+02 -2.312670e+02
     vertex  2.647336e+02 -1.889657e+02  0.000000e+00
   endloop
 endfacet
 facet normal  8.353728e-01 -5.496838e-01  0.000000e+00
   outer loop
     vertex  2.627968e+02 -1.919091e+02 -2.312670e+02
     vertex  2.647336e+02 -1.889657e+02  0.000000e+00
     vertex  2.627968e+02 -1.919091e+02  0.000000e+00
   endloop
 endfacet
 facet normal  8.353728e-01 -5.496838e-01  0.000000e+00
   outer loop
     vertex  2.627968e+02 -1.919091e+02 -2.312670e+02
     vertex  2.647336e+02 -1.889657e+02 -2.312670e+02
     vertex  2.647336e+02 -1.889657e+02  0.000000e+00
   endloop
 endfacet
 facet normal  8.291078e-01 -5.590888e-01  0.000000e+00
   outer loop
     vertex  2.608268e+02 -1.948305e+02 -2.312670e+02
     vertex  2.627968e+02 -1.919091e+02  0.000000e+00
     vertex  2.608268e+02 -1.948305e+02  0.000000e+00
   endloop
 endfacet
 facet normal  8.291078e-01 -5.590888e-01  0.000000e+00
   outer loop
     vertex  2.608268e+02 -1.948305e+02 -2.312670e+02
     vertex  2.627968e+02 -1.919091e+02 -2.312670e+02
     vertex  2.627968e+02 -1.919091e+02  0.000000e+00
   endloop
 endfacet
 facet normal  8.227369e-01 -5.684224e-01  0.000000e+00
   outer loop
     vertex  2.588240e+02 -1.977294e+02 -2.312670e+02
     vertex  2.608268e+02 -1.948305e+02  0.000000e+00
     vertex  2.588240e+02 -1.977294e+02  0.000000e+00
   endloop
 endfacet
 facet normal  8.227369e-01 -5.684224e-01  0.000000e+00
   outer loop
     vertex  2.588240e+02 -1.977294e+02 -2.312670e+02
     vertex  2.608268e+02 -1.948305e+02 -2.312670e+02
     vertex  2.608268e+02 -1.948305e+02  0.000000e+00
   endloop
 endfacet
 facet normal  8.162609e-01 -5.776834e-01  0.000000e+00
   outer loop
     vertex  2.567885e+02 -2.006055e+02 -2.312670e+02
     vertex  2.588240e+02 -1.977294e+02  0.000000e+00
     vertex  2.567885e+02 -2.006055e+02  0.000000e+00
   endloop
 endfacet
 facet normal  8.162609e-01 -5.776834e-01  0.000000e+00
   outer loop
     vertex  2.567885e+02 -2.006055e+02 -2.312670e+02
     vertex  2.588240e+02 -1.977294e+02 -2.312670e+02
     vertex  2.588240e+02 -1.977294e+02  0.000000e+00
   endloop
 endfacet
 facet normal  8.096807e-01 -5.868706e-01  0.000000e+00
   outer loop
     vertex  2.547206e+02 -2.034585e+02 -2.312670e+02
     vertex  2.567885e+02 -2.006055e+02  0.000000e+00
     vertex  2.547206e+02 -2.034585e+02  0.000000e+00
   endloop
 endfacet
 facet normal  8.096807e-01 -5.868706e-01  0.000000e+00
   outer loop
     vertex  2.547206e+02 -2.034585e+02 -2.312670e+02
     vertex  2.567885e+02 -2.006055e+02 -2.312670e+02
     vertex  2.567885e+02 -2.006055e+02  0.000000e+00
   endloop
 endfacet
 facet normal  8.029971e-01 -5.959829e-01  0.000000e+00
   outer loop
     vertex  2.526207e+02 -2.062878e+02 -2.312670e+02
     vertex  2.547206e+02 -2.034585e+02 -2.312670e+02
     vertex  2.547206e+02 -2.034585e+02  0.000000e+00
   endloop
 endfacet
 facet normal  8.029971e-01 -5.959829e-01  0.000000e+00
   outer loop
     vertex  2.526207e+02 -2.062878e+02 -2.312670e+02
     vertex  2.547206e+02 -2.034585e+02  0.000000e+00
     vertex  2.526207e+02 -2.062878e+02  0.000000e+00
   endloop
 endfacet
 facet normal  7.962110e-01 -6.050191e-01  0.000000e+00
   outer loop
     vertex  2.504889e+02 -2.090933e+02 -2.312670e+02
     vertex  2.526207e+02 -2.062878e+02 -2.312670e+02
     vertex  2.526207e+02 -2.062878e+02  0.000000e+00
   endloop
 endfacet
 facet normal  7.962110e-01 -6.050191e-01  0.000000e+00
   outer loop
     vertex  2.504889e+02 -2.090933e+02 -2.312670e+02
     vertex  2.526207e+02 -2.062878e+02  0.000000e+00
     vertex  2.504889e+02 -2.090933e+02  0.000000e+00
   endloop
 endfacet
 facet normal  7.893231e-01 -6.139780e-01  0.000000e+00
   outer loop
     vertex  2.483255e+02 -2.118745e+02 -2.312670e+02
     vertex  2.504889e+02 -2.090933e+02 -2.312670e+02
     vertex  2.504889e+02 -2.090933e+02  0.000000e+00
   endloop
 endfacet
 facet normal  7.893231e-01 -6.139780e-01  0.000000e+00
   outer loop
     vertex  2.483255e+02 -2.118745e+02 -2.312670e+02
     vertex  2.504889e+02 -2.090933e+02  0.000000e+00
     vertex  2.483255e+02 -2.118745e+02  0.000000e+00
   endloop
 endfacet
 facet normal  7.823345e-01 -6.228585e-01  0.000000e+00
   outer loop
     vertex  2.461309e+02 -2.146310e+02 -2.312670e+02
     vertex  2.483255e+02 -2.118745e+02  0.000000e+00
     vertex  2.461309e+02 -2.146310e+02  0.000000e+00
   endloop
 endfacet
 facet normal  7.823345e-01 -6.228585e-01  0.000000e+00
   outer loop
     vertex  2.461309e+02 -2.146310e+02 -2.312670e+02
     vertex  2.483255e+02 -2.118745e+02 -2.312670e+02
     vertex  2.483255e+02 -2.118745e+02  0.000000e+00
   endloop
 endfacet
 facet normal  7.752460e-01 -6.316595e-01  0.000000e+00
   outer loop
     vertex  2.439052e+02 -2.173626e+02 -2.312670e+02
     vertex  2.461309e+02 -2.146310e+02 -2.312670e+02
     vertex  2.461309e+02 -2.146310e+02  0.000000e+00
   endloop
 endfacet
 facet normal  7.752460e-01 -6.316595e-01  0.000000e+00
   outer loop
     vertex  2.439052e+02 -2.173626e+02 -2.312670e+02
     vertex  2.461309e+02 -2.146310e+02  0.000000e+00
     vertex  2.439052e+02 -2.173626e+02  0.000000e+00
   endloop
 endfacet
 facet normal  7.680584e-01 -6.403798e-01  0.000000e+00
   outer loop
     vertex  2.416488e+02 -2.200689e+02 -2.312670e+02
     vertex  2.439052e+02 -2.173626e+02  0.000000e+00
     vertex  2.416488e+02 -2.200689e+02  0.000000e+00
   endloop
 endfacet
 facet normal  7.680584e-01 -6.403798e-01  0.000000e+00
   outer loop
     vertex  2.416488e+02 -2.200689e+02 -2.312670e+02
     vertex  2.439052e+02 -2.173626e+02 -2.312670e+02
     vertex  2.439052e+02 -2.173626e+02  0.000000e+00
   endloop
 endfacet
 facet normal  7.607728e-01 -6.490183e-01  0.000000e+00
   outer loop
     vertex  2.393620e+02 -2.227495e+02 -2.312670e+02
     vertex  2.416488e+02 -2.200689e+02  0.000000e+00
     vertex  2.393620e+02 -2.227495e+02  0.000000e+00
   endloop
 endfacet
 facet normal  7.607728e-01 -6.490183e-01  0.000000e+00
   outer loop
     vertex  2.393620e+02 -2.227495e+02 -2.312670e+02
     vertex  2.416488e+02 -2.200689e+02 -2.312670e+02
     vertex  2.416488e+02 -2.200689e+02  0.000000e+00
   endloop
 endfacet
 facet normal  7.533900e-01 -6.575739e-01  0.000000e+00
   outer loop
     vertex  2.370450e+02 -2.254041e+02 -2.312670e+02
     vertex  2.393620e+02 -2.227495e+02  0.000000e+00
     vertex  2.370450e+02 -2.254041e+02  0.000000e+00
   endloop
 endfacet
 facet normal  7.533900e-01 -6.575739e-01  0.000000e+00
   outer loop
     vertex  2.370450e+02 -2.254041e+02 -2.312670e+02
     vertex  2.393620e+02 -2.227495e+02 -2.312670e+02
     vertex  2.393620e+02 -2.227495e+02  0.000000e+00
   endloop
 endfacet
 facet normal  7.383368e-01 -6.744322e-01  0.000000e+00
   outer loop
     vertex  2.346982e+02 -2.280323e+02 -2.312670e+02
     vertex  2.346982e+02 -2.280323e+02  0.000000e+00
     vertex  2.323219e+02 -2.306338e+02  0.000000e+00
   endloop
 endfacet
 facet normal  7.459110e-01 -6.660456e-01  0.000000e+00
   outer loop
     vertex  2.346982e+02 -2.280323e+02 -2.312670e+02
     vertex  2.370450e+02 -2.254041e+02  0.000000e+00
     vertex  2.346982e+02 -2.280323e+02  0.000000e+00
   endloop
 endfacet
 facet normal  7.459110e-01 -6.660456e-01  0.000000e+00
   outer loop
     vertex  2.346982e+02 -2.280323e+02 -2.312670e+02
     vertex  2.370450e+02 -2.254041e+02 -2.312670e+02
     vertex  2.370450e+02 -2.254041e+02  0.000000e+00
   endloop
 endfacet
 facet normal  7.383368e-01 -6.744322e-01  0.000000e+00
   outer loop
     vertex  2.323219e+02 -2.306338e+02 -2.312670e+02
     vertex  2.346982e+02 -2.280323e+02 -2.312670e+02
     vertex  2.323219e+02 -2.306338e+02  0.000000e+00
   endloop
 endfacet
 facet normal  7.306683e-01 -6.827327e-01  0.000000e+00
   outer loop
     vertex  2.299162e+02 -2.332083e+02 -2.312670e+02
     vertex  2.323219e+02 -2.306338e+02  0.000000e+00
     vertex  2.299162e+02 -2.332083e+02  0.000000e+00
   endloop
 endfacet
 facet normal  7.306683e-01 -6.827327e-01  0.000000e+00
   outer loop
     vertex  2.299162e+02 -2.332083e+02 -2.312670e+02
     vertex  2.323219e+02 -2.306338e+02 -2.312670e+02
     vertex  2.323219e+02 -2.306338e+02  0.000000e+00
   endloop
 endfacet
 facet normal  7.229064e-01 -6.909460e-01  0.000000e+00
   outer loop
     vertex  2.274817e+02 -2.357555e+02 -2.312670e+02
     vertex  2.299162e+02 -2.332083e+02  0.000000e+00
     vertex  2.274817e+02 -2.357555e+02  0.000000e+00
   endloop
 endfacet
 facet normal  7.229064e-01 -6.909460e-01  0.000000e+00
   outer loop
     vertex  2.274817e+02 -2.357555e+02 -2.312670e+02
     vertex  2.299162e+02 -2.332083e+02 -2.312670e+02
     vertex  2.299162e+02 -2.332083e+02  0.000000e+00
   endloop
 endfacet
 facet normal  7.150523e-01 -6.990710e-01  0.000000e+00
   outer loop
     vertex  2.250185e+02 -2.382750e+02 -2.312670e+02
     vertex  2.274817e+02 -2.357555e+02  0.000000e+00
     vertex  2.250185e+02 -2.382750e+02  0.000000e+00
   endloop
 endfacet
 facet normal  7.150523e-01 -6.990710e-01  0.000000e+00
   outer loop
     vertex  2.250185e+02 -2.382750e+02 -2.312670e+02
     vertex  2.274817e+02 -2.357555e+02 -2.312670e+02
     vertex  2.274817e+02 -2.357555e+02  0.000000e+00
   endloop
 endfacet
 facet normal  7.071068e-01 -7.071068e-01  0.000000e+00
   outer loop
     vertex  2.225270e+02 -2.407665e+02 -2.312670e+02
     vertex  2.250185e+02 -2.382750e+02  0.000000e+00
     vertex  2.225270e+02 -2.407665e+02  0.000000e+00
   endloop
 endfacet
 facet normal  7.071068e-01 -7.071068e-01  0.000000e+00
   outer loop
     vertex  2.225270e+02 -2.407665e+02 -2.312670e+02
     vertex  2.250185e+02 -2.382750e+02 -2.312670e+02
     vertex  2.250185e+02 -2.382750e+02  0.000000e+00
   endloop
 endfacet
 facet normal  6.909460e-01 -7.229064e-01  0.000000e+00
   outer loop
     vertex  2.200075e+02 -2.432297e+02 -2.312670e+02
     vertex  2.200075e+02 -2.432297e+02  0.000000e+00
     vertex  2.174603e+02 -2.456642e+02  0.000000e+00
   endloop
 endfacet
 facet normal  6.990710e-01 -7.150523e-01  0.000000e+00
   outer loop
     vertex  2.200075e+02 -2.432297e+02 -2.312670e+02
     vertex  2.225270e+02 -2.407665e+02  0.000000e+00
     vertex  2.200075e+02 -2.432297e+02  0.000000e+00
   endloop
 endfacet
 facet normal  6.990710e-01 -7.150523e-01  0.000000e+00
   outer loop
     vertex  2.200075e+02 -2.432297e+02 -2.312670e+02
     vertex  2.225270e+02 -2.407665e+02 -2.312670e+02
     vertex  2.225270e+02 -2.407665e+02  0.000000e+00
   endloop
 endfacet
 facet normal  6.909460e-01 -7.229064e-01  0.000000e+00
   outer loop
     vertex  2.174603e+02 -2.456642e+02 -2.312670e+02
     vertex  2.200075e+02 -2.432297e+02 -2.312670e+02
     vertex  2.174603e+02 -2.456642e+02  0.000000e+00
   endloop
 endfacet
 facet normal  6.827327e-01 -7.306683e-01  0.000000e+00
   outer loop
     vertex  2.148858e+02 -2.480699e+02 -2.312670e+02
     vertex  2.174603e+02 -2.456642e+02  0.000000e+00
     vertex  2.148858e+02 -2.480699e+02  0.000000e+00
   endloop
 endfacet
 facet normal  6.827327e-01 -7.306683e-01  0.000000e+00
   outer loop
     vertex  2.148858e+02 -2.480699e+02 -2.312670e+02
     vertex  2.174603e+02 -2.456642e+02 -2.312670e+02
     vertex  2.174603e+02 -2.456642e+02  0.000000e+00
   endloop
 endfacet
 facet normal  6.744322e-01 -7.383368e-01  0.000000e+00
   outer loop
     vertex  2.122843e+02 -2.504462e+02 -2.312670e+02
     vertex  2.148858e+02 -2.480699e+02  0.000000e+00
     vertex  2.122843e+02 -2.504462e+02  0.000000e+00
   endloop
 endfacet
 facet normal  6.744322e-01 -7.383368e-01  0.000000e+00
   outer loop
     vertex  2.122843e+02 -2.504462e+02 -2.312670e+02
     vertex  2.148858e+02 -2.480699e+02 -2.312670e+02
     vertex  2.148858e+02 -2.480699e+02  0.000000e+00
   endloop
 endfacet
 facet normal  6.660456e-01 -7.459110e-01  0.000000e+00
   outer loop
     vertex  2.096561e+02 -2.527930e+02 -2.312670e+02
     vertex  2.122843e+02 -2.504462e+02  0.000000e+00
     vertex  2.096561e+02 -2.527930e+02  0.000000e+00
   endloop
 endfacet
 facet normal  6.660456e-01 -7.459110e-01  0.000000e+00
   outer loop
     vertex  2.096561e+02 -2.527930e+02 -2.312670e+02
     vertex  2.122843e+02 -2.504462e+02 -2.312670e+02
     vertex  2.122843e+02 -2.504462e+02  0.000000e+00
   endloop
 endfacet
 facet normal  6.575739e-01 -7.533900e-01  0.000000e+00
   outer loop
     vertex  2.070015e+02 -2.551100e+02 -2.312670e+02
     vertex  2.096561e+02 -2.527930e+02  0.000000e+00
     vertex  2.070015e+02 -2.551100e+02  0.000000e+00
   endloop
 endfacet
 facet normal  6.575739e-01 -7.533900e-01  0.000000e+00
   outer loop
     vertex  2.070015e+02 -2.551100e+02 -2.312670e+02
     vertex  2.096561e+02 -2.527930e+02 -2.312670e+02
     vertex  2.096561e+02 -2.527930e+02  0.000000e+00
   endloop
 endfacet
 facet normal  6.490183e-01 -7.607728e-01  0.000000e+00
   outer loop
     vertex  2.043209e+02 -2.573968e+02 -2.312670e+02
     vertex  2.070015e+02 -2.551100e+02  0.000000e+00
     vertex  2.043209e+02 -2.573968e+02  0.000000e+00
   endloop
 endfacet
 facet normal  6.490183e-01 -7.607728e-01  0.000000e+00
   outer loop
     vertex  2.043209e+02 -2.573968e+02 -2.312670e+02
     vertex  2.070015e+02 -2.551100e+02 -2.312670e+02
     vertex  2.070015e+02 -2.551100e+02  0.000000e+00
   endloop
 endfacet
 facet normal  6.403798e-01 -7.680584e-01  0.000000e+00
   outer loop
     vertex  2.016146e+02 -2.596532e+02 -2.312670e+02
     vertex  2.043209e+02 -2.573968e+02  0.000000e+00
     vertex  2.016146e+02 -2.596532e+02  0.000000e+00
   endloop
 endfacet
 facet normal  6.403798e-01 -7.680584e-01  0.000000e+00
   outer loop
     vertex  2.016146e+02 -2.596532e+02 -2.312670e+02
     vertex  2.043209e+02 -2.573968e+02 -2.312670e+02
     vertex  2.043209e+02 -2.573968e+02  0.000000e+00
   endloop
 endfacet
 facet normal  6.316595e-01 -7.752460e-01  0.000000e+00
   outer loop
     vertex  1.988830e+02 -2.618789e+02 -2.312670e+02
     vertex  2.016146e+02 -2.596532e+02 -2.312670e+02
     vertex  2.016146e+02 -2.596532e+02  0.000000e+00
   endloop
 endfacet
 facet normal  6.316595e-01 -7.752460e-01  0.000000e+00
   outer loop
     vertex  1.988830e+02 -2.618789e+02 -2.312670e+02
     vertex  2.016146e+02 -2.596532e+02  0.000000e+00
     vertex  1.988830e+02 -2.618789e+02  0.000000e+00
   endloop
 endfacet
 facet normal  6.228585e-01 -7.823345e-01  0.000000e+00
   outer loop
     vertex  1.961265e+02 -2.640735e+02 -2.312670e+02
     vertex  1.988830e+02 -2.618789e+02 -2.312670e+02
     vertex  1.988830e+02 -2.618789e+02  0.000000e+00
   endloop
 endfacet
 facet normal  6.228585e-01 -7.823345e-01  0.000000e+00
   outer loop
     vertex  1.961265e+02 -2.640735e+02 -2.312670e+02
     vertex  1.988830e+02 -2.618789e+02  0.000000e+00
     vertex  1.961265e+02 -2.640735e+02  0.000000e+00
   endloop
 endfacet
 facet normal  6.139780e-01 -7.893231e-01  0.000000e+00
   outer loop
     vertex  1.933453e+02 -2.662369e+02 -2.312670e+02
     vertex  1.961265e+02 -2.640735e+02 -2.312670e+02
     vertex  1.961265e+02 -2.640735e+02  0.000000e+00
   endloop
 endfacet
 facet normal  6.050191e-01 -7.962110e-01  0.000000e+00
   outer loop
     vertex  1.933453e+02 -2.662369e+02 -2.312670e+02
     vertex  1.933453e+02 -2.662369e+02  0.000000e+00
     vertex  1.905398e+02 -2.683687e+02  0.000000e+00
   endloop
 endfacet
 facet normal  6.139780e-01 -7.893231e-01  0.000000e+00
   outer loop
     vertex  1.933453e+02 -2.662369e+02 -2.312670e+02
     vertex  1.961265e+02 -2.640735e+02  0.000000e+00
     vertex  1.933453e+02 -2.662369e+02  0.000000e+00
   endloop
 endfacet
 facet normal  6.050191e-01 -7.962110e-01  0.000000e+00
   outer loop
     vertex  1.905398e+02 -2.683687e+02 -2.312670e+02
     vertex  1.933453e+02 -2.662369e+02 -2.312670e+02
     vertex  1.905398e+02 -2.683687e+02  0.000000e+00
   endloop
 endfacet
 facet normal  5.959829e-01 -8.029971e-01  0.000000e+00
   outer loop
     vertex  1.905398e+02 -2.683687e+02 -2.312670e+02
     vertex  1.905398e+02 -2.683687e+02  0.000000e+00
     vertex  1.877105e+02 -2.704686e+02  0.000000e+00
   endloop
 endfacet
 facet normal  5.959829e-01 -8.029971e-01  0.000000e+00
   outer loop
     vertex  1.877105e+02 -2.704686e+02 -2.312670e+02
     vertex  1.905398e+02 -2.683687e+02 -2.312670e+02
     vertex  1.877105e+02 -2.704686e+02  0.000000e+00
   endloop
 endfacet
 facet normal  5.868706e-01 -8.096807e-01  0.000000e+00
   outer loop
     vertex  1.848575e+02 -2.725365e+02 -2.312670e+02
     vertex  1.877105e+02 -2.704686e+02 -2.312670e+02
     vertex  1.877105e+02 -2.704686e+02  0.000000e+00
   endloop
 endfacet
 facet normal  5.868706e-01 -8.096807e-01  0.000000e+00
   outer loop
     vertex  1.848575e+02 -2.725365e+02 -2.312670e+02
     vertex  1.877105e+02 -2.704686e+02  0.000000e+00
     vertex  1.848575e+02 -2.725365e+02  0.000000e+00
   endloop
 endfacet
 facet normal  5.776834e-01 -8.162609e-01  0.000000e+00
   outer loop
     vertex  1.819814e+02 -2.745720e+02 -2.312670e+02
     vertex  1.848575e+02 -2.725365e+02 -2.312670e+02
     vertex  1.848575e+02 -2.725365e+02  0.000000e+00
   endloop
 endfacet
 facet normal  5.776834e-01 -8.162609e-01  0.000000e+00
   outer loop
     vertex  1.819814e+02 -2.745720e+02 -2.312670e+02
     vertex  1.848575e+02 -2.725365e+02  0.000000e+00
     vertex  1.819814e+02 -2.745720e+02  0.000000e+00
   endloop
 endfacet
 facet normal  5.684224e-01 -8.227369e-01  0.000000e+00
   outer loop
     vertex  1.790825e+02 -2.765748e+02 -2.312670e+02
     vertex  1.819814e+02 -2.745720e+02 -2.312670e+02
     vertex  1.819814e+02 -2.745720e+02  0.000000e+00
   endloop
 endfacet
 facet normal  5.684224e-01 -8.227369e-01  0.000000e+00
   outer loop
     vertex  1.790825e+02 -2.765748e+02 -2.312670e+02
     vertex  1.819814e+02 -2.745720e+02  0.000000e+00
     vertex  1.790825e+02 -2.765748e+02  0.000000e+00
   endloop
 endfacet
 facet normal  5.590888e-01 -8.291078e-01  0.000000e+00
   outer loop
     vertex  1.761611e+02 -2.785448e+02 -2.312670e+02
     vertex  1.790825e+02 -2.765748e+02 -2.312670e+02
     vertex  1.790825e+02 -2.765748e+02  0.000000e+00
   endloop
 endfacet
 facet normal  5.590888e-01 -8.291078e-01  0.000000e+00
   outer loop
     vertex  1.761611e+02 -2.785448e+02 -2.312670e+02
     vertex  1.790825e+02 -2.765748e+02  0.000000e+00
     vertex  1.761611e+02 -2.785448e+02  0.000000e+00
   endloop
 endfacet
 facet normal  5.496838e-01 -8.353728e-01  0.000000e+00
   outer loop
     vertex  1.732177e+02 -2.804816e+02 -2.312670e+02
     vertex  1.761611e+02 -2.785448e+02 -2.312670e+02
     vertex  1.761611e+02 -2.785448e+02  0.000000e+00
   endloop
 endfacet
 facet normal  5.402086e-01 -8.415311e-01  0.000000e+00
   outer loop
     vertex  1.732177e+02 -2.804816e+02 -2.312670e+02
     vertex  1.732177e+02 -2.804816e+02  0.000000e+00
     vertex  1.702525e+02 -2.823850e+02  0.000000e+00
   endloop
 endfacet
 facet normal  5.496838e-01 -8.353728e-01  0.000000e+00
   outer loop
     vertex  1.732177e+02 -2.804816e+02 -2.312670e+02
     vertex  1.761611e+02 -2.785448e+02  0.000000e+00
     vertex  1.732177e+02 -2.804816e+02  0.000000e+00
   endloop
 endfacet
 facet normal  5.402086e-01 -8.415311e-01  0.000000e+00
   outer loop
     vertex  1.702525e+02 -2.823850e+02 -2.312670e+02
     vertex  1.732177e+02 -2.804816e+02 -2.312670e+02
     vertex  1.702525e+02 -2.823850e+02  0.000000e+00
   endloop
 endfacet
 facet normal  5.306644e-01 -8.475820e-01  0.000000e+00
   outer loop
     vertex  1.672661e+02 -2.842548e+02 -2.312670e+02
     vertex  1.702525e+02 -2.823850e+02 -2.312670e+02
     vertex  1.702525e+02 -2.823850e+02  0.000000e+00
   endloop
 endfacet
 facet normal  5.210525e-01 -8.535246e-01  0.000000e+00
   outer loop
     vertex  1.672661e+02 -2.842548e+02 -2.312670e+02
     vertex  1.672661e+02 -2.842548e+02  0.000000e+00
     vertex  1.642587e+02 -2.860907e+02  0.000000e+00
   endloop
 endfacet
 facet normal  5.306644e-01 -8.475820e-01  0.000000e+00
   outer loop
     vertex  1.672661e+02 -2.842548e+02 -2.312670e+02
     vertex  1.702525e+02 -2.823850e+02  0.000000e+00
     vertex  1.672661e+02 -2.842548e+02  0.000000e+00
   endloop
 endfacet
 facet normal  5.210525e-01 -8.535246e-01  0.000000e+00
   outer loop
     vertex  1.642587e+02 -2.860907e+02 -2.312670e+02
     vertex  1.672661e+02 -2.842548e+02 -2.312670e+02
     vertex  1.642587e+02 -2.860907e+02  0.000000e+00
   endloop
 endfacet
 facet normal  5.113740e-01 -8.593583e-01  0.000000e+00
   outer loop
     vertex  1.642587e+02 -2.860907e+02 -2.312670e+02
     vertex  1.642587e+02 -2.860907e+02  0.000000e+00
     vertex  1.612307e+02 -2.878926e+02  0.000000e+00
   endloop
 endfacet
 facet normal  5.113740e-01 -8.593583e-01  0.000000e+00
   outer loop
     vertex  1.612307e+02 -2.878926e+02 -2.312670e+02
     vertex  1.642587e+02 -2.860907e+02 -2.312670e+02
     vertex  1.612307e+02 -2.878926e+02  0.000000e+00
   endloop
 endfacet
 facet normal  5.016302e-01 -8.650821e-01  0.000000e+00
   outer loop
     vertex  1.612307e+02 -2.878926e+02 -2.312670e+02
     vertex  1.612307e+02 -2.878926e+02  0.000000e+00
     vertex  1.581826e+02 -2.896601e+02  0.000000e+00
   endloop
 endfacet
 facet normal  5.016302e-01 -8.650821e-01  0.000000e+00
   outer loop
     vertex  1.581826e+02 -2.896601e+02 -2.312670e+02
     vertex  1.612307e+02 -2.878926e+02 -2.312670e+02
     vertex  1.581826e+02 -2.896601e+02  0.000000e+00
   endloop
 endfacet
 facet normal  4.918224e-01 -8.706956e-01  0.000000e+00
   outer loop
     vertex  1.551147e+02 -2.913930e+02 -2.312670e+02
     vertex  1.581826e+02 -2.896601e+02 -2.312670e+02
     vertex  1.581826e+02 -2.896601e+02  0.000000e+00
   endloop
 endfacet
 facet normal  4.918224e-01 -8.706956e-01  0.000000e+00
   outer loop
     vertex  1.551147e+02 -2.913930e+02 -2.312670e+02
     vertex  1.581826e+02 -2.896601e+02  0.000000e+00
     vertex  1.551147e+02 -2.913930e+02  0.000000e+00
   endloop
 endfacet
 facet normal  4.819517e-01 -8.761978e-01  0.000000e+00
   outer loop
     vertex  1.520274e+02 -2.930912e+02 -2.312670e+02
     vertex  1.551147e+02 -2.913930e+02 -2.312670e+02
     vertex  1.551147e+02 -2.913930e+02  0.000000e+00
   endloop
 endfacet
 facet normal  4.720195e-01 -8.815881e-01  0.000000e+00
   outer loop
     vertex  1.520274e+02 -2.930912e+02 -2.312670e+02
     vertex  1.520274e+02 -2.930912e+02  0.000000e+00
     vertex  1.489211e+02 -2.947543e+02  0.000000e+00
   endloop
 endfacet
 facet normal  4.819517e-01 -8.761978e-01  0.000000e+00
   outer loop
     vertex  1.520274e+02 -2.930912e+02 -2.312670e+02
     vertex  1.551147e+02 -2.913930e+02  0.000000e+00
     vertex  1.520274e+02 -2.930912e+02  0.000000e+00
   endloop
 endfacet
 facet normal  4.720195e-01 -8.815881e-01  0.000000e+00
   outer loop
     vertex  1.489211e+02 -2.947543e+02 -2.312670e+02
     vertex  1.520274e+02 -2.930912e+02 -2.312670e+02
     vertex  1.489211e+02 -2.947543e+02  0.000000e+00
   endloop
 endfacet
 facet normal  4.620270e-01 -8.868658e-01  0.000000e+00
   outer loop
     vertex  1.457962e+02 -2.963823e+02 -2.312670e+02
     vertex  1.489211e+02 -2.947543e+02 -2.312670e+02
     vertex  1.489211e+02 -2.947543e+02  0.000000e+00
   endloop
 endfacet
 facet normal  4.620270e-01 -8.868658e-01  0.000000e+00
   outer loop
     vertex  1.457962e+02 -2.963823e+02 -2.312670e+02
     vertex  1.489211e+02 -2.947543e+02  0.000000e+00
     vertex  1.457962e+02 -2.963823e+02  0.000000e+00
   endloop
 endfacet
 facet normal  4.519755e-01 -8.920303e-01  0.000000e+00
   outer loop
     vertex  1.426531e+02 -2.979748e+02 -2.312670e+02
     vertex  1.457962e+02 -2.963823e+02 -2.312670e+02
     vertex  1.457962e+02 -2.963823e+02  0.000000e+00
   endloop
 endfacet
 facet normal  4.519755e-01 -8.920303e-01  0.000000e+00
   outer loop
     vertex  1.426531e+02 -2.979748e+02 -2.312670e+02
     vertex  1.457962e+02 -2.963823e+02  0.000000e+00
     vertex  1.426531e+02 -2.979748e+02  0.000000e+00
   endloop
 endfacet
 facet normal  4.418663e-01 -8.970809e-01  0.000000e+00
   outer loop
     vertex  1.394923e+02 -2.995318e+02 -2.312670e+02
     vertex  1.426531e+02 -2.979748e+02 -2.312670e+02
     vertex  1.426531e+02 -2.979748e+02  0.000000e+00
   endloop
 endfacet
 facet normal  4.317007e-01 -9.020169e-01  0.000000e+00
   outer loop
     vertex  1.394923e+02 -2.995318e+02 -2.312670e+02
     vertex  1.394923e+02 -2.995318e+02  0.000000e+00
     vertex  1.363140e+02 -3.010529e+02  0.000000e+00
   endloop
 endfacet
 facet normal  4.418663e-01 -8.970809e-01  0.000000e+00
   outer loop
     vertex  1.394923e+02 -2.995318e+02 -2.312670e+02
     vertex  1.426531e+02 -2.979748e+02  0.000000e+00
     vertex  1.394923e+02 -2.995318e+02  0.000000e+00
   endloop
 endfacet
 facet normal  4.317007e-01 -9.020169e-01  0.000000e+00
   outer loop
     vertex  1.363140e+02 -3.010529e+02 -2.312670e+02
     vertex  1.394923e+02 -2.995318e+02 -2.312670e+02
     vertex  1.363140e+02 -3.010529e+02  0.000000e+00
   endloop
 endfacet
 facet normal  4.112054e-01 -9.115427e-01  0.000000e+00
   outer loop
     vertex  1.331188e+02 -3.025379e+02 -2.312670e+02
     vertex  1.331188e+02 -3.025379e+02  0.000000e+00
     vertex  1.299069e+02 -3.039868e+02  0.000000e+00
   endloop
 endfacet
 facet normal  4.214799e-01 -9.068377e-01  0.000000e+00
   outer loop
     vertex  1.331188e+02 -3.025379e+02 -2.312670e+02
     vertex  1.363140e+02 -3.010529e+02  0.000000e+00
     vertex  1.331188e+02 -3.025379e+02  0.000000e+00
   endloop
 endfacet
 facet normal  4.214799e-01 -9.068377e-01  0.000000e+00
   outer loop
     vertex  1.331188e+02 -3.025379e+02 -2.312670e+02
     vertex  1.363140e+02 -3.010529e+02 -2.312670e+02
     vertex  1.363140e+02 -3.010529e+02  0.000000e+00
   endloop
 endfacet
 facet normal  4.112054e-01 -9.115427e-01  0.000000e+00
   outer loop
     vertex  1.299069e+02 -3.039868e+02 -2.312670e+02
     vertex  1.331188e+02 -3.025379e+02 -2.312670e+02
     vertex  1.299069e+02 -3.039868e+02  0.000000e+00
   endloop
 endfacet
 facet normal  3.905000e-01 -9.206029e-01  0.000000e+00
   outer loop
     vertex  1.266789e+02 -3.053993e+02 -2.312670e+02
     vertex  1.266789e+02 -3.053993e+02  0.000000e+00
     vertex  1.234352e+02 -3.067753e+02  0.000000e+00
   endloop
 endfacet
 facet normal  4.008782e-01 -9.161313e-01  0.000000e+00
   outer loop
     vertex  1.266789e+02 -3.053993e+02 -2.312670e+02
     vertex  1.299069e+02 -3.039868e+02  0.000000e+00
     vertex  1.266789e+02 -3.053993e+02  0.000000e+00
   endloop
 endfacet
 facet normal  4.008782e-01 -9.161313e-01  0.000000e+00
   outer loop
     vertex  1.266789e+02 -3.053993e+02 -2.312670e+02
     vertex  1.299069e+02 -3.039868e+02 -2.312670e+02
     vertex  1.299069e+02 -3.039868e+02  0.000000e+00
   endloop
 endfacet
 facet normal  3.800718e-01 -9.249570e-01  0.000000e+00
   outer loop
     vertex  1.234352e+02 -3.067753e+02 -2.312670e+02
     vertex  1.234352e+02 -3.067753e+02  0.000000e+00
     vertex  1.201761e+02 -3.081145e+02  0.000000e+00
   endloop
 endfacet
 facet normal  3.905000e-01 -9.206029e-01  0.000000e+00
   outer loop
     vertex  1.234352e+02 -3.067753e+02 -2.312670e+02
     vertex  1.266789e+02 -3.053993e+02 -2.312670e+02
     vertex  1.234352e+02 -3.067753e+02  0.000000e+00
   endloop
 endfacet
 facet normal  3.800718e-01 -9.249570e-01  0.000000e+00
   outer loop
     vertex  1.201761e+02 -3.081145e+02 -2.312670e+02
     vertex  1.234352e+02 -3.067753e+02 -2.312670e+02
     vertex  1.201761e+02 -3.081145e+02  0.000000e+00
   endloop
 endfacet
 facet normal  3.695951e-01 -9.291929e-01  0.000000e+00
   outer loop
     vertex  1.169020e+02 -3.094167e+02 -2.312670e+02
     vertex  1.201761e+02 -3.081145e+02 -2.312670e+02
     vertex  1.201761e+02 -3.081145e+02  0.000000e+00
   endloop
 endfacet
 facet normal  3.695951e-01 -9.291929e-01  0.000000e+00
   outer loop
     vertex  1.169020e+02 -3.094167e+02 -2.312670e+02
     vertex  1.201761e+02 -3.081145e+02  0.000000e+00
     vertex  1.169020e+02 -3.094167e+02  0.000000e+00
   endloop
 endfacet
 facet normal  3.590712e-01 -9.333102e-01  0.000000e+00
   outer loop
     vertex  1.136135e+02 -3.106819e+02 -2.312670e+02
     vertex  1.169020e+02 -3.094167e+02 -2.312670e+02
     vertex  1.169020e+02 -3.094167e+02  0.000000e+00
   endloop
 endfacet
 facet normal  3.485014e-01 -9.373082e-01  0.000000e+00
   outer loop
     vertex  1.136135e+02 -3.106819e+02 -2.312670e+02
     vertex  1.136135e+02 -3.106819e+02  0.000000e+00
     vertex  1.103109e+02 -3.119099e+02  0.000000e+00
   endloop
 endfacet
 facet normal  3.590712e-01 -9.333102e-01  0.000000e+00
   outer loop
     vertex  1.136135e+02 -3.106819e+02 -2.312670e+02
     vertex  1.169020e+02 -3.094167e+02  0.000000e+00
     vertex  1.136135e+02 -3.106819e+02  0.000000e+00
   endloop
 endfacet
 facet normal  3.485014e-01 -9.373082e-01  0.000000e+00
   outer loop
     vertex  1.103109e+02 -3.119099e+02 -2.312670e+02
     vertex  1.136135e+02 -3.106819e+02 -2.312670e+02
     vertex  1.103109e+02 -3.119099e+02  0.000000e+00
   endloop
 endfacet
 facet normal  3.378872e-01 -9.411866e-01  0.000000e+00
   outer loop
     vertex  1.103109e+02 -3.119099e+02 -2.312670e+02
     vertex  1.103109e+02 -3.119099e+02  0.000000e+00
     vertex  1.069946e+02 -3.131004e+02  0.000000e+00
   endloop
 endfacet
 facet normal  3.378872e-01 -9.411866e-01  0.000000e+00
   outer loop
     vertex  1.069946e+02 -3.131004e+02 -2.312670e+02
     vertex  1.103109e+02 -3.119099e+02 -2.312670e+02
     vertex  1.069946e+02 -3.131004e+02  0.000000e+00
   endloop
 endfacet
 facet normal  3.272298e-01 -9.449448e-01  0.000000e+00
   outer loop
     vertex  1.036651e+02 -3.142534e+02 -2.312670e+02
     vertex  1.069946e+02 -3.131004e+02 -2.312670e+02
     vertex  1.069946e+02 -3.131004e+02  0.000000e+00
   endloop
 endfacet
 facet normal  3.272298e-01 -9.449448e-01  0.000000e+00
   outer loop
     vertex  1.036651e+02 -3.142534e+02 -2.312670e+02
     vertex  1.069946e+02 -3.131004e+02  0.000000e+00
     vertex  1.036651e+02 -3.142534e+02  0.000000e+00
   endloop
 endfacet
 facet normal  3.165306e-01 -9.485823e-01  0.000000e+00
   outer loop
     vertex  1.003228e+02 -3.153687e+02 -2.312670e+02
     vertex  1.036651e+02 -3.142534e+02 -2.312670e+02
     vertex  1.036651e+02 -3.142534e+02  0.000000e+00
   endloop
 endfacet
 facet normal  3.057909e-01 -9.520987e-01  0.000000e+00
   outer loop
     vertex  1.003228e+02 -3.153687e+02 -2.312670e+02
     vertex  1.003228e+02 -3.153687e+02  0.000000e+00
     vertex  9.696803e+01 -3.164462e+02  0.000000e+00
   endloop
 endfacet
 facet normal  3.165306e-01 -9.485823e-01  0.000000e+00
   outer loop
     vertex  1.003228e+02 -3.153687e+02 -2.312670e+02
     vertex  1.036651e+02 -3.142534e+02  0.000000e+00
     vertex  1.003228e+02 -3.153687e+02  0.000000e+00
   endloop
 endfacet
 facet normal  3.057909e-01 -9.520987e-01  0.000000e+00
   outer loop
     vertex  9.696803e+01 -3.164462e+02 -2.312670e+02
     vertex  1.003228e+02 -3.153687e+02 -2.312670e+02
     vertex  9.696803e+01 -3.164462e+02  0.000000e+00
   endloop
 endfacet
 facet normal  2.950123e-01 -9.554935e-01  0.000000e+00
   outer loop
     vertex  9.360133e+01 -3.174856e+02 -2.312670e+02
     vertex  9.696803e+01 -3.164462e+02 -2.312670e+02
     vertex  9.696803e+01 -3.164462e+02  0.000000e+00
   endloop
 endfacet
 facet normal  2.950123e-01 -9.554935e-01  0.000000e+00
   outer loop
     vertex  9.360133e+01 -3.174856e+02 -2.312670e+02
     vertex  9.696803e+01 -3.164462e+02  0.000000e+00
     vertex  9.360133e+01 -3.174856e+02  0.000000e+00
   endloop
 endfacet
 facet normal  2.841959e-01 -9.587662e-01  0.000000e+00
   outer loop
     vertex  9.022311e+01 -3.184870e+02 -2.312670e+02
     vertex  9.360133e+01 -3.174856e+02 -2.312670e+02
     vertex  9.360133e+01 -3.174856e+02  0.000000e+00
   endloop
 endfacet
 facet normal  2.733433e-01 -9.619165e-01  0.000000e+00
   outer loop
     vertex  9.022311e+01 -3.184870e+02 -2.312670e+02
     vertex  9.022311e+01 -3.184870e+02  0.000000e+00
     vertex  8.683379e+01 -3.194501e+02  0.000000e+00
   endloop
 endfacet
 facet normal  2.841959e-01 -9.587662e-01  0.000000e+00
   outer loop
     vertex  9.022311e+01 -3.184870e+02 -2.312670e+02
     vertex  9.360133e+01 -3.174856e+02  0.000000e+00
     vertex  9.022311e+01 -3.184870e+02  0.000000e+00
   endloop
 endfacet
 facet normal  2.733433e-01 -9.619165e-01  0.000000e+00
   outer loop
     vertex  8.683379e+01 -3.194501e+02 -2.312670e+02
     vertex  9.022311e+01 -3.184870e+02 -2.312670e+02
     vertex  8.683379e+01 -3.194501e+02  0.000000e+00
   endloop
 endfacet
 facet normal  2.624557e-01 -9.649440e-01  0.000000e+00
   outer loop
     vertex  8.343380e+01 -3.203749e+02 -2.312670e+02
     vertex  8.683379e+01 -3.194501e+02 -2.312670e+02
     vertex  8.683379e+01 -3.194501e+02  0.000000e+00
   endloop
 endfacet
 facet normal  2.515347e-01 -9.678483e-01  0.000000e+00
   outer loop
     vertex  8.343380e+01 -3.203749e+02 -2.312670e+02
     vertex  8.343380e+01 -3.203749e+02  0.000000e+00
     vertex  8.002357e+01 -3.212612e+02  0.000000e+00
   endloop
 endfacet
 facet normal  2.624557e-01 -9.649440e-01  0.000000e+00
   outer loop
     vertex  8.343380e+01 -3.203749e+02 -2.312670e+02
     vertex  8.683379e+01 -3.194501e+02  0.000000e+00
     vertex  8.343380e+01 -3.203749e+02  0.000000e+00
   endloop
 endfacet
 facet normal  2.515347e-01 -9.678483e-01  0.000000e+00
   outer loop
     vertex  8.002357e+01 -3.212612e+02 -2.312670e+02
     vertex  8.343380e+01 -3.203749e+02 -2.312670e+02
     vertex  8.002357e+01 -3.212612e+02  0.000000e+00
   endloop
 endfacet
 facet normal  2.405815e-01 -9.706289e-01  0.000000e+00
   outer loop
     vertex  7.660355e+01 -3.221089e+02 -2.312670e+02
     vertex  8.002357e+01 -3.212612e+02 -2.312670e+02
     vertex  8.002357e+01 -3.212612e+02  0.000000e+00
   endloop
 endfacet
 facet normal  2.295976e-01 -9.732856e-01  0.000000e+00
   outer loop
     vertex  7.660355e+01 -3.221089e+02 -2.312670e+02
     vertex  7.660355e+01 -3.221089e+02  0.000000e+00
     vertex  7.317417e+01 -3.229179e+02  0.000000e+00
   endloop
 endfacet
 facet normal  2.405815e-01 -9.706289e-01  0.000000e+00
   outer loop
     vertex  7.660355e+01 -3.221089e+02 -2.312670e+02
     vertex  8.002357e+01 -3.212612e+02  0.000000e+00
     vertex  7.660355e+01 -3.221089e+02  0.000000e+00
   endloop
 endfacet
 facet normal  2.295976e-01 -9.732856e-01  0.000000e+00
   outer loop
     vertex  7.317417e+01 -3.229179e+02 -2.312670e+02
     vertex  7.660355e+01 -3.221089e+02 -2.312670e+02
     vertex  7.317417e+01 -3.229179e+02  0.000000e+00
   endloop
 endfacet
 facet normal  2.185844e-01 -9.758181e-01  0.000000e+00
   outer loop
     vertex  6.973586e+01 -3.236881e+02 -2.312670e+02
     vertex  7.317417e+01 -3.229179e+02 -2.312670e+02
     vertex  7.317417e+01 -3.229179e+02  0.000000e+00
   endloop
 endfacet
 facet normal  2.075432e-01 -9.782258e-01  0.000000e+00
   outer loop
     vertex  6.973586e+01 -3.236881e+02 -2.312670e+02
     vertex  6.973586e+01 -3.236881e+02  0.000000e+00
     vertex  6.628907e+01 -3.244193e+02  0.000000e+00
   endloop
 endfacet
 facet normal  2.185844e-01 -9.758181e-01  0.000000e+00
   outer loop
     vertex  6.973586e+01 -3.236881e+02 -2.312670e+02
     vertex  7.317417e+01 -3.229179e+02  0.000000e+00
     vertex  6.973586e+01 -3.236881e+02  0.000000e+00
   endloop
 endfacet
 facet normal  2.075432e-01 -9.782258e-01  0.000000e+00
   outer loop
     vertex  6.628907e+01 -3.244193e+02 -2.312670e+02
     vertex  6.973586e+01 -3.236881e+02 -2.312670e+02
     vertex  6.628907e+01 -3.244193e+02  0.000000e+00
   endloop
 endfacet
 facet normal  1.853828e-01 -9.826664e-01  0.000000e+00
   outer loop
     vertex  6.283424e+01 -3.251116e+02 -2.312670e+02
     vertex  6.283424e+01 -3.251116e+02  0.000000e+00
     vertex  5.937180e+01 -3.257648e+02  0.000000e+00
   endloop
 endfacet
 facet normal  1.964756e-01 -9.805087e-01  0.000000e+00
   outer loop
     vertex  6.283424e+01 -3.251116e+02 -2.312670e+02
     vertex  6.628907e+01 -3.244193e+02  0.000000e+00
     vertex  6.283424e+01 -3.251116e+02  0.000000e+00
   endloop
 endfacet
 facet normal  1.964756e-01 -9.805087e-01  0.000000e+00
   outer loop
     vertex  6.283424e+01 -3.251116e+02 -2.312670e+02
     vertex  6.628907e+01 -3.244193e+02 -2.312670e+02
     vertex  6.628907e+01 -3.244193e+02  0.000000e+00
   endloop
 endfacet
 facet normal  1.853828e-01 -9.826664e-01  0.000000e+00
   outer loop
     vertex  5.937180e+01 -3.257648e+02 -2.312670e+02
     vertex  6.283424e+01 -3.251116e+02 -2.312670e+02
     vertex  5.937180e+01 -3.257648e+02  0.000000e+00
   endloop
 endfacet
 facet normal  1.631278e-01 -9.866050e-01  0.000000e+00
   outer loop
     vertex  5.590220e+01 -3.263789e+02 -2.312670e+02
     vertex  5.590220e+01 -3.263789e+02  0.000000e+00
     vertex  5.242589e+01 -3.269536e+02  0.000000e+00
   endloop
 endfacet
 facet normal  1.742664e-01 -9.846985e-01  0.000000e+00
   outer loop
     vertex  5.590220e+01 -3.263789e+02 -2.312670e+02
     vertex  5.937180e+01 -3.257648e+02  0.000000e+00
     vertex  5.590220e+01 -3.263789e+02  0.000000e+00
   endloop
 endfacet
 facet normal  1.742664e-01 -9.846985e-01  0.000000e+00
   outer loop
     vertex  5.590220e+01 -3.263789e+02 -2.312670e+02
     vertex  5.937180e+01 -3.257648e+02 -2.312670e+02
     vertex  5.937180e+01 -3.257648e+02  0.000000e+00
   endloop
 endfacet
 facet normal  1.631278e-01 -9.866050e-01  0.000000e+00
   outer loop
     vertex  5.242589e+01 -3.269536e+02 -2.312670e+02
     vertex  5.590220e+01 -3.263789e+02 -2.312670e+02
     vertex  5.242589e+01 -3.269536e+02  0.000000e+00
   endloop
 endfacet
 facet normal  1.407894e-01 -9.900396e-01  0.000000e+00
   outer loop
     vertex  4.894330e+01 -3.274891e+02 -2.312670e+02
     vertex  4.894330e+01 -3.274891e+02  0.000000e+00
     vertex  4.545489e+01 -3.279852e+02  0.000000e+00
   endloop
 endfacet
 facet normal  1.519683e-01 -9.883854e-01  0.000000e+00
   outer loop
     vertex  4.894330e+01 -3.274891e+02 -2.312670e+02
     vertex  5.242589e+01 -3.269536e+02  0.000000e+00
     vertex  4.894330e+01 -3.274891e+02  0.000000e+00
   endloop
 endfacet
 facet normal  1.519683e-01 -9.883854e-01  0.000000e+00
   outer loop
     vertex  4.894330e+01 -3.274891e+02 -2.312670e+02
     vertex  5.242589e+01 -3.269536e+02 -2.312670e+02
     vertex  5.242589e+01 -3.269536e+02  0.000000e+00
   endloop
 endfacet
 facet normal  1.407894e-01 -9.900396e-01  0.000000e+00
   outer loop
     vertex  4.545489e+01 -3.279852e+02 -2.312670e+02
     vertex  4.894330e+01 -3.274891e+02 -2.312670e+02
     vertex  4.545489e+01 -3.279852e+02  0.000000e+00
   endloop
 endfacet
 facet normal  1.295925e-01 -9.915673e-01  0.000000e+00
   outer loop
     vertex  4.196109e+01 -3.284418e+02 -2.312670e+02
     vertex  4.545489e+01 -3.279852e+02  0.000000e+00
     vertex  4.196109e+01 -3.284418e+02  0.000000e+00
   endloop
 endfacet
 facet normal  1.295925e-01 -9.915673e-01  0.000000e+00
   outer loop
     vertex  4.196109e+01 -3.284418e+02 -2.312670e+02
     vertex  4.545489e+01 -3.279852e+02 -2.312670e+02
     vertex  4.545489e+01 -3.279852e+02  0.000000e+00
   endloop
 endfacet
 facet normal  1.183790e-01 -9.929685e-01  0.000000e+00
   outer loop
     vertex  3.846235e+01 -3.288589e+02 -2.312670e+02
     vertex  4.196109e+01 -3.284418e+02  0.000000e+00
     vertex  3.846235e+01 -3.288589e+02  0.000000e+00
   endloop
 endfacet
 facet normal  1.183790e-01 -9.929685e-01  0.000000e+00
   outer loop
     vertex  3.846235e+01 -3.288589e+02 -2.312670e+02
     vertex  4.196109e+01 -3.284418e+02 -2.312670e+02
     vertex  4.196109e+01 -3.284418e+02  0.000000e+00
   endloop
 endfacet
 facet normal  9.590824e-02 -9.953902e-01  0.000000e+00
   outer loop
     vertex  3.495913e+01 -3.292364e+02 -2.312670e+02
     vertex  3.495913e+01 -3.292364e+02  0.000000e+00
     vertex  3.145186e+01 -3.295744e+02  0.000000e+00
   endloop
 endfacet
 facet normal  1.071505e-01 -9.942428e-01  0.000000e+00
   outer loop
     vertex  3.495913e+01 -3.292364e+02 -2.312670e+02
     vertex  3.846235e+01 -3.288589e+02  0.000000e+00
     vertex  3.495913e+01 -3.292364e+02  0.000000e+00
   endloop
 endfacet
 facet normal  1.071505e-01 -9.942428e-01  0.000000e+00
   outer loop
     vertex  3.495913e+01 -3.292364e+02 -2.312670e+02
     vertex  3.846235e+01 -3.288589e+02 -2.312670e+02
     vertex  3.846235e+01 -3.288589e+02  0.000000e+00
   endloop
 endfacet
 facet normal  9.590824e-02 -9.953902e-01  0.000000e+00
   outer loop
     vertex  3.145186e+01 -3.295744e+02 -2.312670e+02
     vertex  3.495913e+01 -3.292364e+02 -2.312670e+02
     vertex  3.145186e+01 -3.295744e+02  0.000000e+00
   endloop
 endfacet
 facet normal  8.465376e-02 -9.964104e-01  0.000000e+00
   outer loop
     vertex  2.794100e+01 -3.298727e+02 -2.312670e+02
     vertex  3.145186e+01 -3.295744e+02 -2.312670e+02
     vertex  3.145186e+01 -3.295744e+02  0.000000e+00
   endloop
 endfacet
 facet normal  7.338847e-02 -9.973034e-01  0.000000e+00
   outer loop
     vertex  2.794100e+01 -3.298727e+02 -2.312670e+02
     vertex  2.794100e+01 -3.298727e+02  0.000000e+00
     vertex  2.442699e+01 -3.301312e+02  0.000000e+00
   endloop
 endfacet
 facet normal  8.465376e-02 -9.964104e-01  0.000000e+00
   outer loop
     vertex  2.794100e+01 -3.298727e+02 -2.312670e+02
     vertex  3.145186e+01 -3.295744e+02  0.000000e+00
     vertex  2.794100e+01 -3.298727e+02  0.000000e+00
   endloop
 endfacet
 facet normal  7.338847e-02 -9.973034e-01  0.000000e+00
   outer loop
     vertex  2.442699e+01 -3.301312e+02 -2.312670e+02
     vertex  2.794100e+01 -3.298727e+02 -2.312670e+02
     vertex  2.442699e+01 -3.301312e+02  0.000000e+00
   endloop
 endfacet
 facet normal  6.211380e-02 -9.980691e-01  0.000000e+00
   outer loop
     vertex  2.091028e+01 -3.303501e+02 -2.312670e+02
     vertex  2.442699e+01 -3.301312e+02 -2.312670e+02
     vertex  2.442699e+01 -3.301312e+02  0.000000e+00
   endloop
 endfacet
 facet normal  6.211380e-02 -9.980691e-01  0.000000e+00
   outer loop
     vertex  2.091028e+01 -3.303501e+02 -2.312670e+02
     vertex  2.442699e+01 -3.301312e+02  0.000000e+00
     vertex  2.091028e+01 -3.303501e+02  0.000000e+00
   endloop
 endfacet
 facet normal  5.083120e-02 -9.987073e-01  0.000000e+00
   outer loop
     vertex  1.739132e+01 -3.305292e+02 -2.312670e+02
     vertex  2.091028e+01 -3.303501e+02 -2.312670e+02
     vertex  2.091028e+01 -3.303501e+02  0.000000e+00
   endloop
 endfacet
 facet normal  5.083120e-02 -9.987073e-01  0.000000e+00
   outer loop
     vertex  1.739132e+01 -3.305292e+02 -2.312670e+02
     vertex  2.091028e+01 -3.303501e+02  0.000000e+00
     vertex  1.739132e+01 -3.305292e+02  0.000000e+00
   endloop
 endfacet
 facet normal  3.954211e-02 -9.992179e-01  0.000000e+00
   outer loop
     vertex  1.387057e+01 -3.306685e+02 -2.312670e+02
     vertex  1.739132e+01 -3.305292e+02 -2.312670e+02
     vertex  1.739132e+01 -3.305292e+02  0.000000e+00
   endloop
 endfacet
 facet normal  2.824797e-02 -9.996009e-01  0.000000e+00
   outer loop
     vertex  1.387057e+01 -3.306685e+02 -2.312670e+02
     vertex  1.387057e+01 -3.306685e+02  0.000000e+00
     vertex  1.034846e+01 -3.307681e+02  0.000000e+00
   endloop
 endfacet
 facet normal  3.954211e-02 -9.992179e-01  0.000000e+00
   outer loop
     vertex  1.387057e+01 -3.306685e+02 -2.312670e+02
     vertex  1.739132e+01 -3.305292e+02  0.000000e+00
     vertex  1.387057e+01 -3.306685e+02  0.000000e+00
   endloop
 endfacet
 facet normal  2.824797e-02 -9.996009e-01  0.000000e+00
   outer loop
     vertex  1.034846e+01 -3.307681e+02 -2.312670e+02
     vertex  1.387057e+01 -3.306685e+02 -2.312670e+02
     vertex  1.034846e+01 -3.307681e+02  0.000000e+00
   endloop
 endfacet
 facet normal  1.695023e-02 -9.998563e-01  0.000000e+00
   outer loop
     vertex  6.825455e+00 -3.308278e+02 -2.312670e+02
     vertex  1.034846e+01 -3.307681e+02 -2.312670e+02
     vertex  1.034846e+01 -3.307681e+02  0.000000e+00
   endloop
 endfacet
 facet normal  5.650316e-03 -9.999840e-01  0.000000e+00
   outer loop
     vertex  6.825455e+00 -3.308278e+02 -2.312670e+02
     vertex  6.825455e+00 -3.308278e+02  0.000000e+00
     vertex  3.302000e+00 -3.308477e+02  0.000000e+00
   endloop
 endfacet
 facet normal  1.695023e-02 -9.998563e-01  0.000000e+00
   outer loop
     vertex  6.825455e+00 -3.308278e+02 -2.312670e+02
     vertex  1.034846e+01 -3.307681e+02  0.000000e+00
     vertex  6.825455e+00 -3.308278e+02  0.000000e+00
   endloop
 endfacet
 facet normal  5.650316e-03 -9.999840e-01  0.000000e+00
   outer loop
     vertex  3.302000e+00 -3.308477e+02 -2.312670e+02
     vertex  6.825455e+00 -3.308278e+02 -2.312670e+02
     vertex  3.302000e+00 -3.308477e+02  0.000000e+00
   endloop
 endfacet
endsolid
