solid 
 facet normal -6.575844e-03  9.999784e-01  0.000000e+00
   outer loop
     vertex  2.873674e+01  2.608509e+02  3.429000e+00
     vertex  3.175000e+01  2.608707e+02  3.429000e+00
     vertex  3.175000e+01  2.608707e+02  0.000000e+00
   endloop
 endfacet
 facet normal -6.575844e-03  9.999784e-01 -3.010218e-14
   outer loop
     vertex  2.873674e+01  2.608509e+02  3.429000e+00
     vertex  3.175000e+01  2.608707e+02  0.000000e+00
     vertex  2.873674e+01  2.608509e+02 -3.796901e-31
   endloop
 endfacet
 facet normal -1.972639e-02  9.998054e-01 -2.447852e-14
   outer loop
     vertex  2.572400e+01  2.607914e+02  3.429000e+00
     vertex  2.873674e+01  2.608509e+02 -3.796901e-31
     vertex  2.572400e+01  2.607914e+02 -3.842346e-31
   endloop
 endfacet
 facet normal -1.972639e-02  9.998054e-01  9.159912e-15
   outer loop
     vertex  2.572400e+01  2.607914e+02  3.429000e+00
     vertex  2.873674e+01  2.608509e+02  3.429000e+00
     vertex  2.873674e+01  2.608509e+02 -3.796901e-31
   endloop
 endfacet
 facet normal -3.287353e-02  9.994595e-01 -1.945328e-14
   outer loop
     vertex  2.271231e+01  2.606924e+02  3.429000e+00
     vertex  2.572400e+01  2.607914e+02 -3.842346e-31
     vertex  2.271231e+01  2.606924e+02 -3.887127e-31
   endloop
 endfacet
 facet normal -3.287353e-02  9.994595e-01  1.446783e-14
   outer loop
     vertex  2.271231e+01  2.606924e+02  3.429000e+00
     vertex  2.572400e+01  2.607914e+02  3.429000e+00
     vertex  2.572400e+01  2.607914e+02 -3.842346e-31
   endloop
 endfacet
 facet normal -4.601499e-02  9.989407e-01 -1.516548e-14
   outer loop
     vertex  1.970218e+01  2.605537e+02  3.429000e+00
     vertex  2.271231e+01  2.606924e+02 -3.887127e-31
     vertex  1.970218e+01  2.605537e+02 -3.931236e-31
   endloop
 endfacet
 facet normal -4.601499e-02  9.989407e-01  1.919552e-14
   outer loop
     vertex  1.970218e+01  2.605537e+02  3.429000e+00
     vertex  2.271231e+01  2.606924e+02  3.429000e+00
     vertex  2.271231e+01  2.606924e+02 -3.887127e-31
   endloop
 endfacet
 facet normal -5.914848e-02  9.982492e-01 -2.809097e-14
   outer loop
     vertex  1.669413e+01  2.603755e+02  3.429000e+00
     vertex  1.970218e+01  2.605537e+02 -3.931236e-31
     vertex  1.669413e+01  2.603755e+02 -3.974664e-31
   endloop
 endfacet
 facet normal -5.914848e-02  9.982492e-01  2.315497e-14
   outer loop
     vertex  1.669413e+01  2.603755e+02  3.429000e+00
     vertex  1.970218e+01  2.605537e+02  3.429000e+00
     vertex  1.970218e+01  2.605537e+02 -3.931236e-31
   endloop
 endfacet
 facet normal -7.227174e-02  9.973850e-01 -2.518250e-14
   outer loop
     vertex  1.368868e+01  2.601577e+02  3.429000e+00
     vertex  1.669413e+01  2.603755e+02 -3.974664e-31
     vertex  1.368868e+01  2.601577e+02 -4.017405e-31
   endloop
 endfacet
 facet normal -7.227174e-02  9.973850e-01  9.906673e-15
   outer loop
     vertex  1.368868e+01  2.601577e+02  3.429000e+00
     vertex  1.669413e+01  2.603755e+02  3.429000e+00
     vertex  1.669413e+01  2.603755e+02 -3.974664e-31
   endloop
 endfacet
 facet normal -8.538250e-02  9.963482e-01 -6.246871e-15
   outer loop
     vertex  1.068636e+01  2.599004e+02  3.429000e+00
     vertex  1.368868e+01  2.601577e+02 -4.017405e-31
     vertex  1.068636e+01  2.599004e+02 -4.059452e-31
   endloop
 endfacet
 facet normal -8.538250e-02  9.963482e-01  1.248542e-14
   outer loop
     vertex  1.068636e+01  2.599004e+02  3.429000e+00
     vertex  1.368868e+01  2.601577e+02  3.429000e+00
     vertex  1.368868e+01  2.601577e+02 -4.017405e-31
   endloop
 endfacet
 facet normal -9.847850e-02  9.951392e-01 -4.652485e-15
   outer loop
     vertex  7.687687e+00  2.596037e+02  3.429000e+00
     vertex  1.068636e+01  2.599004e+02 -4.059452e-31
     vertex  7.687687e+00  2.596037e+02 -4.100796e-31
   endloop
 endfacet
 facet normal -9.847850e-02  9.951392e-01  3.109535e-14
   outer loop
     vertex  7.687687e+00  2.596037e+02  3.429000e+00
     vertex  1.068636e+01  2.599004e+02  3.429000e+00
     vertex  1.068636e+01  2.599004e+02 -4.059452e-31
   endloop
 endfacet
 facet normal -1.115575e-01  9.937580e-01 -2.029300e-14
   outer loop
     vertex  4.693172e+00  2.592675e+02  3.429000e+00
     vertex  7.687687e+00  2.596037e+02 -4.100796e-31
     vertex  4.693172e+00  2.592675e+02 -4.141430e-31
   endloop
 endfacet
 facet normal -1.115575e-01  9.937580e-01  3.236323e-14
   outer loop
     vertex  4.693172e+00  2.592675e+02  3.429000e+00
     vertex  7.687687e+00  2.596037e+02  3.429000e+00
     vertex  7.687687e+00  2.596037e+02 -4.100796e-31
   endloop
 endfacet
 facet normal -1.246171e-01  9.922049e-01 -2.009433e-14
   outer loop
     vertex  1.703337e+00  2.588920e+02  3.429000e+00
     vertex  4.693172e+00  2.592675e+02 -4.141430e-31
     vertex  1.703337e+00  2.588920e+02 -4.181349e-31
   endloop
 endfacet
 facet normal -1.246171e-01  9.922049e-01  1.641800e-14
   outer loop
     vertex  1.703337e+00  2.588920e+02  3.429000e+00
     vertex  4.693172e+00  2.592675e+02  3.429000e+00
     vertex  4.693172e+00  2.592675e+02 -4.141430e-31
   endloop
 endfacet
 facet normal -1.376552e-01  9.904802e-01 -2.011275e-14
   outer loop
     vertex -1.281300e+00  2.584772e+02  3.429000e+00
     vertex  1.703337e+00  2.588920e+02 -4.181349e-31
     vertex -1.281300e+00  2.584772e+02 -4.220544e-31
   endloop
 endfacet
 facet normal -1.376552e-01  9.904802e-01  1.628906e-14
   outer loop
     vertex -1.281300e+00  2.584772e+02  3.429000e+00
     vertex  1.703337e+00  2.588920e+02  3.429000e+00
     vertex  1.703337e+00  2.588920e+02 -4.181349e-31
   endloop
 endfacet
 facet normal -1.506695e-01  9.885842e-01  1.598821e-14
   outer loop
     vertex -4.260225e+00  2.580232e+02  3.429000e+00
     vertex -1.281300e+00  2.584772e+02  3.429000e+00
     vertex -1.281300e+00  2.584772e+02 -4.220544e-31
   endloop
 endfacet
 facet normal -1.506695e-01  9.885842e-01 -2.146298e-14
   outer loop
     vertex -4.260225e+00  2.580232e+02  3.429000e+00
     vertex -1.281300e+00  2.584772e+02 -4.220544e-31
     vertex -4.260225e+00  2.580232e+02 -4.259009e-31
   endloop
 endfacet
 facet normal -1.636578e-01  9.865172e-01  1.431203e-14
   outer loop
     vertex -7.232921e+00  2.575300e+02  3.429000e+00
     vertex -4.260225e+00  2.580232e+02  3.429000e+00
     vertex -4.260225e+00  2.580232e+02 -4.259009e-31
   endloop
 endfacet
 facet normal -1.636578e-01  9.865172e-01 -7.132576e-15
   outer loop
     vertex -7.232921e+00  2.575300e+02  3.429000e+00
     vertex -4.260225e+00  2.580232e+02 -4.259009e-31
     vertex -7.232921e+00  2.575300e+02 -4.296738e-31
   endloop
 endfacet
 facet normal -1.766177e-01  9.842795e-01  2.825873e-14
   outer loop
     vertex -1.019887e+01  2.569978e+02  3.429000e+00
     vertex -7.232921e+00  2.575300e+02  3.429000e+00
     vertex -7.232921e+00  2.575300e+02 -4.296738e-31
   endloop
 endfacet
 facet normal -1.766177e-01  9.842795e-01 -2.580344e-14
   outer loop
     vertex -1.019887e+01  2.569978e+02  3.429000e+00
     vertex -7.232921e+00  2.575300e+02 -4.296738e-31
     vertex -1.019887e+01  2.569978e+02 -4.333723e-31
   endloop
 endfacet
 facet normal -1.895471e-01  9.818716e-01  9.326456e-15
   outer loop
     vertex -1.315757e+01  2.564267e+02  3.429000e+00
     vertex -1.019887e+01  2.569978e+02  3.429000e+00
     vertex -1.019887e+01  2.569978e+02 -4.333723e-31
   endloop
 endfacet
 facet normal -1.895471e-01  9.818716e-01 -2.910590e-14
   outer loop
     vertex -1.315757e+01  2.564267e+02  3.429000e+00
     vertex -1.019887e+01  2.569978e+02 -4.333723e-31
     vertex -1.315757e+01  2.564267e+02 -4.369959e-31
   endloop
 endfacet
 facet normal -2.024437e-01  9.792939e-01  5.716215e-15
   outer loop
     vertex -1.610850e+01  2.558166e+02  3.429000e+00
     vertex -1.315757e+01  2.564267e+02  3.429000e+00
     vertex -1.315757e+01  2.564267e+02 -4.369959e-31
   endloop
 endfacet
 facet normal -2.024437e-01  9.792939e-01 -1.638726e-14
   outer loop
     vertex -1.610850e+01  2.558166e+02  3.429000e+00
     vertex -1.315757e+01  2.564267e+02 -4.369959e-31
     vertex -1.610850e+01  2.558166e+02 -4.405438e-31
   endloop
 endfacet
 facet normal -2.153053e-01  9.765468e-01  1.809418e-14
   outer loop
     vertex -1.905115e+01  2.551679e+02  3.429000e+00
     vertex -1.610850e+01  2.558166e+02  3.429000e+00
     vertex -1.610850e+01  2.558166e+02 -4.405438e-31
   endloop
 endfacet
 facet normal -2.153053e-01  9.765468e-01 -1.331129e-14
   outer loop
     vertex -1.905115e+01  2.551679e+02  3.429000e+00
     vertex -1.610850e+01  2.558166e+02 -4.405438e-31
     vertex -1.905115e+01  2.551679e+02 -4.440156e-31
   endloop
 endfacet
 facet normal -2.281296e-01  9.736308e-01  2.080186e-14
   outer loop
     vertex -2.198502e+01  2.544804e+02  3.429000e+00
     vertex -1.905115e+01  2.551679e+02  3.429000e+00
     vertex -1.905115e+01  2.551679e+02 -4.440156e-31
   endloop
 endfacet
 facet normal -2.281296e-01  9.736308e-01 -1.854114e-14
   outer loop
     vertex -2.198502e+01  2.544804e+02  3.429000e+00
     vertex -1.905115e+01  2.551679e+02 -4.440156e-31
     vertex -2.198502e+01  2.544804e+02 -4.474106e-31
   endloop
 endfacet
 facet normal -2.409145e-01  9.705463e-01  1.530055e-14
   outer loop
     vertex -2.490959e+01  2.537545e+02  3.429000e+00
     vertex -2.198502e+01  2.544804e+02  3.429000e+00
     vertex -2.198502e+01  2.544804e+02 -4.474106e-31
   endloop
 endfacet
 facet normal -2.409145e-01  9.705463e-01 -1.582113e-14
   outer loop
     vertex -2.490959e+01  2.537545e+02  3.429000e+00
     vertex -2.198502e+01  2.544804e+02 -4.474106e-31
     vertex -2.490959e+01  2.537545e+02 -4.507282e-31
   endloop
 endfacet
 facet normal -2.536577e-01  9.672940e-01  1.770737e-14
   outer loop
     vertex -2.782436e+01  2.529901e+02  3.429000e+00
     vertex -2.490959e+01  2.537545e+02  3.429000e+00
     vertex -2.490959e+01  2.537545e+02 -4.507282e-31
   endloop
 endfacet
 facet normal -2.536577e-01  9.672940e-01 -2.327579e-14
   outer loop
     vertex -2.782436e+01  2.529901e+02  3.429000e+00
     vertex -2.490959e+01  2.537545e+02 -4.507282e-31
     vertex -2.782436e+01  2.529901e+02 -4.539679e-31
   endloop
 endfacet
 facet normal -2.663570e-01  9.638744e-01  9.928163e-15
   outer loop
     vertex -3.072882e+01  2.521875e+02  3.429000e+00
     vertex -2.782436e+01  2.529901e+02  3.429000e+00
     vertex -2.782436e+01  2.529901e+02 -4.539679e-31
   endloop
 endfacet
 facet normal -2.663570e-01  9.638744e-01 -2.286034e-14
   outer loop
     vertex -3.072882e+01  2.521875e+02  3.429000e+00
     vertex -2.782436e+01  2.529901e+02 -4.539679e-31
     vertex -3.072882e+01  2.521875e+02 -4.571290e-31
   endloop
 endfacet
 facet normal -2.790103e-01  9.602881e-01  1.001412e-14
   outer loop
     vertex -3.362248e+01  2.513468e+02  3.429000e+00
     vertex -3.072882e+01  2.521875e+02  3.429000e+00
     vertex -3.072882e+01  2.521875e+02 -4.571290e-31
   endloop
 endfacet
 facet normal -2.790103e-01  9.602881e-01 -1.514782e-14
   outer loop
     vertex -3.362248e+01  2.513468e+02  3.429000e+00
     vertex -3.072882e+01  2.521875e+02 -4.571290e-31
     vertex -3.362248e+01  2.513468e+02 -4.602110e-31
   endloop
 endfacet
 facet normal -2.916153e-01  9.565357e-01  1.736354e-14
   outer loop
     vertex -3.650484e+01  2.504680e+02  3.429000e+00
     vertex -3.362248e+01  2.513468e+02  3.429000e+00
     vertex -3.362248e+01  2.513468e+02 -4.602110e-31
   endloop
 endfacet
 facet normal -2.916153e-01  9.565357e-01 -8.148436e-15
   outer loop
     vertex -3.650484e+01  2.504680e+02  3.429000e+00
     vertex -3.362248e+01  2.513468e+02 -4.602110e-31
     vertex -3.650484e+01  2.504680e+02 -4.632135e-31
   endloop
 endfacet
 facet normal -3.041699e-01  9.526178e-01 -1.101112e-14
   outer loop
     vertex -3.937538e+01  2.495515e+02  3.429000e+00
     vertex -3.650484e+01  2.504680e+02 -4.632135e-31
     vertex -3.937538e+01  2.495515e+02 -4.661358e-31
   endloop
 endfacet
 facet normal -3.041699e-01  9.526178e-01  2.402529e-14
   outer loop
     vertex -3.937538e+01  2.495515e+02  3.429000e+00
     vertex -3.650484e+01  2.504680e+02  3.429000e+00
     vertex -3.650484e+01  2.504680e+02 -4.632135e-31
   endloop
 endfacet
 facet normal -3.166718e-01  9.485352e-01 -1.329515e-14
   outer loop
     vertex -4.223363e+01  2.485972e+02  3.429000e+00
     vertex -3.937538e+01  2.495515e+02 -4.661358e-31
     vertex -4.223363e+01  2.485972e+02 -4.689775e-31
   endloop
 endfacet
 facet normal -3.166718e-01  9.485352e-01  2.080186e-14
   outer loop
     vertex -4.223363e+01  2.485972e+02  3.429000e+00
     vertex -3.937538e+01  2.495515e+02  3.429000e+00
     vertex -3.937538e+01  2.495515e+02 -4.661358e-31
   endloop
 endfacet
 facet normal -3.291190e-01  9.442884e-01 -1.619694e-14
   outer loop
     vertex -4.507907e+01  2.476055e+02  3.429000e+00
     vertex -4.223363e+01  2.485972e+02 -4.689775e-31
     vertex -4.507907e+01  2.476055e+02 -4.717381e-31
   endloop
 endfacet
 facet normal -3.291190e-01  9.442884e-01  1.818014e-14
   outer loop
     vertex -4.507907e+01  2.476055e+02  3.429000e+00
     vertex -4.223363e+01  2.485972e+02  3.429000e+00
     vertex -4.223363e+01  2.485972e+02 -4.689775e-31
   endloop
 endfacet
 facet normal -3.415093e-01  9.398784e-01 -2.111947e-14
   outer loop
     vertex -4.791123e+01  2.465764e+02  3.429000e+00
     vertex -4.507907e+01  2.476055e+02 -4.717381e-31
     vertex -4.791123e+01  2.465764e+02 -4.744171e-31
   endloop
 endfacet
 facet normal -3.415093e-01  9.398784e-01  1.495671e-14
   outer loop
     vertex -4.791123e+01  2.465764e+02  3.429000e+00
     vertex -4.507907e+01  2.476055e+02  3.429000e+00
     vertex -4.507907e+01  2.476055e+02 -4.717381e-31
   endloop
 endfacet
 facet normal -3.538405e-01  9.353058e-01 -1.751823e-14
   outer loop
     vertex -5.072961e+01  2.455102e+02  3.429000e+00
     vertex -4.791123e+01  2.465764e+02 -4.744171e-31
     vertex -5.072961e+01  2.455102e+02 -4.770140e-31
   endloop
 endfacet
 facet normal -3.538405e-01  9.353058e-01  9.713267e-15
   outer loop
     vertex -5.072961e+01  2.455102e+02  3.429000e+00
     vertex -4.791123e+01  2.465764e+02  3.429000e+00
     vertex -4.791123e+01  2.465764e+02 -4.744171e-31
   endloop
 endfacet
 facet normal -3.661104e-01  9.305714e-01 -8.379435e-15
   outer loop
     vertex -5.353372e+01  2.444070e+02  3.429000e+00
     vertex -5.072961e+01  2.455102e+02 -4.770140e-31
     vertex -5.353372e+01  2.444070e+02 -4.795284e-31
   endloop
 endfacet
 facet normal -3.661104e-01  9.305714e-01  1.302266e-14
   outer loop
     vertex -5.353372e+01  2.444070e+02  3.429000e+00
     vertex -5.072961e+01  2.455102e+02  3.429000e+00
     vertex -5.072961e+01  2.455102e+02 -4.770140e-31
   endloop
 endfacet
 facet normal -3.783171e-01  9.256761e-01 -1.384963e-14
   outer loop
     vertex -5.632309e+01  2.432670e+02  3.429000e+00
     vertex -5.353372e+01  2.444070e+02 -4.795284e-31
     vertex -5.632309e+01  2.432670e+02 -4.819599e-31
   endloop
 endfacet
 facet normal -3.783171e-01  9.256761e-01  2.170443e-14
   outer loop
     vertex -5.632309e+01  2.432670e+02  3.429000e+00
     vertex -5.353372e+01  2.444070e+02  3.429000e+00
     vertex -5.353372e+01  2.444070e+02 -4.795284e-31
   endloop
 endfacet
 facet normal -3.904583e-01  9.206206e-01 -6.234050e-15
   outer loop
     vertex -5.909721e+01  2.420904e+02  3.429000e+00
     vertex -5.632309e+01  2.432670e+02 -4.819599e-31
     vertex -5.909721e+01  2.420904e+02 -4.843080e-31
   endloop
 endfacet
 facet normal -3.904583e-01  9.206206e-01  1.594523e-14
   outer loop
     vertex -5.909721e+01  2.420904e+02  3.429000e+00
     vertex -5.632309e+01  2.432670e+02  3.429000e+00
     vertex -5.632309e+01  2.432670e+02 -4.819599e-31
   endloop
 endfacet
 facet normal -4.025320e-01  9.154059e-01 -1.294216e-14
   outer loop
     vertex -6.185563e+01  2.408774e+02  3.429000e+00
     vertex -5.909721e+01  2.420904e+02 -4.843080e-31
     vertex -6.185563e+01  2.408774e+02 -4.865724e-31
   endloop
 endfacet
 facet normal -4.025320e-01  9.154059e-01  2.316571e-14
   outer loop
     vertex -6.185563e+01  2.408774e+02  3.429000e+00
     vertex -5.909721e+01  2.420904e+02  3.429000e+00
     vertex -5.909721e+01  2.420904e+02 -4.843080e-31
   endloop
 endfacet
 facet normal -4.145361e-01  9.100329e-01 -1.435808e-14
   outer loop
     vertex -6.459785e+01  2.396283e+02  3.429000e+00
     vertex -6.185563e+01  2.408774e+02 -4.865724e-31
     vertex -6.459785e+01  2.396283e+02 -4.887526e-31
   endloop
 endfacet
 facet normal -4.145361e-01  9.100329e-01  1.620311e-14
   outer loop
     vertex -6.459785e+01  2.396283e+02  3.429000e+00
     vertex -6.185563e+01  2.408774e+02  3.429000e+00
     vertex -6.185563e+01  2.408774e+02 -4.865724e-31
   endloop
 endfacet
 facet normal -4.264684e-01  9.045025e-01 -1.648357e-14
   outer loop
     vertex -6.732341e+01  2.383432e+02  3.429000e+00
     vertex -6.459785e+01  2.396283e+02 -4.887526e-31
     vertex -6.732341e+01  2.383432e+02 -4.908482e-31
   endloop
 endfacet
 facet normal -4.264684e-01  9.045025e-01  1.439798e-14
   outer loop
     vertex -6.732341e+01  2.383432e+02  3.429000e+00
     vertex -6.459785e+01  2.396283e+02  3.429000e+00
     vertex -6.459785e+01  2.396283e+02 -4.887526e-31
   endloop
 endfacet
 facet normal -4.383270e-01  8.988156e-01 -1.930763e-14
   outer loop
     vertex -7.003183e+01  2.370224e+02  3.429000e+00
     vertex -6.732341e+01  2.383432e+02 -4.908482e-31
     vertex -7.003183e+01  2.370224e+02 -4.928589e-31
   endloop
 endfacet
 facet normal -4.383270e-01  8.988156e-01  1.194818e-14
   outer loop
     vertex -7.003183e+01  2.370224e+02  3.429000e+00
     vertex -6.732341e+01  2.383432e+02  3.429000e+00
     vertex -6.732341e+01  2.383432e+02 -4.908482e-31
   endloop
 endfacet
 facet normal -4.501098e-01  8.929732e-01 -1.355211e-14
   outer loop
     vertex -7.272265e+01  2.356661e+02  3.429000e+00
     vertex -7.003183e+01  2.370224e+02 -4.928589e-31
     vertex -7.272265e+01  2.356661e+02 -4.947844e-31
   endloop
 endfacet
 facet normal -4.501098e-01  8.929732e-01  8.767728e-15
   outer loop
     vertex -7.272265e+01  2.356661e+02  3.429000e+00
     vertex -7.003183e+01  2.370224e+02  3.429000e+00
     vertex -7.003183e+01  2.370224e+02 -4.928589e-31
   endloop
 endfacet
 facet normal -4.618147e-01  8.869764e-01 -1.038874e-14
   outer loop
     vertex -7.539540e+01  2.342745e+02  3.429000e+00
     vertex -7.272265e+01  2.356661e+02 -4.947844e-31
     vertex -7.539540e+01  2.342745e+02 -4.966244e-31
   endloop
 endfacet
 facet normal -4.618147e-01  8.869764e-01  1.422607e-14
   outer loop
     vertex -7.539540e+01  2.342745e+02  3.429000e+00
     vertex -7.272265e+01  2.356661e+02  3.429000e+00
     vertex -7.272265e+01  2.356661e+02 -4.947844e-31
   endloop
 endfacet
 facet normal -4.734398e-01  8.808262e-01  1.697673e-14
   outer loop
     vertex -7.804961e+01  2.328478e+02  3.429000e+00
     vertex -7.539540e+01  2.342745e+02  3.429000e+00
     vertex -7.539540e+01  2.342745e+02 -4.966244e-31
   endloop
 endfacet
 facet normal -4.734398e-01  8.808262e-01 -1.333183e-14
   outer loop
     vertex -7.804961e+01  2.328478e+02  3.429000e+00
     vertex -7.539540e+01  2.342745e+02 -4.966244e-31
     vertex -7.804961e+01  2.328478e+02 -4.983784e-31
   endloop
 endfacet
 facet normal -4.849829e-01  8.745236e-01  1.375330e-14
   outer loop
     vertex -8.068484e+01  2.313864e+02  3.429000e+00
     vertex -7.804961e+01  2.328478e+02  3.429000e+00
     vertex -7.804961e+01  2.328478e+02 -4.983784e-31
   endloop
 endfacet
 facet normal -4.849829e-01  8.745236e-01 -1.159563e-14
   outer loop
     vertex -8.068484e+01  2.313864e+02  3.429000e+00
     vertex -7.804961e+01  2.328478e+02 -4.983784e-31
     vertex -8.068484e+01  2.313864e+02 -5.000462e-31
   endloop
 endfacet
 facet normal -4.964422e-01  8.680698e-01  1.512863e-14
   outer loop
     vertex -8.330061e+01  2.298905e+02  3.429000e+00
     vertex -8.068484e+01  2.313864e+02  3.429000e+00
     vertex -8.068484e+01  2.313864e+02 -5.000462e-31
   endloop
 endfacet
 facet normal -4.964422e-01  8.680698e-01 -1.574735e-14
   outer loop
     vertex -8.330061e+01  2.298905e+02  3.429000e+00
     vertex -8.068484e+01  2.313864e+02 -5.000462e-31
     vertex -8.330061e+01  2.298905e+02 -5.016275e-31
   endloop
 endfacet
 facet normal -5.078156e-01  8.614658e-01  1.065881e-14
   outer loop
     vertex -8.589649e+01  2.283603e+02  3.429000e+00
     vertex -8.330061e+01  2.298905e+02  3.429000e+00
     vertex -8.330061e+01  2.298905e+02 -5.016275e-31
   endloop
 endfacet
 facet normal -5.078156e-01  8.614658e-01 -1.833234e-14
   outer loop
     vertex -8.589649e+01  2.283603e+02  3.429000e+00
     vertex -8.330061e+01  2.298905e+02 -5.016275e-31
     vertex -8.589649e+01  2.283603e+02 -5.031221e-31
   endloop
 endfacet
 facet normal -5.191012e-01  8.547128e-01  7.908147e-15
   outer loop
     vertex -8.847201e+01  2.267961e+02  3.429000e+00
     vertex -8.589649e+01  2.283603e+02  3.429000e+00
     vertex -8.589649e+01  2.283603e+02 -5.031221e-31
   endloop
 endfacet
 facet normal -5.191012e-01  8.547128e-01 -1.148392e-14
   outer loop
     vertex -8.847201e+01  2.267961e+02  3.429000e+00
     vertex -8.589649e+01  2.283603e+02 -5.031221e-31
     vertex -8.847201e+01  2.267961e+02 -5.045296e-31
   endloop
 endfacet
 facet normal -5.302969e-01  8.478120e-01  1.435501e-14
   outer loop
     vertex -9.102675e+01  2.251981e+02  3.429000e+00
     vertex -8.847201e+01  2.267961e+02  3.429000e+00
     vertex -8.847201e+01  2.267961e+02 -5.045296e-31
   endloop
 endfacet
 facet normal -5.302969e-01  8.478120e-01 -8.103814e-15
   outer loop
     vertex -9.102675e+01  2.251981e+02  3.429000e+00
     vertex -8.847201e+01  2.267961e+02 -5.045296e-31
     vertex -9.102675e+01  2.251981e+02 -5.058499e-31
   endloop
 endfacet
 facet normal -5.414010e-01  8.407645e-01  1.736354e-14
   outer loop
     vertex -9.356024e+01  2.235667e+02  3.429000e+00
     vertex -9.102675e+01  2.251981e+02  3.429000e+00
     vertex -9.102675e+01  2.251981e+02 -5.058499e-31
   endloop
 endfacet
 facet normal -5.414010e-01  8.407645e-01 -1.222240e-14
   outer loop
     vertex -9.356024e+01  2.235667e+02  3.429000e+00
     vertex -9.102675e+01  2.251981e+02 -5.058499e-31
     vertex -9.356024e+01  2.235667e+02 -5.070827e-31
   endloop
 endfacet
 facet normal -5.524114e-01  8.335716e-01  1.315159e-14
   outer loop
     vertex -9.607206e+01  2.219021e+02  3.429000e+00
     vertex -9.356024e+01  2.235667e+02  3.429000e+00
     vertex -9.356024e+01  2.235667e+02 -5.070827e-31
   endloop
 endfacet
 facet normal -5.524114e-01  8.335716e-01 -1.441391e-14
   outer loop
     vertex -9.607206e+01  2.219021e+02  3.429000e+00
     vertex -9.356024e+01  2.235667e+02 -5.070827e-31
     vertex -9.607206e+01  2.219021e+02 -5.082277e-31
   endloop
 endfacet
 facet normal -5.633263e-01  8.262345e-01  1.057285e-14
   outer loop
     vertex -9.856178e+01  2.202046e+02  3.429000e+00
     vertex -9.607206e+01  2.219021e+02  3.429000e+00
     vertex -9.607206e+01  2.219021e+02 -5.082277e-31
   endloop
 endfacet
 facet normal -5.633263e-01  8.262345e-01 -8.117337e-15
   outer loop
     vertex -9.856178e+01  2.202046e+02  3.429000e+00
     vertex -9.607206e+01  2.219021e+02 -5.082277e-31
     vertex -9.856178e+01  2.202046e+02 -5.092849e-31
   endloop
 endfacet
 facet normal -5.741437e-01  8.187546e-01  1.641800e-14
   outer loop
     vertex -1.010289e+02  2.184745e+02  3.429000e+00
     vertex -9.856178e+01  2.202046e+02  3.429000e+00
     vertex -9.856178e+01  2.202046e+02 -5.092849e-31
   endloop
 endfacet
 facet normal -5.741437e-01  8.187546e-01 -4.567368e-15
   outer loop
     vertex -1.010289e+02  2.184745e+02  3.429000e+00
     vertex -9.856178e+01  2.202046e+02 -5.092849e-31
     vertex -1.010289e+02  2.184745e+02 -5.102540e-31
   endloop
 endfacet
 facet normal -5.848618e-01  8.111329e-01  1.985633e-14
   outer loop
     vertex -1.034732e+02  2.167121e+02  3.429000e+00
     vertex -1.010289e+02  2.184745e+02  3.429000e+00
     vertex -1.010289e+02  2.184745e+02 -5.102540e-31
   endloop
 endfacet
 facet normal -5.848618e-01  8.111329e-01 -1.784552e-14
   outer loop
     vertex -1.034732e+02  2.167121e+02  3.429000e+00
     vertex -1.010289e+02  2.184745e+02 -5.102540e-31
     vertex -1.034732e+02  2.167121e+02 -5.111348e-31
   endloop
 endfacet
 facet normal -5.954788e-01  8.033710e-01  6.274943e-15
   outer loop
     vertex -1.058940e+02  2.149178e+02  3.429000e+00
     vertex -1.034732e+02  2.167121e+02  3.429000e+00
     vertex -1.034732e+02  2.167121e+02 -5.111348e-31
   endloop
 endfacet
 facet normal -5.954788e-01  8.033710e-01 -1.349638e-14
   outer loop
     vertex -1.058940e+02  2.149178e+02  3.429000e+00
     vertex -1.034732e+02  2.167121e+02 -5.111348e-31
     vertex -1.058940e+02  2.149178e+02 -5.119272e-31
   endloop
 endfacet
 facet normal -6.059927e-01  7.954702e-01  1.031497e-14
   outer loop
     vertex -1.082910e+02  2.130917e+02  3.429000e+00
     vertex -1.058940e+02  2.149178e+02  3.429000e+00
     vertex -1.058940e+02  2.149178e+02 -5.119272e-31
   endloop
 endfacet
 facet normal -6.059927e-01  7.954702e-01 -9.845481e-15
   outer loop
     vertex -1.082910e+02  2.130917e+02  3.429000e+00
     vertex -1.058940e+02  2.149178e+02 -5.119272e-31
     vertex -1.082910e+02  2.130917e+02 -5.126310e-31
   endloop
 endfacet
 facet normal -6.164019e-01  7.874317e-01  1.358138e-14
   outer loop
     vertex -1.106638e+02  2.112343e+02  3.429000e+00
     vertex -1.082910e+02  2.130917e+02  3.429000e+00
     vertex -1.082910e+02  2.130917e+02 -5.126310e-31
   endloop
 endfacet
 facet normal -6.164019e-01  7.874317e-01 -3.195054e-15
   outer loop
     vertex -1.106638e+02  2.112343e+02  3.429000e+00
     vertex -1.082910e+02  2.130917e+02 -5.126310e-31
     vertex -1.106638e+02  2.112343e+02 -5.132462e-31
   endloop
 endfacet
 facet normal -6.267044e-01  7.792571e-01  2.011420e-14
   outer loop
     vertex -1.130119e+02  2.093458e+02  3.429000e+00
     vertex -1.106638e+02  2.112343e+02  3.429000e+00
     vertex -1.106638e+02  2.112343e+02 -5.132462e-31
   endloop
 endfacet
 facet normal -6.267044e-01  7.792571e-01 -1.233659e-14
   outer loop
     vertex -1.130119e+02  2.093458e+02  3.429000e+00
     vertex -1.106638e+02  2.112343e+02 -5.132462e-31
     vertex -1.130119e+02  2.093458e+02 -5.137726e-31
   endloop
 endfacet
 facet normal -6.368985e-01  7.709476e-01  1.065881e-14
   outer loop
     vertex -1.153350e+02  2.074267e+02  3.429000e+00
     vertex -1.130119e+02  2.093458e+02  3.429000e+00
     vertex -1.130119e+02  2.093458e+02 -5.137726e-31
   endloop
 endfacet
 facet normal -6.368985e-01  7.709476e-01 -1.051970e-14
   outer loop
     vertex -1.153350e+02  2.074267e+02  3.429000e+00
     vertex -1.130119e+02  2.093458e+02 -5.137726e-31
     vertex -1.153350e+02  2.074267e+02 -5.142102e-31
   endloop
 endfacet
 facet normal -6.469825e-01  7.625049e-01  1.203414e-14
   outer loop
     vertex -1.176327e+02  2.054771e+02  3.429000e+00
     vertex -1.153350e+02  2.074267e+02  3.429000e+00
     vertex -1.153350e+02  2.074267e+02 -5.142102e-31
   endloop
 endfacet
 facet normal -6.469825e-01  7.625049e-01 -9.373296e-15
   outer loop
     vertex -1.176327e+02  2.054771e+02  3.429000e+00
     vertex -1.153350e+02  2.074267e+02 -5.142102e-31
     vertex -1.176327e+02  2.054771e+02 -5.145588e-31
   endloop
 endfacet
 facet normal -6.569545e-01  7.539302e-01  1.289372e-14
   outer loop
     vertex -1.199045e+02  2.034975e+02  3.429000e+00
     vertex -1.176327e+02  2.054771e+02  3.429000e+00
     vertex -1.176327e+02  2.054771e+02 -5.145588e-31
   endloop
 endfacet
 facet normal -6.569545e-01  7.539302e-01 -9.694014e-15
   outer loop
     vertex -1.199045e+02  2.034975e+02  3.429000e+00
     vertex -1.176327e+02  2.054771e+02 -5.145588e-31
     vertex -1.199045e+02  2.034975e+02 -5.148184e-31
   endloop
 endfacet
 facet normal -6.668130e-01  7.452251e-01  1.237797e-14
   outer loop
     vertex -1.221502e+02  2.014881e+02  3.429000e+00
     vertex -1.199045e+02  2.034975e+02  3.429000e+00
     vertex -1.199045e+02  2.034975e+02 -5.148184e-31
   endloop
 endfacet
 facet normal -6.668130e-01  7.452251e-01 -3.536109e-15
   outer loop
     vertex -1.221502e+02  2.014881e+02  3.429000e+00
     vertex -1.199045e+02  2.034975e+02 -5.148184e-31
     vertex -1.221502e+02  2.014881e+02 -5.149889e-31
   endloop
 endfacet
 facet normal -6.765561e-01  7.363911e-01 -1.038019e-14
   outer loop
     vertex -1.243691e+02  1.994495e+02  3.429000e+00
     vertex -1.221502e+02  2.014881e+02 -5.149889e-31
     vertex -1.243691e+02  1.994495e+02 -5.150704e-31
   endloop
 endfacet
 facet normal -6.765561e-01  7.363911e-01  1.813716e-14
   outer loop
     vertex -1.243691e+02  1.994495e+02  3.429000e+00
     vertex -1.221502e+02  2.014881e+02  3.429000e+00
     vertex -1.221502e+02  2.014881e+02 -5.149889e-31
   endloop
 endfacet
 facet normal -6.861821e-01  7.274298e-01 -6.000249e-15
   outer loop
     vertex -1.265611e+02  1.973818e+02  3.429000e+00
     vertex -1.243691e+02  1.994495e+02 -5.150704e-31
     vertex -1.265611e+02  1.973818e+02 -5.150628e-31
   endloop
 endfacet
 facet normal -6.861821e-01  7.274298e-01  1.100264e-14
   outer loop
     vertex -1.265611e+02  1.973818e+02  3.429000e+00
     vertex -1.243691e+02  1.994495e+02  3.429000e+00
     vertex -1.243691e+02  1.994495e+02 -5.150704e-31
   endloop
 endfacet
 facet normal -6.956895e-01  7.183426e-01 -1.907277e-15
   outer loop
     vertex -1.287257e+02  1.952854e+02  3.429000e+00
     vertex -1.265611e+02  1.973818e+02 -5.150628e-31
     vertex -1.287257e+02  1.952854e+02 -5.149661e-31
   endloop
 endfacet
 facet normal -6.956895e-01  7.183426e-01  1.521459e-14
   outer loop
     vertex -1.287257e+02  1.952854e+02  3.429000e+00
     vertex -1.265611e+02  1.973818e+02  3.429000e+00
     vertex -1.265611e+02  1.973818e+02 -5.150628e-31
   endloop
 endfacet
 facet normal -7.050765e-01  7.091312e-01 -1.031392e-14
   outer loop
     vertex -1.308626e+02  1.931608e+02  3.429000e+00
     vertex -1.287257e+02  1.952854e+02 -5.149661e-31
     vertex -1.308626e+02  1.931608e+02 -5.147803e-31
   endloop
 endfacet
 facet normal -7.050765e-01  7.091312e-01  1.891079e-14
   outer loop
     vertex -1.308626e+02  1.931608e+02  3.429000e+00
     vertex -1.287257e+02  1.952854e+02  3.429000e+00
     vertex -1.287257e+02  1.952854e+02 -5.149661e-31
   endloop
 endfacet
 facet normal -7.143416e-01  6.997971e-01 -1.345032e-14
   outer loop
     vertex -1.329713e+02  1.910083e+02  3.429000e+00
     vertex -1.308626e+02  1.931608e+02 -5.147803e-31
     vertex -1.329713e+02  1.910083e+02 -5.145055e-31
   endloop
 endfacet
 facet normal -7.143416e-01  6.997971e-01  1.014306e-14
   outer loop
     vertex -1.329713e+02  1.910083e+02  3.429000e+00
     vertex -1.308626e+02  1.931608e+02  3.429000e+00
     vertex -1.308626e+02  1.931608e+02 -5.147803e-31
   endloop
 endfacet
 facet normal -7.234832e-01  6.903420e-01 -5.442378e-15
   outer loop
     vertex -1.350515e+02  1.888282e+02  3.429000e+00
     vertex -1.329713e+02  1.910083e+02 -5.145055e-31
     vertex -1.350515e+02  1.888282e+02 -5.141417e-31
   endloop
 endfacet
 facet normal -7.234832e-01  6.903420e-01  6.876650e-15
   outer loop
     vertex -1.350515e+02  1.888282e+02  3.429000e+00
     vertex -1.329713e+02  1.910083e+02  3.429000e+00
     vertex -1.329713e+02  1.910083e+02 -5.145055e-31
   endloop
 endfacet
 facet normal -7.324996e-01  6.807675e-01  1.452692e-14
   outer loop
     vertex -1.371029e+02  1.866209e+02  3.429000e+00
     vertex -1.350515e+02  1.888282e+02  3.429000e+00
     vertex -1.350515e+02  1.888282e+02 -5.141417e-31
   endloop
 endfacet
 facet normal -7.324996e-01  6.807675e-01 -9.756781e-15
   outer loop
     vertex -1.371029e+02  1.866209e+02  3.429000e+00
     vertex -1.350515e+02  1.888282e+02 -5.141417e-31
     vertex -1.371029e+02  1.866209e+02 -5.136890e-31
   endloop
 endfacet
 facet normal -7.413893e-01  6.710752e-01  9.885184e-15
   outer loop
     vertex -1.391250e+02  1.843869e+02  3.429000e+00
     vertex -1.371029e+02  1.866209e+02  3.429000e+00
     vertex -1.371029e+02  1.866209e+02 -5.136890e-31
   endloop
 endfacet
 facet normal -7.413893e-01  6.710752e-01 -2.955771e-15
   outer loop
     vertex -1.391250e+02  1.843869e+02  3.429000e+00
     vertex -1.371029e+02  1.866209e+02 -5.136890e-31
     vertex -1.391250e+02  1.843869e+02 -5.131474e-31
   endloop
 endfacet
 facet normal -7.501507e-01  6.612669e-01  1.641800e-14
   outer loop
     vertex -1.411177e+02  1.821264e+02  3.429000e+00
     vertex -1.391250e+02  1.843869e+02  3.429000e+00
     vertex -1.391250e+02  1.843869e+02 -5.131474e-31
   endloop
 endfacet
 facet normal -7.501507e-01  6.612669e-01 -8.453511e-15
   outer loop
     vertex -1.411177e+02  1.821264e+02  3.429000e+00
     vertex -1.391250e+02  1.843869e+02 -5.131474e-31
     vertex -1.411177e+02  1.821264e+02 -5.125171e-31
   endloop
 endfacet
 facet normal -7.587824e-01  6.513441e-01  1.065881e-14
   outer loop
     vertex -1.430804e+02  1.798400e+02  3.429000e+00
     vertex -1.411177e+02  1.821264e+02  3.429000e+00
     vertex -1.411177e+02  1.821264e+02 -5.125171e-31
   endloop
 endfacet
 facet normal -7.587824e-01  6.513441e-01 -2.838436e-15
   outer loop
     vertex -1.430804e+02  1.798400e+02  3.429000e+00
     vertex -1.411177e+02  1.821264e+02 -5.125171e-31
     vertex -1.430804e+02  1.798400e+02 -5.117981e-31
   endloop
 endfacet
 facet normal -7.672829e-01  6.413088e-01  1.590225e-14
   outer loop
     vertex -1.450128e+02  1.775279e+02  3.429000e+00
     vertex -1.430804e+02  1.798400e+02  3.429000e+00
     vertex -1.430804e+02  1.798400e+02 -5.117981e-31
   endloop
 endfacet
 facet normal -7.672829e-01  6.413088e-01 -4.174025e-15
   outer loop
     vertex -1.450128e+02  1.775279e+02  3.429000e+00
     vertex -1.430804e+02  1.798400e+02 -5.117981e-31
     vertex -1.450128e+02  1.775279e+02 -5.109906e-31
   endloop
 endfacet
 facet normal -7.756507e-01  6.311625e-01  1.426905e-14
   outer loop
     vertex -1.469147e+02  1.751906e+02  3.429000e+00
     vertex -1.450128e+02  1.775279e+02  3.429000e+00
     vertex -1.450128e+02  1.775279e+02 -5.109906e-31
   endloop
 endfacet
 facet normal -7.756507e-01  6.311625e-01 -1.026929e-14
   outer loop
     vertex -1.469147e+02  1.751906e+02  3.429000e+00
     vertex -1.450128e+02  1.775279e+02 -5.109906e-31
     vertex -1.469147e+02  1.751906e+02 -5.100947e-31
   endloop
 endfacet
 facet normal -7.838843e-01  6.209070e-01  8.080063e-15
   outer loop
     vertex -1.487857e+02  1.728285e+02  3.429000e+00
     vertex -1.469147e+02  1.751906e+02  3.429000e+00
     vertex -1.469147e+02  1.751906e+02 -5.100947e-31
   endloop
 endfacet
 facet normal -7.838843e-01  6.209070e-01 -1.281087e-14
   outer loop
     vertex -1.487857e+02  1.728285e+02  3.429000e+00
     vertex -1.469147e+02  1.751906e+02 -5.100947e-31
     vertex -1.487857e+02  1.728285e+02 -5.091106e-31
   endloop
 endfacet
 facet normal -7.919823e-01  6.105441e-01  5.157487e-15
   outer loop
     vertex -1.506255e+02  1.704420e+02  3.429000e+00
     vertex -1.487857e+02  1.728285e+02  3.429000e+00
     vertex -1.487857e+02  1.728285e+02 -5.091106e-31
   endloop
 endfacet
 facet normal -7.919823e-01  6.105441e-01 -9.498160e-15
   outer loop
     vertex -1.506255e+02  1.704420e+02  3.429000e+00
     vertex -1.487857e+02  1.728285e+02 -5.091106e-31
     vertex -1.506255e+02  1.704420e+02 -5.080384e-31
   endloop
 endfacet
 facet normal -7.999433e-01  6.000756e-01  8.166021e-15
   outer loop
     vertex -1.524337e+02  1.680315e+02  3.429000e+00
     vertex -1.506255e+02  1.704420e+02  3.429000e+00
     vertex -1.506255e+02  1.704420e+02 -5.080384e-31
   endloop
 endfacet
 facet normal -7.999433e-01  6.000756e-01 -6.755788e-15
   outer loop
     vertex -1.524337e+02  1.680315e+02  3.429000e+00
     vertex -1.506255e+02  1.704420e+02 -5.080384e-31
     vertex -1.524337e+02  1.680315e+02 -5.068783e-31
   endloop
 endfacet
 facet normal -8.077659e-01  5.895033e-01  1.057285e-14
   outer loop
     vertex -1.542101e+02  1.655975e+02  3.429000e+00
     vertex -1.524337e+02  1.680315e+02  3.429000e+00
     vertex -1.524337e+02  1.680315e+02 -5.068783e-31
   endloop
 endfacet
 facet normal -8.077659e-01  5.895033e-01 -1.127439e-14
   outer loop
     vertex -1.542101e+02  1.655975e+02  3.429000e+00
     vertex -1.524337e+02  1.680315e+02 -5.068783e-31
     vertex -1.542101e+02  1.655975e+02 -5.056306e-31
   endloop
 endfacet
 facet normal -8.154489e-01  5.788291e-01  5.759194e-15
   outer loop
     vertex -1.559543e+02  1.631403e+02  3.429000e+00
     vertex -1.542101e+02  1.655975e+02  3.429000e+00
     vertex -1.542101e+02  1.655975e+02 -5.056306e-31
   endloop
 endfacet
 facet normal -8.154489e-01  5.788291e-01 -4.924580e-15
   outer loop
     vertex -1.559543e+02  1.631403e+02  3.429000e+00
     vertex -1.542101e+02  1.655975e+02 -5.056306e-31
     vertex -1.559543e+02  1.631403e+02 -5.042954e-31
   endloop
 endfacet
 facet normal -8.229908e-01  5.680547e-01  1.169030e-14
   outer loop
     vertex -1.576660e+02  1.606603e+02  3.429000e+00
     vertex -1.559543e+02  1.631403e+02  3.429000e+00
     vertex -1.559543e+02  1.631403e+02 -5.042954e-31
   endloop
 endfacet
 facet normal -8.229908e-01  5.680547e-01 -8.724844e-15
   outer loop
     vertex -1.576660e+02  1.606603e+02  3.429000e+00
     vertex -1.559543e+02  1.631403e+02 -5.042954e-31
     vertex -1.576660e+02  1.606603e+02 -5.028730e-31
   endloop
 endfacet
 facet normal -8.303903e-01  5.571821e-01  7.736231e-15
   outer loop
     vertex -1.593450e+02  1.581581e+02  3.429000e+00
     vertex -1.576660e+02  1.606603e+02  3.429000e+00
     vertex -1.576660e+02  1.606603e+02 -5.028730e-31
   endloop
 endfacet
 facet normal -8.303903e-01  5.571821e-01 -1.394057e-15
   outer loop
     vertex -1.593450e+02  1.581581e+02  3.429000e+00
     vertex -1.576660e+02  1.606603e+02 -5.028730e-31
     vertex -1.593450e+02  1.581581e+02 -5.013636e-31
   endloop
 endfacet
 facet normal -8.376462e-01  5.462132e-01 -8.372891e-15
   outer loop
     vertex -1.609909e+02  1.556340e+02  3.429000e+00
     vertex -1.593450e+02  1.581581e+02 -5.013636e-31
     vertex -1.609909e+02  1.556340e+02 -4.997675e-31
   endloop
 endfacet
 facet normal -8.376462e-01  5.462132e-01  1.487075e-14
   outer loop
     vertex -1.609909e+02  1.556340e+02  3.429000e+00
     vertex -1.593450e+02  1.581581e+02  3.429000e+00
     vertex -1.593450e+02  1.581581e+02 -5.013636e-31
   endloop
 endfacet
 facet normal -8.447572e-01  5.351497e-01 -1.600922e-14
   outer loop
     vertex -1.626035e+02  1.530885e+02  3.429000e+00
     vertex -1.609909e+02  1.556340e+02 -4.997675e-31
     vertex -1.626035e+02  1.530885e+02 -4.980849e-31
   endloop
 endfacet
 facet normal -8.447572e-01  5.351497e-01  7.564314e-15
   outer loop
     vertex -1.626035e+02  1.530885e+02  3.429000e+00
     vertex -1.609909e+02  1.556340e+02  3.429000e+00
     vertex -1.609909e+02  1.556340e+02 -4.997675e-31
   endloop
 endfacet
 facet normal -8.517222e-01  5.239937e-01 -1.488042e-15
   outer loop
     vertex -1.641824e+02  1.505219e+02  3.429000e+00
     vertex -1.626035e+02  1.530885e+02 -4.980849e-31
     vertex -1.641824e+02  1.505219e+02 -4.963162e-31
   endloop
 endfacet
 facet normal -8.517222e-01  5.239937e-01 -4.297906e-16
   outer loop
     vertex -1.641824e+02  1.505219e+02  3.429000e+00
     vertex -1.626035e+02  1.530885e+02  3.429000e+00
     vertex -1.626035e+02  1.530885e+02 -4.980849e-31
   endloop
 endfacet
 facet normal -8.585398e-01  5.127470e-01 -6.234346e-15
   outer loop
     vertex -1.657275e+02  1.479349e+02  3.429000e+00
     vertex -1.641824e+02  1.505219e+02 -4.963162e-31
     vertex -1.657275e+02  1.479349e+02 -4.944616e-31
   endloop
 endfacet
 facet normal -8.585398e-01  5.127470e-01  1.371032e-14
   outer loop
     vertex -1.657275e+02  1.479349e+02  3.429000e+00
     vertex -1.641824e+02  1.505219e+02  3.429000e+00
     vertex -1.641824e+02  1.505219e+02 -4.963162e-31
   endloop
 endfacet
 facet normal -8.652088e-01  5.014117e-01 -1.180106e-14
   outer loop
     vertex -1.672384e+02  1.453277e+02  3.429000e+00
     vertex -1.657275e+02  1.479349e+02 -4.944616e-31
     vertex -1.672384e+02  1.453277e+02 -4.925216e-31
   endloop
 endfacet
 facet normal -8.652088e-01  5.014117e-01  8.552833e-15
   outer loop
     vertex -1.672384e+02  1.453277e+02  3.429000e+00
     vertex -1.657275e+02  1.479349e+02  3.429000e+00
     vertex -1.657275e+02  1.479349e+02 -4.944616e-31
   endloop
 endfacet
 facet normal -8.717283e-01  4.899896e-01 -1.095482e-14
   outer loop
     vertex -1.687149e+02  1.427009e+02  3.429000e+00
     vertex -1.672384e+02  1.453277e+02 -4.925216e-31
     vertex -1.687149e+02  1.427009e+02 -4.904963e-31
   endloop
 endfacet
 facet normal -8.717283e-01  4.899896e-01  2.578744e-15
   outer loop
     vertex -1.687149e+02  1.427009e+02  3.429000e+00
     vertex -1.672384e+02  1.453277e+02  3.429000e+00
     vertex -1.672384e+02  1.453277e+02 -4.925216e-31
   endloop
 endfacet
 facet normal -8.780969e-01  4.784828e-01 -6.841295e-15
   outer loop
     vertex -1.701567e+02  1.400549e+02  3.429000e+00
     vertex -1.687149e+02  1.427009e+02 -4.904963e-31
     vertex -1.701567e+02  1.400549e+02 -4.883862e-31
   endloop
 endfacet
 facet normal -8.780969e-01  4.784828e-01  3.094492e-15
   outer loop
     vertex -1.701567e+02  1.400549e+02  3.429000e+00
     vertex -1.687149e+02  1.427009e+02  3.429000e+00
     vertex -1.687149e+02  1.427009e+02 -4.904963e-31
   endloop
 endfacet
 facet normal -8.843137e-01  4.668932e-01 -7.483748e-15
   outer loop
     vertex -1.715636e+02  1.373902e+02  3.429000e+00
     vertex -1.701567e+02  1.400549e+02 -4.883862e-31
     vertex -1.715636e+02  1.373902e+02 -4.861916e-31
   endloop
 endfacet
 facet normal -8.843137e-01  4.668932e-01  6.747712e-15
   outer loop
     vertex -1.715636e+02  1.373902e+02  3.429000e+00
     vertex -1.701567e+02  1.400549e+02  3.429000e+00
     vertex -1.701567e+02  1.400549e+02 -4.883862e-31
   endloop
 endfacet
 facet normal -8.903776e-01  4.552228e-01 -1.435851e-15
   outer loop
     vertex -1.729354e+02  1.347072e+02  3.429000e+00
     vertex -1.715636e+02  1.373902e+02 -4.861916e-31
     vertex -1.729354e+02  1.347072e+02 -4.839129e-31
   endloop
 endfacet
 facet normal -8.903776e-01  4.552228e-01  5.759194e-15
   outer loop
     vertex -1.729354e+02  1.347072e+02  3.429000e+00
     vertex -1.715636e+02  1.373902e+02  3.429000e+00
     vertex -1.715636e+02  1.373902e+02 -4.861916e-31
   endloop
 endfacet
 facet normal -8.962874e-01  4.434737e-01 -7.156624e-15
   outer loop
     vertex -1.742717e+02  1.320064e+02  3.429000e+00
     vertex -1.729354e+02  1.347072e+02 -4.839129e-31
     vertex -1.742717e+02  1.320064e+02 -4.815505e-31
   endloop
 endfacet
 facet normal -8.962874e-01  4.434737e-01  1.151839e-14
   outer loop
     vertex -1.742717e+02  1.320064e+02  3.429000e+00
     vertex -1.729354e+02  1.347072e+02  3.429000e+00
     vertex -1.729354e+02  1.347072e+02 -4.839129e-31
   endloop
 endfacet
 facet normal -9.020422e-01  4.316479e-01 -1.384910e-14
   outer loop
     vertex -1.755724e+02  1.292883e+02  3.429000e+00
     vertex -1.742717e+02  1.320064e+02 -4.815505e-31
     vertex -1.755724e+02  1.292883e+02 -4.791048e-31
   endloop
 endfacet
 facet normal -9.020422e-01  4.316479e-01  5.329403e-15
   outer loop
     vertex -1.755724e+02  1.292883e+02  3.429000e+00
     vertex -1.742717e+02  1.320064e+02  3.429000e+00
     vertex -1.742717e+02  1.320064e+02 -4.815505e-31
   endloop
 endfacet
 facet normal -9.076409e-01  4.197475e-01 -1.746162e-14
   outer loop
     vertex -1.768372e+02  1.265533e+02  3.429000e+00
     vertex -1.755724e+02  1.292883e+02 -4.791048e-31
     vertex -1.768372e+02  1.265533e+02 -4.765763e-31
   endloop
 endfacet
 facet normal -9.076409e-01  4.197475e-01 -1.848100e-15
   outer loop
     vertex -1.768372e+02  1.265533e+02  3.429000e+00
     vertex -1.755724e+02  1.292883e+02  3.429000e+00
     vertex -1.755724e+02  1.292883e+02 -4.791048e-31
   endloop
 endfacet
 facet normal -9.130827e-01  4.077744e-01 -5.802173e-15
   outer loop
     vertex -1.780660e+02  1.238018e+02  3.429000e+00
     vertex -1.768372e+02  1.265533e+02  3.429000e+00
     vertex -1.768372e+02  1.265533e+02 -4.765763e-31
   endloop
 endfacet
 facet normal -9.130827e-01  4.077744e-01 -1.079330e-14
   outer loop
     vertex -1.780660e+02  1.238018e+02  3.429000e+00
     vertex -1.768372e+02  1.265533e+02 -4.765763e-31
     vertex -1.780660e+02  1.238018e+02 -4.739653e-31
   endloop
 endfacet
 facet normal -9.183665e-01  3.957309e-01  4.727697e-16
   outer loop
     vertex -1.792585e+02  1.210345e+02  3.429000e+00
     vertex -1.780660e+02  1.238018e+02  3.429000e+00
     vertex -1.780660e+02  1.238018e+02 -4.739653e-31
   endloop
 endfacet
 facet normal -9.183665e-01  3.957309e-01  2.713882e-15
   outer loop
     vertex -1.792585e+02  1.210345e+02  3.429000e+00
     vertex -1.780660e+02  1.238018e+02 -4.739653e-31
     vertex -1.792585e+02  1.210345e+02 -4.712724e-31
   endloop
 endfacet
 facet normal -9.234915e-01  3.836188e-01  1.362436e-14
   outer loop
     vertex -1.804144e+02  1.182517e+02  3.429000e+00
     vertex -1.792585e+02  1.210345e+02  3.429000e+00
     vertex -1.792585e+02  1.210345e+02 -4.712724e-31
   endloop
 endfacet
 facet normal -9.234915e-01  3.836188e-01  2.247127e-16
   outer loop
     vertex -1.804144e+02  1.182517e+02  3.429000e+00
     vertex -1.792585e+02  1.210345e+02 -4.712724e-31
     vertex -1.804144e+02  1.182517e+02 -4.684979e-31
   endloop
 endfacet
 facet normal -9.284568e-01  3.714404e-01 -4.658767e-15
   outer loop
     vertex -1.815337e+02  1.154540e+02  3.429000e+00
     vertex -1.804144e+02  1.182517e+02 -4.684979e-31
     vertex -1.815337e+02  1.154540e+02 -4.656424e-31
   endloop
 endfacet
 facet normal -9.284568e-01  3.714404e-01  1.070179e-14
   outer loop
     vertex -1.815337e+02  1.154540e+02  3.429000e+00
     vertex -1.804144e+02  1.182517e+02  3.429000e+00
     vertex -1.804144e+02  1.182517e+02 -4.684979e-31
   endloop
 endfacet
 facet normal -9.332615e-01  3.591978e-01  5.501320e-15
   outer loop
     vertex -1.826161e+02  1.126418e+02  3.429000e+00
     vertex -1.815337e+02  1.154540e+02  3.429000e+00
     vertex -1.815337e+02  1.154540e+02 -4.656424e-31
   endloop
 endfacet
 facet normal -9.332615e-01  3.591978e-01 -8.801793e-15
   outer loop
     vertex -1.826161e+02  1.126418e+02  3.429000e+00
     vertex -1.815337e+02  1.154540e+02 -4.656424e-31
     vertex -1.826161e+02  1.126418e+02 -4.627063e-31
   endloop
 endfacet
 facet normal -9.379047e-01  3.468930e-01  1.759269e-15
   outer loop
     vertex -1.836614e+02  1.098156e+02  3.429000e+00
     vertex -1.826161e+02  1.126418e+02 -4.627063e-31
     vertex -1.836614e+02  1.098156e+02 -4.596903e-31
   endloop
 endfacet
 facet normal -9.379047e-01  3.468930e-01  9.025602e-16
   outer loop
     vertex -1.836614e+02  1.098156e+02  3.429000e+00
     vertex -1.826161e+02  1.126418e+02  3.429000e+00
     vertex -1.826161e+02  1.126418e+02 -4.627063e-31
   endloop
 endfacet
 facet normal -9.423857e-01  3.345283e-01 -3.991202e-15
   outer loop
     vertex -1.846694e+02  1.069758e+02  3.429000e+00
     vertex -1.836614e+02  1.098156e+02 -4.596903e-31
     vertex -1.846694e+02  1.069758e+02 -4.565947e-31
   endloop
 endfacet
 facet normal -9.423857e-01  3.345283e-01  1.113158e-14
   outer loop
     vertex -1.846694e+02  1.069758e+02  3.429000e+00
     vertex -1.836614e+02  1.098156e+02  3.429000e+00
     vertex -1.836614e+02  1.098156e+02 -4.596903e-31
   endloop
 endfacet
 facet normal -9.467037e-01  3.221057e-01 -1.057614e-14
   outer loop
     vertex -1.856400e+02  1.041231e+02  3.429000e+00
     vertex -1.846694e+02  1.069758e+02 -4.565947e-31
     vertex -1.856400e+02  1.041231e+02 -4.534201e-31
   endloop
 endfacet
 facet normal -9.467037e-01  3.221057e-01  4.942592e-15
   outer loop
     vertex -1.856400e+02  1.041231e+02  3.429000e+00
     vertex -1.846694e+02  1.069758e+02  3.429000e+00
     vertex -1.846694e+02  1.069758e+02 -4.565947e-31
   endloop
 endfacet
 facet normal -9.508580e-01  3.096273e-01 -9.432900e-16
   outer loop
     vertex -1.865730e+02  1.012579e+02  3.429000e+00
     vertex -1.856400e+02  1.041231e+02 -4.534201e-31
     vertex -1.865730e+02  1.012579e+02 -4.501671e-31
   endloop
 endfacet
 facet normal -9.508580e-01  3.096273e-01 -2.020016e-15
   outer loop
     vertex -1.865730e+02  1.012579e+02  3.429000e+00
     vertex -1.856400e+02  1.041231e+02  3.429000e+00
     vertex -1.856400e+02  1.041231e+02 -4.534201e-31
   endloop
 endfacet
 facet normal -9.548478e-01  2.970954e-01 -2.480226e-15
   outer loop
     vertex -1.874683e+02  9.838061e+01  3.429000e+00
     vertex -1.865730e+02  1.012579e+02 -4.501671e-31
     vertex -1.874683e+02  9.838061e+01 -4.468362e-31
   endloop
 endfacet
 facet normal -9.548478e-01  2.970954e-01  7.220482e-15
   outer loop
     vertex -1.874683e+02  9.838061e+01  3.429000e+00
     vertex -1.865730e+02  1.012579e+02  3.429000e+00
     vertex -1.865730e+02  1.012579e+02 -4.501671e-31
   endloop
 endfacet
 facet normal -9.586724e-01  2.845121e-01 -1.143367e-14
   outer loop
     vertex -1.883256e+02  9.549181e+01  3.429000e+00
     vertex -1.874683e+02  9.838061e+01 -4.468362e-31
     vertex -1.883256e+02  9.549181e+01 -4.434281e-31
   endloop
 endfacet
 facet normal -9.586724e-01  2.845121e-01  5.329403e-15
   outer loop
     vertex -1.883256e+02  9.549181e+01  3.429000e+00
     vertex -1.874683e+02  9.838061e+01  3.429000e+00
     vertex -1.874683e+02  9.838061e+01 -4.468362e-31
   endloop
 endfacet
 facet normal -9.623313e-01  2.718796e-01 -4.118672e-15
   outer loop
     vertex -1.891449e+02  9.259200e+01  3.429000e+00
     vertex -1.883256e+02  9.549181e+01 -4.434281e-31
     vertex -1.891449e+02  9.259200e+01 -4.399433e-31
   endloop
 endfacet
 facet normal -9.623313e-01  2.718796e-01 -4.040032e-15
   outer loop
     vertex -1.891449e+02  9.259200e+01  3.429000e+00
     vertex -1.883256e+02  9.549181e+01  3.429000e+00
     vertex -1.883256e+02  9.549181e+01 -4.434281e-31
   endloop
 endfacet
 facet normal -9.658236e-01  2.592001e-01 -5.601891e-15
   outer loop
     vertex -1.899259e+02  8.968166e+01  3.429000e+00
     vertex -1.891449e+02  9.259200e+01 -4.399433e-31
     vertex -1.899259e+02  8.968166e+01 -4.363823e-31
   endloop
 endfacet
 facet normal -9.658236e-01  2.592001e-01  2.922576e-15
   outer loop
     vertex -1.899259e+02  8.968166e+01  3.429000e+00
     vertex -1.891449e+02  9.259200e+01  3.429000e+00
     vertex -1.891449e+02  9.259200e+01 -4.399433e-31
   endloop
 endfacet
 facet normal -9.691490e-01  2.464758e-01 -9.226881e-16
   outer loop
     vertex -1.906686e+02  8.676130e+01  3.429000e+00
     vertex -1.899259e+02  8.968166e+01 -4.363823e-31
     vertex -1.906686e+02  8.676130e+01 -4.327459e-31
   endloop
 endfacet
 facet normal -9.691490e-01  2.464758e-01  9.885184e-16
   outer loop
     vertex -1.906686e+02  8.676130e+01  3.429000e+00
     vertex -1.899259e+02  8.968166e+01  3.429000e+00
     vertex -1.899259e+02  8.968166e+01 -4.363823e-31
   endloop
 endfacet
 facet normal -9.723066e-01  2.337088e-01 -1.208054e-14
   outer loop
     vertex -1.913729e+02  8.383142e+01  3.429000e+00
     vertex -1.906686e+02  8.676130e+01 -4.327459e-31
     vertex -1.913729e+02  8.383142e+01 -4.290346e-31
   endloop
 endfacet
 facet normal -9.723066e-01  2.337088e-01  5.329403e-15
   outer loop
     vertex -1.913729e+02  8.383142e+01  3.429000e+00
     vertex -1.906686e+02  8.676130e+01  3.429000e+00
     vertex -1.906686e+02  8.676130e+01 -4.327459e-31
   endloop
 endfacet
 facet normal -9.752962e-01  2.209014e-01 -8.878827e-15
   outer loop
     vertex -1.920385e+02  8.089254e+01  3.429000e+00
     vertex -1.913729e+02  8.383142e+01 -4.290346e-31
     vertex -1.920385e+02  8.089254e+01 -4.252492e-31
   endloop
 endfacet
 facet normal -9.752962e-01  2.209014e-01 -6.296432e-15
   outer loop
     vertex -1.920385e+02  8.089254e+01  3.429000e+00
     vertex -1.913729e+02  8.383142e+01  3.429000e+00
     vertex -1.913729e+02  8.383142e+01 -4.290346e-31
   endloop
 endfacet
 facet normal -9.781170e-01  2.080558e-01  2.607875e-15
   outer loop
     vertex -1.926655e+02  7.794516e+01  3.429000e+00
     vertex -1.920385e+02  8.089254e+01 -4.252492e-31
     vertex -1.926655e+02  7.794516e+01 -4.213901e-31
   endloop
 endfacet
 facet normal -9.781170e-01  2.080558e-01 -3.438325e-15
   outer loop
     vertex -1.926655e+02  7.794516e+01  3.429000e+00
     vertex -1.920385e+02  8.089254e+01  3.429000e+00
     vertex -1.920385e+02  8.089254e+01 -4.252492e-31
   endloop
 endfacet
 facet normal -9.807686e-01  1.951742e-01 -2.910681e-15
   outer loop
     vertex -1.932536e+02  7.498978e+01  3.429000e+00
     vertex -1.926655e+02  7.794516e+01 -4.213901e-31
     vertex -1.932536e+02  7.498978e+01 -4.174582e-31
   endloop
 endfacet
 facet normal -9.807686e-01  1.951742e-01  7.693252e-15
   outer loop
     vertex -1.932536e+02  7.498978e+01  3.429000e+00
     vertex -1.926655e+02  7.794516e+01  3.429000e+00
     vertex -1.926655e+02  7.794516e+01 -4.213901e-31
   endloop
 endfacet
 facet normal -9.832506e-01  1.822588e-01  7.037390e-15
   outer loop
     vertex -1.938028e+02  7.202693e+01  3.429000e+00
     vertex -1.932536e+02  7.498978e+01 -4.174582e-31
     vertex -1.938028e+02  7.202693e+01 -4.134541e-31
   endloop
 endfacet
 facet normal -9.832506e-01  1.822588e-01  1.762141e-15
   outer loop
     vertex -1.938028e+02  7.202693e+01  3.429000e+00
     vertex -1.932536e+02  7.498978e+01  3.429000e+00
     vertex -1.932536e+02  7.498978e+01 -4.174582e-31
   endloop
 endfacet
 facet normal -9.855625e-01  1.693119e-01 -1.039508e-16
   outer loop
     vertex -1.943130e+02  6.905711e+01  3.429000e+00
     vertex -1.938028e+02  7.202693e+01 -4.134541e-31
     vertex -1.943130e+02  6.905711e+01 -4.093784e-31
   endloop
 endfacet
 facet normal -9.877040e-01  1.563357e-01  3.766962e-15
   outer loop
     vertex -1.943130e+02  6.905711e+01  3.429000e+00
     vertex -1.943130e+02  6.905711e+01 -4.093784e-31
     vertex -1.947841e+02  6.608084e+01 -4.052320e-31
   endloop
 endfacet
 facet normal -9.855625e-01  1.693119e-01  1.132498e-14
   outer loop
     vertex -1.943130e+02  6.905711e+01  3.429000e+00
     vertex -1.938028e+02  7.202693e+01  3.429000e+00
     vertex -1.938028e+02  7.202693e+01 -4.134541e-31
   endloop
 endfacet
 facet normal -9.877040e-01  1.563357e-01 -8.071131e-15
   outer loop
     vertex -1.947841e+02  6.608084e+01  3.429000e+00
     vertex -1.943130e+02  6.905711e+01  3.429000e+00
     vertex -1.947841e+02  6.608084e+01 -4.052320e-31
   endloop
 endfacet
 facet normal -9.896746e-01  1.433325e-01 -8.655704e-15
   outer loop
     vertex -1.952160e+02  6.309863e+01  3.429000e+00
     vertex -1.947841e+02  6.608084e+01 -4.052320e-31
     vertex -1.952160e+02  6.309863e+01 -4.010154e-31
   endloop
 endfacet
 facet normal -9.896746e-01  1.433325e-01 -4.620249e-15
   outer loop
     vertex -1.952160e+02  6.309863e+01  3.429000e+00
     vertex -1.947841e+02  6.608084e+01  3.429000e+00
     vertex -1.947841e+02  6.608084e+01 -4.052320e-31
   endloop
 endfacet
 facet normal -9.914740e-01  1.303045e-01  6.140710e-15
   outer loop
     vertex -1.956086e+02  6.011100e+01  3.429000e+00
     vertex -1.952160e+02  6.309863e+01 -4.010154e-31
     vertex -1.956086e+02  6.011100e+01 -3.967295e-31
   endloop
 endfacet
 facet normal -9.931020e-01  1.172540e-01  8.871919e-15
   outer loop
     vertex -1.956086e+02  6.011100e+01  3.429000e+00
     vertex -1.956086e+02  6.011100e+01 -3.967295e-31
     vertex -1.959620e+02  5.711846e+01 -3.923750e-31
   endloop
 endfacet
 facet normal -9.914740e-01  1.303045e-01 -5.587278e-15
   outer loop
     vertex -1.956086e+02  6.011100e+01  3.429000e+00
     vertex -1.952160e+02  6.309863e+01  3.429000e+00
     vertex -1.952160e+02  6.309863e+01 -4.010154e-31
   endloop
 endfacet
 facet normal -9.931020e-01  1.172540e-01  4.042026e-15
   outer loop
     vertex -1.959620e+02  5.711846e+01  3.429000e+00
     vertex -1.956086e+02  6.011100e+01  3.429000e+00
     vertex -1.959620e+02  5.711846e+01 -3.923750e-31
   endloop
 endfacet
 facet normal -9.945581e-01  1.041831e-01 -7.300113e-15
   outer loop
     vertex -1.962759e+02  5.412153e+01  3.429000e+00
     vertex -1.959620e+02  5.711846e+01 -3.923750e-31
     vertex -1.962759e+02  5.412153e+01 -3.879526e-31
   endloop
 endfacet
 facet normal -9.945581e-01  1.041831e-01  6.382390e-15
   outer loop
     vertex -1.962759e+02  5.412153e+01  3.429000e+00
     vertex -1.959620e+02  5.711846e+01  3.429000e+00
     vertex -1.959620e+02  5.711846e+01 -3.923750e-31
   endloop
 endfacet
 facet normal -9.958423e-01  9.109429e-02 -5.329403e-15
   outer loop
     vertex -1.965504e+02  5.112074e+01  3.429000e+00
     vertex -1.962759e+02  5.412153e+01  3.429000e+00
     vertex -1.962759e+02  5.412153e+01 -3.879526e-31
   endloop
 endfacet
 facet normal -9.958423e-01  9.109429e-02 -2.316488e-15
   outer loop
     vertex -1.965504e+02  5.112074e+01  3.429000e+00
     vertex -1.962759e+02  5.412153e+01 -3.879526e-31
     vertex -1.965504e+02  5.112074e+01 -3.834631e-31
   endloop
 endfacet
 facet normal -9.969542e-01  7.798969e-02 -7.866032e-16
   outer loop
     vertex -1.965504e+02  5.112074e+01  3.429000e+00
     vertex -1.965504e+02  5.112074e+01 -3.834631e-31
     vertex -1.967854e+02  4.811659e+01 -3.789073e-31
   endloop
 endfacet
 facet normal -9.969542e-01  7.798969e-02  1.475893e-15
   outer loop
     vertex -1.967854e+02  4.811659e+01  3.429000e+00
     vertex -1.965504e+02  5.112074e+01  3.429000e+00
     vertex -1.967854e+02  4.811659e+01 -3.789073e-31
   endloop
 endfacet
 facet normal -9.978936e-01  6.487160e-02  2.621723e-15
   outer loop
     vertex -1.969809e+02  4.510962e+01  3.429000e+00
     vertex -1.967854e+02  4.811659e+01  3.429000e+00
     vertex -1.967854e+02  4.811659e+01 -3.789073e-31
   endloop
 endfacet
 facet normal -9.978936e-01  6.487160e-02 -3.763876e-15
   outer loop
     vertex -1.969809e+02  4.510962e+01  3.429000e+00
     vertex -1.967854e+02  4.811659e+01 -3.789073e-31
     vertex -1.969809e+02  4.510962e+01 -3.742860e-31
   endloop
 endfacet
 facet normal -9.986605e-01  5.174229e-02 -2.997789e-15
   outer loop
     vertex -1.971368e+02  4.210033e+01  3.429000e+00
     vertex -1.969809e+02  4.510962e+01  3.429000e+00
     vertex -1.969809e+02  4.510962e+01 -3.742860e-31
   endloop
 endfacet
 facet normal -9.986605e-01  5.174229e-02  6.776472e-15
   outer loop
     vertex -1.971368e+02  4.210033e+01  3.429000e+00
     vertex -1.969809e+02  4.510962e+01 -3.742860e-31
     vertex -1.971368e+02  4.210033e+01 -3.695999e-31
   endloop
 endfacet
 facet normal -9.992546e-01  3.860402e-02  7.162540e-15
   outer loop
     vertex -1.971368e+02  4.210033e+01  3.429000e+00
     vertex -1.971368e+02  4.210033e+01 -3.695999e-31
     vertex -1.972531e+02  3.908925e+01 -3.648498e-31
   endloop
 endfacet
 facet normal -9.992546e-01  3.860402e-02  7.999361e-17
   outer loop
     vertex -1.972531e+02  3.908925e+01  3.429000e+00
     vertex -1.971368e+02  4.210033e+01  3.429000e+00
     vertex -1.972531e+02  3.908925e+01 -3.648498e-31
   endloop
 endfacet
 facet normal -9.996759e-01  2.545908e-02  5.372382e-17
   outer loop
     vertex -1.973298e+02  3.607690e+01  3.429000e+00
     vertex -1.972531e+02  3.908925e+01  3.429000e+00
     vertex -1.972531e+02  3.908925e+01 -3.648498e-31
   endloop
 endfacet
 facet normal -9.996759e-01  2.545908e-02  8.440836e-16
   outer loop
     vertex -1.973298e+02  3.607690e+01  3.429000e+00
     vertex -1.972531e+02  3.908925e+01 -3.648498e-31
     vertex -1.973298e+02  3.607690e+01 -3.600367e-31
   endloop
 endfacet
 facet normal -9.999242e-01  1.230974e-02  4.081235e-16
   outer loop
     vertex -1.973298e+02  3.607690e+01  3.429000e+00
     vertex -1.973298e+02  3.607690e+01 -3.600367e-31
     vertex -1.973669e+02  3.306381e+01 -3.551613e-31
   endloop
 endfacet
 facet normal -9.999242e-01  1.230974e-02  7.397239e-16
   outer loop
     vertex -1.973669e+02  3.306381e+01  3.429000e+00
     vertex -1.973298e+02  3.607690e+01  3.429000e+00
     vertex -1.973669e+02  3.306381e+01 -3.551613e-31
   endloop
 endfacet
 facet normal -9.999996e-01 -8.417307e-04 -5.061792e-17
   outer loop
     vertex -1.973644e+02  3.005048e+01  3.429000e+00
     vertex -1.973669e+02  3.306381e+01  3.429000e+00
     vertex -1.973669e+02  3.306381e+01 -3.551613e-31
   endloop
 endfacet
 facet normal -9.999996e-01 -8.417307e-04 -7.674473e-17
   outer loop
     vertex -1.973644e+02  3.005048e+01  3.429000e+00
     vertex -1.973669e+02  3.306381e+01 -3.551613e-31
     vertex -1.973644e+02  3.005048e+01 -3.502244e-31
   endloop
 endfacet
 facet normal -9.999021e-01 -1.399306e-02 -1.275816e-15
   outer loop
     vertex -1.973644e+02  3.005048e+01  3.429000e+00
     vertex -1.973644e+02  3.005048e+01 -3.502244e-31
     vertex -1.973222e+02  2.703746e+01 -3.452270e-31
   endloop
 endfacet
 facet normal -9.999021e-01 -1.399306e-02 -1.681757e-15
   outer loop
     vertex -1.973222e+02  2.703746e+01  3.429000e+00
     vertex -1.973644e+02  3.005048e+01  3.429000e+00
     vertex -1.973222e+02  2.703746e+01 -3.452270e-31
   endloop
 endfacet
 facet normal -9.996316e-01 -2.714196e-02 -3.263722e-15
   outer loop
     vertex -1.972404e+02  2.402524e+01  3.429000e+00
     vertex -1.973222e+02  2.703746e+01  3.429000e+00
     vertex -1.973222e+02  2.703746e+01 -3.452270e-31
   endloop
 endfacet
 facet normal -9.996316e-01 -2.714196e-02  4.208000e-15
   outer loop
     vertex -1.972404e+02  2.402524e+01  3.429000e+00
     vertex -1.973222e+02  2.703746e+01 -3.452270e-31
     vertex -1.972404e+02  2.402524e+01 -3.401699e-31
   endloop
 endfacet
 facet normal -9.991882e-01 -4.028617e-02  2.229539e-15
   outer loop
     vertex -1.971190e+02  2.101436e+01  3.429000e+00
     vertex -1.972404e+02  2.402524e+01  3.429000e+00
     vertex -1.972404e+02  2.402524e+01 -3.401699e-31
   endloop
 endfacet
 facet normal -9.991882e-01 -4.028617e-02  1.060942e-15
   outer loop
     vertex -1.971190e+02  2.101436e+01  3.429000e+00
     vertex -1.972404e+02  2.402524e+01 -3.401699e-31
     vertex -1.971190e+02  2.101436e+01 -3.350539e-31
   endloop
 endfacet
 facet normal -9.985719e-01 -5.342342e-02 -1.300117e-15
   outer loop
     vertex -1.969581e+02  1.800534e+01  3.429000e+00
     vertex -1.971190e+02  2.101436e+01  3.429000e+00
     vertex -1.971190e+02  2.101436e+01 -3.350539e-31
   endloop
 endfacet
 facet normal -9.985719e-01 -5.342342e-02 -2.848731e-15
   outer loop
     vertex -1.969581e+02  1.800534e+01  3.429000e+00
     vertex -1.971190e+02  2.101436e+01 -3.350539e-31
     vertex -1.969581e+02  1.800534e+01 -3.298800e-31
   endloop
 endfacet
 facet normal -9.977830e-01 -6.655142e-02 -5.589200e-15
   outer loop
     vertex -1.969581e+02  1.800534e+01  3.429000e+00
     vertex -1.969581e+02  1.800534e+01 -3.298800e-31
     vertex -1.967575e+02  1.499870e+01  0.000000e+00
   endloop
 endfacet
 facet normal -9.977830e-01 -6.655142e-02 -0.000000e+00
   outer loop
     vertex -1.967575e+02  1.499870e+01  3.429000e+00
     vertex -1.969581e+02  1.800534e+01  3.429000e+00
     vertex -1.967575e+02  1.499870e+01  0.000000e+00
   endloop
 endfacet
endsolid
