solid 
 facet normal  0.000000e+00  0.000000e+00 -1.000000e+00
   outer loop
     vertex -4.087866e+00  1.863256e+02 -2.312670e+02
     vertex -1.474992e+01  1.905000e+02 -2.312670e+02
     vertex -3.763146e+00  1.866504e+02 -2.312670e+02
   endloop
 endfacet
 facet normal -0.000000e+00  0.000000e+00 -1.000000e+00
   outer loop
     vertex -3.412719e+00  1.869472e+02 -2.312670e+02
     vertex -3.763146e+00  1.866504e+02 -2.312670e+02
     vertex -1.474992e+01  1.905000e+02 -2.312670e+02
   endloop
 endfacet
 facet normal  0.000000e+00  0.000000e+00 -1.000000e+00
   outer loop
     vertex -4.384662e+00  1.859752e+02 -2.312670e+02
     vertex -1.474992e+01  1.905000e+02 -2.312670e+02
     vertex -4.087866e+00  1.863256e+02 -2.312670e+02
   endloop
 endfacet
 facet normal -0.000000e+00  0.000000e+00 -1.000000e+00
   outer loop
     vertex -3.038981e+00  1.872140e+02 -2.312670e+02
     vertex -3.412719e+00  1.869472e+02 -2.312670e+02
     vertex -1.474992e+01  1.905000e+02 -2.312670e+02
   endloop
 endfacet
 facet normal  0.000000e+00  0.000000e+00 -1.000000e+00
   outer loop
     vertex -4.651506e+00  1.856015e+02 -2.312670e+02
     vertex -1.474992e+01  1.905000e+02 -2.312670e+02
     vertex -4.384662e+00  1.859752e+02 -2.312670e+02
   endloop
 endfacet
 facet normal -0.000000e+00  0.000000e+00 -1.000000e+00
   outer loop
     vertex -2.644483e+00  1.874491e+02 -2.312670e+02
     vertex -3.038981e+00  1.872140e+02 -2.312670e+02
     vertex -1.474992e+01  1.905000e+02 -2.312670e+02
   endloop
 endfacet
 facet normal  0.000000e+00  0.000000e+00 -1.000000e+00
   outer loop
     vertex -4.886576e+00  1.852070e+02 -2.312670e+02
     vertex -1.474992e+01  1.905000e+02 -2.312670e+02
     vertex -4.651506e+00  1.856015e+02 -2.312670e+02
   endloop
 endfacet
 facet normal -0.000000e+00  0.000000e+00 -1.000000e+00
   outer loop
     vertex -2.231920e+00  1.876508e+02 -2.312670e+02
     vertex -2.644483e+00  1.874491e+02 -2.312670e+02
     vertex -1.474992e+01  1.905000e+02 -2.312670e+02
   endloop
 endfacet
 facet normal  0.000000e+00  0.000000e+00 -1.000000e+00
   outer loop
     vertex -5.088266e+00  1.847944e+02 -2.312670e+02
     vertex -1.474992e+01  1.905000e+02 -2.312670e+02
     vertex -4.886576e+00  1.852070e+02 -2.312670e+02
   endloop
 endfacet
 facet normal -0.000000e+00  0.000000e+00 -1.000000e+00
   outer loop
     vertex -1.804111e+00  1.878177e+02 -2.312670e+02
     vertex -2.231920e+00  1.876508e+02 -2.312670e+02
     vertex -1.474992e+01  1.905000e+02 -2.312670e+02
   endloop
 endfacet
 facet normal  0.000000e+00  0.000000e+00 -1.000000e+00
   outer loop
     vertex -5.255197e+00  1.843666e+02 -2.312670e+02
     vertex -1.474992e+01  1.905000e+02 -2.312670e+02
     vertex -5.088266e+00  1.847944e+02 -2.312670e+02
   endloop
 endfacet
 facet normal -0.000000e+00  0.000000e+00 -1.000000e+00
   outer loop
     vertex -1.363979e+00  1.879487e+02 -2.312670e+02
     vertex -1.804111e+00  1.878177e+02 -2.312670e+02
     vertex -1.474992e+01  1.905000e+02 -2.312670e+02
   endloop
 endfacet
 facet normal  0.000000e+00  0.000000e+00 -1.000000e+00
   outer loop
     vertex -5.386230e+00  1.839265e+02 -2.312670e+02
     vertex -1.474992e+01  1.905000e+02 -2.312670e+02
     vertex -5.255197e+00  1.843666e+02 -2.312670e+02
   endloop
 endfacet
 facet normal  0.000000e+00  0.000000e+00 -1.000000e+00
   outer loop
     vertex -5.480470e+00  1.834770e+02 -2.312670e+02
     vertex -1.474992e+01  1.905000e+02 -2.312670e+02
     vertex -5.386230e+00  1.839265e+02 -2.312670e+02
   endloop
 endfacet
 facet normal  0.000000e+00  0.000000e+00 -1.000000e+00
   outer loop
     vertex -5.480470e+00  1.834770e+02 -2.312670e+02
     vertex -1.527412e+01  1.902382e+02 -2.312670e+02
     vertex -1.474992e+01  1.905000e+02 -2.312670e+02
   endloop
 endfacet
 facet normal  0.000000e+00  0.000000e+00 -1.000000e+00
   outer loop
     vertex -5.480470e+00  1.834770e+02 -2.312670e+02
     vertex -1.577958e+01  1.899417e+02 -2.312670e+02
     vertex -1.527412e+01  1.902382e+02 -2.312670e+02
   endloop
 endfacet
 facet normal  0.000000e+00  0.000000e+00 -1.000000e+00
   outer loop
     vertex -5.480470e+00  1.834770e+02 -2.312670e+02
     vertex -1.626401e+01  1.896121e+02 -2.312670e+02
     vertex -1.577958e+01  1.899417e+02 -2.312670e+02
   endloop
 endfacet
 facet normal  0.000000e+00  0.000000e+00 -1.000000e+00
   outer loop
     vertex -5.537273e+00  1.830213e+02 -2.312670e+02
     vertex -1.626401e+01  1.896121e+02 -2.312670e+02
     vertex -5.480470e+00  1.834770e+02 -2.312670e+02
   endloop
 endfacet
 facet normal  0.000000e+00  0.000000e+00 -1.000000e+00
   outer loop
     vertex -5.537273e+00  1.830213e+02 -2.312670e+02
     vertex -1.672525e+01  1.892507e+02 -2.312670e+02
     vertex -1.626401e+01  1.896121e+02 -2.312670e+02
   endloop
 endfacet
 facet normal  0.000000e+00  0.000000e+00 -1.000000e+00
   outer loop
     vertex -5.537273e+00  1.830213e+02 -2.312670e+02
     vertex -1.716121e+01  1.888592e+02 -2.312670e+02
     vertex -1.672525e+01  1.892507e+02 -2.312670e+02
   endloop
 endfacet
 facet normal  0.000000e+00  0.000000e+00 -1.000000e+00
   outer loop
     vertex -5.537273e+00  1.830213e+02 -2.312670e+02
     vertex -1.756992e+01  1.884393e+02 -2.312670e+02
     vertex -1.716121e+01  1.888592e+02 -2.312670e+02
   endloop
 endfacet
 facet normal  0.000000e+00  0.000000e+00 -1.000000e+00
   outer loop
     vertex -5.537273e+00  1.830213e+02 -2.312670e+02
     vertex -1.794955e+01  1.879929e+02 -2.312670e+02
     vertex -1.756992e+01  1.884393e+02 -2.312670e+02
   endloop
 endfacet
 facet normal  0.000000e+00  0.000000e+00 -1.000000e+00
   outer loop
     vertex -5.537273e+00  1.830213e+02 -2.312670e+02
     vertex -1.829839e+01  1.875221e+02 -2.312670e+02
     vertex -1.794955e+01  1.879929e+02 -2.312670e+02
   endloop
 endfacet
 facet normal  0.000000e+00  0.000000e+00 -1.000000e+00
   outer loop
     vertex -5.537273e+00  1.830213e+02 -2.312670e+02
     vertex -1.861486e+01  1.870290e+02 -2.312670e+02
     vertex -1.829839e+01  1.875221e+02 -2.312670e+02
   endloop
 endfacet
 facet normal  0.000000e+00  0.000000e+00 -1.000000e+00
   outer loop
     vertex -5.537273e+00  1.830213e+02 -2.312670e+02
     vertex -1.889755e+01  1.865157e+02 -2.312670e+02
     vertex -1.861486e+01  1.870290e+02 -2.312670e+02
   endloop
 endfacet
 facet normal  0.000000e+00  0.000000e+00 -1.000000e+00
   outer loop
     vertex -5.537273e+00  1.830213e+02 -2.312670e+02
     vertex -1.914517e+01  1.859846e+02 -2.312670e+02
     vertex -1.889755e+01  1.865157e+02 -2.312670e+02
   endloop
 endfacet
 facet normal  0.000000e+00  0.000000e+00 -1.000000e+00
   outer loop
     vertex -5.537273e+00  1.830213e+02 -2.312670e+02
     vertex -1.935661e+01  1.854382e+02 -2.312670e+02
     vertex -1.914517e+01  1.859846e+02 -2.312670e+02
   endloop
 endfacet
 facet normal  0.000000e+00  0.000000e+00 -1.000000e+00
   outer loop
     vertex -5.556250e+00  1.825625e+02 -2.312670e+02
     vertex -1.953092e+01  1.848787e+02 -2.312670e+02
     vertex -1.935661e+01  1.854382e+02 -2.312670e+02
   endloop
 endfacet
 facet normal  0.000000e+00  0.000000e+00 -1.000000e+00
   outer loop
     vertex -5.556250e+00  1.825625e+02 -2.312670e+02
     vertex -1.966732e+01  1.843089e+02 -2.312670e+02
     vertex -1.953092e+01  1.848787e+02 -2.312670e+02
   endloop
 endfacet
 facet normal  0.000000e+00  0.000000e+00 -1.000000e+00
   outer loop
     vertex -5.556250e+00  1.825625e+02 -2.312670e+02
     vertex -1.976519e+01  1.837311e+02 -2.312670e+02
     vertex -1.966732e+01  1.843089e+02 -2.312670e+02
   endloop
 endfacet
 facet normal  0.000000e+00  0.000000e+00 -1.000000e+00
   outer loop
     vertex -5.556250e+00  1.825625e+02 -2.312670e+02
     vertex -1.982409e+01  1.831481e+02 -2.312670e+02
     vertex -1.976519e+01  1.837311e+02 -2.312670e+02
   endloop
 endfacet
 facet normal  0.000000e+00  0.000000e+00 -1.000000e+00
   outer loop
     vertex -5.556250e+00  1.825625e+02 -2.312670e+02
     vertex -1.984375e+01  1.825625e+02 -2.312670e+02
     vertex -1.982409e+01  1.831481e+02 -2.312670e+02
   endloop
 endfacet
 facet normal -0.000000e+00  0.000000e+00 -1.000000e+00
   outer loop
     vertex -5.556250e+00  1.825625e+02 -2.312670e+02
     vertex -1.982409e+01  1.819769e+02 -2.312670e+02
     vertex -1.984375e+01  1.825625e+02 -2.312670e+02
   endloop
 endfacet
 facet normal  0.000000e+00  0.000000e+00 -1.000000e+00
   outer loop
     vertex -5.556250e+00  1.825625e+02 -2.312670e+02
     vertex -1.976519e+01  1.813939e+02 -2.312670e+02
     vertex -1.982409e+01  1.819769e+02 -2.312670e+02
   endloop
 endfacet
 facet normal  0.000000e+00  0.000000e+00 -1.000000e+00
   outer loop
     vertex -5.556250e+00  1.825625e+02 -2.312670e+02
     vertex -1.966732e+01  1.808161e+02 -2.312670e+02
     vertex -1.976519e+01  1.813939e+02 -2.312670e+02
   endloop
 endfacet
 facet normal  0.000000e+00  0.000000e+00 -1.000000e+00
   outer loop
     vertex -5.556250e+00  1.825625e+02 -2.312670e+02
     vertex -1.953092e+01  1.802463e+02 -2.312670e+02
     vertex -1.966732e+01  1.808161e+02 -2.312670e+02
   endloop
 endfacet
 facet normal  0.000000e+00  0.000000e+00 -1.000000e+00
   outer loop
     vertex -5.556250e+00  1.825625e+02 -2.312670e+02
     vertex -1.935661e+01  1.796868e+02 -2.312670e+02
     vertex -1.953092e+01  1.802463e+02 -2.312670e+02
   endloop
 endfacet
 facet normal  0.000000e+00  0.000000e+00 -1.000000e+00
   outer loop
     vertex -5.556250e+00  1.825625e+02 -2.312670e+02
     vertex -1.935661e+01  1.854382e+02 -2.312670e+02
     vertex -5.537273e+00  1.830213e+02 -2.312670e+02
   endloop
 endfacet
 facet normal  0.000000e+00  0.000000e+00 -1.000000e+00
   outer loop
     vertex -5.537273e+00  1.821037e+02 -2.312670e+02
     vertex -1.914517e+01  1.791404e+02 -2.312670e+02
     vertex -1.935661e+01  1.796868e+02 -2.312670e+02
   endloop
 endfacet
 facet normal  0.000000e+00  0.000000e+00 -1.000000e+00
   outer loop
     vertex -5.537273e+00  1.821037e+02 -2.312670e+02
     vertex -1.889755e+01  1.786093e+02 -2.312670e+02
     vertex -1.914517e+01  1.791404e+02 -2.312670e+02
   endloop
 endfacet
 facet normal  0.000000e+00  0.000000e+00 -1.000000e+00
   outer loop
     vertex -5.537273e+00  1.821037e+02 -2.312670e+02
     vertex -1.861486e+01  1.780960e+02 -2.312670e+02
     vertex -1.889755e+01  1.786093e+02 -2.312670e+02
   endloop
 endfacet
 facet normal  0.000000e+00  0.000000e+00 -1.000000e+00
   outer loop
     vertex -5.537273e+00  1.821037e+02 -2.312670e+02
     vertex -1.829839e+01  1.776029e+02 -2.312670e+02
     vertex -1.861486e+01  1.780960e+02 -2.312670e+02
   endloop
 endfacet
 facet normal  0.000000e+00  0.000000e+00 -1.000000e+00
   outer loop
     vertex -5.537273e+00  1.821037e+02 -2.312670e+02
     vertex -1.794955e+01  1.771321e+02 -2.312670e+02
     vertex -1.829839e+01  1.776029e+02 -2.312670e+02
   endloop
 endfacet
 facet normal  0.000000e+00  0.000000e+00 -1.000000e+00
   outer loop
     vertex -5.537273e+00  1.821037e+02 -2.312670e+02
     vertex -1.756992e+01  1.766857e+02 -2.312670e+02
     vertex -1.794955e+01  1.771321e+02 -2.312670e+02
   endloop
 endfacet
 facet normal  0.000000e+00  0.000000e+00 -1.000000e+00
   outer loop
     vertex -5.537273e+00  1.821037e+02 -2.312670e+02
     vertex -1.716121e+01  1.762658e+02 -2.312670e+02
     vertex -1.756992e+01  1.766857e+02 -2.312670e+02
   endloop
 endfacet
 facet normal  0.000000e+00  0.000000e+00 -1.000000e+00
   outer loop
     vertex -5.537273e+00  1.821037e+02 -2.312670e+02
     vertex -1.672525e+01  1.758743e+02 -2.312670e+02
     vertex -1.716121e+01  1.762658e+02 -2.312670e+02
   endloop
 endfacet
 facet normal  0.000000e+00  0.000000e+00 -1.000000e+00
   outer loop
     vertex -5.537273e+00  1.821037e+02 -2.312670e+02
     vertex -1.626401e+01  1.755129e+02 -2.312670e+02
     vertex -1.672525e+01  1.758743e+02 -2.312670e+02
   endloop
 endfacet
 facet normal -0.000000e+00  0.000000e+00 -1.000000e+00
   outer loop
     vertex -5.537273e+00  1.821037e+02 -2.312670e+02
     vertex -1.935661e+01  1.796868e+02 -2.312670e+02
     vertex -5.556250e+00  1.825625e+02 -2.312670e+02
   endloop
 endfacet
 facet normal  0.000000e+00  0.000000e+00 -1.000000e+00
   outer loop
     vertex -5.480470e+00  1.816480e+02 -2.312670e+02
     vertex -1.577958e+01  1.751833e+02 -2.312670e+02
     vertex -1.626401e+01  1.755129e+02 -2.312670e+02
   endloop
 endfacet
 facet normal  0.000000e+00  0.000000e+00 -1.000000e+00
   outer loop
     vertex -5.480470e+00  1.816480e+02 -2.312670e+02
     vertex -1.527412e+01  1.748868e+02 -2.312670e+02
     vertex -1.577958e+01  1.751833e+02 -2.312670e+02
   endloop
 endfacet
 facet normal  0.000000e+00  0.000000e+00 -1.000000e+00
   outer loop
     vertex -5.480470e+00  1.816480e+02 -2.312670e+02
     vertex -1.474992e+01  1.746250e+02 -2.312670e+02
     vertex -1.527412e+01  1.748868e+02 -2.312670e+02
   endloop
 endfacet
 facet normal -0.000000e+00  0.000000e+00 -1.000000e+00
   outer loop
     vertex -5.480470e+00  1.816480e+02 -2.312670e+02
     vertex -1.626401e+01  1.755129e+02 -2.312670e+02
     vertex -5.537273e+00  1.821037e+02 -2.312670e+02
   endloop
 endfacet
 facet normal  0.000000e+00  0.000000e+00 -1.000000e+00
   outer loop
     vertex  3.637419e+00  1.905000e+02 -2.312670e+02
     vertex  9.145287e-01  1.880430e+02 -2.312670e+02
     vertex  4.588315e-01  1.880998e+02 -2.312670e+02
   endloop
 endfacet
 facet normal  0.000000e+00  0.000000e+00 -1.000000e+00
   outer loop
     vertex  3.637419e+00  1.905000e+02 -2.312670e+02
     vertex  4.588315e-01  1.880998e+02 -2.312670e+02
     vertex  4.612348e-14  1.881188e+02 -2.312670e+02
   endloop
 endfacet
 facet normal  0.000000e+00  0.000000e+00 -1.000000e+00
   outer loop
     vertex  3.637419e+00  1.905000e+02 -2.312670e+02
     vertex  4.612348e-14  1.881188e+02 -2.312670e+02
     vertex -4.588315e-01  1.880998e+02 -2.312670e+02
   endloop
 endfacet
 facet normal  0.000000e+00  0.000000e+00 -1.000000e+00
   outer loop
     vertex  3.637419e+00  1.905000e+02 -2.312670e+02
     vertex -4.588315e-01  1.880998e+02 -2.312670e+02
     vertex -9.145287e-01  1.880430e+02 -2.312670e+02
   endloop
 endfacet
 facet normal  0.000000e+00  0.000000e+00 -1.000000e+00
   outer loop
     vertex  3.637419e+00  1.905000e+02 -2.312670e+02
     vertex -9.145287e-01  1.880430e+02 -2.312670e+02
     vertex -1.363979e+00  1.879487e+02 -2.312670e+02
   endloop
 endfacet
 facet normal -0.000000e+00  0.000000e+00 -1.000000e+00
   outer loop
     vertex  3.637419e+00  1.905000e+02 -2.312670e+02
     vertex -1.363979e+00  1.879487e+02 -2.312670e+02
     vertex -1.474992e+01  1.905000e+02 -2.312670e+02
   endloop
 endfacet
 facet normal -0.000000e+00  0.000000e+00 -1.000000e+00
   outer loop
     vertex -5.386230e+00  1.811985e+02 -2.312670e+02
     vertex -1.474992e+01  1.746250e+02 -2.312670e+02
     vertex -5.480470e+00  1.816480e+02 -2.312670e+02
   endloop
 endfacet
 facet normal  0.000000e+00  0.000000e+00 -1.000000e+00
   outer loop
     vertex  1.363979e+00  1.879487e+02 -2.312670e+02
     vertex  9.145287e-01  1.880430e+02 -2.312670e+02
     vertex  3.637419e+00  1.905000e+02 -2.312670e+02
   endloop
 endfacet
 facet normal -0.000000e+00  0.000000e+00 -1.000000e+00
   outer loop
     vertex -5.255197e+00  1.807584e+02 -2.312670e+02
     vertex -1.474992e+01  1.746250e+02 -2.312670e+02
     vertex -5.386230e+00  1.811985e+02 -2.312670e+02
   endloop
 endfacet
 facet normal  0.000000e+00  0.000000e+00 -1.000000e+00
   outer loop
     vertex  1.804111e+00  1.878177e+02 -2.312670e+02
     vertex  1.363979e+00  1.879487e+02 -2.312670e+02
     vertex  3.637419e+00  1.905000e+02 -2.312670e+02
   endloop
 endfacet
 facet normal -0.000000e+00  0.000000e+00 -1.000000e+00
   outer loop
     vertex -5.088266e+00  1.803306e+02 -2.312670e+02
     vertex -1.474992e+01  1.746250e+02 -2.312670e+02
     vertex -5.255197e+00  1.807584e+02 -2.312670e+02
   endloop
 endfacet
 facet normal  0.000000e+00  0.000000e+00 -1.000000e+00
   outer loop
     vertex  2.231920e+00  1.876508e+02 -2.312670e+02
     vertex  1.804111e+00  1.878177e+02 -2.312670e+02
     vertex  3.637419e+00  1.905000e+02 -2.312670e+02
   endloop
 endfacet
 facet normal -0.000000e+00  0.000000e+00 -1.000000e+00
   outer loop
     vertex -4.886576e+00  1.799180e+02 -2.312670e+02
     vertex -1.474992e+01  1.746250e+02 -2.312670e+02
     vertex -5.088266e+00  1.803306e+02 -2.312670e+02
   endloop
 endfacet
 facet normal  0.000000e+00  0.000000e+00 -1.000000e+00
   outer loop
     vertex  2.644483e+00  1.874491e+02 -2.312670e+02
     vertex  4.161620e+00  1.902382e+02 -2.312670e+02
     vertex  4.667077e+00  1.899417e+02 -2.312670e+02
   endloop
 endfacet
 facet normal  0.000000e+00  0.000000e+00 -1.000000e+00
   outer loop
     vertex  2.644483e+00  1.874491e+02 -2.312670e+02
     vertex  3.637419e+00  1.905000e+02 -2.312670e+02
     vertex  4.161620e+00  1.902382e+02 -2.312670e+02
   endloop
 endfacet
 facet normal  0.000000e+00  0.000000e+00 -1.000000e+00
   outer loop
     vertex  2.644483e+00  1.874491e+02 -2.312670e+02
     vertex  2.231920e+00  1.876508e+02 -2.312670e+02
     vertex  3.637419e+00  1.905000e+02 -2.312670e+02
   endloop
 endfacet
 facet normal -0.000000e+00  0.000000e+00 -1.000000e+00
   outer loop
     vertex -4.651506e+00  1.795235e+02 -2.312670e+02
     vertex -1.474992e+01  1.746250e+02 -2.312670e+02
     vertex -4.886576e+00  1.799180e+02 -2.312670e+02
   endloop
 endfacet
 facet normal  0.000000e+00  0.000000e+00 -1.000000e+00
   outer loop
     vertex  3.038981e+00  1.872140e+02 -2.312670e+02
     vertex  4.667077e+00  1.899417e+02 -2.312670e+02
     vertex  5.151514e+00  1.896121e+02 -2.312670e+02
   endloop
 endfacet
 facet normal  0.000000e+00  0.000000e+00 -1.000000e+00
   outer loop
     vertex  3.038981e+00  1.872140e+02 -2.312670e+02
     vertex  2.644483e+00  1.874491e+02 -2.312670e+02
     vertex  4.667077e+00  1.899417e+02 -2.312670e+02
   endloop
 endfacet
 facet normal -0.000000e+00  0.000000e+00 -1.000000e+00
   outer loop
     vertex -4.384662e+00  1.791498e+02 -2.312670e+02
     vertex -1.474992e+01  1.746250e+02 -2.312670e+02
     vertex -4.651506e+00  1.795235e+02 -2.312670e+02
   endloop
 endfacet
 facet normal  0.000000e+00  0.000000e+00 -1.000000e+00
   outer loop
     vertex  3.412719e+00  1.869472e+02 -2.312670e+02
     vertex  5.151514e+00  1.896121e+02 -2.312670e+02
     vertex  5.612749e+00  1.892507e+02 -2.312670e+02
   endloop
 endfacet
 facet normal  0.000000e+00  0.000000e+00 -1.000000e+00
   outer loop
     vertex  3.412719e+00  1.869472e+02 -2.312670e+02
     vertex  3.038981e+00  1.872140e+02 -2.312670e+02
     vertex  5.151514e+00  1.896121e+02 -2.312670e+02
   endloop
 endfacet
 facet normal -0.000000e+00  0.000000e+00 -1.000000e+00
   outer loop
     vertex -4.087866e+00  1.787994e+02 -2.312670e+02
     vertex -1.474992e+01  1.746250e+02 -2.312670e+02
     vertex -4.384662e+00  1.791498e+02 -2.312670e+02
   endloop
 endfacet
 facet normal  0.000000e+00  0.000000e+00 -1.000000e+00
   outer loop
     vertex  3.763146e+00  1.866504e+02 -2.312670e+02
     vertex  3.412719e+00  1.869472e+02 -2.312670e+02
     vertex  5.612749e+00  1.892507e+02 -2.312670e+02
   endloop
 endfacet
 facet normal -0.000000e+00  0.000000e+00 -1.000000e+00
   outer loop
     vertex  6.048706e+00  1.888592e+02 -2.312670e+02
     vertex  3.763146e+00  1.866504e+02 -2.312670e+02
     vertex  5.612749e+00  1.892507e+02 -2.312670e+02
   endloop
 endfacet
 facet normal -0.000000e+00  0.000000e+00 -1.000000e+00
   outer loop
     vertex -3.763146e+00  1.784746e+02 -2.312670e+02
     vertex -1.474992e+01  1.746250e+02 -2.312670e+02
     vertex -4.087866e+00  1.787994e+02 -2.312670e+02
   endloop
 endfacet
 facet normal  0.000000e+00  0.000000e+00 -1.000000e+00
   outer loop
     vertex  4.087866e+00  1.863256e+02 -2.312670e+02
     vertex  3.763146e+00  1.866504e+02 -2.312670e+02
     vertex  6.048706e+00  1.888592e+02 -2.312670e+02
   endloop
 endfacet
 facet normal -0.000000e+00  0.000000e+00 -1.000000e+00
   outer loop
     vertex  6.457420e+00  1.884393e+02 -2.312670e+02
     vertex  4.087866e+00  1.863256e+02 -2.312670e+02
     vertex  6.048706e+00  1.888592e+02 -2.312670e+02
   endloop
 endfacet
 facet normal -0.000000e+00  0.000000e+00 -1.000000e+00
   outer loop
     vertex -3.412719e+00  1.781778e+02 -2.312670e+02
     vertex -1.474992e+01  1.746250e+02 -2.312670e+02
     vertex -3.763146e+00  1.784746e+02 -2.312670e+02
   endloop
 endfacet
 facet normal -0.000000e+00  0.000000e+00 -1.000000e+00
   outer loop
     vertex  6.837051e+00  1.879929e+02 -2.312670e+02
     vertex  4.087866e+00  1.863256e+02 -2.312670e+02
     vertex  6.457420e+00  1.884393e+02 -2.312670e+02
   endloop
 endfacet
 facet normal  0.000000e+00  0.000000e+00 -1.000000e+00
   outer loop
     vertex  6.837051e+00  1.879929e+02 -2.312670e+02
     vertex  4.384662e+00  1.859752e+02 -2.312670e+02
     vertex  4.087866e+00  1.863256e+02 -2.312670e+02
   endloop
 endfacet
 facet normal -0.000000e+00  0.000000e+00 -1.000000e+00
   outer loop
     vertex -3.038981e+00  1.779110e+02 -2.312670e+02
     vertex -1.474992e+01  1.746250e+02 -2.312670e+02
     vertex -3.412719e+00  1.781778e+02 -2.312670e+02
   endloop
 endfacet
 facet normal  0.000000e+00  0.000000e+00 -1.000000e+00
   outer loop
     vertex  7.185888e+00  1.875221e+02 -2.312670e+02
     vertex  4.651506e+00  1.856015e+02 -2.312670e+02
     vertex  4.384662e+00  1.859752e+02 -2.312670e+02
   endloop
 endfacet
 facet normal -0.000000e+00  0.000000e+00 -1.000000e+00
   outer loop
     vertex  7.185888e+00  1.875221e+02 -2.312670e+02
     vertex  4.384662e+00  1.859752e+02 -2.312670e+02
     vertex  6.837051e+00  1.879929e+02 -2.312670e+02
   endloop
 endfacet
 facet normal -0.000000e+00  0.000000e+00 -1.000000e+00
   outer loop
     vertex -2.644483e+00  1.776759e+02 -2.312670e+02
     vertex -1.474992e+01  1.746250e+02 -2.312670e+02
     vertex -3.038981e+00  1.779110e+02 -2.312670e+02
   endloop
 endfacet
 facet normal -0.000000e+00  0.000000e+00 -1.000000e+00
   outer loop
     vertex -2.231920e+00  1.774742e+02 -2.312670e+02
     vertex -1.474992e+01  1.746250e+02 -2.312670e+02
     vertex -2.644483e+00  1.776759e+02 -2.312670e+02
   endloop
 endfacet
 facet normal -0.000000e+00  0.000000e+00 -1.000000e+00
   outer loop
     vertex  7.502362e+00  1.870290e+02 -2.312670e+02
     vertex  4.651506e+00  1.856015e+02 -2.312670e+02
     vertex  7.185888e+00  1.875221e+02 -2.312670e+02
   endloop
 endfacet
 facet normal  0.000000e+00  0.000000e+00 -1.000000e+00
   outer loop
     vertex  7.502362e+00  1.870290e+02 -2.312670e+02
     vertex  4.886576e+00  1.852070e+02 -2.312670e+02
     vertex  4.651506e+00  1.856015e+02 -2.312670e+02
   endloop
 endfacet
 facet normal -0.000000e+00  0.000000e+00 -1.000000e+00
   outer loop
     vertex -1.804111e+00  1.773073e+02 -2.312670e+02
     vertex -1.474992e+01  1.746250e+02 -2.312670e+02
     vertex -2.231920e+00  1.774742e+02 -2.312670e+02
   endloop
 endfacet
 facet normal  0.000000e+00  0.000000e+00 -1.000000e+00
   outer loop
     vertex  7.785046e+00  1.865157e+02 -2.312670e+02
     vertex  5.088266e+00  1.847944e+02 -2.312670e+02
     vertex  4.886576e+00  1.852070e+02 -2.312670e+02
   endloop
 endfacet
 facet normal -0.000000e+00  0.000000e+00 -1.000000e+00
   outer loop
     vertex  7.785046e+00  1.865157e+02 -2.312670e+02
     vertex  4.886576e+00  1.852070e+02 -2.312670e+02
     vertex  7.502362e+00  1.870290e+02 -2.312670e+02
   endloop
 endfacet
 facet normal -0.000000e+00  0.000000e+00 -1.000000e+00
   outer loop
     vertex -1.363979e+00  1.771763e+02 -2.312670e+02
     vertex -1.474992e+01  1.746250e+02 -2.312670e+02
     vertex -1.804111e+00  1.773073e+02 -2.312670e+02
   endloop
 endfacet
 facet normal  0.000000e+00  0.000000e+00 -1.000000e+00
   outer loop
     vertex  8.032667e+00  1.859846e+02 -2.312670e+02
     vertex  5.255197e+00  1.843666e+02 -2.312670e+02
     vertex  5.088266e+00  1.847944e+02 -2.312670e+02
   endloop
 endfacet
 facet normal -0.000000e+00  0.000000e+00 -1.000000e+00
   outer loop
     vertex  8.032667e+00  1.859846e+02 -2.312670e+02
     vertex  5.088266e+00  1.847944e+02 -2.312670e+02
     vertex  7.785046e+00  1.865157e+02 -2.312670e+02
   endloop
 endfacet
 facet normal -0.000000e+00  0.000000e+00 -1.000000e+00
   outer loop
     vertex  8.244111e+00  1.854382e+02 -2.312670e+02
     vertex  5.255197e+00  1.843666e+02 -2.312670e+02
     vertex  8.032667e+00  1.859846e+02 -2.312670e+02
   endloop
 endfacet
 facet normal  0.000000e+00  0.000000e+00 -1.000000e+00
   outer loop
     vertex  8.418424e+00  1.848787e+02 -2.312670e+02
     vertex  5.386230e+00  1.839265e+02 -2.312670e+02
     vertex  5.255197e+00  1.843666e+02 -2.312670e+02
   endloop
 endfacet
 facet normal -0.000000e+00  0.000000e+00 -1.000000e+00
   outer loop
     vertex  8.418424e+00  1.848787e+02 -2.312670e+02
     vertex  5.255197e+00  1.843666e+02 -2.312670e+02
     vertex  8.244111e+00  1.854382e+02 -2.312670e+02
   endloop
 endfacet
 facet normal  0.000000e+00  0.000000e+00 -1.000000e+00
   outer loop
     vertex  8.554822e+00  1.843089e+02 -2.312670e+02
     vertex  5.480470e+00  1.834770e+02 -2.312670e+02
     vertex  5.386230e+00  1.839265e+02 -2.312670e+02
   endloop
 endfacet
 facet normal -0.000000e+00  0.000000e+00 -1.000000e+00
   outer loop
     vertex  8.554822e+00  1.843089e+02 -2.312670e+02
     vertex  5.386230e+00  1.839265e+02 -2.312670e+02
     vertex  8.418424e+00  1.848787e+02 -2.312670e+02
   endloop
 endfacet
 facet normal  0.000000e+00  0.000000e+00 -1.000000e+00
   outer loop
     vertex  8.652690e+00  1.837311e+02 -2.312670e+02
     vertex  5.537273e+00  1.830213e+02 -2.312670e+02
     vertex  5.480470e+00  1.834770e+02 -2.312670e+02
   endloop
 endfacet
 facet normal -0.000000e+00  0.000000e+00 -1.000000e+00
   outer loop
     vertex  8.652690e+00  1.837311e+02 -2.312670e+02
     vertex  5.480470e+00  1.834770e+02 -2.312670e+02
     vertex  8.554822e+00  1.843089e+02 -2.312670e+02
   endloop
 endfacet
 facet normal  0.000000e+00  0.000000e+00 -1.000000e+00
   outer loop
     vertex  8.711588e+00  1.831481e+02 -2.312670e+02
     vertex  5.556250e+00  1.825625e+02 -2.312670e+02
     vertex  5.537273e+00  1.830213e+02 -2.312670e+02
   endloop
 endfacet
 facet normal -0.000000e+00  0.000000e+00 -1.000000e+00
   outer loop
     vertex  8.711588e+00  1.831481e+02 -2.312670e+02
     vertex  5.537273e+00  1.830213e+02 -2.312670e+02
     vertex  8.652690e+00  1.837311e+02 -2.312670e+02
   endloop
 endfacet
 facet normal  0.000000e+00  0.000000e+00 -1.000000e+00
   outer loop
     vertex  8.731250e+00  1.825625e+02 -2.312670e+02
     vertex  5.556250e+00  1.825625e+02 -2.312670e+02
     vertex  8.711588e+00  1.831481e+02 -2.312670e+02
   endloop
 endfacet
 facet normal  0.000000e+00  0.000000e+00 -1.000000e+00
   outer loop
     vertex  8.711588e+00  1.819769e+02 -2.312670e+02
     vertex  5.537273e+00  1.821037e+02 -2.312670e+02
     vertex  5.556250e+00  1.825625e+02 -2.312670e+02
   endloop
 endfacet
 facet normal  0.000000e+00  0.000000e+00 -1.000000e+00
   outer loop
     vertex  8.711588e+00  1.819769e+02 -2.312670e+02
     vertex  5.556250e+00  1.825625e+02 -2.312670e+02
     vertex  8.731250e+00  1.825625e+02 -2.312670e+02
   endloop
 endfacet
 facet normal  0.000000e+00  0.000000e+00 -1.000000e+00
   outer loop
     vertex  8.652690e+00  1.813939e+02 -2.312670e+02
     vertex  5.480470e+00  1.816480e+02 -2.312670e+02
     vertex  5.537273e+00  1.821037e+02 -2.312670e+02
   endloop
 endfacet
 facet normal  0.000000e+00  0.000000e+00 -1.000000e+00
   outer loop
     vertex  8.652690e+00  1.813939e+02 -2.312670e+02
     vertex  5.537273e+00  1.821037e+02 -2.312670e+02
     vertex  8.711588e+00  1.819769e+02 -2.312670e+02
   endloop
 endfacet
 facet normal  0.000000e+00  0.000000e+00 -1.000000e+00
   outer loop
     vertex  8.554822e+00  1.808161e+02 -2.312670e+02
     vertex  5.386230e+00  1.811985e+02 -2.312670e+02
     vertex  5.480470e+00  1.816480e+02 -2.312670e+02
   endloop
 endfacet
 facet normal  0.000000e+00  0.000000e+00 -1.000000e+00
   outer loop
     vertex  8.554822e+00  1.808161e+02 -2.312670e+02
     vertex  5.480470e+00  1.816480e+02 -2.312670e+02
     vertex  8.652690e+00  1.813939e+02 -2.312670e+02
   endloop
 endfacet
 facet normal  0.000000e+00  0.000000e+00 -1.000000e+00
   outer loop
     vertex  8.418424e+00  1.802463e+02 -2.312670e+02
     vertex  5.255197e+00  1.807584e+02 -2.312670e+02
     vertex  5.386230e+00  1.811985e+02 -2.312670e+02
   endloop
 endfacet
 facet normal  0.000000e+00  0.000000e+00 -1.000000e+00
   outer loop
     vertex  8.418424e+00  1.802463e+02 -2.312670e+02
     vertex  5.386230e+00  1.811985e+02 -2.312670e+02
     vertex  8.554822e+00  1.808161e+02 -2.312670e+02
   endloop
 endfacet
 facet normal  0.000000e+00  0.000000e+00 -1.000000e+00
   outer loop
     vertex  8.244111e+00  1.796868e+02 -2.312670e+02
     vertex  5.255197e+00  1.807584e+02 -2.312670e+02
     vertex  8.418424e+00  1.802463e+02 -2.312670e+02
   endloop
 endfacet
 facet normal  0.000000e+00  0.000000e+00 -1.000000e+00
   outer loop
     vertex  8.032667e+00  1.791404e+02 -2.312670e+02
     vertex  5.088266e+00  1.803306e+02 -2.312670e+02
     vertex  5.255197e+00  1.807584e+02 -2.312670e+02
   endloop
 endfacet
 facet normal  0.000000e+00  0.000000e+00 -1.000000e+00
   outer loop
     vertex  8.032667e+00  1.791404e+02 -2.312670e+02
     vertex  5.255197e+00  1.807584e+02 -2.312670e+02
     vertex  8.244111e+00  1.796868e+02 -2.312670e+02
   endloop
 endfacet
 facet normal  0.000000e+00  0.000000e+00 -1.000000e+00
   outer loop
     vertex  3.637419e+00  1.746250e+02 -2.312670e+02
     vertex -1.474992e+01  1.746250e+02 -2.312670e+02
     vertex -1.363979e+00  1.771763e+02 -2.312670e+02
   endloop
 endfacet
 facet normal  0.000000e+00  0.000000e+00 -1.000000e+00
   outer loop
     vertex  3.637419e+00  1.746250e+02 -2.312670e+02
     vertex -1.363979e+00  1.771763e+02 -2.312670e+02
     vertex -9.145287e-01  1.770820e+02 -2.312670e+02
   endloop
 endfacet
 facet normal  0.000000e+00  0.000000e+00 -1.000000e+00
   outer loop
     vertex  3.637419e+00  1.746250e+02 -2.312670e+02
     vertex -9.145287e-01  1.770820e+02 -2.312670e+02
     vertex -4.588315e-01  1.770252e+02 -2.312670e+02
   endloop
 endfacet
 facet normal  0.000000e+00  0.000000e+00 -1.000000e+00
   outer loop
     vertex  3.637419e+00  1.746250e+02 -2.312670e+02
     vertex -4.588315e-01  1.770252e+02 -2.312670e+02
     vertex  4.476259e-14  1.770062e+02 -2.312670e+02
   endloop
 endfacet
 facet normal  0.000000e+00  0.000000e+00 -1.000000e+00
   outer loop
     vertex  3.637419e+00  1.746250e+02 -2.312670e+02
     vertex  4.476259e-14  1.770062e+02 -2.312670e+02
     vertex  4.588315e-01  1.770252e+02 -2.312670e+02
   endloop
 endfacet
 facet normal  0.000000e+00  0.000000e+00 -1.000000e+00
   outer loop
     vertex  3.637419e+00  1.746250e+02 -2.312670e+02
     vertex  4.588315e-01  1.770252e+02 -2.312670e+02
     vertex  9.145287e-01  1.770820e+02 -2.312670e+02
   endloop
 endfacet
 facet normal  0.000000e+00  0.000000e+00 -1.000000e+00
   outer loop
     vertex  3.637419e+00  1.746250e+02 -2.312670e+02
     vertex  9.145287e-01  1.770820e+02 -2.312670e+02
     vertex  1.363979e+00  1.771763e+02 -2.312670e+02
   endloop
 endfacet
 facet normal  0.000000e+00  0.000000e+00 -1.000000e+00
   outer loop
     vertex  3.637419e+00  1.746250e+02 -2.312670e+02
     vertex  1.363979e+00  1.771763e+02 -2.312670e+02
     vertex  1.804111e+00  1.773073e+02 -2.312670e+02
   endloop
 endfacet
 facet normal  0.000000e+00  0.000000e+00 -1.000000e+00
   outer loop
     vertex  3.637419e+00  1.746250e+02 -2.312670e+02
     vertex  1.804111e+00  1.773073e+02 -2.312670e+02
     vertex  2.231920e+00  1.774742e+02 -2.312670e+02
   endloop
 endfacet
 facet normal  0.000000e+00  0.000000e+00 -1.000000e+00
   outer loop
     vertex  3.637419e+00  1.746250e+02 -2.312670e+02
     vertex  2.231920e+00  1.774742e+02 -2.312670e+02
     vertex  2.644483e+00  1.776759e+02 -2.312670e+02
   endloop
 endfacet
 facet normal  0.000000e+00  0.000000e+00 -1.000000e+00
   outer loop
     vertex  7.785046e+00  1.786093e+02 -2.312670e+02
     vertex  4.886576e+00  1.799180e+02 -2.312670e+02
     vertex  5.088266e+00  1.803306e+02 -2.312670e+02
   endloop
 endfacet
 facet normal  0.000000e+00  0.000000e+00 -1.000000e+00
   outer loop
     vertex  7.785046e+00  1.786093e+02 -2.312670e+02
     vertex  5.088266e+00  1.803306e+02 -2.312670e+02
     vertex  8.032667e+00  1.791404e+02 -2.312670e+02
   endloop
 endfacet
 facet normal -0.000000e+00  0.000000e+00 -1.000000e+00
   outer loop
     vertex  4.161620e+00  1.748868e+02 -2.312670e+02
     vertex  3.637419e+00  1.746250e+02 -2.312670e+02
     vertex  2.644483e+00  1.776759e+02 -2.312670e+02
   endloop
 endfacet
 facet normal  0.000000e+00  0.000000e+00 -1.000000e+00
   outer loop
     vertex  7.502362e+00  1.780960e+02 -2.312670e+02
     vertex  4.651506e+00  1.795235e+02 -2.312670e+02
     vertex  4.886576e+00  1.799180e+02 -2.312670e+02
   endloop
 endfacet
 facet normal  0.000000e+00  0.000000e+00 -1.000000e+00
   outer loop
     vertex  7.502362e+00  1.780960e+02 -2.312670e+02
     vertex  4.886576e+00  1.799180e+02 -2.312670e+02
     vertex  7.785046e+00  1.786093e+02 -2.312670e+02
   endloop
 endfacet
 facet normal -0.000000e+00  0.000000e+00 -1.000000e+00
   outer loop
     vertex  4.667077e+00  1.751833e+02 -2.312670e+02
     vertex  4.161620e+00  1.748868e+02 -2.312670e+02
     vertex  2.644483e+00  1.776759e+02 -2.312670e+02
   endloop
 endfacet
 facet normal  0.000000e+00  0.000000e+00 -1.000000e+00
   outer loop
     vertex  4.667077e+00  1.751833e+02 -2.312670e+02
     vertex  2.644483e+00  1.776759e+02 -2.312670e+02
     vertex  3.038981e+00  1.779110e+02 -2.312670e+02
   endloop
 endfacet
 facet normal  0.000000e+00  0.000000e+00 -1.000000e+00
   outer loop
     vertex  7.185888e+00  1.776029e+02 -2.312670e+02
     vertex  4.384662e+00  1.791498e+02 -2.312670e+02
     vertex  4.651506e+00  1.795235e+02 -2.312670e+02
   endloop
 endfacet
 facet normal  0.000000e+00  0.000000e+00 -1.000000e+00
   outer loop
     vertex  7.185888e+00  1.776029e+02 -2.312670e+02
     vertex  4.651506e+00  1.795235e+02 -2.312670e+02
     vertex  7.502362e+00  1.780960e+02 -2.312670e+02
   endloop
 endfacet
 facet normal -0.000000e+00  0.000000e+00 -1.000000e+00
   outer loop
     vertex  5.151514e+00  1.755129e+02 -2.312670e+02
     vertex  4.667077e+00  1.751833e+02 -2.312670e+02
     vertex  3.038981e+00  1.779110e+02 -2.312670e+02
   endloop
 endfacet
 facet normal  0.000000e+00  0.000000e+00 -1.000000e+00
   outer loop
     vertex  5.151514e+00  1.755129e+02 -2.312670e+02
     vertex  3.038981e+00  1.779110e+02 -2.312670e+02
     vertex  3.412719e+00  1.781778e+02 -2.312670e+02
   endloop
 endfacet
 facet normal  0.000000e+00  0.000000e+00 -1.000000e+00
   outer loop
     vertex  6.837051e+00  1.771321e+02 -2.312670e+02
     vertex  4.384662e+00  1.791498e+02 -2.312670e+02
     vertex  7.185888e+00  1.776029e+02 -2.312670e+02
   endloop
 endfacet
 facet normal  0.000000e+00  0.000000e+00 -1.000000e+00
   outer loop
     vertex  6.837051e+00  1.771321e+02 -2.312670e+02
     vertex  4.087866e+00  1.787994e+02 -2.312670e+02
     vertex  4.384662e+00  1.791498e+02 -2.312670e+02
   endloop
 endfacet
 facet normal -0.000000e+00  0.000000e+00 -1.000000e+00
   outer loop
     vertex  5.612749e+00  1.758743e+02 -2.312670e+02
     vertex  5.151514e+00  1.755129e+02 -2.312670e+02
     vertex  3.412719e+00  1.781778e+02 -2.312670e+02
   endloop
 endfacet
 facet normal  0.000000e+00  0.000000e+00 -1.000000e+00
   outer loop
     vertex  5.612749e+00  1.758743e+02 -2.312670e+02
     vertex  3.412719e+00  1.781778e+02 -2.312670e+02
     vertex  3.763146e+00  1.784746e+02 -2.312670e+02
   endloop
 endfacet
 facet normal  0.000000e+00  0.000000e+00 -1.000000e+00
   outer loop
     vertex  6.457420e+00  1.766857e+02 -2.312670e+02
     vertex  4.087866e+00  1.787994e+02 -2.312670e+02
     vertex  6.837051e+00  1.771321e+02 -2.312670e+02
   endloop
 endfacet
 facet normal -0.000000e+00  0.000000e+00 -1.000000e+00
   outer loop
     vertex  6.048706e+00  1.762658e+02 -2.312670e+02
     vertex  5.612749e+00  1.758743e+02 -2.312670e+02
     vertex  3.763146e+00  1.784746e+02 -2.312670e+02
   endloop
 endfacet
 facet normal  0.000000e+00  0.000000e+00 -1.000000e+00
   outer loop
     vertex  6.048706e+00  1.762658e+02 -2.312670e+02
     vertex  4.087866e+00  1.787994e+02 -2.312670e+02
     vertex  6.457420e+00  1.766857e+02 -2.312670e+02
   endloop
 endfacet
 facet normal  0.000000e+00  0.000000e+00 -1.000000e+00
   outer loop
     vertex  6.048706e+00  1.762658e+02 -2.312670e+02
     vertex  3.763146e+00  1.784746e+02 -2.312670e+02
     vertex  4.087866e+00  1.787994e+02 -2.312670e+02
   endloop
 endfacet
endsolid
