solid 
 facet normal -9.485611e-01  3.165942e-01  0.000000e+00
   outer loop
     vertex  1.207210e+02 -1.266064e+02  2.992033e-15
     vertex  1.209065e+02 -1.260506e+02  2.385245e-15
     vertex  1.209065e+02 -1.260506e+02 -3.571240e+00
   endloop
 endfacet
 facet normal -9.485611e-01  3.165942e-01  0.000000e+00
   outer loop
     vertex  1.207210e+02 -1.266064e+02  2.992033e-15
     vertex  1.209065e+02 -1.260506e+02 -3.571240e+00
     vertex  1.207210e+02 -1.266064e+02 -3.571240e+00
   endloop
 endfacet
 facet normal -9.824005e-01  1.867866e-01  0.000000e+00
   outer loop
     vertex  1.205732e+02 -1.271734e+02  3.002508e-15
     vertex  1.205732e+02 -1.271734e+02 -3.571240e+00
     vertex  1.204637e+02 -1.277490e+02 -3.571240e+00
   endloop
 endfacet
 facet normal -9.676599e-01  2.522585e-01  0.000000e+00
   outer loop
     vertex  1.205732e+02 -1.271734e+02  3.002508e-15
     vertex  1.207210e+02 -1.266064e+02 -3.571240e+00
     vertex  1.205732e+02 -1.271734e+02 -3.571240e+00
   endloop
 endfacet
 facet normal -9.676599e-01  2.522585e-01  0.000000e+00
   outer loop
     vertex  1.205732e+02 -1.271734e+02  3.002508e-15
     vertex  1.207210e+02 -1.266064e+02  2.992033e-15
     vertex  1.207210e+02 -1.266064e+02 -3.571240e+00
   endloop
 endfacet
 facet normal -9.824005e-01  1.867866e-01  0.000000e+00
   outer loop
     vertex  1.204637e+02 -1.277490e+02  3.012156e-15
     vertex  1.205732e+02 -1.271734e+02  3.002508e-15
     vertex  1.204637e+02 -1.277490e+02 -3.571240e+00
   endloop
 endfacet
 facet normal -9.985615e-01  5.361777e-02  0.000000e+00
   outer loop
     vertex  1.203931e+02 -1.283307e+02  3.020934e-15
     vertex  1.203931e+02 -1.283307e+02 -3.571240e+00
     vertex  1.203617e+02 -1.289159e+02 -3.571240e+00
   endloop
 endfacet
 facet normal -9.927165e-01  1.204735e-01  0.000000e+00
   outer loop
     vertex  1.203931e+02 -1.283307e+02  3.020934e-15
     vertex  1.204637e+02 -1.277490e+02 -3.571240e+00
     vertex  1.203931e+02 -1.283307e+02 -3.571240e+00
   endloop
 endfacet
 facet normal -9.927165e-01  1.204735e-01  0.000000e+00
   outer loop
     vertex  1.203931e+02 -1.283307e+02  3.020934e-15
     vertex  1.204637e+02 -1.277490e+02  3.012156e-15
     vertex  1.204637e+02 -1.277490e+02 -3.571240e+00
   endloop
 endfacet
 facet normal -9.985615e-01  5.361777e-02  0.000000e+00
   outer loop
     vertex  1.203617e+02 -1.289159e+02  3.028802e-15
     vertex  1.203931e+02 -1.283307e+02  3.020934e-15
     vertex  1.203617e+02 -1.289159e+02 -3.571240e+00
   endloop
 endfacet
 facet normal -9.999091e-01 -1.347943e-02 -0.000000e+00
   outer loop
     vertex  1.203696e+02 -1.295018e+02  3.035725e-15
     vertex  1.203617e+02 -1.289159e+02 -3.571240e+00
     vertex  1.203696e+02 -1.295018e+02 -3.571240e+00
   endloop
 endfacet
 facet normal -9.999091e-01 -1.347943e-02  0.000000e+00
   outer loop
     vertex  1.203696e+02 -1.295018e+02  3.035725e-15
     vertex  1.203617e+02 -1.289159e+02  3.028802e-15
     vertex  1.203617e+02 -1.289159e+02 -3.571240e+00
   endloop
 endfacet
 facet normal -9.967533e-01 -8.051592e-02  0.000000e+00
   outer loop
     vertex  1.204168e+02 -1.300858e+02  3.041671e-15
     vertex  1.203696e+02 -1.295018e+02  3.035725e-15
     vertex  1.203696e+02 -1.295018e+02 -3.571240e+00
   endloop
 endfacet
 facet normal -9.891083e-01 -1.471898e-01 -0.000000e+00
   outer loop
     vertex  1.204168e+02 -1.300858e+02  3.041671e-15
     vertex  1.204168e+02 -1.300858e+02 -3.571240e+00
     vertex  1.205030e+02 -1.306654e+02 -3.571240e+00
   endloop
 endfacet
 facet normal -9.967533e-01 -8.051592e-02 -0.000000e+00
   outer loop
     vertex  1.204168e+02 -1.300858e+02  3.041671e-15
     vertex  1.203696e+02 -1.295018e+02 -3.571240e+00
     vertex  1.204168e+02 -1.300858e+02 -3.571240e+00
   endloop
 endfacet
 facet normal -9.891083e-01 -1.471898e-01 -0.000000e+00
   outer loop
     vertex  1.205030e+02 -1.306654e+02  3.046615e-15
     vertex  1.204168e+02 -1.300858e+02  3.041671e-15
     vertex  1.205030e+02 -1.306654e+02 -3.571240e+00
   endloop
 endfacet
 facet normal -9.770084e-01 -2.132007e-01  0.000000e+00
   outer loop
     vertex  1.206279e+02 -1.312379e+02  3.050532e-15
     vertex  1.205030e+02 -1.306654e+02  3.046615e-15
     vertex  1.205030e+02 -1.306654e+02 -3.571240e+00
   endloop
 endfacet
 facet normal -9.770084e-01 -2.132007e-01 -0.000000e+00
   outer loop
     vertex  1.206279e+02 -1.312379e+02  3.050532e-15
     vertex  1.205030e+02 -1.306654e+02 -3.571240e+00
     vertex  1.206279e+02 -1.312379e+02 -3.571240e+00
   endloop
 endfacet
 facet normal -9.605083e-01 -2.782514e-01  0.000000e+00
   outer loop
     vertex  1.207910e+02 -1.318007e+02  3.053407e-15
     vertex  1.206279e+02 -1.312379e+02  3.050532e-15
     vertex  1.206279e+02 -1.312379e+02 -3.571240e+00
   endloop
 endfacet
 facet normal -9.396821e-01 -3.420489e-01 -0.000000e+00
   outer loop
     vertex  1.207910e+02 -1.318007e+02  3.053407e-15
     vertex  1.207910e+02 -1.318007e+02 -3.571240e+00
     vertex  1.209914e+02 -1.323513e+02 -3.571240e+00
   endloop
 endfacet
 facet normal -9.605083e-01 -2.782514e-01 -0.000000e+00
   outer loop
     vertex  1.207910e+02 -1.318007e+02  3.053407e-15
     vertex  1.206279e+02 -1.312379e+02 -3.571240e+00
     vertex  1.207910e+02 -1.318007e+02 -3.571240e+00
   endloop
 endfacet
 facet normal -9.396821e-01 -3.420489e-01 -0.000000e+00
   outer loop
     vertex  1.209914e+02 -1.323513e+02  3.055226e-15
     vertex  1.207910e+02 -1.318007e+02  3.053407e-15
     vertex  1.209914e+02 -1.323513e+02 -3.571240e+00
   endloop
 endfacet
 facet normal -9.146238e-01 -4.043059e-01  0.000000e+00
   outer loop
     vertex  1.212283e+02 -1.328873e+02  3.055980e-15
     vertex  1.209914e+02 -1.323513e+02  3.055226e-15
     vertex  1.209914e+02 -1.323513e+02 -3.571240e+00
   endloop
 endfacet
 facet normal -8.854462e-01 -4.647420e-01 -0.000000e+00
   outer loop
     vertex  1.212283e+02 -1.328873e+02  3.055980e-15
     vertex  1.212283e+02 -1.328873e+02 -3.571240e+00
     vertex  1.215006e+02 -1.334061e+02 -3.571240e+00
   endloop
 endfacet
 facet normal -9.146238e-01 -4.043059e-01 -0.000000e+00
   outer loop
     vertex  1.212283e+02 -1.328873e+02  3.055980e-15
     vertex  1.209914e+02 -1.323513e+02 -3.571240e+00
     vertex  1.212283e+02 -1.328873e+02 -3.571240e+00
   endloop
 endfacet
 facet normal -8.854462e-01 -4.647420e-01 -0.000000e+00
   outer loop
     vertex  1.215006e+02 -1.334061e+02  3.055667e-15
     vertex  1.212283e+02 -1.328873e+02  3.055980e-15
     vertex  1.215006e+02 -1.334061e+02 -3.571240e+00
   endloop
 endfacet
 facet normal -8.522806e-01 -5.230849e-01  0.000000e+00
   outer loop
     vertex  1.218072e+02 -1.339055e+02  3.054287e-15
     vertex  1.215006e+02 -1.334061e+02  3.055667e-15
     vertex  1.215006e+02 -1.334061e+02 -3.571240e+00
   endloop
 endfacet
 facet normal -8.522806e-01 -5.230849e-01 -0.000000e+00
   outer loop
     vertex  1.218072e+02 -1.339055e+02  3.054287e-15
     vertex  1.215006e+02 -1.334061e+02 -3.571240e+00
     vertex  1.218072e+02 -1.339055e+02 -3.571240e+00
   endloop
 endfacet
 facet normal -8.152765e-01 -5.790719e-01  0.000000e+00
   outer loop
     vertex  1.221465e+02 -1.343832e+02  3.051847e-15
     vertex  1.218072e+02 -1.339055e+02  3.054287e-15
     vertex  1.218072e+02 -1.339055e+02 -3.571240e+00
   endloop
 endfacet
 facet normal -8.152765e-01 -5.790719e-01 -0.000000e+00
   outer loop
     vertex  1.221465e+02 -1.343832e+02  3.051847e-15
     vertex  1.218072e+02 -1.339055e+02 -3.571240e+00
     vertex  1.221465e+02 -1.343832e+02 -3.571240e+00
   endloop
 endfacet
 facet normal -7.746005e-01 -6.324509e-01  0.000000e+00
   outer loop
     vertex  1.225171e+02 -1.348371e+02  3.048359e-15
     vertex  1.221465e+02 -1.343832e+02  3.051847e-15
     vertex  1.221465e+02 -1.343832e+02 -3.571240e+00
   endloop
 endfacet
 facet normal -7.746005e-01 -6.324509e-01 -0.000000e+00
   outer loop
     vertex  1.225171e+02 -1.348371e+02  3.048359e-15
     vertex  1.221465e+02 -1.343832e+02 -3.571240e+00
     vertex  1.225171e+02 -1.348371e+02 -3.571240e+00
   endloop
 endfacet
 facet normal -7.304358e-01 -6.829814e-01  0.000000e+00
   outer loop
     vertex  1.229173e+02 -1.352651e+02  3.043837e-15
     vertex  1.225171e+02 -1.348371e+02  3.048359e-15
     vertex  1.225171e+02 -1.348371e+02 -3.571240e+00
   endloop
 endfacet
 facet normal -7.304358e-01 -6.829814e-01 -0.000000e+00
   outer loop
     vertex  1.229173e+02 -1.352651e+02  3.043837e-15
     vertex  1.225171e+02 -1.348371e+02 -3.571240e+00
     vertex  1.229173e+02 -1.352651e+02 -3.571240e+00
   endloop
 endfacet
 facet normal -6.829814e-01 -7.304358e-01  0.000000e+00
   outer loop
     vertex  1.233453e+02 -1.356653e+02  3.038302e-15
     vertex  1.229173e+02 -1.352651e+02  3.043837e-15
     vertex  1.229173e+02 -1.352651e+02 -3.571240e+00
   endloop
 endfacet
 facet normal -6.829814e-01 -7.304358e-01 -0.000000e+00
   outer loop
     vertex  1.233453e+02 -1.356653e+02  3.038302e-15
     vertex  1.229173e+02 -1.352651e+02 -3.571240e+00
     vertex  1.233453e+02 -1.356653e+02 -3.571240e+00
   endloop
 endfacet
 facet normal -5.790719e-01 -8.152765e-01 -0.000000e+00
   outer loop
     vertex  1.237991e+02 -1.360359e+02  3.031779e-15
     vertex  1.237991e+02 -1.360359e+02 -3.571240e+00
     vertex  1.242769e+02 -1.363752e+02 -3.571240e+00
   endloop
 endfacet
 facet normal -6.324509e-01 -7.746005e-01 -0.000000e+00
   outer loop
     vertex  1.237991e+02 -1.360359e+02  3.031779e-15
     vertex  1.233453e+02 -1.356653e+02 -3.571240e+00
     vertex  1.237991e+02 -1.360359e+02 -3.571240e+00
   endloop
 endfacet
 facet normal -6.324509e-01 -7.746005e-01  0.000000e+00
   outer loop
     vertex  1.237991e+02 -1.360359e+02  3.031779e-15
     vertex  1.233453e+02 -1.356653e+02  3.038302e-15
     vertex  1.233453e+02 -1.356653e+02 -3.571240e+00
   endloop
 endfacet
 facet normal -5.790719e-01 -8.152765e-01 -0.000000e+00
   outer loop
     vertex  1.242769e+02 -1.363752e+02  3.024297e-15
     vertex  1.237991e+02 -1.360359e+02  3.031779e-15
     vertex  1.242769e+02 -1.363752e+02 -3.571240e+00
   endloop
 endfacet
 facet normal -5.230849e-01 -8.522806e-01 -0.000000e+00
   outer loop
     vertex  1.242769e+02 -1.363752e+02  3.024297e-15
     vertex  1.242769e+02 -1.363752e+02 -3.571240e+00
     vertex  1.247763e+02 -1.366817e+02 -3.571240e+00
   endloop
 endfacet
 facet normal -5.230849e-01 -8.522806e-01 -0.000000e+00
   outer loop
     vertex  1.247763e+02 -1.366817e+02  3.015891e-15
     vertex  1.242769e+02 -1.363752e+02  3.024297e-15
     vertex  1.247763e+02 -1.366817e+02 -3.571240e+00
   endloop
 endfacet
 facet normal -4.043059e-01 -9.146238e-01 -0.000000e+00
   outer loop
     vertex  1.252951e+02 -1.369540e+02  3.006597e-15
     vertex  1.252951e+02 -1.369540e+02 -3.571240e+00
     vertex  1.258310e+02 -1.371909e+02 -3.571240e+00
   endloop
 endfacet
 facet normal -4.647420e-01 -8.854462e-01 -0.000000e+00
   outer loop
     vertex  1.252951e+02 -1.369540e+02  3.006597e-15
     vertex  1.247763e+02 -1.366817e+02 -3.571240e+00
     vertex  1.252951e+02 -1.369540e+02 -3.571240e+00
   endloop
 endfacet
 facet normal -4.647420e-01 -8.854462e-01  0.000000e+00
   outer loop
     vertex  1.252951e+02 -1.369540e+02  3.006597e-15
     vertex  1.247763e+02 -1.366817e+02  3.015891e-15
     vertex  1.247763e+02 -1.366817e+02 -3.571240e+00
   endloop
 endfacet
 facet normal -4.043059e-01 -9.146238e-01 -0.000000e+00
   outer loop
     vertex  1.258310e+02 -1.371909e+02  2.996458e-15
     vertex  1.252951e+02 -1.369540e+02  3.006597e-15
     vertex  1.258310e+02 -1.371909e+02 -3.571240e+00
   endloop
 endfacet
 facet normal -3.420489e-01 -9.396821e-01 -0.000000e+00
   outer loop
     vertex  1.263817e+02 -1.373914e+02  2.985519e-15
     vertex  1.258310e+02 -1.371909e+02 -3.571240e+00
     vertex  1.263817e+02 -1.373914e+02 -3.571240e+00
   endloop
 endfacet
 facet normal -3.420489e-01 -9.396821e-01  0.000000e+00
   outer loop
     vertex  1.263817e+02 -1.373914e+02  2.985519e-15
     vertex  1.258310e+02 -1.371909e+02  2.996458e-15
     vertex  1.258310e+02 -1.371909e+02 -3.571240e+00
   endloop
 endfacet
 facet normal -2.132007e-01 -9.770084e-01 -0.000000e+00
   outer loop
     vertex  1.269445e+02 -1.375544e+02  2.973830e-15
     vertex  1.269445e+02 -1.375544e+02 -3.571240e+00
     vertex  1.275170e+02 -1.376793e+02 -3.571240e+00
   endloop
 endfacet
 facet normal -2.782514e-01 -9.605083e-01 -0.000000e+00
   outer loop
     vertex  1.269445e+02 -1.375544e+02  2.973830e-15
     vertex  1.263817e+02 -1.373914e+02 -3.571240e+00
     vertex  1.269445e+02 -1.375544e+02 -3.571240e+00
   endloop
 endfacet
 facet normal -2.782514e-01 -9.605083e-01  0.000000e+00
   outer loop
     vertex  1.269445e+02 -1.375544e+02  2.973830e-15
     vertex  1.263817e+02 -1.373914e+02  2.985519e-15
     vertex  1.263817e+02 -1.373914e+02 -3.571240e+00
   endloop
 endfacet
 facet normal -2.132007e-01 -9.770084e-01 -0.000000e+00
   outer loop
     vertex  1.275170e+02 -1.376793e+02  2.961444e-15
     vertex  1.269445e+02 -1.375544e+02  2.973830e-15
     vertex  1.275170e+02 -1.376793e+02 -3.571240e+00
   endloop
 endfacet
 facet normal -8.051592e-02 -9.967533e-01 -0.000000e+00
   outer loop
     vertex  1.280965e+02 -1.377656e+02  2.948415e-15
     vertex  1.280965e+02 -1.377656e+02 -3.571240e+00
     vertex  1.286806e+02 -1.378128e+02 -3.571240e+00
   endloop
 endfacet
 facet normal -1.471898e-01 -9.891083e-01 -0.000000e+00
   outer loop
     vertex  1.280965e+02 -1.377656e+02  2.948415e-15
     vertex  1.275170e+02 -1.376793e+02 -3.571240e+00
     vertex  1.280965e+02 -1.377656e+02 -3.571240e+00
   endloop
 endfacet
 facet normal -1.471898e-01 -9.891083e-01  0.000000e+00
   outer loop
     vertex  1.280965e+02 -1.377656e+02  2.948415e-15
     vertex  1.275170e+02 -1.376793e+02  2.961444e-15
     vertex  1.275170e+02 -1.376793e+02 -3.571240e+00
   endloop
 endfacet
 facet normal -8.051592e-02 -9.967533e-01 -0.000000e+00
   outer loop
     vertex  1.286806e+02 -1.378128e+02  2.934804e-15
     vertex  1.280965e+02 -1.377656e+02  2.948415e-15
     vertex  1.286806e+02 -1.378128e+02 -3.571240e+00
   endloop
 endfacet
 facet normal -1.347943e-02 -9.999091e-01 -0.000000e+00
   outer loop
     vertex  1.292665e+02 -1.378207e+02  2.920670e-15
     vertex  1.286806e+02 -1.378128e+02 -3.571240e+00
     vertex  1.292665e+02 -1.378207e+02 -3.571240e+00
   endloop
 endfacet
 facet normal -1.347943e-02 -9.999091e-01  0.000000e+00
   outer loop
     vertex  1.292665e+02 -1.378207e+02  2.920670e-15
     vertex  1.286806e+02 -1.378128e+02  2.934804e-15
     vertex  1.286806e+02 -1.378128e+02 -3.571240e+00
   endloop
 endfacet
 facet normal  1.204735e-01 -9.927165e-01  0.000000e+00
   outer loop
     vertex  1.298516e+02 -1.377893e+02  2.906079e-15
     vertex  1.298516e+02 -1.377893e+02 -3.571240e+00
     vertex  1.304333e+02 -1.377187e+02 -3.571240e+00
   endloop
 endfacet
 facet normal  5.361777e-02 -9.985615e-01  0.000000e+00
   outer loop
     vertex  1.298516e+02 -1.377893e+02  2.906079e-15
     vertex  1.292665e+02 -1.378207e+02 -3.571240e+00
     vertex  1.298516e+02 -1.377893e+02 -3.571240e+00
   endloop
 endfacet
 facet normal  5.361777e-02 -9.985615e-01  0.000000e+00
   outer loop
     vertex  1.298516e+02 -1.377893e+02  2.906079e-15
     vertex  1.292665e+02 -1.378207e+02  2.920670e-15
     vertex  1.292665e+02 -1.378207e+02 -3.571240e+00
   endloop
 endfacet
 facet normal  1.204735e-01 -9.927165e-01  0.000000e+00
   outer loop
     vertex  1.304333e+02 -1.377187e+02  2.891094e-15
     vertex  1.298516e+02 -1.377893e+02  2.906079e-15
     vertex  1.304333e+02 -1.377187e+02 -3.571240e+00
   endloop
 endfacet
 facet normal  1.867866e-01 -9.824005e-01  0.000000e+00
   outer loop
     vertex  1.310090e+02 -1.376092e+02  2.875785e-15
     vertex  1.304333e+02 -1.377187e+02  2.891094e-15
     vertex  1.304333e+02 -1.377187e+02 -3.571240e+00
   endloop
 endfacet
 facet normal  1.867866e-01 -9.824005e-01  0.000000e+00
   outer loop
     vertex  1.310090e+02 -1.376092e+02  2.875785e-15
     vertex  1.304333e+02 -1.377187e+02 -3.571240e+00
     vertex  1.310090e+02 -1.376092e+02 -3.571240e+00
   endloop
 endfacet
 facet normal  2.522585e-01 -9.676599e-01  0.000000e+00
   outer loop
     vertex  1.315760e+02 -1.374614e+02  2.860220e-15
     vertex  1.310090e+02 -1.376092e+02  2.875785e-15
     vertex  1.310090e+02 -1.376092e+02 -3.571240e+00
   endloop
 endfacet
 facet normal  2.522585e-01 -9.676599e-01  0.000000e+00
   outer loop
     vertex  1.315760e+02 -1.374614e+02  2.860220e-15
     vertex  1.310090e+02 -1.376092e+02 -3.571240e+00
     vertex  1.315760e+02 -1.374614e+02 -3.571240e+00
   endloop
 endfacet
 facet normal  3.165942e-01 -9.485611e-01  0.000000e+00
   outer loop
     vertex  1.321318e+02 -1.372759e+02  2.602085e-15
     vertex  1.315760e+02 -1.374614e+02  2.860220e-15
     vertex  1.315760e+02 -1.374614e+02 -3.571240e+00
   endloop
 endfacet
 facet normal  3.165942e-01 -9.485611e-01  0.000000e+00
   outer loop
     vertex  1.321318e+02 -1.372759e+02  2.602085e-15
     vertex  1.315760e+02 -1.374614e+02 -3.571240e+00
     vertex  1.321318e+02 -1.372759e+02 -3.571240e+00
   endloop
 endfacet
endsolid
