solid 
 facet normal  1.000000e+00  0.000000e+00  0.000000e+00
   outer loop
     vertex -1.746250e+02  3.637419e+00 -2.276958e+02
     vertex -1.746250e+02 -1.474992e+01 -2.312670e+02
     vertex -1.746250e+02  3.637419e+00 -2.312670e+02
   endloop
 endfacet
 facet normal  1.000000e+00  0.000000e+00  0.000000e+00
   outer loop
     vertex -1.746250e+02  3.637419e+00 -2.276958e+02
     vertex -1.746250e+02 -1.474992e+01 -2.276958e+02
     vertex -1.746250e+02 -1.474992e+01 -2.312670e+02
   endloop
 endfacet
endsolid
