solid 
 facet normal  4.486483e-02  9.989931e-01  7.453851e-16
   outer loop
     vertex -1.829894e+02 -4.743328e+00 -2.336482e+02
     vertex -1.825625e+02 -4.762500e+00 -2.276958e+02
     vertex -1.825625e+02 -4.762500e+00 -2.336482e+02
   endloop
 endfacet
 facet normal  4.486483e-02  9.989931e-01  7.453050e-16
   outer loop
     vertex -1.829894e+02 -4.743328e+00 -2.336482e+02
     vertex -1.829894e+02 -4.743328e+00 -2.276958e+02
     vertex -1.825625e+02 -4.762500e+00 -2.276958e+02
   endloop
 endfacet
 facet normal  1.342333e-01  9.909498e-01  7.393042e-16
   outer loop
     vertex -1.834129e+02 -4.685965e+00 -2.336482e+02
     vertex -1.834129e+02 -4.685965e+00 -2.276958e+02
     vertex -1.829894e+02 -4.743328e+00 -2.276958e+02
   endloop
 endfacet
 facet normal  2.225209e-01  9.749279e-01  7.273510e-16
   outer loop
     vertex -1.834129e+02 -4.685965e+00 -2.336482e+02
     vertex -1.838295e+02 -4.590873e+00 -2.276958e+02
     vertex -1.834129e+02 -4.685965e+00 -2.276958e+02
   endloop
 endfacet
 facet normal  1.342333e-01  9.909498e-01  7.406114e-16
   outer loop
     vertex -1.834129e+02 -4.685965e+00 -2.336482e+02
     vertex -1.829894e+02 -4.743328e+00 -2.276958e+02
     vertex -1.829894e+02 -4.743328e+00 -2.336482e+02
   endloop
 endfacet
 facet normal  2.225209e-01  9.749279e-01  8.728212e-16
   outer loop
     vertex -1.838295e+02 -4.590873e+00 -2.336482e+02
     vertex -1.838295e+02 -4.590873e+00 -2.276958e+02
     vertex -1.834129e+02 -4.685965e+00 -2.336482e+02
   endloop
 endfacet
 facet normal  3.090170e-01  9.510565e-01  7.095416e-16
   outer loop
     vertex -1.842359e+02 -4.458819e+00 -2.336482e+02
     vertex -1.842359e+02 -4.458819e+00 -2.276958e+02
     vertex -1.838295e+02 -4.590873e+00 -2.276958e+02
   endloop
 endfacet
 facet normal  3.090170e-01  9.510565e-01  8.510893e-16
   outer loop
     vertex -1.842359e+02 -4.458819e+00 -2.336482e+02
     vertex -1.838295e+02 -4.590873e+00 -2.276958e+02
     vertex -1.838295e+02 -4.590873e+00 -2.336482e+02
   endloop
 endfacet
 facet normal  3.930250e-01  9.195278e-01  8.232233e-16
   outer loop
     vertex -1.846289e+02 -4.290864e+00 -2.336482e+02
     vertex -1.846289e+02 -4.290864e+00 -2.276958e+02
     vertex -1.842359e+02 -4.458819e+00 -2.276958e+02
   endloop
 endfacet
 facet normal  4.738687e-01  8.805955e-01  7.883685e-16
   outer loop
     vertex -1.846289e+02 -4.290864e+00 -2.336482e+02
     vertex -1.850052e+02 -4.088362e+00 -2.276958e+02
     vertex -1.846289e+02 -4.290864e+00 -2.276958e+02
   endloop
 endfacet
 facet normal  3.930250e-01  9.195278e-01  6.874183e-16
   outer loop
     vertex -1.846289e+02 -4.290864e+00 -2.336482e+02
     vertex -1.842359e+02 -4.458819e+00 -2.276958e+02
     vertex -1.842359e+02 -4.458819e+00 -2.336482e+02
   endloop
 endfacet
 facet normal  4.738687e-01  8.805955e-01  7.883685e-16
   outer loop
     vertex -1.850052e+02 -4.088362e+00 -2.336482e+02
     vertex -1.850052e+02 -4.088362e+00 -2.276958e+02
     vertex -1.846289e+02 -4.290864e+00 -2.336482e+02
   endloop
 endfacet
 facet normal  5.508970e-01  8.345733e-01  6.849024e-16
   outer loop
     vertex -1.853618e+02 -3.852943e+00 -2.336482e+02
     vertex -1.853618e+02 -3.852943e+00 -2.276958e+02
     vertex -1.850052e+02 -4.088362e+00 -2.276958e+02
   endloop
 endfacet
 facet normal  6.234898e-01  7.818315e-01  6.416193e-16
   outer loop
     vertex -1.853618e+02 -3.852943e+00 -2.336482e+02
     vertex -1.856959e+02 -3.586503e+00 -2.276958e+02
     vertex -1.853618e+02 -3.852943e+00 -2.276958e+02
   endloop
 endfacet
 facet normal  5.508970e-01  8.345733e-01  7.474310e-16
   outer loop
     vertex -1.853618e+02 -3.852943e+00 -2.336482e+02
     vertex -1.850052e+02 -4.088362e+00 -2.276958e+02
     vertex -1.850052e+02 -4.088362e+00 -2.336482e+02
   endloop
 endfacet
 facet normal  6.234898e-01  7.818315e-01  6.416193e-16
   outer loop
     vertex -1.856959e+02 -3.586503e+00 -2.336482e+02
     vertex -1.856959e+02 -3.586503e+00 -2.276958e+02
     vertex -1.853618e+02 -3.852943e+00 -2.336482e+02
   endloop
 endfacet
 facet normal  6.910626e-01  7.227949e-01  5.946714e-16
   outer loop
     vertex -1.860048e+02 -3.291186e+00 -2.336482e+02
     vertex -1.856959e+02 -3.586503e+00 -2.276958e+02
     vertex -1.856959e+02 -3.586503e+00 -2.336482e+02
   endloop
 endfacet
 facet normal  6.910626e-01  7.227949e-01  5.392456e-16
   outer loop
     vertex -1.860048e+02 -3.291186e+00 -2.336482e+02
     vertex -1.860048e+02 -3.291186e+00 -2.276958e+02
     vertex -1.856959e+02 -3.586503e+00 -2.276958e+02
   endloop
 endfacet
 facet normal  7.530715e-01  6.579387e-01  4.910131e-16
   outer loop
     vertex -1.862860e+02 -2.969370e+00 -2.336482e+02
     vertex -1.860048e+02 -3.291186e+00 -2.276958e+02
     vertex -1.860048e+02 -3.291186e+00 -2.336482e+02
   endloop
 endfacet
 facet normal  7.530715e-01  6.579387e-01  5.399452e-16
   outer loop
     vertex -1.862860e+02 -2.969370e+00 -2.336482e+02
     vertex -1.862860e+02 -2.969370e+00 -2.276958e+02
     vertex -1.860048e+02 -3.291186e+00 -2.276958e+02
   endloop
 endfacet
 facet normal  8.090170e-01  5.877853e-01  4.801017e-16
   outer loop
     vertex -1.865372e+02 -2.623647e+00 -2.336482e+02
     vertex -1.862860e+02 -2.969370e+00 -2.276958e+02
     vertex -1.862860e+02 -2.969370e+00 -2.336482e+02
   endloop
 endfacet
 facet normal  8.090170e-01  5.877853e-01  4.823729e-16
   outer loop
     vertex -1.865372e+02 -2.623647e+00 -2.336482e+02
     vertex -1.865372e+02 -2.623647e+00 -2.276958e+02
     vertex -1.862860e+02 -2.969370e+00 -2.276958e+02
   endloop
 endfacet
 facet normal  8.584488e-01  5.128993e-01  4.209169e-16
   outer loop
     vertex -1.865372e+02 -2.623647e+00 -2.336482e+02
     vertex -1.867563e+02 -2.256800e+00 -2.276958e+02
     vertex -1.865372e+02 -2.623647e+00 -2.276958e+02
   endloop
 endfacet
 facet normal  8.584488e-01  5.128993e-01  4.209169e-16
   outer loop
     vertex -1.867563e+02 -2.256800e+00 -2.336482e+02
     vertex -1.867563e+02 -2.256800e+00 -2.276958e+02
     vertex -1.865372e+02 -2.623647e+00 -2.336482e+02
   endloop
 endfacet
 facet normal  9.009689e-01  4.338837e-01  3.546206e-16
   outer loop
     vertex -1.869418e+02 -1.871782e+00 -2.336482e+02
     vertex -1.867563e+02 -2.256800e+00 -2.276958e+02
     vertex -1.867563e+02 -2.256800e+00 -2.336482e+02
   endloop
 endfacet
 facet normal  9.009689e-01  4.338837e-01  4.046271e-16
   outer loop
     vertex -1.869418e+02 -1.871782e+00 -2.336482e+02
     vertex -1.869418e+02 -1.871782e+00 -2.276958e+02
     vertex -1.867563e+02 -2.256800e+00 -2.276958e+02
   endloop
 endfacet
 facet normal  9.362349e-01  3.513748e-01  3.273421e-16
   outer loop
     vertex -1.870919e+02 -1.471693e+00 -2.336482e+02
     vertex -1.869418e+02 -1.871782e+00 -2.276958e+02
     vertex -1.869418e+02 -1.871782e+00 -2.336482e+02
   endloop
 endfacet
 facet normal  9.362349e-01  3.513748e-01  3.276817e-16
   outer loop
     vertex -1.870919e+02 -1.471693e+00 -2.336482e+02
     vertex -1.870919e+02 -1.471693e+00 -2.276958e+02
     vertex -1.869418e+02 -1.871782e+00 -2.276958e+02
   endloop
 endfacet
 facet normal  9.639629e-01  2.660368e-01  2.482344e-16
   outer loop
     vertex -1.872056e+02 -1.059756e+00 -2.336482e+02
     vertex -1.870919e+02 -1.471693e+00 -2.276958e+02
     vertex -1.870919e+02 -1.471693e+00 -2.336482e+02
   endloop
 endfacet
 facet normal  9.639629e-01  2.660368e-01  2.480980e-16
   outer loop
     vertex -1.872056e+02 -1.059756e+00 -2.336482e+02
     vertex -1.872056e+02 -1.059756e+00 -2.276958e+02
     vertex -1.870919e+02 -1.471693e+00 -2.276958e+02
   endloop
 endfacet
 facet normal  9.839296e-01  1.785569e-01  1.663989e-16
   outer loop
     vertex -1.872819e+02 -6.392859e-01 -2.336482e+02
     vertex -1.872056e+02 -1.059756e+00 -2.276958e+02
     vertex -1.872056e+02 -1.059756e+00 -2.336482e+02
   endloop
 endfacet
 facet normal  9.839296e-01  1.785569e-01  1.665168e-16
   outer loop
     vertex -1.872819e+02 -6.392859e-01 -2.336482e+02
     vertex -1.872819e+02 -6.392859e-01 -2.276958e+02
     vertex -1.872056e+02 -1.059756e+00 -2.276958e+02
   endloop
 endfacet
 facet normal  9.959743e-01  8.963931e-02  8.359495e-17
   outer loop
     vertex -1.872819e+02 -6.392859e-01 -2.336482e+02
     vertex -1.873202e+02 -2.136688e-01 -2.276958e+02
     vertex -1.872819e+02 -6.392859e-01 -2.276958e+02
   endloop
 endfacet
 facet normal  9.959743e-01  8.963931e-02  8.234103e-17
   outer loop
     vertex -1.873202e+02 -2.136688e-01 -2.336482e+02
     vertex -1.873202e+02 -2.136688e-01 -2.276958e+02
     vertex -1.872819e+02 -6.392859e-01 -2.336482e+02
   endloop
 endfacet
 facet normal  1.000000e+00  0.000000e+00  0.000000e+00
   outer loop
     vertex -1.873202e+02  2.136688e-01 -2.336482e+02
     vertex -1.873202e+02 -2.136688e-01 -2.276958e+02
     vertex -1.873202e+02 -2.136688e-01 -2.336482e+02
   endloop
 endfacet
 facet normal  1.000000e+00  0.000000e+00  0.000000e+00
   outer loop
     vertex -1.873202e+02  2.136688e-01 -2.336482e+02
     vertex -1.873202e+02  2.136688e-01 -2.276958e+02
     vertex -1.873202e+02 -2.136688e-01 -2.276958e+02
   endloop
 endfacet
 facet normal  9.959743e-01 -8.963931e-02 -8.317698e-17
   outer loop
     vertex -1.873202e+02  2.136688e-01 -2.336482e+02
     vertex -1.872819e+02  6.392859e-01 -2.276958e+02
     vertex -1.873202e+02  2.136688e-01 -2.276958e+02
   endloop
 endfacet
 facet normal  9.959743e-01 -8.963931e-02 -8.359495e-17
   outer loop
     vertex -1.872819e+02  6.392859e-01 -2.336482e+02
     vertex -1.872819e+02  6.392859e-01 -2.276958e+02
     vertex -1.873202e+02  2.136688e-01 -2.336482e+02
   endloop
 endfacet
 facet normal  9.839296e-01 -1.785569e-01 -1.665168e-16
   outer loop
     vertex -1.872819e+02  6.392859e-01 -2.336482e+02
     vertex -1.872056e+02  1.059756e+00 -2.276958e+02
     vertex -1.872819e+02  6.392859e-01 -2.276958e+02
   endloop
 endfacet
 facet normal  9.839296e-01 -1.785569e-01 -1.665168e-16
   outer loop
     vertex -1.872056e+02  1.059756e+00 -2.336482e+02
     vertex -1.872056e+02  1.059756e+00 -2.276958e+02
     vertex -1.872819e+02  6.392859e-01 -2.336482e+02
   endloop
 endfacet
 facet normal  9.639629e-01 -2.660368e-01 -2.381741e-16
   outer loop
     vertex -1.870919e+02  1.471693e+00 -2.336482e+02
     vertex -1.870919e+02  1.471693e+00 -2.276958e+02
     vertex -1.872056e+02  1.059756e+00 -2.276958e+02
   endloop
 endfacet
 facet normal  9.639629e-01 -2.660368e-01 -2.482344e-16
   outer loop
     vertex -1.870919e+02  1.471693e+00 -2.336482e+02
     vertex -1.872056e+02  1.059756e+00 -2.276958e+02
     vertex -1.872056e+02  1.059756e+00 -2.336482e+02
   endloop
 endfacet
 facet normal  9.362349e-01 -3.513748e-01 -3.145744e-16
   outer loop
     vertex -1.869418e+02  1.871782e+00 -2.336482e+02
     vertex -1.869418e+02  1.871782e+00 -2.276958e+02
     vertex -1.870919e+02  1.471693e+00 -2.276958e+02
   endloop
 endfacet
 facet normal  9.362349e-01 -3.513748e-01 -3.137028e-16
   outer loop
     vertex -1.869418e+02  1.871782e+00 -2.336482e+02
     vertex -1.870919e+02  1.471693e+00 -2.276958e+02
     vertex -1.870919e+02  1.471693e+00 -2.336482e+02
   endloop
 endfacet
 facet normal  9.009689e-01 -4.338837e-01 -3.884420e-16
   outer loop
     vertex -1.869418e+02  1.871782e+00 -2.336482e+02
     vertex -1.867563e+02  2.256800e+00 -2.276958e+02
     vertex -1.869418e+02  1.871782e+00 -2.276958e+02
   endloop
 endfacet
 facet normal  9.009689e-01 -4.338837e-01 -3.884420e-16
   outer loop
     vertex -1.867563e+02  2.256800e+00 -2.336482e+02
     vertex -1.867563e+02  2.256800e+00 -2.276958e+02
     vertex -1.869418e+02  1.871782e+00 -2.336482e+02
   endloop
 endfacet
 facet normal  8.584488e-01 -5.128993e-01 -4.209169e-16
   outer loop
     vertex -1.865372e+02  2.623647e+00 -2.336482e+02
     vertex -1.865372e+02  2.623647e+00 -2.276958e+02
     vertex -1.867563e+02  2.256800e+00 -2.276958e+02
   endloop
 endfacet
 facet normal  8.584488e-01 -5.128993e-01 -4.582789e-16
   outer loop
     vertex -1.865372e+02  2.623647e+00 -2.336482e+02
     vertex -1.867563e+02  2.256800e+00 -2.276958e+02
     vertex -1.867563e+02  2.256800e+00 -2.336482e+02
   endloop
 endfacet
 facet normal  8.090170e-01 -5.877853e-01 -5.262250e-16
   outer loop
     vertex -1.862860e+02  2.969370e+00 -2.336482e+02
     vertex -1.862860e+02  2.969370e+00 -2.276958e+02
     vertex -1.865372e+02  2.623647e+00 -2.276958e+02
   endloop
 endfacet
 facet normal  8.090170e-01 -5.877853e-01 -4.801017e-16
   outer loop
     vertex -1.862860e+02  2.969370e+00 -2.336482e+02
     vertex -1.865372e+02  2.623647e+00 -2.276958e+02
     vertex -1.865372e+02  2.623647e+00 -2.336482e+02
   endloop
 endfacet
 facet normal  7.530715e-01 -6.579387e-01 -4.908593e-16
   outer loop
     vertex -1.860048e+02  3.291186e+00 -2.336482e+02
     vertex -1.860048e+02  3.291186e+00 -2.276958e+02
     vertex -1.862860e+02  2.969370e+00 -2.276958e+02
   endloop
 endfacet
 facet normal  6.910626e-01 -7.227949e-01 -5.392456e-16
   outer loop
     vertex -1.860048e+02  3.291186e+00 -2.336482e+02
     vertex -1.856959e+02  3.586503e+00 -2.276958e+02
     vertex -1.860048e+02  3.291186e+00 -2.276958e+02
   endloop
 endfacet
 facet normal  7.530715e-01 -6.579387e-01 -5.892157e-16
   outer loop
     vertex -1.860048e+02  3.291186e+00 -2.336482e+02
     vertex -1.862860e+02  2.969370e+00 -2.276958e+02
     vertex -1.862860e+02  2.969370e+00 -2.336482e+02
   endloop
 endfacet
 facet normal  6.234898e-01 -7.818315e-01 -6.416193e-16
   outer loop
     vertex -1.856959e+02  3.586503e+00 -2.336482e+02
     vertex -1.853618e+02  3.852943e+00 -2.276958e+02
     vertex -1.856959e+02  3.586503e+00 -2.276958e+02
   endloop
 endfacet
 facet normal  6.910626e-01 -7.227949e-01 -5.931702e-16
   outer loop
     vertex -1.856959e+02  3.586503e+00 -2.336482e+02
     vertex -1.856959e+02  3.586503e+00 -2.276958e+02
     vertex -1.860048e+02  3.291186e+00 -2.336482e+02
   endloop
 endfacet
 facet normal  6.234898e-01 -7.818315e-01 -5.832902e-16
   outer loop
     vertex -1.853618e+02  3.852943e+00 -2.336482e+02
     vertex -1.853618e+02  3.852943e+00 -2.276958e+02
     vertex -1.856959e+02  3.586503e+00 -2.336482e+02
   endloop
 endfacet
 facet normal  5.508970e-01 -8.345733e-01 -6.226386e-16
   outer loop
     vertex -1.850052e+02  4.088362e+00 -2.336482e+02
     vertex -1.850052e+02  4.088362e+00 -2.276958e+02
     vertex -1.853618e+02  3.852943e+00 -2.276958e+02
   endloop
 endfacet
 facet normal  4.738687e-01 -8.805955e-01 -6.569738e-16
   outer loop
     vertex -1.850052e+02  4.088362e+00 -2.336482e+02
     vertex -1.846289e+02  4.290864e+00 -2.276958e+02
     vertex -1.850052e+02  4.088362e+00 -2.276958e+02
   endloop
 endfacet
 facet normal  5.508970e-01 -8.345733e-01 -6.219499e-16
   outer loop
     vertex -1.850052e+02  4.088362e+00 -2.336482e+02
     vertex -1.853618e+02  3.852943e+00 -2.276958e+02
     vertex -1.853618e+02  3.852943e+00 -2.336482e+02
   endloop
 endfacet
 facet normal  4.738687e-01 -8.805955e-01 -7.883685e-16
   outer loop
     vertex -1.846289e+02  4.290864e+00 -2.336482e+02
     vertex -1.846289e+02  4.290864e+00 -2.276958e+02
     vertex -1.850052e+02  4.088362e+00 -2.336482e+02
   endloop
 endfacet
 facet normal  3.930250e-01 -9.195278e-01 -6.860194e-16
   outer loop
     vertex -1.842359e+02  4.458819e+00 -2.336482e+02
     vertex -1.842359e+02  4.458819e+00 -2.276958e+02
     vertex -1.846289e+02  4.290864e+00 -2.276958e+02
   endloop
 endfacet
 facet normal  3.090170e-01 -9.510565e-01 -7.095416e-16
   outer loop
     vertex -1.842359e+02  4.458819e+00 -2.336482e+02
     vertex -1.838295e+02  4.590873e+00 -2.276958e+02
     vertex -1.842359e+02  4.458819e+00 -2.276958e+02
   endloop
 endfacet
 facet normal  3.930250e-01 -9.195278e-01 -8.238108e-16
   outer loop
     vertex -1.842359e+02  4.458819e+00 -2.336482e+02
     vertex -1.846289e+02  4.290864e+00 -2.276958e+02
     vertex -1.846289e+02  4.290864e+00 -2.336482e+02
   endloop
 endfacet
 facet normal  3.090170e-01 -9.510565e-01 -7.095416e-16
   outer loop
     vertex -1.838295e+02  4.590873e+00 -2.336482e+02
     vertex -1.838295e+02  4.590873e+00 -2.276958e+02
     vertex -1.842359e+02  4.458819e+00 -2.336482e+02
   endloop
 endfacet
 facet normal  2.225209e-01 -9.749279e-01 -7.283361e-16
   outer loop
     vertex -1.834129e+02  4.685965e+00 -2.336482e+02
     vertex -1.838295e+02  4.590873e+00 -2.276958e+02
     vertex -1.838295e+02  4.590873e+00 -2.336482e+02
   endloop
 endfacet
 facet normal  2.225209e-01 -9.749279e-01 -7.273510e-16
   outer loop
     vertex -1.834129e+02  4.685965e+00 -2.336482e+02
     vertex -1.834129e+02  4.685965e+00 -2.276958e+02
     vertex -1.838295e+02  4.590873e+00 -2.276958e+02
   endloop
 endfacet
 facet normal  1.342333e-01 -9.909498e-01 -7.393042e-16
   outer loop
     vertex -1.834129e+02  4.685965e+00 -2.336482e+02
     vertex -1.829894e+02  4.743328e+00 -2.276958e+02
     vertex -1.834129e+02  4.685965e+00 -2.276958e+02
   endloop
 endfacet
 facet normal  1.342333e-01 -9.909498e-01 -8.871651e-16
   outer loop
     vertex -1.829894e+02  4.743328e+00 -2.336482e+02
     vertex -1.829894e+02  4.743328e+00 -2.276958e+02
     vertex -1.834129e+02  4.685965e+00 -2.336482e+02
   endloop
 endfacet
 facet normal  4.486483e-02 -9.989931e-01 -8.947350e-16
   outer loop
     vertex -1.825625e+02  4.762500e+00 -2.336482e+02
     vertex -1.829894e+02  4.743328e+00 -2.276958e+02
     vertex -1.829894e+02  4.743328e+00 -2.336482e+02
   endloop
 endfacet
 facet normal  4.486483e-02 -9.989931e-01 -7.453050e-16
   outer loop
     vertex -1.825625e+02  4.762500e+00 -2.336482e+02
     vertex -1.825625e+02  4.762500e+00 -2.276958e+02
     vertex -1.829894e+02  4.743328e+00 -2.276958e+02
   endloop
 endfacet
endsolid
