solid 
 facet normal  9.995438e-01 -3.020303e-02  0.000000e+00
   outer loop
     vertex -1.785815e+02 -6.974482e+01 -2.312670e+02
     vertex -1.785620e+02 -6.910070e+01 -2.312670e+02
     vertex -1.785620e+02 -6.910070e+01  0.000000e+00
   endloop
 endfacet
 facet normal  9.995438e-01 -3.020303e-02 -1.855910e-18
   outer loop
     vertex -1.785815e+02 -6.974482e+01 -2.312670e+02
     vertex -1.785620e+02 -6.910070e+01  0.000000e+00
     vertex -1.785815e+02 -6.974482e+01  0.000000e+00
   endloop
 endfacet
 facet normal  9.958966e-01 -9.049888e-02 -5.560959e-18
   outer loop
     vertex -1.786398e+02 -7.038659e+01 -2.312670e+02
     vertex -1.785815e+02 -6.974482e+01  0.000000e+00
     vertex -1.786398e+02 -7.038659e+01  0.000000e+00
   endloop
 endfacet
 facet normal  9.958966e-01 -9.049888e-02 -5.587202e-18
   outer loop
     vertex -1.786398e+02 -7.038659e+01 -2.312670e+02
     vertex -1.785815e+02 -6.974482e+01 -2.312670e+02
     vertex -1.785815e+02 -6.974482e+01  0.000000e+00
   endloop
 endfacet
 facet normal  9.886154e-01 -1.504645e-01 -9.245717e-18
   outer loop
     vertex -1.787367e+02 -7.102366e+01 -2.312670e+02
     vertex -1.786398e+02 -7.038659e+01  0.000000e+00
     vertex -1.787367e+02 -7.102366e+01  0.000000e+00
   endloop
 endfacet
 facet normal  9.886154e-01 -1.504645e-01 -9.218883e-18
   outer loop
     vertex -1.787367e+02 -7.102366e+01 -2.312670e+02
     vertex -1.786398e+02 -7.038659e+01 -2.312670e+02
     vertex -1.786398e+02 -7.038659e+01  0.000000e+00
   endloop
 endfacet
 facet normal  9.777269e-01 -2.098811e-01 -1.289674e-17
   outer loop
     vertex -1.788720e+02 -7.165372e+01 -2.312670e+02
     vertex -1.787367e+02 -7.102366e+01  0.000000e+00
     vertex -1.788720e+02 -7.165372e+01  0.000000e+00
   endloop
 endfacet
 facet normal  9.777269e-01 -2.098811e-01 -1.294368e-17
   outer loop
     vertex -1.788720e+02 -7.165372e+01 -2.312670e+02
     vertex -1.787367e+02 -7.102366e+01 -2.312670e+02
     vertex -1.787367e+02 -7.102366e+01  0.000000e+00
   endloop
 endfacet
 facet normal  9.632708e-01 -2.685319e-01  1.018811e-16
   outer loop
     vertex -1.790450e+02 -7.227446e+01 -2.312670e+02
     vertex -1.788720e+02 -7.165372e+01  0.000000e+00
     vertex -1.790450e+02 -7.227446e+01  0.000000e+00
   endloop
 endfacet
 facet normal  9.632708e-01 -2.685319e-01 -1.648224e-17
   outer loop
     vertex -1.790450e+02 -7.227446e+01 -2.312670e+02
     vertex -1.788720e+02 -7.165372e+01 -2.312670e+02
     vertex -1.788720e+02 -7.165372e+01  0.000000e+00
   endloop
 endfacet
 facet normal  9.452998e-01 -3.262028e-01 -2.004445e-17
   outer loop
     vertex -1.792552e+02 -7.288362e+01 -2.312670e+02
     vertex -1.790450e+02 -7.227446e+01  0.000000e+00
     vertex -1.792552e+02 -7.288362e+01  0.000000e+00
   endloop
 endfacet
 facet normal  9.452998e-01 -3.262028e-01  9.609987e-17
   outer loop
     vertex -1.792552e+02 -7.288362e+01 -2.312670e+02
     vertex -1.790450e+02 -7.227446e+01 -2.312670e+02
     vertex -1.790450e+02 -7.227446e+01  0.000000e+00
   endloop
 endfacet
 facet normal  9.238795e-01 -3.826834e-01 -2.351507e-17
   outer loop
     vertex -1.795019e+02 -7.347898e+01 -2.312670e+02
     vertex -1.792552e+02 -7.288362e+01  0.000000e+00
     vertex -1.795019e+02 -7.347898e+01  0.000000e+00
   endloop
 endfacet
 facet normal  9.238795e-01 -3.826834e-01 -2.346625e-17
   outer loop
     vertex -1.795019e+02 -7.347898e+01 -2.312670e+02
     vertex -1.792552e+02 -7.288362e+01 -2.312670e+02
     vertex -1.792552e+02 -7.288362e+01  0.000000e+00
   endloop
 endfacet
 facet normal  8.990881e-01 -4.377677e-01 -2.689987e-17
   outer loop
     vertex -1.797840e+02 -7.405837e+01 -2.312670e+02
     vertex -1.795019e+02 -7.347898e+01  0.000000e+00
     vertex -1.797840e+02 -7.405837e+01  0.000000e+00
   endloop
 endfacet
 facet normal  8.990881e-01 -4.377677e-01 -2.700481e-17
   outer loop
     vertex -1.797840e+02 -7.405837e+01 -2.312670e+02
     vertex -1.795019e+02 -7.347898e+01 -2.312670e+02
     vertex -1.795019e+02 -7.347898e+01  0.000000e+00
   endloop
 endfacet
 facet normal  8.710160e-01 -4.912546e-01 -3.018653e-17
   outer loop
     vertex -1.801005e+02 -7.461966e+01 -2.312670e+02
     vertex -1.797840e+02 -7.405837e+01  0.000000e+00
     vertex -1.801005e+02 -7.461966e+01  0.000000e+00
   endloop
 endfacet
 facet normal  8.710160e-01 -4.912546e-01 -3.017089e-17
   outer loop
     vertex -1.801005e+02 -7.461966e+01 -2.312670e+02
     vertex -1.797840e+02 -7.405837e+01 -2.312670e+02
     vertex -1.797840e+02 -7.405837e+01  0.000000e+00
   endloop
 endfacet
 facet normal  8.397657e-01 -5.429490e-01 -3.336304e-17
   outer loop
     vertex -1.804504e+02 -7.516081e+01 -2.312670e+02
     vertex -1.801005e+02 -7.461966e+01  0.000000e+00
     vertex -1.804504e+02 -7.516081e+01  0.000000e+00
   endloop
 endfacet
 facet normal  8.397657e-01 -5.429490e-01 -3.333697e-17
   outer loop
     vertex -1.804504e+02 -7.516081e+01 -2.312670e+02
     vertex -1.801005e+02 -7.461966e+01 -2.312670e+02
     vertex -1.801005e+02 -7.461966e+01  0.000000e+00
   endloop
 endfacet
 facet normal  8.054511e-01 -5.926622e-01  6.256864e-17
   outer loop
     vertex -1.808323e+02 -7.567986e+01 -2.312670e+02
     vertex -1.804504e+02 -7.516081e+01  0.000000e+00
     vertex -1.808323e+02 -7.567986e+01  0.000000e+00
   endloop
 endfacet
 facet normal  8.054511e-01 -5.926622e-01 -3.650305e-17
   outer loop
     vertex -1.808323e+02 -7.567986e+01 -2.312670e+02
     vertex -1.804504e+02 -7.516081e+01 -2.312670e+02
     vertex -1.804504e+02 -7.516081e+01  0.000000e+00
   endloop
 endfacet
 facet normal  7.681976e-01 -6.402128e-01  5.506846e-17
   outer loop
     vertex -1.812449e+02 -7.617489e+01 -2.312670e+02
     vertex -1.808323e+02 -7.567986e+01  0.000000e+00
     vertex -1.812449e+02 -7.617489e+01  0.000000e+00
   endloop
 endfacet
 facet normal  7.681976e-01 -6.402128e-01  5.494082e-17
   outer loop
     vertex -1.812449e+02 -7.617489e+01 -2.312670e+02
     vertex -1.808323e+02 -7.567986e+01 -2.312670e+02
     vertex -1.808323e+02 -7.567986e+01  0.000000e+00
   endloop
 endfacet
 facet normal  7.281410e-01 -6.854274e-01 -4.211803e-17
   outer loop
     vertex -1.816866e+02 -7.664412e+01 -2.312670e+02
     vertex -1.812449e+02 -7.617489e+01  0.000000e+00
     vertex -1.816866e+02 -7.664412e+01  0.000000e+00
   endloop
 endfacet
 facet normal  7.281410e-01 -6.854274e-01  4.730497e-17
   outer loop
     vertex -1.816866e+02 -7.664412e+01 -2.312670e+02
     vertex -1.812449e+02 -7.617489e+01 -2.312670e+02
     vertex -1.812449e+02 -7.617489e+01  0.000000e+00
   endloop
 endfacet
 facet normal  6.854274e-01 -7.281410e-01  0.000000e+00
   outer loop
     vertex -1.821558e+02 -7.708581e+01 -2.312670e+02
     vertex -1.816866e+02 -7.664412e+01  0.000000e+00
     vertex -1.821558e+02 -7.708581e+01  0.000000e+00
   endloop
 endfacet
 facet normal  6.854274e-01 -7.281410e-01 -4.469761e-17
   outer loop
     vertex -1.821558e+02 -7.708581e+01 -2.312670e+02
     vertex -1.816866e+02 -7.664412e+01 -2.312670e+02
     vertex -1.816866e+02 -7.664412e+01  0.000000e+00
   endloop
 endfacet
 facet normal  6.402128e-01 -7.681976e-01 -4.720407e-17
   outer loop
     vertex -1.826508e+02 -7.749837e+01 -2.312670e+02
     vertex -1.821558e+02 -7.708581e+01  0.000000e+00
     vertex -1.826508e+02 -7.749837e+01  0.000000e+00
   endloop
 endfacet
 facet normal  6.402128e-01 -7.681976e-01  0.000000e+00
   outer loop
     vertex -1.826508e+02 -7.749837e+01 -2.312670e+02
     vertex -1.821558e+02 -7.708581e+01 -2.312670e+02
     vertex -1.821558e+02 -7.708581e+01  0.000000e+00
   endloop
 endfacet
 facet normal  5.926622e-01 -8.054511e-01  7.283561e-17
   outer loop
     vertex -1.831699e+02 -7.788029e+01 -2.312670e+02
     vertex -1.826508e+02 -7.749837e+01  0.000000e+00
     vertex -1.831699e+02 -7.788029e+01  0.000000e+00
   endloop
 endfacet
 facet normal  5.926622e-01 -8.054511e-01 -4.953985e-17
   outer loop
     vertex -1.831699e+02 -7.788029e+01 -2.312670e+02
     vertex -1.826508e+02 -7.749837e+01 -2.312670e+02
     vertex -1.826508e+02 -7.749837e+01  0.000000e+00
   endloop
 endfacet
 facet normal  5.429490e-01 -8.397657e-01  0.000000e+00
   outer loop
     vertex -1.837110e+02 -7.823017e+01 -2.312670e+02
     vertex -1.831699e+02 -7.788029e+01  0.000000e+00
     vertex -1.837110e+02 -7.823017e+01  0.000000e+00
   endloop
 endfacet
 facet normal  5.429490e-01 -8.397657e-01  6.667394e-17
   outer loop
     vertex -1.837110e+02 -7.823017e+01 -2.312670e+02
     vertex -1.831699e+02 -7.788029e+01 -2.312670e+02
     vertex -1.831699e+02 -7.788029e+01  0.000000e+00
   endloop
 endfacet
 facet normal  4.912546e-01 -8.710160e-01  0.000000e+00
   outer loop
     vertex -1.842723e+02 -7.854674e+01 -2.312670e+02
     vertex -1.837110e+02 -7.823017e+01  0.000000e+00
     vertex -1.842723e+02 -7.854674e+01  0.000000e+00
   endloop
 endfacet
 facet normal  4.912546e-01 -8.710160e-01  0.000000e+00
   outer loop
     vertex -1.842723e+02 -7.854674e+01 -2.312670e+02
     vertex -1.837110e+02 -7.823017e+01 -2.312670e+02
     vertex -1.837110e+02 -7.823017e+01  0.000000e+00
   endloop
 endfacet
 facet normal  4.377677e-01 -8.990881e-01 -5.379975e-17
   outer loop
     vertex -1.848517e+02 -7.882885e+01 -2.312670e+02
     vertex -1.842723e+02 -7.854674e+01  0.000000e+00
     vertex -1.848517e+02 -7.882885e+01  0.000000e+00
   endloop
 endfacet
 facet normal  4.377677e-01 -8.990881e-01  0.000000e+00
   outer loop
     vertex -1.848517e+02 -7.882885e+01 -2.312670e+02
     vertex -1.842723e+02 -7.854674e+01 -2.312670e+02
     vertex -1.842723e+02 -7.854674e+01  0.000000e+00
   endloop
 endfacet
 facet normal  3.826834e-01 -9.238795e-01  0.000000e+00
   outer loop
     vertex -1.854471e+02 -7.907545e+01 -2.312670e+02
     vertex -1.848517e+02 -7.882885e+01  0.000000e+00
     vertex -1.854471e+02 -7.907545e+01  0.000000e+00
   endloop
 endfacet
 facet normal  3.262028e-01 -9.452998e-01  0.000000e+00
   outer loop
     vertex -1.854471e+02 -7.907545e+01 -2.312670e+02
     vertex -1.854471e+02 -7.907545e+01  0.000000e+00
     vertex -1.860562e+02 -7.928566e+01  0.000000e+00
   endloop
 endfacet
 facet normal  3.826834e-01 -9.238795e-01 -4.693249e-17
   outer loop
     vertex -1.854471e+02 -7.907545e+01 -2.312670e+02
     vertex -1.848517e+02 -7.882885e+01 -2.312670e+02
     vertex -1.848517e+02 -7.882885e+01  0.000000e+00
   endloop
 endfacet
 facet normal  3.262028e-01 -9.452998e-01 -4.008891e-17
   outer loop
     vertex -1.860562e+02 -7.928566e+01 -2.312670e+02
     vertex -1.854471e+02 -7.907545e+01 -2.312670e+02
     vertex -1.860562e+02 -7.928566e+01  0.000000e+00
   endloop
 endfacet
 facet normal  2.685319e-01 -9.632708e-01  2.618950e-17
   outer loop
     vertex -1.866770e+02 -7.945871e+01 -2.312670e+02
     vertex -1.860562e+02 -7.928566e+01  0.000000e+00
     vertex -1.866770e+02 -7.945871e+01  0.000000e+00
   endloop
 endfacet
 facet normal  2.685319e-01 -9.632708e-01 -3.305761e-17
   outer loop
     vertex -1.866770e+02 -7.945871e+01 -2.312670e+02
     vertex -1.860562e+02 -7.928566e+01 -2.312670e+02
     vertex -1.860562e+02 -7.928566e+01  0.000000e+00
   endloop
 endfacet
 facet normal  2.098811e-01 -9.777269e-01 -2.579348e-17
   outer loop
     vertex -1.873070e+02 -7.959396e+01 -2.312670e+02
     vertex -1.866770e+02 -7.945871e+01  0.000000e+00
     vertex -1.873070e+02 -7.959396e+01  0.000000e+00
   endloop
 endfacet
 facet normal  1.504645e-01 -9.886154e-01 -1.849143e-17
   outer loop
     vertex -1.873070e+02 -7.959396e+01 -2.312670e+02
     vertex -1.873070e+02 -7.959396e+01  0.000000e+00
     vertex -1.879441e+02 -7.969092e+01  0.000000e+00
   endloop
 endfacet
 facet normal  2.098811e-01 -9.777269e-01  3.426817e-17
   outer loop
     vertex -1.873070e+02 -7.959396e+01 -2.312670e+02
     vertex -1.866770e+02 -7.945871e+01 -2.312670e+02
     vertex -1.866770e+02 -7.945871e+01  0.000000e+00
   endloop
 endfacet
 facet normal  1.504645e-01 -9.886154e-01  0.000000e+00
   outer loop
     vertex -1.879441e+02 -7.969092e+01 -2.312670e+02
     vertex -1.873070e+02 -7.959396e+01 -2.312670e+02
     vertex -1.879441e+02 -7.969092e+01  0.000000e+00
   endloop
 endfacet
 facet normal  9.049888e-02 -9.958966e-01  0.000000e+00
   outer loop
     vertex -1.879441e+02 -7.969092e+01 -2.312670e+02
     vertex -1.879441e+02 -7.969092e+01  0.000000e+00
     vertex -1.885859e+02 -7.974924e+01  0.000000e+00
   endloop
 endfacet
 facet normal  9.049888e-02 -9.958966e-01  6.119568e-17
   outer loop
     vertex -1.885859e+02 -7.974924e+01 -2.312670e+02
     vertex -1.879441e+02 -7.969092e+01 -2.312670e+02
     vertex -1.885859e+02 -7.974924e+01  0.000000e+00
   endloop
 endfacet
 facet normal  3.020303e-02 -9.995438e-01  6.141979e-17
   outer loop
     vertex -1.885859e+02 -7.974924e+01 -2.312670e+02
     vertex -1.885859e+02 -7.974924e+01  0.000000e+00
     vertex -1.892300e+02 -7.976870e+01  0.000000e+00
   endloop
 endfacet
 facet normal  3.020303e-02 -9.995438e-01  0.000000e+00
   outer loop
     vertex -1.892300e+02 -7.976870e+01 -2.312670e+02
     vertex -1.885859e+02 -7.974924e+01 -2.312670e+02
     vertex -1.892300e+02 -7.976870e+01  0.000000e+00
   endloop
 endfacet
 facet normal -3.020303e-02 -9.995438e-01  0.000000e+00
   outer loop
     vertex -1.892300e+02 -7.976870e+01 -2.312670e+02
     vertex -1.892300e+02 -7.976870e+01  0.000000e+00
     vertex -1.898741e+02 -7.974924e+01  0.000000e+00
   endloop
 endfacet
 facet normal -3.020303e-02 -9.995438e-01 -6.141979e-17
   outer loop
     vertex -1.898741e+02 -7.974924e+01 -2.312670e+02
     vertex -1.892300e+02 -7.976870e+01 -2.312670e+02
     vertex -1.898741e+02 -7.974924e+01  0.000000e+00
   endloop
 endfacet
 facet normal -9.049888e-02 -9.958966e-01 -6.117986e-17
   outer loop
     vertex -1.905159e+02 -7.969092e+01 -2.312670e+02
     vertex -1.898741e+02 -7.974924e+01 -2.312670e+02
     vertex -1.898741e+02 -7.974924e+01  0.000000e+00
   endloop
 endfacet
 facet normal -9.049888e-02 -9.958966e-01  0.000000e+00
   outer loop
     vertex -1.905159e+02 -7.969092e+01 -2.312670e+02
     vertex -1.898741e+02 -7.974924e+01  0.000000e+00
     vertex -1.905159e+02 -7.969092e+01  0.000000e+00
   endloop
 endfacet
 facet normal -1.504645e-01 -9.886154e-01  0.000000e+00
   outer loop
     vertex -1.911530e+02 -7.959396e+01 -2.312670e+02
     vertex -1.905159e+02 -7.969092e+01 -2.312670e+02
     vertex -1.905159e+02 -7.969092e+01  0.000000e+00
   endloop
 endfacet
 facet normal -1.504645e-01 -9.886154e-01  1.849143e-17
   outer loop
     vertex -1.911530e+02 -7.959396e+01 -2.312670e+02
     vertex -1.905159e+02 -7.969092e+01  0.000000e+00
     vertex -1.911530e+02 -7.959396e+01  0.000000e+00
   endloop
 endfacet
 facet normal -2.098811e-01 -9.777269e-01  2.579425e-17
   outer loop
     vertex -1.917830e+02 -7.945871e+01 -2.312670e+02
     vertex -1.911530e+02 -7.959396e+01 -2.312670e+02
     vertex -1.911530e+02 -7.959396e+01  0.000000e+00
   endloop
 endfacet
 facet normal -2.098811e-01 -9.777269e-01 -3.428572e-17
   outer loop
     vertex -1.917830e+02 -7.945871e+01 -2.312670e+02
     vertex -1.911530e+02 -7.959396e+01  0.000000e+00
     vertex -1.917830e+02 -7.945871e+01  0.000000e+00
   endloop
 endfacet
 facet normal -2.685319e-01 -9.632708e-01 -2.618950e-17
   outer loop
     vertex -1.924038e+02 -7.928566e+01 -2.312670e+02
     vertex -1.917830e+02 -7.945871e+01  0.000000e+00
     vertex -1.924038e+02 -7.928566e+01  0.000000e+00
   endloop
 endfacet
 facet normal -2.685319e-01 -9.632708e-01 -2.616673e-17
   outer loop
     vertex -1.924038e+02 -7.928566e+01 -2.312670e+02
     vertex -1.917830e+02 -7.945871e+01 -2.312670e+02
     vertex -1.917830e+02 -7.945871e+01  0.000000e+00
   endloop
 endfacet
 facet normal -3.262028e-01 -9.452998e-01 -1.799771e-17
   outer loop
     vertex -1.930129e+02 -7.907545e+01 -2.312670e+02
     vertex -1.924038e+02 -7.928566e+01  0.000000e+00
     vertex -1.930129e+02 -7.907545e+01  0.000000e+00
   endloop
 endfacet
 facet normal -3.262028e-01 -9.452998e-01 -1.806529e-17
   outer loop
     vertex -1.930129e+02 -7.907545e+01 -2.312670e+02
     vertex -1.924038e+02 -7.928566e+01 -2.312670e+02
     vertex -1.924038e+02 -7.928566e+01  0.000000e+00
   endloop
 endfacet
 facet normal -3.826834e-01 -9.238795e-01 -9.740259e-18
   outer loop
     vertex -1.936083e+02 -7.882885e+01 -2.312670e+02
     vertex -1.930129e+02 -7.907545e+01  0.000000e+00
     vertex -1.936083e+02 -7.882885e+01  0.000000e+00
   endloop
 endfacet
 facet normal -4.377677e-01 -8.990881e-01 -1.447262e-18
   outer loop
     vertex -1.936083e+02 -7.882885e+01 -2.312670e+02
     vertex -1.936083e+02 -7.882885e+01  0.000000e+00
     vertex -1.941877e+02 -7.854674e+01  0.000000e+00
   endloop
 endfacet
 facet normal -3.826834e-01 -9.238795e-01 -9.684483e-18
   outer loop
     vertex -1.936083e+02 -7.882885e+01 -2.312670e+02
     vertex -1.930129e+02 -7.907545e+01 -2.312670e+02
     vertex -1.930129e+02 -7.907545e+01  0.000000e+00
   endloop
 endfacet
 facet normal -4.377677e-01 -8.990881e-01 -1.447262e-18
   outer loop
     vertex -1.941877e+02 -7.854674e+01 -2.312670e+02
     vertex -1.936083e+02 -7.882885e+01 -2.312670e+02
     vertex -1.941877e+02 -7.854674e+01  0.000000e+00
   endloop
 endfacet
 facet normal -4.912546e-01 -8.710160e-01 -4.667103e-17
   outer loop
     vertex -1.947490e+02 -7.823017e+01 -2.312670e+02
     vertex -1.941877e+02 -7.854674e+01  0.000000e+00
     vertex -1.947490e+02 -7.823017e+01  0.000000e+00
   endloop
 endfacet
 facet normal -5.429490e-01 -8.397657e-01 -3.647748e-17
   outer loop
     vertex -1.947490e+02 -7.823017e+01 -2.312670e+02
     vertex -1.947490e+02 -7.823017e+01  0.000000e+00
     vertex -1.952901e+02 -7.788029e+01  0.000000e+00
   endloop
 endfacet
 facet normal -4.912546e-01 -8.710160e-01  6.890882e-18
   outer loop
     vertex -1.947490e+02 -7.823017e+01 -2.312670e+02
     vertex -1.941877e+02 -7.854674e+01 -2.312670e+02
     vertex -1.941877e+02 -7.854674e+01  0.000000e+00
   endloop
 endfacet
 facet normal -5.926622e-01 -8.054511e-01 -2.615084e-17
   outer loop
     vertex -1.952901e+02 -7.788029e+01 -2.312670e+02
     vertex -1.952901e+02 -7.788029e+01  0.000000e+00
     vertex -1.958092e+02 -7.749837e+01  0.000000e+00
   endloop
 endfacet
 facet normal -5.429490e-01 -8.397657e-01 -3.647748e-17
   outer loop
     vertex -1.952901e+02 -7.788029e+01 -2.312670e+02
     vertex -1.947490e+02 -7.823017e+01 -2.312670e+02
     vertex -1.952901e+02 -7.788029e+01  0.000000e+00
   endloop
 endfacet
 facet normal -6.402128e-01 -7.681976e-01  6.295061e-17
   outer loop
     vertex -1.958092e+02 -7.749837e+01 -2.312670e+02
     vertex -1.958092e+02 -7.749837e+01  0.000000e+00
     vertex -1.963042e+02 -7.708581e+01  0.000000e+00
   endloop
 endfacet
 facet normal -5.926622e-01 -8.054511e-01  4.668477e-17
   outer loop
     vertex -1.958092e+02 -7.749837e+01 -2.312670e+02
     vertex -1.952901e+02 -7.788029e+01 -2.312670e+02
     vertex -1.958092e+02 -7.749837e+01  0.000000e+00
   endloop
 endfacet
 facet normal -6.854274e-01 -7.281410e-01  7.898674e-17
   outer loop
     vertex -1.963042e+02 -7.708581e+01 -2.312670e+02
     vertex -1.963042e+02 -7.708581e+01  0.000000e+00
     vertex -1.967734e+02 -7.664412e+01  0.000000e+00
   endloop
 endfacet
 facet normal -6.402128e-01 -7.681976e-01  6.295061e-17
   outer loop
     vertex -1.963042e+02 -7.708581e+01 -2.312670e+02
     vertex -1.958092e+02 -7.749837e+01 -2.312670e+02
     vertex -1.963042e+02 -7.708581e+01  0.000000e+00
   endloop
 endfacet
 facet normal -7.281410e-01 -6.854274e-01 -3.686872e-17
   outer loop
     vertex -1.967734e+02 -7.664412e+01 -2.312670e+02
     vertex -1.967734e+02 -7.664412e+01  0.000000e+00
     vertex -1.972151e+02 -7.617489e+01  0.000000e+00
   endloop
 endfacet
 facet normal -6.854274e-01 -7.281410e-01 -4.999199e-17
   outer loop
     vertex -1.967734e+02 -7.664412e+01 -2.312670e+02
     vertex -1.963042e+02 -7.708581e+01 -2.312670e+02
     vertex -1.967734e+02 -7.664412e+01  0.000000e+00
   endloop
 endfacet
 facet normal -7.281410e-01 -6.854274e-01  5.261664e-17
   outer loop
     vertex -1.972151e+02 -7.617489e+01 -2.312670e+02
     vertex -1.967734e+02 -7.664412e+01 -2.312670e+02
     vertex -1.972151e+02 -7.617489e+01  0.000000e+00
   endloop
 endfacet
 facet normal -7.681976e-01 -6.402128e-01 -2.361092e-17
   outer loop
     vertex -1.976277e+02 -7.567986e+01 -2.312670e+02
     vertex -1.972151e+02 -7.617489e+01  0.000000e+00
     vertex -1.976277e+02 -7.567986e+01  0.000000e+00
   endloop
 endfacet
 facet normal -8.054511e-01 -5.926622e-01 -1.026697e-17
   outer loop
     vertex -1.976277e+02 -7.567986e+01 -2.312670e+02
     vertex -1.976277e+02 -7.567986e+01  0.000000e+00
     vertex -1.980096e+02 -7.516081e+01  0.000000e+00
   endloop
 endfacet
 facet normal -7.681976e-01 -6.402128e-01  7.077122e-17
   outer loop
     vertex -1.976277e+02 -7.567986e+01 -2.312670e+02
     vertex -1.972151e+02 -7.617489e+01 -2.312670e+02
     vertex -1.972151e+02 -7.617489e+01  0.000000e+00
   endloop
 endfacet
 facet normal -8.054511e-01 -5.926622e-01 -1.026697e-17
   outer loop
     vertex -1.980096e+02 -7.516081e+01 -2.312670e+02
     vertex -1.976277e+02 -7.567986e+01 -2.312670e+02
     vertex -1.980096e+02 -7.516081e+01  0.000000e+00
   endloop
 endfacet
 facet normal -8.397657e-01 -5.429490e-01 -3.024859e-17
   outer loop
     vertex -1.983595e+02 -7.461966e+01 -2.312670e+02
     vertex -1.980096e+02 -7.516081e+01  0.000000e+00
     vertex -1.983595e+02 -7.461966e+01  0.000000e+00
   endloop
 endfacet
 facet normal -8.710160e-01 -4.912546e-01 -1.370203e-17
   outer loop
     vertex -1.983595e+02 -7.461966e+01 -2.312670e+02
     vertex -1.983595e+02 -7.461966e+01  0.000000e+00
     vertex -1.986760e+02 -7.405837e+01  0.000000e+00
   endloop
 endfacet
 facet normal -8.397657e-01 -5.429490e-01  2.979841e-18
   outer loop
     vertex -1.983595e+02 -7.461966e+01 -2.312670e+02
     vertex -1.980096e+02 -7.516081e+01 -2.312670e+02
     vertex -1.980096e+02 -7.516081e+01  0.000000e+00
   endloop
 endfacet
 facet normal -8.710160e-01 -4.912546e-01 -1.370203e-17
   outer loop
     vertex -1.986760e+02 -7.405837e+01 -2.312670e+02
     vertex -1.983595e+02 -7.461966e+01 -2.312670e+02
     vertex -1.986760e+02 -7.405837e+01  0.000000e+00
   endloop
 endfacet
 facet normal -8.990881e-01 -4.377677e-01  2.894525e-18
   outer loop
     vertex -1.989581e+02 -7.347898e+01 -2.312670e+02
     vertex -1.986760e+02 -7.405837e+01  0.000000e+00
     vertex -1.989581e+02 -7.347898e+01  0.000000e+00
   endloop
 endfacet
 facet normal -9.238795e-01 -3.826834e-01  1.948052e-17
   outer loop
     vertex -1.989581e+02 -7.347898e+01 -2.312670e+02
     vertex -1.989581e+02 -7.347898e+01  0.000000e+00
     vertex -1.992048e+02 -7.288362e+01  0.000000e+00
   endloop
 endfacet
 facet normal -8.990881e-01 -4.377677e-01  2.793601e-18
   outer loop
     vertex -1.989581e+02 -7.347898e+01 -2.312670e+02
     vertex -1.986760e+02 -7.405837e+01 -2.312670e+02
     vertex -1.986760e+02 -7.405837e+01  0.000000e+00
   endloop
 endfacet
 facet normal -9.452998e-01 -3.262028e-01  1.595098e-17
   outer loop
     vertex -1.992048e+02 -7.288362e+01 -2.312670e+02
     vertex -1.992048e+02 -7.288362e+01  0.000000e+00
     vertex -1.994150e+02 -7.227446e+01  0.000000e+00
   endloop
 endfacet
 facet normal -9.238795e-01 -3.826834e-01 -4.034547e-18
   outer loop
     vertex -1.992048e+02 -7.288362e+01 -2.312670e+02
     vertex -1.989581e+02 -7.347898e+01 -2.312670e+02
     vertex -1.992048e+02 -7.288362e+01  0.000000e+00
   endloop
 endfacet
 facet normal -9.452998e-01 -3.262028e-01  1.595098e-17
   outer loop
     vertex -1.994150e+02 -7.227446e+01 -2.312670e+02
     vertex -1.992048e+02 -7.288362e+01 -2.312670e+02
     vertex -1.994150e+02 -7.227446e+01  0.000000e+00
   endloop
 endfacet
 facet normal -9.632708e-01 -2.685319e-01  3.585121e-17
   outer loop
     vertex -1.995880e+02 -7.165372e+01 -2.312670e+02
     vertex -1.994150e+02 -7.227446e+01 -2.312670e+02
     vertex -1.994150e+02 -7.227446e+01  0.000000e+00
   endloop
 endfacet
 facet normal -9.632708e-01 -2.685319e-01 -9.900420e-17
   outer loop
     vertex -1.995880e+02 -7.165372e+01 -2.312670e+02
     vertex -1.994150e+02 -7.227446e+01  0.000000e+00
     vertex -1.995880e+02 -7.165372e+01  0.000000e+00
   endloop
 endfacet
 facet normal -9.777269e-01 -2.098811e-01 -7.738274e-17
   outer loop
     vertex -1.997233e+02 -7.102366e+01 -2.312670e+02
     vertex -1.995880e+02 -7.165372e+01 -2.312670e+02
     vertex -1.995880e+02 -7.165372e+01  0.000000e+00
   endloop
 endfacet
 facet normal -9.777269e-01 -2.098811e-01  4.277796e-17
   outer loop
     vertex -1.997233e+02 -7.102366e+01 -2.312670e+02
     vertex -1.995880e+02 -7.165372e+01  0.000000e+00
     vertex -1.997233e+02 -7.102366e+01  0.000000e+00
   endloop
 endfacet
 facet normal -9.886154e-01 -1.504645e-01  6.602224e-17
   outer loop
     vertex -1.997233e+02 -7.102366e+01 -2.312670e+02
     vertex -1.997233e+02 -7.102366e+01  0.000000e+00
     vertex -1.998202e+02 -7.038659e+01  0.000000e+00
   endloop
 endfacet
 facet normal -9.886154e-01 -1.504645e-01  6.602224e-17
   outer loop
     vertex -1.998202e+02 -7.038659e+01 -2.312670e+02
     vertex -1.997233e+02 -7.102366e+01 -2.312670e+02
     vertex -1.998202e+02 -7.038659e+01  0.000000e+00
   endloop
 endfacet
 facet normal -9.958966e-01 -9.049888e-02  8.902560e-17
   outer loop
     vertex -1.998202e+02 -7.038659e+01 -2.312670e+02
     vertex -1.998202e+02 -7.038659e+01  0.000000e+00
     vertex -1.998785e+02 -6.974482e+01  0.000000e+00
   endloop
 endfacet
 facet normal -9.958966e-01 -9.049888e-02 -3.336576e-17
   outer loop
     vertex -1.998785e+02 -6.974482e+01 -2.312670e+02
     vertex -1.998202e+02 -7.038659e+01 -2.312670e+02
     vertex -1.998785e+02 -6.974482e+01  0.000000e+00
   endloop
 endfacet
 facet normal -9.995438e-01 -3.020303e-02 -1.113948e-17
   outer loop
     vertex -1.998980e+02 -6.910070e+01 -2.312670e+02
     vertex -1.998785e+02 -6.974482e+01 -2.312670e+02
     vertex -1.998785e+02 -6.974482e+01  0.000000e+00
   endloop
 endfacet
 facet normal -9.995438e-01 -3.020303e-02  0.000000e+00
   outer loop
     vertex -1.998980e+02 -6.910070e+01 -2.312670e+02
     vertex -1.998785e+02 -6.974482e+01  0.000000e+00
     vertex -1.998980e+02 -6.910070e+01  0.000000e+00
   endloop
 endfacet
endsolid
