solid 
 facet normal  0.000000e+00  1.000000e+00 -0.000000e+00
   outer loop
     vertex -3.637419e+00 -1.746250e+02 -3.571240e+00
     vertex -3.637419e+00 -1.746250e+02  4.770490e-15
     vertex  1.474992e+01 -1.746250e+02  5.421011e-15
   endloop
 endfacet
 facet normal  0.000000e+00  1.000000e+00  0.000000e+00
   outer loop
     vertex -3.637419e+00 -1.746250e+02 -3.571240e+00
     vertex  1.474992e+01 -1.746250e+02  5.421011e-15
     vertex  1.474992e+01 -1.746250e+02 -3.571240e+00
   endloop
 endfacet
endsolid
