solid 
 facet normal  6.999527e-18  3.118703e-16 -1.000000e+00
   outer loop
     vertex  1.294116e+02 -1.243395e+02 -3.571240e+00
     vertex  1.289843e+02 -1.243299e+02 -3.571240e+00
     vertex  1.339083e+02 -1.130488e+02 -3.571240e+00
   endloop
 endfacet
 facet normal -2.187660e-17  3.244741e-16 -1.000000e+00
   outer loop
     vertex  1.285580e+02 -1.243586e+02 -3.571240e+00
     vertex  1.339083e+02 -1.130488e+02 -3.571240e+00
     vertex  1.289843e+02 -1.243299e+02 -3.571240e+00
   endloop
 endfacet
 facet normal  3.393082e-17  3.011444e-16 -1.000000e+00
   outer loop
     vertex  1.298362e+02 -1.243873e+02 -3.571240e+00
     vertex  1.294116e+02 -1.243395e+02 -3.571240e+00
     vertex  1.339083e+02 -1.130488e+02 -3.571240e+00
   endloop
 endfacet
 facet normal -5.378223e-17  3.395676e-16 -1.000000e+00
   outer loop
     vertex  1.281359e+02 -1.244255e+02 -3.571240e+00
     vertex  1.339083e+02 -1.130488e+02 -3.571240e+00
     vertex  1.285580e+02 -1.243586e+02 -3.571240e+00
   endloop
 endfacet
 facet normal  5.976025e-17  2.918681e-16 -1.000000e+00
   outer loop
     vertex  1.302549e+02 -1.244730e+02 -3.571240e+00
     vertex  1.298362e+02 -1.243873e+02 -3.571240e+00
     vertex  1.339083e+02 -1.130488e+02 -3.571240e+00
   endloop
 endfacet
 facet normal -9.022247e-17  3.580570e-16 -1.000000e+00
   outer loop
     vertex  1.277215e+02 -1.245299e+02 -3.571240e+00
     vertex  1.339083e+02 -1.130488e+02 -3.571240e+00
     vertex  1.281359e+02 -1.244255e+02 -3.571240e+00
   endloop
 endfacet
 facet normal  8.520088e-17  2.837323e-16 -1.000000e+00
   outer loop
     vertex  1.306641e+02 -1.245959e+02 -3.571240e+00
     vertex  1.302549e+02 -1.244730e+02 -3.571240e+00
     vertex  1.339083e+02 -1.130488e+02 -3.571240e+00
   endloop
 endfacet
 facet normal -1.334382e-16  3.813445e-16 -1.000000e+00
   outer loop
     vertex  1.273181e+02 -1.246710e+02 -3.571240e+00
     vertex  1.339083e+02 -1.130488e+02 -3.571240e+00
     vertex  1.277215e+02 -1.245299e+02 -3.571240e+00
   endloop
 endfacet
 facet normal  1.109153e-16  2.765079e-16 -1.000000e+00
   outer loop
     vertex  1.310608e+02 -1.247550e+02 -3.571240e+00
     vertex  1.306641e+02 -1.245959e+02 -3.571240e+00
     vertex  1.339083e+02 -1.130488e+02 -3.571240e+00
   endloop
 endfacet
 facet normal -1.870135e-16  4.117232e-16 -1.000000e+00
   outer loop
     vertex  1.269291e+02 -1.248478e+02 -3.571240e+00
     vertex  1.339083e+02 -1.130488e+02 -3.571240e+00
     vertex  1.273181e+02 -1.246710e+02 -3.571240e+00
   endloop
 endfacet
 facet normal  1.375826e-16  2.700211e-16 -1.000000e+00
   outer loop
     vertex  1.314415e+02 -1.249490e+02 -3.571240e+00
     vertex  1.310608e+02 -1.247550e+02 -3.571240e+00
     vertex  1.339083e+02 -1.130488e+02 -3.571240e+00
   endloop
 endfacet
 facet normal  1.659683e-16  2.641371e-16 -1.000000e+00
   outer loop
     vertex  1.318034e+02 -1.251764e+02 -3.571240e+00
     vertex  1.314415e+02 -1.249490e+02 -3.571240e+00
     vertex  1.339083e+02 -1.130488e+02 -3.571240e+00
   endloop
 endfacet
 facet normal  7.383657e-16  1.816123e-16 -1.000000e+00
   outer loop
     vertex  1.321434e+02 -1.254353e+02 -3.571240e+00
     vertex  1.339083e+02 -1.130488e+02 -3.571240e+00
     vertex  1.344641e+02 -1.128632e+02 -3.571240e+00
   endloop
 endfacet
 facet normal -8.706612e-17  3.339844e-16 -1.000000e+00
   outer loop
     vertex  1.321434e+02 -1.254353e+02 -3.571240e+00
     vertex  1.344641e+02 -1.128632e+02 -3.571240e+00
     vertex  1.350311e+02 -1.127154e+02 -3.571240e+00
   endloop
 endfacet
 facet normal -6.243833e-17  3.283932e-16 -1.000000e+00
   outer loop
     vertex  1.321434e+02 -1.254353e+02 -3.571240e+00
     vertex  1.350311e+02 -1.127154e+02 -3.571240e+00
     vertex  1.356068e+02 -1.126060e+02 -3.571240e+00
   endloop
 endfacet
 facet normal -3.908794e-17  3.220895e-16 -1.000000e+00
   outer loop
     vertex  1.321434e+02 -1.254353e+02 -3.571240e+00
     vertex  1.356068e+02 -1.126060e+02 -3.571240e+00
     vertex  1.361885e+02 -1.125354e+02 -3.571240e+00
   endloop
 endfacet
 facet normal -1.692137e-17  3.151385e-16 -1.000000e+00
   outer loop
     vertex  1.321434e+02 -1.254353e+02 -3.571240e+00
     vertex  1.361885e+02 -1.125354e+02 -3.571240e+00
     vertex  1.367736e+02 -1.125040e+02 -3.571240e+00
   endloop
 endfacet
 facet normal  4.146579e-18  3.075949e-16 -1.000000e+00
   outer loop
     vertex  1.321434e+02 -1.254353e+02 -3.571240e+00
     vertex  1.367736e+02 -1.125040e+02 -3.571240e+00
     vertex  1.373595e+02 -1.125119e+02 -3.571240e+00
   endloop
 endfacet
 facet normal  2.419336e-17  2.995036e-16 -1.000000e+00
   outer loop
     vertex  1.321434e+02 -1.254353e+02 -3.571240e+00
     vertex  1.373595e+02 -1.125119e+02 -3.571240e+00
     vertex  1.379435e+02 -1.125590e+02 -3.571240e+00
   endloop
 endfacet
 facet normal  4.328925e-17  2.909017e-16 -1.000000e+00
   outer loop
     vertex  1.321434e+02 -1.254353e+02 -3.571240e+00
     vertex  1.379435e+02 -1.125590e+02 -3.571240e+00
     vertex  1.385231e+02 -1.126453e+02 -3.571240e+00
   endloop
 endfacet
 facet normal  6.149796e-17  2.818190e-16 -1.000000e+00
   outer loop
     vertex  1.321434e+02 -1.254353e+02 -3.571240e+00
     vertex  1.385231e+02 -1.126453e+02 -3.571240e+00
     vertex  1.390956e+02 -1.127702e+02 -3.571240e+00
   endloop
 endfacet
 facet normal  7.887704e-17  2.722791e-16 -1.000000e+00
   outer loop
     vertex  1.321434e+02 -1.254353e+02 -3.571240e+00
     vertex  1.390956e+02 -1.127702e+02 -3.571240e+00
     vertex  1.396584e+02 -1.129333e+02 -3.571240e+00
   endloop
 endfacet
 facet normal  1.970120e-16  2.587490e-16 -1.000000e+00
   outer loop
     vertex  1.321434e+02 -1.254353e+02 -3.571240e+00
     vertex  1.318034e+02 -1.251764e+02 -3.571240e+00
     vertex  1.339083e+02 -1.130488e+02 -3.571240e+00
   endloop
 endfacet
 facet normal  1.885923e-16  2.063282e-16 -1.000000e+00
   outer loop
     vertex  1.324588e+02 -1.257236e+02 -3.571240e+00
     vertex  1.321434e+02 -1.254353e+02 -3.571240e+00
     vertex  1.396584e+02 -1.129333e+02 -3.571240e+00
   endloop
 endfacet
 facet normal  9.440355e-17  2.593469e-16 -1.000000e+00
   outer loop
     vertex  1.324588e+02 -1.257236e+02 -3.571240e+00
     vertex  1.396584e+02 -1.129333e+02 -3.571240e+00
     vertex  1.402090e+02 -1.131337e+02 -3.571240e+00
   endloop
 endfacet
 facet normal  1.103138e-16  2.495526e-16 -1.000000e+00
   outer loop
     vertex  1.324588e+02 -1.257236e+02 -3.571240e+00
     vertex  1.402090e+02 -1.131337e+02 -3.571240e+00
     vertex  1.407450e+02 -1.133706e+02 -3.571240e+00
   endloop
 endfacet
 facet normal  1.256002e-16  2.392988e-16 -1.000000e+00
   outer loop
     vertex  1.324588e+02 -1.257236e+02 -3.571240e+00
     vertex  1.407450e+02 -1.133706e+02 -3.571240e+00
     vertex  1.412638e+02 -1.136429e+02 -3.571240e+00
   endloop
 endfacet
 facet normal  1.402953e-16  2.285881e-16 -1.000000e+00
   outer loop
     vertex  1.324588e+02 -1.257236e+02 -3.571240e+00
     vertex  1.412638e+02 -1.136429e+02 -3.571240e+00
     vertex  1.417632e+02 -1.139494e+02 -3.571240e+00
   endloop
 endfacet
 facet normal  1.544282e-16  2.174198e-16 -1.000000e+00
   outer loop
     vertex  1.324588e+02 -1.257236e+02 -3.571240e+00
     vertex  1.417632e+02 -1.139494e+02 -3.571240e+00
     vertex  1.422409e+02 -1.142887e+02 -3.571240e+00
   endloop
 endfacet
 facet normal  1.680239e-16  2.057890e-16 -1.000000e+00
   outer loop
     vertex  1.324588e+02 -1.257236e+02 -3.571240e+00
     vertex  1.422409e+02 -1.142887e+02 -3.571240e+00
     vertex  1.426948e+02 -1.146593e+02 -3.571240e+00
   endloop
 endfacet
 facet normal -3.752241e-16  7.083726e-16 -1.000000e+00
   outer loop
     vertex  1.324588e+02 -1.257236e+02 -3.571240e+00
     vertex  1.426948e+02 -1.146593e+02 -3.571240e+00
     vertex  1.431228e+02 -1.150595e+02 -3.571240e+00
   endloop
 endfacet
 facet normal  1.721669e-16  1.609816e-16 -1.000000e+00
   outer loop
     vertex  1.324588e+02 -1.257236e+02 -3.571240e+00
     vertex  1.431228e+02 -1.150595e+02 -3.571240e+00
     vertex  1.435230e+02 -1.154875e+02 -3.571240e+00
   endloop
 endfacet
 facet normal  1.829236e-16  1.493546e-16 -1.000000e+00
   outer loop
     vertex  1.324588e+02 -1.257236e+02 -3.571240e+00
     vertex  1.435230e+02 -1.154875e+02 -3.571240e+00
     vertex  1.438936e+02 -1.159414e+02 -3.571240e+00
   endloop
 endfacet
 facet normal  1.932620e-16  1.372695e-16 -1.000000e+00
   outer loop
     vertex  1.324588e+02 -1.257236e+02 -3.571240e+00
     vertex  1.438936e+02 -1.159414e+02 -3.571240e+00
     vertex  1.442329e+02 -1.164191e+02 -3.571240e+00
   endloop
 endfacet
 facet normal  2.031895e-16  1.247070e-16 -1.000000e+00
   outer loop
     vertex  1.324588e+02 -1.257236e+02 -3.571240e+00
     vertex  1.442329e+02 -1.164191e+02 -3.571240e+00
     vertex  1.445394e+02 -1.169185e+02 -3.571240e+00
   endloop
 endfacet
 facet normal  2.127100e-16  1.116446e-16 -1.000000e+00
   outer loop
     vertex  1.324588e+02 -1.257236e+02 -3.571240e+00
     vertex  1.445394e+02 -1.169185e+02 -3.571240e+00
     vertex  1.448118e+02 -1.174374e+02 -3.571240e+00
   endloop
 endfacet
 facet normal  2.218246e-16  9.805670e-17 -1.000000e+00
   outer loop
     vertex  1.324588e+02 -1.257236e+02 -3.571240e+00
     vertex  1.448118e+02 -1.174374e+02 -3.571240e+00
     vertex  1.450487e+02 -1.179733e+02 -3.571240e+00
   endloop
 endfacet
 facet normal  2.305306e-16  8.391427e-17 -1.000000e+00
   outer loop
     vertex  1.324588e+02 -1.257236e+02 -3.571240e+00
     vertex  1.450487e+02 -1.179733e+02 -3.571240e+00
     vertex  1.452491e+02 -1.185239e+02 -3.571240e+00
   endloop
 endfacet
 facet normal  2.420259e-16  7.011292e-17 -1.000000e+00
   outer loop
     vertex  1.327471e+02 -1.260390e+02 -3.571240e+00
     vertex  1.452491e+02 -1.185239e+02 -3.571240e+00
     vertex  1.454121e+02 -1.190868e+02 -3.571240e+00
   endloop
 endfacet
 facet normal  2.505058e-16  5.466485e-17 -1.000000e+00
   outer loop
     vertex  1.327471e+02 -1.260390e+02 -3.571240e+00
     vertex  1.454121e+02 -1.190868e+02 -3.571240e+00
     vertex  1.455371e+02 -1.196592e+02 -3.571240e+00
   endloop
 endfacet
 facet normal  2.585793e-16  3.847934e-17 -1.000000e+00
   outer loop
     vertex  1.327471e+02 -1.260390e+02 -3.571240e+00
     vertex  1.455371e+02 -1.196592e+02 -3.571240e+00
     vertex  1.456233e+02 -1.202388e+02 -3.571240e+00
   endloop
 endfacet
 facet normal  5.967059e-16 -7.121502e-16 -1.000000e+00
   outer loop
     vertex  1.327471e+02 -1.260390e+02 -3.571240e+00
     vertex  1.456233e+02 -1.202388e+02 -3.571240e+00
     vertex  1.456705e+02 -1.208229e+02 -3.571240e+00
   endloop
 endfacet
 facet normal  3.075949e-16  4.146579e-18 -1.000000e+00
   outer loop
     vertex  1.327471e+02 -1.260390e+02 -3.571240e+00
     vertex  1.456705e+02 -1.208229e+02 -3.571240e+00
     vertex  1.456784e+02 -1.214088e+02 -3.571240e+00
   endloop
 endfacet
 facet normal  3.151385e-16 -1.692137e-17 -1.000000e+00
   outer loop
     vertex  1.327471e+02 -1.260390e+02 -3.571240e+00
     vertex  1.456784e+02 -1.214088e+02 -3.571240e+00
     vertex  1.456470e+02 -1.219939e+02 -3.571240e+00
   endloop
 endfacet
 facet normal  3.220895e-16 -3.908794e-17 -1.000000e+00
   outer loop
     vertex  1.327471e+02 -1.260390e+02 -3.571240e+00
     vertex  1.456470e+02 -1.219939e+02 -3.571240e+00
     vertex  1.455764e+02 -1.225756e+02 -3.571240e+00
   endloop
 endfacet
 facet normal  3.283932e-16 -6.243833e-17 -1.000000e+00
   outer loop
     vertex  1.327471e+02 -1.260390e+02 -3.571240e+00
     vertex  1.455764e+02 -1.225756e+02 -3.571240e+00
     vertex  1.454669e+02 -1.231512e+02 -3.571240e+00
   endloop
 endfacet
 facet normal  3.339844e-16 -8.706612e-17 -1.000000e+00
   outer loop
     vertex  1.327471e+02 -1.260390e+02 -3.571240e+00
     vertex  1.454669e+02 -1.231512e+02 -3.571240e+00
     vertex  1.453191e+02 -1.237183e+02 -3.571240e+00
   endloop
 endfacet
 facet normal  8.103045e-16 -2.667393e-15 -1.000000e+00
   outer loop
     vertex  1.327471e+02 -1.260390e+02 -3.571240e+00
     vertex  1.453191e+02 -1.237183e+02 -3.571240e+00
     vertex  1.451336e+02 -1.242741e+02 -3.571240e+00
   endloop
 endfacet
 facet normal  1.834028e-16  1.676376e-16 -1.000000e+00
   outer loop
     vertex  1.327471e+02 -1.260390e+02 -3.571240e+00
     vertex  1.324588e+02 -1.257236e+02 -3.571240e+00
     vertex  1.452491e+02 -1.185239e+02 -3.571240e+00
   endloop
 endfacet
 facet normal -3.190362e-16  4.898160e-16 -1.000000e+00
   outer loop
     vertex  1.209065e+02 -1.260506e+02 -3.571240e+00
     vertex  1.339083e+02 -1.130488e+02 -3.571240e+00
     vertex  1.269291e+02 -1.248478e+02 -3.571240e+00
   endloop
 endfacet
 facet normal -3.413621e-16  6.016044e-16 -1.000000e+00
   outer loop
     vertex  1.209065e+02 -1.260506e+02 -3.571240e+00
     vertex  1.269291e+02 -1.248478e+02 -3.571240e+00
     vertex  1.265574e+02 -1.250587e+02 -3.571240e+00
   endloop
 endfacet
 facet normal -3.157655e-16  4.557805e-16 -1.000000e+00
   outer loop
     vertex  1.209065e+02 -1.260506e+02 -3.571240e+00
     vertex  1.265574e+02 -1.250587e+02 -3.571240e+00
     vertex  1.262061e+02 -1.253020e+02 -3.571240e+00
   endloop
 endfacet
 facet normal -3.025807e-16  3.624330e-16 -1.000000e+00
   outer loop
     vertex  1.209065e+02 -1.260506e+02 -3.571240e+00
     vertex  1.262061e+02 -1.253020e+02 -3.571240e+00
     vertex  1.258781e+02 -1.255759e+02 -3.571240e+00
   endloop
 endfacet
 facet normal -2.962629e-16  2.962629e-16 -1.000000e+00
   outer loop
     vertex  1.209065e+02 -1.260506e+02 -3.571240e+00
     vertex  1.258781e+02 -1.255759e+02 -3.571240e+00
     vertex  1.255759e+02 -1.258781e+02 -3.571240e+00
   endloop
 endfacet
 facet normal -2.943980e-16  2.457810e-16 -1.000000e+00
   outer loop
     vertex  1.253020e+02 -1.262061e+02 -3.571240e+00
     vertex  1.209065e+02 -1.260506e+02 -3.571240e+00
     vertex  1.255759e+02 -1.258781e+02 -3.571240e+00
   endloop
 endfacet
 facet normal  3.881235e-16  2.955180e-16 -1.000000e+00
   outer loop
     vertex  1.330060e+02 -1.263790e+02 -3.571240e+00
     vertex  1.327471e+02 -1.260390e+02 -3.571240e+00
     vertex  1.451336e+02 -1.242741e+02 -3.571240e+00
   endloop
 endfacet
 facet normal -2.958424e-16  2.049602e-16 -1.000000e+00
   outer loop
     vertex  1.250587e+02 -1.265574e+02 -3.571240e+00
     vertex  1.209065e+02 -1.260506e+02 -3.571240e+00
     vertex  1.253020e+02 -1.262061e+02 -3.571240e+00
   endloop
 endfacet
 facet normal  3.962057e-16  2.489525e-16 -1.000000e+00
   outer loop
     vertex  1.332333e+02 -1.267408e+02 -3.571240e+00
     vertex  1.330060e+02 -1.263790e+02 -3.571240e+00
     vertex  1.451336e+02 -1.242741e+02 -3.571240e+00
   endloop
 endfacet
 facet normal -3.000768e-16  1.702695e-16 -1.000000e+00
   outer loop
     vertex  1.248478e+02 -1.269291e+02 -3.571240e+00
     vertex  1.209065e+02 -1.260506e+02 -3.571240e+00
     vertex  1.250587e+02 -1.265574e+02 -3.571240e+00
   endloop
 endfacet
 facet normal  4.050316e-16  2.063739e-16 -1.000000e+00
   outer loop
     vertex  1.334273e+02 -1.271216e+02 -3.571240e+00
     vertex  1.332333e+02 -1.267408e+02 -3.571240e+00
     vertex  1.451336e+02 -1.242741e+02 -3.571240e+00
   endloop
 endfacet
 facet normal -3.069520e-16  1.394242e-16 -1.000000e+00
   outer loop
     vertex  1.246710e+02 -1.273181e+02 -3.571240e+00
     vertex  1.209065e+02 -1.260506e+02 -3.571240e+00
     vertex  1.248478e+02 -1.269291e+02 -3.571240e+00
   endloop
 endfacet
 facet normal  4.147618e-16  1.663729e-16 -1.000000e+00
   outer loop
     vertex  1.335864e+02 -1.275182e+02 -3.571240e+00
     vertex  1.334273e+02 -1.271216e+02 -3.571240e+00
     vertex  1.451336e+02 -1.242741e+02 -3.571240e+00
   endloop
 endfacet
 facet normal -3.165962e-16  1.107818e-16 -1.000000e+00
   outer loop
     vertex  1.245299e+02 -1.277215e+02 -3.571240e+00
     vertex  1.209065e+02 -1.260506e+02 -3.571240e+00
     vertex  1.246710e+02 -1.273181e+02 -3.571240e+00
   endloop
 endfacet
 facet normal  0.000000e+00  0.000000e+00 -1.000000e+00
   outer loop
     vertex  1.245299e+02 -1.277215e+02 -3.571240e+00
     vertex  1.205732e+02 -1.271734e+02 -3.571240e+00
     vertex  1.207210e+02 -1.266064e+02 -3.571240e+00
   endloop
 endfacet
 facet normal  6.392668e-16  2.183580e-15 -1.000000e+00
   outer loop
     vertex  1.245299e+02 -1.277215e+02 -3.571240e+00
     vertex  1.207210e+02 -1.266064e+02 -3.571240e+00
     vertex  1.209065e+02 -1.260506e+02 -3.571240e+00
   endloop
 endfacet
 facet normal  4.255984e-16  1.278013e-16 -1.000000e+00
   outer loop
     vertex  1.337093e+02 -1.279275e+02 -3.571240e+00
     vertex  1.335864e+02 -1.275182e+02 -3.571240e+00
     vertex  1.451336e+02 -1.242741e+02 -3.571240e+00
   endloop
 endfacet
 facet normal  0.000000e+00  0.000000e+00 -1.000000e+00
   outer loop
     vertex  1.244255e+02 -1.281359e+02 -3.571240e+00
     vertex  1.204637e+02 -1.277490e+02 -3.571240e+00
     vertex  1.205732e+02 -1.271734e+02 -3.571240e+00
   endloop
 endfacet
 facet normal  0.000000e+00  0.000000e+00 -1.000000e+00
   outer loop
     vertex  1.244255e+02 -1.281359e+02 -3.571240e+00
     vertex  1.205732e+02 -1.271734e+02 -3.571240e+00
     vertex  1.245299e+02 -1.277215e+02 -3.571240e+00
   endloop
 endfacet
 facet normal  4.378021e-16  8.964038e-17 -1.000000e+00
   outer loop
     vertex  1.337950e+02 -1.283462e+02 -3.571240e+00
     vertex  1.337093e+02 -1.279275e+02 -3.571240e+00
     vertex  1.451336e+02 -1.242741e+02 -3.571240e+00
   endloop
 endfacet
 facet normal  0.000000e+00  0.000000e+00 -1.000000e+00
   outer loop
     vertex  1.243586e+02 -1.285580e+02 -3.571240e+00
     vertex  1.203931e+02 -1.283307e+02 -3.571240e+00
     vertex  1.204637e+02 -1.277490e+02 -3.571240e+00
   endloop
 endfacet
 facet normal  0.000000e+00  0.000000e+00 -1.000000e+00
   outer loop
     vertex  1.243586e+02 -1.285580e+02 -3.571240e+00
     vertex  1.204637e+02 -1.277490e+02 -3.571240e+00
     vertex  1.244255e+02 -1.281359e+02 -3.571240e+00
   endloop
 endfacet
 facet normal  4.517166e-16  5.089623e-17 -1.000000e+00
   outer loop
     vertex  1.338429e+02 -1.287708e+02 -3.571240e+00
     vertex  1.337950e+02 -1.283462e+02 -3.571240e+00
     vertex  1.451336e+02 -1.242741e+02 -3.571240e+00
   endloop
 endfacet
 facet normal  0.000000e+00  0.000000e+00 -1.000000e+00
   outer loop
     vertex  1.243299e+02 -1.289843e+02 -3.571240e+00
     vertex  1.203617e+02 -1.289159e+02 -3.571240e+00
     vertex  1.203931e+02 -1.283307e+02 -3.571240e+00
   endloop
 endfacet
 facet normal  0.000000e+00  0.000000e+00 -1.000000e+00
   outer loop
     vertex  1.243299e+02 -1.289843e+02 -3.571240e+00
     vertex  1.203931e+02 -1.283307e+02 -3.571240e+00
     vertex  1.243586e+02 -1.285580e+02 -3.571240e+00
   endloop
 endfacet
 facet normal  4.678054e-16  1.049929e-17 -1.000000e+00
   outer loop
     vertex  1.338525e+02 -1.291980e+02 -3.571240e+00
     vertex  1.338429e+02 -1.287708e+02 -3.571240e+00
     vertex  1.451336e+02 -1.242741e+02 -3.571240e+00
   endloop
 endfacet
 facet normal  0.000000e+00  0.000000e+00 -1.000000e+00
   outer loop
     vertex  1.203696e+02 -1.295018e+02 -3.571240e+00
     vertex  1.203617e+02 -1.289159e+02 -3.571240e+00
     vertex  1.243299e+02 -1.289843e+02 -3.571240e+00
   endloop
 endfacet
 facet normal  0.000000e+00  0.000000e+00 -1.000000e+00
   outer loop
     vertex  1.203696e+02 -1.295018e+02 -3.571240e+00
     vertex  1.243299e+02 -1.289843e+02 -3.571240e+00
     vertex  1.243395e+02 -1.294116e+02 -3.571240e+00
   endloop
 endfacet
 facet normal  4.867111e-16 -3.281490e-17 -1.000000e+00
   outer loop
     vertex  1.338237e+02 -1.296244e+02 -3.571240e+00
     vertex  1.338525e+02 -1.291980e+02 -3.571240e+00
     vertex  1.451336e+02 -1.242741e+02 -3.571240e+00
   endloop
 endfacet
 facet normal  5.093514e-16 -8.067334e-17 -1.000000e+00
   outer loop
     vertex  1.337569e+02 -1.300465e+02 -3.571240e+00
     vertex  1.338237e+02 -1.296244e+02 -3.571240e+00
     vertex  1.451336e+02 -1.242741e+02 -3.571240e+00
   endloop
 endfacet
 facet normal -1.110592e-16 -1.251337e-17 -1.000000e+00
   outer loop
     vertex  1.204168e+02 -1.300858e+02 -3.571240e+00
     vertex  1.243395e+02 -1.294116e+02 -3.571240e+00
     vertex  1.243873e+02 -1.298362e+02 -3.571240e+00
   endloop
 endfacet
 facet normal  1.724646e-17 -7.589579e-16 -1.000000e+00
   outer loop
     vertex  1.204168e+02 -1.300858e+02 -3.571240e+00
     vertex  1.203696e+02 -1.295018e+02 -3.571240e+00
     vertex  1.243395e+02 -1.294116e+02 -3.571240e+00
   endloop
 endfacet
 facet normal  5.370854e-16 -1.353337e-16 -1.000000e+00
   outer loop
     vertex  1.336525e+02 -1.304609e+02 -3.571240e+00
     vertex  1.337569e+02 -1.300465e+02 -3.571240e+00
     vertex  1.451336e+02 -1.242741e+02 -3.571240e+00
   endloop
 endfacet
 facet normal -1.108092e-16 -1.648958e-17 -1.000000e+00
   outer loop
     vertex  1.205030e+02 -1.306654e+02 -3.571240e+00
     vertex  1.204168e+02 -1.300858e+02 -3.571240e+00
     vertex  1.243873e+02 -1.298362e+02 -3.571240e+00
   endloop
 endfacet
 facet normal -1.095414e-16 -2.242869e-17 -1.000000e+00
   outer loop
     vertex  1.205030e+02 -1.306654e+02 -3.571240e+00
     vertex  1.243873e+02 -1.298362e+02 -3.571240e+00
     vertex  1.244730e+02 -1.302549e+02 -3.571240e+00
   endloop
 endfacet
 facet normal  5.720167e-16 -2.001573e-16 -1.000000e+00
   outer loop
     vertex  1.335113e+02 -1.308642e+02 -3.571240e+00
     vertex  1.336525e+02 -1.304609e+02 -3.571240e+00
     vertex  1.451336e+02 -1.242741e+02 -3.571240e+00
   endloop
 endfacet
 facet normal -1.093922e-16 -2.387133e-17 -1.000000e+00
   outer loop
     vertex  1.206279e+02 -1.312379e+02 -3.571240e+00
     vertex  1.205030e+02 -1.306654e+02 -3.571240e+00
     vertex  1.244730e+02 -1.302549e+02 -3.571240e+00
   endloop
 endfacet
 facet normal  6.175847e-16 -2.805203e-16 -1.000000e+00
   outer loop
     vertex  1.333346e+02 -1.312533e+02 -3.571240e+00
     vertex  1.335113e+02 -1.308642e+02 -3.571240e+00
     vertex  1.451336e+02 -1.242741e+02 -3.571240e+00
   endloop
 endfacet
 facet normal -1.075311e-16 -3.115088e-17 -1.000000e+00
   outer loop
     vertex  1.207910e+02 -1.318007e+02 -3.571240e+00
     vertex  1.206279e+02 -1.312379e+02 -3.571240e+00
     vertex  1.244730e+02 -1.302549e+02 -3.571240e+00
   endloop
 endfacet
 facet normal -1.071064e-16 -3.216256e-17 -1.000000e+00
   outer loop
     vertex  1.207910e+02 -1.318007e+02 -3.571240e+00
     vertex  1.244730e+02 -1.302549e+02 -3.571240e+00
     vertex  1.245959e+02 -1.306641e+02 -3.571240e+00
   endloop
 endfacet
 facet normal -1.037276e-16 -4.160814e-17 -1.000000e+00
   outer loop
     vertex  1.209914e+02 -1.323513e+02 -3.571240e+00
     vertex  1.245959e+02 -1.306641e+02 -3.571240e+00
     vertex  1.247550e+02 -1.310608e+02 -3.571240e+00
   endloop
 endfacet
 facet normal -1.052677e-16 -3.831796e-17 -1.000000e+00
   outer loop
     vertex  1.209914e+02 -1.323513e+02 -3.571240e+00
     vertex  1.207910e+02 -1.318007e+02 -3.571240e+00
     vertex  1.245959e+02 -1.306641e+02 -3.571240e+00
   endloop
 endfacet
 facet normal -9.963058e-17 -5.076431e-17 -1.000000e+00
   outer loop
     vertex  1.212283e+02 -1.328873e+02 -3.571240e+00
     vertex  1.247550e+02 -1.310608e+02 -3.571240e+00
     vertex  1.249490e+02 -1.314415e+02 -3.571240e+00
   endloop
 endfacet
 facet normal -1.024638e-16 -4.529374e-17 -1.000000e+00
   outer loop
     vertex  1.212283e+02 -1.328873e+02 -3.571240e+00
     vertex  1.209914e+02 -1.323513e+02 -3.571240e+00
     vertex  1.247550e+02 -1.310608e+02 -3.571240e+00
   endloop
 endfacet
 facet normal -9.913725e-17 -5.203393e-17 -1.000000e+00
   outer loop
     vertex  1.215006e+02 -1.334061e+02 -3.571240e+00
     vertex  1.212283e+02 -1.328873e+02 -3.571240e+00
     vertex  1.249490e+02 -1.314415e+02 -3.571240e+00
   endloop
 endfacet
 facet normal -9.468629e-17 -5.949534e-17 -1.000000e+00
   outer loop
     vertex  1.218072e+02 -1.339055e+02 -3.571240e+00
     vertex  1.249490e+02 -1.314415e+02 -3.571240e+00
     vertex  1.251764e+02 -1.318034e+02 -3.571240e+00
   endloop
 endfacet
 facet normal -9.541789e-17 -5.856247e-17 -1.000000e+00
   outer loop
     vertex  1.218072e+02 -1.339055e+02 -3.571240e+00
     vertex  1.215006e+02 -1.334061e+02 -3.571240e+00
     vertex  1.249490e+02 -1.314415e+02 -3.571240e+00
   endloop
 endfacet
 facet normal -8.892017e-17 -6.770399e-17 -1.000000e+00
   outer loop
     vertex  1.221465e+02 -1.343832e+02 -3.571240e+00
     vertex  1.251764e+02 -1.318034e+02 -3.571240e+00
     vertex  1.254353e+02 -1.321434e+02 -3.571240e+00
   endloop
 endfacet
 facet normal -9.133222e-17 -6.487115e-17 -1.000000e+00
   outer loop
     vertex  1.221465e+02 -1.343832e+02 -3.571240e+00
     vertex  1.218072e+02 -1.339055e+02 -3.571240e+00
     vertex  1.251764e+02 -1.318034e+02 -3.571240e+00
   endloop
 endfacet
 facet normal -8.253811e-17 -7.544317e-17 -1.000000e+00
   outer loop
     vertex  1.225171e+02 -1.348371e+02 -3.571240e+00
     vertex  1.254353e+02 -1.321434e+02 -3.571240e+00
     vertex  1.257236e+02 -1.324588e+02 -3.571240e+00
   endloop
 endfacet
 facet normal -8.677637e-17 -7.085174e-17 -1.000000e+00
   outer loop
     vertex  1.225171e+02 -1.348371e+02 -3.571240e+00
     vertex  1.221465e+02 -1.343832e+02 -3.571240e+00
     vertex  1.254353e+02 -1.321434e+02 -3.571240e+00
   endloop
 endfacet
 facet normal -8.177926e-17 -7.646628e-17 -1.000000e+00
   outer loop
     vertex  1.229173e+02 -1.352651e+02 -3.571240e+00
     vertex  1.225171e+02 -1.348371e+02 -3.571240e+00
     vertex  1.257236e+02 -1.324588e+02 -3.571240e+00
   endloop
 endfacet
 facet normal  0.000000e+00  0.000000e+00 -1.000000e+00
   outer loop
     vertex  1.233453e+02 -1.356653e+02 -3.571240e+00
     vertex  1.257236e+02 -1.324588e+02 -3.571240e+00
     vertex  1.260390e+02 -1.327471e+02 -3.571240e+00
   endloop
 endfacet
 facet normal -6.126720e-16  4.544265e-16 -1.000000e+00
   outer loop
     vertex  1.233453e+02 -1.356653e+02 -3.571240e+00
     vertex  1.229173e+02 -1.352651e+02 -3.571240e+00
     vertex  1.257236e+02 -1.324588e+02 -3.571240e+00
   endloop
 endfacet
 facet normal  0.000000e+00  0.000000e+00 -1.000000e+00
   outer loop
     vertex  1.237991e+02 -1.360359e+02 -3.571240e+00
     vertex  1.260390e+02 -1.327471e+02 -3.571240e+00
     vertex  1.263790e+02 -1.330060e+02 -3.571240e+00
   endloop
 endfacet
 facet normal  0.000000e+00  0.000000e+00 -1.000000e+00
   outer loop
     vertex  1.237991e+02 -1.360359e+02 -3.571240e+00
     vertex  1.233453e+02 -1.356653e+02 -3.571240e+00
     vertex  1.260390e+02 -1.327471e+02 -3.571240e+00
   endloop
 endfacet
 facet normal  0.000000e+00  0.000000e+00 -1.000000e+00
   outer loop
     vertex  1.242769e+02 -1.363752e+02 -3.571240e+00
     vertex  1.263790e+02 -1.330060e+02 -3.571240e+00
     vertex  1.267408e+02 -1.332333e+02 -3.571240e+00
   endloop
 endfacet
 facet normal  0.000000e+00  0.000000e+00 -1.000000e+00
   outer loop
     vertex  1.242769e+02 -1.363752e+02 -3.571240e+00
     vertex  1.237991e+02 -1.360359e+02 -3.571240e+00
     vertex  1.263790e+02 -1.330060e+02 -3.571240e+00
   endloop
 endfacet
 facet normal  0.000000e+00  0.000000e+00 -1.000000e+00
   outer loop
     vertex  1.247763e+02 -1.366817e+02 -3.571240e+00
     vertex  1.242769e+02 -1.363752e+02 -3.571240e+00
     vertex  1.267408e+02 -1.332333e+02 -3.571240e+00
   endloop
 endfacet
 facet normal  0.000000e+00  0.000000e+00 -1.000000e+00
   outer loop
     vertex  1.252951e+02 -1.369540e+02 -3.571240e+00
     vertex  1.267408e+02 -1.332333e+02 -3.571240e+00
     vertex  1.271216e+02 -1.334273e+02 -3.571240e+00
   endloop
 endfacet
 facet normal  0.000000e+00  0.000000e+00 -1.000000e+00
   outer loop
     vertex  1.252951e+02 -1.369540e+02 -3.571240e+00
     vertex  1.247763e+02 -1.366817e+02 -3.571240e+00
     vertex  1.267408e+02 -1.332333e+02 -3.571240e+00
   endloop
 endfacet
 facet normal  0.000000e+00  0.000000e+00 -1.000000e+00
   outer loop
     vertex  1.258310e+02 -1.371909e+02 -3.571240e+00
     vertex  1.271216e+02 -1.334273e+02 -3.571240e+00
     vertex  1.275182e+02 -1.335864e+02 -3.571240e+00
   endloop
 endfacet
 facet normal  0.000000e+00  0.000000e+00 -1.000000e+00
   outer loop
     vertex  1.258310e+02 -1.371909e+02 -3.571240e+00
     vertex  1.252951e+02 -1.369540e+02 -3.571240e+00
     vertex  1.271216e+02 -1.334273e+02 -3.571240e+00
   endloop
 endfacet
 facet normal  3.692727e-17 -1.055321e-16 -1.000000e+00
   outer loop
     vertex  1.321318e+02 -1.372759e+02 -3.571240e+00
     vertex  1.304609e+02 -1.336525e+02 -3.571240e+00
     vertex  1.308642e+02 -1.335113e+02 -3.571240e+00
   endloop
 endfacet
 facet normal  4.647473e-17 -1.023173e-16 -1.000000e+00
   outer loop
     vertex  1.321318e+02 -1.372759e+02 -3.571240e+00
     vertex  1.308642e+02 -1.335113e+02 -3.571240e+00
     vertex  1.312533e+02 -1.333346e+02 -3.571240e+00
   endloop
 endfacet
 facet normal  5.675649e-17 -1.000256e-16 -1.000000e+00
   outer loop
     vertex  1.321318e+02 -1.372759e+02 -3.571240e+00
     vertex  1.312533e+02 -1.333346e+02 -3.571240e+00
     vertex  1.316250e+02 -1.331237e+02 -3.571240e+00
   endloop
 endfacet
 facet normal  6.832006e-17 -9.861415e-17 -1.000000e+00
   outer loop
     vertex  1.321318e+02 -1.372759e+02 -3.571240e+00
     vertex  1.316250e+02 -1.331237e+02 -3.571240e+00
     vertex  1.319763e+02 -1.328803e+02 -3.571240e+00
   endloop
 endfacet
 facet normal  8.192699e-17 -9.813265e-17 -1.000000e+00
   outer loop
     vertex  1.321318e+02 -1.372759e+02 -3.571240e+00
     vertex  1.319763e+02 -1.328803e+02 -3.571240e+00
     vertex  1.323043e+02 -1.326065e+02 -3.571240e+00
   endloop
 endfacet
 facet normal  9.875430e-17 -9.875430e-17 -1.000000e+00
   outer loop
     vertex  1.321318e+02 -1.372759e+02 -3.571240e+00
     vertex  1.323043e+02 -1.326065e+02 -3.571240e+00
     vertex  1.326065e+02 -1.323043e+02 -3.571240e+00
   endloop
 endfacet
 facet normal  1.208110e-16 -1.008602e-16 -1.000000e+00
   outer loop
     vertex  1.321318e+02 -1.372759e+02 -3.571240e+00
     vertex  1.326065e+02 -1.323043e+02 -3.571240e+00
     vertex  1.328803e+02 -1.319763e+02 -3.571240e+00
   endloop
 endfacet
 facet normal  1.519268e-16 -1.052552e-16 -1.000000e+00
   outer loop
     vertex  1.321318e+02 -1.372759e+02 -3.571240e+00
     vertex  1.328803e+02 -1.319763e+02 -3.571240e+00
     vertex  1.331237e+02 -1.316250e+02 -3.571240e+00
   endloop
 endfacet
 facet normal  2.005348e-16 -1.137874e-16 -1.000000e+00
   outer loop
     vertex  1.321318e+02 -1.372759e+02 -3.571240e+00
     vertex  1.331237e+02 -1.316250e+02 -3.571240e+00
     vertex  1.333346e+02 -1.312533e+02 -3.571240e+00
   endloop
 endfacet
 facet normal  5.616165e-16 -1.859011e-16 -1.000000e+00
   outer loop
     vertex  1.321318e+02 -1.372759e+02 -3.571240e+00
     vertex  1.333346e+02 -1.312533e+02 -3.571240e+00
     vertex  1.451336e+02 -1.242741e+02 -3.571240e+00
   endloop
 endfacet
 facet normal  0.000000e+00  0.000000e+00 -1.000000e+00
   outer loop
     vertex  1.263817e+02 -1.373914e+02 -3.571240e+00
     vertex  1.275182e+02 -1.335864e+02 -3.571240e+00
     vertex  1.279275e+02 -1.337093e+02 -3.571240e+00
   endloop
 endfacet
 facet normal  0.000000e+00  0.000000e+00 -1.000000e+00
   outer loop
     vertex  1.263817e+02 -1.373914e+02 -3.571240e+00
     vertex  1.258310e+02 -1.371909e+02 -3.571240e+00
     vertex  1.275182e+02 -1.335864e+02 -3.571240e+00
   endloop
 endfacet
 facet normal  7.278600e-16  2.130889e-16 -1.000000e+00
   outer loop
     vertex  1.315760e+02 -1.374614e+02 -3.571240e+00
     vertex  1.304609e+02 -1.336525e+02 -3.571240e+00
     vertex  1.321318e+02 -1.372759e+02 -3.571240e+00
   endloop
 endfacet
 facet normal  0.000000e+00  0.000000e+00 -1.000000e+00
   outer loop
     vertex  1.269445e+02 -1.375544e+02 -3.571240e+00
     vertex  1.263817e+02 -1.373914e+02 -3.571240e+00
     vertex  1.279275e+02 -1.337093e+02 -3.571240e+00
   endloop
 endfacet
 facet normal  0.000000e+00  0.000000e+00 -1.000000e+00
   outer loop
     vertex  1.310090e+02 -1.376092e+02 -3.571240e+00
     vertex  1.304609e+02 -1.336525e+02 -3.571240e+00
     vertex  1.315760e+02 -1.374614e+02 -3.571240e+00
   endloop
 endfacet
 facet normal  0.000000e+00  0.000000e+00 -1.000000e+00
   outer loop
     vertex  1.310090e+02 -1.376092e+02 -3.571240e+00
     vertex  1.300465e+02 -1.337569e+02 -3.571240e+00
     vertex  1.304609e+02 -1.336525e+02 -3.571240e+00
   endloop
 endfacet
 facet normal  0.000000e+00  0.000000e+00 -1.000000e+00
   outer loop
     vertex  1.275170e+02 -1.376793e+02 -3.571240e+00
     vertex  1.269445e+02 -1.375544e+02 -3.571240e+00
     vertex  1.279275e+02 -1.337093e+02 -3.571240e+00
   endloop
 endfacet
 facet normal  0.000000e+00  0.000000e+00 -1.000000e+00
   outer loop
     vertex  1.275170e+02 -1.376793e+02 -3.571240e+00
     vertex  1.279275e+02 -1.337093e+02 -3.571240e+00
     vertex  1.283462e+02 -1.337950e+02 -3.571240e+00
   endloop
 endfacet
 facet normal  0.000000e+00  0.000000e+00 -1.000000e+00
   outer loop
     vertex  1.304333e+02 -1.377187e+02 -3.571240e+00
     vertex  1.300465e+02 -1.337569e+02 -3.571240e+00
     vertex  1.310090e+02 -1.376092e+02 -3.571240e+00
   endloop
 endfacet
 facet normal  0.000000e+00  0.000000e+00 -1.000000e+00
   outer loop
     vertex  1.304333e+02 -1.377187e+02 -3.571240e+00
     vertex  1.296244e+02 -1.338237e+02 -3.571240e+00
     vertex  1.300465e+02 -1.337569e+02 -3.571240e+00
   endloop
 endfacet
 facet normal  0.000000e+00  0.000000e+00 -1.000000e+00
   outer loop
     vertex  1.280965e+02 -1.377656e+02 -3.571240e+00
     vertex  1.283462e+02 -1.337950e+02 -3.571240e+00
     vertex  1.287708e+02 -1.338429e+02 -3.571240e+00
   endloop
 endfacet
 facet normal  0.000000e+00  0.000000e+00 -1.000000e+00
   outer loop
     vertex  1.280965e+02 -1.377656e+02 -3.571240e+00
     vertex  1.275170e+02 -1.376793e+02 -3.571240e+00
     vertex  1.283462e+02 -1.337950e+02 -3.571240e+00
   endloop
 endfacet
 facet normal  0.000000e+00  0.000000e+00 -1.000000e+00
   outer loop
     vertex  1.298516e+02 -1.377893e+02 -3.571240e+00
     vertex  1.296244e+02 -1.338237e+02 -3.571240e+00
     vertex  1.304333e+02 -1.377187e+02 -3.571240e+00
   endloop
 endfacet
 facet normal  0.000000e+00  0.000000e+00 -1.000000e+00
   outer loop
     vertex  1.298516e+02 -1.377893e+02 -3.571240e+00
     vertex  1.291980e+02 -1.338525e+02 -3.571240e+00
     vertex  1.296244e+02 -1.338237e+02 -3.571240e+00
   endloop
 endfacet
 facet normal  0.000000e+00  0.000000e+00 -1.000000e+00
   outer loop
     vertex  1.286806e+02 -1.378128e+02 -3.571240e+00
     vertex  1.287708e+02 -1.338429e+02 -3.571240e+00
     vertex  1.291980e+02 -1.338525e+02 -3.571240e+00
   endloop
 endfacet
 facet normal  0.000000e+00  0.000000e+00 -1.000000e+00
   outer loop
     vertex  1.286806e+02 -1.378128e+02 -3.571240e+00
     vertex  1.280965e+02 -1.377656e+02 -3.571240e+00
     vertex  1.287708e+02 -1.338429e+02 -3.571240e+00
   endloop
 endfacet
 facet normal  0.000000e+00  0.000000e+00 -1.000000e+00
   outer loop
     vertex  1.292665e+02 -1.378207e+02 -3.571240e+00
     vertex  1.286806e+02 -1.378128e+02 -3.571240e+00
     vertex  1.291980e+02 -1.338525e+02 -3.571240e+00
   endloop
 endfacet
 facet normal  0.000000e+00  0.000000e+00 -1.000000e+00
   outer loop
     vertex  1.292665e+02 -1.378207e+02 -3.571240e+00
     vertex  1.291980e+02 -1.338525e+02 -3.571240e+00
     vertex  1.298516e+02 -1.377893e+02 -3.571240e+00
   endloop
 endfacet
endsolid
