solid 
 facet normal  9.999823e-01  5.949951e-03  0.000000e+00
   outer loop
     vertex  3.116509e+02 -1.571903e+01  3.429000e+00
     vertex  3.116707e+02 -1.905000e+01  3.429000e+00
     vertex  3.116707e+02 -1.905000e+01  0.000000e+00
   endloop
 endfacet
 facet normal  9.999823e-01  5.949951e-03  7.366718e-16
   outer loop
     vertex  3.116509e+02 -1.571903e+01  3.429000e+00
     vertex  3.116707e+02 -1.905000e+01  0.000000e+00
     vertex  3.116509e+02 -1.571903e+01  4.258027e-31
   endloop
 endfacet
 facet normal  9.998407e-01  1.784901e-02 -1.439245e-14
   outer loop
     vertex  3.115914e+02 -1.238853e+01  3.429000e+00
     vertex  3.116509e+02 -1.571903e+01  4.258027e-31
     vertex  3.115914e+02 -1.238853e+01  4.202589e-31
   endloop
 endfacet
 facet normal  9.998407e-01  1.784901e-02  2.208860e-15
   outer loop
     vertex  3.115914e+02 -1.238853e+01  3.429000e+00
     vertex  3.116509e+02 -1.571903e+01  3.429000e+00
     vertex  3.116509e+02 -1.571903e+01  4.258027e-31
   endloop
 endfacet
 facet normal  9.995575e-01  2.974554e-02 -1.297954e-14
   outer loop
     vertex  3.114923e+02 -9.058977e+00  3.429000e+00
     vertex  3.115914e+02 -1.238853e+01  4.202589e-31
     vertex  3.114923e+02 -9.058977e+00  4.146556e-31
   endloop
 endfacet
 facet normal  9.995575e-01  2.974554e-02 -1.293240e-14
   outer loop
     vertex  3.114923e+02 -9.058977e+00  3.429000e+00
     vertex  3.115914e+02 -1.238853e+01  3.429000e+00
     vertex  3.115914e+02 -1.238853e+01  4.202589e-31
   endloop
 endfacet
 facet normal  9.991328e-01  4.163786e-02 -1.158020e-14
   outer loop
     vertex  3.113536e+02 -5.730837e+00  3.429000e+00
     vertex  3.114923e+02 -9.058977e+00  4.146556e-31
     vertex  3.113536e+02 -5.730837e+00  4.089936e-31
   endloop
 endfacet
 facet normal  9.991328e-01  4.163786e-02 -1.153759e-14
   outer loop
     vertex  3.113536e+02 -5.730837e+00  3.429000e+00
     vertex  3.114923e+02 -9.058977e+00  3.429000e+00
     vertex  3.114923e+02 -9.058977e+00  4.146556e-31
   endloop
 endfacet
 facet normal  9.985665e-01  5.352429e-02  6.377367e-15
   outer loop
     vertex  3.111754e+02 -2.404583e+00  3.429000e+00
     vertex  3.113536e+02 -5.730837e+00  4.089936e-31
     vertex  3.111754e+02 -2.404583e+00  4.032737e-31
   endloop
 endfacet
 facet normal  9.985665e-01  5.352429e-02 -1.014764e-14
   outer loop
     vertex  3.111754e+02 -2.404583e+00  3.429000e+00
     vertex  3.113536e+02 -5.730837e+00  3.429000e+00
     vertex  3.113536e+02 -5.730837e+00  4.089936e-31
   endloop
 endfacet
 facet normal  9.978589e-01  6.540313e-02  7.657195e-15
   outer loop
     vertex  3.109575e+02  9.193141e-01  3.429000e+00
     vertex  3.111754e+02 -2.404583e+00  4.032737e-31
     vertex  3.109575e+02  9.193141e-01  3.974967e-31
   endloop
 endfacet
 facet normal  9.978589e-01  6.540313e-02  7.795406e-15
   outer loop
     vertex  3.109575e+02  9.193141e-01  3.429000e+00
     vertex  3.111754e+02 -2.404583e+00  3.429000e+00
     vertex  3.111754e+02 -2.404583e+00  4.032737e-31
   endloop
 endfacet
 facet normal  9.970100e-01  7.727271e-02 -7.640965e-15
   outer loop
     vertex  3.107001e+02  4.240383e+00  3.429000e+00
     vertex  3.109575e+02  9.193141e-01  3.974967e-31
     vertex  3.107001e+02  4.240383e+00  3.916634e-31
   endloop
 endfacet
 facet normal  9.970100e-01  7.727271e-02  9.049280e-15
   outer loop
     vertex  3.107001e+02  4.240383e+00  3.429000e+00
     vertex  3.109575e+02  9.193141e-01  3.429000e+00
     vertex  3.109575e+02  9.193141e-01  3.974967e-31
   endloop
 endfacet
 facet normal  9.960199e-01  8.913135e-02 -6.353099e-15
   outer loop
     vertex  3.104032e+02  7.558154e+00  3.429000e+00
     vertex  3.107001e+02  4.240383e+00  3.916634e-31
     vertex  3.104032e+02  7.558154e+00  3.857746e-31
   endloop
 endfacet
 facet normal  9.960199e-01  8.913135e-02 -6.259652e-15
   outer loop
     vertex  3.104032e+02  7.558154e+00  3.429000e+00
     vertex  3.107001e+02  4.240383e+00  3.429000e+00
     vertex  3.107001e+02  4.240383e+00  3.916634e-31
   endloop
 endfacet
 facet normal  9.948887e-01  1.009774e-01 -4.996058e-15
   outer loop
     vertex  3.100668e+02  1.087216e+01  3.429000e+00
     vertex  3.104032e+02  7.558154e+00  3.429000e+00
     vertex  3.104032e+02  7.558154e+00  3.857746e-31
   endloop
 endfacet
 facet normal  9.948887e-01  1.009774e-01 -4.984273e-15
   outer loop
     vertex  3.100668e+02  1.087216e+01  3.429000e+00
     vertex  3.104032e+02  7.558154e+00  3.857746e-31
     vertex  3.100668e+02  1.087216e+01  3.798312e-31
   endloop
 endfacet
 facet normal  9.936167e-01  1.128091e-01 -3.615824e-15
   outer loop
     vertex  3.096911e+02  1.418192e+01  3.429000e+00
     vertex  3.100668e+02  1.087216e+01  3.429000e+00
     vertex  3.100668e+02  1.087216e+01  3.798312e-31
   endloop
 endfacet
 facet normal  9.936167e-01  1.128091e-01 -3.848499e-15
   outer loop
     vertex  3.096911e+02  1.418192e+01  3.429000e+00
     vertex  3.100668e+02  1.087216e+01  3.798312e-31
     vertex  3.096911e+02  1.418192e+01  3.738340e-31
   endloop
 endfacet
 facet normal  9.922039e-01  1.246248e-01 -2.488309e-15
   outer loop
     vertex  3.092759e+02  1.748698e+01  3.429000e+00
     vertex  3.096911e+02  1.418192e+01  3.429000e+00
     vertex  3.096911e+02  1.418192e+01  3.738340e-31
   endloop
 endfacet
 facet normal  9.922039e-01  1.246248e-01 -2.502939e-15
   outer loop
     vertex  3.092759e+02  1.748698e+01  3.429000e+00
     vertex  3.096911e+02  1.418192e+01  3.738340e-31
     vertex  3.092759e+02  1.748698e+01  3.677839e-31
   endloop
 endfacet
 facet normal  9.906507e-01  1.364229e-01 -1.166395e-15
   outer loop
     vertex  3.088215e+02  2.078687e+01  3.429000e+00
     vertex  3.092759e+02  1.748698e+01  3.429000e+00
     vertex  3.092759e+02  1.748698e+01  3.677839e-31
   endloop
 endfacet
 facet normal  9.906507e-01  1.364229e-01 -1.439715e-15
   outer loop
     vertex  3.088215e+02  2.078687e+01  3.429000e+00
     vertex  3.092759e+02  1.748698e+01  3.677839e-31
     vertex  3.088215e+02  2.078687e+01  3.616817e-31
   endloop
 endfacet
 facet normal  9.889572e-01  1.482017e-01 -1.166395e-16
   outer loop
     vertex  3.083278e+02  2.408111e+01  3.429000e+00
     vertex  3.088215e+02  2.078687e+01  3.429000e+00
     vertex  3.088215e+02  2.078687e+01  3.616817e-31
   endloop
 endfacet
 facet normal  9.889572e-01  1.482017e-01 -4.251412e-16
   outer loop
     vertex  3.083278e+02  2.408111e+01  3.429000e+00
     vertex  3.088215e+02  2.078687e+01  3.616817e-31
     vertex  3.083278e+02  2.408111e+01  3.555283e-31
   endloop
 endfacet
 facet normal  9.871236e-01  1.599595e-01  8.553562e-16
   outer loop
     vertex  3.077950e+02  2.736925e+01  3.429000e+00
     vertex  3.083278e+02  2.408111e+01  3.429000e+00
     vertex  3.083278e+02  2.408111e+01  3.555283e-31
   endloop
 endfacet
 facet normal  9.871236e-01  1.599595e-01  2.092596e-16
   outer loop
     vertex  3.077950e+02  2.736925e+01  3.429000e+00
     vertex  3.083278e+02  2.408111e+01  3.555283e-31
     vertex  3.077950e+02  2.736925e+01  3.493245e-31
   endloop
 endfacet
 facet normal  9.851502e-01  1.716946e-01  1.457994e-15
   outer loop
     vertex  3.072231e+02  3.065081e+01  3.429000e+00
     vertex  3.077950e+02  2.736925e+01  3.429000e+00
     vertex  3.077950e+02  2.736925e+01  3.493245e-31
   endloop
 endfacet
 facet normal  9.851502e-01  1.716946e-01  1.102047e-15
   outer loop
     vertex  3.072231e+02  3.065081e+01  3.429000e+00
     vertex  3.077950e+02  2.736925e+01  3.493245e-31
     vertex  3.072231e+02  3.065081e+01  3.430713e-31
   endloop
 endfacet
 facet normal  9.830374e-01  1.834055e-01  2.293910e-15
   outer loop
     vertex  3.066122e+02  3.392534e+01  3.429000e+00
     vertex  3.072231e+02  3.065081e+01  3.429000e+00
     vertex  3.072231e+02  3.065081e+01  3.430713e-31
   endloop
 endfacet
 facet normal  9.830374e-01  1.834055e-01  1.946095e-15
   outer loop
     vertex  3.066122e+02  3.392534e+01  3.429000e+00
     vertex  3.072231e+02  3.065081e+01  3.430713e-31
     vertex  3.066122e+02  3.392534e+01  3.367694e-31
   endloop
 endfacet
 facet normal  9.807853e-01  1.950903e-01  3.149266e-15
   outer loop
     vertex  3.059623e+02  3.719236e+01  3.429000e+00
     vertex  3.066122e+02  3.392534e+01  3.429000e+00
     vertex  3.066122e+02  3.392534e+01  3.367694e-31
   endloop
 endfacet
 facet normal  9.807853e-01  1.950903e-01  2.337129e-15
   outer loop
     vertex  3.059623e+02  3.719236e+01  3.429000e+00
     vertex  3.066122e+02  3.392534e+01  3.367694e-31
     vertex  3.059623e+02  3.719236e+01  3.304199e-31
   endloop
 endfacet
 facet normal  9.783943e-01  2.067476e-01  3.499185e-15
   outer loop
     vertex  3.052736e+02  4.045142e+01  3.429000e+00
     vertex  3.059623e+02  3.719236e+01  3.429000e+00
     vertex  3.059623e+02  3.719236e+01  3.304199e-31
   endloop
 endfacet
 facet normal  9.783943e-01  2.067476e-01 -1.358800e-14
   outer loop
     vertex  3.052736e+02  4.045142e+01  3.429000e+00
     vertex  3.059623e+02  3.719236e+01  3.304199e-31
     vertex  3.052736e+02  4.045142e+01  3.240236e-31
   endloop
 endfacet
 facet normal  9.758648e-01  2.183755e-01 -1.244155e-14
   outer loop
     vertex  3.045462e+02  4.370206e+01  3.429000e+00
     vertex  3.052736e+02  4.045142e+01  3.429000e+00
     vertex  3.052736e+02  4.045142e+01  3.240236e-31
   endloop
 endfacet
 facet normal  9.758648e-01  2.183755e-01  3.733206e-15
   outer loop
     vertex  3.045462e+02  4.370206e+01  3.429000e+00
     vertex  3.052736e+02  4.045142e+01  3.240236e-31
     vertex  3.045462e+02  4.370206e+01  3.175815e-31
   endloop
 endfacet
 facet normal  9.731971e-01  2.299725e-01  4.821099e-15
   outer loop
     vertex  3.037802e+02  4.694381e+01  3.429000e+00
     vertex  3.045462e+02  4.370206e+01  3.429000e+00
     vertex  3.045462e+02  4.370206e+01  3.175815e-31
   endloop
 endfacet
 facet normal  9.731971e-01  2.299725e-01  4.834787e-15
   outer loop
     vertex  3.037802e+02  4.694381e+01  3.429000e+00
     vertex  3.045462e+02  4.370206e+01  3.175815e-31
     vertex  3.037802e+02  4.694381e+01  3.110943e-31
   endloop
 endfacet
 facet normal  9.703916e-01  2.415370e-01  3.933673e-15
   outer loop
     vertex  3.029756e+02  5.017621e+01  3.429000e+00
     vertex  3.037802e+02  4.694381e+01  3.110943e-31
     vertex  3.029756e+02  5.017621e+01  3.045631e-31
   endloop
 endfacet
 facet normal  9.703916e-01  2.415370e-01  5.948614e-15
   outer loop
     vertex  3.029756e+02  5.017621e+01  3.429000e+00
     vertex  3.037802e+02  4.694381e+01  3.429000e+00
     vertex  3.037802e+02  4.694381e+01  3.110943e-31
   endloop
 endfacet
 facet normal  9.674487e-01  2.530673e-01  5.986950e-15
   outer loop
     vertex  3.021326e+02  5.339881e+01  3.429000e+00
     vertex  3.029756e+02  5.017621e+01  3.045631e-31
     vertex  3.021326e+02  5.339881e+01  2.979888e-31
   endloop
 endfacet
 facet normal  9.674487e-01  2.530673e-01  4.937738e-15
   outer loop
     vertex  3.021326e+02  5.339881e+01  3.429000e+00
     vertex  3.029756e+02  5.017621e+01  3.429000e+00
     vertex  3.029756e+02  5.017621e+01  3.045631e-31
   endloop
 endfacet
 facet normal  9.643688e-01  2.645617e-01 -8.948217e-15
   outer loop
     vertex  3.012514e+02  5.661115e+01  3.429000e+00
     vertex  3.021326e+02  5.339881e+01  2.979888e-31
     vertex  3.012514e+02  5.661115e+01  2.913722e-31
   endloop
 endfacet
 facet normal  9.643688e-01  2.645617e-01  7.037249e-15
   outer loop
     vertex  3.012514e+02  5.661115e+01  3.429000e+00
     vertex  3.021326e+02  5.339881e+01  3.429000e+00
     vertex  3.021326e+02  5.339881e+01  2.979888e-31
   endloop
 endfacet
 facet normal  9.611523e-01  2.760186e-01  8.088799e-15
   outer loop
     vertex  3.003319e+02  5.981277e+01  3.429000e+00
     vertex  3.012514e+02  5.661115e+01  2.913722e-31
     vertex  3.003319e+02  5.981277e+01  2.847145e-31
   endloop
 endfacet
 facet normal  9.611523e-01  2.760186e-01 -7.814845e-15
   outer loop
     vertex  3.003319e+02  5.981277e+01  3.429000e+00
     vertex  3.012514e+02  5.661115e+01  3.429000e+00
     vertex  3.012514e+02  5.661115e+01  2.913722e-31
   endloop
 endfacet
 facet normal  9.577997e-01  2.874365e-01 -9.122067e-15
   outer loop
     vertex  2.993745e+02  6.300323e+01  3.429000e+00
     vertex  3.003319e+02  5.981277e+01  2.847145e-31
     vertex  2.993745e+02  6.300323e+01  2.780163e-31
   endloop
 endfacet
 facet normal  9.577997e-01  2.874365e-01  9.136760e-15
   outer loop
     vertex  2.993745e+02  6.300323e+01  3.429000e+00
     vertex  3.003319e+02  5.981277e+01  3.429000e+00
     vertex  3.003319e+02  5.981277e+01  2.847145e-31
   endloop
 endfacet
 facet normal  9.543115e-01  2.988137e-01 -5.633800e-15
   outer loop
     vertex  2.983791e+02  6.618207e+01  3.429000e+00
     vertex  2.993745e+02  6.300323e+01  2.780163e-31
     vertex  2.983791e+02  6.618207e+01  2.712789e-31
   endloop
 endfacet
 facet normal  9.543115e-01  2.988137e-01 -8.087004e-15
   outer loop
     vertex  2.983791e+02  6.618207e+01  3.429000e+00
     vertex  2.993745e+02  6.300323e+01  3.429000e+00
     vertex  2.993745e+02  6.300323e+01  2.780163e-31
   endloop
 endfacet
 facet normal  9.506881e-01  3.101485e-01 -5.812543e-15
   outer loop
     vertex  2.973460e+02  6.934884e+01  3.429000e+00
     vertex  2.983791e+02  6.618207e+01  2.712789e-31
     vertex  2.973460e+02  6.934884e+01  2.645030e-31
   endloop
 endfacet
 facet normal  9.506881e-01  3.101485e-01 -4.510060e-15
   outer loop
     vertex  2.973460e+02  6.934884e+01  3.429000e+00
     vertex  2.983791e+02  6.618207e+01  3.429000e+00
     vertex  2.983791e+02  6.618207e+01  2.712789e-31
   endloop
 endfacet
 facet normal  9.469301e-01  3.214395e-01 -3.419939e-15
   outer loop
     vertex  2.962753e+02  7.250309e+01  3.429000e+00
     vertex  2.973460e+02  6.934884e+01  2.645030e-31
     vertex  2.962753e+02  7.250309e+01  2.576896e-31
   endloop
 endfacet
 facet normal  9.469301e-01  3.214395e-01 -4.743339e-15
   outer loop
     vertex  2.962753e+02  7.250309e+01  3.429000e+00
     vertex  2.973460e+02  6.934884e+01  3.429000e+00
     vertex  2.973460e+02  6.934884e+01  2.645030e-31
   endloop
 endfacet
 facet normal  9.430381e-01  3.326849e-01 -2.312204e-15
   outer loop
     vertex  2.951671e+02  7.564438e+01  3.429000e+00
     vertex  2.962753e+02  7.250309e+01  2.576896e-31
     vertex  2.951671e+02  7.564438e+01  2.508398e-31
   endloop
 endfacet
 facet normal  9.430381e-01  3.326849e-01 -2.332790e-15
   outer loop
     vertex  2.951671e+02  7.564438e+01  3.429000e+00
     vertex  2.962753e+02  7.250309e+01  3.429000e+00
     vertex  2.962753e+02  7.250309e+01  2.576896e-31
   endloop
 endfacet
 facet normal  9.390124e-01  3.438832e-01 -1.204141e-15
   outer loop
     vertex  2.940216e+02  7.877226e+01  3.429000e+00
     vertex  2.951671e+02  7.564438e+01  2.508398e-31
     vertex  2.940216e+02  7.877226e+01  2.439544e-31
   endloop
 endfacet
 facet normal  9.390124e-01  3.438832e-01 -1.205275e-15
   outer loop
     vertex  2.940216e+02  7.877226e+01  3.429000e+00
     vertex  2.951671e+02  7.564438e+01  3.429000e+00
     vertex  2.951671e+02  7.564438e+01  2.508398e-31
   endloop
 endfacet
 facet normal  9.348538e-01  3.550328e-01 -1.567275e-15
   outer loop
     vertex  2.928390e+02  8.188628e+01  3.429000e+00
     vertex  2.940216e+02  7.877226e+01  2.439544e-31
     vertex  2.928390e+02  8.188628e+01  2.370345e-31
   endloop
 endfacet
 facet normal  9.348538e-01  3.550328e-01 -1.166395e-16
   outer loop
     vertex  2.928390e+02  8.188628e+01  3.429000e+00
     vertex  2.940216e+02  7.877226e+01  3.429000e+00
     vertex  2.940216e+02  7.877226e+01  2.439544e-31
   endloop
 endfacet
 facet normal  9.305629e-01  3.661321e-01 -5.050275e-16
   outer loop
     vertex  2.916194e+02  8.498601e+01  3.429000e+00
     vertex  2.928390e+02  8.188628e+01  2.370345e-31
     vertex  2.916194e+02  8.498601e+01  2.300810e-31
   endloop
 endfacet
 facet normal  9.305629e-01  3.661321e-01 -5.054378e-16
   outer loop
     vertex  2.916194e+02  8.498601e+01  3.429000e+00
     vertex  2.928390e+02  8.188628e+01  3.429000e+00
     vertex  2.928390e+02  8.188628e+01  2.370345e-31
   endloop
 endfacet
 facet normal  9.261401e-01  3.771796e-01  5.572918e-16
   outer loop
     vertex  2.903630e+02  8.807101e+01  3.429000e+00
     vertex  2.916194e+02  8.498601e+01  2.300810e-31
     vertex  2.903630e+02  8.807101e+01  2.230950e-31
   endloop
 endfacet
 facet normal  9.261401e-01  3.771796e-01  5.443176e-16
   outer loop
     vertex  2.903630e+02  8.807101e+01  3.429000e+00
     vertex  2.916194e+02  8.498601e+01  3.429000e+00
     vertex  2.916194e+02  8.498601e+01  2.300810e-31
   endloop
 endfacet
 facet normal  9.215862e-01  3.881737e-01  1.632953e-15
   outer loop
     vertex  2.890700e+02  9.114084e+01  3.429000e+00
     vertex  2.903630e+02  8.807101e+01  3.429000e+00
     vertex  2.903630e+02  8.807101e+01  2.230950e-31
   endloop
 endfacet
 facet normal  9.215862e-01  3.881737e-01  1.081824e-17
   outer loop
     vertex  2.890700e+02  9.114084e+01  3.429000e+00
     vertex  2.903630e+02  8.807101e+01  2.230950e-31
     vertex  2.890700e+02  9.114084e+01  2.160773e-31
   endloop
 endfacet
 facet normal  9.169018e-01  3.991128e-01  1.010876e-15
   outer loop
     vertex  2.877405e+02  9.419507e+01  3.429000e+00
     vertex  2.890700e+02  9.114084e+01  3.429000e+00
     vertex  2.890700e+02  9.114084e+01  2.160773e-31
   endloop
 endfacet
 facet normal  9.169018e-01  3.991128e-01  1.027494e-15
   outer loop
     vertex  2.877405e+02  9.419507e+01  3.429000e+00
     vertex  2.890700e+02  9.114084e+01  2.160773e-31
     vertex  2.877405e+02  9.419507e+01  2.090291e-31
   endloop
 endfacet
 facet normal  9.120876e-01  4.099954e-01  2.099511e-15
   outer loop
     vertex  2.863748e+02  9.723326e+01  3.429000e+00
     vertex  2.877405e+02  9.419507e+01  3.429000e+00
     vertex  2.877405e+02  9.419507e+01  2.090291e-31
   endloop
 endfacet
 facet normal  9.120876e-01  4.099954e-01  3.743175e-15
   outer loop
     vertex  2.863748e+02  9.723326e+01  3.429000e+00
     vertex  2.877405e+02  9.419507e+01  2.090291e-31
     vertex  2.863748e+02  9.723326e+01  2.019513e-31
   endloop
 endfacet
 facet normal  9.071442e-01  4.208199e-01  4.743339e-15
   outer loop
     vertex  2.849731e+02  1.002550e+02  3.429000e+00
     vertex  2.863748e+02  9.723326e+01  3.429000e+00
     vertex  2.863748e+02  9.723326e+01  2.019513e-31
   endloop
 endfacet
 facet normal  9.071442e-01  4.208199e-01  4.804276e-15
   outer loop
     vertex  2.849731e+02  1.002550e+02  3.429000e+00
     vertex  2.863748e+02  9.723326e+01  2.019513e-31
     vertex  2.849731e+02  1.002550e+02  1.948448e-31
   endloop
 endfacet
 facet normal  9.020723e-01  4.315849e-01  5.909734e-15
   outer loop
     vertex  2.835354e+02  1.032598e+02  3.429000e+00
     vertex  2.849731e+02  1.002550e+02  3.429000e+00
     vertex  2.849731e+02  1.002550e+02  1.948448e-31
   endloop
 endfacet
 facet normal  9.020723e-01  4.315849e-01 -1.087781e-14
   outer loop
     vertex  2.835354e+02  1.032598e+02  3.429000e+00
     vertex  2.849731e+02  1.002550e+02  1.948448e-31
     vertex  2.835354e+02  1.032598e+02  1.877108e-31
   endloop
 endfacet
 facet normal  8.968727e-01  4.422887e-01 -9.797717e-15
   outer loop
     vertex  2.820622e+02  1.062473e+02  3.429000e+00
     vertex  2.835354e+02  1.032598e+02  3.429000e+00
     vertex  2.835354e+02  1.032598e+02  1.877108e-31
   endloop
 endfacet
 facet normal  8.968727e-01  4.422887e-01  6.924287e-15
   outer loop
     vertex  2.820622e+02  1.062473e+02  3.429000e+00
     vertex  2.835354e+02  1.032598e+02  1.877108e-31
     vertex  2.820622e+02  1.062473e+02  1.805502e-31
   endloop
 endfacet
 facet normal  8.915461e-01  4.529299e-01  8.009245e-15
   outer loop
     vertex  2.805534e+02  1.092171e+02  3.429000e+00
     vertex  2.820622e+02  1.062473e+02  3.429000e+00
     vertex  2.820622e+02  1.062473e+02  1.805502e-31
   endloop
 endfacet
 facet normal  8.915461e-01  4.529299e-01  4.228729e-15
   outer loop
     vertex  2.805534e+02  1.092171e+02  3.429000e+00
     vertex  2.820622e+02  1.062473e+02  1.805502e-31
     vertex  2.805534e+02  1.092171e+02  1.733640e-31
   endloop
 endfacet
 facet normal  8.860933e-01  4.635069e-01  5.198539e-15
   outer loop
     vertex  2.805534e+02  1.092171e+02  3.429000e+00
     vertex  2.805534e+02  1.092171e+02  1.733640e-31
     vertex  2.790095e+02  1.121687e+02  1.661533e-31
   endloop
 endfacet
 facet normal  8.860933e-01  4.635069e-01 -9.490458e-15
   outer loop
     vertex  2.790095e+02  1.121687e+02  3.429000e+00
     vertex  2.805534e+02  1.092171e+02  3.429000e+00
     vertex  2.790095e+02  1.121687e+02  1.661533e-31
   endloop
 endfacet
 facet normal  8.805150e-01  4.740184e-01 -8.398043e-15
   outer loop
     vertex  2.774305e+02  1.151017e+02  3.429000e+00
     vertex  2.790095e+02  1.121687e+02  3.429000e+00
     vertex  2.790095e+02  1.121687e+02  1.661533e-31
   endloop
 endfacet
 facet normal  8.805150e-01  4.740184e-01 -4.499948e-15
   outer loop
     vertex  2.774305e+02  1.151017e+02  3.429000e+00
     vertex  2.790095e+02  1.121687e+02  1.661533e-31
     vertex  2.774305e+02  1.151017e+02  1.589190e-31
   endloop
 endfacet
 facet normal  8.748119e-01  4.844627e-01 -3.343665e-15
   outer loop
     vertex  2.758168e+02  1.180157e+02  3.429000e+00
     vertex  2.774305e+02  1.151017e+02  3.429000e+00
     vertex  2.774305e+02  1.151017e+02  1.589190e-31
   endloop
 endfacet
 facet normal  8.748119e-01  4.844627e-01 -3.350638e-15
   outer loop
     vertex  2.758168e+02  1.180157e+02  3.429000e+00
     vertex  2.774305e+02  1.151017e+02  1.589190e-31
     vertex  2.758168e+02  1.180157e+02  1.516622e-31
   endloop
 endfacet
 facet normal  8.689850e-01  4.948383e-01 -2.255030e-15
   outer loop
     vertex  2.741684e+02  1.209104e+02  3.429000e+00
     vertex  2.758168e+02  1.180157e+02  3.429000e+00
     vertex  2.758168e+02  1.180157e+02  1.516622e-31
   endloop
 endfacet
 facet normal  8.689850e-01  4.948383e-01  8.103004e-15
   outer loop
     vertex  2.741684e+02  1.209104e+02  3.429000e+00
     vertex  2.758168e+02  1.180157e+02  1.516622e-31
     vertex  2.741684e+02  1.209104e+02  1.443840e-31
   endloop
 endfacet
 facet normal  8.630351e-01  5.051440e-01  9.097880e-15
   outer loop
     vertex  2.724858e+02  1.237851e+02  3.429000e+00
     vertex  2.741684e+02  1.209104e+02  3.429000e+00
     vertex  2.741684e+02  1.209104e+02  1.443840e-31
   endloop
 endfacet
 facet normal  8.630351e-01  5.051440e-01 -5.237709e-15
   outer loop
     vertex  2.724858e+02  1.237851e+02  3.429000e+00
     vertex  2.741684e+02  1.209104e+02  1.443840e-31
     vertex  2.724858e+02  1.237851e+02  1.370853e-31
   endloop
 endfacet
 facet normal  8.569629e-01  5.153780e-01 -4.199021e-15
   outer loop
     vertex  2.707690e+02  1.266397e+02  3.429000e+00
     vertex  2.724858e+02  1.237851e+02  3.429000e+00
     vertex  2.724858e+02  1.237851e+02  1.370853e-31
   endloop
 endfacet
 facet normal  8.569629e-01  5.153780e-01 -8.444068e-15
   outer loop
     vertex  2.707690e+02  1.266397e+02  3.429000e+00
     vertex  2.724858e+02  1.237851e+02  1.370853e-31
     vertex  2.707690e+02  1.266397e+02  1.297672e-31
   endloop
 endfacet
 facet normal  8.507694e-01  5.255391e-01 -7.464927e-15
   outer loop
     vertex  2.690185e+02  1.294737e+02  3.429000e+00
     vertex  2.707690e+02  1.266397e+02  3.429000e+00
     vertex  2.707690e+02  1.266397e+02  1.297672e-31
   endloop
 endfacet
 facet normal  8.507694e-01  5.255391e-01  1.099714e-14
   outer loop
     vertex  2.690185e+02  1.294737e+02  3.429000e+00
     vertex  2.707690e+02  1.266397e+02  1.297672e-31
     vertex  2.690185e+02  1.294737e+02  1.224307e-31
   endloop
 endfacet
 facet normal  8.444554e-01  5.356258e-01  1.189723e-14
   outer loop
     vertex  2.672343e+02  1.322866e+02  3.429000e+00
     vertex  2.690185e+02  1.294737e+02  3.429000e+00
     vertex  2.690185e+02  1.294737e+02  1.224307e-31
   endloop
 endfacet
 facet normal  8.444554e-01  5.356258e-01 -2.047819e-14
   outer loop
     vertex  2.672343e+02  1.322866e+02  3.429000e+00
     vertex  2.690185e+02  1.294737e+02  1.224307e-31
     vertex  2.672343e+02  1.322866e+02  1.150769e-31
   endloop
 endfacet
 facet normal  8.380219e-01  5.456367e-01 -1.943991e-14
   outer loop
     vertex  2.654167e+02  1.350780e+02  3.429000e+00
     vertex  2.672343e+02  1.322866e+02  3.429000e+00
     vertex  2.672343e+02  1.322866e+02  1.150769e-31
   endloop
 endfacet
 facet normal  8.380219e-01  5.456367e-01 -5.495675e-15
   outer loop
     vertex  2.654167e+02  1.350780e+02  3.429000e+00
     vertex  2.672343e+02  1.322866e+02  1.150769e-31
     vertex  2.654167e+02  1.350780e+02  1.077068e-31
   endloop
 endfacet
 facet normal  8.314696e-01  5.555702e-01 -4.510060e-15
   outer loop
     vertex  2.635661e+02  1.378477e+02  3.429000e+00
     vertex  2.654167e+02  1.350780e+02  3.429000e+00
     vertex  2.654167e+02  1.350780e+02  1.077068e-31
   endloop
 endfacet
 facet normal  8.314696e-01  5.555702e-01  1.387727e-14
   outer loop
     vertex  2.635661e+02  1.378477e+02  3.429000e+00
     vertex  2.654167e+02  1.350780e+02  1.077068e-31
     vertex  2.635661e+02  1.378477e+02  1.003214e-31
   endloop
 endfacet
 facet normal  8.247996e-01  5.654251e-01  1.477433e-14
   outer loop
     vertex  2.616827e+02  1.405951e+02  3.429000e+00
     vertex  2.635661e+02  1.378477e+02  3.429000e+00
     vertex  2.635661e+02  1.378477e+02  1.003214e-31
   endloop
 endfacet
 facet normal  8.247996e-01  5.654251e-01  1.160643e-15
   outer loop
     vertex  2.616827e+02  1.405951e+02  3.429000e+00
     vertex  2.635661e+02  1.378477e+02  1.003214e-31
     vertex  2.616827e+02  1.405951e+02  9.292188e-32
   endloop
 endfacet
 facet normal  8.180128e-01  5.752000e-01  2.255030e-15
   outer loop
     vertex  2.597667e+02  1.433199e+02  3.429000e+00
     vertex  2.616827e+02  1.405951e+02  3.429000e+00
     vertex  2.616827e+02  1.405951e+02  9.292188e-32
   endloop
 endfacet
 facet normal  8.180128e-01  5.752000e-01  1.102013e-14
   outer loop
     vertex  2.597667e+02  1.433199e+02  3.429000e+00
     vertex  2.616827e+02  1.405951e+02  9.292188e-32
     vertex  2.597667e+02  1.433199e+02  8.550915e-32
   endloop
 endfacet
 facet normal  8.111102e-01  5.848933e-01  1.189723e-14
   outer loop
     vertex  2.578184e+02  1.460218e+02  3.429000e+00
     vertex  2.597667e+02  1.433199e+02  3.429000e+00
     vertex  2.597667e+02  1.433199e+02  8.550915e-32
   endloop
 endfacet
 facet normal  8.111102e-01  5.848933e-01 -1.500022e-14
   outer loop
     vertex  2.578184e+02  1.460218e+02  3.429000e+00
     vertex  2.597667e+02  1.433199e+02  8.550915e-32
     vertex  2.578184e+02  1.460218e+02  7.808432e-32
   endloop
 endfacet
 facet normal  8.040927e-01  5.945039e-01 -1.384122e-14
   outer loop
     vertex  2.558381e+02  1.487002e+02  3.429000e+00
     vertex  2.578184e+02  1.460218e+02  3.429000e+00
     vertex  2.578184e+02  1.460218e+02  7.808432e-32
   endloop
 endfacet
 facet normal  8.040927e-01  5.945039e-01 -2.305186e-15
   outer loop
     vertex  2.558381e+02  1.487002e+02  3.429000e+00
     vertex  2.578184e+02  1.460218e+02  7.808432e-32
     vertex  2.558381e+02  1.487002e+02  7.064843e-32
   endloop
 endfacet
 facet normal  7.969614e-01  6.040302e-01  5.424939e-15
   outer loop
     vertex  2.538260e+02  1.513549e+02  3.429000e+00
     vertex  2.558381e+02  1.487002e+02  7.064843e-32
     vertex  2.538260e+02  1.513549e+02  6.320253e-32
   endloop
 endfacet
 facet normal  7.969614e-01  6.040302e-01 -1.166395e-15
   outer loop
     vertex  2.538260e+02  1.513549e+02  3.429000e+00
     vertex  2.558381e+02  1.487002e+02  3.429000e+00
     vertex  2.558381e+02  1.487002e+02  7.064843e-32
   endloop
 endfacet
 facet normal  7.897172e-01  6.134711e-01 -5.620332e-17
   outer loop
     vertex  2.517825e+02  1.539855e+02  3.429000e+00
     vertex  2.538260e+02  1.513549e+02  6.320253e-32
     vertex  2.517825e+02  1.539855e+02  5.574769e-32
   endloop
 endfacet
 facet normal  7.897172e-01  6.134711e-01  6.531811e-15
   outer loop
     vertex  2.517825e+02  1.539855e+02  3.429000e+00
     vertex  2.538260e+02  1.513549e+02  3.429000e+00
     vertex  2.538260e+02  1.513549e+02  6.320253e-32
   endloop
 endfacet
 facet normal  7.823612e-01  6.228250e-01 -4.093986e-15
   outer loop
     vertex  2.497079e+02  1.565916e+02  3.429000e+00
     vertex  2.517825e+02  1.539855e+02  5.574769e-32
     vertex  2.497079e+02  1.565916e+02  4.828495e-32
   endloop
 endfacet
 facet normal  7.823612e-01  6.228250e-01  1.088635e-15
   outer loop
     vertex  2.497079e+02  1.565916e+02  3.429000e+00
     vertex  2.517825e+02  1.539855e+02  3.429000e+00
     vertex  2.517825e+02  1.539855e+02  5.574769e-32
   endloop
 endfacet
 facet normal  7.748943e-01  6.320908e-01  2.192812e-15
   outer loop
     vertex  2.476024e+02  1.591728e+02  3.429000e+00
     vertex  2.497079e+02  1.565916e+02  4.828495e-32
     vertex  2.476024e+02  1.591728e+02  4.081537e-32
   endloop
 endfacet
 facet normal  7.748943e-01  6.320908e-01 -3.032627e-15
   outer loop
     vertex  2.476024e+02  1.591728e+02  3.429000e+00
     vertex  2.497079e+02  1.565916e+02  3.429000e+00
     vertex  2.497079e+02  1.565916e+02  4.828495e-32
   endloop
 endfacet
 facet normal  7.673178e-01  6.412670e-01  3.343665e-15
   outer loop
     vertex  2.454663e+02  1.617287e+02  3.429000e+00
     vertex  2.476024e+02  1.591728e+02  3.429000e+00
     vertex  2.476024e+02  1.591728e+02  4.081537e-32
   endloop
 endfacet
 facet normal  7.673178e-01  6.412670e-01 -9.535037e-16
   outer loop
     vertex  2.454663e+02  1.617287e+02  3.429000e+00
     vertex  2.476024e+02  1.591728e+02  4.081537e-32
     vertex  2.454663e+02  1.617287e+02  3.334001e-32
   endloop
 endfacet
 facet normal  7.596326e-01  6.503525e-01  0.000000e+00
   outer loop
     vertex  2.432999e+02  1.642591e+02  3.429000e+00
     vertex  2.454663e+02  1.617287e+02  3.429000e+00
     vertex  2.454663e+02  1.617287e+02  3.334001e-32
   endloop
 endfacet
 facet normal  7.596326e-01  6.503525e-01 -7.246259e-15
   outer loop
     vertex  2.432999e+02  1.642591e+02  3.429000e+00
     vertex  2.454663e+02  1.617287e+02  3.334001e-32
     vertex  2.432999e+02  1.642591e+02  2.585994e-32
   endloop
 endfacet
 facet normal  7.518398e-01  6.593458e-01 -6.143013e-15
   outer loop
     vertex  2.411036e+02  1.667635e+02  3.429000e+00
     vertex  2.432999e+02  1.642591e+02  3.429000e+00
     vertex  2.432999e+02  1.642591e+02  2.585994e-32
   endloop
 endfacet
 facet normal  7.518398e-01  6.593458e-01 -6.133187e-15
   outer loop
     vertex  2.411036e+02  1.667635e+02  3.429000e+00
     vertex  2.432999e+02  1.642591e+02  2.585994e-32
     vertex  2.411036e+02  1.667635e+02  1.837620e-32
   endloop
 endfacet
 facet normal  7.439406e-01  6.682458e-01 -5.054378e-15
   outer loop
     vertex  2.388777e+02  1.692416e+02  3.429000e+00
     vertex  2.411036e+02  1.667635e+02  3.429000e+00
     vertex  2.411036e+02  1.667635e+02  1.837620e-32
   endloop
 endfacet
 facet normal  7.439406e-01  6.682458e-01 -5.019247e-15
   outer loop
     vertex  2.388777e+02  1.692416e+02  3.429000e+00
     vertex  2.411036e+02  1.667635e+02  1.837620e-32
     vertex  2.388777e+02  1.692416e+02  1.088985e-32
   endloop
 endfacet
 facet normal  7.359360e-01  6.770511e-01 -3.887983e-15
   outer loop
     vertex  2.366224e+02  1.716930e+02  3.429000e+00
     vertex  2.388777e+02  1.692416e+02  3.429000e+00
     vertex  2.388777e+02  1.692416e+02  1.088985e-32
   endloop
 endfacet
 facet normal  7.359360e-01  6.770511e-01  2.195304e-15
   outer loop
     vertex  2.366224e+02  1.716930e+02  3.429000e+00
     vertex  2.388777e+02  1.692416e+02  1.088985e-32
     vertex  2.366224e+02  1.716930e+02  3.401968e-33
   endloop
 endfacet
 facet normal  7.278272e-01  6.857606e-01  3.265906e-15
   outer loop
     vertex  2.343381e+02  1.741174e+02  3.429000e+00
     vertex  2.366224e+02  1.716930e+02  3.429000e+00
     vertex  2.366224e+02  1.716930e+02  3.401968e-33
   endloop
 endfacet
 facet normal  7.278272e-01  6.857606e-01  2.894623e-15
   outer loop
     vertex  2.343381e+02  1.741174e+02  3.429000e+00
     vertex  2.366224e+02  1.716930e+02  3.401968e-33
     vertex  2.343381e+02  1.741174e+02 -4.086398e-33
   endloop
 endfacet
 facet normal  7.196153e-01  6.943730e-01  4.121262e-15
   outer loop
     vertex  2.320252e+02  1.765145e+02  3.429000e+00
     vertex  2.343381e+02  1.741174e+02  3.429000e+00
     vertex  2.343381e+02  1.741174e+02 -4.086398e-33
   endloop
 endfacet
 facet normal  7.196153e-01  6.943730e-01 -1.673793e-15
   outer loop
     vertex  2.320252e+02  1.765145e+02  3.429000e+00
     vertex  2.343381e+02  1.741174e+02 -4.086398e-33
     vertex  2.320252e+02  1.765145e+02 -1.157419e-32
   endloop
 endfacet
 facet normal  7.113015e-01  7.028870e-01 -5.443176e-16
   outer loop
     vertex  2.296838e+02  1.788838e+02  3.429000e+00
     vertex  2.320252e+02  1.765145e+02  3.429000e+00
     vertex  2.320252e+02  1.765145e+02 -1.157419e-32
   endloop
 endfacet
 facet normal  7.113015e-01  7.028870e-01 -6.383927e-15
   outer loop
     vertex  2.296838e+02  1.788838e+02  3.429000e+00
     vertex  2.320252e+02  1.765145e+02 -1.157419e-32
     vertex  2.296838e+02  1.788838e+02 -1.906033e-32
   endloop
 endfacet
 facet normal  7.028870e-01  7.113015e-01 -5.365416e-15
   outer loop
     vertex  2.273145e+02  1.812252e+02  3.429000e+00
     vertex  2.296838e+02  1.788838e+02  3.429000e+00
     vertex  2.296838e+02  1.788838e+02 -1.906033e-32
   endloop
 endfacet
 facet normal  7.028870e-01  7.113015e-01  5.579575e-16
   outer loop
     vertex  2.273145e+02  1.812252e+02  3.429000e+00
     vertex  2.296838e+02  1.788838e+02 -1.906033e-32
     vertex  2.273145e+02  1.812252e+02 -2.654378e-32
   endloop
 endfacet
 facet normal  6.943730e-01  7.196153e-01  1.710712e-15
   outer loop
     vertex  2.249174e+02  1.835381e+02  3.429000e+00
     vertex  2.273145e+02  1.812252e+02  3.429000e+00
     vertex  2.273145e+02  1.812252e+02 -2.654378e-32
   endloop
 endfacet
 facet normal  6.943730e-01  7.196153e-01 -4.290831e-15
   outer loop
     vertex  2.249174e+02  1.835381e+02  3.429000e+00
     vertex  2.273145e+02  1.812252e+02 -2.654378e-32
     vertex  2.249174e+02  1.835381e+02 -3.402347e-32
   endloop
 endfacet
 facet normal  6.857606e-01  7.278272e-01  2.440718e-15
   outer loop
     vertex  2.224930e+02  1.858224e+02  3.429000e+00
     vertex  2.249174e+02  1.835381e+02 -3.402347e-32
     vertex  2.224930e+02  1.858224e+02 -4.149835e-32
   endloop
 endfacet
 facet normal  6.857606e-01  7.278272e-01 -3.265906e-15
   outer loop
     vertex  2.224930e+02  1.858224e+02  3.429000e+00
     vertex  2.249174e+02  1.835381e+02  3.429000e+00
     vertex  2.249174e+02  1.835381e+02 -3.402347e-32
   endloop
 endfacet
 facet normal  6.770511e-01  7.359360e-01 -2.195304e-15
   outer loop
     vertex  2.200416e+02  1.880777e+02  3.429000e+00
     vertex  2.224930e+02  1.858224e+02 -4.149835e-32
     vertex  2.200416e+02  1.880777e+02 -4.896734e-32
   endloop
 endfacet
 facet normal  6.770511e-01  7.359360e-01  3.421425e-15
   outer loop
     vertex  2.200416e+02  1.880777e+02  3.429000e+00
     vertex  2.224930e+02  1.858224e+02  3.429000e+00
     vertex  2.224930e+02  1.858224e+02 -4.149835e-32
   endloop
 endfacet
 facet normal  6.682458e-01  7.439406e-01 -5.195945e-16
   outer loop
     vertex  2.175635e+02  1.903036e+02  3.429000e+00
     vertex  2.200416e+02  1.880777e+02 -4.896734e-32
     vertex  2.175635e+02  1.903036e+02 -5.642941e-32
   endloop
 endfacet
 facet normal  6.682458e-01  7.439406e-01 -1.088635e-15
   outer loop
     vertex  2.175635e+02  1.903036e+02  3.429000e+00
     vertex  2.200416e+02  1.880777e+02  3.429000e+00
     vertex  2.200416e+02  1.880777e+02 -4.896734e-32
   endloop
 endfacet
 facet normal  6.593458e-01  7.518398e-01  6.133187e-15
   outer loop
     vertex  2.150591e+02  1.924999e+02  3.429000e+00
     vertex  2.175635e+02  1.903036e+02 -5.642941e-32
     vertex  2.150591e+02  1.924999e+02 -6.388348e-32
   endloop
 endfacet
 facet normal  6.593458e-01  7.518398e-01  6.998369e-16
   outer loop
     vertex  2.150591e+02  1.924999e+02  3.429000e+00
     vertex  2.175635e+02  1.903036e+02  3.429000e+00
     vertex  2.175635e+02  1.903036e+02 -5.642941e-32
   endloop
 endfacet
 facet normal  6.503525e-01  7.596326e-01  7.246259e-15
   outer loop
     vertex  2.125287e+02  1.946663e+02  3.429000e+00
     vertex  2.150591e+02  1.924999e+02 -6.388348e-32
     vertex  2.125287e+02  1.946663e+02 -7.132850e-32
   endloop
 endfacet
 facet normal  6.412670e-01  7.673178e-01  8.358304e-15
   outer loop
     vertex  2.125287e+02  1.946663e+02  3.429000e+00
     vertex  2.125287e+02  1.946663e+02 -7.132850e-32
     vertex  2.099728e+02  1.968024e+02 -7.876343e-32
   endloop
 endfacet
 facet normal  6.503525e-01  7.596326e-01  7.231648e-15
   outer loop
     vertex  2.125287e+02  1.946663e+02  3.429000e+00
     vertex  2.150591e+02  1.924999e+02  3.429000e+00
     vertex  2.150591e+02  1.924999e+02 -6.388348e-32
   endloop
 endfacet
 facet normal  6.412670e-01  7.673178e-01  1.367353e-14
   outer loop
     vertex  2.099728e+02  1.968024e+02  3.429000e+00
     vertex  2.125287e+02  1.946663e+02  3.429000e+00
     vertex  2.099728e+02  1.968024e+02 -7.876343e-32
   endloop
 endfacet
 facet normal  6.320908e-01  7.748943e-01  1.862709e-15
   outer loop
     vertex  2.073916e+02  1.989079e+02  3.429000e+00
     vertex  2.099728e+02  1.968024e+02 -7.876343e-32
     vertex  2.073916e+02  1.989079e+02 -8.618720e-32
   endloop
 endfacet
 facet normal  6.320908e-01  7.748943e-01  1.469658e-14
   outer loop
     vertex  2.073916e+02  1.989079e+02  3.429000e+00
     vertex  2.099728e+02  1.968024e+02  3.429000e+00
     vertex  2.099728e+02  1.968024e+02 -7.876343e-32
   endloop
 endfacet
 facet normal  6.228250e-01  7.823612e-01  4.093986e-15
   outer loop
     vertex  2.047855e+02  2.009825e+02  3.429000e+00
     vertex  2.073916e+02  1.989079e+02 -8.618720e-32
     vertex  2.047855e+02  2.009825e+02 -9.359876e-32
   endloop
 endfacet
 facet normal  6.228250e-01  7.823612e-01  2.799348e-15
   outer loop
     vertex  2.047855e+02  2.009825e+02  3.429000e+00
     vertex  2.073916e+02  1.989079e+02  3.429000e+00
     vertex  2.073916e+02  1.989079e+02 -8.618720e-32
   endloop
 endfacet
 facet normal  6.134711e-01  7.897172e-01  5.620332e-17
   outer loop
     vertex  2.021549e+02  2.030260e+02  3.429000e+00
     vertex  2.047855e+02  2.009825e+02 -9.359876e-32
     vertex  2.021549e+02  2.030260e+02 -1.009971e-31
   endloop
 endfacet
 facet normal  6.040302e-01  7.969614e-01  1.180778e-15
   outer loop
     vertex  2.021549e+02  2.030260e+02  3.429000e+00
     vertex  2.021549e+02  2.030260e+02 -1.009971e-31
     vertex  1.995002e+02  2.050381e+02 -1.083811e-31
   endloop
 endfacet
 facet normal  6.134711e-01  7.897172e-01  5.132137e-15
   outer loop
     vertex  2.021549e+02  2.030260e+02  3.429000e+00
     vertex  2.047855e+02  2.009825e+02  3.429000e+00
     vertex  2.047855e+02  2.009825e+02 -9.359876e-32
   endloop
 endfacet
 facet normal  6.040302e-01  7.969614e-01  1.180778e-15
   outer loop
     vertex  1.995002e+02  2.050381e+02  3.429000e+00
     vertex  2.021549e+02  2.030260e+02  3.429000e+00
     vertex  1.995002e+02  2.050381e+02 -1.083811e-31
   endloop
 endfacet
 facet normal  5.945039e-01  8.040927e-01  5.679820e-16
   outer loop
     vertex  1.968218e+02  2.070184e+02  3.429000e+00
     vertex  1.995002e+02  2.050381e+02 -1.083811e-31
     vertex  1.968218e+02  2.070184e+02 -1.157497e-31
   endloop
 endfacet
 facet normal  5.945039e-01  8.040927e-01  2.332790e-15
   outer loop
     vertex  1.968218e+02  2.070184e+02  3.429000e+00
     vertex  1.995002e+02  2.050381e+02  3.429000e+00
     vertex  1.995002e+02  2.050381e+02 -1.083811e-31
   endloop
 endfacet
 facet normal  5.848933e-01  8.111102e-01 -3.293724e-15
   outer loop
     vertex  1.941199e+02  2.089667e+02  3.429000e+00
     vertex  1.968218e+02  2.070184e+02 -1.157497e-31
     vertex  1.941199e+02  2.089667e+02 -1.231020e-31
   endloop
 endfacet
 facet normal  5.848933e-01  8.111102e-01  1.555193e-15
   outer loop
     vertex  1.941199e+02  2.089667e+02  3.429000e+00
     vertex  1.968218e+02  2.070184e+02  3.429000e+00
     vertex  1.968218e+02  2.070184e+02 -1.157497e-31
   endloop
 endfacet
 facet normal  5.752000e-01  8.180128e-01 -4.239927e-15
   outer loop
     vertex  1.913951e+02  2.108827e+02  3.429000e+00
     vertex  1.941199e+02  2.089667e+02 -1.231020e-31
     vertex  1.913951e+02  2.108827e+02 -1.304369e-31
   endloop
 endfacet
 facet normal  5.752000e-01  8.180128e-01 -2.177270e-15
   outer loop
     vertex  1.913951e+02  2.108827e+02  3.429000e+00
     vertex  1.941199e+02  2.089667e+02  3.429000e+00
     vertex  1.941199e+02  2.089667e+02 -1.231020e-31
   endloop
 endfacet
 facet normal  5.654251e-01  8.247996e-01  1.036241e-14
   outer loop
     vertex  1.886477e+02  2.127661e+02  3.429000e+00
     vertex  1.913951e+02  2.108827e+02 -1.304369e-31
     vertex  1.886477e+02  2.127661e+02 -1.377532e-31
   endloop
 endfacet
 facet normal  5.654251e-01  8.247996e-01 -3.343665e-15
   outer loop
     vertex  1.886477e+02  2.127661e+02  3.429000e+00
     vertex  1.913951e+02  2.108827e+02  3.429000e+00
     vertex  1.913951e+02  2.108827e+02 -1.304369e-31
   endloop
 endfacet
 facet normal  5.555702e-01  8.314696e-01 -9.378106e-17
   outer loop
     vertex  1.858780e+02  2.146167e+02  3.429000e+00
     vertex  1.886477e+02  2.127661e+02 -1.377532e-31
     vertex  1.858780e+02  2.146167e+02 -1.450501e-31
   endloop
 endfacet
 facet normal  5.555702e-01  8.314696e-01  1.143067e-14
   outer loop
     vertex  1.858780e+02  2.146167e+02  3.429000e+00
     vertex  1.886477e+02  2.127661e+02  3.429000e+00
     vertex  1.886477e+02  2.127661e+02 -1.377532e-31
   endloop
 endfacet
 facet normal  5.456367e-01  8.380219e-01 -5.972958e-15
   outer loop
     vertex  1.830866e+02  2.164343e+02  3.429000e+00
     vertex  1.858780e+02  2.146167e+02 -1.450501e-31
     vertex  1.830866e+02  2.164343e+02 -1.523264e-31
   endloop
 endfacet
 facet normal  5.456367e-01  8.380219e-01  9.331159e-16
   outer loop
     vertex  1.830866e+02  2.164343e+02  3.429000e+00
     vertex  1.858780e+02  2.146167e+02  3.429000e+00
     vertex  1.858780e+02  2.146167e+02 -1.450501e-31
   endloop
 endfacet
 facet normal  5.356258e-01  8.444554e-01 -4.898858e-15
   outer loop
     vertex  1.802737e+02  2.182185e+02  3.429000e+00
     vertex  1.830866e+02  2.164343e+02  3.429000e+00
     vertex  1.830866e+02  2.164343e+02 -1.523264e-31
   endloop
 endfacet
 facet normal  5.356258e-01  8.444554e-01 -4.959545e-15
   outer loop
     vertex  1.802737e+02  2.182185e+02  3.429000e+00
     vertex  1.830866e+02  2.164343e+02 -1.523264e-31
     vertex  1.802737e+02  2.182185e+02 -1.595812e-31
   endloop
 endfacet
 facet normal  5.255391e-01  8.507694e-01 -3.965742e-15
   outer loop
     vertex  1.774397e+02  2.199690e+02  3.429000e+00
     vertex  1.802737e+02  2.182185e+02  3.429000e+00
     vertex  1.802737e+02  2.182185e+02 -1.595812e-31
   endloop
 endfacet
 facet normal  5.255391e-01  8.507694e-01 -3.945431e-15
   outer loop
     vertex  1.774397e+02  2.199690e+02  3.429000e+00
     vertex  1.802737e+02  2.182185e+02 -1.595812e-31
     vertex  1.774397e+02  2.199690e+02 -1.668133e-31
   endloop
 endfacet
 facet normal  5.153780e-01  8.569629e-01 -2.954867e-15
   outer loop
     vertex  1.745851e+02  2.216858e+02  3.429000e+00
     vertex  1.774397e+02  2.199690e+02  3.429000e+00
     vertex  1.774397e+02  2.199690e+02 -1.668133e-31
   endloop
 endfacet
 facet normal  5.153780e-01  8.569629e-01  4.172291e-15
   outer loop
     vertex  1.745851e+02  2.216858e+02  3.429000e+00
     vertex  1.774397e+02  2.199690e+02 -1.668133e-31
     vertex  1.745851e+02  2.216858e+02 -1.740218e-31
   endloop
 endfacet
 facet normal  5.051440e-01  8.630351e-01  5.209897e-15
   outer loop
     vertex  1.717104e+02  2.233684e+02  3.429000e+00
     vertex  1.745851e+02  2.216858e+02  3.429000e+00
     vertex  1.745851e+02  2.216858e+02 -1.740218e-31
   endloop
 endfacet
 facet normal  5.051440e-01  8.630351e-01 -1.915669e-15
   outer loop
     vertex  1.717104e+02  2.233684e+02  3.429000e+00
     vertex  1.745851e+02  2.216858e+02 -1.740218e-31
     vertex  1.717104e+02  2.233684e+02 -1.812057e-31
   endloop
 endfacet
 facet normal  4.948383e-01  8.689850e-01 -9.003094e-16
   outer loop
     vertex  1.717104e+02  2.233684e+02  3.429000e+00
     vertex  1.717104e+02  2.233684e+02 -1.812057e-31
     vertex  1.688157e+02  2.250168e+02 -1.883640e-31
   endloop
 endfacet
 facet normal  4.948383e-01  8.689850e-01 -1.220454e-14
   outer loop
     vertex  1.688157e+02  2.250168e+02  3.429000e+00
     vertex  1.717104e+02  2.233684e+02  3.429000e+00
     vertex  1.688157e+02  2.250168e+02 -1.883640e-31
   endloop
 endfacet
 facet normal  4.844627e-01  8.748119e-01 -3.900354e-15
   outer loop
     vertex  1.659017e+02  2.266305e+02  3.429000e+00
     vertex  1.688157e+02  2.250168e+02 -1.883640e-31
     vertex  1.659017e+02  2.266305e+02 -1.954955e-31
   endloop
 endfacet
 facet normal  4.844627e-01  8.748119e-01 -1.119739e-14
   outer loop
     vertex  1.659017e+02  2.266305e+02  3.429000e+00
     vertex  1.688157e+02  2.250168e+02  3.429000e+00
     vertex  1.688157e+02  2.250168e+02 -1.883640e-31
   endloop
 endfacet
 facet normal  4.740184e-01  8.805150e-01  8.428911e-15
   outer loop
     vertex  1.629687e+02  2.282095e+02  3.429000e+00
     vertex  1.659017e+02  2.266305e+02 -1.954955e-31
     vertex  1.629687e+02  2.282095e+02 -2.025994e-31
   endloop
 endfacet
 facet normal  4.740184e-01  8.805150e-01 -2.799348e-15
   outer loop
     vertex  1.629687e+02  2.282095e+02  3.429000e+00
     vertex  1.659017e+02  2.266305e+02  3.429000e+00
     vertex  1.659017e+02  2.266305e+02 -1.954955e-31
   endloop
 endfacet
 facet normal  4.635069e-01  8.860933e-01 -5.198539e-15
   outer loop
     vertex  1.600171e+02  2.297534e+02  3.429000e+00
     vertex  1.629687e+02  2.282095e+02 -2.025994e-31
     vertex  1.600171e+02  2.297534e+02 -2.096746e-31
   endloop
 endfacet
 facet normal  4.635069e-01  8.860933e-01  9.486678e-15
   outer loop
     vertex  1.600171e+02  2.297534e+02  3.429000e+00
     vertex  1.629687e+02  2.282095e+02  3.429000e+00
     vertex  1.629687e+02  2.282095e+02 -2.025994e-31
   endloop
 endfacet
 facet normal  4.529299e-01  8.915461e-01  3.160966e-15
   outer loop
     vertex  1.570473e+02  2.312622e+02  3.429000e+00
     vertex  1.600171e+02  2.297534e+02 -2.096746e-31
     vertex  1.570473e+02  2.312622e+02 -2.167200e-31
   endloop
 endfacet
 facet normal  4.529299e-01  8.915461e-01 -4.199021e-15
   outer loop
     vertex  1.570473e+02  2.312622e+02  3.429000e+00
     vertex  1.600171e+02  2.297534e+02  3.429000e+00
     vertex  1.600171e+02  2.297534e+02 -2.096746e-31
   endloop
 endfacet
 facet normal  4.422887e-01  8.968727e-01 -6.924287e-15
   outer loop
     vertex  1.540598e+02  2.327354e+02  3.429000e+00
     vertex  1.570473e+02  2.312622e+02 -2.167200e-31
     vertex  1.540598e+02  2.327354e+02 -2.237348e-31
   endloop
 endfacet
 facet normal  4.315849e-01  9.020723e-01 -5.864697e-15
   outer loop
     vertex  1.540598e+02  2.327354e+02  3.429000e+00
     vertex  1.540598e+02  2.327354e+02 -2.237348e-31
     vertex  1.510550e+02  2.341731e+02 -2.307180e-31
   endloop
 endfacet
 facet normal  4.422887e-01  8.968727e-01  4.121262e-15
   outer loop
     vertex  1.540598e+02  2.327354e+02  3.429000e+00
     vertex  1.570473e+02  2.312622e+02  3.429000e+00
     vertex  1.570473e+02  2.312622e+02 -2.167200e-31
   endloop
 endfacet
 facet normal  4.315849e-01  9.020723e-01  9.089190e-15
   outer loop
     vertex  1.510550e+02  2.341731e+02  3.429000e+00
     vertex  1.540598e+02  2.327354e+02  3.429000e+00
     vertex  1.510550e+02  2.341731e+02 -2.307180e-31
   endloop
 endfacet
 facet normal  4.208199e-01  9.071442e-01 -1.316255e-15
   outer loop
     vertex  1.480333e+02  2.355748e+02  3.429000e+00
     vertex  1.510550e+02  2.341731e+02 -2.307180e-31
     vertex  1.480333e+02  2.355748e+02 -2.376684e-31
   endloop
 endfacet
 facet normal  4.208199e-01  9.071442e-01  1.018651e-14
   outer loop
     vertex  1.480333e+02  2.355748e+02  3.429000e+00
     vertex  1.510550e+02  2.341731e+02  3.429000e+00
     vertex  1.510550e+02  2.341731e+02 -2.307180e-31
   endloop
 endfacet
 facet normal  4.099954e-01  9.120876e-01  3.816781e-15
   outer loop
     vertex  1.449951e+02  2.369405e+02  3.429000e+00
     vertex  1.480333e+02  2.355748e+02 -2.376684e-31
     vertex  1.449951e+02  2.369405e+02 -2.445852e-31
   endloop
 endfacet
 facet normal  3.991128e-01  9.169018e-01  4.918316e-15
   outer loop
     vertex  1.449951e+02  2.369405e+02  3.429000e+00
     vertex  1.449951e+02  2.369405e+02 -2.445852e-31
     vertex  1.419408e+02  2.382700e+02 -2.514674e-31
   endloop
 endfacet
 facet normal  4.099954e-01  9.120876e-01 -3.110386e-16
   outer loop
     vertex  1.449951e+02  2.369405e+02  3.429000e+00
     vertex  1.480333e+02  2.355748e+02  3.429000e+00
     vertex  1.480333e+02  2.355748e+02 -2.376684e-31
   endloop
 endfacet
 facet normal  3.991128e-01  9.169018e-01 -2.681543e-15
   outer loop
     vertex  1.419408e+02  2.382700e+02  3.429000e+00
     vertex  1.449951e+02  2.369405e+02  3.429000e+00
     vertex  1.419408e+02  2.382700e+02 -2.514674e-31
   endloop
 endfacet
 facet normal  3.881737e-01  9.215862e-01 -1.689691e-14
   outer loop
     vertex  1.388710e+02  2.395630e+02  3.429000e+00
     vertex  1.419408e+02  2.382700e+02 -2.514674e-31
     vertex  1.388710e+02  2.395630e+02 -2.583139e-31
   endloop
 endfacet
 facet normal  3.771796e-01  9.261401e-01 -1.591016e-14
   outer loop
     vertex  1.388710e+02  2.395630e+02  3.429000e+00
     vertex  1.388710e+02  2.395630e+02 -2.583139e-31
     vertex  1.357860e+02  2.408194e+02 -2.651239e-31
   endloop
 endfacet
 facet normal  3.881737e-01  9.215862e-01 -1.632953e-15
   outer loop
     vertex  1.388710e+02  2.395630e+02  3.429000e+00
     vertex  1.419408e+02  2.382700e+02  3.429000e+00
     vertex  1.419408e+02  2.382700e+02 -2.514674e-31
   endloop
 endfacet
 facet normal  3.771796e-01  9.261401e-01 -1.591016e-14
   outer loop
     vertex  1.357860e+02  2.408194e+02  3.429000e+00
     vertex  1.388710e+02  2.395630e+02  3.429000e+00
     vertex  1.357860e+02  2.408194e+02 -2.651239e-31
   endloop
 endfacet
 facet normal  3.661321e-01  9.305629e-01  3.539761e-15
   outer loop
     vertex  1.326863e+02  2.420390e+02  3.429000e+00
     vertex  1.357860e+02  2.408194e+02 -2.651239e-31
     vertex  1.326863e+02  2.420390e+02 -2.718963e-31
   endloop
 endfacet
 facet normal  3.661321e-01  9.305629e-01 -1.492985e-14
   outer loop
     vertex  1.326863e+02  2.420390e+02  3.429000e+00
     vertex  1.357860e+02  2.408194e+02  3.429000e+00
     vertex  1.357860e+02  2.408194e+02 -2.651239e-31
   endloop
 endfacet
 facet normal  3.550328e-01  9.348538e-01  1.567275e-15
   outer loop
     vertex  1.295723e+02  2.432216e+02  3.429000e+00
     vertex  1.326863e+02  2.420390e+02 -2.718963e-31
     vertex  1.295723e+02  2.432216e+02 -2.786302e-31
   endloop
 endfacet
 facet normal  3.438832e-01  9.390124e-01  2.629301e-15
   outer loop
     vertex  1.295723e+02  2.432216e+02  3.429000e+00
     vertex  1.295723e+02  2.432216e+02 -2.786302e-31
     vertex  1.264444e+02  2.443671e+02 -2.853247e-31
   endloop
 endfacet
 facet normal  3.550328e-01  9.348538e-01  4.510060e-15
   outer loop
     vertex  1.295723e+02  2.432216e+02  3.429000e+00
     vertex  1.326863e+02  2.420390e+02  3.429000e+00
     vertex  1.326863e+02  2.420390e+02 -2.718963e-31
   endloop
 endfacet
 facet normal  3.438832e-01  9.390124e-01 -1.293695e-14
   outer loop
     vertex  1.264444e+02  2.443671e+02  3.429000e+00
     vertex  1.295723e+02  2.432216e+02  3.429000e+00
     vertex  1.264444e+02  2.443671e+02 -2.853247e-31
   endloop
 endfacet
 facet normal  3.326849e-01  9.430381e-01  5.069705e-15
   outer loop
     vertex  1.233031e+02  2.454753e+02  3.429000e+00
     vertex  1.264444e+02  2.443671e+02 -2.853247e-31
     vertex  1.233031e+02  2.454753e+02 -2.919787e-31
   endloop
 endfacet
 facet normal  3.326849e-01  9.430381e-01 -1.193611e-14
   outer loop
     vertex  1.233031e+02  2.454753e+02  3.429000e+00
     vertex  1.264444e+02  2.443671e+02  3.429000e+00
     vertex  1.264444e+02  2.443671e+02 -2.853247e-31
   endloop
 endfacet
 facet normal  3.214395e-01  9.469301e-01  6.084232e-15
   outer loop
     vertex  1.201488e+02  2.465460e+02  3.429000e+00
     vertex  1.233031e+02  2.454753e+02 -2.919787e-31
     vertex  1.201488e+02  2.465460e+02 -2.985914e-31
   endloop
 endfacet
 facet normal  3.214395e-01  9.469301e-01  6.065253e-15
   outer loop
     vertex  1.201488e+02  2.465460e+02  3.429000e+00
     vertex  1.233031e+02  2.454753e+02  3.429000e+00
     vertex  1.233031e+02  2.454753e+02 -2.919787e-31
   endloop
 endfacet
 facet normal  3.101485e-01  9.506881e-01  5.812543e-15
   outer loop
     vertex  1.169821e+02  2.475791e+02  3.429000e+00
     vertex  1.201488e+02  2.465460e+02 -2.985914e-31
     vertex  1.169821e+02  2.475791e+02 -3.051619e-31
   endloop
 endfacet
 facet normal  3.101485e-01  9.506881e-01  7.076129e-15
   outer loop
     vertex  1.169821e+02  2.475791e+02  3.429000e+00
     vertex  1.201488e+02  2.465460e+02  3.429000e+00
     vertex  1.201488e+02  2.465460e+02 -2.985914e-31
   endloop
 endfacet
 facet normal  2.988137e-01  9.543115e-01 -8.947690e-15
   outer loop
     vertex  1.138032e+02  2.485745e+02  3.429000e+00
     vertex  1.169821e+02  2.475791e+02 -3.051619e-31
     vertex  1.138032e+02  2.485745e+02 -3.116891e-31
   endloop
 endfacet
 facet normal  2.988137e-01  9.543115e-01  6.881730e-15
   outer loop
     vertex  1.138032e+02  2.485745e+02  3.429000e+00
     vertex  1.169821e+02  2.475791e+02  3.429000e+00
     vertex  1.169821e+02  2.475791e+02 -3.051619e-31
   endloop
 endfacet
 facet normal  2.874365e-01  9.577997e-01 -9.138080e-15
   outer loop
     vertex  1.106128e+02  2.495319e+02  3.429000e+00
     vertex  1.138032e+02  2.485745e+02 -3.116891e-31
     vertex  1.106128e+02  2.495319e+02 -3.181722e-31
   endloop
 endfacet
 facet normal  2.760186e-01  9.611523e-01 -8.088799e-15
   outer loop
     vertex  1.106128e+02  2.495319e+02  3.429000e+00
     vertex  1.106128e+02  2.495319e+02 -3.181722e-31
     vertex  1.074111e+02  2.504514e+02 -3.246102e-31
   endloop
 endfacet
 facet normal  2.874365e-01  9.577997e-01 -7.970365e-15
   outer loop
     vertex  1.106128e+02  2.495319e+02  3.429000e+00
     vertex  1.138032e+02  2.485745e+02  3.429000e+00
     vertex  1.138032e+02  2.485745e+02 -3.116891e-31
   endloop
 endfacet
 facet normal  2.645617e-01  9.643688e-01 -7.038373e-15
   outer loop
     vertex  1.074111e+02  2.504514e+02  3.429000e+00
     vertex  1.074111e+02  2.504514e+02 -3.246102e-31
     vertex  1.041988e+02  2.513326e+02 -3.310022e-31
   endloop
 endfacet
 facet normal  2.760186e-01  9.611523e-01 -8.088799e-15
   outer loop
     vertex  1.074111e+02  2.504514e+02  3.429000e+00
     vertex  1.106128e+02  2.495319e+02  3.429000e+00
     vertex  1.074111e+02  2.504514e+02 -3.246102e-31
   endloop
 endfacet
 facet normal  2.645617e-01  9.643688e-01  8.948217e-15
   outer loop
     vertex  1.041988e+02  2.513326e+02  3.429000e+00
     vertex  1.074111e+02  2.504514e+02  3.429000e+00
     vertex  1.041988e+02  2.513326e+02 -3.310022e-31
   endloop
 endfacet
 facet normal  2.530673e-01  9.674487e-01  1.006988e-14
   outer loop
     vertex  1.009762e+02  2.521756e+02  3.429000e+00
     vertex  1.041988e+02  2.513326e+02  3.429000e+00
     vertex  1.041988e+02  2.513326e+02 -3.310022e-31
   endloop
 endfacet
 facet normal  2.530673e-01  9.674487e-01  1.005070e-14
   outer loop
     vertex  1.009762e+02  2.521756e+02  3.429000e+00
     vertex  1.041988e+02  2.513326e+02 -3.310022e-31
     vertex  1.009762e+02  2.521756e+02 -3.373474e-31
   endloop
 endfacet
 facet normal  2.415370e-01  9.703916e-01  1.115175e-14
   outer loop
     vertex  1.009762e+02  2.521756e+02  3.429000e+00
     vertex  1.009762e+02  2.521756e+02 -3.373474e-31
     vertex  9.774381e+01  2.529802e+02 -3.436448e-31
   endloop
 endfacet
 facet normal  2.415370e-01  9.703916e-01 -3.933673e-15
   outer loop
     vertex  9.774381e+01  2.529802e+02  3.429000e+00
     vertex  1.009762e+02  2.521756e+02  3.429000e+00
     vertex  9.774381e+01  2.529802e+02 -3.436448e-31
   endloop
 endfacet
 facet normal  2.299725e-01  9.731971e-01 -2.928630e-15
   outer loop
     vertex  9.774381e+01  2.529802e+02  3.429000e+00
     vertex  9.774381e+01  2.529802e+02 -3.436448e-31
     vertex  9.450206e+01  2.537462e+02 -3.498936e-31
   endloop
 endfacet
 facet normal  2.299725e-01  9.731971e-01 -3.881709e-15
   outer loop
     vertex  9.450206e+01  2.537462e+02  3.429000e+00
     vertex  9.774381e+01  2.529802e+02  3.429000e+00
     vertex  9.450206e+01  2.537462e+02 -3.498936e-31
   endloop
 endfacet
 facet normal  2.183755e-01  9.758648e-01 -2.838227e-15
   outer loop
     vertex  9.125142e+01  2.544736e+02  3.429000e+00
     vertex  9.450206e+01  2.537462e+02  3.429000e+00
     vertex  9.450206e+01  2.537462e+02 -3.498936e-31
   endloop
 endfacet
 facet normal  2.183755e-01  9.758648e-01 -2.828189e-15
   outer loop
     vertex  9.125142e+01  2.544736e+02  3.429000e+00
     vertex  9.450206e+01  2.537462e+02 -3.498936e-31
     vertex  9.125142e+01  2.544736e+02 -3.560928e-31
   endloop
 endfacet
 facet normal  2.067476e-01  9.783943e-01 -1.774269e-15
   outer loop
     vertex  9.125142e+01  2.544736e+02  3.429000e+00
     vertex  9.125142e+01  2.544736e+02 -3.560928e-31
     vertex  8.799236e+01  2.551623e+02 -3.622416e-31
   endloop
 endfacet
 facet normal  2.067476e-01  9.783943e-01 -2.631096e-15
   outer loop
     vertex  8.799236e+01  2.551623e+02  3.429000e+00
     vertex  9.125142e+01  2.544736e+02  3.429000e+00
     vertex  8.799236e+01  2.551623e+02 -3.622416e-31
   endloop
 endfacet
 facet normal  1.950903e-01  9.807853e-01 -1.528614e-15
   outer loop
     vertex  8.799236e+01  2.551623e+02  3.429000e+00
     vertex  8.799236e+01  2.551623e+02 -3.622416e-31
     vertex  8.472534e+01  2.558122e+02 -3.683391e-31
   endloop
 endfacet
 facet normal  1.950903e-01  9.807853e-01 -1.697883e-14
   outer loop
     vertex  8.472534e+01  2.558122e+02  3.429000e+00
     vertex  8.799236e+01  2.551623e+02  3.429000e+00
     vertex  8.472534e+01  2.558122e+02 -3.683391e-31
   endloop
 endfacet
 facet normal  1.834055e-01  9.830374e-01 -1.597961e-14
   outer loop
     vertex  8.145081e+01  2.564231e+02  3.429000e+00
     vertex  8.472534e+01  2.558122e+02  3.429000e+00
     vertex  8.472534e+01  2.558122e+02 -3.683391e-31
   endloop
 endfacet
 facet normal  1.834055e-01  9.830374e-01 -4.259148e-16
   outer loop
     vertex  8.145081e+01  2.564231e+02  3.429000e+00
     vertex  8.472534e+01  2.558122e+02 -3.683391e-31
     vertex  8.145081e+01  2.564231e+02 -3.743844e-31
   endloop
 endfacet
 facet normal  1.716946e-01  9.851502e-01  6.803970e-16
   outer loop
     vertex  7.816925e+01  2.569950e+02  3.429000e+00
     vertex  8.145081e+01  2.564231e+02  3.429000e+00
     vertex  8.145081e+01  2.564231e+02 -3.743844e-31
   endloop
 endfacet
 facet normal  1.716946e-01  9.851502e-01  6.768444e-16
   outer loop
     vertex  7.816925e+01  2.569950e+02  3.429000e+00
     vertex  8.145081e+01  2.564231e+02 -3.743844e-31
     vertex  7.816925e+01  2.569950e+02 -3.803767e-31
   endloop
 endfacet
 facet normal  1.599595e-01  9.871236e-01  1.788472e-15
   outer loop
     vertex  7.488111e+01  2.575278e+02  3.429000e+00
     vertex  7.816925e+01  2.569950e+02  3.429000e+00
     vertex  7.816925e+01  2.569950e+02 -3.803767e-31
   endloop
 endfacet
 facet normal  1.599595e-01  9.871236e-01  2.442430e-15
   outer loop
     vertex  7.488111e+01  2.575278e+02  3.429000e+00
     vertex  7.816925e+01  2.569950e+02 -3.803767e-31
     vertex  7.488111e+01  2.575278e+02 -3.863151e-31
   endloop
 endfacet
 facet normal  1.482017e-01  9.889572e-01  3.496114e-15
   outer loop
     vertex  7.488111e+01  2.575278e+02  3.429000e+00
     vertex  7.488111e+01  2.575278e+02 -3.863151e-31
     vertex  7.158687e+01  2.580215e+02 -3.921989e-31
   endloop
 endfacet
 facet normal  1.482017e-01  9.889572e-01  4.110308e-15
   outer loop
     vertex  7.158687e+01  2.580215e+02  3.429000e+00
     vertex  7.488111e+01  2.575278e+02  3.429000e+00
     vertex  7.158687e+01  2.580215e+02 -3.921989e-31
   endloop
 endfacet
 facet normal  1.364229e-01  9.906507e-01  5.114682e-15
   outer loop
     vertex  7.158687e+01  2.580215e+02  3.429000e+00
     vertex  7.158687e+01  2.580215e+02 -3.921989e-31
     vertex  6.828698e+01  2.584759e+02 -3.980271e-31
   endloop
 endfacet
 facet normal  1.364229e-01  9.906507e-01 -1.187297e-14
   outer loop
     vertex  6.828698e+01  2.584759e+02  3.429000e+00
     vertex  7.158687e+01  2.580215e+02  3.429000e+00
     vertex  6.828698e+01  2.584759e+02 -3.980271e-31
   endloop
 endfacet
 facet normal  1.246248e-01  9.922039e-01 -1.084747e-14
   outer loop
     vertex  6.498192e+01  2.588911e+02  3.429000e+00
     vertex  6.828698e+01  2.584759e+02  3.429000e+00
     vertex  6.828698e+01  2.584759e+02 -3.980271e-31
   endloop
 endfacet
 facet normal  1.246248e-01  9.922039e-01  5.085362e-15
   outer loop
     vertex  6.498192e+01  2.588911e+02  3.429000e+00
     vertex  6.828698e+01  2.584759e+02 -3.980271e-31
     vertex  6.498192e+01  2.588911e+02 -4.037989e-31
   endloop
 endfacet
 facet normal  1.128091e-01  9.936167e-01  6.186081e-15
   outer loop
     vertex  6.498192e+01  2.588911e+02  3.429000e+00
     vertex  6.498192e+01  2.588911e+02 -4.037989e-31
     vertex  6.167216e+01  2.592668e+02 -4.095135e-31
   endloop
 endfacet
 facet normal  1.128091e-01  9.936167e-01 -1.005160e-14
   outer loop
     vertex  6.167216e+01  2.592668e+02  3.429000e+00
     vertex  6.498192e+01  2.588911e+02  3.429000e+00
     vertex  6.167216e+01  2.592668e+02 -4.095135e-31
   endloop
 endfacet
 facet normal  1.009774e-01  9.948887e-01 -8.997363e-15
   outer loop
     vertex  5.835815e+01  2.596032e+02  3.429000e+00
     vertex  6.167216e+01  2.592668e+02 -4.095135e-31
     vertex  5.835815e+01  2.596032e+02 -4.151702e-31
   endloop
 endfacet
 facet normal  1.009774e-01  9.948887e-01 -9.000680e-15
   outer loop
     vertex  5.835815e+01  2.596032e+02  3.429000e+00
     vertex  6.167216e+01  2.592668e+02  3.429000e+00
     vertex  6.167216e+01  2.592668e+02 -4.095135e-31
   endloop
 endfacet
 facet normal  8.913135e-02  9.960199e-01  8.754123e-15
   outer loop
     vertex  5.504038e+01  2.599001e+02  3.429000e+00
     vertex  5.835815e+01  2.596032e+02 -4.151702e-31
     vertex  5.504038e+01  2.599001e+02 -4.207681e-31
   endloop
 endfacet
 facet normal  7.727271e-02  9.970100e-01  9.802601e-15
   outer loop
     vertex  5.504038e+01  2.599001e+02  3.429000e+00
     vertex  5.504038e+01  2.599001e+02 -4.207681e-31
     vertex  5.171931e+01  2.601575e+02 -4.263064e-31
   endloop
 endfacet
 facet normal  8.913135e-02  9.960199e-01 -7.941205e-15
   outer loop
     vertex  5.504038e+01  2.599001e+02  3.429000e+00
     vertex  5.835815e+01  2.596032e+02  3.429000e+00
     vertex  5.835815e+01  2.596032e+02 -4.151702e-31
   endloop
 endfacet
 facet normal  7.727271e-02  9.970100e-01 -6.885212e-15
   outer loop
     vertex  5.171931e+01  2.601575e+02  3.429000e+00
     vertex  5.504038e+01  2.599001e+02  3.429000e+00
     vertex  5.171931e+01  2.601575e+02 -4.263064e-31
   endloop
 endfacet
 facet normal  6.540313e-02  9.978589e-01 -5.827600e-15
   outer loop
     vertex  4.839542e+01  2.603754e+02  3.429000e+00
     vertex  5.171931e+01  2.601575e+02 -4.263064e-31
     vertex  4.839542e+01  2.603754e+02 -4.317843e-31
   endloop
 endfacet
 facet normal  5.352429e-02  9.985665e-01 -4.769162e-15
   outer loop
     vertex  4.839542e+01  2.603754e+02  3.429000e+00
     vertex  4.839542e+01  2.603754e+02 -4.317843e-31
     vertex  4.506916e+01  2.605536e+02 -4.372011e-31
   endloop
 endfacet
 facet normal  6.540313e-02  9.978589e-01 -5.831974e-15
   outer loop
     vertex  4.839542e+01  2.603754e+02  3.429000e+00
     vertex  5.171931e+01  2.601575e+02  3.429000e+00
     vertex  5.171931e+01  2.601575e+02 -4.263064e-31
   endloop
 endfacet
 facet normal  5.352429e-02  9.985665e-01 -4.769162e-15
   outer loop
     vertex  4.506916e+01  2.605536e+02  3.429000e+00
     vertex  4.839542e+01  2.603754e+02  3.429000e+00
     vertex  4.506916e+01  2.605536e+02 -4.372011e-31
   endloop
 endfacet
 facet normal  4.163786e-02  9.991328e-01 -3.623768e-15
   outer loop
     vertex  4.174102e+01  2.606923e+02  3.429000e+00
     vertex  4.506916e+01  2.605536e+02 -4.372011e-31
     vertex  4.174102e+01  2.606923e+02 -4.425559e-31
   endloop
 endfacet
 facet normal  4.163786e-02  9.991328e-01 -3.708164e-15
   outer loop
     vertex  4.174102e+01  2.606923e+02  3.429000e+00
     vertex  4.506916e+01  2.605536e+02  3.429000e+00
     vertex  4.506916e+01  2.605536e+02 -4.372011e-31
   endloop
 endfacet
 facet normal  2.974554e-02  9.995575e-01 -2.588773e-15
   outer loop
     vertex  3.841147e+01  2.607914e+02  3.429000e+00
     vertex  4.174102e+01  2.606923e+02 -4.425559e-31
     vertex  3.841147e+01  2.607914e+02 -4.478481e-31
   endloop
 endfacet
 facet normal  2.974554e-02  9.995575e-01 -2.590369e-15
   outer loop
     vertex  3.841147e+01  2.607914e+02  3.429000e+00
     vertex  4.174102e+01  2.606923e+02  3.429000e+00
     vertex  4.174102e+01  2.606923e+02 -4.425559e-31
   endloop
 endfacet
 facet normal  1.784901e-02  9.998407e-01 -1.590396e-15
   outer loop
     vertex  3.508097e+01  2.608509e+02  3.429000e+00
     vertex  3.841147e+01  2.607914e+02 -4.478481e-31
     vertex  3.508097e+01  2.608509e+02 -4.530769e-31
   endloop
 endfacet
 facet normal  5.949951e-03  9.999823e-01 -5.301571e-16
   outer loop
     vertex  3.508097e+01  2.608509e+02  3.429000e+00
     vertex  3.508097e+01  2.608509e+02 -4.530769e-31
     vertex  3.175000e+01  2.608707e+02  0.000000e+00
   endloop
 endfacet
 facet normal  1.784901e-02  9.998407e-01 -1.552763e-15
   outer loop
     vertex  3.508097e+01  2.608509e+02  3.429000e+00
     vertex  3.841147e+01  2.607914e+02  3.429000e+00
     vertex  3.841147e+01  2.607914e+02 -4.478481e-31
   endloop
 endfacet
 facet normal  5.949951e-03  9.999823e-01  0.000000e+00
   outer loop
     vertex  3.175000e+01  2.608707e+02  3.429000e+00
     vertex  3.508097e+01  2.608509e+02  3.429000e+00
     vertex  3.175000e+01  2.608707e+02  0.000000e+00
   endloop
 endfacet
endsolid
