solid 
 facet normal  9.989931e-01  4.486483e-02  8.947350e-16
   outer loop
     vertex -4.743328e+00 -1.829894e+02  2.381250e+00
     vertex -4.762500e+00 -1.825625e+02 -3.571240e+00
     vertex -4.762500e+00 -1.825625e+02  2.381250e+00
   endloop
 endfacet
 facet normal  9.989931e-01  4.486483e-02  7.453050e-16
   outer loop
     vertex -4.743328e+00 -1.829894e+02  2.381250e+00
     vertex -4.743328e+00 -1.829894e+02 -3.571240e+00
     vertex -4.762500e+00 -1.825625e+02 -3.571240e+00
   endloop
 endfacet
 facet normal  9.909498e-01  1.342333e-01  8.871651e-16
   outer loop
     vertex -4.685965e+00 -1.834129e+02  2.381250e+00
     vertex -4.685965e+00 -1.834129e+02 -3.571240e+00
     vertex -4.743328e+00 -1.829894e+02 -3.571240e+00
   endloop
 endfacet
 facet normal  9.909498e-01  1.342333e-01  7.392475e-16
   outer loop
     vertex -4.685965e+00 -1.834129e+02  2.381250e+00
     vertex -4.743328e+00 -1.829894e+02 -3.571240e+00
     vertex -4.743328e+00 -1.829894e+02  2.381250e+00
   endloop
 endfacet
 facet normal  9.749279e-01  2.225209e-01  8.728212e-16
   outer loop
     vertex -4.590873e+00 -1.838295e+02  2.381250e+00
     vertex -4.590873e+00 -1.838295e+02 -3.571240e+00
     vertex -4.685965e+00 -1.834129e+02 -3.571240e+00
   endloop
 endfacet
 facet normal  9.510565e-01  3.090170e-01  8.514499e-16
   outer loop
     vertex -4.590873e+00 -1.838295e+02  2.381250e+00
     vertex -4.458819e+00 -1.842359e+02 -3.571240e+00
     vertex -4.590873e+00 -1.838295e+02 -3.571240e+00
   endloop
 endfacet
 facet normal  9.749279e-01  2.225209e-01  8.701843e-16
   outer loop
     vertex -4.590873e+00 -1.838295e+02  2.381250e+00
     vertex -4.685965e+00 -1.834129e+02 -3.571240e+00
     vertex -4.685965e+00 -1.834129e+02  2.381250e+00
   endloop
 endfacet
 facet normal  9.510565e-01  3.090170e-01  7.095416e-16
   outer loop
     vertex -4.458819e+00 -1.842359e+02  2.381250e+00
     vertex -4.458819e+00 -1.842359e+02 -3.571240e+00
     vertex -4.590873e+00 -1.838295e+02  2.381250e+00
   endloop
 endfacet
 facet normal  9.195278e-01  3.930250e-01  8.232233e-16
   outer loop
     vertex -4.290864e+00 -1.846289e+02  2.381250e+00
     vertex -4.290864e+00 -1.846289e+02 -3.571240e+00
     vertex -4.458819e+00 -1.842359e+02 -3.571240e+00
   endloop
 endfacet
 facet normal  9.195278e-01  3.930250e-01  6.819626e-16
   outer loop
     vertex -4.290864e+00 -1.846289e+02  2.381250e+00
     vertex -4.458819e+00 -1.842359e+02 -3.571240e+00
     vertex -4.458819e+00 -1.842359e+02  2.381250e+00
   endloop
 endfacet
 facet normal  8.805955e-01  4.738687e-01  2.919583e-15
   outer loop
     vertex -4.088362e+00 -1.850052e+02  2.381250e+00
     vertex -4.088362e+00 -1.850052e+02 -3.571240e+00
     vertex -4.290864e+00 -1.846289e+02 -3.571240e+00
   endloop
 endfacet
 facet normal  8.805955e-01  4.738687e-01  7.856209e-16
   outer loop
     vertex -4.088362e+00 -1.850052e+02  2.381250e+00
     vertex -4.290864e+00 -1.846289e+02 -3.571240e+00
     vertex -4.290864e+00 -1.846289e+02  2.381250e+00
   endloop
 endfacet
 facet normal  8.345733e-01  5.508970e-01  3.257053e-15
   outer loop
     vertex -3.852943e+00 -1.853618e+02  2.381250e+00
     vertex -4.088362e+00 -1.850052e+02 -3.571240e+00
     vertex -4.088362e+00 -1.850052e+02  2.381250e+00
   endloop
 endfacet
 facet normal  8.345733e-01  5.508970e-01  6.849024e-16
   outer loop
     vertex -3.852943e+00 -1.853618e+02  2.381250e+00
     vertex -3.852943e+00 -1.853618e+02 -3.571240e+00
     vertex -4.088362e+00 -1.850052e+02 -3.571240e+00
   endloop
 endfacet
 facet normal  7.818315e-01  6.234898e-01  6.383170e-16
   outer loop
     vertex -3.586503e+00 -1.856959e+02  2.381250e+00
     vertex -3.852943e+00 -1.853618e+02 -3.571240e+00
     vertex -3.852943e+00 -1.853618e+02  2.381250e+00
   endloop
 endfacet
 facet normal  7.818315e-01  6.234898e-01  5.832902e-16
   outer loop
     vertex -3.586503e+00 -1.856959e+02  2.381250e+00
     vertex -3.586503e+00 -1.856959e+02 -3.571240e+00
     vertex -3.852943e+00 -1.853618e+02 -3.571240e+00
   endloop
 endfacet
 facet normal  7.227949e-01  6.910626e-01  5.401144e-16
   outer loop
     vertex -3.291186e+00 -1.860048e+02  2.381250e+00
     vertex -3.586503e+00 -1.856959e+02 -3.571240e+00
     vertex -3.586503e+00 -1.856959e+02  2.381250e+00
   endloop
 endfacet
 facet normal  7.227949e-01  6.910626e-01  5.931702e-16
   outer loop
     vertex -3.291186e+00 -1.860048e+02  2.381250e+00
     vertex -3.291186e+00 -1.860048e+02 -3.571240e+00
     vertex -3.586503e+00 -1.856959e+02 -3.571240e+00
   endloop
 endfacet
 facet normal  6.579387e-01  7.530715e-01  5.401144e-16
   outer loop
     vertex -2.969370e+00 -1.862860e+02  2.381250e+00
     vertex -3.291186e+00 -1.860048e+02 -3.571240e+00
     vertex -3.291186e+00 -1.860048e+02  2.381250e+00
   endloop
 endfacet
 facet normal  6.579387e-01  7.530715e-01  4.908593e-16
   outer loop
     vertex -2.969370e+00 -1.862860e+02  2.381250e+00
     vertex -2.969370e+00 -1.862860e+02 -3.571240e+00
     vertex -3.291186e+00 -1.860048e+02 -3.571240e+00
   endloop
 endfacet
 facet normal  5.877853e-01  8.090170e-01  4.419118e-16
   outer loop
     vertex -2.623647e+00 -1.865372e+02  2.381250e+00
     vertex -2.969370e+00 -1.862860e+02 -3.571240e+00
     vertex -2.969370e+00 -1.862860e+02  2.381250e+00
   endloop
 endfacet
 facet normal  5.877853e-01  8.090170e-01  4.385208e-16
   outer loop
     vertex -2.623647e+00 -1.865372e+02  2.381250e+00
     vertex -2.623647e+00 -1.865372e+02 -3.571240e+00
     vertex -2.969370e+00 -1.862860e+02 -3.571240e+00
   endloop
 endfacet
 facet normal  5.128993e-01  8.584488e-01  3.826517e-16
   outer loop
     vertex -2.623647e+00 -1.865372e+02  2.381250e+00
     vertex -2.256800e+00 -1.867563e+02 -3.571240e+00
     vertex -2.623647e+00 -1.865372e+02 -3.571240e+00
   endloop
 endfacet
 facet normal  5.128993e-01  8.584488e-01  3.443865e-16
   outer loop
     vertex -2.256800e+00 -1.867563e+02  2.381250e+00
     vertex -2.256800e+00 -1.867563e+02 -3.571240e+00
     vertex -2.623647e+00 -1.865372e+02  2.381250e+00
   endloop
 endfacet
 facet normal  4.338837e-01  9.009689e-01  2.891521e-16
   outer loop
     vertex -1.871782e+00 -1.869418e+02  2.381250e+00
     vertex -2.256800e+00 -1.867563e+02 -3.571240e+00
     vertex -2.256800e+00 -1.867563e+02  2.381250e+00
   endloop
 endfacet
 facet normal  4.338837e-01  9.009689e-01  2.913315e-16
   outer loop
     vertex -1.871782e+00 -1.869418e+02  2.381250e+00
     vertex -1.871782e+00 -1.869418e+02 -3.571240e+00
     vertex -2.256800e+00 -1.867563e+02 -3.571240e+00
   endloop
 endfacet
 facet normal  3.513748e-01  9.362349e-01  2.345951e-16
   outer loop
     vertex -1.471693e+00 -1.870919e+02  2.381250e+00
     vertex -1.871782e+00 -1.869418e+02 -3.571240e+00
     vertex -1.871782e+00 -1.869418e+02  2.381250e+00
   endloop
 endfacet
 facet normal  3.513748e-01  9.362349e-01  2.359308e-16
   outer loop
     vertex -1.471693e+00 -1.870919e+02  2.381250e+00
     vertex -1.471693e+00 -1.870919e+02 -3.571240e+00
     vertex -1.871782e+00 -1.869418e+02 -3.571240e+00
   endloop
 endfacet
 facet normal  2.660368e-01  9.639629e-01  1.800381e-16
   outer loop
     vertex -1.059756e+00 -1.872056e+02  2.381250e+00
     vertex -1.471693e+00 -1.870919e+02 -3.571240e+00
     vertex -1.471693e+00 -1.870919e+02  2.381250e+00
   endloop
 endfacet
 facet normal  2.660368e-01  9.639629e-01  1.786306e-16
   outer loop
     vertex -1.059756e+00 -1.872056e+02  2.381250e+00
     vertex -1.059756e+00 -1.872056e+02 -3.571240e+00
     vertex -1.471693e+00 -1.870919e+02 -3.571240e+00
   endloop
 endfacet
 facet normal  1.785569e-01  9.839296e-01  1.200254e-16
   outer loop
     vertex -6.392859e-01 -1.872819e+02  2.381250e+00
     vertex -1.059756e+00 -1.872056e+02 -3.571240e+00
     vertex -1.059756e+00 -1.872056e+02  2.381250e+00
   endloop
 endfacet
 facet normal  1.785569e-01  9.839296e-01  1.165618e-16
   outer loop
     vertex -6.392859e-01 -1.872819e+02  2.381250e+00
     vertex -6.392859e-01 -1.872819e+02 -3.571240e+00
     vertex -1.059756e+00 -1.872056e+02 -3.571240e+00
   endloop
 endfacet
 facet normal  8.963931e-02  9.959743e-01  5.864878e-17
   outer loop
     vertex -2.136688e-01 -1.873202e+02  2.381250e+00
     vertex -6.392859e-01 -1.872819e+02 -3.571240e+00
     vertex -6.392859e-01 -1.872819e+02  2.381250e+00
   endloop
 endfacet
 facet normal  8.963931e-02  9.959743e-01  6.102432e-17
   outer loop
     vertex -2.136688e-01 -1.873202e+02  2.381250e+00
     vertex -2.136688e-01 -1.873202e+02 -3.571240e+00
     vertex -6.392859e-01 -1.872819e+02 -3.571240e+00
   endloop
 endfacet
 facet normal  0.000000e+00  1.000000e+00  0.000000e+00
   outer loop
     vertex -2.136688e-01 -1.873202e+02  2.381250e+00
     vertex  2.136688e-01 -1.873202e+02 -3.571240e+00
     vertex -2.136688e-01 -1.873202e+02 -3.571240e+00
   endloop
 endfacet
 facet normal  0.000000e+00  1.000000e+00  0.000000e+00
   outer loop
     vertex  2.136688e-01 -1.873202e+02  2.381250e+00
     vertex  2.136688e-01 -1.873202e+02 -3.571240e+00
     vertex -2.136688e-01 -1.873202e+02  2.381250e+00
   endloop
 endfacet
 facet normal -8.963931e-02  9.959743e-01 -6.137664e-17
   outer loop
     vertex  6.392859e-01 -1.872819e+02  2.381250e+00
     vertex  2.136688e-01 -1.873202e+02 -3.571240e+00
     vertex  2.136688e-01 -1.873202e+02  2.381250e+00
   endloop
 endfacet
 facet normal -8.963931e-02  9.959743e-01 -5.851647e-17
   outer loop
     vertex  6.392859e-01 -1.872819e+02  2.381250e+00
     vertex  6.392859e-01 -1.872819e+02 -3.571240e+00
     vertex  2.136688e-01 -1.873202e+02 -3.571240e+00
   endloop
 endfacet
 facet normal -1.785569e-01  9.839296e-01 -1.165618e-16
   outer loop
     vertex  6.392859e-01 -1.872819e+02  2.381250e+00
     vertex  1.059756e+00 -1.872056e+02 -3.571240e+00
     vertex  6.392859e-01 -1.872819e+02 -3.571240e+00
   endloop
 endfacet
 facet normal -1.785569e-01  9.839296e-01 -1.132315e-16
   outer loop
     vertex  1.059756e+00 -1.872056e+02  2.381250e+00
     vertex  1.059756e+00 -1.872056e+02 -3.571240e+00
     vertex  6.392859e-01 -1.872819e+02  2.381250e+00
   endloop
 endfacet
 facet normal -2.660368e-01  9.639629e-01 -1.687067e-16
   outer loop
     vertex  1.059756e+00 -1.872056e+02  2.381250e+00
     vertex  1.471693e+00 -1.870919e+02 -3.571240e+00
     vertex  1.059756e+00 -1.872056e+02 -3.571240e+00
   endloop
 endfacet
 facet normal -2.660368e-01  9.639629e-01 -1.786306e-16
   outer loop
     vertex  1.471693e+00 -1.870919e+02  2.381250e+00
     vertex  1.471693e+00 -1.870919e+02 -3.571240e+00
     vertex  1.059756e+00 -1.872056e+02  2.381250e+00
   endloop
 endfacet
 facet normal -3.513748e-01  9.362349e-01 -2.359308e-16
   outer loop
     vertex  1.871782e+00 -1.869418e+02  2.381250e+00
     vertex  1.871782e+00 -1.869418e+02 -3.571240e+00
     vertex  1.471693e+00 -1.870919e+02 -3.571240e+00
   endloop
 endfacet
 facet normal -3.513748e-01  9.362349e-01 -2.345951e-16
   outer loop
     vertex  1.871782e+00 -1.869418e+02  2.381250e+00
     vertex  1.471693e+00 -1.870919e+02 -3.571240e+00
     vertex  1.471693e+00 -1.870919e+02  2.381250e+00
   endloop
 endfacet
 facet normal -4.338837e-01  9.009689e-01 -3.237017e-16
   outer loop
     vertex  2.256800e+00 -1.867563e+02  2.381250e+00
     vertex  2.256800e+00 -1.867563e+02 -3.571240e+00
     vertex  1.871782e+00 -1.869418e+02 -3.571240e+00
   endloop
 endfacet
 facet normal -4.338837e-01  9.009689e-01 -2.891521e-16
   outer loop
     vertex  2.256800e+00 -1.867563e+02  2.381250e+00
     vertex  1.871782e+00 -1.869418e+02 -3.571240e+00
     vertex  1.871782e+00 -1.869418e+02  2.381250e+00
   endloop
 endfacet
 facet normal -5.128993e-01  8.584488e-01 -3.826517e-16
   outer loop
     vertex  2.623647e+00 -1.865372e+02  2.381250e+00
     vertex  2.623647e+00 -1.865372e+02 -3.571240e+00
     vertex  2.256800e+00 -1.867563e+02 -3.571240e+00
   endloop
 endfacet
 facet normal -5.877853e-01  8.090170e-01 -4.385208e-16
   outer loop
     vertex  2.623647e+00 -1.865372e+02  2.381250e+00
     vertex  2.969370e+00 -1.862860e+02 -3.571240e+00
     vertex  2.623647e+00 -1.865372e+02 -3.571240e+00
   endloop
 endfacet
 facet normal -5.128993e-01  8.584488e-01 -3.818991e-16
   outer loop
     vertex  2.623647e+00 -1.865372e+02  2.381250e+00
     vertex  2.256800e+00 -1.867563e+02 -3.571240e+00
     vertex  2.256800e+00 -1.867563e+02  2.381250e+00
   endloop
 endfacet
 facet normal -5.877853e-01  8.090170e-01 -4.385208e-16
   outer loop
     vertex  2.969370e+00 -1.862860e+02  2.381250e+00
     vertex  2.969370e+00 -1.862860e+02 -3.571240e+00
     vertex  2.623647e+00 -1.865372e+02  2.381250e+00
   endloop
 endfacet
 facet normal -6.579387e-01  7.530715e-01 -5.399452e-16
   outer loop
     vertex  3.291186e+00 -1.860048e+02  2.381250e+00
     vertex  3.291186e+00 -1.860048e+02 -3.571240e+00
     vertex  2.969370e+00 -1.862860e+02 -3.571240e+00
   endloop
 endfacet
 facet normal -6.579387e-01  7.530715e-01 -4.910131e-16
   outer loop
     vertex  3.291186e+00 -1.860048e+02  2.381250e+00
     vertex  2.969370e+00 -1.862860e+02 -3.571240e+00
     vertex  2.969370e+00 -1.862860e+02  2.381250e+00
   endloop
 endfacet
 facet normal -7.227949e-01  6.910626e-01 -4.853210e-16
   outer loop
     vertex  3.586503e+00 -1.856959e+02  2.381250e+00
     vertex  3.586503e+00 -1.856959e+02 -3.571240e+00
     vertex  3.291186e+00 -1.860048e+02 -3.571240e+00
   endloop
 endfacet
 facet normal -7.227949e-01  6.910626e-01 -5.946714e-16
   outer loop
     vertex  3.586503e+00 -1.856959e+02  2.381250e+00
     vertex  3.291186e+00 -1.860048e+02 -3.571240e+00
     vertex  3.291186e+00 -1.860048e+02  2.381250e+00
   endloop
 endfacet
 facet normal -7.818315e-01  6.234898e-01 -5.832902e-16
   outer loop
     vertex  3.852943e+00 -1.853618e+02  2.381250e+00
     vertex  3.852943e+00 -1.853618e+02 -3.571240e+00
     vertex  3.586503e+00 -1.856959e+02 -3.571240e+00
   endloop
 endfacet
 facet normal -7.818315e-01  6.234898e-01 -5.237473e-16
   outer loop
     vertex  3.852943e+00 -1.853618e+02  2.381250e+00
     vertex  3.586503e+00 -1.856959e+02 -3.571240e+00
     vertex  3.586503e+00 -1.856959e+02  2.381250e+00
   endloop
 endfacet
 facet normal -8.345733e-01  5.508970e-01 -3.377567e-15
   outer loop
     vertex  4.088362e+00 -1.850052e+02  2.381250e+00
     vertex  4.088362e+00 -1.850052e+02 -3.571240e+00
     vertex  3.852943e+00 -1.853618e+02 -3.571240e+00
   endloop
 endfacet
 facet normal -8.345733e-01  5.508970e-01 -6.274056e-16
   outer loop
     vertex  4.088362e+00 -1.850052e+02  2.381250e+00
     vertex  3.852943e+00 -1.853618e+02 -3.571240e+00
     vertex  3.852943e+00 -1.853618e+02  2.381250e+00
   endloop
 endfacet
 facet normal -8.805955e-01  4.738687e-01 -7.883685e-16
   outer loop
     vertex  4.290864e+00 -1.846289e+02  2.381250e+00
     vertex  4.290864e+00 -1.846289e+02 -3.571240e+00
     vertex  4.088362e+00 -1.850052e+02 -3.571240e+00
   endloop
 endfacet
 facet normal -8.805955e-01  4.738687e-01 -3.049737e-15
   outer loop
     vertex  4.290864e+00 -1.846289e+02  2.381250e+00
     vertex  4.088362e+00 -1.850052e+02 -3.571240e+00
     vertex  4.088362e+00 -1.850052e+02  2.381250e+00
   endloop
 endfacet
 facet normal -9.195278e-01  3.930250e-01 -8.232233e-16
   outer loop
     vertex  4.458819e+00 -1.842359e+02  2.381250e+00
     vertex  4.458819e+00 -1.842359e+02 -3.571240e+00
     vertex  4.290864e+00 -1.846289e+02 -3.571240e+00
   endloop
 endfacet
 facet normal -9.195278e-01  3.930250e-01 -8.183551e-16
   outer loop
     vertex  4.458819e+00 -1.842359e+02  2.381250e+00
     vertex  4.290864e+00 -1.846289e+02 -3.571240e+00
     vertex  4.290864e+00 -1.846289e+02  2.381250e+00
   endloop
 endfacet
 facet normal -9.510565e-01  3.090170e-01 -8.510893e-16
   outer loop
     vertex  4.590873e+00 -1.838295e+02  2.381250e+00
     vertex  4.458819e+00 -1.842359e+02 -3.571240e+00
     vertex  4.458819e+00 -1.842359e+02  2.381250e+00
   endloop
 endfacet
 facet normal -9.510565e-01  3.090170e-01 -7.095416e-16
   outer loop
     vertex  4.590873e+00 -1.838295e+02  2.381250e+00
     vertex  4.590873e+00 -1.838295e+02 -3.571240e+00
     vertex  4.458819e+00 -1.842359e+02 -3.571240e+00
   endloop
 endfacet
 facet normal -9.749279e-01  2.225209e-01 -7.256082e-16
   outer loop
     vertex  4.685965e+00 -1.834129e+02  2.381250e+00
     vertex  4.590873e+00 -1.838295e+02 -3.571240e+00
     vertex  4.590873e+00 -1.838295e+02  2.381250e+00
   endloop
 endfacet
 facet normal -9.749279e-01  2.225209e-01 -8.728212e-16
   outer loop
     vertex  4.685965e+00 -1.834129e+02  2.381250e+00
     vertex  4.685965e+00 -1.834129e+02 -3.571240e+00
     vertex  4.590873e+00 -1.838295e+02 -3.571240e+00
   endloop
 endfacet
 facet normal -9.909498e-01  1.342333e-01 -8.865514e-16
   outer loop
     vertex  4.743328e+00 -1.829894e+02  2.381250e+00
     vertex  4.685965e+00 -1.834129e+02 -3.571240e+00
     vertex  4.685965e+00 -1.834129e+02  2.381250e+00
   endloop
 endfacet
 facet normal -9.909498e-01  1.342333e-01 -8.871651e-16
   outer loop
     vertex  4.743328e+00 -1.829894e+02  2.381250e+00
     vertex  4.743328e+00 -1.829894e+02 -3.571240e+00
     vertex  4.685965e+00 -1.834129e+02 -3.571240e+00
   endloop
 endfacet
 facet normal -9.989931e-01  4.486483e-02 -8.943660e-16
   outer loop
     vertex  4.743328e+00 -1.829894e+02  2.381250e+00
     vertex  4.762500e+00 -1.825625e+02 -3.571240e+00
     vertex  4.743328e+00 -1.829894e+02 -3.571240e+00
   endloop
 endfacet
 facet normal -9.989931e-01  4.486483e-02 -8.943660e-16
   outer loop
     vertex  4.762500e+00 -1.825625e+02  2.381250e+00
     vertex  4.762500e+00 -1.825625e+02 -3.571240e+00
     vertex  4.743328e+00 -1.829894e+02  2.381250e+00
   endloop
 endfacet
endsolid
