solid 
 facet normal -2.792683e-15  1.000000e+00  0.000000e+00
   outer loop
     vertex -1.967575e+02  1.499870e+01  0.000000e+00
     vertex -2.514600e+02  1.499870e+01  3.429000e+00
     vertex -1.967575e+02  1.499870e+01  3.429000e+00
   endloop
 endfacet
 facet normal -2.792683e-15  1.000000e+00  0.000000e+00
   outer loop
     vertex -1.967575e+02  1.499870e+01  0.000000e+00
     vertex -2.514600e+02  1.499870e+01  0.000000e+00
     vertex -2.514600e+02  1.499870e+01  3.429000e+00
   endloop
 endfacet
endsolid
