solid 
 facet normal  4.486483e-02 -9.989931e-01 -4.173611e-15
   outer loop
     vertex -1.829894e+02  4.743328e+00  2.381250e+00
     vertex -1.825625e+02  4.762500e+00 -3.571240e+00
     vertex -1.825625e+02  4.762500e+00  2.381250e+00
   endloop
 endfacet
 facet normal  4.486483e-02 -9.989931e-01 -4.471830e-15
   outer loop
     vertex -1.829894e+02  4.743328e+00  2.381250e+00
     vertex -1.829894e+02  4.743328e+00 -3.571240e+00
     vertex -1.825625e+02  4.762500e+00 -3.571240e+00
   endloop
 endfacet
 facet normal  1.342333e-01 -9.909498e-01 -4.435825e-15
   outer loop
     vertex -1.829894e+02  4.743328e+00  2.381250e+00
     vertex -1.834129e+02  4.685965e+00 -3.571240e+00
     vertex -1.829894e+02  4.743328e+00 -3.571240e+00
   endloop
 endfacet
 facet normal  1.342333e-01 -9.909498e-01 -4.287964e-15
   outer loop
     vertex -1.834129e+02  4.685965e+00  2.381250e+00
     vertex -1.834129e+02  4.685965e+00 -3.571240e+00
     vertex -1.829894e+02  4.743328e+00  2.381250e+00
   endloop
 endfacet
 facet normal  2.225209e-01 -9.749279e-01 -4.218636e-15
   outer loop
     vertex -1.838295e+02  4.590873e+00  2.381250e+00
     vertex -1.838295e+02  4.590873e+00 -3.571240e+00
     vertex -1.834129e+02  4.685965e+00 -3.571240e+00
   endloop
 endfacet
 facet normal  2.225209e-01 -9.749279e-01 -4.217257e-15
   outer loop
     vertex -1.838295e+02  4.590873e+00  2.381250e+00
     vertex -1.834129e+02  4.685965e+00 -3.571240e+00
     vertex -1.834129e+02  4.685965e+00  2.381250e+00
   endloop
 endfacet
 facet normal  3.090170e-01 -9.510565e-01 -4.257250e-15
   outer loop
     vertex -1.842359e+02  4.458819e+00  2.381250e+00
     vertex -1.842359e+02  4.458819e+00 -3.571240e+00
     vertex -1.838295e+02  4.590873e+00 -3.571240e+00
   endloop
 endfacet
 facet normal  3.090170e-01 -9.510565e-01 -4.116326e-15
   outer loop
     vertex -1.842359e+02  4.458819e+00  2.381250e+00
     vertex -1.838295e+02  4.590873e+00 -3.571240e+00
     vertex -1.838295e+02  4.590873e+00  2.381250e+00
   endloop
 endfacet
 facet normal  3.930250e-01 -9.195278e-01 -4.116116e-15
   outer loop
     vertex -1.846289e+02  4.290864e+00  2.381250e+00
     vertex -1.846289e+02  4.290864e+00 -3.571240e+00
     vertex -1.842359e+02  4.458819e+00 -3.571240e+00
   endloop
 endfacet
 facet normal  3.930250e-01 -9.195278e-01 -4.113598e-15
   outer loop
     vertex -1.846289e+02  4.290864e+00  2.381250e+00
     vertex -1.842359e+02  4.458819e+00 -3.571240e+00
     vertex -1.842359e+02  4.458819e+00  2.381250e+00
   endloop
 endfacet
 facet normal  4.738687e-01 -8.805955e-01 -3.941843e-15
   outer loop
     vertex -1.850052e+02  4.088362e+00  2.381250e+00
     vertex -1.850052e+02  4.088362e+00 -3.571240e+00
     vertex -1.846289e+02  4.290864e+00 -3.571240e+00
   endloop
 endfacet
 facet normal  4.738687e-01 -8.805955e-01 -3.944472e-15
   outer loop
     vertex -1.850052e+02  4.088362e+00  2.381250e+00
     vertex -1.846289e+02  4.290864e+00 -3.571240e+00
     vertex -1.846289e+02  4.290864e+00  2.381250e+00
   endloop
 endfacet
 facet normal  5.508970e-01 -8.345733e-01 -3.737155e-15
   outer loop
     vertex -1.853618e+02  3.852943e+00  2.381250e+00
     vertex -1.850052e+02  4.088362e+00 -3.571240e+00
     vertex -1.850052e+02  4.088362e+00  2.381250e+00
   endloop
 endfacet
 facet normal  5.508970e-01 -8.345733e-01 -3.549040e-15
   outer loop
     vertex -1.853618e+02  3.852943e+00  2.381250e+00
     vertex -1.853618e+02  3.852943e+00 -3.571240e+00
     vertex -1.850052e+02  4.088362e+00 -3.571240e+00
   endloop
 endfacet
 facet normal  6.234898e-01 -7.818315e-01 -3.324754e-15
   outer loop
     vertex -1.853618e+02  3.852943e+00  2.381250e+00
     vertex -1.856959e+02  3.586503e+00 -3.571240e+00
     vertex -1.853618e+02  3.852943e+00 -3.571240e+00
   endloop
 endfacet
 facet normal  6.234898e-01 -7.818315e-01 -3.383083e-15
   outer loop
     vertex -1.856959e+02  3.586503e+00  2.381250e+00
     vertex -1.856959e+02  3.586503e+00 -3.571240e+00
     vertex -1.853618e+02  3.852943e+00  2.381250e+00
   endloop
 endfacet
 facet normal  6.910626e-01 -7.227949e-01 -3.126117e-15
   outer loop
     vertex -1.860048e+02  3.291186e+00  2.381250e+00
     vertex -1.856959e+02  3.586503e+00 -3.571240e+00
     vertex -1.856959e+02  3.586503e+00  2.381250e+00
   endloop
 endfacet
 facet normal  6.910626e-01 -7.227949e-01 -3.073700e-15
   outer loop
     vertex -1.860048e+02  3.291186e+00  2.381250e+00
     vertex -1.860048e+02  3.291186e+00 -3.571240e+00
     vertex -1.856959e+02  3.586503e+00 -3.571240e+00
   endloop
 endfacet
 facet normal  7.530715e-01 -6.579387e-01 -2.798775e-15
   outer loop
     vertex -1.862860e+02  2.969370e+00  2.381250e+00
     vertex -1.860048e+02  3.291186e+00 -3.571240e+00
     vertex -1.860048e+02  3.291186e+00  2.381250e+00
   endloop
 endfacet
 facet normal  7.530715e-01 -6.579387e-01 -2.846984e-15
   outer loop
     vertex -1.862860e+02  2.969370e+00  2.381250e+00
     vertex -1.862860e+02  2.969370e+00 -3.571240e+00
     vertex -1.860048e+02  3.291186e+00 -3.571240e+00
   endloop
 endfacet
 facet normal  8.090170e-01 -5.877853e-01 -2.547812e-15
   outer loop
     vertex -1.865372e+02  2.623647e+00  2.381250e+00
     vertex -1.862860e+02  2.969370e+00 -3.571240e+00
     vertex -1.862860e+02  2.969370e+00  2.381250e+00
   endloop
 endfacet
 facet normal  8.090170e-01 -5.877853e-01 -2.587273e-15
   outer loop
     vertex -1.865372e+02  2.623647e+00  2.381250e+00
     vertex -1.865372e+02  2.623647e+00 -3.571240e+00
     vertex -1.862860e+02  2.969370e+00 -3.571240e+00
   endloop
 endfacet
 facet normal  8.584488e-01 -5.128993e-01 -2.258660e-15
   outer loop
     vertex -1.867563e+02  2.256800e+00  2.381250e+00
     vertex -1.865372e+02  2.623647e+00 -3.571240e+00
     vertex -1.865372e+02  2.623647e+00  2.381250e+00
   endloop
 endfacet
 facet normal  8.584488e-01 -5.128993e-01 -2.219380e-15
   outer loop
     vertex -1.867563e+02  2.256800e+00  2.381250e+00
     vertex -1.867563e+02  2.256800e+00 -3.571240e+00
     vertex -1.865372e+02  2.623647e+00 -3.571240e+00
   endloop
 endfacet
 facet normal  9.009689e-01 -4.338837e-01 -1.876761e-15
   outer loop
     vertex -1.869418e+02  1.871782e+00  2.381250e+00
     vertex -1.867563e+02  2.256800e+00 -3.571240e+00
     vertex -1.867563e+02  2.256800e+00  2.381250e+00
   endloop
 endfacet
 facet normal  9.009689e-01 -4.338837e-01 -1.909840e-15
   outer loop
     vertex -1.869418e+02  1.871782e+00  2.381250e+00
     vertex -1.869418e+02  1.871782e+00 -3.571240e+00
     vertex -1.867563e+02  2.256800e+00 -3.571240e+00
   endloop
 endfacet
 facet normal  9.362349e-01 -3.513748e-01 -1.546691e-15
   outer loop
     vertex -1.870919e+02  1.471693e+00  2.381250e+00
     vertex -1.869418e+02  1.871782e+00 -3.571240e+00
     vertex -1.869418e+02  1.871782e+00  2.381250e+00
   endloop
 endfacet
 facet normal  9.362349e-01 -3.513748e-01 -1.546658e-15
   outer loop
     vertex -1.870919e+02  1.471693e+00  2.381250e+00
     vertex -1.870919e+02  1.471693e+00 -3.571240e+00
     vertex -1.869418e+02  1.871782e+00 -3.571240e+00
   endloop
 endfacet
 facet normal  9.639629e-01 -2.660368e-01 -1.172976e-15
   outer loop
     vertex -1.872056e+02  1.059756e+00  2.381250e+00
     vertex -1.870919e+02  1.471693e+00 -3.571240e+00
     vertex -1.870919e+02  1.471693e+00  2.381250e+00
   endloop
 endfacet
 facet normal  9.639629e-01 -2.660368e-01 -1.171023e-15
   outer loop
     vertex -1.872056e+02  1.059756e+00  2.381250e+00
     vertex -1.872056e+02  1.059756e+00 -3.571240e+00
     vertex -1.870919e+02  1.471693e+00 -3.571240e+00
   endloop
 endfacet
 facet normal  9.839296e-01 -1.785569e-01 -7.859595e-16
   outer loop
     vertex -1.872056e+02  1.059756e+00  2.381250e+00
     vertex -1.872819e+02  6.392859e-01 -3.571240e+00
     vertex -1.872056e+02  1.059756e+00 -3.571240e+00
   endloop
 endfacet
 facet normal  9.839296e-01 -1.785569e-01 -7.926202e-16
   outer loop
     vertex -1.872819e+02  6.392859e-01  2.381250e+00
     vertex -1.872819e+02  6.392859e-01 -3.571240e+00
     vertex -1.872056e+02  1.059756e+00  2.381250e+00
   endloop
 endfacet
 facet normal  9.959743e-01 -8.963931e-02 -3.969022e-16
   outer loop
     vertex -1.873202e+02  2.136688e-01  2.381250e+00
     vertex -1.872819e+02  6.392859e-01 -3.571240e+00
     vertex -1.872819e+02  6.392859e-01  2.381250e+00
   endloop
 endfacet
 facet normal  9.959743e-01 -8.963931e-02 -3.962401e-16
   outer loop
     vertex -1.873202e+02  2.136688e-01  2.381250e+00
     vertex -1.873202e+02  2.136688e-01 -3.571240e+00
     vertex -1.872819e+02  6.392859e-01 -3.571240e+00
   endloop
 endfacet
 facet normal  1.000000e+00 -0.000000e+00  0.000000e+00
   outer loop
     vertex -1.873202e+02 -2.136688e-01  2.381250e+00
     vertex -1.873202e+02  2.136688e-01 -3.571240e+00
     vertex -1.873202e+02  2.136688e-01  2.381250e+00
   endloop
 endfacet
 facet normal  1.000000e+00  0.000000e+00  0.000000e+00
   outer loop
     vertex -1.873202e+02 -2.136688e-01  2.381250e+00
     vertex -1.873202e+02 -2.136688e-01 -3.571240e+00
     vertex -1.873202e+02  2.136688e-01 -3.571240e+00
   endloop
 endfacet
 facet normal  9.959743e-01  8.963931e-02  3.962401e-16
   outer loop
     vertex -1.873202e+02 -2.136688e-01  2.381250e+00
     vertex -1.872819e+02 -6.392859e-01 -3.571240e+00
     vertex -1.873202e+02 -2.136688e-01 -3.571240e+00
   endloop
 endfacet
 facet normal  9.959743e-01  8.963931e-02  3.979120e-16
   outer loop
     vertex -1.872819e+02 -6.392859e-01  2.381250e+00
     vertex -1.872819e+02 -6.392859e-01 -3.571240e+00
     vertex -1.873202e+02 -2.136688e-01  2.381250e+00
   endloop
 endfacet
 facet normal  9.839296e-01  1.785569e-01  7.938045e-16
   outer loop
     vertex -1.872056e+02 -1.059756e+00  2.381250e+00
     vertex -1.872819e+02 -6.392859e-01 -3.571240e+00
     vertex -1.872819e+02 -6.392859e-01  2.381250e+00
   endloop
 endfacet
 facet normal  9.839296e-01  1.785569e-01  7.859595e-16
   outer loop
     vertex -1.872056e+02 -1.059756e+00  2.381250e+00
     vertex -1.872056e+02 -1.059756e+00 -3.571240e+00
     vertex -1.872819e+02 -6.392859e-01 -3.571240e+00
   endloop
 endfacet
 facet normal  9.639629e-01  2.660368e-01  1.171023e-15
   outer loop
     vertex -1.872056e+02 -1.059756e+00  2.381250e+00
     vertex -1.870919e+02 -1.471693e+00 -3.571240e+00
     vertex -1.872056e+02 -1.059756e+00 -3.571240e+00
   endloop
 endfacet
 facet normal  9.639629e-01  2.660368e-01  1.171023e-15
   outer loop
     vertex -1.870919e+02 -1.471693e+00  2.381250e+00
     vertex -1.870919e+02 -1.471693e+00 -3.571240e+00
     vertex -1.872056e+02 -1.059756e+00  2.381250e+00
   endloop
 endfacet
 facet normal  9.362349e-01  3.513748e-01  1.546658e-15
   outer loop
     vertex -1.869418e+02 -1.871782e+00  2.381250e+00
     vertex -1.869418e+02 -1.871782e+00 -3.571240e+00
     vertex -1.870919e+02 -1.471693e+00 -3.571240e+00
   endloop
 endfacet
 facet normal  9.009689e-01  4.338837e-01  1.909840e-15
   outer loop
     vertex -1.869418e+02 -1.871782e+00  2.381250e+00
     vertex -1.867563e+02 -2.256800e+00 -3.571240e+00
     vertex -1.869418e+02 -1.871782e+00 -3.571240e+00
   endloop
 endfacet
 facet normal  9.362349e-01  3.513748e-01  1.546691e-15
   outer loop
     vertex -1.869418e+02 -1.871782e+00  2.381250e+00
     vertex -1.870919e+02 -1.471693e+00 -3.571240e+00
     vertex -1.870919e+02 -1.471693e+00  2.381250e+00
   endloop
 endfacet
 facet normal  9.009689e-01  4.338837e-01  1.909840e-15
   outer loop
     vertex -1.867563e+02 -2.256800e+00  2.381250e+00
     vertex -1.867563e+02 -2.256800e+00 -3.571240e+00
     vertex -1.869418e+02 -1.871782e+00  2.381250e+00
   endloop
 endfacet
 facet normal  8.584488e-01  5.128993e-01  2.257645e-15
   outer loop
     vertex -1.865372e+02 -2.623647e+00  2.381250e+00
     vertex -1.865372e+02 -2.623647e+00 -3.571240e+00
     vertex -1.867563e+02 -2.256800e+00 -3.571240e+00
   endloop
 endfacet
 facet normal  8.584488e-01  5.128993e-01  2.258660e-15
   outer loop
     vertex -1.865372e+02 -2.623647e+00  2.381250e+00
     vertex -1.867563e+02 -2.256800e+00 -3.571240e+00
     vertex -1.867563e+02 -2.256800e+00  2.381250e+00
   endloop
 endfacet
 facet normal  8.090170e-01  5.877853e-01  2.587273e-15
   outer loop
     vertex -1.862860e+02 -2.969370e+00  2.381250e+00
     vertex -1.862860e+02 -2.969370e+00 -3.571240e+00
     vertex -1.865372e+02 -2.623647e+00 -3.571240e+00
   endloop
 endfacet
 facet normal  8.090170e-01  5.877853e-01  2.591458e-15
   outer loop
     vertex -1.862860e+02 -2.969370e+00  2.381250e+00
     vertex -1.865372e+02 -2.623647e+00 -3.571240e+00
     vertex -1.865372e+02 -2.623647e+00  2.381250e+00
   endloop
 endfacet
 facet normal  7.530715e-01  6.579387e-01  2.797898e-15
   outer loop
     vertex -1.860048e+02 -3.291186e+00  2.381250e+00
     vertex -1.860048e+02 -3.291186e+00 -3.571240e+00
     vertex -1.862860e+02 -2.969370e+00 -3.571240e+00
   endloop
 endfacet
 facet normal  7.530715e-01  6.579387e-01  2.896977e-15
   outer loop
     vertex -1.860048e+02 -3.291186e+00  2.381250e+00
     vertex -1.862860e+02 -2.969370e+00 -3.571240e+00
     vertex -1.862860e+02 -2.969370e+00  2.381250e+00
   endloop
 endfacet
 facet normal  6.910626e-01  7.227949e-01  3.127624e-15
   outer loop
     vertex -1.856959e+02 -3.586503e+00  2.381250e+00
     vertex -1.856959e+02 -3.586503e+00 -3.571240e+00
     vertex -1.860048e+02 -3.291186e+00 -3.571240e+00
   endloop
 endfacet
 facet normal  6.910626e-01  7.227949e-01  3.071560e-15
   outer loop
     vertex -1.856959e+02 -3.586503e+00  2.381250e+00
     vertex -1.860048e+02 -3.291186e+00 -3.571240e+00
     vertex -1.860048e+02 -3.291186e+00  2.381250e+00
   endloop
 endfacet
 facet normal  6.234898e-01  7.818315e-01  3.383083e-15
   outer loop
     vertex -1.853618e+02 -3.852943e+00  2.381250e+00
     vertex -1.853618e+02 -3.852943e+00 -3.571240e+00
     vertex -1.856959e+02 -3.586503e+00 -3.571240e+00
   endloop
 endfacet
 facet normal  6.234898e-01  7.818315e-01  3.382535e-15
   outer loop
     vertex -1.853618e+02 -3.852943e+00  2.381250e+00
     vertex -1.856959e+02 -3.586503e+00 -3.571240e+00
     vertex -1.856959e+02 -3.586503e+00  2.381250e+00
   endloop
 endfacet
 facet normal  5.508970e-01  8.345733e-01  3.611304e-15
   outer loop
     vertex -1.850052e+02 -4.088362e+00  2.381250e+00
     vertex -1.850052e+02 -4.088362e+00 -3.571240e+00
     vertex -1.853618e+02 -3.852943e+00 -3.571240e+00
   endloop
 endfacet
 facet normal  4.738687e-01  8.805955e-01  3.810448e-15
   outer loop
     vertex -1.850052e+02 -4.088362e+00  2.381250e+00
     vertex -1.846289e+02 -4.290864e+00 -3.571240e+00
     vertex -1.850052e+02 -4.088362e+00 -3.571240e+00
   endloop
 endfacet
 facet normal  5.508970e-01  8.345733e-01  3.611674e-15
   outer loop
     vertex -1.850052e+02 -4.088362e+00  2.381250e+00
     vertex -1.853618e+02 -3.852943e+00 -3.571240e+00
     vertex -1.853618e+02 -3.852943e+00  2.381250e+00
   endloop
 endfacet
 facet normal  4.738687e-01  8.805955e-01  3.941843e-15
   outer loop
     vertex -1.846289e+02 -4.290864e+00  2.381250e+00
     vertex -1.846289e+02 -4.290864e+00 -3.571240e+00
     vertex -1.850052e+02 -4.088362e+00  2.381250e+00
   endloop
 endfacet
 facet normal  3.930250e-01  9.195278e-01  3.978913e-15
   outer loop
     vertex -1.842359e+02 -4.458819e+00  2.381250e+00
     vertex -1.842359e+02 -4.458819e+00 -3.571240e+00
     vertex -1.846289e+02 -4.290864e+00 -3.571240e+00
   endloop
 endfacet
 facet normal  3.930250e-01  9.195278e-01  4.113598e-15
   outer loop
     vertex -1.842359e+02 -4.458819e+00  2.381250e+00
     vertex -1.846289e+02 -4.290864e+00 -3.571240e+00
     vertex -1.846289e+02 -4.290864e+00  2.381250e+00
   endloop
 endfacet
 facet normal  3.090170e-01  9.510565e-01  4.116326e-15
   outer loop
     vertex -1.838295e+02 -4.590873e+00  2.381250e+00
     vertex -1.842359e+02 -4.458819e+00 -3.571240e+00
     vertex -1.842359e+02 -4.458819e+00  2.381250e+00
   endloop
 endfacet
 facet normal  3.090170e-01  9.510565e-01  4.115341e-15
   outer loop
     vertex -1.838295e+02 -4.590873e+00  2.381250e+00
     vertex -1.838295e+02 -4.590873e+00 -3.571240e+00
     vertex -1.842359e+02 -4.458819e+00 -3.571240e+00
   endloop
 endfacet
 facet normal  2.225209e-01  9.749279e-01  4.218636e-15
   outer loop
     vertex -1.838295e+02 -4.590873e+00  2.381250e+00
     vertex -1.834129e+02 -4.685965e+00 -3.571240e+00
     vertex -1.838295e+02 -4.590873e+00 -3.571240e+00
   endloop
 endfacet
 facet normal  2.225209e-01  9.749279e-01  4.218636e-15
   outer loop
     vertex -1.834129e+02 -4.685965e+00  2.381250e+00
     vertex -1.834129e+02 -4.685965e+00 -3.571240e+00
     vertex -1.838295e+02 -4.590873e+00  2.381250e+00
   endloop
 endfacet
 facet normal  1.342333e-01  9.909498e-01  4.288181e-15
   outer loop
     vertex -1.829894e+02 -4.743328e+00  2.381250e+00
     vertex -1.834129e+02 -4.685965e+00 -3.571240e+00
     vertex -1.834129e+02 -4.685965e+00  2.381250e+00
   endloop
 endfacet
 facet normal  1.342333e-01  9.909498e-01  4.287964e-15
   outer loop
     vertex -1.829894e+02 -4.743328e+00  2.381250e+00
     vertex -1.829894e+02 -4.743328e+00 -3.571240e+00
     vertex -1.834129e+02 -4.685965e+00 -3.571240e+00
   endloop
 endfacet
 facet normal  4.486483e-02  9.989931e-01  4.322769e-15
   outer loop
     vertex -1.829894e+02 -4.743328e+00  2.381250e+00
     vertex -1.825625e+02 -4.762500e+00 -3.571240e+00
     vertex -1.829894e+02 -4.743328e+00 -3.571240e+00
   endloop
 endfacet
 facet normal  4.486483e-02  9.989931e-01  4.322769e-15
   outer loop
     vertex -1.825625e+02 -4.762500e+00  2.381250e+00
     vertex -1.825625e+02 -4.762500e+00 -3.571240e+00
     vertex -1.829894e+02 -4.743328e+00  2.381250e+00
   endloop
 endfacet
endsolid
