solid 
 facet normal -9.999838e-01  5.691260e-03  0.000000e+00
   outer loop
     vertex  3.116507e+02 -2.255996e+01 -2.312670e+02
     vertex  3.116707e+02 -1.905000e+01  0.000000e+00
     vertex  3.116707e+02 -1.905000e+01 -2.312670e+02
   endloop
 endfacet
 facet normal -9.999838e-01  5.691260e-03  0.000000e+00
   outer loop
     vertex  3.116507e+02 -2.255996e+01 -2.312670e+02
     vertex  3.116507e+02 -2.255996e+01  0.000000e+00
     vertex  3.116707e+02 -1.905000e+01  0.000000e+00
   endloop
 endfacet
 facet normal -9.998542e-01  1.707304e-02  0.000000e+00
   outer loop
     vertex  3.116507e+02 -2.255996e+01 -2.312670e+02
     vertex  3.115908e+02 -2.606946e+01  0.000000e+00
     vertex  3.116507e+02 -2.255996e+01  0.000000e+00
   endloop
 endfacet
 facet normal -9.998542e-01  1.707304e-02  0.000000e+00
   outer loop
     vertex  3.115908e+02 -2.606946e+01 -2.312670e+02
     vertex  3.115908e+02 -2.606946e+01  0.000000e+00
     vertex  3.116507e+02 -2.255996e+01 -2.312670e+02
   endloop
 endfacet
 facet normal -9.995951e-01  2.845261e-02  0.000000e+00
   outer loop
     vertex  3.114909e+02 -2.957805e+01 -2.312670e+02
     vertex  3.114909e+02 -2.957805e+01  0.000000e+00
     vertex  3.115908e+02 -2.606946e+01  0.000000e+00
   endloop
 endfacet
 facet normal -9.992065e-01  3.982850e-02  0.000000e+00
   outer loop
     vertex  3.114909e+02 -2.957805e+01 -2.312670e+02
     vertex  3.113511e+02 -3.308528e+01  0.000000e+00
     vertex  3.114909e+02 -2.957805e+01  0.000000e+00
   endloop
 endfacet
 facet normal -9.995951e-01  2.845261e-02  0.000000e+00
   outer loop
     vertex  3.114909e+02 -2.957805e+01 -2.312670e+02
     vertex  3.115908e+02 -2.606946e+01  0.000000e+00
     vertex  3.115908e+02 -2.606946e+01 -2.312670e+02
   endloop
 endfacet
 facet normal -9.992065e-01  3.982850e-02  0.000000e+00
   outer loop
     vertex  3.113511e+02 -3.308528e+01 -2.312670e+02
     vertex  3.113511e+02 -3.308528e+01  0.000000e+00
     vertex  3.114909e+02 -2.957805e+01 -2.312670e+02
   endloop
 endfacet
 facet normal -9.986885e-01  5.119922e-02  0.000000e+00
   outer loop
     vertex  3.111714e+02 -3.659069e+01 -2.312670e+02
     vertex  3.111714e+02 -3.659069e+01  0.000000e+00
     vertex  3.113511e+02 -3.308528e+01  0.000000e+00
   endloop
 endfacet
 facet normal -9.986885e-01  5.119922e-02  0.000000e+00
   outer loop
     vertex  3.111714e+02 -3.659069e+01 -2.312670e+02
     vertex  3.113511e+02 -3.308528e+01  0.000000e+00
     vertex  3.113511e+02 -3.308528e+01 -2.312670e+02
   endloop
 endfacet
 facet normal -9.980410e-01  6.256332e-02  0.000000e+00
   outer loop
     vertex  3.109518e+02 -4.009382e+01 -2.312670e+02
     vertex  3.111714e+02 -3.659069e+01  0.000000e+00
     vertex  3.111714e+02 -3.659069e+01 -2.312670e+02
   endloop
 endfacet
 facet normal -9.980410e-01  6.256332e-02  0.000000e+00
   outer loop
     vertex  3.109518e+02 -4.009382e+01 -2.312670e+02
     vertex  3.109518e+02 -4.009382e+01  0.000000e+00
     vertex  3.111714e+02 -3.659069e+01  0.000000e+00
   endloop
 endfacet
 facet normal -9.972642e-01  7.391930e-02  0.000000e+00
   outer loop
     vertex  3.109518e+02 -4.009382e+01 -2.312670e+02
     vertex  3.106924e+02 -4.359423e+01  0.000000e+00
     vertex  3.109518e+02 -4.009382e+01  0.000000e+00
   endloop
 endfacet
 facet normal -9.972642e-01  7.391930e-02  0.000000e+00
   outer loop
     vertex  3.106924e+02 -4.359423e+01 -2.312670e+02
     vertex  3.106924e+02 -4.359423e+01  0.000000e+00
     vertex  3.109518e+02 -4.009382e+01 -2.312670e+02
   endloop
 endfacet
 facet normal -9.963582e-01  8.526571e-02  0.000000e+00
   outer loop
     vertex  3.103931e+02 -4.709147e+01 -2.312670e+02
     vertex  3.103931e+02 -4.709147e+01  0.000000e+00
     vertex  3.106924e+02 -4.359423e+01  0.000000e+00
   endloop
 endfacet
 facet normal -9.963582e-01  8.526571e-02  0.000000e+00
   outer loop
     vertex  3.103931e+02 -4.709147e+01 -2.312670e+02
     vertex  3.106924e+02 -4.359423e+01  0.000000e+00
     vertex  3.106924e+02 -4.359423e+01 -2.312670e+02
   endloop
 endfacet
 facet normal -9.953232e-01  9.660107e-02  0.000000e+00
   outer loop
     vertex  3.100540e+02 -5.058506e+01 -2.312670e+02
     vertex  3.103931e+02 -4.709147e+01  0.000000e+00
     vertex  3.103931e+02 -4.709147e+01 -2.312670e+02
   endloop
 endfacet
 facet normal -9.953232e-01  9.660107e-02  0.000000e+00
   outer loop
     vertex  3.100540e+02 -5.058506e+01 -2.312670e+02
     vertex  3.100540e+02 -5.058506e+01  0.000000e+00
     vertex  3.103931e+02 -4.709147e+01  0.000000e+00
   endloop
 endfacet
 facet normal -9.941592e-01  1.079239e-01  0.000000e+00
   outer loop
     vertex  3.096752e+02 -5.407457e+01 -2.312670e+02
     vertex  3.096752e+02 -5.407457e+01  0.000000e+00
     vertex  3.100540e+02 -5.058506e+01  0.000000e+00
   endloop
 endfacet
 facet normal -9.928663e-01  1.192328e-01  0.000000e+00
   outer loop
     vertex  3.096752e+02 -5.407457e+01 -2.312670e+02
     vertex  3.092567e+02 -5.755955e+01  0.000000e+00
     vertex  3.096752e+02 -5.407457e+01  0.000000e+00
   endloop
 endfacet
 facet normal -9.941592e-01  1.079239e-01  0.000000e+00
   outer loop
     vertex  3.096752e+02 -5.407457e+01 -2.312670e+02
     vertex  3.100540e+02 -5.058506e+01  0.000000e+00
     vertex  3.100540e+02 -5.058506e+01 -2.312670e+02
   endloop
 endfacet
 facet normal -9.928663e-01  1.192328e-01  0.000000e+00
   outer loop
     vertex  3.092567e+02 -5.755955e+01 -2.312670e+02
     vertex  3.092567e+02 -5.755955e+01  0.000000e+00
     vertex  3.096752e+02 -5.407457e+01 -2.312670e+02
   endloop
 endfacet
 facet normal -9.914449e-01  1.305262e-01  0.000000e+00
   outer loop
     vertex  3.087985e+02 -6.103953e+01 -2.312670e+02
     vertex  3.087985e+02 -6.103953e+01  0.000000e+00
     vertex  3.092567e+02 -5.755955e+01  0.000000e+00
   endloop
 endfacet
 facet normal -9.914449e-01  1.305262e-01  0.000000e+00
   outer loop
     vertex  3.087985e+02 -6.103953e+01 -2.312670e+02
     vertex  3.092567e+02 -5.755955e+01  0.000000e+00
     vertex  3.092567e+02 -5.755955e+01 -2.312670e+02
   endloop
 endfacet
 facet normal -9.898949e-01  1.418027e-01  0.000000e+00
   outer loop
     vertex  3.083008e+02 -6.451408e+01 -2.312670e+02
     vertex  3.083008e+02 -6.451408e+01  0.000000e+00
     vertex  3.087985e+02 -6.103953e+01  0.000000e+00
   endloop
 endfacet
 facet normal -9.898949e-01  1.418027e-01  0.000000e+00
   outer loop
     vertex  3.083008e+02 -6.451408e+01 -2.312670e+02
     vertex  3.087985e+02 -6.103953e+01  0.000000e+00
     vertex  3.087985e+02 -6.103953e+01 -2.312670e+02
   endloop
 endfacet
 facet normal -9.882168e-01  1.530608e-01  0.000000e+00
   outer loop
     vertex  3.077636e+02 -6.798273e+01 -2.312670e+02
     vertex  3.077636e+02 -6.798273e+01  0.000000e+00
     vertex  3.083008e+02 -6.451408e+01  0.000000e+00
   endloop
 endfacet
 facet normal -9.882168e-01  1.530608e-01  0.000000e+00
   outer loop
     vertex  3.077636e+02 -6.798273e+01 -2.312670e+02
     vertex  3.083008e+02 -6.451408e+01  0.000000e+00
     vertex  3.083008e+02 -6.451408e+01 -2.312670e+02
   endloop
 endfacet
 facet normal -9.864106e-01  1.642991e-01  0.000000e+00
   outer loop
     vertex  3.071869e+02 -7.144504e+01 -2.312670e+02
     vertex  3.071869e+02 -7.144504e+01  0.000000e+00
     vertex  3.077636e+02 -6.798273e+01  0.000000e+00
   endloop
 endfacet
 facet normal -9.844766e-01  1.755161e-01  0.000000e+00
   outer loop
     vertex  3.071869e+02 -7.144504e+01 -2.312670e+02
     vertex  3.065708e+02 -7.490057e+01  0.000000e+00
     vertex  3.071869e+02 -7.144504e+01  0.000000e+00
   endloop
 endfacet
 facet normal -9.864106e-01  1.642991e-01  0.000000e+00
   outer loop
     vertex  3.071869e+02 -7.144504e+01 -2.312670e+02
     vertex  3.077636e+02 -6.798273e+01  0.000000e+00
     vertex  3.077636e+02 -6.798273e+01 -2.312670e+02
   endloop
 endfacet
 facet normal -9.844766e-01  1.755161e-01  0.000000e+00
   outer loop
     vertex  3.065708e+02 -7.490057e+01 -2.312670e+02
     vertex  3.065708e+02 -7.490057e+01  0.000000e+00
     vertex  3.071869e+02 -7.144504e+01 -2.312670e+02
   endloop
 endfacet
 facet normal -9.824150e-01  1.867104e-01  0.000000e+00
   outer loop
     vertex  3.059155e+02 -7.834886e+01 -2.312670e+02
     vertex  3.059155e+02 -7.834886e+01  0.000000e+00
     vertex  3.065708e+02 -7.490057e+01  0.000000e+00
   endloop
 endfacet
 facet normal -9.824150e-01  1.867104e-01  0.000000e+00
   outer loop
     vertex  3.059155e+02 -7.834886e+01 -2.312670e+02
     vertex  3.065708e+02 -7.490057e+01  0.000000e+00
     vertex  3.065708e+02 -7.490057e+01 -2.312670e+02
   endloop
 endfacet
 facet normal -9.802262e-01  1.978805e-01  0.000000e+00
   outer loop
     vertex  3.052209e+02 -8.178947e+01 -2.312670e+02
     vertex  3.052209e+02 -8.178947e+01  0.000000e+00
     vertex  3.059155e+02 -7.834886e+01  0.000000e+00
   endloop
 endfacet
 facet normal -9.779103e-01  2.090249e-01  0.000000e+00
   outer loop
     vertex  3.052209e+02 -8.178947e+01 -2.312670e+02
     vertex  3.044872e+02 -8.522194e+01  0.000000e+00
     vertex  3.052209e+02 -8.178947e+01  0.000000e+00
   endloop
 endfacet
 facet normal -9.802262e-01  1.978805e-01  0.000000e+00
   outer loop
     vertex  3.052209e+02 -8.178947e+01 -2.312670e+02
     vertex  3.059155e+02 -7.834886e+01  0.000000e+00
     vertex  3.059155e+02 -7.834886e+01 -2.312670e+02
   endloop
 endfacet
 facet normal -9.779103e-01  2.090249e-01  0.000000e+00
   outer loop
     vertex  3.044872e+02 -8.522194e+01 -2.312670e+02
     vertex  3.044872e+02 -8.522194e+01  0.000000e+00
     vertex  3.052209e+02 -8.178947e+01 -2.312670e+02
   endloop
 endfacet
 facet normal -9.754678e-01  2.201423e-01  0.000000e+00
   outer loop
     vertex  3.037145e+02 -8.864585e+01 -2.312670e+02
     vertex  3.037145e+02 -8.864585e+01  0.000000e+00
     vertex  3.044872e+02 -8.522194e+01  0.000000e+00
   endloop
 endfacet
 facet normal -9.754678e-01  2.201423e-01  0.000000e+00
   outer loop
     vertex  3.037145e+02 -8.864585e+01 -2.312670e+02
     vertex  3.044872e+02 -8.522194e+01  0.000000e+00
     vertex  3.044872e+02 -8.522194e+01 -2.312670e+02
   endloop
 endfacet
 facet normal -9.728988e-01  2.312311e-01  0.000000e+00
   outer loop
     vertex  3.029029e+02 -9.206074e+01 -2.312670e+02
     vertex  3.029029e+02 -9.206074e+01  0.000000e+00
     vertex  3.037145e+02 -8.864585e+01  0.000000e+00
   endloop
 endfacet
 facet normal -9.702039e-01  2.422900e-01  0.000000e+00
   outer loop
     vertex  3.029029e+02 -9.206074e+01 -2.312670e+02
     vertex  3.020524e+02 -9.546616e+01  0.000000e+00
     vertex  3.029029e+02 -9.206074e+01  0.000000e+00
   endloop
 endfacet
 facet normal -9.728988e-01  2.312311e-01  0.000000e+00
   outer loop
     vertex  3.029029e+02 -9.206074e+01 -2.312670e+02
     vertex  3.037145e+02 -8.864585e+01  0.000000e+00
     vertex  3.037145e+02 -8.864585e+01 -2.312670e+02
   endloop
 endfacet
 facet normal -9.673832e-01  2.533175e-01  0.000000e+00
   outer loop
     vertex  3.020524e+02 -9.546616e+01 -2.312670e+02
     vertex  3.011633e+02 -9.886169e+01  0.000000e+00
     vertex  3.020524e+02 -9.546616e+01  0.000000e+00
   endloop
 endfacet
 facet normal -9.702039e-01  2.422900e-01  0.000000e+00
   outer loop
     vertex  3.020524e+02 -9.546616e+01 -2.312670e+02
     vertex  3.020524e+02 -9.546616e+01  0.000000e+00
     vertex  3.029029e+02 -9.206074e+01 -2.312670e+02
   endloop
 endfacet
 facet normal -9.673832e-01  2.533175e-01  0.000000e+00
   outer loop
     vertex  3.011633e+02 -9.886169e+01 -2.312670e+02
     vertex  3.011633e+02 -9.886169e+01  0.000000e+00
     vertex  3.020524e+02 -9.546616e+01 -2.312670e+02
   endloop
 endfacet
 facet normal -9.644372e-01  2.643122e-01  0.000000e+00
   outer loop
     vertex  3.002356e+02 -1.022469e+02 -2.312670e+02
     vertex  3.002356e+02 -1.022469e+02  0.000000e+00
     vertex  3.011633e+02 -9.886169e+01  0.000000e+00
   endloop
 endfacet
 facet normal -9.644372e-01  2.643122e-01  0.000000e+00
   outer loop
     vertex  3.002356e+02 -1.022469e+02 -2.312670e+02
     vertex  3.011633e+02 -9.886169e+01  0.000000e+00
     vertex  3.011633e+02 -9.886169e+01 -2.312670e+02
   endloop
 endfacet
 facet normal -9.613662e-01  2.752726e-01  0.000000e+00
   outer loop
     vertex  2.992693e+02 -1.056213e+02 -2.312670e+02
     vertex  2.992693e+02 -1.056213e+02  0.000000e+00
     vertex  3.002356e+02 -1.022469e+02  0.000000e+00
   endloop
 endfacet
 facet normal -9.613662e-01  2.752726e-01  0.000000e+00
   outer loop
     vertex  2.992693e+02 -1.056213e+02 -2.312670e+02
     vertex  3.002356e+02 -1.022469e+02  0.000000e+00
     vertex  3.002356e+02 -1.022469e+02 -2.312670e+02
   endloop
 endfacet
 facet normal -9.581707e-01  2.861974e-01  0.000000e+00
   outer loop
     vertex  2.982648e+02 -1.089845e+02 -2.312670e+02
     vertex  2.982648e+02 -1.089845e+02  0.000000e+00
     vertex  2.992693e+02 -1.056213e+02  0.000000e+00
   endloop
 endfacet
 facet normal -9.581707e-01  2.861974e-01  0.000000e+00
   outer loop
     vertex  2.982648e+02 -1.089845e+02 -2.312670e+02
     vertex  2.992693e+02 -1.056213e+02  0.000000e+00
     vertex  2.992693e+02 -1.056213e+02 -2.312670e+02
   endloop
 endfacet
 facet normal -9.548510e-01  2.970851e-01  0.000000e+00
   outer loop
     vertex  2.972220e+02 -1.123360e+02 -2.312670e+02
     vertex  2.972220e+02 -1.123360e+02  0.000000e+00
     vertex  2.982648e+02 -1.089845e+02  0.000000e+00
   endloop
 endfacet
 facet normal -9.514076e-01  3.079342e-01  0.000000e+00
   outer loop
     vertex  2.972220e+02 -1.123360e+02 -2.312670e+02
     vertex  2.961412e+02 -1.156755e+02  0.000000e+00
     vertex  2.972220e+02 -1.123360e+02  0.000000e+00
   endloop
 endfacet
 facet normal -9.548510e-01  2.970851e-01  0.000000e+00
   outer loop
     vertex  2.972220e+02 -1.123360e+02 -2.312670e+02
     vertex  2.982648e+02 -1.089845e+02  0.000000e+00
     vertex  2.982648e+02 -1.089845e+02 -2.312670e+02
   endloop
 endfacet
 facet normal -9.514076e-01  3.079342e-01  0.000000e+00
   outer loop
     vertex  2.961412e+02 -1.156755e+02 -2.312670e+02
     vertex  2.961412e+02 -1.156755e+02  0.000000e+00
     vertex  2.972220e+02 -1.123360e+02 -2.312670e+02
   endloop
 endfacet
 facet normal -9.478410e-01  3.187435e-01  0.000000e+00
   outer loop
     vertex  2.950224e+02 -1.190024e+02 -2.312670e+02
     vertex  2.950224e+02 -1.190024e+02  0.000000e+00
     vertex  2.961412e+02 -1.156755e+02  0.000000e+00
   endloop
 endfacet
 facet normal -9.478410e-01  3.187435e-01  0.000000e+00
   outer loop
     vertex  2.950224e+02 -1.190024e+02 -2.312670e+02
     vertex  2.961412e+02 -1.156755e+02  0.000000e+00
     vertex  2.961412e+02 -1.156755e+02 -2.312670e+02
   endloop
 endfacet
 facet normal -9.441515e-01  3.295115e-01  0.000000e+00
   outer loop
     vertex  2.938658e+02 -1.223164e+02 -2.312670e+02
     vertex  2.938658e+02 -1.223164e+02  0.000000e+00
     vertex  2.950224e+02 -1.190024e+02  0.000000e+00
   endloop
 endfacet
 facet normal -9.441515e-01  3.295115e-01  0.000000e+00
   outer loop
     vertex  2.938658e+02 -1.223164e+02 -2.312670e+02
     vertex  2.950224e+02 -1.190024e+02  0.000000e+00
     vertex  2.950224e+02 -1.190024e+02 -2.312670e+02
   endloop
 endfacet
 facet normal -9.403398e-01  3.402368e-01  0.000000e+00
   outer loop
     vertex  2.926715e+02 -1.256170e+02 -2.312670e+02
     vertex  2.938658e+02 -1.223164e+02  0.000000e+00
     vertex  2.938658e+02 -1.223164e+02 -2.312670e+02
   endloop
 endfacet
 facet normal -9.403398e-01  3.402368e-01  0.000000e+00
   outer loop
     vertex  2.926715e+02 -1.256170e+02 -2.312670e+02
     vertex  2.926715e+02 -1.256170e+02  0.000000e+00
     vertex  2.938658e+02 -1.223164e+02  0.000000e+00
   endloop
 endfacet
 facet normal -9.364062e-01  3.509181e-01  0.000000e+00
   outer loop
     vertex  2.926715e+02 -1.256170e+02 -2.312670e+02
     vertex  2.914398e+02 -1.289038e+02  0.000000e+00
     vertex  2.926715e+02 -1.256170e+02  0.000000e+00
   endloop
 endfacet
 facet normal -9.364062e-01  3.509181e-01  0.000000e+00
   outer loop
     vertex  2.914398e+02 -1.289038e+02 -2.312670e+02
     vertex  2.914398e+02 -1.289038e+02  0.000000e+00
     vertex  2.926715e+02 -1.256170e+02 -2.312670e+02
   endloop
 endfacet
 facet normal -9.323512e-01  3.615538e-01  0.000000e+00
   outer loop
     vertex  2.901708e+02 -1.321764e+02 -2.312670e+02
     vertex  2.914398e+02 -1.289038e+02  0.000000e+00
     vertex  2.914398e+02 -1.289038e+02 -2.312670e+02
   endloop
 endfacet
 facet normal -9.323512e-01  3.615538e-01  0.000000e+00
   outer loop
     vertex  2.901708e+02 -1.321764e+02 -2.312670e+02
     vertex  2.901708e+02 -1.321764e+02  0.000000e+00
     vertex  2.914398e+02 -1.289038e+02  0.000000e+00
   endloop
 endfacet
 facet normal -9.281755e-01  3.721427e-01  0.000000e+00
   outer loop
     vertex  2.888645e+02 -1.354343e+02 -2.312670e+02
     vertex  2.901708e+02 -1.321764e+02  0.000000e+00
     vertex  2.901708e+02 -1.321764e+02 -2.312670e+02
   endloop
 endfacet
 facet normal -9.281755e-01  3.721427e-01  0.000000e+00
   outer loop
     vertex  2.888645e+02 -1.354343e+02 -2.312670e+02
     vertex  2.888645e+02 -1.354343e+02  0.000000e+00
     vertex  2.901708e+02 -1.321764e+02  0.000000e+00
   endloop
 endfacet
 facet normal -9.238795e-01  3.826834e-01  0.000000e+00
   outer loop
     vertex  2.875213e+02 -1.386771e+02 -2.312670e+02
     vertex  2.888645e+02 -1.354343e+02  0.000000e+00
     vertex  2.888645e+02 -1.354343e+02 -2.312670e+02
   endloop
 endfacet
 facet normal -9.238795e-01  3.826834e-01  0.000000e+00
   outer loop
     vertex  2.875213e+02 -1.386771e+02 -2.312670e+02
     vertex  2.875213e+02 -1.386771e+02  0.000000e+00
     vertex  2.888645e+02 -1.354343e+02  0.000000e+00
   endloop
 endfacet
 facet normal -9.194639e-01  3.931745e-01  0.000000e+00
   outer loop
     vertex  2.861413e+02 -1.419044e+02 -2.312670e+02
     vertex  2.875213e+02 -1.386771e+02  0.000000e+00
     vertex  2.875213e+02 -1.386771e+02 -2.312670e+02
   endloop
 endfacet
 facet normal -9.194639e-01  3.931745e-01  0.000000e+00
   outer loop
     vertex  2.861413e+02 -1.419044e+02 -2.312670e+02
     vertex  2.861413e+02 -1.419044e+02  0.000000e+00
     vertex  2.875213e+02 -1.386771e+02  0.000000e+00
   endloop
 endfacet
 facet normal -9.149290e-01  4.036147e-01  0.000000e+00
   outer loop
     vertex  2.861413e+02 -1.419044e+02 -2.312670e+02
     vertex  2.847246e+02 -1.451158e+02  0.000000e+00
     vertex  2.861413e+02 -1.419044e+02  0.000000e+00
   endloop
 endfacet
 facet normal -9.149290e-01  4.036147e-01  0.000000e+00
   outer loop
     vertex  2.847246e+02 -1.451158e+02 -2.312670e+02
     vertex  2.847246e+02 -1.451158e+02  0.000000e+00
     vertex  2.861413e+02 -1.419044e+02 -2.312670e+02
   endloop
 endfacet
 facet normal -9.102757e-01  4.140026e-01  0.000000e+00
   outer loop
     vertex  2.832714e+02 -1.483109e+02 -2.312670e+02
     vertex  2.847246e+02 -1.451158e+02  0.000000e+00
     vertex  2.847246e+02 -1.451158e+02 -2.312670e+02
   endloop
 endfacet
 facet normal -9.102757e-01  4.140026e-01  0.000000e+00
   outer loop
     vertex  2.832714e+02 -1.483109e+02 -2.312670e+02
     vertex  2.832714e+02 -1.483109e+02  0.000000e+00
     vertex  2.847246e+02 -1.451158e+02  0.000000e+00
   endloop
 endfacet
 facet normal -9.055044e-01  4.243369e-01  0.000000e+00
   outer loop
     vertex  2.817820e+02 -1.514893e+02 -2.312670e+02
     vertex  2.832714e+02 -1.483109e+02  0.000000e+00
     vertex  2.832714e+02 -1.483109e+02 -2.312670e+02
   endloop
 endfacet
 facet normal -9.055044e-01  4.243369e-01  0.000000e+00
   outer loop
     vertex  2.817820e+02 -1.514893e+02 -2.312670e+02
     vertex  2.817820e+02 -1.514893e+02  0.000000e+00
     vertex  2.832714e+02 -1.483109e+02  0.000000e+00
   endloop
 endfacet
 facet normal -9.006158e-01  4.346161e-01  0.000000e+00
   outer loop
     vertex  2.817820e+02 -1.514893e+02 -2.312670e+02
     vertex  2.802565e+02 -1.546504e+02  0.000000e+00
     vertex  2.817820e+02 -1.514893e+02  0.000000e+00
   endloop
 endfacet
 facet normal -9.006158e-01  4.346161e-01  0.000000e+00
   outer loop
     vertex  2.802565e+02 -1.546504e+02 -2.312670e+02
     vertex  2.802565e+02 -1.546504e+02  0.000000e+00
     vertex  2.817820e+02 -1.514893e+02 -2.312670e+02
   endloop
 endfacet
 facet normal -8.956105e-01  4.448391e-01  0.000000e+00
   outer loop
     vertex  2.786951e+02 -1.577940e+02 -2.312670e+02
     vertex  2.786951e+02 -1.577940e+02  0.000000e+00
     vertex  2.802565e+02 -1.546504e+02  0.000000e+00
   endloop
 endfacet
 facet normal -8.956105e-01  4.448391e-01  0.000000e+00
   outer loop
     vertex  2.786951e+02 -1.577940e+02 -2.312670e+02
     vertex  2.802565e+02 -1.546504e+02  0.000000e+00
     vertex  2.802565e+02 -1.546504e+02 -2.312670e+02
   endloop
 endfacet
 facet normal -8.904892e-01  4.550044e-01  0.000000e+00
   outer loop
     vertex  2.770980e+02 -1.609197e+02 -2.312670e+02
     vertex  2.770980e+02 -1.609197e+02  0.000000e+00
     vertex  2.786951e+02 -1.577940e+02  0.000000e+00
   endloop
 endfacet
 facet normal -8.852525e-01  4.651108e-01  0.000000e+00
   outer loop
     vertex  2.770980e+02 -1.609197e+02 -2.312670e+02
     vertex  2.754655e+02 -1.640269e+02  0.000000e+00
     vertex  2.770980e+02 -1.609197e+02  0.000000e+00
   endloop
 endfacet
 facet normal -8.904892e-01  4.550044e-01  0.000000e+00
   outer loop
     vertex  2.770980e+02 -1.609197e+02 -2.312670e+02
     vertex  2.786951e+02 -1.577940e+02  0.000000e+00
     vertex  2.786951e+02 -1.577940e+02 -2.312670e+02
   endloop
 endfacet
 facet normal -8.852525e-01  4.651108e-01  0.000000e+00
   outer loop
     vertex  2.754655e+02 -1.640269e+02 -2.312670e+02
     vertex  2.754655e+02 -1.640269e+02  0.000000e+00
     vertex  2.770980e+02 -1.609197e+02 -2.312670e+02
   endloop
 endfacet
 facet normal -8.799011e-01  4.751569e-01  0.000000e+00
   outer loop
     vertex  2.737977e+02 -1.671154e+02 -2.312670e+02
     vertex  2.737977e+02 -1.671154e+02  0.000000e+00
     vertex  2.754655e+02 -1.640269e+02  0.000000e+00
   endloop
 endfacet
 facet normal -8.799011e-01  4.751569e-01  0.000000e+00
   outer loop
     vertex  2.737977e+02 -1.671154e+02 -2.312670e+02
     vertex  2.754655e+02 -1.640269e+02  0.000000e+00
     vertex  2.754655e+02 -1.640269e+02 -2.312670e+02
   endloop
 endfacet
 facet normal -8.744357e-01  4.851414e-01  0.000000e+00
   outer loop
     vertex  2.720948e+02 -1.701847e+02 -2.312670e+02
     vertex  2.720948e+02 -1.701847e+02  0.000000e+00
     vertex  2.737977e+02 -1.671154e+02  0.000000e+00
   endloop
 endfacet
 facet normal -8.744357e-01  4.851414e-01  0.000000e+00
   outer loop
     vertex  2.720948e+02 -1.701847e+02 -2.312670e+02
     vertex  2.737977e+02 -1.671154e+02  0.000000e+00
     vertex  2.737977e+02 -1.671154e+02 -2.312670e+02
   endloop
 endfacet
 facet normal -8.688570e-01  4.950631e-01  0.000000e+00
   outer loop
     vertex  2.703571e+02 -1.732343e+02 -2.312670e+02
     vertex  2.703571e+02 -1.732343e+02  0.000000e+00
     vertex  2.720948e+02 -1.701847e+02  0.000000e+00
   endloop
 endfacet
 facet normal -8.688570e-01  4.950631e-01  0.000000e+00
   outer loop
     vertex  2.703571e+02 -1.732343e+02 -2.312670e+02
     vertex  2.720948e+02 -1.701847e+02  0.000000e+00
     vertex  2.720948e+02 -1.701847e+02 -2.312670e+02
   endloop
 endfacet
 facet normal -8.631657e-01  5.049207e-01  0.000000e+00
   outer loop
     vertex  2.685848e+02 -1.762641e+02 -2.312670e+02
     vertex  2.685848e+02 -1.762641e+02  0.000000e+00
     vertex  2.703571e+02 -1.732343e+02  0.000000e+00
   endloop
 endfacet
 facet normal -8.631657e-01  5.049207e-01  0.000000e+00
   outer loop
     vertex  2.685848e+02 -1.762641e+02 -2.312670e+02
     vertex  2.703571e+02 -1.732343e+02  0.000000e+00
     vertex  2.703571e+02 -1.732343e+02 -2.312670e+02
   endloop
 endfacet
 facet normal -8.573627e-01  5.147128e-01  0.000000e+00
   outer loop
     vertex  2.667782e+02 -1.792734e+02 -2.312670e+02
     vertex  2.667782e+02 -1.792734e+02  0.000000e+00
     vertex  2.685848e+02 -1.762641e+02  0.000000e+00
   endloop
 endfacet
 facet normal -8.514485e-01  5.244383e-01  0.000000e+00
   outer loop
     vertex  2.667782e+02 -1.792734e+02 -2.312670e+02
     vertex  2.649374e+02 -1.822620e+02  0.000000e+00
     vertex  2.667782e+02 -1.792734e+02  0.000000e+00
   endloop
 endfacet
 facet normal -8.573627e-01  5.147128e-01  0.000000e+00
   outer loop
     vertex  2.667782e+02 -1.792734e+02 -2.312670e+02
     vertex  2.685848e+02 -1.762641e+02  0.000000e+00
     vertex  2.685848e+02 -1.762641e+02 -2.312670e+02
   endloop
 endfacet
 facet normal -8.454240e-01  5.340958e-01  0.000000e+00
   outer loop
     vertex  2.649374e+02 -1.822620e+02 -2.312670e+02
     vertex  2.630627e+02 -1.852295e+02  0.000000e+00
     vertex  2.649374e+02 -1.822620e+02  0.000000e+00
   endloop
 endfacet
 facet normal -8.514485e-01  5.244383e-01  0.000000e+00
   outer loop
     vertex  2.649374e+02 -1.822620e+02 -2.312670e+02
     vertex  2.649374e+02 -1.822620e+02  0.000000e+00
     vertex  2.667782e+02 -1.792734e+02 -2.312670e+02
   endloop
 endfacet
 facet normal -8.454240e-01  5.340958e-01  0.000000e+00
   outer loop
     vertex  2.630627e+02 -1.852295e+02 -2.312670e+02
     vertex  2.630627e+02 -1.852295e+02  0.000000e+00
     vertex  2.649374e+02 -1.822620e+02 -2.312670e+02
   endloop
 endfacet
 facet normal -8.392900e-01  5.436841e-01  0.000000e+00
   outer loop
     vertex  2.611544e+02 -1.881754e+02 -2.312670e+02
     vertex  2.611544e+02 -1.881754e+02  0.000000e+00
     vertex  2.630627e+02 -1.852295e+02  0.000000e+00
   endloop
 endfacet
 facet normal -8.392900e-01  5.436841e-01  0.000000e+00
   outer loop
     vertex  2.611544e+02 -1.881754e+02 -2.312670e+02
     vertex  2.630627e+02 -1.852295e+02  0.000000e+00
     vertex  2.630627e+02 -1.852295e+02 -2.312670e+02
   endloop
 endfacet
 facet normal -8.330472e-01  5.532019e-01  0.000000e+00
   outer loop
     vertex  2.592126e+02 -1.910994e+02 -2.312670e+02
     vertex  2.592126e+02 -1.910994e+02  0.000000e+00
     vertex  2.611544e+02 -1.881754e+02  0.000000e+00
   endloop
 endfacet
 facet normal -8.330472e-01  5.532019e-01  0.000000e+00
   outer loop
     vertex  2.592126e+02 -1.910994e+02 -2.312670e+02
     vertex  2.611544e+02 -1.881754e+02  0.000000e+00
     vertex  2.611544e+02 -1.881754e+02 -2.312670e+02
   endloop
 endfacet
 facet normal -8.266965e-01  5.626481e-01  0.000000e+00
   outer loop
     vertex  2.572377e+02 -1.940011e+02 -2.312670e+02
     vertex  2.572377e+02 -1.940011e+02  0.000000e+00
     vertex  2.592126e+02 -1.910994e+02  0.000000e+00
   endloop
 endfacet
 facet normal -8.266965e-01  5.626481e-01  0.000000e+00
   outer loop
     vertex  2.572377e+02 -1.940011e+02 -2.312670e+02
     vertex  2.592126e+02 -1.910994e+02  0.000000e+00
     vertex  2.592126e+02 -1.910994e+02 -2.312670e+02
   endloop
 endfacet
 facet normal -8.202387e-01  5.720214e-01  0.000000e+00
   outer loop
     vertex  2.552299e+02 -1.968802e+02 -2.312670e+02
     vertex  2.552299e+02 -1.968802e+02  0.000000e+00
     vertex  2.572377e+02 -1.940011e+02  0.000000e+00
   endloop
 endfacet
 facet normal -8.202387e-01  5.720214e-01  0.000000e+00
   outer loop
     vertex  2.552299e+02 -1.968802e+02 -2.312670e+02
     vertex  2.572377e+02 -1.940011e+02  0.000000e+00
     vertex  2.572377e+02 -1.940011e+02 -2.312670e+02
   endloop
 endfacet
 facet normal -8.136746e-01  5.813206e-01  0.000000e+00
   outer loop
     vertex  2.531895e+02 -1.997362e+02 -2.312670e+02
     vertex  2.531895e+02 -1.997362e+02  0.000000e+00
     vertex  2.552299e+02 -1.968802e+02  0.000000e+00
   endloop
 endfacet
 facet normal -8.136746e-01  5.813206e-01  0.000000e+00
   outer loop
     vertex  2.531895e+02 -1.997362e+02 -2.312670e+02
     vertex  2.552299e+02 -1.968802e+02  0.000000e+00
     vertex  2.552299e+02 -1.968802e+02 -2.312670e+02
   endloop
 endfacet
 facet normal -8.070051e-01  5.905444e-01  0.000000e+00
   outer loop
     vertex  2.511167e+02 -2.025688e+02 -2.312670e+02
     vertex  2.531895e+02 -1.997362e+02  0.000000e+00
     vertex  2.531895e+02 -1.997362e+02 -2.312670e+02
   endloop
 endfacet
 facet normal -8.070051e-01  5.905444e-01  0.000000e+00
   outer loop
     vertex  2.511167e+02 -2.025688e+02 -2.312670e+02
     vertex  2.511167e+02 -2.025688e+02  0.000000e+00
     vertex  2.531895e+02 -1.997362e+02  0.000000e+00
   endloop
 endfacet
 facet normal -8.002311e-01  5.996918e-01  0.000000e+00
   outer loop
     vertex  2.490118e+02 -2.053776e+02 -2.312670e+02
     vertex  2.511167e+02 -2.025688e+02  0.000000e+00
     vertex  2.511167e+02 -2.025688e+02 -2.312670e+02
   endloop
 endfacet
 facet normal -8.002311e-01  5.996918e-01  0.000000e+00
   outer loop
     vertex  2.490118e+02 -2.053776e+02 -2.312670e+02
     vertex  2.490118e+02 -2.053776e+02  0.000000e+00
     vertex  2.511167e+02 -2.025688e+02  0.000000e+00
   endloop
 endfacet
 facet normal -7.933533e-01  6.087614e-01  0.000000e+00
   outer loop
     vertex  2.468750e+02 -2.081623e+02 -2.312670e+02
     vertex  2.490118e+02 -2.053776e+02  0.000000e+00
     vertex  2.490118e+02 -2.053776e+02 -2.312670e+02
   endloop
 endfacet
 facet normal -7.933533e-01  6.087614e-01  0.000000e+00
   outer loop
     vertex  2.468750e+02 -2.081623e+02 -2.312670e+02
     vertex  2.468750e+02 -2.081623e+02  0.000000e+00
     vertex  2.490118e+02 -2.053776e+02  0.000000e+00
   endloop
 endfacet
 facet normal -7.863728e-01  6.177522e-01  0.000000e+00
   outer loop
     vertex  2.447067e+02 -2.109224e+02 -2.312670e+02
     vertex  2.468750e+02 -2.081623e+02  0.000000e+00
     vertex  2.468750e+02 -2.081623e+02 -2.312670e+02
   endloop
 endfacet
 facet normal -7.863728e-01  6.177522e-01  0.000000e+00
   outer loop
     vertex  2.447067e+02 -2.109224e+02 -2.312670e+02
     vertex  2.447067e+02 -2.109224e+02  0.000000e+00
     vertex  2.468750e+02 -2.081623e+02  0.000000e+00
   endloop
 endfacet
 facet normal -7.792904e-01  6.266629e-01  0.000000e+00
   outer loop
     vertex  2.425071e+02 -2.136578e+02 -2.312670e+02
     vertex  2.447067e+02 -2.109224e+02  0.000000e+00
     vertex  2.447067e+02 -2.109224e+02 -2.312670e+02
   endloop
 endfacet
 facet normal -7.792904e-01  6.266629e-01  0.000000e+00
   outer loop
     vertex  2.425071e+02 -2.136578e+02 -2.312670e+02
     vertex  2.425071e+02 -2.136578e+02  0.000000e+00
     vertex  2.447067e+02 -2.109224e+02  0.000000e+00
   endloop
 endfacet
 facet normal -7.721070e-01  6.354925e-01  0.000000e+00
   outer loop
     vertex  2.402765e+02 -2.163679e+02 -2.312670e+02
     vertex  2.425071e+02 -2.136578e+02  0.000000e+00
     vertex  2.425071e+02 -2.136578e+02 -2.312670e+02
   endloop
 endfacet
 facet normal -7.721070e-01  6.354925e-01  0.000000e+00
   outer loop
     vertex  2.402765e+02 -2.163679e+02 -2.312670e+02
     vertex  2.402765e+02 -2.163679e+02  0.000000e+00
     vertex  2.425071e+02 -2.136578e+02  0.000000e+00
   endloop
 endfacet
 facet normal -7.648236e-01  6.442397e-01  0.000000e+00
   outer loop
     vertex  2.380152e+02 -2.190524e+02 -2.312670e+02
     vertex  2.402765e+02 -2.163679e+02  0.000000e+00
     vertex  2.402765e+02 -2.163679e+02 -2.312670e+02
   endloop
 endfacet
 facet normal -7.648236e-01  6.442397e-01  0.000000e+00
   outer loop
     vertex  2.380152e+02 -2.190524e+02 -2.312670e+02
     vertex  2.380152e+02 -2.190524e+02  0.000000e+00
     vertex  2.402765e+02 -2.163679e+02  0.000000e+00
   endloop
 endfacet
 facet normal -7.574411e-01  6.529035e-01  0.000000e+00
   outer loop
     vertex  2.357235e+02 -2.217110e+02 -2.312670e+02
     vertex  2.380152e+02 -2.190524e+02  0.000000e+00
     vertex  2.380152e+02 -2.190524e+02 -2.312670e+02
   endloop
 endfacet
 facet normal -7.574411e-01  6.529035e-01  0.000000e+00
   outer loop
     vertex  2.357235e+02 -2.217110e+02 -2.312670e+02
     vertex  2.357235e+02 -2.217110e+02  0.000000e+00
     vertex  2.380152e+02 -2.190524e+02  0.000000e+00
   endloop
 endfacet
 facet normal -7.499605e-01  6.614826e-01  0.000000e+00
   outer loop
     vertex  2.334017e+02 -2.243434e+02 -2.312670e+02
     vertex  2.357235e+02 -2.217110e+02  0.000000e+00
     vertex  2.357235e+02 -2.217110e+02 -2.312670e+02
   endloop
 endfacet
 facet normal -7.499605e-01  6.614826e-01  0.000000e+00
   outer loop
     vertex  2.334017e+02 -2.243434e+02 -2.312670e+02
     vertex  2.334017e+02 -2.243434e+02  0.000000e+00
     vertex  2.357235e+02 -2.217110e+02  0.000000e+00
   endloop
 endfacet
 facet normal -7.423827e-01  6.699761e-01  0.000000e+00
   outer loop
     vertex  2.310501e+02 -2.269492e+02 -2.312670e+02
     vertex  2.334017e+02 -2.243434e+02  0.000000e+00
     vertex  2.334017e+02 -2.243434e+02 -2.312670e+02
   endloop
 endfacet
 facet normal -7.423827e-01  6.699761e-01  0.000000e+00
   outer loop
     vertex  2.310501e+02 -2.269492e+02 -2.312670e+02
     vertex  2.310501e+02 -2.269492e+02  0.000000e+00
     vertex  2.334017e+02 -2.243434e+02  0.000000e+00
   endloop
 endfacet
 facet normal -7.347087e-01  6.783827e-01  0.000000e+00
   outer loop
     vertex  2.286689e+02 -2.295280e+02 -2.312670e+02
     vertex  2.310501e+02 -2.269492e+02  0.000000e+00
     vertex  2.310501e+02 -2.269492e+02 -2.312670e+02
   endloop
 endfacet
 facet normal -7.347087e-01  6.783827e-01  0.000000e+00
   outer loop
     vertex  2.286689e+02 -2.295280e+02 -2.312670e+02
     vertex  2.286689e+02 -2.295280e+02  0.000000e+00
     vertex  2.310501e+02 -2.269492e+02  0.000000e+00
   endloop
 endfacet
 facet normal -7.269395e-01  6.867015e-01  0.000000e+00
   outer loop
     vertex  2.262586e+02 -2.320796e+02 -2.312670e+02
     vertex  2.286689e+02 -2.295280e+02  0.000000e+00
     vertex  2.286689e+02 -2.295280e+02 -2.312670e+02
   endloop
 endfacet
 facet normal -7.269395e-01  6.867015e-01  0.000000e+00
   outer loop
     vertex  2.262586e+02 -2.320796e+02 -2.312670e+02
     vertex  2.262586e+02 -2.320796e+02  0.000000e+00
     vertex  2.286689e+02 -2.295280e+02  0.000000e+00
   endloop
 endfacet
 facet normal -7.190762e-01  6.949313e-01  0.000000e+00
   outer loop
     vertex  2.238194e+02 -2.346036e+02 -2.312670e+02
     vertex  2.262586e+02 -2.320796e+02  0.000000e+00
     vertex  2.262586e+02 -2.320796e+02 -2.312670e+02
   endloop
 endfacet
 facet normal -7.190762e-01  6.949313e-01  0.000000e+00
   outer loop
     vertex  2.238194e+02 -2.346036e+02 -2.312670e+02
     vertex  2.238194e+02 -2.346036e+02  0.000000e+00
     vertex  2.262586e+02 -2.320796e+02  0.000000e+00
   endloop
 endfacet
 facet normal -7.111197e-01  7.030710e-01  0.000000e+00
   outer loop
     vertex  2.213516e+02 -2.370996e+02 -2.312670e+02
     vertex  2.238194e+02 -2.346036e+02  0.000000e+00
     vertex  2.238194e+02 -2.346036e+02 -2.312670e+02
   endloop
 endfacet
 facet normal -7.111197e-01  7.030710e-01  0.000000e+00
   outer loop
     vertex  2.213516e+02 -2.370996e+02 -2.312670e+02
     vertex  2.213516e+02 -2.370996e+02  0.000000e+00
     vertex  2.238194e+02 -2.346036e+02  0.000000e+00
   endloop
 endfacet
 facet normal -7.030710e-01  7.111197e-01  0.000000e+00
   outer loop
     vertex  2.213516e+02 -2.370996e+02 -2.312670e+02
     vertex  2.188556e+02 -2.395674e+02  0.000000e+00
     vertex  2.213516e+02 -2.370996e+02  0.000000e+00
   endloop
 endfacet
 facet normal -7.030710e-01  7.111197e-01  0.000000e+00
   outer loop
     vertex  2.188556e+02 -2.395674e+02 -2.312670e+02
     vertex  2.188556e+02 -2.395674e+02  0.000000e+00
     vertex  2.213516e+02 -2.370996e+02 -2.312670e+02
   endloop
 endfacet
 facet normal -6.949313e-01  7.190762e-01  0.000000e+00
   outer loop
     vertex  2.163316e+02 -2.420066e+02 -2.312670e+02
     vertex  2.188556e+02 -2.395674e+02  0.000000e+00
     vertex  2.188556e+02 -2.395674e+02 -2.312670e+02
   endloop
 endfacet
 facet normal -6.949313e-01  7.190762e-01  0.000000e+00
   outer loop
     vertex  2.163316e+02 -2.420066e+02 -2.312670e+02
     vertex  2.163316e+02 -2.420066e+02  0.000000e+00
     vertex  2.188556e+02 -2.395674e+02  0.000000e+00
   endloop
 endfacet
 facet normal -6.867015e-01  7.269395e-01  0.000000e+00
   outer loop
     vertex  2.137800e+02 -2.444169e+02 -2.312670e+02
     vertex  2.163316e+02 -2.420066e+02  0.000000e+00
     vertex  2.163316e+02 -2.420066e+02 -2.312670e+02
   endloop
 endfacet
 facet normal -6.867015e-01  7.269395e-01  0.000000e+00
   outer loop
     vertex  2.137800e+02 -2.444169e+02 -2.312670e+02
     vertex  2.137800e+02 -2.444169e+02  0.000000e+00
     vertex  2.163316e+02 -2.420066e+02  0.000000e+00
   endloop
 endfacet
 facet normal -6.783827e-01  7.347087e-01  0.000000e+00
   outer loop
     vertex  2.112012e+02 -2.467981e+02 -2.312670e+02
     vertex  2.137800e+02 -2.444169e+02  0.000000e+00
     vertex  2.137800e+02 -2.444169e+02 -2.312670e+02
   endloop
 endfacet
 facet normal -6.783827e-01  7.347087e-01  0.000000e+00
   outer loop
     vertex  2.112012e+02 -2.467981e+02 -2.312670e+02
     vertex  2.112012e+02 -2.467981e+02  0.000000e+00
     vertex  2.137800e+02 -2.444169e+02  0.000000e+00
   endloop
 endfacet
 facet normal -6.699761e-01  7.423827e-01  0.000000e+00
   outer loop
     vertex  2.112012e+02 -2.467981e+02 -2.312670e+02
     vertex  2.085954e+02 -2.491497e+02  0.000000e+00
     vertex  2.112012e+02 -2.467981e+02  0.000000e+00
   endloop
 endfacet
 facet normal -6.699761e-01  7.423827e-01  0.000000e+00
   outer loop
     vertex  2.085954e+02 -2.491497e+02 -2.312670e+02
     vertex  2.085954e+02 -2.491497e+02  0.000000e+00
     vertex  2.112012e+02 -2.467981e+02 -2.312670e+02
   endloop
 endfacet
 facet normal -6.614826e-01  7.499605e-01  0.000000e+00
   outer loop
     vertex  2.059630e+02 -2.514715e+02 -2.312670e+02
     vertex  2.059630e+02 -2.514715e+02  0.000000e+00
     vertex  2.085954e+02 -2.491497e+02  0.000000e+00
   endloop
 endfacet
 facet normal -6.614826e-01  7.499605e-01  0.000000e+00
   outer loop
     vertex  2.059630e+02 -2.514715e+02 -2.312670e+02
     vertex  2.085954e+02 -2.491497e+02  0.000000e+00
     vertex  2.085954e+02 -2.491497e+02 -2.312670e+02
   endloop
 endfacet
 facet normal -6.529035e-01  7.574411e-01  0.000000e+00
   outer loop
     vertex  2.033044e+02 -2.537632e+02 -2.312670e+02
     vertex  2.033044e+02 -2.537632e+02  0.000000e+00
     vertex  2.059630e+02 -2.514715e+02  0.000000e+00
   endloop
 endfacet
 facet normal -6.529035e-01  7.574411e-01  0.000000e+00
   outer loop
     vertex  2.033044e+02 -2.537632e+02 -2.312670e+02
     vertex  2.059630e+02 -2.514715e+02  0.000000e+00
     vertex  2.059630e+02 -2.514715e+02 -2.312670e+02
   endloop
 endfacet
 facet normal -6.442397e-01  7.648236e-01  0.000000e+00
   outer loop
     vertex  2.006199e+02 -2.560245e+02 -2.312670e+02
     vertex  2.006199e+02 -2.560245e+02  0.000000e+00
     vertex  2.033044e+02 -2.537632e+02  0.000000e+00
   endloop
 endfacet
 facet normal -6.354925e-01  7.721070e-01  0.000000e+00
   outer loop
     vertex  2.006199e+02 -2.560245e+02 -2.312670e+02
     vertex  1.979098e+02 -2.582551e+02  0.000000e+00
     vertex  2.006199e+02 -2.560245e+02  0.000000e+00
   endloop
 endfacet
 facet normal -6.442397e-01  7.648236e-01  0.000000e+00
   outer loop
     vertex  2.006199e+02 -2.560245e+02 -2.312670e+02
     vertex  2.033044e+02 -2.537632e+02  0.000000e+00
     vertex  2.033044e+02 -2.537632e+02 -2.312670e+02
   endloop
 endfacet
 facet normal -6.354925e-01  7.721070e-01  0.000000e+00
   outer loop
     vertex  1.979098e+02 -2.582551e+02 -2.312670e+02
     vertex  1.979098e+02 -2.582551e+02  0.000000e+00
     vertex  2.006199e+02 -2.560245e+02 -2.312670e+02
   endloop
 endfacet
 facet normal -6.266629e-01  7.792904e-01  0.000000e+00
   outer loop
     vertex  1.951744e+02 -2.604547e+02 -2.312670e+02
     vertex  1.951744e+02 -2.604547e+02  0.000000e+00
     vertex  1.979098e+02 -2.582551e+02  0.000000e+00
   endloop
 endfacet
 facet normal -6.266629e-01  7.792904e-01  0.000000e+00
   outer loop
     vertex  1.951744e+02 -2.604547e+02 -2.312670e+02
     vertex  1.979098e+02 -2.582551e+02  0.000000e+00
     vertex  1.979098e+02 -2.582551e+02 -2.312670e+02
   endloop
 endfacet
 facet normal -6.177522e-01  7.863728e-01  0.000000e+00
   outer loop
     vertex  1.924143e+02 -2.626230e+02 -2.312670e+02
     vertex  1.924143e+02 -2.626230e+02  0.000000e+00
     vertex  1.951744e+02 -2.604547e+02  0.000000e+00
   endloop
 endfacet
 facet normal -6.177522e-01  7.863728e-01  0.000000e+00
   outer loop
     vertex  1.924143e+02 -2.626230e+02 -2.312670e+02
     vertex  1.951744e+02 -2.604547e+02  0.000000e+00
     vertex  1.951744e+02 -2.604547e+02 -2.312670e+02
   endloop
 endfacet
 facet normal -6.087614e-01  7.933533e-01  0.000000e+00
   outer loop
     vertex  1.896296e+02 -2.647598e+02 -2.312670e+02
     vertex  1.924143e+02 -2.626230e+02  0.000000e+00
     vertex  1.924143e+02 -2.626230e+02 -2.312670e+02
   endloop
 endfacet
 facet normal -6.087614e-01  7.933533e-01  0.000000e+00
   outer loop
     vertex  1.896296e+02 -2.647598e+02 -2.312670e+02
     vertex  1.896296e+02 -2.647598e+02  0.000000e+00
     vertex  1.924143e+02 -2.626230e+02  0.000000e+00
   endloop
 endfacet
 facet normal -5.996918e-01  8.002311e-01  0.000000e+00
   outer loop
     vertex  1.868208e+02 -2.668647e+02 -2.312670e+02
     vertex  1.896296e+02 -2.647598e+02  0.000000e+00
     vertex  1.896296e+02 -2.647598e+02 -2.312670e+02
   endloop
 endfacet
 facet normal -5.996918e-01  8.002311e-01  0.000000e+00
   outer loop
     vertex  1.868208e+02 -2.668647e+02 -2.312670e+02
     vertex  1.868208e+02 -2.668647e+02  0.000000e+00
     vertex  1.896296e+02 -2.647598e+02  0.000000e+00
   endloop
 endfacet
 facet normal -5.905444e-01  8.070051e-01  0.000000e+00
   outer loop
     vertex  1.868208e+02 -2.668647e+02 -2.312670e+02
     vertex  1.839882e+02 -2.689375e+02  0.000000e+00
     vertex  1.868208e+02 -2.668647e+02  0.000000e+00
   endloop
 endfacet
 facet normal -5.905444e-01  8.070051e-01  0.000000e+00
   outer loop
     vertex  1.839882e+02 -2.689375e+02 -2.312670e+02
     vertex  1.839882e+02 -2.689375e+02  0.000000e+00
     vertex  1.868208e+02 -2.668647e+02 -2.312670e+02
   endloop
 endfacet
 facet normal -5.813206e-01  8.136746e-01  0.000000e+00
   outer loop
     vertex  1.811322e+02 -2.709779e+02 -2.312670e+02
     vertex  1.839882e+02 -2.689375e+02  0.000000e+00
     vertex  1.839882e+02 -2.689375e+02 -2.312670e+02
   endloop
 endfacet
 facet normal -5.813206e-01  8.136746e-01  0.000000e+00
   outer loop
     vertex  1.811322e+02 -2.709779e+02 -2.312670e+02
     vertex  1.811322e+02 -2.709779e+02  0.000000e+00
     vertex  1.839882e+02 -2.689375e+02  0.000000e+00
   endloop
 endfacet
 facet normal -5.720214e-01  8.202387e-01  0.000000e+00
   outer loop
     vertex  1.811322e+02 -2.709779e+02 -2.312670e+02
     vertex  1.782531e+02 -2.729857e+02  0.000000e+00
     vertex  1.811322e+02 -2.709779e+02  0.000000e+00
   endloop
 endfacet
 facet normal -5.720214e-01  8.202387e-01  0.000000e+00
   outer loop
     vertex  1.782531e+02 -2.729857e+02 -2.312670e+02
     vertex  1.782531e+02 -2.729857e+02  0.000000e+00
     vertex  1.811322e+02 -2.709779e+02 -2.312670e+02
   endloop
 endfacet
 facet normal -5.626481e-01  8.266965e-01  0.000000e+00
   outer loop
     vertex  1.753514e+02 -2.749606e+02 -2.312670e+02
     vertex  1.782531e+02 -2.729857e+02  0.000000e+00
     vertex  1.782531e+02 -2.729857e+02 -2.312670e+02
   endloop
 endfacet
 facet normal -5.626481e-01  8.266965e-01  0.000000e+00
   outer loop
     vertex  1.753514e+02 -2.749606e+02 -2.312670e+02
     vertex  1.753514e+02 -2.749606e+02  0.000000e+00
     vertex  1.782531e+02 -2.729857e+02  0.000000e+00
   endloop
 endfacet
 facet normal -5.532019e-01  8.330472e-01  0.000000e+00
   outer loop
     vertex  1.724274e+02 -2.769024e+02 -2.312670e+02
     vertex  1.753514e+02 -2.749606e+02  0.000000e+00
     vertex  1.753514e+02 -2.749606e+02 -2.312670e+02
   endloop
 endfacet
 facet normal -5.532019e-01  8.330472e-01  0.000000e+00
   outer loop
     vertex  1.724274e+02 -2.769024e+02 -2.312670e+02
     vertex  1.724274e+02 -2.769024e+02  0.000000e+00
     vertex  1.753514e+02 -2.749606e+02  0.000000e+00
   endloop
 endfacet
 facet normal -5.436841e-01  8.392900e-01  0.000000e+00
   outer loop
     vertex  1.694815e+02 -2.788107e+02 -2.312670e+02
     vertex  1.724274e+02 -2.769024e+02  0.000000e+00
     vertex  1.724274e+02 -2.769024e+02 -2.312670e+02
   endloop
 endfacet
 facet normal -5.436841e-01  8.392900e-01  0.000000e+00
   outer loop
     vertex  1.694815e+02 -2.788107e+02 -2.312670e+02
     vertex  1.694815e+02 -2.788107e+02  0.000000e+00
     vertex  1.724274e+02 -2.769024e+02  0.000000e+00
   endloop
 endfacet
 facet normal -5.340958e-01  8.454240e-01  0.000000e+00
   outer loop
     vertex  1.665140e+02 -2.806854e+02 -2.312670e+02
     vertex  1.694815e+02 -2.788107e+02  0.000000e+00
     vertex  1.694815e+02 -2.788107e+02 -2.312670e+02
   endloop
 endfacet
 facet normal -5.340958e-01  8.454240e-01  0.000000e+00
   outer loop
     vertex  1.665140e+02 -2.806854e+02 -2.312670e+02
     vertex  1.665140e+02 -2.806854e+02  0.000000e+00
     vertex  1.694815e+02 -2.788107e+02  0.000000e+00
   endloop
 endfacet
 facet normal -5.244383e-01  8.514485e-01  0.000000e+00
   outer loop
     vertex  1.665140e+02 -2.806854e+02 -2.312670e+02
     vertex  1.635254e+02 -2.825262e+02  0.000000e+00
     vertex  1.665140e+02 -2.806854e+02  0.000000e+00
   endloop
 endfacet
 facet normal -5.244383e-01  8.514485e-01  0.000000e+00
   outer loop
     vertex  1.635254e+02 -2.825262e+02 -2.312670e+02
     vertex  1.635254e+02 -2.825262e+02  0.000000e+00
     vertex  1.665140e+02 -2.806854e+02 -2.312670e+02
   endloop
 endfacet
 facet normal -5.147128e-01  8.573627e-01  0.000000e+00
   outer loop
     vertex  1.605161e+02 -2.843328e+02 -2.312670e+02
     vertex  1.635254e+02 -2.825262e+02  0.000000e+00
     vertex  1.635254e+02 -2.825262e+02 -2.312670e+02
   endloop
 endfacet
 facet normal -5.147128e-01  8.573627e-01  0.000000e+00
   outer loop
     vertex  1.605161e+02 -2.843328e+02 -2.312670e+02
     vertex  1.605161e+02 -2.843328e+02  0.000000e+00
     vertex  1.635254e+02 -2.825262e+02  0.000000e+00
   endloop
 endfacet
 facet normal -5.049207e-01  8.631657e-01  0.000000e+00
   outer loop
     vertex  1.574863e+02 -2.861051e+02 -2.312670e+02
     vertex  1.605161e+02 -2.843328e+02  0.000000e+00
     vertex  1.605161e+02 -2.843328e+02 -2.312670e+02
   endloop
 endfacet
 facet normal -5.049207e-01  8.631657e-01  0.000000e+00
   outer loop
     vertex  1.574863e+02 -2.861051e+02 -2.312670e+02
     vertex  1.574863e+02 -2.861051e+02  0.000000e+00
     vertex  1.605161e+02 -2.843328e+02  0.000000e+00
   endloop
 endfacet
 facet normal -4.950631e-01  8.688570e-01  0.000000e+00
   outer loop
     vertex  1.544367e+02 -2.878428e+02 -2.312670e+02
     vertex  1.574863e+02 -2.861051e+02  0.000000e+00
     vertex  1.574863e+02 -2.861051e+02 -2.312670e+02
   endloop
 endfacet
 facet normal -4.950631e-01  8.688570e-01  0.000000e+00
   outer loop
     vertex  1.544367e+02 -2.878428e+02 -2.312670e+02
     vertex  1.544367e+02 -2.878428e+02  0.000000e+00
     vertex  1.574863e+02 -2.861051e+02  0.000000e+00
   endloop
 endfacet
 facet normal -4.851414e-01  8.744357e-01  0.000000e+00
   outer loop
     vertex  1.513674e+02 -2.895457e+02 -2.312670e+02
     vertex  1.544367e+02 -2.878428e+02  0.000000e+00
     vertex  1.544367e+02 -2.878428e+02 -2.312670e+02
   endloop
 endfacet
 facet normal -4.851414e-01  8.744357e-01  0.000000e+00
   outer loop
     vertex  1.513674e+02 -2.895457e+02 -2.312670e+02
     vertex  1.513674e+02 -2.895457e+02  0.000000e+00
     vertex  1.544367e+02 -2.878428e+02  0.000000e+00
   endloop
 endfacet
 facet normal -4.751569e-01  8.799011e-01  0.000000e+00
   outer loop
     vertex  1.482789e+02 -2.912135e+02 -2.312670e+02
     vertex  1.513674e+02 -2.895457e+02  0.000000e+00
     vertex  1.513674e+02 -2.895457e+02 -2.312670e+02
   endloop
 endfacet
 facet normal -4.751569e-01  8.799011e-01  0.000000e+00
   outer loop
     vertex  1.482789e+02 -2.912135e+02 -2.312670e+02
     vertex  1.482789e+02 -2.912135e+02  0.000000e+00
     vertex  1.513674e+02 -2.895457e+02  0.000000e+00
   endloop
 endfacet
 facet normal -4.651108e-01  8.852525e-01  0.000000e+00
   outer loop
     vertex  1.451717e+02 -2.928460e+02 -2.312670e+02
     vertex  1.482789e+02 -2.912135e+02  0.000000e+00
     vertex  1.482789e+02 -2.912135e+02 -2.312670e+02
   endloop
 endfacet
 facet normal -4.651108e-01  8.852525e-01  0.000000e+00
   outer loop
     vertex  1.451717e+02 -2.928460e+02 -2.312670e+02
     vertex  1.451717e+02 -2.928460e+02  0.000000e+00
     vertex  1.482789e+02 -2.912135e+02  0.000000e+00
   endloop
 endfacet
 facet normal -4.550044e-01  8.904892e-01  0.000000e+00
   outer loop
     vertex  1.420460e+02 -2.944431e+02 -2.312670e+02
     vertex  1.451717e+02 -2.928460e+02  0.000000e+00
     vertex  1.451717e+02 -2.928460e+02 -2.312670e+02
   endloop
 endfacet
 facet normal -4.550044e-01  8.904892e-01  0.000000e+00
   outer loop
     vertex  1.420460e+02 -2.944431e+02 -2.312670e+02
     vertex  1.420460e+02 -2.944431e+02  0.000000e+00
     vertex  1.451717e+02 -2.928460e+02  0.000000e+00
   endloop
 endfacet
 facet normal -4.448391e-01  8.956105e-01  0.000000e+00
   outer loop
     vertex  1.389024e+02 -2.960045e+02 -2.312670e+02
     vertex  1.420460e+02 -2.944431e+02  0.000000e+00
     vertex  1.420460e+02 -2.944431e+02 -2.312670e+02
   endloop
 endfacet
 facet normal -4.448391e-01  8.956105e-01  0.000000e+00
   outer loop
     vertex  1.389024e+02 -2.960045e+02 -2.312670e+02
     vertex  1.389024e+02 -2.960045e+02  0.000000e+00
     vertex  1.420460e+02 -2.944431e+02  0.000000e+00
   endloop
 endfacet
 facet normal -4.346161e-01  9.006158e-01  0.000000e+00
   outer loop
     vertex  1.357413e+02 -2.975300e+02 -2.312670e+02
     vertex  1.389024e+02 -2.960045e+02  0.000000e+00
     vertex  1.389024e+02 -2.960045e+02 -2.312670e+02
   endloop
 endfacet
 facet normal -4.346161e-01  9.006158e-01  0.000000e+00
   outer loop
     vertex  1.357413e+02 -2.975300e+02 -2.312670e+02
     vertex  1.357413e+02 -2.975300e+02  0.000000e+00
     vertex  1.389024e+02 -2.960045e+02  0.000000e+00
   endloop
 endfacet
 facet normal -4.243369e-01  9.055044e-01  0.000000e+00
   outer loop
     vertex  1.325629e+02 -2.990194e+02 -2.312670e+02
     vertex  1.325629e+02 -2.990194e+02  0.000000e+00
     vertex  1.357413e+02 -2.975300e+02  0.000000e+00
   endloop
 endfacet
 facet normal -4.140026e-01  9.102757e-01  0.000000e+00
   outer loop
     vertex  1.325629e+02 -2.990194e+02 -2.312670e+02
     vertex  1.293678e+02 -3.004726e+02  0.000000e+00
     vertex  1.325629e+02 -2.990194e+02  0.000000e+00
   endloop
 endfacet
 facet normal -4.243369e-01  9.055044e-01  0.000000e+00
   outer loop
     vertex  1.325629e+02 -2.990194e+02 -2.312670e+02
     vertex  1.357413e+02 -2.975300e+02  0.000000e+00
     vertex  1.357413e+02 -2.975300e+02 -2.312670e+02
   endloop
 endfacet
 facet normal -4.036147e-01  9.149290e-01  0.000000e+00
   outer loop
     vertex  1.293678e+02 -3.004726e+02 -2.312670e+02
     vertex  1.261564e+02 -3.018893e+02  0.000000e+00
     vertex  1.293678e+02 -3.004726e+02  0.000000e+00
   endloop
 endfacet
 facet normal -4.140026e-01  9.102757e-01  0.000000e+00
   outer loop
     vertex  1.293678e+02 -3.004726e+02 -2.312670e+02
     vertex  1.293678e+02 -3.004726e+02  0.000000e+00
     vertex  1.325629e+02 -2.990194e+02 -2.312670e+02
   endloop
 endfacet
 facet normal -3.931745e-01  9.194639e-01  0.000000e+00
   outer loop
     vertex  1.261564e+02 -3.018893e+02 -2.312670e+02
     vertex  1.229291e+02 -3.032693e+02  0.000000e+00
     vertex  1.261564e+02 -3.018893e+02  0.000000e+00
   endloop
 endfacet
 facet normal -4.036147e-01  9.149290e-01  0.000000e+00
   outer loop
     vertex  1.261564e+02 -3.018893e+02 -2.312670e+02
     vertex  1.261564e+02 -3.018893e+02  0.000000e+00
     vertex  1.293678e+02 -3.004726e+02 -2.312670e+02
   endloop
 endfacet
 facet normal -3.931745e-01  9.194639e-01  0.000000e+00
   outer loop
     vertex  1.229291e+02 -3.032693e+02 -2.312670e+02
     vertex  1.229291e+02 -3.032693e+02  0.000000e+00
     vertex  1.261564e+02 -3.018893e+02 -2.312670e+02
   endloop
 endfacet
 facet normal -3.826834e-01  9.238795e-01  0.000000e+00
   outer loop
     vertex  1.196863e+02 -3.046125e+02 -2.312670e+02
     vertex  1.196863e+02 -3.046125e+02  0.000000e+00
     vertex  1.229291e+02 -3.032693e+02  0.000000e+00
   endloop
 endfacet
 facet normal -3.826834e-01  9.238795e-01  0.000000e+00
   outer loop
     vertex  1.196863e+02 -3.046125e+02 -2.312670e+02
     vertex  1.229291e+02 -3.032693e+02  0.000000e+00
     vertex  1.229291e+02 -3.032693e+02 -2.312670e+02
   endloop
 endfacet
 facet normal -3.721427e-01  9.281755e-01  0.000000e+00
   outer loop
     vertex  1.164284e+02 -3.059188e+02 -2.312670e+02
     vertex  1.164284e+02 -3.059188e+02  0.000000e+00
     vertex  1.196863e+02 -3.046125e+02  0.000000e+00
   endloop
 endfacet
 facet normal -3.721427e-01  9.281755e-01  0.000000e+00
   outer loop
     vertex  1.164284e+02 -3.059188e+02 -2.312670e+02
     vertex  1.196863e+02 -3.046125e+02  0.000000e+00
     vertex  1.196863e+02 -3.046125e+02 -2.312670e+02
   endloop
 endfacet
 facet normal -3.615538e-01  9.323512e-01  0.000000e+00
   outer loop
     vertex  1.131558e+02 -3.071878e+02 -2.312670e+02
     vertex  1.131558e+02 -3.071878e+02  0.000000e+00
     vertex  1.164284e+02 -3.059188e+02  0.000000e+00
   endloop
 endfacet
 facet normal -3.509181e-01  9.364062e-01  0.000000e+00
   outer loop
     vertex  1.131558e+02 -3.071878e+02 -2.312670e+02
     vertex  1.098690e+02 -3.084195e+02  0.000000e+00
     vertex  1.131558e+02 -3.071878e+02  0.000000e+00
   endloop
 endfacet
 facet normal -3.615538e-01  9.323512e-01  0.000000e+00
   outer loop
     vertex  1.131558e+02 -3.071878e+02 -2.312670e+02
     vertex  1.164284e+02 -3.059188e+02  0.000000e+00
     vertex  1.164284e+02 -3.059188e+02 -2.312670e+02
   endloop
 endfacet
 facet normal -3.509181e-01  9.364062e-01  0.000000e+00
   outer loop
     vertex  1.098690e+02 -3.084195e+02 -2.312670e+02
     vertex  1.098690e+02 -3.084195e+02  0.000000e+00
     vertex  1.131558e+02 -3.071878e+02 -2.312670e+02
   endloop
 endfacet
 facet normal -3.402368e-01  9.403398e-01  0.000000e+00
   outer loop
     vertex  1.065684e+02 -3.096138e+02 -2.312670e+02
     vertex  1.098690e+02 -3.084195e+02  0.000000e+00
     vertex  1.098690e+02 -3.084195e+02 -2.312670e+02
   endloop
 endfacet
 facet normal -3.402368e-01  9.403398e-01  0.000000e+00
   outer loop
     vertex  1.065684e+02 -3.096138e+02 -2.312670e+02
     vertex  1.065684e+02 -3.096138e+02  0.000000e+00
     vertex  1.098690e+02 -3.084195e+02  0.000000e+00
   endloop
 endfacet
 facet normal -3.295115e-01  9.441515e-01  0.000000e+00
   outer loop
     vertex  1.032544e+02 -3.107704e+02 -2.312670e+02
     vertex  1.032544e+02 -3.107704e+02  0.000000e+00
     vertex  1.065684e+02 -3.096138e+02  0.000000e+00
   endloop
 endfacet
 facet normal -3.295115e-01  9.441515e-01  0.000000e+00
   outer loop
     vertex  1.032544e+02 -3.107704e+02 -2.312670e+02
     vertex  1.065684e+02 -3.096138e+02  0.000000e+00
     vertex  1.065684e+02 -3.096138e+02 -2.312670e+02
   endloop
 endfacet
 facet normal -3.187435e-01  9.478410e-01  0.000000e+00
   outer loop
     vertex  1.032544e+02 -3.107704e+02 -2.312670e+02
     vertex  9.992747e+01 -3.118892e+02  0.000000e+00
     vertex  1.032544e+02 -3.107704e+02  0.000000e+00
   endloop
 endfacet
 facet normal -3.187435e-01  9.478410e-01  0.000000e+00
   outer loop
     vertex  9.992747e+01 -3.118892e+02 -2.312670e+02
     vertex  9.992747e+01 -3.118892e+02  0.000000e+00
     vertex  1.032544e+02 -3.107704e+02 -2.312670e+02
   endloop
 endfacet
 facet normal -3.079342e-01  9.514076e-01  0.000000e+00
   outer loop
     vertex  9.658802e+01 -3.129700e+02 -2.312670e+02
     vertex  9.658802e+01 -3.129700e+02  0.000000e+00
     vertex  9.992747e+01 -3.118892e+02  0.000000e+00
   endloop
 endfacet
 facet normal -3.079342e-01  9.514076e-01  0.000000e+00
   outer loop
     vertex  9.658802e+01 -3.129700e+02 -2.312670e+02
     vertex  9.992747e+01 -3.118892e+02  0.000000e+00
     vertex  9.992747e+01 -3.118892e+02 -2.312670e+02
   endloop
 endfacet
 facet normal -2.970851e-01  9.548510e-01  0.000000e+00
   outer loop
     vertex  9.323648e+01 -3.140128e+02 -2.312670e+02
     vertex  9.323648e+01 -3.140128e+02  0.000000e+00
     vertex  9.658802e+01 -3.129700e+02  0.000000e+00
   endloop
 endfacet
 facet normal -2.861974e-01  9.581707e-01  0.000000e+00
   outer loop
     vertex  9.323648e+01 -3.140128e+02 -2.312670e+02
     vertex  8.987329e+01 -3.150173e+02  0.000000e+00
     vertex  9.323648e+01 -3.140128e+02  0.000000e+00
   endloop
 endfacet
 facet normal -2.970851e-01  9.548510e-01  0.000000e+00
   outer loop
     vertex  9.323648e+01 -3.140128e+02 -2.312670e+02
     vertex  9.658802e+01 -3.129700e+02  0.000000e+00
     vertex  9.658802e+01 -3.129700e+02 -2.312670e+02
   endloop
 endfacet
 facet normal -2.861974e-01  9.581707e-01  0.000000e+00
   outer loop
     vertex  8.987329e+01 -3.150173e+02 -2.312670e+02
     vertex  8.987329e+01 -3.150173e+02  0.000000e+00
     vertex  9.323648e+01 -3.140128e+02 -2.312670e+02
   endloop
 endfacet
 facet normal -2.752726e-01  9.613662e-01  0.000000e+00
   outer loop
     vertex  8.649888e+01 -3.159836e+02 -2.312670e+02
     vertex  8.649888e+01 -3.159836e+02  0.000000e+00
     vertex  8.987329e+01 -3.150173e+02  0.000000e+00
   endloop
 endfacet
 facet normal -2.752726e-01  9.613662e-01  0.000000e+00
   outer loop
     vertex  8.649888e+01 -3.159836e+02 -2.312670e+02
     vertex  8.987329e+01 -3.150173e+02  0.000000e+00
     vertex  8.987329e+01 -3.150173e+02 -2.312670e+02
   endloop
 endfacet
 facet normal -2.643122e-01  9.644372e-01  0.000000e+00
   outer loop
     vertex  8.311369e+01 -3.169113e+02 -2.312670e+02
     vertex  8.311369e+01 -3.169113e+02  0.000000e+00
     vertex  8.649888e+01 -3.159836e+02  0.000000e+00
   endloop
 endfacet
 facet normal -2.533175e-01  9.673832e-01  0.000000e+00
   outer loop
     vertex  8.311369e+01 -3.169113e+02 -2.312670e+02
     vertex  7.971816e+01 -3.178004e+02  0.000000e+00
     vertex  8.311369e+01 -3.169113e+02  0.000000e+00
   endloop
 endfacet
 facet normal -2.643122e-01  9.644372e-01  0.000000e+00
   outer loop
     vertex  8.311369e+01 -3.169113e+02 -2.312670e+02
     vertex  8.649888e+01 -3.159836e+02  0.000000e+00
     vertex  8.649888e+01 -3.159836e+02 -2.312670e+02
   endloop
 endfacet
 facet normal -2.533175e-01  9.673832e-01  0.000000e+00
   outer loop
     vertex  7.971816e+01 -3.178004e+02 -2.312670e+02
     vertex  7.971816e+01 -3.178004e+02  0.000000e+00
     vertex  8.311369e+01 -3.169113e+02 -2.312670e+02
   endloop
 endfacet
 facet normal -2.422900e-01  9.702039e-01  0.000000e+00
   outer loop
     vertex  7.631274e+01 -3.186509e+02 -2.312670e+02
     vertex  7.631274e+01 -3.186509e+02  0.000000e+00
     vertex  7.971816e+01 -3.178004e+02  0.000000e+00
   endloop
 endfacet
 facet normal -2.422900e-01  9.702039e-01  0.000000e+00
   outer loop
     vertex  7.631274e+01 -3.186509e+02 -2.312670e+02
     vertex  7.971816e+01 -3.178004e+02  0.000000e+00
     vertex  7.971816e+01 -3.178004e+02 -2.312670e+02
   endloop
 endfacet
 facet normal -2.312311e-01  9.728988e-01  0.000000e+00
   outer loop
     vertex  7.289785e+01 -3.194625e+02 -2.312670e+02
     vertex  7.289785e+01 -3.194625e+02  0.000000e+00
     vertex  7.631274e+01 -3.186509e+02  0.000000e+00
   endloop
 endfacet
 facet normal -2.312311e-01  9.728988e-01  0.000000e+00
   outer loop
     vertex  7.289785e+01 -3.194625e+02 -2.312670e+02
     vertex  7.631274e+01 -3.186509e+02  0.000000e+00
     vertex  7.631274e+01 -3.186509e+02 -2.312670e+02
   endloop
 endfacet
 facet normal -2.201423e-01  9.754678e-01  0.000000e+00
   outer loop
     vertex  6.947394e+01 -3.202352e+02 -2.312670e+02
     vertex  6.947394e+01 -3.202352e+02  0.000000e+00
     vertex  7.289785e+01 -3.194625e+02  0.000000e+00
   endloop
 endfacet
 facet normal -2.090249e-01  9.779103e-01  0.000000e+00
   outer loop
     vertex  6.947394e+01 -3.202352e+02 -2.312670e+02
     vertex  6.604147e+01 -3.209689e+02  0.000000e+00
     vertex  6.947394e+01 -3.202352e+02  0.000000e+00
   endloop
 endfacet
 facet normal -2.201423e-01  9.754678e-01  0.000000e+00
   outer loop
     vertex  6.947394e+01 -3.202352e+02 -2.312670e+02
     vertex  7.289785e+01 -3.194625e+02  0.000000e+00
     vertex  7.289785e+01 -3.194625e+02 -2.312670e+02
   endloop
 endfacet
 facet normal -2.090249e-01  9.779103e-01  0.000000e+00
   outer loop
     vertex  6.604147e+01 -3.209689e+02 -2.312670e+02
     vertex  6.604147e+01 -3.209689e+02  0.000000e+00
     vertex  6.947394e+01 -3.202352e+02 -2.312670e+02
   endloop
 endfacet
 facet normal -1.978805e-01  9.802262e-01  0.000000e+00
   outer loop
     vertex  6.260086e+01 -3.216635e+02 -2.312670e+02
     vertex  6.260086e+01 -3.216635e+02  0.000000e+00
     vertex  6.604147e+01 -3.209689e+02  0.000000e+00
   endloop
 endfacet
 facet normal -1.978805e-01  9.802262e-01  0.000000e+00
   outer loop
     vertex  6.260086e+01 -3.216635e+02 -2.312670e+02
     vertex  6.604147e+01 -3.209689e+02  0.000000e+00
     vertex  6.604147e+01 -3.209689e+02 -2.312670e+02
   endloop
 endfacet
 facet normal -1.867104e-01  9.824150e-01  0.000000e+00
   outer loop
     vertex  5.915257e+01 -3.223188e+02 -2.312670e+02
     vertex  5.915257e+01 -3.223188e+02  0.000000e+00
     vertex  6.260086e+01 -3.216635e+02  0.000000e+00
   endloop
 endfacet
 facet normal -1.755161e-01  9.844766e-01  0.000000e+00
   outer loop
     vertex  5.915257e+01 -3.223188e+02 -2.312670e+02
     vertex  5.569704e+01 -3.229349e+02  0.000000e+00
     vertex  5.915257e+01 -3.223188e+02  0.000000e+00
   endloop
 endfacet
 facet normal -1.867104e-01  9.824150e-01  0.000000e+00
   outer loop
     vertex  5.915257e+01 -3.223188e+02 -2.312670e+02
     vertex  6.260086e+01 -3.216635e+02  0.000000e+00
     vertex  6.260086e+01 -3.216635e+02 -2.312670e+02
   endloop
 endfacet
 facet normal -1.755161e-01  9.844766e-01  0.000000e+00
   outer loop
     vertex  5.569704e+01 -3.229349e+02 -2.312670e+02
     vertex  5.569704e+01 -3.229349e+02  0.000000e+00
     vertex  5.915257e+01 -3.223188e+02 -2.312670e+02
   endloop
 endfacet
 facet normal -1.642991e-01  9.864106e-01  0.000000e+00
   outer loop
     vertex  5.223473e+01 -3.235116e+02 -2.312670e+02
     vertex  5.223473e+01 -3.235116e+02  0.000000e+00
     vertex  5.569704e+01 -3.229349e+02  0.000000e+00
   endloop
 endfacet
 facet normal -1.642991e-01  9.864106e-01  0.000000e+00
   outer loop
     vertex  5.223473e+01 -3.235116e+02 -2.312670e+02
     vertex  5.569704e+01 -3.229349e+02  0.000000e+00
     vertex  5.569704e+01 -3.229349e+02 -2.312670e+02
   endloop
 endfacet
 facet normal -1.530608e-01  9.882168e-01  0.000000e+00
   outer loop
     vertex  4.876608e+01 -3.240488e+02 -2.312670e+02
     vertex  4.876608e+01 -3.240488e+02  0.000000e+00
     vertex  5.223473e+01 -3.235116e+02  0.000000e+00
   endloop
 endfacet
 facet normal -1.530608e-01  9.882168e-01  0.000000e+00
   outer loop
     vertex  4.876608e+01 -3.240488e+02 -2.312670e+02
     vertex  5.223473e+01 -3.235116e+02  0.000000e+00
     vertex  5.223473e+01 -3.235116e+02 -2.312670e+02
   endloop
 endfacet
 facet normal -1.418027e-01  9.898949e-01  0.000000e+00
   outer loop
     vertex  4.529153e+01 -3.245465e+02 -2.312670e+02
     vertex  4.529153e+01 -3.245465e+02  0.000000e+00
     vertex  4.876608e+01 -3.240488e+02  0.000000e+00
   endloop
 endfacet
 facet normal -1.418027e-01  9.898949e-01  0.000000e+00
   outer loop
     vertex  4.529153e+01 -3.245465e+02 -2.312670e+02
     vertex  4.876608e+01 -3.240488e+02  0.000000e+00
     vertex  4.876608e+01 -3.240488e+02 -2.312670e+02
   endloop
 endfacet
 facet normal -1.305262e-01  9.914449e-01  0.000000e+00
   outer loop
     vertex  4.181155e+01 -3.250047e+02 -2.312670e+02
     vertex  4.181155e+01 -3.250047e+02  0.000000e+00
     vertex  4.529153e+01 -3.245465e+02  0.000000e+00
   endloop
 endfacet
 facet normal -1.305262e-01  9.914449e-01  0.000000e+00
   outer loop
     vertex  4.181155e+01 -3.250047e+02 -2.312670e+02
     vertex  4.529153e+01 -3.245465e+02  0.000000e+00
     vertex  4.529153e+01 -3.245465e+02 -2.312670e+02
   endloop
 endfacet
 facet normal -1.192328e-01  9.928663e-01  0.000000e+00
   outer loop
     vertex  3.832657e+01 -3.254232e+02 -2.312670e+02
     vertex  3.832657e+01 -3.254232e+02  0.000000e+00
     vertex  4.181155e+01 -3.250047e+02  0.000000e+00
   endloop
 endfacet
 facet normal -1.192328e-01  9.928663e-01  0.000000e+00
   outer loop
     vertex  3.832657e+01 -3.254232e+02 -2.312670e+02
     vertex  4.181155e+01 -3.250047e+02  0.000000e+00
     vertex  4.181155e+01 -3.250047e+02 -2.312670e+02
   endloop
 endfacet
 facet normal -1.079239e-01  9.941592e-01  0.000000e+00
   outer loop
     vertex  3.483706e+01 -3.258020e+02 -2.312670e+02
     vertex  3.483706e+01 -3.258020e+02  0.000000e+00
     vertex  3.832657e+01 -3.254232e+02  0.000000e+00
   endloop
 endfacet
 facet normal -1.079239e-01  9.941592e-01  0.000000e+00
   outer loop
     vertex  3.483706e+01 -3.258020e+02 -2.312670e+02
     vertex  3.832657e+01 -3.254232e+02  0.000000e+00
     vertex  3.832657e+01 -3.254232e+02 -2.312670e+02
   endloop
 endfacet
 facet normal -9.660107e-02  9.953232e-01  0.000000e+00
   outer loop
     vertex  3.134347e+01 -3.261411e+02 -2.312670e+02
     vertex  3.134347e+01 -3.261411e+02  0.000000e+00
     vertex  3.483706e+01 -3.258020e+02  0.000000e+00
   endloop
 endfacet
 facet normal -9.660107e-02  9.953232e-01  0.000000e+00
   outer loop
     vertex  3.134347e+01 -3.261411e+02 -2.312670e+02
     vertex  3.483706e+01 -3.258020e+02  0.000000e+00
     vertex  3.483706e+01 -3.258020e+02 -2.312670e+02
   endloop
 endfacet
 facet normal -8.526571e-02  9.963582e-01  0.000000e+00
   outer loop
     vertex  2.784623e+01 -3.264404e+02 -2.312670e+02
     vertex  2.784623e+01 -3.264404e+02  0.000000e+00
     vertex  3.134347e+01 -3.261411e+02  0.000000e+00
   endloop
 endfacet
 facet normal -7.391930e-02  9.972642e-01  0.000000e+00
   outer loop
     vertex  2.784623e+01 -3.264404e+02 -2.312670e+02
     vertex  2.434582e+01 -3.266998e+02  0.000000e+00
     vertex  2.784623e+01 -3.264404e+02  0.000000e+00
   endloop
 endfacet
 facet normal -8.526571e-02  9.963582e-01  0.000000e+00
   outer loop
     vertex  2.784623e+01 -3.264404e+02 -2.312670e+02
     vertex  3.134347e+01 -3.261411e+02  0.000000e+00
     vertex  3.134347e+01 -3.261411e+02 -2.312670e+02
   endloop
 endfacet
 facet normal -7.391930e-02  9.972642e-01  0.000000e+00
   outer loop
     vertex  2.434582e+01 -3.266998e+02 -2.312670e+02
     vertex  2.434582e+01 -3.266998e+02  0.000000e+00
     vertex  2.784623e+01 -3.264404e+02 -2.312670e+02
   endloop
 endfacet
 facet normal -6.256332e-02  9.980410e-01  0.000000e+00
   outer loop
     vertex  2.434582e+01 -3.266998e+02 -2.312670e+02
     vertex  2.084269e+01 -3.269194e+02  0.000000e+00
     vertex  2.434582e+01 -3.266998e+02  0.000000e+00
   endloop
 endfacet
 facet normal -6.256332e-02  9.980410e-01  0.000000e+00
   outer loop
     vertex  2.084269e+01 -3.269194e+02 -2.312670e+02
     vertex  2.084269e+01 -3.269194e+02  0.000000e+00
     vertex  2.434582e+01 -3.266998e+02 -2.312670e+02
   endloop
 endfacet
 facet normal -5.119922e-02  9.986885e-01  0.000000e+00
   outer loop
     vertex  1.733728e+01 -3.270991e+02 -2.312670e+02
     vertex  2.084269e+01 -3.269194e+02  0.000000e+00
     vertex  2.084269e+01 -3.269194e+02 -2.312670e+02
   endloop
 endfacet
 facet normal -5.119922e-02  9.986885e-01  0.000000e+00
   outer loop
     vertex  1.733728e+01 -3.270991e+02 -2.312670e+02
     vertex  1.733728e+01 -3.270991e+02  0.000000e+00
     vertex  2.084269e+01 -3.269194e+02  0.000000e+00
   endloop
 endfacet
 facet normal -3.982850e-02  9.992065e-01  0.000000e+00
   outer loop
     vertex  1.383005e+01 -3.272389e+02 -2.312670e+02
     vertex  1.733728e+01 -3.270991e+02  0.000000e+00
     vertex  1.733728e+01 -3.270991e+02 -2.312670e+02
   endloop
 endfacet
 facet normal -3.982850e-02  9.992065e-01  0.000000e+00
   outer loop
     vertex  1.383005e+01 -3.272389e+02 -2.312670e+02
     vertex  1.383005e+01 -3.272389e+02  0.000000e+00
     vertex  1.733728e+01 -3.270991e+02  0.000000e+00
   endloop
 endfacet
 facet normal -2.845261e-02  9.995951e-01  0.000000e+00
   outer loop
     vertex  1.032146e+01 -3.273388e+02 -2.312670e+02
     vertex  1.383005e+01 -3.272389e+02  0.000000e+00
     vertex  1.383005e+01 -3.272389e+02 -2.312670e+02
   endloop
 endfacet
 facet normal -2.845261e-02  9.995951e-01  0.000000e+00
   outer loop
     vertex  1.032146e+01 -3.273388e+02 -2.312670e+02
     vertex  1.032146e+01 -3.273388e+02  0.000000e+00
     vertex  1.383005e+01 -3.272389e+02  0.000000e+00
   endloop
 endfacet
 facet normal -1.707304e-02  9.998542e-01  0.000000e+00
   outer loop
     vertex  6.811956e+00 -3.273987e+02 -2.312670e+02
     vertex  1.032146e+01 -3.273388e+02  0.000000e+00
     vertex  1.032146e+01 -3.273388e+02 -2.312670e+02
   endloop
 endfacet
 facet normal -1.707304e-02  9.998542e-01  0.000000e+00
   outer loop
     vertex  6.811956e+00 -3.273987e+02 -2.312670e+02
     vertex  6.811956e+00 -3.273987e+02  0.000000e+00
     vertex  1.032146e+01 -3.273388e+02  0.000000e+00
   endloop
 endfacet
 facet normal -5.691260e-03  9.999838e-01  0.000000e+00
   outer loop
     vertex  6.811956e+00 -3.273987e+02 -2.312670e+02
     vertex  3.302000e+00 -3.274187e+02  0.000000e+00
     vertex  6.811956e+00 -3.273987e+02  0.000000e+00
   endloop
 endfacet
 facet normal -5.691260e-03  9.999838e-01  0.000000e+00
   outer loop
     vertex  3.302000e+00 -3.274187e+02 -2.312670e+02
     vertex  3.302000e+00 -3.274187e+02  0.000000e+00
     vertex  6.811956e+00 -3.273987e+02 -2.312670e+02
   endloop
 endfacet
endsolid
