solid 
 facet normal -2.136399e-01  9.769125e-01  0.000000e+00
   outer loop
     vertex  3.755749e+01 -1.656584e+02  3.429000e+00
     vertex  3.501920e+01 -1.662135e+02  0.000000e+00
     vertex  3.501920e+01 -1.662135e+02  3.429000e+00
   endloop
 endfacet
 facet normal -2.136399e-01  9.769125e-01 -2.624499e-15
   outer loop
     vertex  3.755749e+01 -1.656584e+02  3.429000e+00
     vertex  3.755749e+01 -1.656584e+02  3.290560e-31
     vertex  3.501920e+01 -1.662135e+02  0.000000e+00
   endloop
 endfacet
 facet normal -2.285576e-01  9.735304e-01  6.917017e-15
   outer loop
     vertex  4.008698e+01 -1.650645e+02  3.429000e+00
     vertex  4.008698e+01 -1.650645e+02  3.319811e-31
     vertex  3.755749e+01 -1.656584e+02  3.290560e-31
   endloop
 endfacet
 facet normal -2.285576e-01  9.735304e-01 -1.114027e-14
   outer loop
     vertex  4.008698e+01 -1.650645e+02  3.429000e+00
     vertex  3.755749e+01 -1.656584e+02  3.290560e-31
     vertex  3.755749e+01 -1.656584e+02  3.429000e+00
   endloop
 endfacet
 facet normal -2.434219e-01  9.699205e-01 -1.003989e-15
   outer loop
     vertex  4.260710e+01 -1.644321e+02  3.429000e+00
     vertex  4.260710e+01 -1.644321e+02  3.348286e-31
     vertex  4.008698e+01 -1.650645e+02  3.319811e-31
   endloop
 endfacet
 facet normal -2.434219e-01  9.699205e-01 -1.495338e-15
   outer loop
     vertex  4.260710e+01 -1.644321e+02  3.429000e+00
     vertex  4.008698e+01 -1.650645e+02  3.319811e-31
     vertex  4.008698e+01 -1.650645e+02  3.429000e+00
   endloop
 endfacet
 facet normal -2.582292e-01  9.660837e-01  8.757018e-15
   outer loop
     vertex  4.511725e+01 -1.637611e+02  3.429000e+00
     vertex  4.511725e+01 -1.637611e+02  3.375977e-31
     vertex  4.260710e+01 -1.644321e+02  3.348286e-31
   endloop
 endfacet
 facet normal -2.582292e-01  9.660837e-01 -9.395710e-15
   outer loop
     vertex  4.511725e+01 -1.637611e+02  3.429000e+00
     vertex  4.260710e+01 -1.644321e+02  3.348286e-31
     vertex  4.260710e+01 -1.644321e+02  3.429000e+00
   endloop
 endfacet
 facet normal -2.729761e-01  9.620208e-01 -5.857167e-15
   outer loop
     vertex  4.761684e+01 -1.630518e+02  3.429000e+00
     vertex  4.761684e+01 -1.630518e+02  3.402878e-31
     vertex  4.511725e+01 -1.637611e+02  3.375977e-31
   endloop
 endfacet
 facet normal -2.729761e-01  9.620208e-01  4.236792e-16
   outer loop
     vertex  4.761684e+01 -1.630518e+02  3.429000e+00
     vertex  4.511725e+01 -1.637611e+02  3.375977e-31
     vertex  4.511725e+01 -1.637611e+02  3.429000e+00
   endloop
 endfacet
 facet normal -2.876591e-01  9.577329e-01  3.597063e-15
   outer loop
     vertex  5.010529e+01 -1.623044e+02  3.429000e+00
     vertex  5.010529e+01 -1.623044e+02  3.428983e-31
     vertex  4.761684e+01 -1.630518e+02  3.402878e-31
   endloop
 endfacet
 facet normal -2.876591e-01  9.577329e-01 -1.405618e-14
   outer loop
     vertex  5.010529e+01 -1.623044e+02  3.429000e+00
     vertex  4.761684e+01 -1.630518e+02  3.402878e-31
     vertex  4.761684e+01 -1.630518e+02  3.429000e+00
   endloop
 endfacet
 facet normal -3.022748e-01  9.532208e-01 -2.715081e-15
   outer loop
     vertex  5.258201e+01 -1.615190e+02  3.429000e+00
     vertex  5.258201e+01 -1.615190e+02  3.454286e-31
     vertex  5.010529e+01 -1.623044e+02  3.428983e-31
   endloop
 endfacet
 facet normal -3.022748e-01  9.532208e-01 -4.585705e-15
   outer loop
     vertex  5.258201e+01 -1.615190e+02  3.429000e+00
     vertex  5.010529e+01 -1.623044e+02  3.428983e-31
     vertex  5.010529e+01 -1.623044e+02  3.429000e+00
   endloop
 endfacet
 facet normal -3.168198e-01  9.484858e-01  6.877980e-15
   outer loop
     vertex  5.504644e+01 -1.606959e+02  3.429000e+00
     vertex  5.504644e+01 -1.606959e+02  3.478781e-31
     vertex  5.258201e+01 -1.615190e+02  3.454286e-31
   endloop
 endfacet
 facet normal -3.168198e-01  9.484858e-01 -1.081628e-14
   outer loop
     vertex  5.504644e+01 -1.606959e+02  3.429000e+00
     vertex  5.258201e+01 -1.615190e+02  3.454286e-31
     vertex  5.258201e+01 -1.615190e+02  3.429000e+00
   endloop
 endfacet
 facet normal -3.312906e-01  9.435288e-01  8.480198e-16
   outer loop
     vertex  5.749798e+01 -1.598351e+02  3.429000e+00
     vertex  5.749798e+01 -1.598351e+02  3.502461e-31
     vertex  5.504644e+01 -1.606959e+02  3.478781e-31
   endloop
 endfacet
 facet normal -3.312906e-01  9.435288e-01 -1.196271e-15
   outer loop
     vertex  5.749798e+01 -1.598351e+02  3.429000e+00
     vertex  5.504644e+01 -1.606959e+02  3.478781e-31
     vertex  5.504644e+01 -1.606959e+02  3.429000e+00
   endloop
 endfacet
 facet normal -3.456840e-01  9.383510e-01  1.126889e-14
   outer loop
     vertex  5.993607e+01 -1.589369e+02  3.429000e+00
     vertex  5.993607e+01 -1.589369e+02  3.525323e-31
     vertex  5.749798e+01 -1.598351e+02  3.502461e-31
   endloop
 endfacet
 facet normal -3.456840e-01  9.383510e-01 -7.127780e-15
   outer loop
     vertex  5.993607e+01 -1.589369e+02  3.429000e+00
     vertex  5.749798e+01 -1.598351e+02  3.502461e-31
     vertex  5.749798e+01 -1.598351e+02  3.429000e+00
   endloop
 endfacet
 facet normal -3.599964e-01  9.329537e-01  4.792003e-15
   outer loop
     vertex  6.236014e+01 -1.580015e+02  3.429000e+00
     vertex  6.236014e+01 -1.580015e+02  3.547359e-31
     vertex  5.993607e+01 -1.589369e+02  3.525323e-31
   endloop
 endfacet
 facet normal -3.599964e-01  9.329537e-01  3.289745e-15
   outer loop
     vertex  6.236014e+01 -1.580015e+02  3.429000e+00
     vertex  5.993607e+01 -1.589369e+02  3.525323e-31
     vertex  5.993607e+01 -1.589369e+02  3.429000e+00
   endloop
 endfacet
 facet normal -3.742247e-01  9.273381e-01 -1.567727e-15
   outer loop
     vertex  6.476961e+01 -1.570292e+02  3.429000e+00
     vertex  6.476961e+01 -1.570292e+02  3.568565e-31
     vertex  6.236014e+01 -1.580015e+02  3.547359e-31
   endloop
 endfacet
 facet normal -3.742247e-01  9.273381e-01 -3.140211e-15
   outer loop
     vertex  6.476961e+01 -1.570292e+02  3.429000e+00
     vertex  6.236014e+01 -1.580015e+02  3.547359e-31
     vertex  6.236014e+01 -1.580015e+02  3.429000e+00
   endloop
 endfacet
 facet normal -3.883653e-01  9.215055e-01 -4.590504e-15
   outer loop
     vertex  6.716394e+01 -1.560201e+02  3.429000e+00
     vertex  6.716394e+01 -1.560201e+02  3.588937e-31
     vertex  6.476961e+01 -1.570292e+02  3.568565e-31
   endloop
 endfacet
 facet normal -3.883653e-01  9.215055e-01 -9.420632e-15
   outer loop
     vertex  6.716394e+01 -1.560201e+02  3.429000e+00
     vertex  6.476961e+01 -1.570292e+02  3.568565e-31
     vertex  6.476961e+01 -1.570292e+02  3.429000e+00
   endloop
 endfacet
 facet normal -4.024151e-01  9.154573e-01  1.216647e-14
   outer loop
     vertex  6.954254e+01 -1.549745e+02  3.429000e+00
     vertex  6.954254e+01 -1.549745e+02  3.608468e-31
     vertex  6.716394e+01 -1.560201e+02  3.588937e-31
   endloop
 endfacet
 facet normal -4.024151e-01  9.154573e-01 -1.226178e-14
   outer loop
     vertex  6.954254e+01 -1.549745e+02  3.429000e+00
     vertex  6.716394e+01 -1.560201e+02  3.588937e-31
     vertex  6.716394e+01 -1.560201e+02  3.429000e+00
   endloop
 endfacet
 facet normal -4.163708e-01  9.091949e-01 -8.949346e-15
   outer loop
     vertex  7.190488e+01 -1.538927e+02  3.429000e+00
     vertex  7.190488e+01 -1.538927e+02  3.627156e-31
     vertex  6.954254e+01 -1.549745e+02  3.608468e-31
   endloop
 endfacet
 facet normal -4.163708e-01  9.091949e-01  4.386326e-15
   outer loop
     vertex  7.190488e+01 -1.538927e+02  3.429000e+00
     vertex  6.954254e+01 -1.549745e+02  3.608468e-31
     vertex  6.954254e+01 -1.549745e+02  3.429000e+00
   endloop
 endfacet
 facet normal -4.302290e-01  9.027198e-01  3.758599e-15
   outer loop
     vertex  7.425039e+01 -1.527748e+02  3.429000e+00
     vertex  7.425039e+01 -1.527748e+02  3.644994e-31
     vertex  7.190488e+01 -1.538927e+02  3.627156e-31
   endloop
 endfacet
 facet normal -4.302290e-01  9.027198e-01 -1.654841e-14
   outer loop
     vertex  7.425039e+01 -1.527748e+02  3.429000e+00
     vertex  7.190488e+01 -1.538927e+02  3.627156e-31
     vertex  7.190488e+01 -1.538927e+02  3.429000e+00
   endloop
 endfacet
 facet normal -4.439865e-01  8.960335e-01  5.483900e-15
   outer loop
     vertex  7.657853e+01 -1.516212e+02  3.429000e+00
     vertex  7.657853e+01 -1.516212e+02  3.661980e-31
     vertex  7.425039e+01 -1.527748e+02  3.644994e-31
   endloop
 endfacet
 facet normal -4.439865e-01  8.960335e-01 -3.788191e-15
   outer loop
     vertex  7.657853e+01 -1.516212e+02  3.429000e+00
     vertex  7.425039e+01 -1.527748e+02  3.644994e-31
     vertex  7.425039e+01 -1.527748e+02  3.429000e+00
   endloop
 endfacet
 facet normal -4.576402e-01  8.891375e-01  1.735814e-15
   outer loop
     vertex  7.888875e+01 -1.504322e+02  3.429000e+00
     vertex  7.888875e+01 -1.504322e+02  3.678109e-31
     vertex  7.657853e+01 -1.516212e+02  3.661980e-31
   endloop
 endfacet
 facet normal -4.576402e-01  8.891375e-01 -2.093474e-15
   outer loop
     vertex  7.888875e+01 -1.504322e+02  3.429000e+00
     vertex  7.657853e+01 -1.516212e+02  3.661980e-31
     vertex  7.657853e+01 -1.516212e+02  3.429000e+00
   endloop
 endfacet
 facet normal -4.711868e-01  8.820334e-01  3.570877e-15
   outer loop
     vertex  8.118051e+01 -1.492079e+02  3.429000e+00
     vertex  8.118051e+01 -1.492079e+02  3.693377e-31
     vertex  7.888875e+01 -1.504322e+02  3.678109e-31
   endloop
 endfacet
 facet normal -4.711868e-01  8.820334e-01 -5.732131e-15
   outer loop
     vertex  8.118051e+01 -1.492079e+02  3.429000e+00
     vertex  7.888875e+01 -1.504322e+02  3.678109e-31
     vertex  7.888875e+01 -1.504322e+02  3.429000e+00
   endloop
 endfacet
 facet normal -4.846231e-01  8.747230e-01 -1.852801e-15
   outer loop
     vertex  8.345328e+01 -1.479487e+02  3.429000e+00
     vertex  8.345328e+01 -1.479487e+02  3.707781e-31
     vertex  8.118051e+01 -1.492079e+02  3.693377e-31
   endloop
 endfacet
 facet normal -4.846231e-01  8.747230e-01 -3.838035e-15
   outer loop
     vertex  8.345328e+01 -1.479487e+02  3.429000e+00
     vertex  8.118051e+01 -1.492079e+02  3.693377e-31
     vertex  8.118051e+01 -1.492079e+02  3.429000e+00
   endloop
 endfacet
 facet normal -4.979461e-01  8.672080e-01  2.086465e-15
   outer loop
     vertex  8.570652e+01 -1.466549e+02  3.429000e+00
     vertex  8.570652e+01 -1.466549e+02  3.721318e-31
     vertex  8.345328e+01 -1.479487e+02  3.707781e-31
   endloop
 endfacet
 facet normal -4.979461e-01  8.672080e-01 -9.221254e-15
   outer loop
     vertex  8.570652e+01 -1.466549e+02  3.429000e+00
     vertex  8.345328e+01 -1.479487e+02  3.707781e-31
     vertex  8.345328e+01 -1.479487e+02  3.429000e+00
   endloop
 endfacet
 facet normal -5.111526e-01  8.594900e-01  6.118873e-15
   outer loop
     vertex  8.793971e+01 -1.453268e+02  3.429000e+00
     vertex  8.793971e+01 -1.453268e+02  3.733984e-31
     vertex  8.570652e+01 -1.466549e+02  3.721318e-31
   endloop
 endfacet
 facet normal -5.111526e-01  8.594900e-01 -5.233685e-15
   outer loop
     vertex  8.793971e+01 -1.453268e+02  3.429000e+00
     vertex  8.570652e+01 -1.466549e+02  3.721318e-31
     vertex  8.570652e+01 -1.466549e+02  3.429000e+00
   endloop
 endfacet
 facet normal -5.242394e-01  8.515709e-01 -8.223761e-15
   outer loop
     vertex  9.015232e+01 -1.439647e+02  3.429000e+00
     vertex  9.015232e+01 -1.439647e+02  3.745776e-31
     vertex  8.793971e+01 -1.453268e+02  3.733984e-31
   endloop
 endfacet
 facet normal -5.242394e-01  8.515709e-01 -1.146426e-15
   outer loop
     vertex  9.015232e+01 -1.439647e+02  3.429000e+00
     vertex  8.793971e+01 -1.453268e+02  3.733984e-31
     vertex  8.793971e+01 -1.453268e+02  3.429000e+00
   endloop
 endfacet
 facet normal -5.372036e-01  8.434526e-01 -3.996730e-15
   outer loop
     vertex  9.234384e+01 -1.425689e+02  3.429000e+00
     vertex  9.234384e+01 -1.425689e+02  3.756692e-31
     vertex  9.015232e+01 -1.439647e+02  3.745776e-31
   endloop
 endfacet
 facet normal -5.372036e-01  8.434526e-01 -1.545183e-14
   outer loop
     vertex  9.234384e+01 -1.425689e+02  3.429000e+00
     vertex  9.015232e+01 -1.439647e+02  3.745776e-31
     vertex  9.015232e+01 -1.439647e+02  3.429000e+00
   endloop
 endfacet
 facet normal -5.500421e-01  8.351369e-01  3.088891e-16
   outer loop
     vertex  9.451375e+01 -1.411397e+02  3.429000e+00
     vertex  9.451375e+01 -1.411397e+02  3.766729e-31
     vertex  9.234384e+01 -1.425689e+02  3.756692e-31
   endloop
 endfacet
 facet normal -5.500421e-01  8.351369e-01 -1.121504e-14
   outer loop
     vertex  9.451375e+01 -1.411397e+02  3.429000e+00
     vertex  9.234384e+01 -1.425689e+02  3.756692e-31
     vertex  9.234384e+01 -1.425689e+02  3.429000e+00
   endloop
 endfacet
 facet normal -5.627519e-01  8.266259e-01 -2.164869e-15
   outer loop
     vertex  9.666155e+01 -1.396775e+02  3.429000e+00
     vertex  9.666155e+01 -1.396775e+02  3.775885e-31
     vertex  9.451375e+01 -1.411397e+02  3.766729e-31
   endloop
 endfacet
 facet normal -5.627519e-01  8.266259e-01 -6.828712e-15
   outer loop
     vertex  9.666155e+01 -1.396775e+02  3.429000e+00
     vertex  9.451375e+01 -1.411397e+02  3.766729e-31
     vertex  9.451375e+01 -1.411397e+02  3.429000e+00
   endloop
 endfacet
 facet normal -5.753300e-01  8.179214e-01  6.746027e-15
   outer loop
     vertex  9.878673e+01 -1.381827e+02  3.429000e+00
     vertex  9.878673e+01 -1.381827e+02  3.784157e-31
     vertex  9.666155e+01 -1.396775e+02  3.775885e-31
   endloop
 endfacet
 facet normal -5.753300e-01  8.179214e-01 -9.171409e-15
   outer loop
     vertex  9.878673e+01 -1.381827e+02  3.429000e+00
     vertex  9.666155e+01 -1.396775e+02  3.775885e-31
     vertex  9.666155e+01 -1.396775e+02  3.429000e+00
   endloop
 endfacet
 facet normal -5.877735e-01  8.090255e-01 -3.987569e-16
   outer loop
     vertex  1.008888e+02 -1.366555e+02  3.429000e+00
     vertex  9.878673e+01 -1.381827e+02  3.784157e-31
     vertex  9.878673e+01 -1.381827e+02  3.429000e+00
   endloop
 endfacet
 facet normal -5.877735e-01  8.090255e-01  1.363340e-14
   outer loop
     vertex  1.008888e+02 -1.366555e+02  3.429000e+00
     vertex  1.008888e+02 -1.366555e+02  3.791543e-31
     vertex  9.878673e+01 -1.381827e+02  3.784157e-31
   endloop
 endfacet
 facet normal -6.000795e-01  7.999404e-01  6.579489e-15
   outer loop
     vertex  1.029673e+02 -1.350963e+02  3.429000e+00
     vertex  1.008888e+02 -1.366555e+02  3.791543e-31
     vertex  1.008888e+02 -1.366555e+02  3.429000e+00
   endloop
 endfacet
 facet normal -6.000795e-01  7.999404e-01  6.585092e-15
   outer loop
     vertex  1.029673e+02 -1.350963e+02  3.429000e+00
     vertex  1.029673e+02 -1.350963e+02  3.798043e-31
     vertex  1.008888e+02 -1.366555e+02  3.791543e-31
   endloop
 endfacet
 facet normal -6.122451e-01  7.906680e-01 -4.984462e-16
   outer loop
     vertex  1.050216e+02 -1.335055e+02  3.429000e+00
     vertex  1.029673e+02 -1.350963e+02  3.798043e-31
     vertex  1.029673e+02 -1.350963e+02  3.429000e+00
   endloop
 endfacet
 facet normal -6.122451e-01  7.906680e-01  2.072578e-15
   outer loop
     vertex  1.050216e+02 -1.335055e+02  3.429000e+00
     vertex  1.050216e+02 -1.335055e+02  3.803654e-31
     vertex  1.029673e+02 -1.350963e+02  3.798043e-31
   endloop
 endfacet
 facet normal -6.242674e-01  7.812107e-01 -4.884772e-15
   outer loop
     vertex  1.070514e+02 -1.318835e+02  3.429000e+00
     vertex  1.050216e+02 -1.335055e+02  3.803654e-31
     vertex  1.050216e+02 -1.335055e+02  3.429000e+00
   endloop
 endfacet
 facet normal -6.242674e-01  7.812107e-01 -2.340177e-15
   outer loop
     vertex  1.070514e+02 -1.318835e+02  3.429000e+00
     vertex  1.070514e+02 -1.318835e+02  3.808375e-31
     vertex  1.050216e+02 -1.335055e+02  3.803654e-31
   endloop
 endfacet
 facet normal -6.361437e-01  7.715706e-01 -9.271099e-15
   outer loop
     vertex  1.090562e+02 -1.302306e+02  3.429000e+00
     vertex  1.070514e+02 -1.318835e+02  3.808375e-31
     vertex  1.070514e+02 -1.318835e+02  3.429000e+00
   endloop
 endfacet
 facet normal -6.361437e-01  7.715706e-01 -4.016963e-15
   outer loop
     vertex  1.090562e+02 -1.302306e+02  3.429000e+00
     vertex  1.090562e+02 -1.302306e+02  3.812205e-31
     vertex  1.070514e+02 -1.318835e+02  3.808375e-31
   endloop
 endfacet
 facet normal -6.478711e-01  7.617500e-01 -1.086613e-14
   outer loop
     vertex  1.110354e+02 -1.285473e+02  3.429000e+00
     vertex  1.090562e+02 -1.302306e+02  3.812205e-31
     vertex  1.090562e+02 -1.302306e+02  3.429000e+00
   endloop
 endfacet
 facet normal -6.478711e-01  7.617500e-01  7.130560e-15
   outer loop
     vertex  1.110354e+02 -1.285473e+02  3.429000e+00
     vertex  1.110354e+02 -1.285473e+02  3.815143e-31
     vertex  1.090562e+02 -1.302306e+02  3.812205e-31
   endloop
 endfacet
 facet normal -6.594470e-01  7.517511e-01  1.993785e-16
   outer loop
     vertex  1.129887e+02 -1.268339e+02  3.429000e+00
     vertex  1.110354e+02 -1.285473e+02  3.815143e-31
     vertex  1.110354e+02 -1.285473e+02  3.429000e+00
   endloop
 endfacet
 facet normal -6.594470e-01  7.517511e-01  1.798473e-15
   outer loop
     vertex  1.129887e+02 -1.268339e+02  3.429000e+00
     vertex  1.129887e+02 -1.268339e+02  3.817188e-31
     vertex  1.110354e+02 -1.285473e+02  3.815143e-31
   endloop
 endfacet
 facet normal -6.708685e-01  7.415763e-01 -4.785083e-15
   outer loop
     vertex  1.149155e+02 -1.250908e+02  3.429000e+00
     vertex  1.129887e+02 -1.268339e+02  3.817188e-31
     vertex  1.129887e+02 -1.268339e+02  3.429000e+00
   endloop
 endfacet
 facet normal -6.708685e-01  7.415763e-01  4.123775e-15
   outer loop
     vertex  1.149155e+02 -1.250908e+02  3.429000e+00
     vertex  1.149155e+02 -1.250908e+02  3.818340e-31
     vertex  1.129887e+02 -1.268339e+02  3.817188e-31
   endloop
 endfacet
 facet normal -6.821331e-01  7.312280e-01 -2.542075e-15
   outer loop
     vertex  1.168154e+02 -1.233184e+02  3.429000e+00
     vertex  1.149155e+02 -1.250908e+02  3.818340e-31
     vertex  1.149155e+02 -1.250908e+02  3.429000e+00
   endloop
 endfacet
 facet normal -6.821331e-01  7.312280e-01  6.372022e-15
   outer loop
     vertex  1.168154e+02 -1.233184e+02  3.429000e+00
     vertex  1.168154e+02 -1.233184e+02  3.818599e-31
     vertex  1.149155e+02 -1.250908e+02  3.818340e-31
   endloop
 endfacet
 facet normal -6.932381e-01  7.207087e-01  2.337139e-15
   outer loop
     vertex  1.186880e+02 -1.215172e+02  3.429000e+00
     vertex  1.186880e+02 -1.215172e+02  3.817964e-31
     vertex  1.168154e+02 -1.233184e+02  3.818599e-31
   endloop
 endfacet
 facet normal -6.932381e-01  7.207087e-01 -2.990677e-16
   outer loop
     vertex  1.186880e+02 -1.215172e+02  3.429000e+00
     vertex  1.168154e+02 -1.233184e+02  3.818599e-31
     vertex  1.168154e+02 -1.233184e+02  3.429000e+00
   endloop
 endfacet
 facet normal -7.041808e-01  7.100207e-01  7.555053e-15
   outer loop
     vertex  1.205328e+02 -1.196875e+02  3.429000e+00
     vertex  1.205328e+02 -1.196875e+02  3.816436e-31
     vertex  1.186880e+02 -1.215172e+02  3.817964e-31
   endloop
 endfacet
 facet normal -7.041808e-01  7.100207e-01 -4.087259e-15
   outer loop
     vertex  1.205328e+02 -1.196875e+02  3.429000e+00
     vertex  1.186880e+02 -1.215172e+02  3.817964e-31
     vertex  1.186880e+02 -1.215172e+02  3.429000e+00
   endloop
 endfacet
 facet normal -7.149588e-01  6.991666e-01 -1.683801e-15
   outer loop
     vertex  1.223495e+02 -1.178299e+02  3.429000e+00
     vertex  1.223495e+02 -1.178299e+02  3.814015e-31
     vertex  1.205328e+02 -1.196875e+02  3.816436e-31
   endloop
 endfacet
 facet normal -7.149588e-01  6.991666e-01  1.295960e-15
   outer loop
     vertex  1.223495e+02 -1.178299e+02  3.429000e+00
     vertex  1.205328e+02 -1.196875e+02  3.816436e-31
     vertex  1.205328e+02 -1.196875e+02  3.429000e+00
   endloop
 endfacet
 facet normal -7.255695e-01  6.881488e-01 -1.834854e-15
   outer loop
     vertex  1.241375e+02 -1.159447e+02  3.429000e+00
     vertex  1.241375e+02 -1.159447e+02  3.810701e-31
     vertex  1.223495e+02 -1.178299e+02  3.814015e-31
   endloop
 endfacet
 facet normal -7.255695e-01  6.881488e-01 -8.024983e-15
   outer loop
     vertex  1.241375e+02 -1.159447e+02  3.429000e+00
     vertex  1.223495e+02 -1.178299e+02  3.814015e-31
     vertex  1.223495e+02 -1.178299e+02  3.429000e+00
   endloop
 endfacet
 facet normal -7.360105e-01  6.769701e-01  6.295612e-15
   outer loop
     vertex  1.258964e+02 -1.140323e+02  3.429000e+00
     vertex  1.258964e+02 -1.140323e+02  3.806496e-31
     vertex  1.241375e+02 -1.159447e+02  3.810701e-31
   endloop
 endfacet
 facet normal -7.360105e-01  6.769701e-01 -7.975139e-15
   outer loop
     vertex  1.258964e+02 -1.140323e+02  3.429000e+00
     vertex  1.241375e+02 -1.159447e+02  3.810701e-31
     vertex  1.241375e+02 -1.159447e+02  3.429000e+00
   endloop
 endfacet
 facet normal -7.462792e-01  6.656330e-01 -1.745926e-15
   outer loop
     vertex  1.276259e+02 -1.120933e+02  3.429000e+00
     vertex  1.276259e+02 -1.120933e+02  3.801400e-31
     vertex  1.258964e+02 -1.140323e+02  3.806496e-31
   endloop
 endfacet
 facet normal -7.462792e-01  6.656330e-01  0.000000e+00
   outer loop
     vertex  1.276259e+02 -1.120933e+02  3.429000e+00
     vertex  1.258964e+02 -1.140323e+02  3.806496e-31
     vertex  1.258964e+02 -1.140323e+02  3.429000e+00
   endloop
 endfacet
 facet normal -7.563734e-01  6.541401e-01  9.821311e-15
   outer loop
     vertex  1.293255e+02 -1.101280e+02  3.429000e+00
     vertex  1.293255e+02 -1.101280e+02  3.795415e-31
     vertex  1.276259e+02 -1.120933e+02  3.801400e-31
   endloop
 endfacet
 facet normal -7.563734e-01  6.541401e-01 -7.725915e-15
   outer loop
     vertex  1.293255e+02 -1.101280e+02  3.429000e+00
     vertex  1.276259e+02 -1.120933e+02  3.801400e-31
     vertex  1.276259e+02 -1.120933e+02  3.429000e+00
   endloop
 endfacet
 facet normal -7.662905e-01  6.424942e-01  4.858126e-15
   outer loop
     vertex  1.309949e+02 -1.081370e+02  3.429000e+00
     vertex  1.309949e+02 -1.081370e+02  3.788542e-31
     vertex  1.293255e+02 -1.101280e+02  3.795415e-31
   endloop
 endfacet
 facet normal -7.662905e-01  6.424942e-01  3.838035e-15
   outer loop
     vertex  1.309949e+02 -1.081370e+02  3.429000e+00
     vertex  1.293255e+02 -1.101280e+02  3.795415e-31
     vertex  1.293255e+02 -1.101280e+02  3.429000e+00
   endloop
 endfacet
 facet normal -7.760284e-01  6.306980e-01 -3.567380e-15
   outer loop
     vertex  1.326336e+02 -1.061206e+02  3.429000e+00
     vertex  1.326336e+02 -1.061206e+02  3.780782e-31
     vertex  1.309949e+02 -1.081370e+02  3.788542e-31
   endloop
 endfacet
 facet normal -7.760284e-01  6.306980e-01 -9.470477e-16
   outer loop
     vertex  1.326336e+02 -1.061206e+02  3.429000e+00
     vertex  1.309949e+02 -1.081370e+02  3.788542e-31
     vertex  1.309949e+02 -1.081370e+02  3.429000e+00
   endloop
 endfacet
 facet normal -7.855847e-01  6.187542e-01  6.257800e-15
   outer loop
     vertex  1.342413e+02 -1.040795e+02  3.429000e+00
     vertex  1.342413e+02 -1.040795e+02  3.772138e-31
     vertex  1.326336e+02 -1.061206e+02  3.780782e-31
   endloop
 endfacet
 facet normal -7.855847e-01  6.187542e-01 -9.320943e-15
   outer loop
     vertex  1.342413e+02 -1.040795e+02  3.429000e+00
     vertex  1.326336e+02 -1.061206e+02  3.780782e-31
     vertex  1.326336e+02 -1.061206e+02  3.429000e+00
   endloop
 endfacet
 facet normal -7.949572e-01  6.066656e-01  3.117494e-15
   outer loop
     vertex  1.358176e+02 -1.020140e+02  3.429000e+00
     vertex  1.358176e+02 -1.020140e+02  3.762611e-31
     vertex  1.342413e+02 -1.040795e+02  3.772138e-31
   endloop
 endfacet
 facet normal -7.949572e-01  6.066656e-01  5.981354e-16
   outer loop
     vertex  1.358176e+02 -1.020140e+02  3.429000e+00
     vertex  1.342413e+02 -1.040795e+02  3.772138e-31
     vertex  1.342413e+02 -1.040795e+02  3.429000e+00
   endloop
 endfacet
 facet normal -8.041436e-01  5.944350e-01  4.077395e-15
   outer loop
     vertex  1.373621e+02 -9.992458e+01  3.429000e+00
     vertex  1.373621e+02 -9.992458e+01  3.752204e-31
     vertex  1.358176e+02 -1.020140e+02  3.762611e-31
   endloop
 endfacet
 facet normal -8.041436e-01  5.944350e-01 -2.591920e-15
   outer loop
     vertex  1.373621e+02 -9.992458e+01  3.429000e+00
     vertex  1.358176e+02 -1.020140e+02  3.762611e-31
     vertex  1.358176e+02 -1.020140e+02  3.429000e+00
   endloop
 endfacet
 facet normal -8.131420e-01  5.820654e-01  3.625448e-16
   outer loop
     vertex  1.388745e+02 -9.781181e+01  3.429000e+00
     vertex  1.388745e+02 -9.781181e+01  3.740919e-31
     vertex  1.373621e+02 -9.992458e+01  3.752204e-31
   endloop
 endfacet
 facet normal -8.131420e-01  5.820654e-01 -1.545183e-15
   outer loop
     vertex  1.388745e+02 -9.781181e+01  3.429000e+00
     vertex  1.373621e+02 -9.992458e+01  3.752204e-31
     vertex  1.373621e+02 -9.992458e+01  3.429000e+00
   endloop
 endfacet
 facet normal -8.219500e-01  5.695596e-01 -6.381821e-16
   outer loop
     vertex  1.403543e+02 -9.567616e+01  3.429000e+00
     vertex  1.403543e+02 -9.567616e+01  3.728758e-31
     vertex  1.388745e+02 -9.781181e+01  3.740919e-31
   endloop
 endfacet
 facet normal -8.219500e-01  5.695596e-01 -5.084151e-15
   outer loop
     vertex  1.403543e+02 -9.567616e+01  3.429000e+00
     vertex  1.388745e+02 -9.781181e+01  3.740919e-31
     vertex  1.388745e+02 -9.781181e+01  3.429000e+00
   endloop
 endfacet
 facet normal -8.305658e-01  5.569205e-01  3.225976e-15
   outer loop
     vertex  1.418014e+02 -9.351813e+01  3.429000e+00
     vertex  1.418014e+02 -9.351813e+01  3.715726e-31
     vertex  1.403543e+02 -9.567616e+01  3.728758e-31
   endloop
 endfacet
 facet normal -8.305658e-01  5.569205e-01 -5.981354e-15
   outer loop
     vertex  1.418014e+02 -9.351813e+01  3.429000e+00
     vertex  1.403543e+02 -9.567616e+01  3.728758e-31
     vertex  1.403543e+02 -9.567616e+01  3.429000e+00
   endloop
 endfacet
 facet normal -8.389872e-01  5.441511e-01  2.615026e-15
   outer loop
     vertex  1.432152e+02 -9.133821e+01  3.429000e+00
     vertex  1.432152e+02 -9.133821e+01  3.701823e-31
     vertex  1.418014e+02 -9.351813e+01  3.715726e-31
   endloop
 endfacet
 facet normal -8.389872e-01  5.441511e-01 -2.093474e-15
   outer loop
     vertex  1.432152e+02 -9.133821e+01  3.429000e+00
     vertex  1.418014e+02 -9.351813e+01  3.715726e-31
     vertex  1.418014e+02 -9.351813e+01  3.429000e+00
   endloop
 endfacet
 facet normal -8.472123e-01  5.312544e-01 -2.591920e-15
   outer loop
     vertex  1.445956e+02 -8.913692e+01  3.429000e+00
     vertex  1.432152e+02 -9.133821e+01  3.701823e-31
     vertex  1.432152e+02 -9.133821e+01  3.429000e+00
   endloop
 endfacet
 facet normal -8.472123e-01  5.312544e-01 -6.976104e-15
   outer loop
     vertex  1.445956e+02 -8.913692e+01  3.429000e+00
     vertex  1.445956e+02 -8.913692e+01  3.687055e-31
     vertex  1.432152e+02 -9.133821e+01  3.701823e-31
   endloop
 endfacet
 facet normal -8.552392e-01  5.182334e-01 -1.206240e-14
   outer loop
     vertex  1.459421e+02 -8.691478e+01  3.429000e+00
     vertex  1.445956e+02 -8.913692e+01  3.687055e-31
     vertex  1.445956e+02 -8.913692e+01  3.429000e+00
   endloop
 endfacet
 facet normal -8.552392e-01  5.182334e-01  6.417631e-15
   outer loop
     vertex  1.459421e+02 -8.691478e+01  3.429000e+00
     vertex  1.459421e+02 -8.691478e+01  3.671424e-31
     vertex  1.445956e+02 -8.913692e+01  3.687055e-31
   endloop
 endfacet
 facet normal -8.630660e-01  5.050912e-01  1.345805e-15
   outer loop
     vertex  1.472544e+02 -8.467230e+01  3.429000e+00
     vertex  1.459421e+02 -8.691478e+01  3.671424e-31
     vertex  1.459421e+02 -8.691478e+01  3.429000e+00
   endloop
 endfacet
 facet normal -8.630660e-01  5.050912e-01  4.329156e-15
   outer loop
     vertex  1.472544e+02 -8.467230e+01  3.429000e+00
     vertex  1.472544e+02 -8.467230e+01  3.654934e-31
     vertex  1.459421e+02 -8.691478e+01  3.671424e-31
   endloop
 endfacet
 facet normal -8.706908e-01  4.918307e-01 -5.482908e-16
   outer loop
     vertex  1.485324e+02 -8.241001e+01  3.429000e+00
     vertex  1.472544e+02 -8.467230e+01  3.654934e-31
     vertex  1.472544e+02 -8.467230e+01  3.429000e+00
   endloop
 endfacet
 facet normal -8.706908e-01  4.918307e-01 -2.591949e-15
   outer loop
     vertex  1.485324e+02 -8.241001e+01  3.429000e+00
     vertex  1.485324e+02 -8.241001e+01  3.637588e-31
     vertex  1.472544e+02 -8.467230e+01  3.654934e-31
   endloop
 endfacet
 facet normal -8.781120e-01  4.784552e-01 -7.426848e-15
   outer loop
     vertex  1.497755e+02 -8.012844e+01  3.429000e+00
     vertex  1.485324e+02 -8.241001e+01  3.637588e-31
     vertex  1.485324e+02 -8.241001e+01  3.429000e+00
   endloop
 endfacet
 facet normal -8.781120e-01  4.784552e-01  5.154629e-15
   outer loop
     vertex  1.497755e+02 -8.012844e+01  3.429000e+00
     vertex  1.497755e+02 -8.012844e+01  3.619392e-31
     vertex  1.485324e+02 -8.241001e+01  3.637588e-31
   endloop
 endfacet
 facet normal -8.853276e-01  4.649678e-01  4.984462e-16
   outer loop
     vertex  1.509836e+02 -7.782812e+01  3.429000e+00
     vertex  1.497755e+02 -8.012844e+01  3.619392e-31
     vertex  1.497755e+02 -8.012844e+01  3.429000e+00
   endloop
 endfacet
 facet normal -8.853276e-01  4.649678e-01  2.096186e-14
   outer loop
     vertex  1.509836e+02 -7.782812e+01  3.429000e+00
     vertex  1.509836e+02 -7.782812e+01  3.600349e-31
     vertex  1.497755e+02 -8.012844e+01  3.619392e-31
   endloop
 endfacet
 facet normal -8.923361e-01  4.513715e-01  1.624934e-14
   outer loop
     vertex  1.521564e+02 -7.550958e+01  3.429000e+00
     vertex  1.509836e+02 -7.782812e+01  3.600349e-31
     vertex  1.509836e+02 -7.782812e+01  3.429000e+00
   endloop
 endfacet
 facet normal -8.923361e-01  4.513715e-01  3.250766e-15
   outer loop
     vertex  1.521564e+02 -7.550958e+01  3.429000e+00
     vertex  1.521564e+02 -7.550958e+01  3.580463e-31
     vertex  1.509836e+02 -7.782812e+01  3.600349e-31
   endloop
 endfacet
 facet normal -8.991359e-01  4.376696e-01 -1.345805e-15
   outer loop
     vertex  1.532936e+02 -7.317339e+01  3.429000e+00
     vertex  1.521564e+02 -7.550958e+01  3.580463e-31
     vertex  1.521564e+02 -7.550958e+01  3.429000e+00
   endloop
 endfacet
 facet normal -8.991359e-01  4.376696e-01 -1.342015e-15
   outer loop
     vertex  1.532936e+02 -7.317339e+01  3.429000e+00
     vertex  1.532936e+02 -7.317339e+01  3.559740e-31
     vertex  1.521564e+02 -7.550958e+01  3.580463e-31
   endloop
 endfacet
 facet normal -9.057252e-01  4.238654e-01 -5.931509e-15
   outer loop
     vertex  1.543949e+02 -7.082007e+01  3.429000e+00
     vertex  1.532936e+02 -7.317339e+01  3.559740e-31
     vertex  1.532936e+02 -7.317339e+01  3.429000e+00
   endloop
 endfacet
 facet normal -9.057252e-01  4.238654e-01  5.566695e-15
   outer loop
     vertex  1.543949e+02 -7.082007e+01  3.429000e+00
     vertex  1.543949e+02 -7.082007e+01  3.538183e-31
     vertex  1.532936e+02 -7.317339e+01  3.559740e-31
   endloop
 endfacet
 facet normal -9.121026e-01  4.099619e-01  1.196271e-15
   outer loop
     vertex  1.554601e+02 -6.845018e+01  3.429000e+00
     vertex  1.543949e+02 -7.082007e+01  3.538183e-31
     vertex  1.543949e+02 -7.082007e+01  3.429000e+00
   endloop
 endfacet
 facet normal -9.121026e-01  4.099619e-01  7.057647e-15
   outer loop
     vertex  1.554601e+02 -6.845018e+01  3.429000e+00
     vertex  1.554601e+02 -6.845018e+01  3.515799e-31
     vertex  1.543949e+02 -7.082007e+01  3.538183e-31
   endloop
 endfacet
 facet normal -9.182667e-01  3.959626e-01  2.841143e-15
   outer loop
     vertex  1.564889e+02 -6.606427e+01  3.429000e+00
     vertex  1.554601e+02 -6.845018e+01  3.515799e-31
     vertex  1.554601e+02 -6.845018e+01  3.429000e+00
   endloop
 endfacet
 facet normal -9.182667e-01  3.959626e-01  4.437351e-15
   outer loop
     vertex  1.564889e+02 -6.606427e+01  3.429000e+00
     vertex  1.564889e+02 -6.606427e+01  3.492592e-31
     vertex  1.554601e+02 -6.845018e+01  3.515799e-31
   endloop
 endfacet
 facet normal -9.242158e-01  3.818705e-01  9.968923e-17
   outer loop
     vertex  1.574811e+02 -6.366291e+01  3.429000e+00
     vertex  1.564889e+02 -6.606427e+01  3.492592e-31
     vertex  1.564889e+02 -6.606427e+01  3.429000e+00
   endloop
 endfacet
 facet normal -9.242158e-01  3.818705e-01  3.821009e-15
   outer loop
     vertex  1.574811e+02 -6.366291e+01  3.429000e+00
     vertex  1.574811e+02 -6.366291e+01  3.468568e-31
     vertex  1.564889e+02 -6.606427e+01  3.492592e-31
   endloop
 endfacet
 facet normal -9.299487e-01  3.676892e-01 -2.990677e-16
   outer loop
     vertex  1.584365e+02 -6.124665e+01  3.429000e+00
     vertex  1.574811e+02 -6.366291e+01  3.468568e-31
     vertex  1.574811e+02 -6.366291e+01  3.429000e+00
   endloop
 endfacet
 facet normal -9.299487e-01  3.676892e-01 -8.012915e-15
   outer loop
     vertex  1.584365e+02 -6.124665e+01  3.429000e+00
     vertex  1.584365e+02 -6.124665e+01  3.443733e-31
     vertex  1.574811e+02 -6.366291e+01  3.468568e-31
   endloop
 endfacet
 facet normal -9.354641e-01  3.534218e-01 -1.216209e-14
   outer loop
     vertex  1.593548e+02 -5.881606e+01  3.429000e+00
     vertex  1.584365e+02 -6.124665e+01  3.443733e-31
     vertex  1.584365e+02 -6.124665e+01  3.429000e+00
   endloop
 endfacet
 facet normal -9.354641e-01  3.534218e-01 -6.627805e-15
   outer loop
     vertex  1.593548e+02 -5.881606e+01  3.429000e+00
     vertex  1.593548e+02 -5.881606e+01  3.418092e-31
     vertex  1.584365e+02 -6.124665e+01  3.443733e-31
   endloop
 endfacet
 facet normal -9.407605e-01  3.390717e-01 -1.066675e-14
   outer loop
     vertex  1.602358e+02 -5.637171e+01  3.429000e+00
     vertex  1.593548e+02 -5.881606e+01  3.418092e-31
     vertex  1.593548e+02 -5.881606e+01  3.429000e+00
   endloop
 endfacet
 facet normal -9.407605e-01  3.390717e-01  1.343204e-14
   outer loop
     vertex  1.602358e+02 -5.637171e+01  3.429000e+00
     vertex  1.602358e+02 -5.637171e+01  3.391650e-31
     vertex  1.593548e+02 -5.881606e+01  3.418092e-31
   endloop
 endfacet
 facet normal -9.458369e-01  3.246423e-01  9.520322e-15
   outer loop
     vertex  1.610793e+02 -5.391417e+01  3.429000e+00
     vertex  1.602358e+02 -5.637171e+01  3.391650e-31
     vertex  1.602358e+02 -5.637171e+01  3.429000e+00
   endloop
 endfacet
 facet normal -9.458369e-01  3.246423e-01  2.328274e-15
   outer loop
     vertex  1.610793e+02 -5.391417e+01  3.429000e+00
     vertex  1.610793e+02 -5.391417e+01  3.364416e-31
     vertex  1.602358e+02 -5.637171e+01  3.391650e-31
   endloop
 endfacet
 facet normal -9.506919e-01  3.101369e-01 -1.669795e-15
   outer loop
     vertex  1.618851e+02 -5.144401e+01  3.429000e+00
     vertex  1.610793e+02 -5.391417e+01  3.364416e-31
     vertex  1.610793e+02 -5.391417e+01  3.429000e+00
   endloop
 endfacet
 facet normal -9.506919e-01  3.101369e-01 -2.323686e-15
   outer loop
     vertex  1.618851e+02 -5.144401e+01  3.429000e+00
     vertex  1.618851e+02 -5.144401e+01  3.336394e-31
     vertex  1.610793e+02 -5.391417e+01  3.364416e-31
   endloop
 endfacet
 facet normal -9.553245e-01  2.955590e-01 -5.077503e-15
   outer loop
     vertex  1.626530e+02 -4.896182e+01  3.429000e+00
     vertex  1.626530e+02 -4.896182e+01  3.307592e-31
     vertex  1.618851e+02 -5.144401e+01  3.336394e-31
   endloop
 endfacet
 facet normal -9.553245e-01  2.955590e-01 -6.305344e-15
   outer loop
     vertex  1.626530e+02 -4.896182e+01  3.429000e+00
     vertex  1.618851e+02 -5.144401e+01  3.336394e-31
     vertex  1.618851e+02 -5.144401e+01  3.429000e+00
   endloop
 endfacet
 facet normal -9.597336e-01  2.809119e-01 -5.784676e-16
   outer loop
     vertex  1.633829e+02 -4.646817e+01  3.429000e+00
     vertex  1.633829e+02 -4.646817e+01  3.278015e-31
     vertex  1.626530e+02 -4.896182e+01  3.307592e-31
   endloop
 endfacet
 facet normal -9.597336e-01  2.809119e-01 -9.121565e-15
   outer loop
     vertex  1.633829e+02 -4.646817e+01  3.429000e+00
     vertex  1.626530e+02 -4.896182e+01  3.307592e-31
     vertex  1.626530e+02 -4.896182e+01  3.429000e+00
   endloop
 endfacet
 facet normal -9.639181e-01  2.661990e-01  2.827881e-15
   outer loop
     vertex  1.640746e+02 -4.396365e+01  3.429000e+00
     vertex  1.640746e+02 -4.396365e+01  3.247672e-31
     vertex  1.633829e+02 -4.646817e+01  3.278015e-31
   endloop
 endfacet
 facet normal -9.639181e-01  2.661990e-01 -4.610627e-15
   outer loop
     vertex  1.640746e+02 -4.396365e+01  3.429000e+00
     vertex  1.633829e+02 -4.646817e+01  3.278015e-31
     vertex  1.633829e+02 -4.646817e+01  3.429000e+00
   endloop
 endfacet
 facet normal -9.678771e-01  2.514239e-01 -9.723377e-17
   outer loop
     vertex  1.647278e+02 -4.144884e+01  3.429000e+00
     vertex  1.647278e+02 -4.144884e+01  3.216569e-31
     vertex  1.640746e+02 -4.396365e+01  3.247672e-31
   endloop
 endfacet
 facet normal -9.678771e-01  2.514239e-01 -1.121504e-15
   outer loop
     vertex  1.647278e+02 -4.144884e+01  3.429000e+00
     vertex  1.640746e+02 -4.396365e+01  3.247672e-31
     vertex  1.640746e+02 -4.396365e+01  3.429000e+00
   endloop
 endfacet
 facet normal -9.716096e-01  2.365900e-01  5.398528e-15
   outer loop
     vertex  1.653426e+02 -3.892434e+01  3.429000e+00
     vertex  1.653426e+02 -3.892434e+01  3.184713e-31
     vertex  1.647278e+02 -4.144884e+01  3.216569e-31
   endloop
 endfacet
 facet normal -9.716096e-01  2.365900e-01 -4.112181e-15
   outer loop
     vertex  1.653426e+02 -3.892434e+01  3.429000e+00
     vertex  1.647278e+02 -4.144884e+01  3.216569e-31
     vertex  1.647278e+02 -4.144884e+01  3.429000e+00
   endloop
 endfacet
 facet normal -9.751148e-01  2.217007e-01 -7.051347e-17
   outer loop
     vertex  1.659186e+02 -3.639073e+01  3.429000e+00
     vertex  1.659186e+02 -3.639073e+01  3.152112e-31
     vertex  1.653426e+02 -3.892434e+01  3.184713e-31
   endloop
 endfacet
 facet normal -9.751148e-01  2.217007e-01  1.320882e-15
   outer loop
     vertex  1.659186e+02 -3.639073e+01  3.429000e+00
     vertex  1.653426e+02 -3.892434e+01  3.184713e-31
     vertex  1.653426e+02 -3.892434e+01  3.429000e+00
   endloop
 endfacet
 facet normal -9.783918e-01  2.067595e-01  3.612305e-15
   outer loop
     vertex  1.664558e+02 -3.384860e+01  3.429000e+00
     vertex  1.664558e+02 -3.384860e+01  3.118773e-31
     vertex  1.659186e+02 -3.639073e+01  3.152112e-31
   endloop
 endfacet
 facet normal -9.783918e-01  2.067595e-01 -4.062336e-15
   outer loop
     vertex  1.664558e+02 -3.384860e+01  3.429000e+00
     vertex  1.659186e+02 -3.639073e+01  3.152112e-31
     vertex  1.659186e+02 -3.639073e+01  3.429000e+00
   endloop
 endfacet
 facet normal -9.814399e-01  1.917700e-01 -3.489123e-16
   outer loop
     vertex  1.669541e+02 -3.129855e+01  3.429000e+00
     vertex  1.664558e+02 -3.384860e+01  3.118773e-31
     vertex  1.664558e+02 -3.384860e+01  3.429000e+00
   endloop
 endfacet
 facet normal -9.814399e-01  1.917700e-01 -6.873969e-15
   outer loop
     vertex  1.669541e+02 -3.129855e+01  3.429000e+00
     vertex  1.669541e+02 -3.129855e+01  3.084705e-31
     vertex  1.664558e+02 -3.384860e+01  3.118773e-31
   endloop
 endfacet
 facet normal -9.842584e-01  1.767356e-01 -3.170931e-15
   outer loop
     vertex  1.674133e+02 -2.874118e+01  3.429000e+00
     vertex  1.674133e+02 -2.874118e+01  3.049915e-31
     vertex  1.669541e+02 -3.129855e+01  3.084705e-31
   endloop
 endfacet
 facet normal -9.842584e-01  1.767356e-01 -1.096582e-14
   outer loop
     vertex  1.674133e+02 -2.874118e+01  3.429000e+00
     vertex  1.669541e+02 -3.129855e+01  3.084705e-31
     vertex  1.669541e+02 -3.129855e+01  3.429000e+00
   endloop
 endfacet
 facet normal -9.868465e-01  1.616598e-01 -7.202547e-15
   outer loop
     vertex  1.678333e+02 -2.617709e+01  3.429000e+00
     vertex  1.674133e+02 -2.874118e+01  3.049915e-31
     vertex  1.674133e+02 -2.874118e+01  3.429000e+00
   endloop
 endfacet
 facet normal -9.868465e-01  1.616598e-01  9.750389e-16
   outer loop
     vertex  1.678333e+02 -2.617709e+01  3.429000e+00
     vertex  1.678333e+02 -2.617709e+01  3.014411e-31
     vertex  1.674133e+02 -2.874118e+01  3.049915e-31
   endloop
 endfacet
 facet normal -9.892038e-01  1.465462e-01 -3.028060e-15
   outer loop
     vertex  1.682141e+02 -2.360687e+01  3.429000e+00
     vertex  1.678333e+02 -2.617709e+01  3.014411e-31
     vertex  1.678333e+02 -2.617709e+01  3.429000e+00
   endloop
 endfacet
 facet normal -9.892038e-01  1.465462e-01 -2.733705e-15
   outer loop
     vertex  1.682141e+02 -2.360687e+01  3.429000e+00
     vertex  1.682141e+02 -2.360687e+01  2.978203e-31
     vertex  1.678333e+02 -2.617709e+01  3.014411e-31
   endloop
 endfacet
 facet normal -9.913297e-01  1.313983e-01 -6.778868e-15
   outer loop
     vertex  1.685555e+02 -2.103112e+01  3.429000e+00
     vertex  1.682141e+02 -2.360687e+01  2.978203e-31
     vertex  1.682141e+02 -2.360687e+01  3.429000e+00
   endloop
 endfacet
 facet normal -9.913297e-01  1.313983e-01  1.712249e-15
   outer loop
     vertex  1.685555e+02 -2.103112e+01  3.429000e+00
     vertex  1.685555e+02 -2.103112e+01  2.941297e-31
     vertex  1.682141e+02 -2.360687e+01  2.978203e-31
   endloop
 endfacet
 facet normal -9.932235e-01  1.162197e-01 -2.342697e-15
   outer loop
     vertex  1.688575e+02 -1.845046e+01  3.429000e+00
     vertex  1.685555e+02 -2.103112e+01  2.941297e-31
     vertex  1.685555e+02 -2.103112e+01  3.429000e+00
   endloop
 endfacet
 facet normal -9.932235e-01  1.162197e-01  5.887452e-15
   outer loop
     vertex  1.688575e+02 -1.845046e+01  3.429000e+00
     vertex  1.688575e+02 -1.845046e+01  2.903703e-31
     vertex  1.685555e+02 -2.103112e+01  2.941297e-31
   endloop
 endfacet
 facet normal -9.948850e-01  1.010139e-01  1.844251e-15
   outer loop
     vertex  1.691199e+02 -1.586548e+01  3.429000e+00
     vertex  1.688575e+02 -1.845046e+01  2.903703e-31
     vertex  1.688575e+02 -1.845046e+01  3.429000e+00
   endloop
 endfacet
 facet normal -9.948850e-01  1.010139e-01  9.881431e-15
   outer loop
     vertex  1.691199e+02 -1.586548e+01  3.429000e+00
     vertex  1.691199e+02 -1.586548e+01  2.865430e-31
     vertex  1.688575e+02 -1.845046e+01  2.903703e-31
   endloop
 endfacet
 facet normal -9.963137e-01  8.578442e-02  5.881665e-15
   outer loop
     vertex  1.693428e+02 -1.327678e+01  3.429000e+00
     vertex  1.691199e+02 -1.586548e+01  2.865430e-31
     vertex  1.691199e+02 -1.586548e+01  3.429000e+00
   endloop
 endfacet
 facet normal -9.963137e-01  8.578442e-02 -2.198855e-15
   outer loop
     vertex  1.693428e+02 -1.327678e+01  3.429000e+00
     vertex  1.693428e+02 -1.327678e+01  2.826486e-31
     vertex  1.691199e+02 -1.586548e+01  2.865430e-31
   endloop
 endfacet
 facet normal -9.975093e-01  7.053490e-02 -6.243038e-15
   outer loop
     vertex  1.695261e+02 -1.068498e+01  3.429000e+00
     vertex  1.693428e+02 -1.327678e+01  2.826486e-31
     vertex  1.693428e+02 -1.327678e+01  3.429000e+00
   endloop
 endfacet
 facet normal -9.975093e-01  7.053490e-02  1.841609e-14
   outer loop
     vertex  1.695261e+02 -1.068498e+01  3.429000e+00
     vertex  1.695261e+02 -1.068498e+01  2.786881e-31
     vertex  1.693428e+02 -1.327678e+01  2.826486e-31
   endloop
 endfacet
 facet normal -9.984715e-01  5.526887e-02  1.443002e-14
   outer loop
     vertex  1.696697e+02 -8.090684e+00  3.429000e+00
     vertex  1.695261e+02 -1.068498e+01  2.786881e-31
     vertex  1.695261e+02 -1.068498e+01  3.429000e+00
   endloop
 endfacet
 facet normal -9.984715e-01  5.526887e-02  1.454478e-14
   outer loop
     vertex  1.696697e+02 -8.090684e+00  3.429000e+00
     vertex  1.696697e+02 -8.090684e+00  2.746624e-31
     vertex  1.695261e+02 -1.068498e+01  2.786881e-31
   endloop
 endfacet
 facet normal -9.992001e-01  3.998991e-02  1.052344e-14
   outer loop
     vertex  1.697736e+02 -5.494492e+00  3.429000e+00
     vertex  1.696697e+02 -8.090684e+00  2.746624e-31
     vertex  1.696697e+02 -8.090684e+00  3.429000e+00
   endloop
 endfacet
 facet normal -9.992001e-01  3.998991e-02  2.159040e-15
   outer loop
     vertex  1.697736e+02 -5.494492e+00  3.429000e+00
     vertex  1.697736e+02 -5.494492e+00  2.705724e-31
     vertex  1.696697e+02 -8.090684e+00  2.746624e-31
   endloop
 endfacet
 facet normal -9.996949e-01  2.470160e-02 -1.838020e-15
   outer loop
     vertex  1.698378e+02 -2.897013e+00  3.429000e+00
     vertex  1.697736e+02 -5.494492e+00  2.705724e-31
     vertex  1.697736e+02 -5.494492e+00  3.429000e+00
   endloop
 endfacet
 facet normal -9.996949e-01  2.470160e-02  6.551756e-15
   outer loop
     vertex  1.698378e+02 -2.897013e+00  3.429000e+00
     vertex  1.698378e+02 -2.897013e+00  2.664191e-31
     vertex  1.697736e+02 -5.494492e+00  2.705724e-31
   endloop
 endfacet
 facet normal -9.999557e-01  9.407502e-03  2.495346e-15
   outer loop
     vertex  1.698622e+02 -2.988570e-01  3.429000e+00
     vertex  1.698378e+02 -2.897013e+00  2.664191e-31
     vertex  1.698378e+02 -2.897013e+00  3.429000e+00
   endloop
 endfacet
 facet normal -9.999557e-01  9.407502e-03  1.076398e-14
   outer loop
     vertex  1.698622e+02 -2.988570e-01  3.429000e+00
     vertex  1.698622e+02 -2.988570e-01  2.622035e-31
     vertex  1.698378e+02 -2.897013e+00  2.664191e-31
   endloop
 endfacet
 facet normal -9.999827e-01 -5.888794e-03  6.738369e-15
   outer loop
     vertex  1.698469e+02  2.299369e+00  3.429000e+00
     vertex  1.698622e+02 -2.988570e-01  2.622035e-31
     vertex  1.698622e+02 -2.988570e-01  3.429000e+00
   endloop
 endfacet
 facet normal -9.999827e-01 -5.888794e-03  6.750969e-15
   outer loop
     vertex  1.698469e+02  2.299369e+00  3.429000e+00
     vertex  1.698469e+02  2.299369e+00  2.579265e-31
     vertex  1.698622e+02 -2.988570e-01  2.622035e-31
   endloop
 endfacet
 facet normal -9.997756e-01 -2.118371e-02  2.753915e-15
   outer loop
     vertex  1.697919e+02  4.897057e+00  3.429000e+00
     vertex  1.698469e+02  2.299369e+00  2.579265e-31
     vertex  1.698469e+02  2.299369e+00  3.429000e+00
   endloop
 endfacet
 facet normal -9.997756e-01 -2.118371e-02  1.102070e-14
   outer loop
     vertex  1.697919e+02  4.897057e+00  3.429000e+00
     vertex  1.697919e+02  4.897057e+00  2.535892e-31
     vertex  1.698469e+02  2.299369e+00  2.579265e-31
   endloop
 endfacet
 facet normal -9.993346e-01 -3.647368e-02  7.006284e-15
   outer loop
     vertex  1.696971e+02  7.493600e+00  3.429000e+00
     vertex  1.697919e+02  4.897057e+00  2.535892e-31
     vertex  1.697919e+02  4.897057e+00  3.429000e+00
   endloop
 endfacet
 facet normal -9.993346e-01 -3.647368e-02  1.521300e-14
   outer loop
     vertex  1.696971e+02  7.493600e+00  3.429000e+00
     vertex  1.696971e+02  7.493600e+00  2.491925e-31
     vertex  1.697919e+02  4.897057e+00  2.535892e-31
   endloop
 endfacet
 facet normal -9.986598e-01 -5.175510e-02  1.115896e-14
   outer loop
     vertex  1.695627e+02  1.008839e+01  3.429000e+00
     vertex  1.696971e+02  7.493600e+00  2.491925e-31
     vertex  1.696971e+02  7.493600e+00  3.429000e+00
   endloop
 endfacet
 facet normal -9.986598e-01 -5.175510e-02 -5.235313e-15
   outer loop
     vertex  1.695627e+02  1.008839e+01  3.429000e+00
     vertex  1.695627e+02  1.008839e+01  2.447375e-31
     vertex  1.696971e+02  7.493600e+00  2.491925e-31
   endloop
 endfacet
 facet normal -9.977513e-01 -6.702442e-02 -9.227485e-15
   outer loop
     vertex  1.693885e+02  1.268082e+01  3.429000e+00
     vertex  1.695627e+02  1.008839e+01  2.447375e-31
     vertex  1.695627e+02  1.008839e+01  3.429000e+00
   endloop
 endfacet
 facet normal -9.977513e-01 -6.702442e-02 -1.098432e-15
   outer loop
     vertex  1.693885e+02  1.268082e+01  3.429000e+00
     vertex  1.693885e+02  1.268082e+01  2.402253e-31
     vertex  1.695627e+02  1.008839e+01  2.447375e-31
   endloop
 endfacet
 facet normal -9.966094e-01 -8.227806e-02 -5.133995e-15
   outer loop
     vertex  1.691747e+02  1.527028e+01  3.429000e+00
     vertex  1.693885e+02  1.268082e+01  2.402253e-31
     vertex  1.693885e+02  1.268082e+01  3.429000e+00
   endloop
 endfacet
 facet normal -9.966094e-01 -8.227806e-02  3.214203e-15
   outer loop
     vertex  1.691747e+02  1.527028e+01  3.429000e+00
     vertex  1.691747e+02  1.527028e+01  2.356569e-31
     vertex  1.693885e+02  1.268082e+01  2.402253e-31
   endloop
 endfacet
 facet normal -9.952343e-01 -9.751244e-02 -8.224362e-16
   outer loop
     vertex  1.689214e+02  1.785617e+01  3.429000e+00
     vertex  1.691747e+02  1.527028e+01  2.356569e-31
     vertex  1.691747e+02  1.527028e+01  3.429000e+00
   endloop
 endfacet
 facet normal -9.952343e-01 -9.751244e-02 -7.123172e-16
   outer loop
     vertex  1.689214e+02  1.785617e+01  3.429000e+00
     vertex  1.689214e+02  1.785617e+01  2.310333e-31
     vertex  1.691747e+02  1.527028e+01  2.356569e-31
   endloop
 endfacet
 facet normal -9.936263e-01 -1.127240e-01 -4.722777e-15
   outer loop
     vertex  1.686285e+02  2.043788e+01  3.429000e+00
     vertex  1.689214e+02  1.785617e+01  2.310333e-31
     vertex  1.689214e+02  1.785617e+01  3.429000e+00
   endloop
 endfacet
 facet normal -9.936263e-01 -1.127240e-01 -4.957499e-15
   outer loop
     vertex  1.686285e+02  2.043788e+01  3.429000e+00
     vertex  1.686285e+02  2.043788e+01  2.263557e-31
     vertex  1.689214e+02  1.785617e+01  2.310333e-31
   endloop
 endfacet
 facet normal -9.917859e-01 -1.279092e-01 -8.996953e-15
   outer loop
     vertex  1.682961e+02  2.301481e+01  3.429000e+00
     vertex  1.686285e+02  2.043788e+01  2.263557e-31
     vertex  1.686285e+02  2.043788e+01  3.429000e+00
   endloop
 endfacet
 facet normal -9.917859e-01 -1.279092e-01 -1.162945e-16
   outer loop
     vertex  1.682961e+02  2.301481e+01  3.429000e+00
     vertex  1.682961e+02  2.301481e+01  2.216251e-31
     vertex  1.686285e+02  2.043788e+01  2.263557e-31
   endloop
 endfacet
 facet normal -9.897134e-01 -1.430645e-01 -4.087259e-15
   outer loop
     vertex  1.679244e+02  2.558635e+01  3.429000e+00
     vertex  1.682961e+02  2.301481e+01  2.216251e-31
     vertex  1.682961e+02  2.301481e+01  3.429000e+00
   endloop
 endfacet
 facet normal -9.897134e-01 -1.430645e-01  3.960323e-15
   outer loop
     vertex  1.679244e+02  2.558635e+01  3.429000e+00
     vertex  1.679244e+02  2.558635e+01  2.168426e-31
     vertex  1.682961e+02  2.301481e+01  2.216251e-31
   endloop
 endfacet
 facet normal -9.874093e-01 -1.581863e-01 -5.200667e-17
   outer loop
     vertex  1.675134e+02  2.815191e+01  3.429000e+00
     vertex  1.675134e+02  2.815191e+01  2.120094e-31
     vertex  1.679244e+02  2.558635e+01  2.168426e-31
   endloop
 endfacet
 facet normal -9.874093e-01 -1.581863e-01 -4.984462e-17
   outer loop
     vertex  1.675134e+02  2.815191e+01  3.429000e+00
     vertex  1.679244e+02  2.558635e+01  2.168426e-31
     vertex  1.679244e+02  2.558635e+01  3.429000e+00
   endloop
 endfacet
 facet normal -9.848742e-01 -1.732711e-01  4.098932e-15
   outer loop
     vertex  1.670632e+02  3.071088e+01  3.429000e+00
     vertex  1.670632e+02  3.071088e+01  2.071267e-31
     vertex  1.675134e+02  2.815191e+01  2.120094e-31
   endloop
 endfacet
 facet normal -9.821086e-01 -1.883153e-01  6.464262e-17
   outer loop
     vertex  1.670632e+02  3.071088e+01  3.429000e+00
     vertex  1.665739e+02  3.326266e+01  2.021954e-31
     vertex  1.670632e+02  3.071088e+01  2.071267e-31
   endloop
 endfacet
 facet normal -9.848742e-01 -1.732711e-01 -4.087259e-15
   outer loop
     vertex  1.670632e+02  3.071088e+01  3.429000e+00
     vertex  1.675134e+02  2.815191e+01  2.120094e-31
     vertex  1.675134e+02  2.815191e+01  3.429000e+00
   endloop
 endfacet
 facet normal -9.821086e-01 -1.883153e-01  4.548615e-16
   outer loop
     vertex  1.665739e+02  3.326266e+01  3.429000e+00
     vertex  1.665739e+02  3.326266e+01  2.021954e-31
     vertex  1.670632e+02  3.071088e+01  3.429000e+00
   endloop
 endfacet
 facet normal -9.791133e-01 -2.033155e-01 -3.548360e-15
   outer loop
     vertex  1.660456e+02  3.580666e+01  3.429000e+00
     vertex  1.660456e+02  3.580666e+01  1.972168e-31
     vertex  1.665739e+02  3.326266e+01  2.021954e-31
   endloop
 endfacet
 facet normal -9.791133e-01 -2.033155e-01 -3.563890e-15
   outer loop
     vertex  1.660456e+02  3.580666e+01  3.429000e+00
     vertex  1.665739e+02  3.326266e+01  2.021954e-31
     vertex  1.665739e+02  3.326266e+01  3.429000e+00
   endloop
 endfacet
 facet normal -9.758889e-01 -2.182681e-01  9.903143e-16
   outer loop
     vertex  1.654785e+02  3.834229e+01  3.429000e+00
     vertex  1.654785e+02  3.834229e+01  1.921921e-31
     vertex  1.660456e+02  3.580666e+01  1.972168e-31
   endloop
 endfacet
 facet normal -9.758889e-01 -2.182681e-01 -7.551459e-15
   outer loop
     vertex  1.654785e+02  3.834229e+01  3.429000e+00
     vertex  1.660456e+02  3.580666e+01  1.972168e-31
     vertex  1.660456e+02  3.580666e+01  3.429000e+00
   endloop
 endfacet
 facet normal -9.724361e-01 -2.331696e-01 -3.015599e-15
   outer loop
     vertex  1.648727e+02  4.086894e+01  3.429000e+00
     vertex  1.654785e+02  3.834229e+01  1.921921e-31
     vertex  1.654785e+02  3.834229e+01  3.429000e+00
   endloop
 endfacet
 facet normal -9.724361e-01 -2.331696e-01 -3.491215e-15
   outer loop
     vertex  1.648727e+02  4.086894e+01  3.429000e+00
     vertex  1.648727e+02  4.086894e+01  1.871225e-31
     vertex  1.654785e+02  3.834229e+01  1.921921e-31
   endloop
 endfacet
 facet normal -9.687558e-01 -2.480166e-01 -7.005713e-15
   outer loop
     vertex  1.642283e+02  4.338603e+01  3.429000e+00
     vertex  1.642283e+02  4.338603e+01  1.820090e-31
     vertex  1.648727e+02  4.086894e+01  1.871225e-31
   endloop
 endfacet
 facet normal -9.687558e-01 -2.480166e-01 -7.526537e-15
   outer loop
     vertex  1.642283e+02  4.338603e+01  3.429000e+00
     vertex  1.648727e+02  4.086894e+01  1.871225e-31
     vertex  1.648727e+02  4.086894e+01  3.429000e+00
   endloop
 endfacet
 facet normal -9.648488e-01 -2.628055e-01  4.992813e-15
   outer loop
     vertex  1.635454e+02  4.589297e+01  3.429000e+00
     vertex  1.635454e+02  4.589297e+01  1.768530e-31
     vertex  1.642283e+02  4.338603e+01  1.820090e-31
   endloop
 endfacet
 facet normal -9.648488e-01 -2.628055e-01 -1.099074e-14
   outer loop
     vertex  1.635454e+02  4.589297e+01  3.429000e+00
     vertex  1.642283e+02  4.338603e+01  1.820090e-31
     vertex  1.642283e+02  4.338603e+01  3.429000e+00
   endloop
 endfacet
 facet normal -9.607161e-01 -2.775330e-01 -1.442009e-14
   outer loop
     vertex  1.628243e+02  4.838917e+01  3.429000e+00
     vertex  1.628243e+02  4.838917e+01  1.716555e-31
     vertex  1.635454e+02  4.589297e+01  1.768530e-31
   endloop
 endfacet
 facet normal -9.607161e-01 -2.775330e-01  9.470477e-16
   outer loop
     vertex  1.628243e+02  4.838917e+01  3.429000e+00
     vertex  1.635454e+02  4.589297e+01  1.768530e-31
     vertex  1.635454e+02  4.589297e+01  3.429000e+00
   endloop
 endfacet
 facet normal -9.563586e-01 -2.921955e-01 -1.314894e-15
   outer loop
     vertex  1.620651e+02  5.087405e+01  3.429000e+00
     vertex  1.620651e+02  5.087405e+01  1.664180e-31
     vertex  1.628243e+02  4.838917e+01  1.716555e-31
   endloop
 endfacet
 facet normal -9.563586e-01 -2.921955e-01 -1.839266e-14
   outer loop
     vertex  1.620651e+02  5.087405e+01  3.429000e+00
     vertex  1.628243e+02  4.838917e+01  1.716555e-31
     vertex  1.628243e+02  4.838917e+01  3.429000e+00
   endloop
 endfacet
 facet normal -9.517773e-01 -3.067897e-01  1.049225e-14
   outer loop
     vertex  1.612680e+02  5.334703e+01  3.429000e+00
     vertex  1.612680e+02  5.334703e+01  1.611414e-31
     vertex  1.620651e+02  5.087405e+01  1.664180e-31
   endloop
 endfacet
 facet normal -9.469734e-01 -3.213121e-01  6.443128e-15
   outer loop
     vertex  1.612680e+02  5.334703e+01  3.429000e+00
     vertex  1.604331e+02  5.580752e+01  1.558272e-31
     vertex  1.612680e+02  5.334703e+01  1.611414e-31
   endloop
 endfacet
 facet normal -9.517773e-01 -3.067897e-01 -5.283529e-15
   outer loop
     vertex  1.612680e+02  5.334703e+01  3.429000e+00
     vertex  1.620651e+02  5.087405e+01  1.664180e-31
     vertex  1.620651e+02  5.087405e+01  3.429000e+00
   endloop
 endfacet
 facet normal -9.469734e-01 -3.213121e-01  6.443128e-15
   outer loop
     vertex  1.604331e+02  5.580752e+01  3.429000e+00
     vertex  1.604331e+02  5.580752e+01  1.558272e-31
     vertex  1.612680e+02  5.334703e+01  3.429000e+00
   endloop
 endfacet
 facet normal -9.419478e-01 -3.357593e-01 -4.719208e-15
   outer loop
     vertex  1.595607e+02  5.825496e+01  3.429000e+00
     vertex  1.595607e+02  5.825496e+01  1.504765e-31
     vertex  1.604331e+02  5.580752e+01  1.558272e-31
   endloop
 endfacet
 facet normal -9.419478e-01 -3.357593e-01  2.392542e-15
   outer loop
     vertex  1.595607e+02  5.825496e+01  3.429000e+00
     vertex  1.604331e+02  5.580752e+01  1.558272e-31
     vertex  1.604331e+02  5.580752e+01  3.429000e+00
   endloop
 endfacet
 facet normal -9.367019e-01 -3.501279e-01  6.830811e-15
   outer loop
     vertex  1.586510e+02  6.068876e+01  3.429000e+00
     vertex  1.586510e+02  6.068876e+01  1.450906e-31
     vertex  1.595607e+02  5.825496e+01  1.504765e-31
   endloop
 endfacet
 facet normal -9.367019e-01 -3.501279e-01 -8.722808e-15
   outer loop
     vertex  1.586510e+02  6.068876e+01  3.429000e+00
     vertex  1.595607e+02  5.825496e+01  1.504765e-31
     vertex  1.595607e+02  5.825496e+01  3.429000e+00
   endloop
 endfacet
 facet normal -9.312368e-01 -3.644146e-01  1.123812e-14
   outer loop
     vertex  1.577042e+02  6.310837e+01  3.429000e+00
     vertex  1.577042e+02  6.310837e+01  1.396708e-31
     vertex  1.586510e+02  6.068876e+01  1.450906e-31
   endloop
 endfacet
 facet normal -9.312368e-01 -3.644146e-01  2.791298e-15
   outer loop
     vertex  1.577042e+02  6.310837e+01  3.429000e+00
     vertex  1.586510e+02  6.068876e+01  1.450906e-31
     vertex  1.586510e+02  6.068876e+01  3.429000e+00
   endloop
 endfacet
 facet normal -9.255538e-01 -3.786160e-01  1.050838e-15
   outer loop
     vertex  1.567204e+02  6.551321e+01  3.429000e+00
     vertex  1.567204e+02  6.551321e+01  1.342183e-31
     vertex  1.577042e+02  6.310837e+01  1.396708e-31
   endloop
 endfacet
 facet normal -9.255538e-01 -3.786160e-01  7.177625e-15
   outer loop
     vertex  1.567204e+02  6.551321e+01  3.429000e+00
     vertex  1.577042e+02  6.310837e+01  1.396708e-31
     vertex  1.577042e+02  6.310837e+01  3.429000e+00
   endloop
 endfacet
 facet normal -9.196543e-01 -3.927289e-01 -2.928263e-15
   outer loop
     vertex  1.557000e+02  6.790272e+01  3.429000e+00
     vertex  1.557000e+02  6.790272e+01  1.287343e-31
     vertex  1.567204e+02  6.551321e+01  1.342183e-31
   endloop
 endfacet
 facet normal -9.196543e-01 -3.927289e-01 -2.940832e-15
   outer loop
     vertex  1.557000e+02  6.790272e+01  3.429000e+00
     vertex  1.567204e+02  6.551321e+01  1.342183e-31
     vertex  1.567204e+02  6.551321e+01  3.429000e+00
   endloop
 endfacet
 facet normal -9.135396e-01 -4.067499e-01 -6.906679e-15
   outer loop
     vertex  1.546432e+02  7.027634e+01  3.429000e+00
     vertex  1.546432e+02  7.027634e+01  1.232203e-31
     vertex  1.557000e+02  6.790272e+01  1.287343e-31
   endloop
 endfacet
 facet normal -9.072111e-01 -4.206757e-01 -1.088348e-14
   outer loop
     vertex  1.546432e+02  7.027634e+01  3.429000e+00
     vertex  1.535501e+02  7.263352e+01  1.176774e-31
     vertex  1.546432e+02  7.027634e+01  1.232203e-31
   endloop
 endfacet
 facet normal -9.135396e-01 -4.067499e-01 -6.878557e-15
   outer loop
     vertex  1.546432e+02  7.027634e+01  3.429000e+00
     vertex  1.557000e+02  6.790272e+01  1.287343e-31
     vertex  1.557000e+02  6.790272e+01  3.429000e+00
   endloop
 endfacet
 facet normal -9.072111e-01 -4.206757e-01  5.899006e-15
   outer loop
     vertex  1.535501e+02  7.263352e+01  3.429000e+00
     vertex  1.535501e+02  7.263352e+01  1.176774e-31
     vertex  1.546432e+02  7.027634e+01  3.429000e+00
   endloop
 endfacet
 facet normal -9.006704e-01 -4.345030e-01  7.538236e-15
   outer loop
     vertex  1.524212e+02  7.497371e+01  3.429000e+00
     vertex  1.524212e+02  7.497371e+01  1.121070e-31
     vertex  1.535501e+02  7.263352e+01  1.176774e-31
   endloop
 endfacet
 facet normal -8.939189e-01 -4.482288e-01  3.399577e-15
   outer loop
     vertex  1.524212e+02  7.497371e+01  3.429000e+00
     vertex  1.512565e+02  7.729635e+01  1.065104e-31
     vertex  1.524212e+02  7.497371e+01  1.121070e-31
   endloop
 endfacet
 facet normal -9.006704e-01 -4.345030e-01  1.844251e-15
   outer loop
     vertex  1.524212e+02  7.497371e+01  3.429000e+00
     vertex  1.535501e+02  7.263352e+01  1.176774e-31
     vertex  1.535501e+02  7.263352e+01  3.429000e+00
   endloop
 endfacet
 facet normal -8.869583e-01 -4.618496e-01 -7.398766e-16
   outer loop
     vertex  1.512565e+02  7.729635e+01  3.429000e+00
     vertex  1.500565e+02  7.960091e+01  1.008888e-31
     vertex  1.512565e+02  7.729635e+01  1.065104e-31
   endloop
 endfacet
 facet normal -8.939189e-01 -4.482288e-01  3.399577e-15
   outer loop
     vertex  1.512565e+02  7.729635e+01  3.429000e+00
     vertex  1.512565e+02  7.729635e+01  1.065104e-31
     vertex  1.524212e+02  7.497371e+01  3.429000e+00
   endloop
 endfacet
 facet normal -8.869583e-01 -4.618496e-01 -4.263445e-15
   outer loop
     vertex  1.500565e+02  7.960091e+01  3.429000e+00
     vertex  1.500565e+02  7.960091e+01  1.008888e-31
     vertex  1.512565e+02  7.729635e+01  3.429000e+00
   endloop
 endfacet
 facet normal -8.797901e-01 -4.753624e-01  8.323250e-15
   outer loop
     vertex  1.488214e+02  8.188684e+01  3.429000e+00
     vertex  1.488214e+02  8.188684e+01  9.524362e-32
     vertex  1.500565e+02  7.960091e+01  1.008888e-31
   endloop
 endfacet
 facet normal -8.724161e-01 -4.887639e-01  4.290611e-15
   outer loop
     vertex  1.488214e+02  8.188684e+01  3.429000e+00
     vertex  1.475515e+02  8.415362e+01  8.957617e-32
     vertex  1.488214e+02  8.188684e+01  9.524362e-32
   endloop
 endfacet
 facet normal -8.797901e-01 -4.753624e-01 -8.224362e-15
   outer loop
     vertex  1.488214e+02  8.188684e+01  3.429000e+00
     vertex  1.500565e+02  7.960091e+01  1.008888e-31
     vertex  1.500565e+02  7.960091e+01  3.429000e+00
   endloop
 endfacet
 facet normal -8.724161e-01 -4.887639e-01  4.290611e-15
   outer loop
     vertex  1.475515e+02  8.415362e+01  3.429000e+00
     vertex  1.475515e+02  8.415362e+01  8.957617e-32
     vertex  1.488214e+02  8.188684e+01  3.429000e+00
   endloop
 endfacet
 facet normal -8.648380e-01 -5.020511e-01  2.569685e-16
   outer loop
     vertex  1.462470e+02  8.640070e+01  3.429000e+00
     vertex  1.462470e+02  8.640070e+01  8.388775e-32
     vertex  1.475515e+02  8.415362e+01  8.957617e-32
   endloop
 endfacet
 facet normal -8.648380e-01 -5.020511e-01  2.492231e-16
   outer loop
     vertex  1.462470e+02  8.640070e+01  3.429000e+00
     vertex  1.475515e+02  8.415362e+01  8.957617e-32
     vertex  1.475515e+02  8.415362e+01  3.429000e+00
   endloop
 endfacet
 facet normal -8.570575e-01 -5.152208e-01 -1.641497e-15
   outer loop
     vertex  1.449083e+02  8.862757e+01  3.429000e+00
     vertex  1.449083e+02  8.862757e+01  7.817971e-32
     vertex  1.462470e+02  8.640070e+01  8.388775e-32
   endloop
 endfacet
 facet normal -8.570575e-01 -5.152208e-01 -3.738346e-15
   outer loop
     vertex  1.449083e+02  8.862757e+01  3.429000e+00
     vertex  1.462470e+02  8.640070e+01  8.388775e-32
     vertex  1.462470e+02  8.640070e+01  3.429000e+00
   endloop
 endfacet
 facet normal -8.490765e-01 -5.282700e-01  1.417443e-15
   outer loop
     vertex  1.435357e+02  9.083370e+01  3.429000e+00
     vertex  1.435357e+02  9.083370e+01  7.245338e-32
     vertex  1.449083e+02  8.862757e+01  7.817971e-32
   endloop
 endfacet
 facet normal -8.490765e-01 -5.282700e-01 -5.632442e-15
   outer loop
     vertex  1.435357e+02  9.083370e+01  3.429000e+00
     vertex  1.449083e+02  8.862757e+01  7.817971e-32
     vertex  1.449083e+02  8.862757e+01  3.429000e+00
   endloop
 endfacet
 facet normal -8.408968e-01 -5.411955e-01  6.584987e-15
   outer loop
     vertex  1.421296e+02  9.301858e+01  3.429000e+00
     vertex  1.421296e+02  9.301858e+01  6.671009e-32
     vertex  1.435357e+02  9.083370e+01  7.245338e-32
   endloop
 endfacet
 facet normal -8.408968e-01 -5.411955e-01 -2.641765e-15
   outer loop
     vertex  1.421296e+02  9.301858e+01  3.429000e+00
     vertex  1.435357e+02  9.083370e+01  7.245338e-32
     vertex  1.435357e+02  9.083370e+01  3.429000e+00
   endloop
 endfacet
 facet normal -8.325203e-01 -5.539945e-01  1.172037e-14
   outer loop
     vertex  1.406901e+02  9.518169e+01  3.429000e+00
     vertex  1.406901e+02  9.518169e+01  6.095120e-32
     vertex  1.421296e+02  9.301858e+01  6.671009e-32
   endloop
 endfacet
 facet normal -8.239491e-01 -5.666638e-01  7.640250e-15
   outer loop
     vertex  1.406901e+02  9.518169e+01  3.429000e+00
     vertex  1.392178e+02  9.732253e+01  5.517804e-32
     vertex  1.406901e+02  9.518169e+01  6.095120e-32
   endloop
 endfacet
 facet normal -8.325203e-01 -5.539945e-01  2.542075e-15
   outer loop
     vertex  1.406901e+02  9.518169e+01  3.429000e+00
     vertex  1.421296e+02  9.301858e+01  6.671009e-32
     vertex  1.421296e+02  9.301858e+01  3.429000e+00
   endloop
 endfacet
 facet normal -8.239491e-01 -5.666638e-01  8.108410e-16
   outer loop
     vertex  1.392178e+02  9.732253e+01  3.429000e+00
     vertex  1.392178e+02  9.732253e+01  5.517804e-32
     vertex  1.406901e+02  9.518169e+01  3.429000e+00
   endloop
 endfacet
 facet normal -8.151851e-01 -5.792005e-01  8.359118e-15
   outer loop
     vertex  1.377129e+02  9.944061e+01  3.429000e+00
     vertex  1.377129e+02  9.944061e+01  4.939198e-32
     vertex  1.392178e+02  9.732253e+01  5.517804e-32
   endloop
 endfacet
 facet normal -8.062304e-01 -5.916017e-01  4.379164e-15
   outer loop
     vertex  1.377129e+02  9.944061e+01  3.429000e+00
     vertex  1.361757e+02  1.015354e+02  4.359436e-32
     vertex  1.377129e+02  9.944061e+01  4.939198e-32
   endloop
 endfacet
 facet normal -8.151851e-01 -5.792005e-01 -3.190055e-15
   outer loop
     vertex  1.377129e+02  9.944061e+01  3.429000e+00
     vertex  1.392178e+02  9.732253e+01  5.517804e-32
     vertex  1.392178e+02  9.732253e+01  3.429000e+00
   endloop
 endfacet
 facet normal -8.062304e-01 -5.916017e-01 -4.082358e-15
   outer loop
     vertex  1.361757e+02  1.015354e+02  3.429000e+00
     vertex  1.361757e+02  1.015354e+02  4.359436e-32
     vertex  1.377129e+02  9.944061e+01  3.429000e+00
   endloop
 endfacet
 facet normal -7.970870e-01 -6.038645e-01 -7.775760e-15
   outer loop
     vertex  1.346067e+02  1.036065e+02  3.429000e+00
     vertex  1.361757e+02  1.015354e+02  4.359436e-32
     vertex  1.361757e+02  1.015354e+02  3.429000e+00
   endloop
 endfacet
 facet normal -7.970870e-01 -6.038645e-01  7.905998e-15
   outer loop
     vertex  1.346067e+02  1.036065e+02  3.429000e+00
     vertex  1.346067e+02  1.036065e+02  3.778653e-32
     vertex  1.361757e+02  1.015354e+02  4.359436e-32
   endloop
 endfacet
 facet normal -7.877571e-01 -6.159860e-01  4.037414e-15
   outer loop
     vertex  1.330062e+02  1.056533e+02  3.429000e+00
     vertex  1.346067e+02  1.036065e+02  3.778653e-32
     vertex  1.346067e+02  1.036065e+02  3.429000e+00
   endloop
 endfacet
 facet normal -7.877571e-01 -6.159860e-01  4.075632e-15
   outer loop
     vertex  1.330062e+02  1.056533e+02  3.429000e+00
     vertex  1.330062e+02  1.056533e+02  3.196987e-32
     vertex  1.346067e+02  1.036065e+02  3.778653e-32
   endloop
 endfacet
 facet normal -7.782429e-01 -6.279634e-01  2.443129e-16
   outer loop
     vertex  1.330062e+02  1.056533e+02  3.429000e+00
     vertex  1.313746e+02  1.076754e+02  2.614573e-32
     vertex  1.330062e+02  1.056533e+02  3.196987e-32
   endloop
 endfacet
 facet normal -7.782429e-01 -6.279634e-01 -3.603776e-15
   outer loop
     vertex  1.313746e+02  1.076754e+02  3.429000e+00
     vertex  1.313746e+02  1.076754e+02  2.614573e-32
     vertex  1.330062e+02  1.056533e+02  3.429000e+00
   endloop
 endfacet
 facet normal -7.685466e-01 -6.397938e-01 -7.327159e-15
   outer loop
     vertex  1.297122e+02  1.096722e+02  3.429000e+00
     vertex  1.313746e+02  1.076754e+02  2.614573e-32
     vertex  1.313746e+02  1.076754e+02  3.429000e+00
   endloop
 endfacet
 facet normal -7.685466e-01 -6.397938e-01  2.783134e-15
   outer loop
     vertex  1.297122e+02  1.096722e+02  3.429000e+00
     vertex  1.297122e+02  1.096722e+02  2.031546e-32
     vertex  1.313746e+02  1.076754e+02  2.614573e-32
   endloop
 endfacet
 facet normal -7.586705e-01 -6.514746e-01 -1.146426e-15
   outer loop
     vertex  1.280195e+02  1.116435e+02  3.429000e+00
     vertex  1.297122e+02  1.096722e+02  2.031546e-32
     vertex  1.297122e+02  1.096722e+02  3.429000e+00
   endloop
 endfacet
 facet normal -7.586705e-01 -6.514746e-01  7.858991e-15
   outer loop
     vertex  1.280195e+02  1.116435e+02  3.429000e+00
     vertex  1.280195e+02  1.116435e+02  1.448045e-32
     vertex  1.297122e+02  1.096722e+02  2.031546e-32
   endloop
 endfacet
 facet normal -7.486169e-01 -6.630029e-01  3.887880e-15
   outer loop
     vertex  1.262969e+02  1.135886e+02  3.429000e+00
     vertex  1.280195e+02  1.116435e+02  1.448045e-32
     vertex  1.280195e+02  1.116435e+02  3.429000e+00
   endloop
 endfacet
 facet normal -7.486169e-01 -6.630029e-01 -2.293703e-15
   outer loop
     vertex  1.262969e+02  1.135886e+02  3.429000e+00
     vertex  1.262969e+02  1.135886e+02  8.642046e-33
     vertex  1.280195e+02  1.116435e+02  1.448045e-32
   endloop
 endfacet
 facet normal -7.383881e-01 -6.743761e-01 -6.157522e-15
   outer loop
     vertex  1.262969e+02  1.135886e+02  3.429000e+00
     vertex  1.245447e+02  1.155071e+02  2.801621e-33
     vertex  1.262969e+02  1.135886e+02  8.642046e-33
   endloop
 endfacet
 facet normal -7.383881e-01 -6.743761e-01 -5.678690e-16
   outer loop
     vertex  1.245447e+02  1.155071e+02  3.429000e+00
     vertex  1.245447e+02  1.155071e+02  2.801621e-33
     vertex  1.262969e+02  1.135886e+02  3.429000e+00
   endloop
 endfacet
 facet normal -7.279865e-01 -6.855914e-01  1.521025e-15
   outer loop
     vertex  1.227633e+02  1.173986e+02  3.429000e+00
     vertex  1.227633e+02  1.173986e+02 -3.039460e-33
     vertex  1.245447e+02  1.155071e+02  2.801621e-33
   endloop
 endfacet
 facet normal -7.279865e-01 -6.855914e-01 -4.336482e-15
   outer loop
     vertex  1.227633e+02  1.173986e+02  3.429000e+00
     vertex  1.245447e+02  1.155071e+02  2.801621e-33
     vertex  1.245447e+02  1.155071e+02  3.429000e+00
   endloop
 endfacet
 facet normal -7.174146e-01 -6.966464e-01  7.278155e-16
   outer loop
     vertex  1.209532e+02  1.192627e+02  3.429000e+00
     vertex  1.209532e+02  1.192627e+02 -8.879829e-33
     vertex  1.227633e+02  1.173986e+02 -3.039460e-33
   endloop
 endfacet
 facet normal -7.174146e-01 -6.966464e-01 -2.292852e-15
   outer loop
     vertex  1.209532e+02  1.192627e+02  3.429000e+00
     vertex  1.227633e+02  1.173986e+02 -3.039460e-33
     vertex  1.227633e+02  1.173986e+02  3.429000e+00
   endloop
 endfacet
 facet normal -7.066749e-01 -7.075384e-01  8.635742e-15
   outer loop
     vertex  1.191149e+02  1.210988e+02  3.429000e+00
     vertex  1.191149e+02  1.210988e+02 -1.471812e-32
     vertex  1.209532e+02  1.192627e+02 -8.879829e-33
   endloop
 endfacet
 facet normal -6.957698e-01 -7.182649e-01  4.734950e-15
   outer loop
     vertex  1.191149e+02  1.210988e+02  3.429000e+00
     vertex  1.172486e+02  1.229066e+02 -2.055297e-32
     vertex  1.191149e+02  1.210988e+02 -1.471812e-32
   endloop
 endfacet
 facet normal -7.066749e-01 -7.075384e-01 -3.040522e-15
   outer loop
     vertex  1.191149e+02  1.210988e+02  3.429000e+00
     vertex  1.209532e+02  1.192627e+02 -8.879829e-33
     vertex  1.209532e+02  1.192627e+02  3.429000e+00
   endloop
 endfacet
 facet normal -6.957698e-01 -7.182649e-01  2.037914e-15
   outer loop
     vertex  1.172486e+02  1.229066e+02  3.429000e+00
     vertex  1.172486e+02  1.229066e+02 -2.055297e-32
     vertex  1.191149e+02  1.210988e+02  3.429000e+00
   endloop
 endfacet
 facet normal -6.847019e-01 -7.288232e-01  1.015903e-15
   outer loop
     vertex  1.153549e+02  1.246856e+02  3.429000e+00
     vertex  1.153549e+02  1.246856e+02 -2.638301e-32
     vertex  1.172486e+02  1.229066e+02 -2.055297e-32
   endloop
 endfacet
 facet normal -6.847019e-01 -7.288232e-01 -1.644872e-15
   outer loop
     vertex  1.153549e+02  1.246856e+02  3.429000e+00
     vertex  1.172486e+02  1.229066e+02 -2.055297e-32
     vertex  1.172486e+02  1.229066e+02  3.429000e+00
   endloop
 endfacet
 facet normal -6.734738e-01 -7.392111e-01 -0.000000e+00
   outer loop
     vertex  1.134343e+02  1.264355e+02  3.429000e+00
     vertex  1.134343e+02  1.264355e+02  0.000000e+00
     vertex  1.153549e+02  1.246856e+02 -2.638301e-32
   endloop
 endfacet
 facet normal -6.734738e-01 -7.392111e-01 -2.791298e-15
   outer loop
     vertex  1.134343e+02  1.264355e+02  3.429000e+00
     vertex  1.153549e+02  1.246856e+02 -2.638301e-32
     vertex  1.153549e+02  1.246856e+02  3.429000e+00
   endloop
 endfacet
endsolid
