solid 
 facet normal -9.991458e-01  4.132497e-02 -1.118009e-15
   outer loop
     vertex -5.537273e+00  1.830213e+02 -2.336482e+02
     vertex -5.556250e+00  1.825625e+02 -2.312670e+02
     vertex -5.537273e+00  1.830213e+02 -2.312670e+02
   endloop
 endfacet
 facet normal -9.991458e-01  4.132497e-02 -1.118382e-15
   outer loop
     vertex -5.537273e+00  1.830213e+02 -2.336482e+02
     vertex -5.556250e+00  1.825625e+02 -2.336482e+02
     vertex -5.556250e+00  1.825625e+02 -2.312670e+02
   endloop
 endfacet
 facet normal -9.923206e-01  1.236926e-01 -1.110372e-15
   outer loop
     vertex -5.480470e+00  1.834770e+02 -2.336482e+02
     vertex -5.537273e+00  1.830213e+02 -2.312670e+02
     vertex -5.480470e+00  1.834770e+02 -2.312670e+02
   endloop
 endfacet
 facet normal -9.923206e-01  1.236926e-01 -1.110450e-15
   outer loop
     vertex -5.480470e+00  1.834770e+02 -2.336482e+02
     vertex -5.537273e+00  1.830213e+02 -2.336482e+02
     vertex -5.537273e+00  1.830213e+02 -2.312670e+02
   endloop
 endfacet
 facet normal -9.787168e-01  2.052153e-01 -1.095150e-15
   outer loop
     vertex -5.386230e+00  1.839265e+02 -2.336482e+02
     vertex -5.480470e+00  1.834770e+02 -2.312670e+02
     vertex -5.386230e+00  1.839265e+02 -2.312670e+02
   endloop
 endfacet
 facet normal -9.787168e-01  2.052153e-01 -1.097759e-15
   outer loop
     vertex -5.386230e+00  1.839265e+02 -2.336482e+02
     vertex -5.480470e+00  1.834770e+02 -2.336482e+02
     vertex -5.480470e+00  1.834770e+02 -2.312670e+02
   endloop
 endfacet
 facet normal -9.584275e-01  2.853362e-01 -1.072447e-15
   outer loop
     vertex -5.255197e+00  1.843666e+02 -2.336482e+02
     vertex -5.386230e+00  1.839265e+02 -2.312670e+02
     vertex -5.255197e+00  1.843666e+02 -2.312670e+02
   endloop
 endfacet
 facet normal -9.584275e-01  2.853362e-01 -1.072377e-15
   outer loop
     vertex -5.255197e+00  1.843666e+02 -2.336482e+02
     vertex -5.386230e+00  1.839265e+02 -2.336482e+02
     vertex -5.386230e+00  1.839265e+02 -2.312670e+02
   endloop
 endfacet
 facet normal -9.315911e-01  3.635080e-01 -1.040650e-15
   outer loop
     vertex -5.088266e+00  1.847944e+02 -2.336482e+02
     vertex -5.255197e+00  1.843666e+02 -2.336482e+02
     vertex -5.255197e+00  1.843666e+02 -2.312670e+02
   endloop
 endfacet
 facet normal -9.315911e-01  3.635080e-01 -1.042418e-15
   outer loop
     vertex -5.088266e+00  1.847944e+02 -2.336482e+02
     vertex -5.255197e+00  1.843666e+02 -2.312670e+02
     vertex -5.088266e+00  1.847944e+02 -2.312670e+02
   endloop
 endfacet
 facet normal -8.983910e-01  4.391966e-01 -1.002578e-15
   outer loop
     vertex -4.886576e+00  1.852070e+02 -2.336482e+02
     vertex -5.088266e+00  1.847944e+02 -2.336482e+02
     vertex -5.088266e+00  1.847944e+02 -2.312670e+02
   endloop
 endfacet
 facet normal -8.983910e-01  4.391966e-01 -1.005268e-15
   outer loop
     vertex -4.886576e+00  1.852070e+02 -2.336482e+02
     vertex -5.088266e+00  1.847944e+02 -2.312670e+02
     vertex -4.886576e+00  1.852070e+02 -2.312670e+02
   endloop
 endfacet
 facet normal -8.590540e-01  5.118850e-01 -9.518141e-16
   outer loop
     vertex -4.651506e+00  1.856015e+02 -2.336482e+02
     vertex -4.886576e+00  1.852070e+02 -2.336482e+02
     vertex -4.886576e+00  1.852070e+02 -2.312670e+02
   endloop
 endfacet
 facet normal -8.590540e-01  5.118850e-01 -9.612513e-16
   outer loop
     vertex -4.651506e+00  1.856015e+02 -2.336482e+02
     vertex -4.886576e+00  1.852070e+02 -2.312670e+02
     vertex -4.651506e+00  1.856015e+02 -2.312670e+02
   endloop
 endfacet
 facet normal -8.138487e-01  5.810768e-01 -9.137416e-16
   outer loop
     vertex -4.384662e+00  1.859752e+02 -2.336482e+02
     vertex -4.651506e+00  1.856015e+02 -2.336482e+02
     vertex -4.651506e+00  1.856015e+02 -2.312670e+02
   endloop
 endfacet
 facet normal -8.138487e-01  5.810768e-01 -9.106682e-16
   outer loop
     vertex -4.384662e+00  1.859752e+02 -2.336482e+02
     vertex -4.651506e+00  1.856015e+02 -2.312670e+02
     vertex -4.384662e+00  1.859752e+02 -2.312670e+02
   endloop
 endfacet
 facet normal -7.630841e-01  6.462992e-01 -8.502873e-16
   outer loop
     vertex -4.087866e+00  1.863256e+02 -2.336482e+02
     vertex -4.384662e+00  1.859752e+02 -2.336482e+02
     vertex -4.384662e+00  1.859752e+02 -2.312670e+02
   endloop
 endfacet
 facet normal -7.071068e-01  7.071068e-01 -7.912277e-16
   outer loop
     vertex -4.087866e+00  1.863256e+02 -2.336482e+02
     vertex -4.087866e+00  1.863256e+02 -2.312670e+02
     vertex -3.763146e+00  1.866504e+02 -2.312670e+02
   endloop
 endfacet
 facet normal -7.630841e-01  6.462992e-01 -8.538643e-16
   outer loop
     vertex -4.087866e+00  1.863256e+02 -2.336482e+02
     vertex -4.384662e+00  1.859752e+02 -2.312670e+02
     vertex -4.087866e+00  1.863256e+02 -2.312670e+02
   endloop
 endfacet
 facet normal -7.071068e-01  7.071068e-01 -6.593564e-16
   outer loop
     vertex -3.763146e+00  1.866504e+02 -2.336482e+02
     vertex -4.087866e+00  1.863256e+02 -2.336482e+02
     vertex -3.763146e+00  1.866504e+02 -2.312670e+02
   endloop
 endfacet
 facet normal -6.462992e-01  7.630841e-01 -6.091610e-16
   outer loop
     vertex -3.412719e+00  1.869472e+02 -2.336482e+02
     vertex -3.763146e+00  1.866504e+02 -2.336482e+02
     vertex -3.763146e+00  1.866504e+02 -2.312670e+02
   endloop
 endfacet
 facet normal -6.462992e-01  7.630841e-01 -6.026552e-16
   outer loop
     vertex -3.412719e+00  1.869472e+02 -2.336482e+02
     vertex -3.763146e+00  1.866504e+02 -2.312670e+02
     vertex -3.412719e+00  1.869472e+02 -2.312670e+02
   endloop
 endfacet
 facet normal -5.118850e-01  8.590540e-01 -4.773179e-16
   outer loop
     vertex -3.038981e+00  1.872140e+02 -2.336482e+02
     vertex -3.038981e+00  1.872140e+02 -2.312670e+02
     vertex -2.644483e+00  1.874491e+02 -2.312670e+02
   endloop
 endfacet
 facet normal -5.810768e-01  8.138487e-01 -5.418372e-16
   outer loop
     vertex -3.038981e+00  1.872140e+02 -2.336482e+02
     vertex -3.412719e+00  1.869472e+02 -2.312670e+02
     vertex -3.038981e+00  1.872140e+02 -2.312670e+02
   endloop
 endfacet
 facet normal -5.810768e-01  8.138487e-01 -5.457068e-16
   outer loop
     vertex -3.038981e+00  1.872140e+02 -2.336482e+02
     vertex -3.412719e+00  1.869472e+02 -2.336482e+02
     vertex -3.412719e+00  1.869472e+02 -2.312670e+02
   endloop
 endfacet
 facet normal -5.118850e-01  8.590540e-01 -4.773179e-16
   outer loop
     vertex -2.644483e+00  1.874491e+02 -2.336482e+02
     vertex -3.038981e+00  1.872140e+02 -2.336482e+02
     vertex -2.644483e+00  1.874491e+02 -2.312670e+02
   endloop
 endfacet
 facet normal -4.391966e-01  8.983910e-01 -4.095380e-16
   outer loop
     vertex -2.231920e+00  1.876508e+02 -2.336482e+02
     vertex -2.644483e+00  1.874491e+02 -2.312670e+02
     vertex -2.231920e+00  1.876508e+02 -2.312670e+02
   endloop
 endfacet
 facet normal -4.391966e-01  8.983910e-01 -4.061074e-16
   outer loop
     vertex -2.231920e+00  1.876508e+02 -2.336482e+02
     vertex -2.644483e+00  1.874491e+02 -2.336482e+02
     vertex -2.644483e+00  1.874491e+02 -2.312670e+02
   endloop
 endfacet
 facet normal -2.853362e-01  9.584275e-01 -3.192812e-16
   outer loop
     vertex -1.804111e+00  1.878177e+02 -2.336482e+02
     vertex -1.804111e+00  1.878177e+02 -2.312670e+02
     vertex -1.363979e+00  1.879487e+02 -2.312670e+02
   endloop
 endfacet
 facet normal -3.635080e-01  9.315911e-01 -4.067527e-16
   outer loop
     vertex -1.804111e+00  1.878177e+02 -2.336482e+02
     vertex -2.231920e+00  1.876508e+02 -2.312670e+02
     vertex -1.804111e+00  1.878177e+02 -2.312670e+02
   endloop
 endfacet
 facet normal -3.635080e-01  9.315911e-01 -3.299622e-16
   outer loop
     vertex -1.804111e+00  1.878177e+02 -2.336482e+02
     vertex -2.231920e+00  1.876508e+02 -2.336482e+02
     vertex -2.231920e+00  1.876508e+02 -2.312670e+02
   endloop
 endfacet
 facet normal -2.853362e-01  9.584275e-01 -3.192812e-16
   outer loop
     vertex -1.363979e+00  1.879487e+02 -2.336482e+02
     vertex -1.804111e+00  1.878177e+02 -2.336482e+02
     vertex -1.363979e+00  1.879487e+02 -2.312670e+02
   endloop
 endfacet
 facet normal -1.236926e-01  9.923206e-01 -1.384077e-16
   outer loop
     vertex -9.145287e-01  1.880430e+02 -2.336482e+02
     vertex -9.145287e-01  1.880430e+02 -2.312670e+02
     vertex -4.588315e-01  1.880998e+02 -2.312670e+02
   endloop
 endfacet
 facet normal -2.052153e-01  9.787168e-01 -2.296288e-16
   outer loop
     vertex -9.145287e-01  1.880430e+02 -2.336482e+02
     vertex -1.363979e+00  1.879487e+02 -2.312670e+02
     vertex -9.145287e-01  1.880430e+02 -2.312670e+02
   endloop
 endfacet
 facet normal -2.052153e-01  9.787168e-01 -2.284354e-16
   outer loop
     vertex -9.145287e-01  1.880430e+02 -2.336482e+02
     vertex -1.363979e+00  1.879487e+02 -2.336482e+02
     vertex -1.363979e+00  1.879487e+02 -2.312670e+02
   endloop
 endfacet
 facet normal -1.236926e-01  9.923206e-01 -1.326407e-16
   outer loop
     vertex -4.588315e-01  1.880998e+02 -2.336482e+02
     vertex -9.145287e-01  1.880430e+02 -2.336482e+02
     vertex -4.588315e-01  1.880998e+02 -2.312670e+02
   endloop
 endfacet
 facet normal  4.132497e-02  9.991458e-01  4.515742e-17
   outer loop
     vertex  4.872556e-14  1.881188e+02 -2.336482e+02
     vertex  4.612348e-14  1.881188e+02 -2.312670e+02
     vertex  4.588315e-01  1.880998e+02 -2.312670e+02
   endloop
 endfacet
 facet normal -4.132497e-02  9.991458e-01 -4.515742e-17
   outer loop
     vertex  4.872556e-14  1.881188e+02 -2.336482e+02
     vertex -4.588315e-01  1.880998e+02 -2.312670e+02
     vertex  4.612348e-14  1.881188e+02 -2.312670e+02
   endloop
 endfacet
 facet normal -4.132497e-02  9.991458e-01 -4.441799e-17
   outer loop
     vertex  4.872556e-14  1.881188e+02 -2.336482e+02
     vertex -4.588315e-01  1.880998e+02 -2.336482e+02
     vertex -4.588315e-01  1.880998e+02 -2.312670e+02
   endloop
 endfacet
 facet normal  1.236926e-01  9.923206e-01  1.326407e-16
   outer loop
     vertex  4.588315e-01  1.880998e+02 -2.336482e+02
     vertex  4.588315e-01  1.880998e+02 -2.312670e+02
     vertex  9.145287e-01  1.880430e+02 -2.312670e+02
   endloop
 endfacet
 facet normal  4.132497e-02  9.991458e-01  4.431448e-17
   outer loop
     vertex  4.588315e-01  1.880998e+02 -2.336482e+02
     vertex  4.872556e-14  1.881188e+02 -2.336482e+02
     vertex  4.588315e-01  1.880998e+02 -2.312670e+02
   endloop
 endfacet
 facet normal  2.052153e-01  9.787168e-01  2.296288e-16
   outer loop
     vertex  9.145287e-01  1.880430e+02 -2.336482e+02
     vertex  9.145287e-01  1.880430e+02 -2.312670e+02
     vertex  1.363979e+00  1.879487e+02 -2.312670e+02
   endloop
 endfacet
 facet normal  1.236926e-01  9.923206e-01  1.384077e-16
   outer loop
     vertex  9.145287e-01  1.880430e+02 -2.336482e+02
     vertex  4.588315e-01  1.880998e+02 -2.336482e+02
     vertex  9.145287e-01  1.880430e+02 -2.312670e+02
   endloop
 endfacet
 facet normal  2.052153e-01  9.787168e-01  2.296288e-16
   outer loop
     vertex  1.363979e+00  1.879487e+02 -2.336482e+02
     vertex  9.145287e-01  1.880430e+02 -2.336482e+02
     vertex  1.363979e+00  1.879487e+02 -2.312670e+02
   endloop
 endfacet
 facet normal  2.853362e-01  9.584275e-01  3.192812e-16
   outer loop
     vertex  1.804111e+00  1.878177e+02 -2.336482e+02
     vertex  1.363979e+00  1.879487e+02 -2.312670e+02
     vertex  1.804111e+00  1.878177e+02 -2.312670e+02
   endloop
 endfacet
 facet normal  2.853362e-01  9.584275e-01  3.172714e-16
   outer loop
     vertex  1.804111e+00  1.878177e+02 -2.336482e+02
     vertex  1.363979e+00  1.879487e+02 -2.336482e+02
     vertex  1.363979e+00  1.879487e+02 -2.312670e+02
   endloop
 endfacet
 facet normal  3.635080e-01  9.315911e-01  3.389606e-16
   outer loop
     vertex  2.231920e+00  1.876508e+02 -2.336482e+02
     vertex  1.804111e+00  1.878177e+02 -2.312670e+02
     vertex  2.231920e+00  1.876508e+02 -2.312670e+02
   endloop
 endfacet
 facet normal  3.635080e-01  9.315911e-01  4.061074e-16
   outer loop
     vertex  2.231920e+00  1.876508e+02 -2.336482e+02
     vertex  1.804111e+00  1.878177e+02 -2.336482e+02
     vertex  1.804111e+00  1.878177e+02 -2.312670e+02
   endloop
 endfacet
 facet normal  4.391966e-01  8.983910e-01  4.095380e-16
   outer loop
     vertex  2.644483e+00  1.874491e+02 -2.336482e+02
     vertex  2.231920e+00  1.876508e+02 -2.312670e+02
     vertex  2.644483e+00  1.874491e+02 -2.312670e+02
   endloop
 endfacet
 facet normal  4.391966e-01  8.983910e-01  4.061074e-16
   outer loop
     vertex  2.644483e+00  1.874491e+02 -2.336482e+02
     vertex  2.231920e+00  1.876508e+02 -2.336482e+02
     vertex  2.231920e+00  1.876508e+02 -2.312670e+02
   endloop
 endfacet
 facet normal  5.810768e-01  8.138487e-01  5.418372e-16
   outer loop
     vertex  3.038981e+00  1.872140e+02 -2.336482e+02
     vertex  3.038981e+00  1.872140e+02 -2.312670e+02
     vertex  3.412719e+00  1.869472e+02 -2.312670e+02
   endloop
 endfacet
 facet normal  5.118850e-01  8.590540e-01  4.773179e-16
   outer loop
     vertex  3.038981e+00  1.872140e+02 -2.336482e+02
     vertex  2.644483e+00  1.874491e+02 -2.312670e+02
     vertex  3.038981e+00  1.872140e+02 -2.312670e+02
   endloop
 endfacet
 facet normal  5.118850e-01  8.590540e-01  4.822525e-16
   outer loop
     vertex  3.038981e+00  1.872140e+02 -2.336482e+02
     vertex  2.644483e+00  1.874491e+02 -2.336482e+02
     vertex  2.644483e+00  1.874491e+02 -2.312670e+02
   endloop
 endfacet
 facet normal  5.810768e-01  8.138487e-01  5.418372e-16
   outer loop
     vertex  3.412719e+00  1.869472e+02 -2.336482e+02
     vertex  3.038981e+00  1.872140e+02 -2.336482e+02
     vertex  3.412719e+00  1.869472e+02 -2.312670e+02
   endloop
 endfacet
 facet normal  6.462992e-01  7.630841e-01  6.026552e-16
   outer loop
     vertex  3.763146e+00  1.866504e+02 -2.336482e+02
     vertex  3.412719e+00  1.869472e+02 -2.312670e+02
     vertex  3.763146e+00  1.866504e+02 -2.312670e+02
   endloop
 endfacet
 facet normal  6.462992e-01  7.630841e-01  5.964702e-16
   outer loop
     vertex  3.763146e+00  1.866504e+02 -2.336482e+02
     vertex  3.412719e+00  1.869472e+02 -2.336482e+02
     vertex  3.412719e+00  1.869472e+02 -2.312670e+02
   endloop
 endfacet
 facet normal  7.071068e-01  7.071068e-01  7.912277e-16
   outer loop
     vertex  4.087866e+00  1.863256e+02 -2.336482e+02
     vertex  3.763146e+00  1.866504e+02 -2.312670e+02
     vertex  4.087866e+00  1.863256e+02 -2.312670e+02
   endloop
 endfacet
 facet normal  7.071068e-01  7.071068e-01  6.599245e-16
   outer loop
     vertex  4.087866e+00  1.863256e+02 -2.336482e+02
     vertex  3.763146e+00  1.866504e+02 -2.336482e+02
     vertex  3.763146e+00  1.866504e+02 -2.312670e+02
   endloop
 endfacet
 facet normal  7.630841e-01  6.462992e-01  8.629781e-16
   outer loop
     vertex  4.384662e+00  1.859752e+02 -2.336482e+02
     vertex  4.087866e+00  1.863256e+02 -2.336482e+02
     vertex  4.087866e+00  1.863256e+02 -2.312670e+02
   endloop
 endfacet
 facet normal  7.630841e-01  6.462992e-01  8.538643e-16
   outer loop
     vertex  4.384662e+00  1.859752e+02 -2.336482e+02
     vertex  4.087866e+00  1.863256e+02 -2.312670e+02
     vertex  4.384662e+00  1.859752e+02 -2.312670e+02
   endloop
 endfacet
 facet normal  8.138487e-01  5.810768e-01  9.137416e-16
   outer loop
     vertex  4.651506e+00  1.856015e+02 -2.336482e+02
     vertex  4.384662e+00  1.859752e+02 -2.336482e+02
     vertex  4.384662e+00  1.859752e+02 -2.312670e+02
   endloop
 endfacet
 facet normal  8.590540e-01  5.118850e-01  9.612513e-16
   outer loop
     vertex  4.651506e+00  1.856015e+02 -2.336482e+02
     vertex  4.651506e+00  1.856015e+02 -2.312670e+02
     vertex  4.886576e+00  1.852070e+02 -2.312670e+02
   endloop
 endfacet
 facet normal  8.138487e-01  5.810768e-01  9.106682e-16
   outer loop
     vertex  4.651506e+00  1.856015e+02 -2.336482e+02
     vertex  4.384662e+00  1.859752e+02 -2.312670e+02
     vertex  4.651506e+00  1.856015e+02 -2.312670e+02
   endloop
 endfacet
 facet normal  8.983910e-01  4.391966e-01  1.005268e-15
   outer loop
     vertex  4.886576e+00  1.852070e+02 -2.336482e+02
     vertex  4.886576e+00  1.852070e+02 -2.312670e+02
     vertex  5.088266e+00  1.847944e+02 -2.312670e+02
   endloop
 endfacet
 facet normal  8.590540e-01  5.118850e-01  9.612513e-16
   outer loop
     vertex  4.886576e+00  1.852070e+02 -2.336482e+02
     vertex  4.651506e+00  1.856015e+02 -2.336482e+02
     vertex  4.886576e+00  1.852070e+02 -2.312670e+02
   endloop
 endfacet
 facet normal  8.983910e-01  4.391966e-01  1.005268e-15
   outer loop
     vertex  5.088266e+00  1.847944e+02 -2.336482e+02
     vertex  4.886576e+00  1.852070e+02 -2.336482e+02
     vertex  5.088266e+00  1.847944e+02 -2.312670e+02
   endloop
 endfacet
 facet normal  9.584275e-01  2.853362e-01  1.072447e-15
   outer loop
     vertex  5.255197e+00  1.843666e+02 -2.336482e+02
     vertex  5.255197e+00  1.843666e+02 -2.312670e+02
     vertex  5.386230e+00  1.839265e+02 -2.312670e+02
   endloop
 endfacet
 facet normal  9.315911e-01  3.635080e-01  1.042418e-15
   outer loop
     vertex  5.255197e+00  1.843666e+02 -2.336482e+02
     vertex  5.088266e+00  1.847944e+02 -2.312670e+02
     vertex  5.255197e+00  1.843666e+02 -2.312670e+02
   endloop
 endfacet
 facet normal  9.315911e-01  3.635080e-01  1.040650e-15
   outer loop
     vertex  5.255197e+00  1.843666e+02 -2.336482e+02
     vertex  5.088266e+00  1.847944e+02 -2.336482e+02
     vertex  5.088266e+00  1.847944e+02 -2.312670e+02
   endloop
 endfacet
 facet normal  9.787168e-01  2.052153e-01  1.095150e-15
   outer loop
     vertex  5.386230e+00  1.839265e+02 -2.336482e+02
     vertex  5.386230e+00  1.839265e+02 -2.312670e+02
     vertex  5.480470e+00  1.834770e+02 -2.312670e+02
   endloop
 endfacet
 facet normal  9.584275e-01  2.853362e-01  1.072447e-15
   outer loop
     vertex  5.386230e+00  1.839265e+02 -2.336482e+02
     vertex  5.255197e+00  1.843666e+02 -2.336482e+02
     vertex  5.386230e+00  1.839265e+02 -2.312670e+02
   endloop
 endfacet
 facet normal  9.787168e-01  2.052153e-01  1.095150e-15
   outer loop
     vertex  5.480470e+00  1.834770e+02 -2.336482e+02
     vertex  5.386230e+00  1.839265e+02 -2.336482e+02
     vertex  5.480470e+00  1.834770e+02 -2.312670e+02
   endloop
 endfacet
 facet normal  9.923206e-01  1.236926e-01  1.110372e-15
   outer loop
     vertex  5.537273e+00  1.830213e+02 -2.336482e+02
     vertex  5.480470e+00  1.834770e+02 -2.312670e+02
     vertex  5.537273e+00  1.830213e+02 -2.312670e+02
   endloop
 endfacet
 facet normal  9.923206e-01  1.236926e-01  1.110450e-15
   outer loop
     vertex  5.537273e+00  1.830213e+02 -2.336482e+02
     vertex  5.480470e+00  1.834770e+02 -2.336482e+02
     vertex  5.480470e+00  1.834770e+02 -2.312670e+02
   endloop
 endfacet
 facet normal  9.991458e-01  4.132497e-02  7.453394e-16
   outer loop
     vertex  5.556250e+00  1.825625e+02 -2.336482e+02
     vertex  5.537273e+00  1.830213e+02 -2.312670e+02
     vertex  5.556250e+00  1.825625e+02 -2.312670e+02
   endloop
 endfacet
 facet normal  9.991458e-01  4.132497e-02  1.118382e-15
   outer loop
     vertex  5.556250e+00  1.825625e+02 -2.336482e+02
     vertex  5.537273e+00  1.830213e+02 -2.336482e+02
     vertex  5.537273e+00  1.830213e+02 -2.312670e+02
   endloop
 endfacet
endsolid
