solid 
 facet normal -9.989931e-01  4.486483e-02  8.940530e-16
   outer loop
     vertex  4.743328e+00 -1.829894e+02 -2.336482e+02
     vertex  4.762500e+00 -1.825625e+02 -2.276958e+02
     vertex  4.762500e+00 -1.825625e+02 -2.336482e+02
   endloop
 endfacet
 facet normal -9.989931e-01  4.486483e-02  8.943660e-16
   outer loop
     vertex  4.743328e+00 -1.829894e+02 -2.336482e+02
     vertex  4.743328e+00 -1.829894e+02 -2.276958e+02
     vertex  4.762500e+00 -1.825625e+02 -2.276958e+02
   endloop
 endfacet
 facet normal -9.909498e-01  1.342333e-01  8.871651e-16
   outer loop
     vertex  4.685965e+00 -1.834129e+02 -2.336482e+02
     vertex  4.685965e+00 -1.834129e+02 -2.276958e+02
     vertex  4.743328e+00 -1.829894e+02 -2.276958e+02
   endloop
 endfacet
 facet normal -9.749279e-01  2.225209e-01  8.728212e-16
   outer loop
     vertex  4.685965e+00 -1.834129e+02 -2.336482e+02
     vertex  4.590873e+00 -1.838295e+02 -2.276958e+02
     vertex  4.685965e+00 -1.834129e+02 -2.276958e+02
   endloop
 endfacet
 facet normal -9.909498e-01  1.342333e-01  8.879153e-16
   outer loop
     vertex  4.685965e+00 -1.834129e+02 -2.336482e+02
     vertex  4.743328e+00 -1.829894e+02 -2.276958e+02
     vertex  4.743328e+00 -1.829894e+02 -2.336482e+02
   endloop
 endfacet
 facet normal -9.749279e-01  2.225209e-01  8.728212e-16
   outer loop
     vertex  4.590873e+00 -1.838295e+02 -2.336482e+02
     vertex  4.590873e+00 -1.838295e+02 -2.276958e+02
     vertex  4.685965e+00 -1.834129e+02 -2.336482e+02
   endloop
 endfacet
 facet normal -9.510565e-01  3.090170e-01  8.514499e-16
   outer loop
     vertex  4.458819e+00 -1.842359e+02 -2.336482e+02
     vertex  4.458819e+00 -1.842359e+02 -2.276958e+02
     vertex  4.590873e+00 -1.838295e+02 -2.276958e+02
   endloop
 endfacet
 facet normal -9.510565e-01  3.090170e-01  8.510893e-16
   outer loop
     vertex  4.458819e+00 -1.842359e+02 -2.336482e+02
     vertex  4.590873e+00 -1.838295e+02 -2.276958e+02
     vertex  4.590873e+00 -1.838295e+02 -2.336482e+02
   endloop
 endfacet
 facet normal -9.195278e-01  3.930250e-01 -9.161729e-16
   outer loop
     vertex  4.290864e+00 -1.846289e+02 -2.336482e+02
     vertex  4.290864e+00 -1.846289e+02 -2.276958e+02
     vertex  4.458819e+00 -1.842359e+02 -2.276958e+02
   endloop
 endfacet
 facet normal -8.805955e-01  4.738687e-01 -1.342846e-15
   outer loop
     vertex  4.290864e+00 -1.846289e+02 -2.336482e+02
     vertex  4.088362e+00 -1.850052e+02 -2.276958e+02
     vertex  4.290864e+00 -1.846289e+02 -2.276958e+02
   endloop
 endfacet
 facet normal -9.195278e-01  3.930250e-01  8.238108e-16
   outer loop
     vertex  4.290864e+00 -1.846289e+02 -2.336482e+02
     vertex  4.458819e+00 -1.842359e+02 -2.276958e+02
     vertex  4.458819e+00 -1.842359e+02 -2.336482e+02
   endloop
 endfacet
 facet normal -8.805955e-01  4.738687e-01  7.883685e-16
   outer loop
     vertex  4.088362e+00 -1.850052e+02 -2.336482e+02
     vertex  4.088362e+00 -1.850052e+02 -2.276958e+02
     vertex  4.290864e+00 -1.846289e+02 -2.336482e+02
   endloop
 endfacet
 facet normal -8.345733e-01  5.508970e-01  9.339578e-16
   outer loop
     vertex  3.852943e+00 -1.853618e+02 -2.336482e+02
     vertex  3.852943e+00 -1.853618e+02 -2.276958e+02
     vertex  4.088362e+00 -1.850052e+02 -2.276958e+02
   endloop
 endfacet
 facet normal -7.818315e-01  6.234898e-01  8.749353e-16
   outer loop
     vertex  3.852943e+00 -1.853618e+02 -2.336482e+02
     vertex  3.586503e+00 -1.856959e+02 -2.276958e+02
     vertex  3.852943e+00 -1.853618e+02 -2.276958e+02
   endloop
 endfacet
 facet normal -8.345733e-01  5.508970e-01  7.474310e-16
   outer loop
     vertex  3.852943e+00 -1.853618e+02 -2.336482e+02
     vertex  4.088362e+00 -1.850052e+02 -2.276958e+02
     vertex  4.088362e+00 -1.850052e+02 -2.336482e+02
   endloop
 endfacet
 facet normal -7.818315e-01  6.234898e-01 -2.160408e-15
   outer loop
     vertex  3.586503e+00 -1.856959e+02 -2.336482e+02
     vertex  3.586503e+00 -1.856959e+02 -2.276958e+02
     vertex  3.852943e+00 -1.853618e+02 -2.336482e+02
   endloop
 endfacet
 facet normal -7.227949e-01  6.910626e-01 -2.542357e-15
   outer loop
     vertex  3.291186e+00 -1.860048e+02 -2.336482e+02
     vertex  3.586503e+00 -1.856959e+02 -2.276958e+02
     vertex  3.586503e+00 -1.856959e+02 -2.336482e+02
   endloop
 endfacet
 facet normal -7.227949e-01  6.910626e-01  7.010193e-16
   outer loop
     vertex  3.291186e+00 -1.860048e+02 -2.336482e+02
     vertex  3.291186e+00 -1.860048e+02 -2.276958e+02
     vertex  3.586503e+00 -1.856959e+02 -2.276958e+02
   endloop
 endfacet
 facet normal -6.579387e-01  7.530715e-01  6.383170e-16
   outer loop
     vertex  2.969370e+00 -1.862860e+02 -2.336482e+02
     vertex  3.291186e+00 -1.860048e+02 -2.276958e+02
     vertex  3.291186e+00 -1.860048e+02 -2.336482e+02
   endloop
 endfacet
 facet normal -6.579387e-01  7.530715e-01  7.362889e-16
   outer loop
     vertex  2.969370e+00 -1.862860e+02 -2.336482e+02
     vertex  2.969370e+00 -1.862860e+02 -2.276958e+02
     vertex  3.291186e+00 -1.860048e+02 -2.276958e+02
   endloop
 endfacet
 facet normal -5.877853e-01  8.090170e-01  6.546841e-16
   outer loop
     vertex  2.623647e+00 -1.865372e+02 -2.336482e+02
     vertex  2.969370e+00 -1.862860e+02 -2.276958e+02
     vertex  2.969370e+00 -1.862860e+02 -2.336482e+02
   endloop
 endfacet
 facet normal -5.877853e-01  8.090170e-01  6.577813e-16
   outer loop
     vertex  2.623647e+00 -1.865372e+02 -2.336482e+02
     vertex  2.623647e+00 -1.865372e+02 -2.276958e+02
     vertex  2.969370e+00 -1.862860e+02 -2.276958e+02
   endloop
 endfacet
 facet normal -5.128993e-01  8.584488e-01  5.739775e-16
   outer loop
     vertex  2.623647e+00 -1.865372e+02 -2.336482e+02
     vertex  2.256800e+00 -1.867563e+02 -2.276958e+02
     vertex  2.623647e+00 -1.865372e+02 -2.276958e+02
   endloop
 endfacet
 facet normal -5.128993e-01  8.584488e-01  5.739775e-16
   outer loop
     vertex  2.256800e+00 -1.867563e+02 -2.336482e+02
     vertex  2.256800e+00 -1.867563e+02 -2.276958e+02
     vertex  2.623647e+00 -1.865372e+02 -2.336482e+02
   endloop
 endfacet
 facet normal -4.338837e-01  9.009689e-01  4.855574e-16
   outer loop
     vertex  1.871782e+00 -1.869418e+02 -2.336482e+02
     vertex  2.256800e+00 -1.867563e+02 -2.276958e+02
     vertex  2.256800e+00 -1.867563e+02 -2.336482e+02
   endloop
 endfacet
 facet normal -4.338837e-01  9.009689e-01  4.531823e-16
   outer loop
     vertex  1.871782e+00 -1.869418e+02 -2.336482e+02
     vertex  1.871782e+00 -1.869418e+02 -2.276958e+02
     vertex  2.256800e+00 -1.867563e+02 -2.276958e+02
   endloop
 endfacet
 facet normal -3.513748e-01  9.362349e-01  3.655320e-16
   outer loop
     vertex  1.471693e+00 -1.870919e+02 -2.336482e+02
     vertex  1.871782e+00 -1.869418e+02 -2.276958e+02
     vertex  1.871782e+00 -1.869418e+02 -2.336482e+02
   endloop
 endfacet
 facet normal -3.513748e-01  9.362349e-01  3.670035e-16
   outer loop
     vertex  1.471693e+00 -1.870919e+02 -2.336482e+02
     vertex  1.471693e+00 -1.870919e+02 -2.276958e+02
     vertex  1.871782e+00 -1.869418e+02 -2.276958e+02
   endloop
 endfacet
 facet normal -2.660368e-01  9.639629e-01  2.782407e-16
   outer loop
     vertex  1.059756e+00 -1.872056e+02 -2.336482e+02
     vertex  1.471693e+00 -1.870919e+02 -2.276958e+02
     vertex  1.471693e+00 -1.870919e+02 -2.336482e+02
   endloop
 endfacet
 facet normal -2.660368e-01  9.639629e-01  2.778698e-16
   outer loop
     vertex  1.059756e+00 -1.872056e+02 -2.336482e+02
     vertex  1.059756e+00 -1.872056e+02 -2.276958e+02
     vertex  1.471693e+00 -1.870919e+02 -2.276958e+02
   endloop
 endfacet
 facet normal -1.785569e-01  9.839296e-01  1.854938e-16
   outer loop
     vertex  6.392859e-01 -1.872819e+02 -2.336482e+02
     vertex  1.059756e+00 -1.872056e+02 -2.276958e+02
     vertex  1.059756e+00 -1.872056e+02 -2.336482e+02
   endloop
 endfacet
 facet normal -1.785569e-01  9.839296e-01  1.931595e-16
   outer loop
     vertex  6.392859e-01 -1.872819e+02 -2.336482e+02
     vertex  6.392859e-01 -1.872819e+02 -2.276958e+02
     vertex  1.059756e+00 -1.872056e+02 -2.276958e+02
   endloop
 endfacet
 facet normal -8.963931e-02  9.959743e-01  9.697015e-17
   outer loop
     vertex  6.392859e-01 -1.872819e+02 -2.336482e+02
     vertex  2.136688e-01 -1.873202e+02 -2.276958e+02
     vertex  6.392859e-01 -1.872819e+02 -2.276958e+02
   endloop
 endfacet
 facet normal -8.963931e-02  9.959743e-01  9.613420e-17
   outer loop
     vertex  2.136688e-01 -1.873202e+02 -2.336482e+02
     vertex  2.136688e-01 -1.873202e+02 -2.276958e+02
     vertex  6.392859e-01 -1.872819e+02 -2.336482e+02
   endloop
 endfacet
 facet normal  0.000000e+00  1.000000e+00  0.000000e+00
   outer loop
     vertex -2.136688e-01 -1.873202e+02 -2.336482e+02
     vertex  2.136688e-01 -1.873202e+02 -2.276958e+02
     vertex  2.136688e-01 -1.873202e+02 -2.336482e+02
   endloop
 endfacet
 facet normal  0.000000e+00  1.000000e+00  0.000000e+00
   outer loop
     vertex -2.136688e-01 -1.873202e+02 -2.336482e+02
     vertex -2.136688e-01 -1.873202e+02 -2.276958e+02
     vertex  2.136688e-01 -1.873202e+02 -2.276958e+02
   endloop
 endfacet
 facet normal  8.963931e-02  9.959743e-01 -9.613420e-17
   outer loop
     vertex -2.136688e-01 -1.873202e+02 -2.336482e+02
     vertex -6.392859e-01 -1.872819e+02 -2.276958e+02
     vertex -2.136688e-01 -1.873202e+02 -2.276958e+02
   endloop
 endfacet
 facet normal  8.963931e-02  9.959743e-01 -9.697015e-17
   outer loop
     vertex -6.392859e-01 -1.872819e+02 -2.336482e+02
     vertex -6.392859e-01 -1.872819e+02 -2.276958e+02
     vertex -2.136688e-01 -1.873202e+02 -2.336482e+02
   endloop
 endfacet
 facet normal  1.785569e-01  9.839296e-01 -1.931595e-16
   outer loop
     vertex -6.392859e-01 -1.872819e+02 -2.336482e+02
     vertex -1.059756e+00 -1.872056e+02 -2.276958e+02
     vertex -6.392859e-01 -1.872819e+02 -2.276958e+02
   endloop
 endfacet
 facet normal  1.785569e-01  9.839296e-01 -1.864989e-16
   outer loop
     vertex -1.059756e+00 -1.872056e+02 -2.336482e+02
     vertex -1.059756e+00 -1.872056e+02 -2.276958e+02
     vertex -6.392859e-01 -1.872819e+02 -2.336482e+02
   endloop
 endfacet
 facet normal  2.660368e-01  9.639629e-01 -2.778698e-16
   outer loop
     vertex -1.471693e+00 -1.870919e+02 -2.336482e+02
     vertex -1.471693e+00 -1.870919e+02 -2.276958e+02
     vertex -1.059756e+00 -1.872056e+02 -2.276958e+02
   endloop
 endfacet
 facet normal  2.660368e-01  9.639629e-01 -2.782407e-16
   outer loop
     vertex -1.471693e+00 -1.870919e+02 -2.336482e+02
     vertex -1.059756e+00 -1.872056e+02 -2.276958e+02
     vertex -1.059756e+00 -1.872056e+02 -2.336482e+02
   endloop
 endfacet
 facet normal  3.513748e-01  9.362349e-01 -3.670035e-16
   outer loop
     vertex -1.871782e+00 -1.869418e+02 -2.336482e+02
     vertex -1.871782e+00 -1.869418e+02 -2.276958e+02
     vertex -1.471693e+00 -1.870919e+02 -2.276958e+02
   endloop
 endfacet
 facet normal  3.513748e-01  9.362349e-01 -3.655320e-16
   outer loop
     vertex -1.871782e+00 -1.869418e+02 -2.336482e+02
     vertex -1.471693e+00 -1.870919e+02 -2.276958e+02
     vertex -1.471693e+00 -1.870919e+02 -2.336482e+02
   endloop
 endfacet
 facet normal  4.338837e-01  9.009689e-01 -4.531823e-16
   outer loop
     vertex -1.871782e+00 -1.869418e+02 -2.336482e+02
     vertex -2.256800e+00 -1.867563e+02 -2.276958e+02
     vertex -1.871782e+00 -1.869418e+02 -2.276958e+02
   endloop
 endfacet
 facet normal  4.338837e-01  9.009689e-01 -4.855525e-16
   outer loop
     vertex -2.256800e+00 -1.867563e+02 -2.336482e+02
     vertex -2.256800e+00 -1.867563e+02 -2.276958e+02
     vertex -1.871782e+00 -1.869418e+02 -2.336482e+02
   endloop
 endfacet
 facet normal  5.128993e-01  8.584488e-01 -5.739775e-16
   outer loop
     vertex -2.623647e+00 -1.865372e+02 -2.336482e+02
     vertex -2.623647e+00 -1.865372e+02 -2.276958e+02
     vertex -2.256800e+00 -1.867563e+02 -2.276958e+02
   endloop
 endfacet
 facet normal  5.128993e-01  8.584488e-01 -5.728486e-16
   outer loop
     vertex -2.623647e+00 -1.865372e+02 -2.336482e+02
     vertex -2.256800e+00 -1.867563e+02 -2.276958e+02
     vertex -2.256800e+00 -1.867563e+02 -2.336482e+02
   endloop
 endfacet
 facet normal  5.877853e-01  8.090170e-01 -6.139292e-16
   outer loop
     vertex -2.969370e+00 -1.862860e+02 -2.336482e+02
     vertex -2.969370e+00 -1.862860e+02 -2.276958e+02
     vertex -2.623647e+00 -1.865372e+02 -2.276958e+02
   endloop
 endfacet
 facet normal  5.877853e-01  8.090170e-01 -6.546841e-16
   outer loop
     vertex -2.969370e+00 -1.862860e+02 -2.336482e+02
     vertex -2.623647e+00 -1.865372e+02 -2.276958e+02
     vertex -2.623647e+00 -1.865372e+02 -2.336482e+02
   endloop
 endfacet
 facet normal  6.579387e-01  7.530715e-01 -6.381170e-16
   outer loop
     vertex -3.291186e+00 -1.860048e+02 -2.336482e+02
     vertex -3.291186e+00 -1.860048e+02 -2.276958e+02
     vertex -2.969370e+00 -1.862860e+02 -2.276958e+02
   endloop
 endfacet
 facet normal  7.227949e-01  6.910626e-01 -7.010193e-16
   outer loop
     vertex -3.291186e+00 -1.860048e+02 -2.336482e+02
     vertex -3.586503e+00 -1.856959e+02 -2.276958e+02
     vertex -3.291186e+00 -1.860048e+02 -2.276958e+02
   endloop
 endfacet
 facet normal  6.579387e-01  7.530715e-01 -6.874183e-16
   outer loop
     vertex -3.291186e+00 -1.860048e+02 -2.336482e+02
     vertex -2.969370e+00 -1.862860e+02 -2.276958e+02
     vertex -2.969370e+00 -1.862860e+02 -2.336482e+02
   endloop
 endfacet
 facet normal  7.818315e-01  6.234898e-01  2.160408e-15
   outer loop
     vertex -3.586503e+00 -1.856959e+02 -2.336482e+02
     vertex -3.852943e+00 -1.853618e+02 -2.276958e+02
     vertex -3.586503e+00 -1.856959e+02 -2.276958e+02
   endloop
 endfacet
 facet normal  7.227949e-01  6.910626e-01  2.544714e-15
   outer loop
     vertex -3.586503e+00 -1.856959e+02 -2.336482e+02
     vertex -3.586503e+00 -1.856959e+02 -2.276958e+02
     vertex -3.291186e+00 -1.860048e+02 -2.336482e+02
   endloop
 endfacet
 facet normal  7.818315e-01  6.234898e-01 -7.582773e-16
   outer loop
     vertex -3.852943e+00 -1.853618e+02 -2.336482e+02
     vertex -3.852943e+00 -1.853618e+02 -2.276958e+02
     vertex -3.586503e+00 -1.856959e+02 -2.336482e+02
   endloop
 endfacet
 facet normal  8.345733e-01  5.508970e-01 -8.716940e-16
   outer loop
     vertex -4.088362e+00 -1.850052e+02 -2.336482e+02
     vertex -4.088362e+00 -1.850052e+02 -2.276958e+02
     vertex -3.852943e+00 -1.853618e+02 -2.276958e+02
   endloop
 endfacet
 facet normal  8.805955e-01  4.738687e-01 -9.197633e-16
   outer loop
     vertex -4.088362e+00 -1.850052e+02 -2.336482e+02
     vertex -4.290864e+00 -1.846289e+02 -2.276958e+02
     vertex -4.088362e+00 -1.850052e+02 -2.276958e+02
   endloop
 endfacet
 facet normal  8.345733e-01  5.508970e-01 -8.074437e-16
   outer loop
     vertex -4.088362e+00 -1.850052e+02 -2.336482e+02
     vertex -3.852943e+00 -1.853618e+02 -2.276958e+02
     vertex -3.852943e+00 -1.853618e+02 -2.336482e+02
   endloop
 endfacet
 facet normal  8.805955e-01  4.738687e-01  1.342846e-15
   outer loop
     vertex -4.290864e+00 -1.846289e+02 -2.336482e+02
     vertex -4.290864e+00 -1.846289e+02 -2.276958e+02
     vertex -4.088362e+00 -1.850052e+02 -2.336482e+02
   endloop
 endfacet
 facet normal  9.195278e-01  3.930250e-01 -8.232233e-16
   outer loop
     vertex -4.458819e+00 -1.842359e+02 -2.336482e+02
     vertex -4.458819e+00 -1.842359e+02 -2.276958e+02
     vertex -4.290864e+00 -1.846289e+02 -2.276958e+02
   endloop
 endfacet
 facet normal  9.510565e-01  3.090170e-01 -8.514499e-16
   outer loop
     vertex -4.458819e+00 -1.842359e+02 -2.336482e+02
     vertex -4.590873e+00 -1.838295e+02 -2.276958e+02
     vertex -4.458819e+00 -1.842359e+02 -2.276958e+02
   endloop
 endfacet
 facet normal  9.195278e-01  3.930250e-01  9.165578e-16
   outer loop
     vertex -4.458819e+00 -1.842359e+02 -2.336482e+02
     vertex -4.290864e+00 -1.846289e+02 -2.276958e+02
     vertex -4.290864e+00 -1.846289e+02 -2.336482e+02
   endloop
 endfacet
 facet normal  9.510565e-01  3.090170e-01 -8.514499e-16
   outer loop
     vertex -4.590873e+00 -1.838295e+02 -2.336482e+02
     vertex -4.590873e+00 -1.838295e+02 -2.276958e+02
     vertex -4.458819e+00 -1.842359e+02 -2.336482e+02
   endloop
 endfacet
 facet normal  9.749279e-01  2.225209e-01 -8.729121e-16
   outer loop
     vertex -4.685965e+00 -1.834129e+02 -2.336482e+02
     vertex -4.590873e+00 -1.838295e+02 -2.276958e+02
     vertex -4.590873e+00 -1.838295e+02 -2.336482e+02
   endloop
 endfacet
 facet normal  9.749279e-01  2.225209e-01 -8.728212e-16
   outer loop
     vertex -4.685965e+00 -1.834129e+02 -2.336482e+02
     vertex -4.685965e+00 -1.834129e+02 -2.276958e+02
     vertex -4.590873e+00 -1.838295e+02 -2.276958e+02
   endloop
 endfacet
 facet normal  9.909498e-01  1.342333e-01 -8.871651e-16
   outer loop
     vertex -4.685965e+00 -1.834129e+02 -2.336482e+02
     vertex -4.743328e+00 -1.829894e+02 -2.276958e+02
     vertex -4.685965e+00 -1.834129e+02 -2.276958e+02
   endloop
 endfacet
 facet normal  9.909498e-01  1.342333e-01 -1.035026e-15
   outer loop
     vertex -4.743328e+00 -1.829894e+02 -2.336482e+02
     vertex -4.743328e+00 -1.829894e+02 -2.276958e+02
     vertex -4.685965e+00 -1.834129e+02 -2.336482e+02
   endloop
 endfacet
 facet normal  9.989931e-01  4.486483e-02 -1.043403e-15
   outer loop
     vertex -4.762500e+00 -1.825625e+02 -2.336482e+02
     vertex -4.743328e+00 -1.829894e+02 -2.276958e+02
     vertex -4.743328e+00 -1.829894e+02 -2.336482e+02
   endloop
 endfacet
 facet normal  9.989931e-01  4.486483e-02 -8.943660e-16
   outer loop
     vertex -4.762500e+00 -1.825625e+02 -2.336482e+02
     vertex -4.762500e+00 -1.825625e+02 -2.276958e+02
     vertex -4.743328e+00 -1.829894e+02 -2.276958e+02
   endloop
 endfacet
endsolid
