solid 
 facet normal -2.155762e-16  2.254750e-16 -1.000000e+00
   outer loop
     vertex  1.794291e+02  3.586503e+00 -3.571240e+00
     vertex  1.791202e+02  3.291186e+00 -3.571240e+00
     vertex  1.746250e+02  1.474992e+01 -3.571240e+00
   endloop
 endfacet
 facet normal -2.449069e-16  2.139687e-16 -1.000000e+00
   outer loop
     vertex  1.788390e+02  2.969370e+00 -3.571240e+00
     vertex  1.746250e+02  1.474992e+01 -3.571240e+00
     vertex  1.791202e+02  3.291186e+00 -3.571240e+00
   endloop
 endfacet
 facet normal -1.889485e-16  2.369339e-16 -1.000000e+00
   outer loop
     vertex  1.797632e+02  3.852943e+00 -3.571240e+00
     vertex  1.794291e+02  3.586503e+00 -3.571240e+00
     vertex  1.746250e+02  1.474992e+01 -3.571240e+00
   endloop
 endfacet
 facet normal -2.781403e-16  2.020808e-16 -1.000000e+00
   outer loop
     vertex  1.785878e+02  2.623647e+00 -3.571240e+00
     vertex  1.746250e+02  1.474992e+01 -3.571240e+00
     vertex  1.788390e+02  2.969370e+00 -3.571240e+00
   endloop
 endfacet
 facet normal -1.641250e-16  2.486388e-16 -1.000000e+00
   outer loop
     vertex  1.801198e+02  4.088362e+00 -3.571240e+00
     vertex  1.797632e+02  3.852943e+00 -3.571240e+00
     vertex  1.746250e+02  1.474992e+01 -3.571240e+00
   endloop
 endfacet
 facet normal -3.169814e-16  1.893876e-16 -1.000000e+00
   outer loop
     vertex  1.783687e+02  2.256800e+00 -3.571240e+00
     vertex  1.746250e+02  1.474992e+01 -3.571240e+00
     vertex  1.785878e+02  2.623647e+00 -3.571240e+00
   endloop
 endfacet
 facet normal -1.403829e-16  2.608751e-16 -1.000000e+00
   outer loop
     vertex  1.804961e+02  4.290864e+00 -3.571240e+00
     vertex  1.801198e+02  4.088362e+00 -3.571240e+00
     vertex  1.746250e+02  1.474992e+01 -3.571240e+00
   endloop
 endfacet
 facet normal -3.640063e-16  1.752962e-16 -1.000000e+00
   outer loop
     vertex  1.781832e+02  1.871782e+00 -3.571240e+00
     vertex  1.746250e+02  1.474992e+01 -3.571240e+00
     vertex  1.783687e+02  2.256800e+00 -3.571240e+00
   endloop
 endfacet
 facet normal -1.170917e-16  2.739496e-16 -1.000000e+00
   outer loop
     vertex  1.808891e+02  4.458819e+00 -3.571240e+00
     vertex  1.804961e+02  4.290864e+00 -3.571240e+00
     vertex  1.746250e+02  1.474992e+01 -3.571240e+00
   endloop
 endfacet
 facet normal -4.233708e-16  1.588937e-16 -1.000000e+00
   outer loop
     vertex  1.780331e+02  1.471693e+00 -3.571240e+00
     vertex  1.746250e+02  1.474992e+01 -3.571240e+00
     vertex  1.781832e+02  1.871782e+00 -3.571240e+00
   endloop
 endfacet
 facet normal -9.364814e-17  2.882194e-16 -1.000000e+00
   outer loop
     vertex  1.812955e+02  4.590873e+00 -3.571240e+00
     vertex  1.808891e+02  4.458819e+00 -3.571240e+00
     vertex  1.746250e+02  1.474992e+01 -3.571240e+00
   endloop
 endfacet
 facet normal -6.941580e-17  3.041305e-16 -1.000000e+00
   outer loop
     vertex  1.817121e+02  4.685965e+00 -3.571240e+00
     vertex  1.812955e+02  4.590873e+00 -3.571240e+00
     vertex  1.746250e+02  1.474992e+01 -3.571240e+00
   endloop
 endfacet
 facet normal -2.317098e-15 -1.384094e-15 -1.000000e+00
   outer loop
     vertex  1.821356e+02  4.743328e+00 -3.571240e+00
     vertex  1.746250e+02  1.474992e+01 -3.571240e+00
     vertex  1.748868e+02  1.527412e+01 -3.571240e+00
   endloop
 endfacet
 facet normal -1.654043e-16  9.699865e-17 -1.000000e+00
   outer loop
     vertex  1.821356e+02  4.743328e+00 -3.571240e+00
     vertex  1.748868e+02  1.527412e+01 -3.571240e+00
     vertex  1.751833e+02  1.577958e+01 -3.571240e+00
   endloop
 endfacet
 facet normal -1.535331e-16  1.044769e-16 -1.000000e+00
   outer loop
     vertex  1.821356e+02  4.743328e+00 -3.571240e+00
     vertex  1.751833e+02  1.577958e+01 -3.571240e+00
     vertex  1.755129e+02  1.626401e+01 -3.571240e+00
   endloop
 endfacet
 facet normal -1.418839e-16  1.111735e-16 -1.000000e+00
   outer loop
     vertex  1.821356e+02  4.743328e+00 -3.571240e+00
     vertex  1.755129e+02  1.626401e+01 -3.571240e+00
     vertex  1.758743e+02  1.672525e+01 -3.571240e+00
   endloop
 endfacet
 facet normal -1.304454e-16  1.171508e-16 -1.000000e+00
   outer loop
     vertex  1.821356e+02  4.743328e+00 -3.571240e+00
     vertex  1.758743e+02  1.672525e+01 -3.571240e+00
     vertex  1.762658e+02  1.716121e+01 -3.571240e+00
   endloop
 endfacet
 facet normal -1.192057e-16  1.224636e-16 -1.000000e+00
   outer loop
     vertex  1.821356e+02  4.743328e+00 -3.571240e+00
     vertex  1.762658e+02  1.716121e+01 -3.571240e+00
     vertex  1.766857e+02  1.756992e+01 -3.571240e+00
   endloop
 endfacet
 facet normal -1.081521e-16  1.271602e-16 -1.000000e+00
   outer loop
     vertex  1.821356e+02  4.743328e+00 -3.571240e+00
     vertex  1.766857e+02  1.756992e+01 -3.571240e+00
     vertex  1.771321e+02  1.794955e+01 -3.571240e+00
   endloop
 endfacet
 facet normal  6.392243e-16  4.103227e-16 -1.000000e+00
   outer loop
     vertex  1.821356e+02  4.743328e+00 -3.571240e+00
     vertex  1.771321e+02  1.794955e+01 -3.571240e+00
     vertex  1.776029e+02  1.829839e+01 -3.571240e+00
   endloop
 endfacet
 facet normal -1.038604e-16  1.618412e-16 -1.000000e+00
   outer loop
     vertex  1.821356e+02  4.743328e+00 -3.571240e+00
     vertex  1.776029e+02  1.829839e+01 -3.571240e+00
     vertex  1.780960e+02  1.861486e+01 -3.571240e+00
   endloop
 endfacet
 facet normal -9.117061e-17  1.655366e-16 -1.000000e+00
   outer loop
     vertex  1.821356e+02  4.743328e+00 -3.571240e+00
     vertex  1.780960e+02  1.861486e+01 -3.571240e+00
     vertex  1.786093e+02  1.889755e+01 -3.571240e+00
   endloop
 endfacet
 facet normal -4.365467e-17  3.222717e-16 -1.000000e+00
   outer loop
     vertex  1.821356e+02  4.743328e+00 -3.571240e+00
     vertex  1.817121e+02  4.685965e+00 -3.571240e+00
     vertex  1.746250e+02  1.474992e+01 -3.571240e+00
   endloop
 endfacet
 facet normal -7.775504e-17  1.667596e-16 -1.000000e+00
   outer loop
     vertex  1.825625e+02  4.762500e+00 -3.571240e+00
     vertex  1.786093e+02  1.889755e+01 -3.571240e+00
     vertex  1.791404e+02  1.914517e+01 -3.571240e+00
   endloop
 endfacet
 facet normal -6.563783e-17  1.696427e-16 -1.000000e+00
   outer loop
     vertex  1.825625e+02  4.762500e+00 -3.571240e+00
     vertex  1.791404e+02  1.914517e+01 -3.571240e+00
     vertex  1.796868e+02  1.935661e+01 -3.571240e+00
   endloop
 endfacet
 facet normal -5.359804e-17  1.720150e-16 -1.000000e+00
   outer loop
     vertex  1.825625e+02  4.762500e+00 -3.571240e+00
     vertex  1.796868e+02  1.935661e+01 -3.571240e+00
     vertex  1.802463e+02  1.953092e+01 -3.571240e+00
   endloop
 endfacet
 facet normal -4.162162e-17  1.738933e-16 -1.000000e+00
   outer loop
     vertex  1.825625e+02  4.762500e+00 -3.571240e+00
     vertex  1.802463e+02  1.953092e+01 -3.571240e+00
     vertex  1.808161e+02  1.966732e+01 -3.571240e+00
   endloop
 endfacet
 facet normal -2.969451e-17  1.752908e-16 -1.000000e+00
   outer loop
     vertex  1.825625e+02  4.762500e+00 -3.571240e+00
     vertex  1.808161e+02  1.966732e+01 -3.571240e+00
     vertex  1.813939e+02  1.976519e+01 -3.571240e+00
   endloop
 endfacet
 facet normal -1.780262e-17  1.762171e-16 -1.000000e+00
   outer loop
     vertex  1.825625e+02  4.762500e+00 -3.571240e+00
     vertex  1.813939e+02  1.976519e+01 -3.571240e+00
     vertex  1.819769e+02  1.982409e+01 -3.571240e+00
   endloop
 endfacet
 facet normal -5.931858e-18  1.766787e-16 -1.000000e+00
   outer loop
     vertex  1.825625e+02  4.762500e+00 -3.571240e+00
     vertex  1.819769e+02  1.982409e+01 -3.571240e+00
     vertex  1.825625e+02  1.984375e+01 -3.571240e+00
   endloop
 endfacet
 facet normal  5.931858e-18  1.766787e-16 -1.000000e+00
   outer loop
     vertex  1.825625e+02  4.762500e+00 -3.571240e+00
     vertex  1.825625e+02  1.984375e+01 -3.571240e+00
     vertex  1.831481e+02  1.982409e+01 -3.571240e+00
   endloop
 endfacet
 facet normal  1.780262e-17  1.762171e-16 -1.000000e+00
   outer loop
     vertex  1.825625e+02  4.762500e+00 -3.571240e+00
     vertex  1.831481e+02  1.982409e+01 -3.571240e+00
     vertex  1.837311e+02  1.976519e+01 -3.571240e+00
   endloop
 endfacet
 facet normal  2.969451e-17  1.752908e-16 -1.000000e+00
   outer loop
     vertex  1.825625e+02  4.762500e+00 -3.571240e+00
     vertex  1.837311e+02  1.976519e+01 -3.571240e+00
     vertex  1.843089e+02  1.966732e+01 -3.571240e+00
   endloop
 endfacet
 facet normal  4.162162e-17  1.738933e-16 -1.000000e+00
   outer loop
     vertex  1.825625e+02  4.762500e+00 -3.571240e+00
     vertex  1.843089e+02  1.966732e+01 -3.571240e+00
     vertex  1.848787e+02  1.953092e+01 -3.571240e+00
   endloop
 endfacet
 facet normal  5.359804e-17  1.720150e-16 -1.000000e+00
   outer loop
     vertex  1.825625e+02  4.762500e+00 -3.571240e+00
     vertex  1.848787e+02  1.953092e+01 -3.571240e+00
     vertex  1.854382e+02  1.935661e+01 -3.571240e+00
   endloop
 endfacet
 facet normal  6.563783e-17  1.696427e-16 -1.000000e+00
   outer loop
     vertex  1.825625e+02  4.762500e+00 -3.571240e+00
     vertex  1.854382e+02  1.935661e+01 -3.571240e+00
     vertex  1.859846e+02  1.914517e+01 -3.571240e+00
   endloop
 endfacet
 facet normal  7.775504e-17  1.667596e-16 -1.000000e+00
   outer loop
     vertex  1.825625e+02  4.762500e+00 -3.571240e+00
     vertex  1.859846e+02  1.914517e+01 -3.571240e+00
     vertex  1.865157e+02  1.889755e+01 -3.571240e+00
   endloop
 endfacet
 facet normal -8.360783e-18  1.861673e-16 -1.000000e+00
   outer loop
     vertex  1.825625e+02  4.762500e+00 -3.571240e+00
     vertex  1.821356e+02  4.743328e+00 -3.571240e+00
     vertex  1.786093e+02  1.889755e+01 -3.571240e+00
   endloop
 endfacet
 facet normal  9.117061e-17  1.655366e-16 -1.000000e+00
   outer loop
     vertex  1.829894e+02  4.743328e+00 -3.571240e+00
     vertex  1.865157e+02  1.889755e+01 -3.571240e+00
     vertex  1.870290e+02  1.861486e+01 -3.571240e+00
   endloop
 endfacet
 facet normal  1.038604e-16  1.618412e-16 -1.000000e+00
   outer loop
     vertex  1.829894e+02  4.743328e+00 -3.571240e+00
     vertex  1.870290e+02  1.861486e+01 -3.571240e+00
     vertex  1.875221e+02  1.829839e+01 -3.571240e+00
   endloop
 endfacet
 facet normal -6.392243e-16  4.103227e-16 -1.000000e+00
   outer loop
     vertex  1.829894e+02  4.743328e+00 -3.571240e+00
     vertex  1.875221e+02  1.829839e+01 -3.571240e+00
     vertex  1.879929e+02  1.794955e+01 -3.571240e+00
   endloop
 endfacet
 facet normal  1.081521e-16  1.271602e-16 -1.000000e+00
   outer loop
     vertex  1.829894e+02  4.743328e+00 -3.571240e+00
     vertex  1.879929e+02  1.794955e+01 -3.571240e+00
     vertex  1.884393e+02  1.756992e+01 -3.571240e+00
   endloop
 endfacet
 facet normal  1.192057e-16  1.224636e-16 -1.000000e+00
   outer loop
     vertex  1.829894e+02  4.743328e+00 -3.571240e+00
     vertex  1.884393e+02  1.756992e+01 -3.571240e+00
     vertex  1.888592e+02  1.716121e+01 -3.571240e+00
   endloop
 endfacet
 facet normal  1.304454e-16  1.171508e-16 -1.000000e+00
   outer loop
     vertex  1.829894e+02  4.743328e+00 -3.571240e+00
     vertex  1.888592e+02  1.716121e+01 -3.571240e+00
     vertex  1.892507e+02  1.672525e+01 -3.571240e+00
   endloop
 endfacet
 facet normal  1.418839e-16  1.111735e-16 -1.000000e+00
   outer loop
     vertex  1.829894e+02  4.743328e+00 -3.571240e+00
     vertex  1.892507e+02  1.672525e+01 -3.571240e+00
     vertex  1.896121e+02  1.626401e+01 -3.571240e+00
   endloop
 endfacet
 facet normal  1.535331e-16  1.044769e-16 -1.000000e+00
   outer loop
     vertex  1.829894e+02  4.743328e+00 -3.571240e+00
     vertex  1.896121e+02  1.626401e+01 -3.571240e+00
     vertex  1.899417e+02  1.577958e+01 -3.571240e+00
   endloop
 endfacet
 facet normal  1.654043e-16  9.699865e-17 -1.000000e+00
   outer loop
     vertex  1.829894e+02  4.743328e+00 -3.571240e+00
     vertex  1.899417e+02  1.577958e+01 -3.571240e+00
     vertex  1.902382e+02  1.527412e+01 -3.571240e+00
   endloop
 endfacet
 facet normal  1.603901e-15 -8.931733e-16 -1.000000e+00
   outer loop
     vertex  1.829894e+02  4.743328e+00 -3.571240e+00
     vertex  1.902382e+02  1.527412e+01 -3.571240e+00
     vertex  1.905000e+02  1.474992e+01 -3.571240e+00
   endloop
 endfacet
 facet normal  8.360783e-18  1.861673e-16 -1.000000e+00
   outer loop
     vertex  1.829894e+02  4.743328e+00 -3.571240e+00
     vertex  1.825625e+02  4.762500e+00 -3.571240e+00
     vertex  1.865157e+02  1.889755e+01 -3.571240e+00
   endloop
 endfacet
 facet normal -9.483365e-16  2.415190e-17 -1.000000e+00
   outer loop
     vertex  1.746250e+02 -3.637419e+00 -3.571240e+00
     vertex  1.746250e+02  1.474992e+01 -3.571240e+00
     vertex  1.780331e+02  1.471693e+00 -3.571240e+00
   endloop
 endfacet
 facet normal -1.555815e-15  4.293777e-16 -1.000000e+00
   outer loop
     vertex  1.746250e+02 -3.637419e+00 -3.571240e+00
     vertex  1.780331e+02  1.471693e+00 -3.571240e+00
     vertex  1.779194e+02  1.059756e+00 -3.571240e+00
   endloop
 endfacet
 facet normal -1.272986e-15  2.310129e-16 -1.000000e+00
   outer loop
     vertex  1.746250e+02 -3.637419e+00 -3.571240e+00
     vertex  1.779194e+02  1.059756e+00 -3.571240e+00
     vertex  1.778431e+02  6.392859e-01 -3.571240e+00
   endloop
 endfacet
 facet normal -1.097217e-15  9.875128e-17 -1.000000e+00
   outer loop
     vertex  1.746250e+02 -3.637419e+00 -3.571240e+00
     vertex  1.778431e+02  6.392859e-01 -3.571240e+00
     vertex  1.778048e+02  2.136688e-01 -3.571240e+00
   endloop
 endfacet
 facet normal -9.776177e-16  0.000000e+00 -1.000000e+00
   outer loop
     vertex  1.746250e+02 -3.637419e+00 -3.571240e+00
     vertex  1.778048e+02  2.136688e-01 -3.571240e+00
     vertex  1.778048e+02 -2.136688e-01 -3.571240e+00
   endloop
 endfacet
 facet normal -8.912498e-16 -8.021393e-17 -1.000000e+00
   outer loop
     vertex  1.778431e+02 -6.392859e-01 -3.571240e+00
     vertex  1.746250e+02 -3.637419e+00 -3.571240e+00
     vertex  1.778048e+02 -2.136688e-01 -3.571240e+00
   endloop
 endfacet
 facet normal  3.819783e-17  2.819877e-16 -1.000000e+00
   outer loop
     vertex  1.834129e+02  4.685965e+00 -3.571240e+00
     vertex  1.829894e+02  4.743328e+00 -3.571240e+00
     vertex  1.905000e+02  1.474992e+01 -3.571240e+00
   endloop
 endfacet
 facet normal -8.262821e-16 -1.499481e-16 -1.000000e+00
   outer loop
     vertex  1.779194e+02 -1.059756e+00 -3.571240e+00
     vertex  1.746250e+02 -3.637419e+00 -3.571240e+00
     vertex  1.778431e+02 -6.392859e-01 -3.571240e+00
   endloop
 endfacet
 facet normal  6.073882e-17  2.661142e-16 -1.000000e+00
   outer loop
     vertex  1.838295e+02  4.590873e+00 -3.571240e+00
     vertex  1.834129e+02  4.685965e+00 -3.571240e+00
     vertex  1.905000e+02  1.474992e+01 -3.571240e+00
   endloop
 endfacet
 facet normal -7.760317e-16 -2.141711e-16 -1.000000e+00
   outer loop
     vertex  1.780331e+02 -1.471693e+00 -3.571240e+00
     vertex  1.746250e+02 -3.637419e+00 -3.571240e+00
     vertex  1.779194e+02 -1.059756e+00 -3.571240e+00
   endloop
 endfacet
 facet normal  8.194213e-17  2.521919e-16 -1.000000e+00
   outer loop
     vertex  1.842359e+02  4.458819e+00 -3.571240e+00
     vertex  1.838295e+02  4.590873e+00 -3.571240e+00
     vertex  1.905000e+02  1.474992e+01 -3.571240e+00
   endloop
 endfacet
 facet normal -7.364831e-16 -2.764067e-16 -1.000000e+00
   outer loop
     vertex  1.781832e+02 -1.871782e+00 -3.571240e+00
     vertex  1.746250e+02 -3.637419e+00 -3.571240e+00
     vertex  1.780331e+02 -1.471693e+00 -3.571240e+00
   endloop
 endfacet
 facet normal  1.024552e-16  2.397059e-16 -1.000000e+00
   outer loop
     vertex  1.846289e+02  4.290864e+00 -3.571240e+00
     vertex  1.842359e+02  4.458819e+00 -3.571240e+00
     vertex  1.905000e+02  1.474992e+01 -3.571240e+00
   endloop
 endfacet
 facet normal -7.051377e-16 -3.395764e-16 -1.000000e+00
   outer loop
     vertex  1.783687e+02 -2.256800e+00 -3.571240e+00
     vertex  1.746250e+02 -3.637419e+00 -3.571240e+00
     vertex  1.781832e+02 -1.871782e+00 -3.571240e+00
   endloop
 endfacet
 facet normal  0.000000e+00  0.000000e+00 -1.000000e+00
   outer loop
     vertex  1.783687e+02 -2.256800e+00 -3.571240e+00
     vertex  1.751833e+02 -4.667077e+00 -3.571240e+00
     vertex  1.748868e+02 -4.161620e+00 -3.571240e+00
   endloop
 endfacet
 facet normal -2.547987e-15  4.657460e-15 -1.000000e+00
   outer loop
     vertex  1.783687e+02 -2.256800e+00 -3.571240e+00
     vertex  1.748868e+02 -4.161620e+00 -3.571240e+00
     vertex  1.746250e+02 -3.637419e+00 -3.571240e+00
   endloop
 endfacet
 facet normal  1.228350e-16  2.282658e-16 -1.000000e+00
   outer loop
     vertex  1.850052e+02  4.088362e+00 -3.571240e+00
     vertex  1.846289e+02  4.290864e+00 -3.571240e+00
     vertex  1.905000e+02  1.474992e+01 -3.571240e+00
   endloop
 endfacet
 facet normal  0.000000e+00  0.000000e+00 -1.000000e+00
   outer loop
     vertex  1.785878e+02 -2.623647e+00 -3.571240e+00
     vertex  1.755129e+02 -5.151514e+00 -3.571240e+00
     vertex  1.751833e+02 -4.667077e+00 -3.571240e+00
   endloop
 endfacet
 facet normal -0.000000e+00  0.000000e+00 -1.000000e+00
   outer loop
     vertex  1.785878e+02 -2.623647e+00 -3.571240e+00
     vertex  1.751833e+02 -4.667077e+00 -3.571240e+00
     vertex  1.783687e+02 -2.256800e+00 -3.571240e+00
   endloop
 endfacet
 facet normal  1.436094e-16  2.175589e-16 -1.000000e+00
   outer loop
     vertex  1.853618e+02  3.852943e+00 -3.571240e+00
     vertex  1.850052e+02  4.088362e+00 -3.571240e+00
     vertex  1.905000e+02  1.474992e+01 -3.571240e+00
   endloop
 endfacet
 facet normal  0.000000e+00  0.000000e+00 -1.000000e+00
   outer loop
     vertex  1.788390e+02 -2.969370e+00 -3.571240e+00
     vertex  1.758743e+02 -5.612749e+00 -3.571240e+00
     vertex  1.755129e+02 -5.151514e+00 -3.571240e+00
   endloop
 endfacet
 facet normal -0.000000e+00  0.000000e+00 -1.000000e+00
   outer loop
     vertex  1.788390e+02 -2.969370e+00 -3.571240e+00
     vertex  1.755129e+02 -5.151514e+00 -3.571240e+00
     vertex  1.785878e+02 -2.623647e+00 -3.571240e+00
   endloop
 endfacet
 facet normal  1.653300e-16  2.073172e-16 -1.000000e+00
   outer loop
     vertex  1.856959e+02  3.586503e+00 -3.571240e+00
     vertex  1.853618e+02  3.852943e+00 -3.571240e+00
     vertex  1.905000e+02  1.474992e+01 -3.571240e+00
   endloop
 endfacet
 facet normal  0.000000e+00  0.000000e+00 -1.000000e+00
   outer loop
     vertex  1.791202e+02 -3.291186e+00 -3.571240e+00
     vertex  1.762658e+02 -6.048706e+00 -3.571240e+00
     vertex  1.758743e+02 -5.612749e+00 -3.571240e+00
   endloop
 endfacet
 facet normal -0.000000e+00  0.000000e+00 -1.000000e+00
   outer loop
     vertex  1.791202e+02 -3.291186e+00 -3.571240e+00
     vertex  1.758743e+02 -5.612749e+00 -3.571240e+00
     vertex  1.788390e+02 -2.969370e+00 -3.571240e+00
   endloop
 endfacet
 facet normal  1.886292e-16  1.972906e-16 -1.000000e+00
   outer loop
     vertex  1.860048e+02  3.291186e+00 -3.571240e+00
     vertex  1.856959e+02  3.586503e+00 -3.571240e+00
     vertex  1.905000e+02  1.474992e+01 -3.571240e+00
   endloop
 endfacet
 facet normal  0.000000e+00  0.000000e+00 -1.000000e+00
   outer loop
     vertex  1.766857e+02 -6.457420e+00 -3.571240e+00
     vertex  1.762658e+02 -6.048706e+00 -3.571240e+00
     vertex  1.791202e+02 -3.291186e+00 -3.571240e+00
   endloop
 endfacet
 facet normal  0.000000e+00  0.000000e+00 -1.000000e+00
   outer loop
     vertex  1.766857e+02 -6.457420e+00 -3.571240e+00
     vertex  1.791202e+02 -3.291186e+00 -3.571240e+00
     vertex  1.794291e+02 -3.586503e+00 -3.571240e+00
   endloop
 endfacet
 facet normal  2.142936e-16  1.872226e-16 -1.000000e+00
   outer loop
     vertex  1.862860e+02  2.969370e+00 -3.571240e+00
     vertex  1.860048e+02  3.291186e+00 -3.571240e+00
     vertex  1.905000e+02  1.474992e+01 -3.571240e+00
   endloop
 endfacet
 facet normal  2.433728e-16  1.768207e-16 -1.000000e+00
   outer loop
     vertex  1.865372e+02  2.623647e+00 -3.571240e+00
     vertex  1.862860e+02  2.969370e+00 -3.571240e+00
     vertex  1.905000e+02  1.474992e+01 -3.571240e+00
   endloop
 endfacet
 facet normal  0.000000e+00  0.000000e+00 -1.000000e+00
   outer loop
     vertex  1.771321e+02 -6.837051e+00 -3.571240e+00
     vertex  1.794291e+02 -3.586503e+00 -3.571240e+00
     vertex  1.797632e+02 -3.852943e+00 -3.571240e+00
   endloop
 endfacet
 facet normal  0.000000e+00  0.000000e+00 -1.000000e+00
   outer loop
     vertex  1.771321e+02 -6.837051e+00 -3.571240e+00
     vertex  1.766857e+02 -6.457420e+00 -3.571240e+00
     vertex  1.794291e+02 -3.586503e+00 -3.571240e+00
   endloop
 endfacet
 facet normal  2.773587e-16  1.657141e-16 -1.000000e+00
   outer loop
     vertex  1.867563e+02  2.256800e+00 -3.571240e+00
     vertex  1.865372e+02  2.623647e+00 -3.571240e+00
     vertex  1.905000e+02  1.474992e+01 -3.571240e+00
   endloop
 endfacet
 facet normal -5.705294e-16  5.030369e-16 -1.000000e+00
   outer loop
     vertex  1.776029e+02 -7.185888e+00 -3.571240e+00
     vertex  1.771321e+02 -6.837051e+00 -3.571240e+00
     vertex  1.797632e+02 -3.852943e+00 -3.571240e+00
   endloop
 endfacet
 facet normal  6.159796e-17  9.331692e-17 -1.000000e+00
   outer loop
     vertex  1.776029e+02 -7.185888e+00 -3.571240e+00
     vertex  1.797632e+02 -3.852943e+00 -3.571240e+00
     vertex  1.801198e+02 -4.088362e+00 -3.571240e+00
   endloop
 endfacet
 facet normal  3.185055e-16  1.533842e-16 -1.000000e+00
   outer loop
     vertex  1.869418e+02  1.871782e+00 -3.571240e+00
     vertex  1.867563e+02  2.256800e+00 -3.571240e+00
     vertex  1.905000e+02  1.474992e+01 -3.571240e+00
   endloop
 endfacet
 facet normal  6.047237e-17  9.423153e-17 -1.000000e+00
   outer loop
     vertex  1.780960e+02 -7.502362e+00 -3.571240e+00
     vertex  1.776029e+02 -7.185888e+00 -3.571240e+00
     vertex  1.801198e+02 -4.088362e+00 -3.571240e+00
   endloop
 endfacet
 facet normal  3.704494e-16  1.390320e-16 -1.000000e+00
   outer loop
     vertex  1.870919e+02  1.471693e+00 -3.571240e+00
     vertex  1.869418e+02  1.871782e+00 -3.571240e+00
     vertex  1.905000e+02  1.474992e+01 -3.571240e+00
   endloop
 endfacet
 facet normal  5.400897e-17  9.806297e-17 -1.000000e+00
   outer loop
     vertex  1.786093e+02 -7.785046e+00 -3.571240e+00
     vertex  1.780960e+02 -7.502362e+00 -3.571240e+00
     vertex  1.801198e+02 -4.088362e+00 -3.571240e+00
   endloop
 endfacet
 facet normal  5.299327e-17  9.847800e-17 -1.000000e+00
   outer loop
     vertex  1.786093e+02 -7.785046e+00 -3.571240e+00
     vertex  1.801198e+02 -4.088362e+00 -3.571240e+00
     vertex  1.804961e+02 -4.290864e+00 -3.571240e+00
   endloop
 endfacet
 facet normal  4.392511e-17  1.027679e-16 -1.000000e+00
   outer loop
     vertex  1.791404e+02 -8.032667e+00 -3.571240e+00
     vertex  1.804961e+02 -4.290864e+00 -3.571240e+00
     vertex  1.808891e+02 -4.458819e+00 -3.571240e+00
   endloop
 endfacet
 facet normal  4.734061e-17  1.015304e-16 -1.000000e+00
   outer loop
     vertex  1.791404e+02 -8.032667e+00 -3.571240e+00
     vertex  1.786093e+02 -7.785046e+00 -3.571240e+00
     vertex  1.804961e+02 -4.290864e+00 -3.571240e+00
   endloop
 endfacet
 facet normal  4.042536e-17  1.044804e-16 -1.000000e+00
   outer loop
     vertex  1.796868e+02 -8.244111e+00 -3.571240e+00
     vertex  1.791404e+02 -8.032667e+00 -3.571240e+00
     vertex  1.808891e+02 -4.458819e+00 -3.571240e+00
   endloop
 endfacet
 facet normal  3.455367e-17  1.063452e-16 -1.000000e+00
   outer loop
     vertex  1.796868e+02 -8.244111e+00 -3.571240e+00
     vertex  1.808891e+02 -4.458819e+00 -3.571240e+00
     vertex  1.812955e+02 -4.590873e+00 -3.571240e+00
   endloop
 endfacet
 facet normal  3.330708e-17  1.068942e-16 -1.000000e+00
   outer loop
     vertex  1.802463e+02 -8.418424e+00 -3.571240e+00
     vertex  1.796868e+02 -8.244111e+00 -3.571240e+00
     vertex  1.812955e+02 -4.590873e+00 -3.571240e+00
   endloop
 endfacet
 facet normal  2.488376e-17  1.090229e-16 -1.000000e+00
   outer loop
     vertex  1.808161e+02 -8.554822e+00 -3.571240e+00
     vertex  1.812955e+02 -4.590873e+00 -3.571240e+00
     vertex  1.817121e+02 -4.685965e+00 -3.571240e+00
   endloop
 endfacet
 facet normal  2.606072e-17  1.088806e-16 -1.000000e+00
   outer loop
     vertex  1.808161e+02 -8.554822e+00 -3.571240e+00
     vertex  1.802463e+02 -8.418424e+00 -3.571240e+00
     vertex  1.812955e+02 -4.590873e+00 -3.571240e+00
   endloop
 endfacet
 facet normal  1.500211e-17  1.107500e-16 -1.000000e+00
   outer loop
     vertex  1.813939e+02 -8.652690e+00 -3.571240e+00
     vertex  1.817121e+02 -4.685965e+00 -3.571240e+00
     vertex  1.821356e+02 -4.743328e+00 -3.571240e+00
   endloop
 endfacet
 facet normal  1.871080e-17  1.104525e-16 -1.000000e+00
   outer loop
     vertex  1.813939e+02 -8.652690e+00 -3.571240e+00
     vertex  1.808161e+02 -8.554822e+00 -3.571240e+00
     vertex  1.817121e+02 -4.685965e+00 -3.571240e+00
   endloop
 endfacet
 facet normal  2.081782e-15  2.864272e-17 -1.000000e+00
   outer loop
     vertex  1.819769e+02 -8.711588e+00 -3.571240e+00
     vertex  1.821356e+02 -4.743328e+00 -3.571240e+00
     vertex  1.825625e+02 -4.762500e+00 -3.571240e+00
   endloop
 endfacet
 facet normal  1.126042e-17  1.114599e-16 -1.000000e+00
   outer loop
     vertex  1.819769e+02 -8.711588e+00 -3.571240e+00
     vertex  1.813939e+02 -8.652690e+00 -3.571240e+00
     vertex  1.821356e+02 -4.743328e+00 -3.571240e+00
   endloop
 endfacet
 facet normal  1.127053e-17  3.356895e-16 -1.000000e+00
   outer loop
     vertex  1.825625e+02 -8.731250e+00 -3.571240e+00
     vertex  1.819769e+02 -8.711588e+00 -3.571240e+00
     vertex  1.825625e+02 -4.762500e+00 -3.571240e+00
   endloop
 endfacet
 facet normal -2.081782e-15  2.864272e-17 -1.000000e+00
   outer loop
     vertex  1.831481e+02 -8.711588e+00 -3.571240e+00
     vertex  1.825625e+02 -4.762500e+00 -3.571240e+00
     vertex  1.829894e+02 -4.743328e+00 -3.571240e+00
   endloop
 endfacet
 facet normal -1.127053e-17  3.356895e-16 -1.000000e+00
   outer loop
     vertex  1.831481e+02 -8.711588e+00 -3.571240e+00
     vertex  1.825625e+02 -8.731250e+00 -3.571240e+00
     vertex  1.825625e+02 -4.762500e+00 -3.571240e+00
   endloop
 endfacet
 facet normal -1.500211e-17  1.107500e-16 -1.000000e+00
   outer loop
     vertex  1.837311e+02 -8.652690e+00 -3.571240e+00
     vertex  1.829894e+02 -4.743328e+00 -3.571240e+00
     vertex  1.834129e+02 -4.685965e+00 -3.571240e+00
   endloop
 endfacet
 facet normal -1.126042e-17  1.114599e-16 -1.000000e+00
   outer loop
     vertex  1.837311e+02 -8.652690e+00 -3.571240e+00
     vertex  1.831481e+02 -8.711588e+00 -3.571240e+00
     vertex  1.829894e+02 -4.743328e+00 -3.571240e+00
   endloop
 endfacet
 facet normal -2.488376e-17  1.090229e-16 -1.000000e+00
   outer loop
     vertex  1.843089e+02 -8.554822e+00 -3.571240e+00
     vertex  1.834129e+02 -4.685965e+00 -3.571240e+00
     vertex  1.838295e+02 -4.590873e+00 -3.571240e+00
   endloop
 endfacet
 facet normal -1.871080e-17  1.104525e-16 -1.000000e+00
   outer loop
     vertex  1.843089e+02 -8.554822e+00 -3.571240e+00
     vertex  1.837311e+02 -8.652690e+00 -3.571240e+00
     vertex  1.834129e+02 -4.685965e+00 -3.571240e+00
   endloop
 endfacet
 facet normal -2.606072e-17  1.088806e-16 -1.000000e+00
   outer loop
     vertex  1.848787e+02 -8.418424e+00 -3.571240e+00
     vertex  1.843089e+02 -8.554822e+00 -3.571240e+00
     vertex  1.838295e+02 -4.590873e+00 -3.571240e+00
   endloop
 endfacet
 facet normal -3.455367e-17  1.063452e-16 -1.000000e+00
   outer loop
     vertex  1.854382e+02 -8.244111e+00 -3.571240e+00
     vertex  1.838295e+02 -4.590873e+00 -3.571240e+00
     vertex  1.842359e+02 -4.458819e+00 -3.571240e+00
   endloop
 endfacet
 facet normal -3.330708e-17  1.068942e-16 -1.000000e+00
   outer loop
     vertex  1.854382e+02 -8.244111e+00 -3.571240e+00
     vertex  1.848787e+02 -8.418424e+00 -3.571240e+00
     vertex  1.838295e+02 -4.590873e+00 -3.571240e+00
   endloop
 endfacet
 facet normal -4.392511e-17  1.027679e-16 -1.000000e+00
   outer loop
     vertex  1.859846e+02 -8.032667e+00 -3.571240e+00
     vertex  1.842359e+02 -4.458819e+00 -3.571240e+00
     vertex  1.846289e+02 -4.290864e+00 -3.571240e+00
   endloop
 endfacet
 facet normal -4.042536e-17  1.044804e-16 -1.000000e+00
   outer loop
     vertex  1.859846e+02 -8.032667e+00 -3.571240e+00
     vertex  1.854382e+02 -8.244111e+00 -3.571240e+00
     vertex  1.842359e+02 -4.458819e+00 -3.571240e+00
   endloop
 endfacet
 facet normal  0.000000e+00  0.000000e+00 -1.000000e+00
   outer loop
     vertex  1.905000e+02 -3.637419e+00 -3.571240e+00
     vertex  1.867563e+02 -2.256800e+00 -3.571240e+00
     vertex  1.869418e+02 -1.871782e+00 -3.571240e+00
   endloop
 endfacet
 facet normal  0.000000e+00  0.000000e+00 -1.000000e+00
   outer loop
     vertex  1.905000e+02 -3.637419e+00 -3.571240e+00
     vertex  1.869418e+02 -1.871782e+00 -3.571240e+00
     vertex  1.870919e+02 -1.471693e+00 -3.571240e+00
   endloop
 endfacet
 facet normal  0.000000e+00  0.000000e+00 -1.000000e+00
   outer loop
     vertex  1.905000e+02 -3.637419e+00 -3.571240e+00
     vertex  1.870919e+02 -1.471693e+00 -3.571240e+00
     vertex  1.872056e+02 -1.059756e+00 -3.571240e+00
   endloop
 endfacet
 facet normal  0.000000e+00  0.000000e+00 -1.000000e+00
   outer loop
     vertex  1.905000e+02 -3.637419e+00 -3.571240e+00
     vertex  1.872056e+02 -1.059756e+00 -3.571240e+00
     vertex  1.872819e+02 -6.392859e-01 -3.571240e+00
   endloop
 endfacet
 facet normal  0.000000e+00  0.000000e+00 -1.000000e+00
   outer loop
     vertex  1.905000e+02 -3.637419e+00 -3.571240e+00
     vertex  1.872819e+02 -6.392859e-01 -3.571240e+00
     vertex  1.873202e+02 -2.136688e-01 -3.571240e+00
   endloop
 endfacet
 facet normal  0.000000e+00  0.000000e+00 -1.000000e+00
   outer loop
     vertex  1.905000e+02 -3.637419e+00 -3.571240e+00
     vertex  1.873202e+02 -2.136688e-01 -3.571240e+00
     vertex  1.873202e+02  2.136688e-01 -3.571240e+00
   endloop
 endfacet
 facet normal  2.534448e-16  1.690633e-16 -1.000000e+00
   outer loop
     vertex  1.905000e+02 -3.637419e+00 -3.571240e+00
     vertex  1.870919e+02  1.471693e+00 -3.571240e+00
     vertex  1.905000e+02  1.474992e+01 -3.571240e+00
   endloop
 endfacet
 facet normal  0.000000e+00  0.000000e+00 -1.000000e+00
   outer loop
     vertex  1.905000e+02 -3.637419e+00 -3.571240e+00
     vertex  1.873202e+02  2.136688e-01 -3.571240e+00
     vertex  1.872819e+02  6.392859e-01 -3.571240e+00
   endloop
 endfacet
 facet normal  0.000000e+00  0.000000e+00 -1.000000e+00
   outer loop
     vertex  1.905000e+02 -3.637419e+00 -3.571240e+00
     vertex  1.872819e+02  6.392859e-01 -3.571240e+00
     vertex  1.872056e+02  1.059756e+00 -3.571240e+00
   endloop
 endfacet
 facet normal  0.000000e+00  0.000000e+00 -1.000000e+00
   outer loop
     vertex  1.905000e+02 -3.637419e+00 -3.571240e+00
     vertex  1.872056e+02  1.059756e+00 -3.571240e+00
     vertex  1.870919e+02  1.471693e+00 -3.571240e+00
   endloop
 endfacet
 facet normal -5.299327e-17  9.847800e-17 -1.000000e+00
   outer loop
     vertex  1.865157e+02 -7.785046e+00 -3.571240e+00
     vertex  1.846289e+02 -4.290864e+00 -3.571240e+00
     vertex  1.850052e+02 -4.088362e+00 -3.571240e+00
   endloop
 endfacet
 facet normal -4.734061e-17  1.015304e-16 -1.000000e+00
   outer loop
     vertex  1.865157e+02 -7.785046e+00 -3.571240e+00
     vertex  1.859846e+02 -8.032667e+00 -3.571240e+00
     vertex  1.846289e+02 -4.290864e+00 -3.571240e+00
   endloop
 endfacet
 facet normal  0.000000e+00  0.000000e+00 -1.000000e+00
   outer loop
     vertex  1.902382e+02 -4.161620e+00 -3.571240e+00
     vertex  1.867563e+02 -2.256800e+00 -3.571240e+00
     vertex  1.905000e+02 -3.637419e+00 -3.571240e+00
   endloop
 endfacet
 facet normal -5.400897e-17  9.806297e-17 -1.000000e+00
   outer loop
     vertex  1.870290e+02 -7.502362e+00 -3.571240e+00
     vertex  1.865157e+02 -7.785046e+00 -3.571240e+00
     vertex  1.850052e+02 -4.088362e+00 -3.571240e+00
   endloop
 endfacet
 facet normal  0.000000e+00  0.000000e+00 -1.000000e+00
   outer loop
     vertex  1.899417e+02 -4.667077e+00 -3.571240e+00
     vertex  1.867563e+02 -2.256800e+00 -3.571240e+00
     vertex  1.902382e+02 -4.161620e+00 -3.571240e+00
   endloop
 endfacet
 facet normal  0.000000e+00  0.000000e+00 -1.000000e+00
   outer loop
     vertex  1.899417e+02 -4.667077e+00 -3.571240e+00
     vertex  1.865372e+02 -2.623647e+00 -3.571240e+00
     vertex  1.867563e+02 -2.256800e+00 -3.571240e+00
   endloop
 endfacet
 facet normal -6.047237e-17  9.423153e-17 -1.000000e+00
   outer loop
     vertex  1.875221e+02 -7.185888e+00 -3.571240e+00
     vertex  1.870290e+02 -7.502362e+00 -3.571240e+00
     vertex  1.850052e+02 -4.088362e+00 -3.571240e+00
   endloop
 endfacet
 facet normal -6.159796e-17  9.331692e-17 -1.000000e+00
   outer loop
     vertex  1.875221e+02 -7.185888e+00 -3.571240e+00
     vertex  1.850052e+02 -4.088362e+00 -3.571240e+00
     vertex  1.853618e+02 -3.852943e+00 -3.571240e+00
   endloop
 endfacet
 facet normal  0.000000e+00  0.000000e+00 -1.000000e+00
   outer loop
     vertex  1.896121e+02 -5.151514e+00 -3.571240e+00
     vertex  1.865372e+02 -2.623647e+00 -3.571240e+00
     vertex  1.899417e+02 -4.667077e+00 -3.571240e+00
   endloop
 endfacet
 facet normal  0.000000e+00  0.000000e+00 -1.000000e+00
   outer loop
     vertex  1.896121e+02 -5.151514e+00 -3.571240e+00
     vertex  1.862860e+02 -2.969370e+00 -3.571240e+00
     vertex  1.865372e+02 -2.623647e+00 -3.571240e+00
   endloop
 endfacet
 facet normal  5.705294e-16  5.030369e-16 -1.000000e+00
   outer loop
     vertex  1.879929e+02 -6.837051e+00 -3.571240e+00
     vertex  1.875221e+02 -7.185888e+00 -3.571240e+00
     vertex  1.853618e+02 -3.852943e+00 -3.571240e+00
   endloop
 endfacet
 facet normal  0.000000e+00  0.000000e+00 -1.000000e+00
   outer loop
     vertex  1.879929e+02 -6.837051e+00 -3.571240e+00
     vertex  1.853618e+02 -3.852943e+00 -3.571240e+00
     vertex  1.856959e+02 -3.586503e+00 -3.571240e+00
   endloop
 endfacet
 facet normal  0.000000e+00  0.000000e+00 -1.000000e+00
   outer loop
     vertex  1.892507e+02 -5.612749e+00 -3.571240e+00
     vertex  1.862860e+02 -2.969370e+00 -3.571240e+00
     vertex  1.896121e+02 -5.151514e+00 -3.571240e+00
   endloop
 endfacet
 facet normal  0.000000e+00  0.000000e+00 -1.000000e+00
   outer loop
     vertex  1.892507e+02 -5.612749e+00 -3.571240e+00
     vertex  1.860048e+02 -3.291186e+00 -3.571240e+00
     vertex  1.862860e+02 -2.969370e+00 -3.571240e+00
   endloop
 endfacet
 facet normal -0.000000e+00  0.000000e+00 -1.000000e+00
   outer loop
     vertex  1.884393e+02 -6.457420e+00 -3.571240e+00
     vertex  1.879929e+02 -6.837051e+00 -3.571240e+00
     vertex  1.856959e+02 -3.586503e+00 -3.571240e+00
   endloop
 endfacet
 facet normal  0.000000e+00  0.000000e+00 -1.000000e+00
   outer loop
     vertex  1.884393e+02 -6.457420e+00 -3.571240e+00
     vertex  1.856959e+02 -3.586503e+00 -3.571240e+00
     vertex  1.860048e+02 -3.291186e+00 -3.571240e+00
   endloop
 endfacet
 facet normal  0.000000e+00  0.000000e+00 -1.000000e+00
   outer loop
     vertex  1.888592e+02 -6.048706e+00 -3.571240e+00
     vertex  1.860048e+02 -3.291186e+00 -3.571240e+00
     vertex  1.892507e+02 -5.612749e+00 -3.571240e+00
   endloop
 endfacet
 facet normal -0.000000e+00  0.000000e+00 -1.000000e+00
   outer loop
     vertex  1.888592e+02 -6.048706e+00 -3.571240e+00
     vertex  1.884393e+02 -6.457420e+00 -3.571240e+00
     vertex  1.860048e+02 -3.291186e+00 -3.571240e+00
   endloop
 endfacet
endsolid
