solid 
 facet normal  0.000000e+00 -1.000000e+00  0.000000e+00
   outer loop
     vertex -3.637419e+00 -1.905000e+02 -2.276958e+02
     vertex -3.637419e+00 -1.905000e+02 -2.312670e+02
     vertex  1.474992e+01 -1.905000e+02 -2.312670e+02
   endloop
 endfacet
 facet normal  0.000000e+00 -1.000000e+00  0.000000e+00
   outer loop
     vertex -3.637419e+00 -1.905000e+02 -2.276958e+02
     vertex  1.474992e+01 -1.905000e+02 -2.312670e+02
     vertex  1.474992e+01 -1.905000e+02 -2.276958e+02
   endloop
 endfacet
endsolid
