solid 
 facet normal -1.972906e-16 -1.886292e-16 -1.000000e+00
   outer loop
     vertex -3.586503e+00  1.794291e+02 -3.571240e+00
     vertex -3.291186e+00  1.791202e+02 -3.571240e+00
     vertex -1.474992e+01  1.746250e+02 -3.571240e+00
   endloop
 endfacet
 facet normal -1.872226e-16 -2.142936e-16 -1.000000e+00
   outer loop
     vertex -2.969370e+00  1.788390e+02 -3.571240e+00
     vertex -1.474992e+01  1.746250e+02 -3.571240e+00
     vertex -3.291186e+00  1.791202e+02 -3.571240e+00
   endloop
 endfacet
 facet normal -2.073172e-16 -1.653300e-16 -1.000000e+00
   outer loop
     vertex -3.852943e+00  1.797632e+02 -3.571240e+00
     vertex -3.586503e+00  1.794291e+02 -3.571240e+00
     vertex -1.474992e+01  1.746250e+02 -3.571240e+00
   endloop
 endfacet
 facet normal -1.768207e-16 -2.433728e-16 -1.000000e+00
   outer loop
     vertex -2.623647e+00  1.785878e+02 -3.571240e+00
     vertex -1.474992e+01  1.746250e+02 -3.571240e+00
     vertex -2.969370e+00  1.788390e+02 -3.571240e+00
   endloop
 endfacet
 facet normal -2.175589e-16 -1.436094e-16 -1.000000e+00
   outer loop
     vertex -4.088362e+00  1.801198e+02 -3.571240e+00
     vertex -3.852943e+00  1.797632e+02 -3.571240e+00
     vertex -1.474992e+01  1.746250e+02 -3.571240e+00
   endloop
 endfacet
 facet normal -1.657141e-16 -2.773587e-16 -1.000000e+00
   outer loop
     vertex -2.256800e+00  1.783687e+02 -3.571240e+00
     vertex -1.474992e+01  1.746250e+02 -3.571240e+00
     vertex -2.623647e+00  1.785878e+02 -3.571240e+00
   endloop
 endfacet
 facet normal -2.282658e-16 -1.228350e-16 -1.000000e+00
   outer loop
     vertex -4.290864e+00  1.804961e+02 -3.571240e+00
     vertex -4.088362e+00  1.801198e+02 -3.571240e+00
     vertex -1.474992e+01  1.746250e+02 -3.571240e+00
   endloop
 endfacet
 facet normal -1.533842e-16 -3.185055e-16 -1.000000e+00
   outer loop
     vertex -1.871782e+00  1.781832e+02 -3.571240e+00
     vertex -1.474992e+01  1.746250e+02 -3.571240e+00
     vertex -2.256800e+00  1.783687e+02 -3.571240e+00
   endloop
 endfacet
 facet normal -2.397059e-16 -1.024552e-16 -1.000000e+00
   outer loop
     vertex -4.458819e+00  1.808891e+02 -3.571240e+00
     vertex -4.290864e+00  1.804961e+02 -3.571240e+00
     vertex -1.474992e+01  1.746250e+02 -3.571240e+00
   endloop
 endfacet
 facet normal -1.390320e-16 -3.704494e-16 -1.000000e+00
   outer loop
     vertex -1.471693e+00  1.780331e+02 -3.571240e+00
     vertex -1.474992e+01  1.746250e+02 -3.571240e+00
     vertex -1.871782e+00  1.781832e+02 -3.571240e+00
   endloop
 endfacet
 facet normal -2.521919e-16 -8.194213e-17 -1.000000e+00
   outer loop
     vertex -4.590873e+00  1.812955e+02 -3.571240e+00
     vertex -4.458819e+00  1.808891e+02 -3.571240e+00
     vertex -1.474992e+01  1.746250e+02 -3.571240e+00
   endloop
 endfacet
 facet normal -2.661142e-16 -6.073882e-17 -1.000000e+00
   outer loop
     vertex -4.685965e+00  1.817121e+02 -3.571240e+00
     vertex -4.590873e+00  1.812955e+02 -3.571240e+00
     vertex -1.474992e+01  1.746250e+02 -3.571240e+00
   endloop
 endfacet
 facet normal  1.910482e-15 -2.959292e-15 -1.000000e+00
   outer loop
     vertex -4.743328e+00  1.821356e+02 -3.571240e+00
     vertex -1.474992e+01  1.746250e+02 -3.571240e+00
     vertex -1.527412e+01  1.748868e+02 -3.571240e+00
   endloop
 endfacet
 facet normal -5.819919e-17 -9.924255e-17 -1.000000e+00
   outer loop
     vertex -4.743328e+00  1.821356e+02 -3.571240e+00
     vertex -1.527412e+01  1.748868e+02 -3.571240e+00
     vertex -1.577958e+01  1.751833e+02 -3.571240e+00
   endloop
 endfacet
 facet normal -6.268616e-17 -9.211987e-17 -1.000000e+00
   outer loop
     vertex -4.743328e+00  1.821356e+02 -3.571240e+00
     vertex -1.577958e+01  1.751833e+02 -3.571240e+00
     vertex -1.626401e+01  1.755129e+02 -3.571240e+00
   endloop
 endfacet
 facet normal -6.670410e-17 -8.513033e-17 -1.000000e+00
   outer loop
     vertex -4.743328e+00  1.821356e+02 -3.571240e+00
     vertex -1.626401e+01  1.755129e+02 -3.571240e+00
     vertex -1.672525e+01  1.758743e+02 -3.571240e+00
   endloop
 endfacet
 facet normal -7.029046e-17 -7.826727e-17 -1.000000e+00
   outer loop
     vertex -4.743328e+00  1.821356e+02 -3.571240e+00
     vertex -1.672525e+01  1.758743e+02 -3.571240e+00
     vertex -1.716121e+01  1.762658e+02 -3.571240e+00
   endloop
 endfacet
 facet normal -7.347817e-17 -7.152345e-17 -1.000000e+00
   outer loop
     vertex -4.743328e+00  1.821356e+02 -3.571240e+00
     vertex -1.716121e+01  1.762658e+02 -3.571240e+00
     vertex -1.756992e+01  1.766857e+02 -3.571240e+00
   endloop
 endfacet
 facet normal -7.629611e-17 -6.489125e-17 -1.000000e+00
   outer loop
     vertex -4.743328e+00  1.821356e+02 -3.571240e+00
     vertex -1.756992e+01  1.766857e+02 -3.571240e+00
     vertex -1.794955e+01  1.771321e+02 -3.571240e+00
   endloop
 endfacet
 facet normal -7.876957e-17 -5.836282e-17 -1.000000e+00
   outer loop
     vertex -4.743328e+00  1.821356e+02 -3.571240e+00
     vertex -1.794955e+01  1.771321e+02 -3.571240e+00
     vertex -1.829839e+01  1.776029e+02 -3.571240e+00
   endloop
 endfacet
 facet normal -8.092059e-17 -5.193018e-17 -1.000000e+00
   outer loop
     vertex -4.743328e+00  1.821356e+02 -3.571240e+00
     vertex -1.829839e+01  1.776029e+02 -3.571240e+00
     vertex -1.861486e+01  1.780960e+02 -3.571240e+00
   endloop
 endfacet
 facet normal -8.276830e-17 -4.558530e-17 -1.000000e+00
   outer loop
     vertex -4.743328e+00  1.821356e+02 -3.571240e+00
     vertex -1.861486e+01  1.780960e+02 -3.571240e+00
     vertex -1.889755e+01  1.786093e+02 -3.571240e+00
   endloop
 endfacet
 facet normal -2.819877e-16 -3.819783e-17 -1.000000e+00
   outer loop
     vertex -4.743328e+00  1.821356e+02 -3.571240e+00
     vertex -4.685965e+00  1.817121e+02 -3.571240e+00
     vertex -1.474992e+01  1.746250e+02 -3.571240e+00
   endloop
 endfacet
 facet normal -2.902690e-16  7.008749e-16 -1.000000e+00
   outer loop
     vertex -4.762500e+00  1.825625e+02 -3.571240e+00
     vertex -1.889755e+01  1.786093e+02 -3.571240e+00
     vertex -1.914517e+01  1.791404e+02 -3.571240e+00
   endloop
 endfacet
 facet normal -1.130951e-16 -4.375855e-17 -1.000000e+00
   outer loop
     vertex -4.762500e+00  1.825625e+02 -3.571240e+00
     vertex -1.914517e+01  1.791404e+02 -3.571240e+00
     vertex -1.935661e+01  1.796868e+02 -3.571240e+00
   endloop
 endfacet
 facet normal -1.146767e-16 -3.573203e-17 -1.000000e+00
   outer loop
     vertex -4.762500e+00  1.825625e+02 -3.571240e+00
     vertex -1.935661e+01  1.796868e+02 -3.571240e+00
     vertex -1.953092e+01  1.802463e+02 -3.571240e+00
   endloop
 endfacet
 facet normal -1.159289e-16 -2.774775e-17 -1.000000e+00
   outer loop
     vertex -4.762500e+00  1.825625e+02 -3.571240e+00
     vertex -1.953092e+01  1.802463e+02 -3.571240e+00
     vertex -1.966732e+01  1.808161e+02 -3.571240e+00
   endloop
 endfacet
 facet normal -1.168605e-16 -1.979634e-17 -1.000000e+00
   outer loop
     vertex -4.762500e+00  1.825625e+02 -3.571240e+00
     vertex -1.966732e+01  1.808161e+02 -3.571240e+00
     vertex -1.976519e+01  1.813939e+02 -3.571240e+00
   endloop
 endfacet
 facet normal -1.174781e-16 -1.186841e-17 -1.000000e+00
   outer loop
     vertex -4.762500e+00  1.825625e+02 -3.571240e+00
     vertex -1.976519e+01  1.813939e+02 -3.571240e+00
     vertex -1.982409e+01  1.819769e+02 -3.571240e+00
   endloop
 endfacet
 facet normal -1.177858e-16 -3.954572e-18 -1.000000e+00
   outer loop
     vertex -4.762500e+00  1.825625e+02 -3.571240e+00
     vertex -1.982409e+01  1.819769e+02 -3.571240e+00
     vertex -1.984375e+01  1.825625e+02 -3.571240e+00
   endloop
 endfacet
 facet normal -1.177858e-16  3.954572e-18 -1.000000e+00
   outer loop
     vertex -4.762500e+00  1.825625e+02 -3.571240e+00
     vertex -1.984375e+01  1.825625e+02 -3.571240e+00
     vertex -1.982409e+01  1.831481e+02 -3.571240e+00
   endloop
 endfacet
 facet normal -1.174781e-16  1.186841e-17 -1.000000e+00
   outer loop
     vertex -4.762500e+00  1.825625e+02 -3.571240e+00
     vertex -1.982409e+01  1.831481e+02 -3.571240e+00
     vertex -1.976519e+01  1.837311e+02 -3.571240e+00
   endloop
 endfacet
 facet normal -1.168605e-16  1.979634e-17 -1.000000e+00
   outer loop
     vertex -4.762500e+00  1.825625e+02 -3.571240e+00
     vertex -1.976519e+01  1.837311e+02 -3.571240e+00
     vertex -1.966732e+01  1.843089e+02 -3.571240e+00
   endloop
 endfacet
 facet normal -1.159289e-16  2.774775e-17 -1.000000e+00
   outer loop
     vertex -4.762500e+00  1.825625e+02 -3.571240e+00
     vertex -1.966732e+01  1.843089e+02 -3.571240e+00
     vertex -1.953092e+01  1.848787e+02 -3.571240e+00
   endloop
 endfacet
 facet normal -1.146767e-16  3.573203e-17 -1.000000e+00
   outer loop
     vertex -4.762500e+00  1.825625e+02 -3.571240e+00
     vertex -1.953092e+01  1.848787e+02 -3.571240e+00
     vertex -1.935661e+01  1.854382e+02 -3.571240e+00
   endloop
 endfacet
 facet normal -1.130951e-16  4.375855e-17 -1.000000e+00
   outer loop
     vertex -4.762500e+00  1.825625e+02 -3.571240e+00
     vertex -1.935661e+01  1.854382e+02 -3.571240e+00
     vertex -1.914517e+01  1.859846e+02 -3.571240e+00
   endloop
 endfacet
 facet normal -2.902690e-16 -7.008749e-16 -1.000000e+00
   outer loop
     vertex -4.762500e+00  1.825625e+02 -3.571240e+00
     vertex -1.914517e+01  1.859846e+02 -3.571240e+00
     vertex -1.889755e+01  1.865157e+02 -3.571240e+00
   endloop
 endfacet
 facet normal -9.308365e-17 -4.180392e-18 -1.000000e+00
   outer loop
     vertex -4.762500e+00  1.825625e+02 -3.571240e+00
     vertex -4.743328e+00  1.821356e+02 -3.571240e+00
     vertex -1.889755e+01  1.786093e+02 -3.571240e+00
   endloop
 endfacet
 facet normal -8.276830e-17  4.558530e-17 -1.000000e+00
   outer loop
     vertex -4.743328e+00  1.829894e+02 -3.571240e+00
     vertex -1.889755e+01  1.865157e+02 -3.571240e+00
     vertex -1.861486e+01  1.870290e+02 -3.571240e+00
   endloop
 endfacet
 facet normal -8.092059e-17  5.193018e-17 -1.000000e+00
   outer loop
     vertex -4.743328e+00  1.829894e+02 -3.571240e+00
     vertex -1.861486e+01  1.870290e+02 -3.571240e+00
     vertex -1.829839e+01  1.875221e+02 -3.571240e+00
   endloop
 endfacet
 facet normal -7.876957e-17  5.836282e-17 -1.000000e+00
   outer loop
     vertex -4.743328e+00  1.829894e+02 -3.571240e+00
     vertex -1.829839e+01  1.875221e+02 -3.571240e+00
     vertex -1.794955e+01  1.879929e+02 -3.571240e+00
   endloop
 endfacet
 facet normal -7.629611e-17  6.489125e-17 -1.000000e+00
   outer loop
     vertex -4.743328e+00  1.829894e+02 -3.571240e+00
     vertex -1.794955e+01  1.879929e+02 -3.571240e+00
     vertex -1.756992e+01  1.884393e+02 -3.571240e+00
   endloop
 endfacet
 facet normal -7.347817e-17  7.152345e-17 -1.000000e+00
   outer loop
     vertex -4.743328e+00  1.829894e+02 -3.571240e+00
     vertex -1.756992e+01  1.884393e+02 -3.571240e+00
     vertex -1.716121e+01  1.888592e+02 -3.571240e+00
   endloop
 endfacet
 facet normal -7.029046e-17  7.826727e-17 -1.000000e+00
   outer loop
     vertex -4.743328e+00  1.829894e+02 -3.571240e+00
     vertex -1.716121e+01  1.888592e+02 -3.571240e+00
     vertex -1.672525e+01  1.892507e+02 -3.571240e+00
   endloop
 endfacet
 facet normal -6.670410e-17  8.513033e-17 -1.000000e+00
   outer loop
     vertex -4.743328e+00  1.829894e+02 -3.571240e+00
     vertex -1.672525e+01  1.892507e+02 -3.571240e+00
     vertex -1.626401e+01  1.896121e+02 -3.571240e+00
   endloop
 endfacet
 facet normal -6.268616e-17  9.211987e-17 -1.000000e+00
   outer loop
     vertex -4.743328e+00  1.829894e+02 -3.571240e+00
     vertex -1.626401e+01  1.896121e+02 -3.571240e+00
     vertex -1.577958e+01  1.899417e+02 -3.571240e+00
   endloop
 endfacet
 facet normal -5.819919e-17  9.924255e-17 -1.000000e+00
   outer loop
     vertex -4.743328e+00  1.829894e+02 -3.571240e+00
     vertex -1.577958e+01  1.899417e+02 -3.571240e+00
     vertex -1.527412e+01  1.902382e+02 -3.571240e+00
   endloop
 endfacet
 facet normal  9.286405e-16  1.532898e-15 -1.000000e+00
   outer loop
     vertex -4.743328e+00  1.829894e+02 -3.571240e+00
     vertex -1.527412e+01  1.902382e+02 -3.571240e+00
     vertex -1.474992e+01  1.905000e+02 -3.571240e+00
   endloop
 endfacet
 facet normal -9.308365e-17  4.180392e-18 -1.000000e+00
   outer loop
     vertex -4.743328e+00  1.829894e+02 -3.571240e+00
     vertex -4.762500e+00  1.825625e+02 -3.571240e+00
     vertex -1.889755e+01  1.865157e+02 -3.571240e+00
   endloop
 endfacet
 facet normal -1.690633e-16 -2.534448e-16 -1.000000e+00
   outer loop
     vertex  3.637419e+00  1.746250e+02 -3.571240e+00
     vertex -1.474992e+01  1.746250e+02 -3.571240e+00
     vertex -1.471693e+00  1.780331e+02 -3.571240e+00
   endloop
 endfacet
 facet normal  0.000000e+00  0.000000e+00 -1.000000e+00
   outer loop
     vertex  3.637419e+00  1.746250e+02 -3.571240e+00
     vertex -1.471693e+00  1.780331e+02 -3.571240e+00
     vertex -1.059756e+00  1.779194e+02 -3.571240e+00
   endloop
 endfacet
 facet normal  0.000000e+00  0.000000e+00 -1.000000e+00
   outer loop
     vertex  3.637419e+00  1.746250e+02 -3.571240e+00
     vertex -1.059756e+00  1.779194e+02 -3.571240e+00
     vertex -6.392859e-01  1.778431e+02 -3.571240e+00
   endloop
 endfacet
 facet normal  0.000000e+00  0.000000e+00 -1.000000e+00
   outer loop
     vertex  3.637419e+00  1.746250e+02 -3.571240e+00
     vertex -6.392859e-01  1.778431e+02 -3.571240e+00
     vertex -2.136688e-01  1.778048e+02 -3.571240e+00
   endloop
 endfacet
 facet normal  0.000000e+00  0.000000e+00 -1.000000e+00
   outer loop
     vertex  3.637419e+00  1.746250e+02 -3.571240e+00
     vertex -2.136688e-01  1.778048e+02 -3.571240e+00
     vertex  2.136688e-01  1.778048e+02 -3.571240e+00
   endloop
 endfacet
 facet normal  0.000000e+00 -0.000000e+00 -1.000000e+00
   outer loop
     vertex  6.392859e-01  1.778431e+02 -3.571240e+00
     vertex  3.637419e+00  1.746250e+02 -3.571240e+00
     vertex  2.136688e-01  1.778048e+02 -3.571240e+00
   endloop
 endfacet
 facet normal -2.014198e-16  2.728417e-17 -1.000000e+00
   outer loop
     vertex -4.685965e+00  1.834129e+02 -3.571240e+00
     vertex -4.743328e+00  1.829894e+02 -3.571240e+00
     vertex -1.474992e+01  1.905000e+02 -3.571240e+00
   endloop
 endfacet
 facet normal  0.000000e+00 -0.000000e+00 -1.000000e+00
   outer loop
     vertex  1.059756e+00  1.779194e+02 -3.571240e+00
     vertex  3.637419e+00  1.746250e+02 -3.571240e+00
     vertex  6.392859e-01  1.778431e+02 -3.571240e+00
   endloop
 endfacet
 facet normal -1.900815e-16  4.338487e-17 -1.000000e+00
   outer loop
     vertex -4.590873e+00  1.838295e+02 -3.571240e+00
     vertex -4.685965e+00  1.834129e+02 -3.571240e+00
     vertex -1.474992e+01  1.905000e+02 -3.571240e+00
   endloop
 endfacet
 facet normal  0.000000e+00 -0.000000e+00 -1.000000e+00
   outer loop
     vertex  1.471693e+00  1.780331e+02 -3.571240e+00
     vertex  3.637419e+00  1.746250e+02 -3.571240e+00
     vertex  1.059756e+00  1.779194e+02 -3.571240e+00
   endloop
 endfacet
 facet normal -1.801371e-16  5.853009e-17 -1.000000e+00
   outer loop
     vertex -4.458819e+00  1.842359e+02 -3.571240e+00
     vertex -4.590873e+00  1.838295e+02 -3.571240e+00
     vertex -1.474992e+01  1.905000e+02 -3.571240e+00
   endloop
 endfacet
 facet normal  0.000000e+00 -0.000000e+00 -1.000000e+00
   outer loop
     vertex  1.871782e+00  1.781832e+02 -3.571240e+00
     vertex  3.637419e+00  1.746250e+02 -3.571240e+00
     vertex  1.471693e+00  1.780331e+02 -3.571240e+00
   endloop
 endfacet
 facet normal -1.712185e-16  7.318229e-17 -1.000000e+00
   outer loop
     vertex -4.290864e+00  1.846289e+02 -3.571240e+00
     vertex -4.458819e+00  1.842359e+02 -3.571240e+00
     vertex -1.474992e+01  1.905000e+02 -3.571240e+00
   endloop
 endfacet
 facet normal  0.000000e+00  0.000000e+00 -1.000000e+00
   outer loop
     vertex  2.256800e+00  1.783687e+02 -3.571240e+00
     vertex  4.667077e+00  1.751833e+02 -3.571240e+00
     vertex  4.161620e+00  1.748868e+02 -3.571240e+00
   endloop
 endfacet
 facet normal  0.000000e+00  0.000000e+00 -1.000000e+00
   outer loop
     vertex  2.256800e+00  1.783687e+02 -3.571240e+00
     vertex  4.161620e+00  1.748868e+02 -3.571240e+00
     vertex  3.637419e+00  1.746250e+02 -3.571240e+00
   endloop
 endfacet
 facet normal  0.000000e+00 -0.000000e+00 -1.000000e+00
   outer loop
     vertex  2.256800e+00  1.783687e+02 -3.571240e+00
     vertex  3.637419e+00  1.746250e+02 -3.571240e+00
     vertex  1.871782e+00  1.781832e+02 -3.571240e+00
   endloop
 endfacet
 facet normal -1.630470e-16  8.773931e-17 -1.000000e+00
   outer loop
     vertex -4.088362e+00  1.850052e+02 -3.571240e+00
     vertex -4.290864e+00  1.846289e+02 -3.571240e+00
     vertex -1.474992e+01  1.905000e+02 -3.571240e+00
   endloop
 endfacet
 facet normal  0.000000e+00  0.000000e+00 -1.000000e+00
   outer loop
     vertex  2.623647e+00  1.785878e+02 -3.571240e+00
     vertex  5.151514e+00  1.755129e+02 -3.571240e+00
     vertex  4.667077e+00  1.751833e+02 -3.571240e+00
   endloop
 endfacet
 facet normal  0.000000e+00 -0.000000e+00 -1.000000e+00
   outer loop
     vertex  2.623647e+00  1.785878e+02 -3.571240e+00
     vertex  4.667077e+00  1.751833e+02 -3.571240e+00
     vertex  2.256800e+00  1.783687e+02 -3.571240e+00
   endloop
 endfacet
 facet normal -1.553992e-16  1.025781e-16 -1.000000e+00
   outer loop
     vertex -3.852943e+00  1.853618e+02 -3.571240e+00
     vertex -4.088362e+00  1.850052e+02 -3.571240e+00
     vertex -1.474992e+01  1.905000e+02 -3.571240e+00
   endloop
 endfacet
 facet normal  0.000000e+00  0.000000e+00 -1.000000e+00
   outer loop
     vertex  2.969370e+00  1.788390e+02 -3.571240e+00
     vertex  5.612749e+00  1.758743e+02 -3.571240e+00
     vertex  5.151514e+00  1.755129e+02 -3.571240e+00
   endloop
 endfacet
 facet normal  0.000000e+00 -0.000000e+00 -1.000000e+00
   outer loop
     vertex  2.969370e+00  1.788390e+02 -3.571240e+00
     vertex  5.151514e+00  1.755129e+02 -3.571240e+00
     vertex  2.623647e+00  1.785878e+02 -3.571240e+00
   endloop
 endfacet
 facet normal -1.480837e-16  1.180928e-16 -1.000000e+00
   outer loop
     vertex -3.586503e+00  1.856959e+02 -3.571240e+00
     vertex -3.852943e+00  1.853618e+02 -3.571240e+00
     vertex -1.474992e+01  1.905000e+02 -3.571240e+00
   endloop
 endfacet
 facet normal  0.000000e+00  0.000000e+00 -1.000000e+00
   outer loop
     vertex  3.291186e+00  1.791202e+02 -3.571240e+00
     vertex  6.048706e+00  1.762658e+02 -3.571240e+00
     vertex  5.612749e+00  1.758743e+02 -3.571240e+00
   endloop
 endfacet
 facet normal  0.000000e+00 -0.000000e+00 -1.000000e+00
   outer loop
     vertex  3.291186e+00  1.791202e+02 -3.571240e+00
     vertex  5.612749e+00  1.758743e+02 -3.571240e+00
     vertex  2.969370e+00  1.788390e+02 -3.571240e+00
   endloop
 endfacet
 facet normal -1.409219e-16  1.347351e-16 -1.000000e+00
   outer loop
     vertex -3.291186e+00  1.860048e+02 -3.571240e+00
     vertex -3.586503e+00  1.856959e+02 -3.571240e+00
     vertex -1.474992e+01  1.905000e+02 -3.571240e+00
   endloop
 endfacet
 facet normal -0.000000e+00  0.000000e+00 -1.000000e+00
   outer loop
     vertex  6.457420e+00  1.766857e+02 -3.571240e+00
     vertex  6.048706e+00  1.762658e+02 -3.571240e+00
     vertex  3.291186e+00  1.791202e+02 -3.571240e+00
   endloop
 endfacet
 facet normal  0.000000e+00  0.000000e+00 -1.000000e+00
   outer loop
     vertex  6.457420e+00  1.766857e+02 -3.571240e+00
     vertex  3.291186e+00  1.791202e+02 -3.571240e+00
     vertex  3.586503e+00  1.794291e+02 -3.571240e+00
   endloop
 endfacet
 facet normal -1.337305e-16  1.530668e-16 -1.000000e+00
   outer loop
     vertex -2.969370e+00  1.862860e+02 -3.571240e+00
     vertex -3.291186e+00  1.860048e+02 -3.571240e+00
     vertex -1.474992e+01  1.905000e+02 -3.571240e+00
   endloop
 endfacet
 facet normal -1.263005e-16  1.738377e-16 -1.000000e+00
   outer loop
     vertex -2.623647e+00  1.865372e+02 -3.571240e+00
     vertex -2.969370e+00  1.862860e+02 -3.571240e+00
     vertex -1.474992e+01  1.905000e+02 -3.571240e+00
   endloop
 endfacet
 facet normal -0.000000e+00  0.000000e+00 -1.000000e+00
   outer loop
     vertex  6.837051e+00  1.771321e+02 -3.571240e+00
     vertex  6.457420e+00  1.766857e+02 -3.571240e+00
     vertex  3.586503e+00  1.794291e+02 -3.571240e+00
   endloop
 endfacet
 facet normal  0.000000e+00  0.000000e+00 -1.000000e+00
   outer loop
     vertex  6.837051e+00  1.771321e+02 -3.571240e+00
     vertex  3.586503e+00  1.794291e+02 -3.571240e+00
     vertex  3.852943e+00  1.797632e+02 -3.571240e+00
   endloop
 endfacet
 facet normal -1.183672e-16  1.981134e-16 -1.000000e+00
   outer loop
     vertex -2.256800e+00  1.867563e+02 -3.571240e+00
     vertex -2.623647e+00  1.865372e+02 -3.571240e+00
     vertex -1.474992e+01  1.905000e+02 -3.571240e+00
   endloop
 endfacet
 facet normal -0.000000e+00  0.000000e+00 -1.000000e+00
   outer loop
     vertex  7.185888e+00  1.776029e+02 -3.571240e+00
     vertex  6.837051e+00  1.771321e+02 -3.571240e+00
     vertex  3.852943e+00  1.797632e+02 -3.571240e+00
   endloop
 endfacet
 facet normal  0.000000e+00  0.000000e+00 -1.000000e+00
   outer loop
     vertex  7.185888e+00  1.776029e+02 -3.571240e+00
     vertex  3.852943e+00  1.797632e+02 -3.571240e+00
     vertex  4.088362e+00  1.801198e+02 -3.571240e+00
   endloop
 endfacet
 facet normal -1.095601e-16  2.275039e-16 -1.000000e+00
   outer loop
     vertex -1.871782e+00  1.869418e+02 -3.571240e+00
     vertex -2.256800e+00  1.867563e+02 -3.571240e+00
     vertex -1.474992e+01  1.905000e+02 -3.571240e+00
   endloop
 endfacet
 facet normal -0.000000e+00  0.000000e+00 -1.000000e+00
   outer loop
     vertex  7.502362e+00  1.780960e+02 -3.571240e+00
     vertex  7.185888e+00  1.776029e+02 -3.571240e+00
     vertex  4.088362e+00  1.801198e+02 -3.571240e+00
   endloop
 endfacet
 facet normal -9.930857e-17  2.646067e-16 -1.000000e+00
   outer loop
     vertex -1.471693e+00  1.870919e+02 -3.571240e+00
     vertex -1.871782e+00  1.869418e+02 -3.571240e+00
     vertex -1.474992e+01  1.905000e+02 -3.571240e+00
   endloop
 endfacet
 facet normal -0.000000e+00  0.000000e+00 -1.000000e+00
   outer loop
     vertex  7.785046e+00  1.786093e+02 -3.571240e+00
     vertex  7.502362e+00  1.780960e+02 -3.571240e+00
     vertex  4.088362e+00  1.801198e+02 -3.571240e+00
   endloop
 endfacet
 facet normal  0.000000e+00  0.000000e+00 -1.000000e+00
   outer loop
     vertex  7.785046e+00  1.786093e+02 -3.571240e+00
     vertex  4.088362e+00  1.801198e+02 -3.571240e+00
     vertex  4.290864e+00  1.804961e+02 -3.571240e+00
   endloop
 endfacet
 facet normal -1.027679e-16  4.392511e-17 -1.000000e+00
   outer loop
     vertex  8.032667e+00  1.791404e+02 -3.571240e+00
     vertex  4.290864e+00  1.804961e+02 -3.571240e+00
     vertex  4.458819e+00  1.808891e+02 -3.571240e+00
   endloop
 endfacet
 facet normal -3.607265e-16 -6.680227e-16 -1.000000e+00
   outer loop
     vertex  8.032667e+00  1.791404e+02 -3.571240e+00
     vertex  7.785046e+00  1.786093e+02 -3.571240e+00
     vertex  4.290864e+00  1.804961e+02 -3.571240e+00
   endloop
 endfacet
 facet normal -1.063452e-16  3.455367e-17 -1.000000e+00
   outer loop
     vertex  8.244111e+00  1.796868e+02 -3.571240e+00
     vertex  4.458819e+00  1.808891e+02 -3.571240e+00
     vertex  4.590873e+00  1.812955e+02 -3.571240e+00
   endloop
 endfacet
 facet normal -1.044804e-16  4.042536e-17 -1.000000e+00
   outer loop
     vertex  8.244111e+00  1.796868e+02 -3.571240e+00
     vertex  8.032667e+00  1.791404e+02 -3.571240e+00
     vertex  4.458819e+00  1.808891e+02 -3.571240e+00
   endloop
 endfacet
 facet normal -1.068942e-16  3.330708e-17 -1.000000e+00
   outer loop
     vertex  8.418424e+00  1.802463e+02 -3.571240e+00
     vertex  8.244111e+00  1.796868e+02 -3.571240e+00
     vertex  4.590873e+00  1.812955e+02 -3.571240e+00
   endloop
 endfacet
 facet normal -1.090229e-16  2.488376e-17 -1.000000e+00
   outer loop
     vertex  8.554822e+00  1.808161e+02 -3.571240e+00
     vertex  4.590873e+00  1.812955e+02 -3.571240e+00
     vertex  4.685965e+00  1.817121e+02 -3.571240e+00
   endloop
 endfacet
 facet normal -1.088806e-16  2.606072e-17 -1.000000e+00
   outer loop
     vertex  8.554822e+00  1.808161e+02 -3.571240e+00
     vertex  8.418424e+00  1.802463e+02 -3.571240e+00
     vertex  4.590873e+00  1.812955e+02 -3.571240e+00
   endloop
 endfacet
 facet normal -1.107500e-16  1.500211e-17 -1.000000e+00
   outer loop
     vertex  8.652690e+00  1.813939e+02 -3.571240e+00
     vertex  4.685965e+00  1.817121e+02 -3.571240e+00
     vertex  4.743328e+00  1.821356e+02 -3.571240e+00
   endloop
 endfacet
 facet normal -1.104525e-16  1.871080e-17 -1.000000e+00
   outer loop
     vertex  8.652690e+00  1.813939e+02 -3.571240e+00
     vertex  8.554822e+00  1.808161e+02 -3.571240e+00
     vertex  4.685965e+00  1.817121e+02 -3.571240e+00
   endloop
 endfacet
 facet normal -1.117096e-16  5.016886e-18 -1.000000e+00
   outer loop
     vertex  8.711588e+00  1.819769e+02 -3.571240e+00
     vertex  4.743328e+00  1.821356e+02 -3.571240e+00
     vertex  4.762500e+00  1.825625e+02 -3.571240e+00
   endloop
 endfacet
 facet normal -1.114599e-16  1.126042e-17 -1.000000e+00
   outer loop
     vertex  8.711588e+00  1.819769e+02 -3.571240e+00
     vertex  8.652690e+00  1.813939e+02 -3.571240e+00
     vertex  4.743328e+00  1.821356e+02 -3.571240e+00
   endloop
 endfacet
 facet normal -1.118965e-16  3.756843e-18 -1.000000e+00
   outer loop
     vertex  8.731250e+00  1.825625e+02 -3.571240e+00
     vertex  8.711588e+00  1.819769e+02 -3.571240e+00
     vertex  4.762500e+00  1.825625e+02 -3.571240e+00
   endloop
 endfacet
 facet normal -1.117096e-16 -5.016886e-18 -1.000000e+00
   outer loop
     vertex  8.711588e+00  1.831481e+02 -3.571240e+00
     vertex  4.762500e+00  1.825625e+02 -3.571240e+00
     vertex  4.743328e+00  1.829894e+02 -3.571240e+00
   endloop
 endfacet
 facet normal -1.118965e-16 -3.756843e-18 -1.000000e+00
   outer loop
     vertex  8.711588e+00  1.831481e+02 -3.571240e+00
     vertex  8.731250e+00  1.825625e+02 -3.571240e+00
     vertex  4.762500e+00  1.825625e+02 -3.571240e+00
   endloop
 endfacet
 facet normal -1.107500e-16 -1.500211e-17 -1.000000e+00
   outer loop
     vertex  8.652690e+00  1.837311e+02 -3.571240e+00
     vertex  4.743328e+00  1.829894e+02 -3.571240e+00
     vertex  4.685965e+00  1.834129e+02 -3.571240e+00
   endloop
 endfacet
 facet normal -1.114599e-16 -1.126042e-17 -1.000000e+00
   outer loop
     vertex  8.652690e+00  1.837311e+02 -3.571240e+00
     vertex  8.711588e+00  1.831481e+02 -3.571240e+00
     vertex  4.743328e+00  1.829894e+02 -3.571240e+00
   endloop
 endfacet
 facet normal -1.090229e-16 -2.488376e-17 -1.000000e+00
   outer loop
     vertex  8.554822e+00  1.843089e+02 -3.571240e+00
     vertex  4.685965e+00  1.834129e+02 -3.571240e+00
     vertex  4.590873e+00  1.838295e+02 -3.571240e+00
   endloop
 endfacet
 facet normal -1.104525e-16 -1.871080e-17 -1.000000e+00
   outer loop
     vertex  8.554822e+00  1.843089e+02 -3.571240e+00
     vertex  8.652690e+00  1.837311e+02 -3.571240e+00
     vertex  4.685965e+00  1.834129e+02 -3.571240e+00
   endloop
 endfacet
 facet normal -1.088806e-16 -2.606072e-17 -1.000000e+00
   outer loop
     vertex  8.418424e+00  1.848787e+02 -3.571240e+00
     vertex  8.554822e+00  1.843089e+02 -3.571240e+00
     vertex  4.590873e+00  1.838295e+02 -3.571240e+00
   endloop
 endfacet
 facet normal -1.063452e-16 -3.455367e-17 -1.000000e+00
   outer loop
     vertex  8.244111e+00  1.854382e+02 -3.571240e+00
     vertex  4.590873e+00  1.838295e+02 -3.571240e+00
     vertex  4.458819e+00  1.842359e+02 -3.571240e+00
   endloop
 endfacet
 facet normal -1.068942e-16 -3.330708e-17 -1.000000e+00
   outer loop
     vertex  8.244111e+00  1.854382e+02 -3.571240e+00
     vertex  8.418424e+00  1.848787e+02 -3.571240e+00
     vertex  4.590873e+00  1.838295e+02 -3.571240e+00
   endloop
 endfacet
 facet normal -1.027679e-16 -4.392511e-17 -1.000000e+00
   outer loop
     vertex  8.032667e+00  1.859846e+02 -3.571240e+00
     vertex  4.458819e+00  1.842359e+02 -3.571240e+00
     vertex  4.290864e+00  1.846289e+02 -3.571240e+00
   endloop
 endfacet
 facet normal -1.044804e-16 -4.042536e-17 -1.000000e+00
   outer loop
     vertex  8.032667e+00  1.859846e+02 -3.571240e+00
     vertex  8.244111e+00  1.854382e+02 -3.571240e+00
     vertex  4.458819e+00  1.842359e+02 -3.571240e+00
   endloop
 endfacet
 facet normal -1.932152e-16 -1.012617e-16 -1.000000e+00
   outer loop
     vertex  3.637419e+00  1.905000e+02 -3.571240e+00
     vertex -1.471693e+00  1.870919e+02 -3.571240e+00
     vertex -1.474992e+01  1.905000e+02 -3.571240e+00
   endloop
 endfacet
 facet normal -1.455328e-16 -3.022019e-16 -1.000000e+00
   outer loop
     vertex  3.637419e+00  1.905000e+02 -3.571240e+00
     vertex  2.256800e+00  1.867563e+02 -3.571240e+00
     vertex  1.871782e+00  1.869418e+02 -3.571240e+00
   endloop
 endfacet
 facet normal -1.184600e-16 -3.156356e-16 -1.000000e+00
   outer loop
     vertex  3.637419e+00  1.905000e+02 -3.571240e+00
     vertex  1.871782e+00  1.869418e+02 -3.571240e+00
     vertex  1.471693e+00  1.870919e+02 -3.571240e+00
   endloop
 endfacet
 facet normal -9.178763e-17 -3.325850e-16 -1.000000e+00
   outer loop
     vertex  3.637419e+00  1.905000e+02 -3.571240e+00
     vertex  1.471693e+00  1.870919e+02 -3.571240e+00
     vertex  1.059756e+00  1.872056e+02 -3.571240e+00
   endloop
 endfacet
 facet normal -6.426347e-17 -3.541209e-16 -1.000000e+00
   outer loop
     vertex  3.637419e+00  1.905000e+02 -3.571240e+00
     vertex  1.059756e+00  1.872056e+02 -3.571240e+00
     vertex  6.392859e-01  1.872819e+02 -3.571240e+00
   endloop
 endfacet
 facet normal -3.437740e-17 -3.819642e-16 -1.000000e+00
   outer loop
     vertex  3.637419e+00  1.905000e+02 -3.571240e+00
     vertex  6.392859e-01  1.872819e+02 -3.571240e+00
     vertex  2.136688e-01  1.873202e+02 -3.571240e+00
   endloop
 endfacet
 facet normal  0.000000e+00 -4.189790e-16 -1.000000e+00
   outer loop
     vertex  3.637419e+00  1.905000e+02 -3.571240e+00
     vertex  2.136688e-01  1.873202e+02 -3.571240e+00
     vertex -2.136688e-01  1.873202e+02 -3.571240e+00
   endloop
 endfacet
 facet normal  4.232198e-17 -4.702357e-16 -1.000000e+00
   outer loop
     vertex  3.637419e+00  1.905000e+02 -3.571240e+00
     vertex -2.136688e-01  1.873202e+02 -3.571240e+00
     vertex -6.392859e-01  1.872819e+02 -3.571240e+00
   endloop
 endfacet
 facet normal  9.900553e-17 -5.455654e-16 -1.000000e+00
   outer loop
     vertex  3.637419e+00  1.905000e+02 -3.571240e+00
     vertex -6.392859e-01  1.872819e+02 -3.571240e+00
     vertex -1.059756e+00  1.872056e+02 -3.571240e+00
   endloop
 endfacet
 facet normal  1.840190e-16 -6.667780e-16 -1.000000e+00
   outer loop
     vertex  3.637419e+00  1.905000e+02 -3.571240e+00
     vertex -1.059756e+00  1.872056e+02 -3.571240e+00
     vertex -1.471693e+00  1.870919e+02 -3.571240e+00
   endloop
 endfacet
 facet normal  0.000000e+00  0.000000e+00 -1.000000e+00
   outer loop
     vertex  7.785046e+00  1.865157e+02 -3.571240e+00
     vertex  4.290864e+00  1.846289e+02 -3.571240e+00
     vertex  4.088362e+00  1.850052e+02 -3.571240e+00
   endloop
 endfacet
 facet normal -3.607265e-16  6.680227e-16 -1.000000e+00
   outer loop
     vertex  7.785046e+00  1.865157e+02 -3.571240e+00
     vertex  8.032667e+00  1.859846e+02 -3.571240e+00
     vertex  4.290864e+00  1.846289e+02 -3.571240e+00
   endloop
 endfacet
 facet normal  1.996054e-15 -1.091994e-15 -1.000000e+00
   outer loop
     vertex  4.161620e+00  1.902382e+02 -3.571240e+00
     vertex  2.256800e+00  1.867563e+02 -3.571240e+00
     vertex  3.637419e+00  1.905000e+02 -3.571240e+00
   endloop
 endfacet
 facet normal  0.000000e+00 -0.000000e+00 -1.000000e+00
   outer loop
     vertex  7.502362e+00  1.870290e+02 -3.571240e+00
     vertex  7.785046e+00  1.865157e+02 -3.571240e+00
     vertex  4.088362e+00  1.850052e+02 -3.571240e+00
   endloop
 endfacet
 facet normal -0.000000e+00  0.000000e+00 -1.000000e+00
   outer loop
     vertex  4.667077e+00  1.899417e+02 -3.571240e+00
     vertex  2.256800e+00  1.867563e+02 -3.571240e+00
     vertex  4.161620e+00  1.902382e+02 -3.571240e+00
   endloop
 endfacet
 facet normal  0.000000e+00  0.000000e+00 -1.000000e+00
   outer loop
     vertex  4.667077e+00  1.899417e+02 -3.571240e+00
     vertex  2.623647e+00  1.865372e+02 -3.571240e+00
     vertex  2.256800e+00  1.867563e+02 -3.571240e+00
   endloop
 endfacet
 facet normal  0.000000e+00 -0.000000e+00 -1.000000e+00
   outer loop
     vertex  7.185888e+00  1.875221e+02 -3.571240e+00
     vertex  7.502362e+00  1.870290e+02 -3.571240e+00
     vertex  4.088362e+00  1.850052e+02 -3.571240e+00
   endloop
 endfacet
 facet normal  0.000000e+00  0.000000e+00 -1.000000e+00
   outer loop
     vertex  7.185888e+00  1.875221e+02 -3.571240e+00
     vertex  4.088362e+00  1.850052e+02 -3.571240e+00
     vertex  3.852943e+00  1.853618e+02 -3.571240e+00
   endloop
 endfacet
 facet normal -0.000000e+00  0.000000e+00 -1.000000e+00
   outer loop
     vertex  5.151514e+00  1.896121e+02 -3.571240e+00
     vertex  2.623647e+00  1.865372e+02 -3.571240e+00
     vertex  4.667077e+00  1.899417e+02 -3.571240e+00
   endloop
 endfacet
 facet normal  0.000000e+00  0.000000e+00 -1.000000e+00
   outer loop
     vertex  5.151514e+00  1.896121e+02 -3.571240e+00
     vertex  2.969370e+00  1.862860e+02 -3.571240e+00
     vertex  2.623647e+00  1.865372e+02 -3.571240e+00
   endloop
 endfacet
 facet normal  0.000000e+00 -0.000000e+00 -1.000000e+00
   outer loop
     vertex  6.837051e+00  1.879929e+02 -3.571240e+00
     vertex  7.185888e+00  1.875221e+02 -3.571240e+00
     vertex  3.852943e+00  1.853618e+02 -3.571240e+00
   endloop
 endfacet
 facet normal  0.000000e+00  0.000000e+00 -1.000000e+00
   outer loop
     vertex  6.837051e+00  1.879929e+02 -3.571240e+00
     vertex  3.852943e+00  1.853618e+02 -3.571240e+00
     vertex  3.586503e+00  1.856959e+02 -3.571240e+00
   endloop
 endfacet
 facet normal -0.000000e+00  0.000000e+00 -1.000000e+00
   outer loop
     vertex  5.612749e+00  1.892507e+02 -3.571240e+00
     vertex  2.969370e+00  1.862860e+02 -3.571240e+00
     vertex  5.151514e+00  1.896121e+02 -3.571240e+00
   endloop
 endfacet
 facet normal  0.000000e+00  0.000000e+00 -1.000000e+00
   outer loop
     vertex  5.612749e+00  1.892507e+02 -3.571240e+00
     vertex  3.291186e+00  1.860048e+02 -3.571240e+00
     vertex  2.969370e+00  1.862860e+02 -3.571240e+00
   endloop
 endfacet
 facet normal  0.000000e+00 -0.000000e+00 -1.000000e+00
   outer loop
     vertex  6.457420e+00  1.884393e+02 -3.571240e+00
     vertex  6.837051e+00  1.879929e+02 -3.571240e+00
     vertex  3.586503e+00  1.856959e+02 -3.571240e+00
   endloop
 endfacet
 facet normal  0.000000e+00  0.000000e+00 -1.000000e+00
   outer loop
     vertex  6.457420e+00  1.884393e+02 -3.571240e+00
     vertex  3.586503e+00  1.856959e+02 -3.571240e+00
     vertex  3.291186e+00  1.860048e+02 -3.571240e+00
   endloop
 endfacet
 facet normal -0.000000e+00  0.000000e+00 -1.000000e+00
   outer loop
     vertex  6.048706e+00  1.888592e+02 -3.571240e+00
     vertex  3.291186e+00  1.860048e+02 -3.571240e+00
     vertex  5.612749e+00  1.892507e+02 -3.571240e+00
   endloop
 endfacet
 facet normal  0.000000e+00 -0.000000e+00 -1.000000e+00
   outer loop
     vertex  6.048706e+00  1.888592e+02 -3.571240e+00
     vertex  6.457420e+00  1.884393e+02 -3.571240e+00
     vertex  3.291186e+00  1.860048e+02 -3.571240e+00
   endloop
 endfacet
endsolid
