solid 
 facet normal  0.000000e+00  0.000000e+00  1.000000e+00
   outer loop
     vertex -2.006600e+02  1.499870e+01  0.000000e+00
     vertex -2.514600e+02  1.842770e+01  0.000000e+00
     vertex -2.514600e+02  1.499870e+01  0.000000e+00
   endloop
 endfacet
 facet normal  0.000000e+00  0.000000e+00  1.000000e+00
   outer loop
     vertex -2.006600e+02  1.842770e+01  0.000000e+00
     vertex -2.514600e+02  1.842770e+01  0.000000e+00
     vertex -2.006600e+02  1.499870e+01  0.000000e+00
   endloop
 endfacet
endsolid
