solid 
 facet normal -8.945999e-01  4.468681e-01 -6.631821e-16
   outer loop
     vertex  1.748868e+02  1.527412e+01 -2.312670e+02
     vertex  1.746250e+02  1.474992e+01 -2.312670e+02
     vertex  1.746250e+02  1.474992e+01 -2.276958e+02
   endloop
 endfacet
 facet normal -8.945999e-01  4.468681e-01  1.333650e-15
   outer loop
     vertex  1.748868e+02  1.527412e+01 -2.312670e+02
     vertex  1.746250e+02  1.474992e+01 -2.276958e+02
     vertex  1.748868e+02  1.527412e+01 -2.276958e+02
   endloop
 endfacet
 facet normal -8.626125e-01  5.058652e-01  1.509723e-15
   outer loop
     vertex  1.751833e+02  1.577958e+01 -2.312670e+02
     vertex  1.748868e+02  1.527412e+01 -2.276958e+02
     vertex  1.751833e+02  1.577958e+01 -2.276958e+02
   endloop
 endfacet
 facet normal -8.626125e-01  5.058652e-01  1.512055e-15
   outer loop
     vertex  1.751833e+02  1.577958e+01 -2.312670e+02
     vertex  1.748868e+02  1.527412e+01 -2.312670e+02
     vertex  1.748868e+02  1.527412e+01 -2.276958e+02
   endloop
 endfacet
 facet normal -8.267401e-01  5.625840e-01  1.678996e-15
   outer loop
     vertex  1.755129e+02  1.626401e+01 -2.312670e+02
     vertex  1.751833e+02  1.577958e+01 -2.276958e+02
     vertex  1.755129e+02  1.626401e+01 -2.276958e+02
   endloop
 endfacet
 facet normal -8.267401e-01  5.625840e-01  1.684483e-15
   outer loop
     vertex  1.755129e+02  1.626401e+01 -2.312670e+02
     vertex  1.751833e+02  1.577958e+01 -2.312670e+02
     vertex  1.751833e+02  1.577958e+01 -2.276958e+02
   endloop
 endfacet
 facet normal -7.871442e-01  6.167690e-01  1.840708e-15
   outer loop
     vertex  1.758743e+02  1.672525e+01 -2.312670e+02
     vertex  1.755129e+02  1.626401e+01 -2.276958e+02
     vertex  1.758743e+02  1.672525e+01 -2.276958e+02
   endloop
 endfacet
 facet normal -7.871442e-01  6.167690e-01  1.843646e-15
   outer loop
     vertex  1.758743e+02  1.672525e+01 -2.312670e+02
     vertex  1.755129e+02  1.626401e+01 -2.312670e+02
     vertex  1.755129e+02  1.626401e+01 -2.276958e+02
   endloop
 endfacet
 facet normal -7.440031e-01  6.681761e-01  2.658840e-15
   outer loop
     vertex  1.762658e+02  1.716121e+01 -2.312670e+02
     vertex  1.758743e+02  1.672525e+01 -2.276958e+02
     vertex  1.762658e+02  1.716121e+01 -2.276958e+02
   endloop
 endfacet
 facet normal -7.440031e-01  6.681761e-01  1.989546e-15
   outer loop
     vertex  1.762658e+02  1.716121e+01 -2.312670e+02
     vertex  1.758743e+02  1.672525e+01 -2.312670e+02
     vertex  1.758743e+02  1.672525e+01 -2.276958e+02
   endloop
 endfacet
 facet normal -6.975111e-01  7.165739e-01  1.425713e-15
   outer loop
     vertex  1.766857e+02  1.756992e+01 -2.312670e+02
     vertex  1.762658e+02  1.716121e+01 -2.276958e+02
     vertex  1.766857e+02  1.756992e+01 -2.276958e+02
   endloop
 endfacet
 facet normal -6.975111e-01  7.165739e-01  2.851683e-15
   outer loop
     vertex  1.766857e+02  1.756992e+01 -2.312670e+02
     vertex  1.762658e+02  1.716121e+01 -2.312670e+02
     vertex  1.762658e+02  1.716121e+01 -2.276958e+02
   endloop
 endfacet
 facet normal -6.478777e-01  7.617444e-01  1.525319e-15
   outer loop
     vertex  1.771321e+02  1.794955e+01 -2.312670e+02
     vertex  1.766857e+02  1.756992e+01 -2.312670e+02
     vertex  1.766857e+02  1.756992e+01 -2.276958e+02
   endloop
 endfacet
 facet normal -6.478777e-01  7.617444e-01  2.273378e-15
   outer loop
     vertex  1.771321e+02  1.794955e+01 -2.312670e+02
     vertex  1.766857e+02  1.756992e+01 -2.276958e+02
     vertex  1.771321e+02  1.794955e+01 -2.276958e+02
   endloop
 endfacet
 facet normal -5.953263e-01  8.034841e-01  2.400719e-15
   outer loop
     vertex  1.776029e+02  1.829839e+01 -2.312670e+02
     vertex  1.771321e+02  1.794955e+01 -2.312670e+02
     vertex  1.771321e+02  1.794955e+01 -2.276958e+02
   endloop
 endfacet
 facet normal -5.953263e-01  8.034841e-01 -3.139272e-15
   outer loop
     vertex  1.776029e+02  1.829839e+01 -2.312670e+02
     vertex  1.771321e+02  1.794955e+01 -2.276958e+02
     vertex  1.776029e+02  1.829839e+01 -2.276958e+02
   endloop
 endfacet
 facet normal -5.400936e-01  8.416050e-01 -2.626201e-15
   outer loop
     vertex  1.780960e+02  1.861486e+01 -2.312670e+02
     vertex  1.776029e+02  1.829839e+01 -2.312670e+02
     vertex  1.776029e+02  1.829839e+01 -2.276958e+02
   endloop
 endfacet
 facet normal -5.400936e-01  8.416050e-01  8.372390e-16
   outer loop
     vertex  1.780960e+02  1.861486e+01 -2.312670e+02
     vertex  1.776029e+02  1.829839e+01 -2.276958e+02
     vertex  1.780960e+02  1.861486e+01 -2.276958e+02
   endloop
 endfacet
 facet normal -4.824284e-01  8.759354e-01  8.754004e-16
   outer loop
     vertex  1.786093e+02  1.889755e+01 -2.312670e+02
     vertex  1.780960e+02  1.861486e+01 -2.312670e+02
     vertex  1.780960e+02  1.861486e+01 -2.276958e+02
   endloop
 endfacet
 facet normal -4.824284e-01  8.759354e-01  1.742783e-15
   outer loop
     vertex  1.786093e+02  1.889755e+01 -2.312670e+02
     vertex  1.780960e+02  1.861486e+01 -2.276958e+02
     vertex  1.786093e+02  1.889755e+01 -2.276958e+02
   endloop
 endfacet
 facet normal -4.225905e-01  9.063207e-01  1.803855e-15
   outer loop
     vertex  1.791404e+02  1.914517e+01 -2.312670e+02
     vertex  1.786093e+02  1.889755e+01 -2.312670e+02
     vertex  1.786093e+02  1.889755e+01 -2.276958e+02
   endloop
 endfacet
 facet normal -4.225905e-01  9.063207e-01  1.803238e-15
   outer loop
     vertex  1.791404e+02  1.914517e+01 -2.312670e+02
     vertex  1.786093e+02  1.889755e+01 -2.276958e+02
     vertex  1.791404e+02  1.914517e+01 -2.276958e+02
   endloop
 endfacet
 facet normal -3.608492e-01  9.326242e-01  1.856910e-15
   outer loop
     vertex  1.796868e+02  1.935661e+01 -2.312670e+02
     vertex  1.791404e+02  1.914517e+01 -2.312670e+02
     vertex  1.791404e+02  1.914517e+01 -2.276958e+02
   endloop
 endfacet
 facet normal -3.608492e-01  9.326242e-01 -8.846020e-17
   outer loop
     vertex  1.796868e+02  1.935661e+01 -2.312670e+02
     vertex  1.791404e+02  1.914517e+01 -2.276958e+02
     vertex  1.796868e+02  1.935661e+01 -2.276958e+02
   endloop
 endfacet
 facet normal -2.974828e-01  9.547272e-01  4.774911e-16
   outer loop
     vertex  1.802463e+02  1.953092e+01 -2.312670e+02
     vertex  1.796868e+02  1.935661e+01 -2.312670e+02
     vertex  1.796868e+02  1.935661e+01 -2.276958e+02
   endloop
 endfacet
 facet normal -2.974828e-01  9.547272e-01  9.497744e-16
   outer loop
     vertex  1.802463e+02  1.953092e+01 -2.312670e+02
     vertex  1.796868e+02  1.935661e+01 -2.276958e+02
     vertex  1.802463e+02  1.953092e+01 -2.276958e+02
   endloop
 endfacet
 facet normal -2.327765e-01  9.725303e-01  9.682459e-16
   outer loop
     vertex  1.808161e+02  1.966732e+01 -2.312670e+02
     vertex  1.802463e+02  1.953092e+01 -2.312670e+02
     vertex  1.802463e+02  1.953092e+01 -2.276958e+02
   endloop
 endfacet
 facet normal -2.327765e-01  9.725303e-01  1.934970e-15
   outer loop
     vertex  1.808161e+02  1.966732e+01 -2.312670e+02
     vertex  1.802463e+02  1.953092e+01 -2.276958e+02
     vertex  1.808161e+02  1.966732e+01 -2.276958e+02
   endloop
 endfacet
 facet normal -1.670219e-01  9.859532e-01  1.959703e-15
   outer loop
     vertex  1.813939e+02  1.976519e+01 -2.312670e+02
     vertex  1.808161e+02  1.966732e+01 -2.312670e+02
     vertex  1.808161e+02  1.966732e+01 -2.276958e+02
   endloop
 endfacet
 facet normal -1.670219e-01  9.859532e-01  9.808384e-16
   outer loop
     vertex  1.813939e+02  1.976519e+01 -2.312670e+02
     vertex  1.808161e+02  1.966732e+01 -2.276958e+02
     vertex  1.813939e+02  1.976519e+01 -2.276958e+02
   endloop
 endfacet
 facet normal -1.005150e-01  9.949355e-01  9.914573e-16
   outer loop
     vertex  1.819769e+02  1.982409e+01 -2.312670e+02
     vertex  1.813939e+02  1.976519e+01 -2.312670e+02
     vertex  1.813939e+02  1.976519e+01 -2.276958e+02
   endloop
 endfacet
 facet normal -1.005150e-01  9.949355e-01  9.897742e-16
   outer loop
     vertex  1.819769e+02  1.982409e+01 -2.312670e+02
     vertex  1.813939e+02  1.976519e+01 -2.276958e+02
     vertex  1.819769e+02  1.982409e+01 -2.276958e+02
   endloop
 endfacet
 facet normal -3.355537e-02  9.994369e-01  9.939442e-16
   outer loop
     vertex  1.825625e+02  1.984375e+01 -2.312670e+02
     vertex  1.819769e+02  1.982409e+01 -2.312670e+02
     vertex  1.819769e+02  1.982409e+01 -2.276958e+02
   endloop
 endfacet
 facet normal  3.355537e-02  9.994369e-01 -0.000000e+00
   outer loop
     vertex  1.825625e+02  1.984375e+01 -2.312670e+02
     vertex  1.825625e+02  1.984375e+01 -2.276958e+02
     vertex  1.831481e+02  1.982409e+01 -2.276958e+02
   endloop
 endfacet
 facet normal -3.355537e-02  9.994369e-01  0.000000e+00
   outer loop
     vertex  1.825625e+02  1.984375e+01 -2.312670e+02
     vertex  1.819769e+02  1.982409e+01 -2.276958e+02
     vertex  1.825625e+02  1.984375e+01 -2.276958e+02
   endloop
 endfacet
 facet normal  3.355537e-02  9.994369e-01 -0.000000e+00
   outer loop
     vertex  1.831481e+02  1.982409e+01 -2.312670e+02
     vertex  1.825625e+02  1.984375e+01 -2.312670e+02
     vertex  1.831481e+02  1.982409e+01 -2.276958e+02
   endloop
 endfacet
 facet normal  1.005150e-01  9.949355e-01  0.000000e+00
   outer loop
     vertex  1.837311e+02  1.976519e+01 -2.312670e+02
     vertex  1.831481e+02  1.982409e+01 -2.312670e+02
     vertex  1.831481e+02  1.982409e+01 -2.276958e+02
   endloop
 endfacet
 facet normal  1.005150e-01  9.949355e-01  9.897742e-16
   outer loop
     vertex  1.837311e+02  1.976519e+01 -2.312670e+02
     vertex  1.831481e+02  1.982409e+01 -2.276958e+02
     vertex  1.837311e+02  1.976519e+01 -2.276958e+02
   endloop
 endfacet
 facet normal  1.670219e-01  9.859532e-01 -0.000000e+00
   outer loop
     vertex  1.843089e+02  1.966732e+01 -2.312670e+02
     vertex  1.837311e+02  1.976519e+01 -2.276958e+02
     vertex  1.843089e+02  1.966732e+01 -2.276958e+02
   endloop
 endfacet
 facet normal  1.670219e-01  9.859532e-01  9.815095e-16
   outer loop
     vertex  1.843089e+02  1.966732e+01 -2.312670e+02
     vertex  1.837311e+02  1.976519e+01 -2.312670e+02
     vertex  1.837311e+02  1.976519e+01 -2.276958e+02
   endloop
 endfacet
 facet normal  2.327765e-01  9.725303e-01 -0.000000e+00
   outer loop
     vertex  1.848787e+02  1.953092e+01 -2.312670e+02
     vertex  1.843089e+02  1.966732e+01 -2.276958e+02
     vertex  1.848787e+02  1.953092e+01 -2.276958e+02
   endloop
 endfacet
 facet normal  2.327765e-01  9.725303e-01  0.000000e+00
   outer loop
     vertex  1.848787e+02  1.953092e+01 -2.312670e+02
     vertex  1.843089e+02  1.966732e+01 -2.312670e+02
     vertex  1.843089e+02  1.966732e+01 -2.276958e+02
   endloop
 endfacet
 facet normal  2.974828e-01  9.547272e-01  3.317291e-15
   outer loop
     vertex  1.854382e+02  1.935661e+01 -2.312670e+02
     vertex  1.848787e+02  1.953092e+01 -2.276958e+02
     vertex  1.854382e+02  1.935661e+01 -2.276958e+02
   endloop
 endfacet
 facet normal  2.974828e-01  9.547272e-01  0.000000e+00
   outer loop
     vertex  1.854382e+02  1.935661e+01 -2.312670e+02
     vertex  1.848787e+02  1.953092e+01 -2.312670e+02
     vertex  1.848787e+02  1.953092e+01 -2.276958e+02
   endloop
 endfacet
 facet normal  3.608492e-01  9.326242e-01 -0.000000e+00
   outer loop
     vertex  1.859846e+02  1.914517e+01 -2.312670e+02
     vertex  1.854382e+02  1.935661e+01 -2.276958e+02
     vertex  1.859846e+02  1.914517e+01 -2.276958e+02
   endloop
 endfacet
 facet normal  3.608492e-01  9.326242e-01  3.800033e-15
   outer loop
     vertex  1.859846e+02  1.914517e+01 -2.312670e+02
     vertex  1.854382e+02  1.935661e+01 -2.312670e+02
     vertex  1.854382e+02  1.935661e+01 -2.276958e+02
   endloop
 endfacet
 facet normal  4.225905e-01  9.063207e-01 -0.000000e+00
   outer loop
     vertex  1.865157e+02  1.889755e+01 -2.312670e+02
     vertex  1.859846e+02  1.914517e+01 -2.276958e+02
     vertex  1.865157e+02  1.889755e+01 -2.276958e+02
   endloop
 endfacet
 facet normal  4.225905e-01  9.063207e-01  0.000000e+00
   outer loop
     vertex  1.865157e+02  1.889755e+01 -2.312670e+02
     vertex  1.859846e+02  1.914517e+01 -2.312670e+02
     vertex  1.859846e+02  1.914517e+01 -2.276958e+02
   endloop
 endfacet
 facet normal  4.824284e-01  8.759354e-01 -0.000000e+00
   outer loop
     vertex  1.870290e+02  1.861486e+01 -2.312670e+02
     vertex  1.865157e+02  1.889755e+01 -2.276958e+02
     vertex  1.870290e+02  1.861486e+01 -2.276958e+02
   endloop
 endfacet
 facet normal  4.824284e-01  8.759354e-01  0.000000e+00
   outer loop
     vertex  1.870290e+02  1.861486e+01 -2.312670e+02
     vertex  1.865157e+02  1.889755e+01 -2.312670e+02
     vertex  1.865157e+02  1.889755e+01 -2.276958e+02
   endloop
 endfacet
 facet normal  5.400936e-01  8.416050e-01  4.298334e-15
   outer loop
     vertex  1.875221e+02  1.829839e+01 -2.312670e+02
     vertex  1.870290e+02  1.861486e+01 -2.276958e+02
     vertex  1.875221e+02  1.829839e+01 -2.276958e+02
   endloop
 endfacet
 facet normal  5.400936e-01  8.416050e-01  0.000000e+00
   outer loop
     vertex  1.875221e+02  1.829839e+01 -2.312670e+02
     vertex  1.870290e+02  1.861486e+01 -2.312670e+02
     vertex  1.870290e+02  1.861486e+01 -2.276958e+02
   endloop
 endfacet
 facet normal  5.953263e-01  8.034841e-01 -0.000000e+00
   outer loop
     vertex  1.879929e+02  1.794955e+01 -2.312670e+02
     vertex  1.875221e+02  1.829839e+01 -2.276958e+02
     vertex  1.879929e+02  1.794955e+01 -2.276958e+02
   endloop
 endfacet
 facet normal  5.953263e-01  8.034841e-01  4.735120e-15
   outer loop
     vertex  1.879929e+02  1.794955e+01 -2.312670e+02
     vertex  1.875221e+02  1.829839e+01 -2.312670e+02
     vertex  1.875221e+02  1.829839e+01 -2.276958e+02
   endloop
 endfacet
 facet normal  6.478777e-01  7.617444e-01 -0.000000e+00
   outer loop
     vertex  1.884393e+02  1.756992e+01 -2.312670e+02
     vertex  1.879929e+02  1.794955e+01 -2.276958e+02
     vertex  1.884393e+02  1.756992e+01 -2.276958e+02
   endloop
 endfacet
 facet normal  6.478777e-01  7.617444e-01  0.000000e+00
   outer loop
     vertex  1.884393e+02  1.756992e+01 -2.312670e+02
     vertex  1.879929e+02  1.794955e+01 -2.312670e+02
     vertex  1.879929e+02  1.794955e+01 -2.276958e+02
   endloop
 endfacet
 facet normal  7.440031e-01  6.681761e-01 -6.647099e-16
   outer loop
     vertex  1.888592e+02  1.716121e+01 -2.312670e+02
     vertex  1.888592e+02  1.716121e+01 -2.276958e+02
     vertex  1.892507e+02  1.672525e+01 -2.276958e+02
   endloop
 endfacet
 facet normal  6.975111e-01  7.165739e-01 -7.128566e-16
   outer loop
     vertex  1.888592e+02  1.716121e+01 -2.312670e+02
     vertex  1.884393e+02  1.756992e+01 -2.276958e+02
     vertex  1.888592e+02  1.716121e+01 -2.276958e+02
   endloop
 endfacet
 facet normal  6.975111e-01  7.165739e-01  0.000000e+00
   outer loop
     vertex  1.888592e+02  1.716121e+01 -2.312670e+02
     vertex  1.884393e+02  1.756992e+01 -2.312670e+02
     vertex  1.884393e+02  1.756992e+01 -2.276958e+02
   endloop
 endfacet
 facet normal  7.440031e-01  6.681761e-01 -0.000000e+00
   outer loop
     vertex  1.892507e+02  1.672525e+01 -2.312670e+02
     vertex  1.888592e+02  1.716121e+01 -2.312670e+02
     vertex  1.892507e+02  1.672525e+01 -2.276958e+02
   endloop
 endfacet
 facet normal  8.267401e-01  5.625840e-01 -5.596655e-16
   outer loop
     vertex  1.896121e+02  1.626401e+01 -2.312670e+02
     vertex  1.896121e+02  1.626401e+01 -2.276958e+02
     vertex  1.899417e+02  1.577958e+01 -2.276958e+02
   endloop
 endfacet
 facet normal  7.871442e-01  6.167690e-01 -6.135694e-16
   outer loop
     vertex  1.896121e+02  1.626401e+01 -2.312670e+02
     vertex  1.892507e+02  1.672525e+01 -2.276958e+02
     vertex  1.896121e+02  1.626401e+01 -2.276958e+02
   endloop
 endfacet
 facet normal  7.871442e-01  6.167690e-01  0.000000e+00
   outer loop
     vertex  1.896121e+02  1.626401e+01 -2.312670e+02
     vertex  1.892507e+02  1.672525e+01 -2.312670e+02
     vertex  1.892507e+02  1.672525e+01 -2.276958e+02
   endloop
 endfacet
 facet normal  8.267401e-01  5.625840e-01 -2.798327e-16
   outer loop
     vertex  1.899417e+02  1.577958e+01 -2.312670e+02
     vertex  1.896121e+02  1.626401e+01 -2.312670e+02
     vertex  1.899417e+02  1.577958e+01 -2.276958e+02
   endloop
 endfacet
 facet normal  8.626125e-01  5.058652e-01 -2.520092e-16
   outer loop
     vertex  1.902382e+02  1.527412e+01 -2.312670e+02
     vertex  1.899417e+02  1.577958e+01 -2.312670e+02
     vertex  1.899417e+02  1.577958e+01 -2.276958e+02
   endloop
 endfacet
 facet normal  8.626125e-01  5.058652e-01 -0.000000e+00
   outer loop
     vertex  1.902382e+02  1.527412e+01 -2.312670e+02
     vertex  1.899417e+02  1.577958e+01 -2.276958e+02
     vertex  1.902382e+02  1.527412e+01 -2.276958e+02
   endloop
 endfacet
 facet normal  8.945999e-01  4.468681e-01  0.000000e+00
   outer loop
     vertex  1.905000e+02  1.474992e+01 -2.312670e+02
     vertex  1.902382e+02  1.527412e+01 -2.312670e+02
     vertex  1.902382e+02  1.527412e+01 -2.276958e+02
   endloop
 endfacet
 facet normal  8.945999e-01  4.468681e-01 -6.668248e-16
   outer loop
     vertex  1.905000e+02  1.474992e+01 -2.312670e+02
     vertex  1.902382e+02  1.527412e+01 -2.276958e+02
     vertex  1.905000e+02  1.474992e+01 -2.276958e+02
   endloop
 endfacet
endsolid
