solid 
 facet normal  0.000000e+00 -1.000000e+00  0.000000e+00
   outer loop
     vertex -3.637419e+00 -1.905000e+02 -3.571240e+00
     vertex  1.474992e+01 -1.905000e+02  5.204170e-15
     vertex -3.637419e+00 -1.905000e+02  5.637851e-15
   endloop
 endfacet
 facet normal  0.000000e+00 -1.000000e+00  0.000000e+00
   outer loop
     vertex -3.637419e+00 -1.905000e+02 -3.571240e+00
     vertex  1.474992e+01 -1.905000e+02 -3.571240e+00
     vertex  1.474992e+01 -1.905000e+02  5.204170e-15
   endloop
 endfacet
endsolid
