solid 
 facet normal  3.070858e-16  2.793302e-16  1.000000e+00
   outer loop
     vertex -4.087866e+00  1.787994e+02  1.631344e-15
     vertex -1.474992e+01  1.746250e+02  6.071532e-15
     vertex -3.763146e+00  1.784746e+02  1.622331e-15
   endloop
 endfacet
 facet normal  2.945756e-16  3.150338e-16  1.000000e+00
   outer loop
     vertex -3.412719e+00  1.781778e+02  1.612605e-15
     vertex -3.763146e+00  1.784746e+02  1.622331e-15
     vertex -1.474992e+01  1.746250e+02  6.071532e-15
   endloop
 endfacet
 facet normal  3.196550e-16  2.472262e-16  1.000000e+00
   outer loop
     vertex -4.384662e+00  1.791498e+02  1.639582e-15
     vertex -1.474992e+01  1.746250e+02  6.071532e-15
     vertex -4.087866e+00  1.787994e+02  1.631344e-15
   endloop
 endfacet
 facet normal  2.817978e-16  3.558083e-16  1.000000e+00
   outer loop
     vertex -3.038981e+00  1.779110e+02  1.602232e-15
     vertex -3.412719e+00  1.781778e+02  1.612605e-15
     vertex -1.474992e+01  1.746250e+02  6.071532e-15
   endloop
 endfacet
 facet normal  3.325725e-16  2.176351e-16  1.000000e+00
   outer loop
     vertex -4.651506e+00  1.795235e+02  1.646988e-15
     vertex -1.474992e+01  1.746250e+02  6.071532e-15
     vertex -4.384662e+00  1.791498e+02  1.639582e-15
   endloop
 endfacet
 facet normal  2.683434e-16  4.037584e-16  1.000000e+00
   outer loop
     vertex -2.644483e+00  1.776759e+02  1.591282e-15
     vertex -3.038981e+00  1.779110e+02  1.602232e-15
     vertex -1.474992e+01  1.746250e+02  6.071532e-15
   endloop
 endfacet
 facet normal  3.461209e-16  1.897046e-16  1.000000e+00
   outer loop
     vertex -4.886576e+00  1.799180e+02  1.653513e-15
     vertex -1.474992e+01  1.746250e+02  6.071532e-15
     vertex -4.651506e+00  1.795235e+02  1.646988e-15
   endloop
 endfacet
 facet normal  2.536474e-16  4.620691e-16  1.000000e+00
   outer loop
     vertex -2.231920e+00  1.774742e+02  1.579831e-15
     vertex -2.644483e+00  1.776759e+02  1.591282e-15
     vertex -1.474992e+01  1.746250e+02  6.071532e-15
   endloop
 endfacet
 facet normal  3.606024e-16  1.627189e-16  1.000000e+00
   outer loop
     vertex -5.088266e+00  1.803306e+02  1.659111e-15
     vertex -1.474992e+01  1.746250e+02  6.071532e-15
     vertex -4.886576e+00  1.799180e+02  1.653513e-15
   endloop
 endfacet
 facet normal  2.368507e-16  5.358648e-16  1.000000e+00
   outer loop
     vertex -1.804111e+00  1.773073e+02  1.567957e-15
     vertex -2.231920e+00  1.774742e+02  1.579831e-15
     vertex -1.474992e+01  1.746250e+02  6.071532e-15
   endloop
 endfacet
 facet normal  3.763646e-16  1.360277e-16  1.000000e+00
   outer loop
     vertex -5.255197e+00  1.807584e+02  1.663744e-15
     vertex -1.474992e+01  1.746250e+02  6.071532e-15
     vertex -5.088266e+00  1.803306e+02  1.659111e-15
   endloop
 endfacet
 facet normal  2.165126e-16  6.340238e-16  1.000000e+00
   outer loop
     vertex -1.363979e+00  1.771763e+02  1.555741e-15
     vertex -1.804111e+00  1.773073e+02  1.567957e-15
     vertex -1.474992e+01  1.746250e+02  6.071532e-15
   endloop
 endfacet
 facet normal  3.938330e-16  1.089860e-16  1.000000e+00
   outer loop
     vertex -5.386230e+00  1.811985e+02  1.667381e-15
     vertex -1.474992e+01  1.746250e+02  6.071532e-15
     vertex -5.255197e+00  1.807584e+02  1.663744e-15
   endloop
 endfacet
 facet normal  4.135545e-16  8.089353e-17  1.000000e+00
   outer loop
     vertex -5.480470e+00  1.816480e+02  1.669997e-15
     vertex -1.474992e+01  1.746250e+02  6.071532e-15
     vertex -5.386230e+00  1.811985e+02  1.667381e-15
   endloop
 endfacet
 facet normal  1.069363e-15 -7.846918e-16  1.000000e+00
   outer loop
     vertex -5.480470e+00  1.816480e+02  1.669997e-15
     vertex -1.527412e+01  1.748868e+02  6.837562e-15
     vertex -1.474992e+01  1.746250e+02  6.071532e-15
   endloop
 endfacet
 facet normal  2.573559e-16  3.915195e-16  1.000000e+00
   outer loop
     vertex -5.480470e+00  1.816480e+02  1.669997e-15
     vertex -1.577958e+01  1.751833e+02  6.851591e-15
     vertex -1.527412e+01  1.748868e+02  6.837562e-15
   endloop
 endfacet
 facet normal  2.750243e-16  3.633714e-16  1.000000e+00
   outer loop
     vertex -5.480470e+00  1.816480e+02  1.669997e-15
     vertex -1.626401e+01  1.755129e+02  6.865037e-15
     vertex -1.577958e+01  1.751833e+02  6.851591e-15
   endloop
 endfacet
 facet normal  4.516921e-16  5.284363e-17  1.000000e+00
   outer loop
     vertex -5.537273e+00  1.821037e+02  1.671573e-15
     vertex -1.626401e+01  1.755129e+02  6.865037e-15
     vertex -5.480470e+00  1.816480e+02  1.669997e-15
   endloop
 endfacet
 facet normal  2.835664e-16  3.264756e-16  1.000000e+00
   outer loop
     vertex -5.537273e+00  1.821037e+02  1.671573e-15
     vertex -1.672525e+01  1.758743e+02  6.877839e-15
     vertex -1.626401e+01  1.755129e+02  6.865037e-15
   endloop
 endfacet
 facet normal  2.978763e-16  3.007750e-16  1.000000e+00
   outer loop
     vertex -5.537273e+00  1.821037e+02  1.671573e-15
     vertex -1.716121e+01  1.762658e+02  6.889939e-15
     vertex -1.672525e+01  1.758743e+02  6.877839e-15
   endloop
 endfacet
 facet normal  3.106406e-16  2.753595e-16  1.000000e+00
   outer loop
     vertex -5.537273e+00  1.821037e+02  1.671573e-15
     vertex -1.756992e+01  1.766857e+02  6.901283e-15
     vertex -1.716121e+01  1.762658e+02  6.889939e-15
   endloop
 endfacet
 facet normal  3.219580e-16  2.502246e-16  1.000000e+00
   outer loop
     vertex -5.537273e+00  1.821037e+02  1.671573e-15
     vertex -1.794955e+01  1.771321e+02  6.911820e-15
     vertex -1.756992e+01  1.766857e+02  6.901283e-15
   endloop
 endfacet
 facet normal  3.319164e-16  2.253622e-16  1.000000e+00
   outer loop
     vertex -5.537273e+00  1.821037e+02  1.671573e-15
     vertex -1.829839e+01  1.776029e+02  6.921502e-15
     vertex -1.794955e+01  1.771321e+02  6.911820e-15
   endloop
 endfacet
 facet normal  3.405931e-16  2.007611e-16  1.000000e+00
   outer loop
     vertex -5.537273e+00  1.821037e+02  1.671573e-15
     vertex -1.861486e+01  1.780960e+02  6.930286e-15
     vertex -1.829839e+01  1.776029e+02  6.921502e-15
   endloop
 endfacet
 facet normal  3.480561e-16  1.764081e-16  1.000000e+00
   outer loop
     vertex -5.537273e+00  1.821037e+02  1.671573e-15
     vertex -1.889755e+01  1.786093e+02  6.938132e-15
     vertex -1.861486e+01  1.780960e+02  6.930286e-15
   endloop
 endfacet
 facet normal  3.543646e-16  1.522881e-16  1.000000e+00
   outer loop
     vertex -5.537273e+00  1.821037e+02  1.671573e-15
     vertex -1.914517e+01  1.791404e+02  6.945005e-15
     vertex -1.889755e+01  1.786093e+02  6.938132e-15
   endloop
 endfacet
 facet normal  3.595698e-16  1.283850e-16  1.000000e+00
   outer loop
     vertex -5.537273e+00  1.821037e+02  1.671573e-15
     vertex -1.935661e+01  1.796868e+02  6.950874e-15
     vertex -1.914517e+01  1.791404e+02  6.945005e-15
   endloop
 endfacet
 facet normal  3.831796e-16  1.107463e-16  1.000000e+00
   outer loop
     vertex -5.556250e+00  1.825625e+02  1.344389e-15
     vertex -1.953092e+01  1.802463e+02  6.955712e-15
     vertex -1.935661e+01  1.796868e+02  6.950874e-15
   endloop
 endfacet
 facet normal  3.872727e-16  8.605095e-17  1.000000e+00
   outer loop
     vertex -5.556250e+00  1.825625e+02  1.344389e-15
     vertex -1.966732e+01  1.808161e+02  6.959497e-15
     vertex -1.953092e+01  1.802463e+02  6.955712e-15
   endloop
 endfacet
 facet normal  3.903211e-16  6.141911e-17  1.000000e+00
   outer loop
     vertex -5.556250e+00  1.825625e+02  1.344389e-15
     vertex -1.976519e+01  1.813939e+02  6.962214e-15
     vertex -1.966732e+01  1.808161e+02  6.959497e-15
   endloop
 endfacet
 facet normal  3.923432e-16  3.683305e-17  1.000000e+00
   outer loop
     vertex -5.556250e+00  1.825625e+02  1.344389e-15
     vertex -1.982409e+01  1.819769e+02  6.963849e-15
     vertex -1.976519e+01  1.813939e+02  6.962214e-15
   endloop
 endfacet
 facet normal  3.933512e-16  1.227461e-17  1.000000e+00
   outer loop
     vertex -5.556250e+00  1.825625e+02  1.344389e-15
     vertex -1.984375e+01  1.825625e+02  6.964394e-15
     vertex -1.982409e+01  1.819769e+02  6.963849e-15
   endloop
 endfacet
 facet normal  3.933512e-16 -1.227461e-17  1.000000e+00
   outer loop
     vertex -5.556250e+00  1.825625e+02  1.344389e-15
     vertex -1.982409e+01  1.831481e+02  6.963849e-15
     vertex -1.984375e+01  1.825625e+02  6.964394e-15
   endloop
 endfacet
 facet normal  3.923432e-16 -3.683305e-17  1.000000e+00
   outer loop
     vertex -5.556250e+00  1.825625e+02  1.344389e-15
     vertex -1.976519e+01  1.837311e+02  6.962214e-15
     vertex -1.982409e+01  1.831481e+02  6.963849e-15
   endloop
 endfacet
 facet normal  3.903211e-16 -6.141911e-17  1.000000e+00
   outer loop
     vertex -5.556250e+00  1.825625e+02  1.344389e-15
     vertex -1.966732e+01  1.843089e+02  6.959497e-15
     vertex -1.976519e+01  1.837311e+02  6.962214e-15
   endloop
 endfacet
 facet normal  3.872727e-16 -8.605095e-17  1.000000e+00
   outer loop
     vertex -5.556250e+00  1.825625e+02  1.344389e-15
     vertex -1.953092e+01  1.848787e+02  6.955712e-15
     vertex -1.966732e+01  1.843089e+02  6.959497e-15
   endloop
 endfacet
 facet normal  3.831796e-16 -1.107463e-16  1.000000e+00
   outer loop
     vertex -5.556250e+00  1.825625e+02  1.344389e-15
     vertex -1.935661e+01  1.854382e+02  6.950874e-15
     vertex -1.953092e+01  1.848787e+02  6.955712e-15
   endloop
 endfacet
 facet normal  2.554663e-16  7.236476e-16  1.000000e+00
   outer loop
     vertex -5.556250e+00  1.825625e+02  1.344389e-15
     vertex -1.935661e+01  1.796868e+02  6.950874e-15
     vertex -5.537273e+00  1.821037e+02  1.671573e-15
   endloop
 endfacet
 facet normal  3.595698e-16 -1.283850e-16  1.000000e+00
   outer loop
     vertex -5.537273e+00  1.830213e+02  1.671573e-15
     vertex -1.914517e+01  1.859846e+02  6.945005e-15
     vertex -1.935661e+01  1.854382e+02  6.950874e-15
   endloop
 endfacet
 facet normal  3.543646e-16 -1.522881e-16  1.000000e+00
   outer loop
     vertex -5.537273e+00  1.830213e+02  1.671573e-15
     vertex -1.889755e+01  1.865157e+02  6.938132e-15
     vertex -1.914517e+01  1.859846e+02  6.945005e-15
   endloop
 endfacet
 facet normal  3.480561e-16 -1.764081e-16  1.000000e+00
   outer loop
     vertex -5.537273e+00  1.830213e+02  1.671573e-15
     vertex -1.861486e+01  1.870290e+02  6.930286e-15
     vertex -1.889755e+01  1.865157e+02  6.938132e-15
   endloop
 endfacet
 facet normal  3.405931e-16 -2.007611e-16  1.000000e+00
   outer loop
     vertex -5.537273e+00  1.830213e+02  1.671573e-15
     vertex -1.829839e+01  1.875221e+02  6.921502e-15
     vertex -1.861486e+01  1.870290e+02  6.930286e-15
   endloop
 endfacet
 facet normal  3.319164e-16 -2.253622e-16  1.000000e+00
   outer loop
     vertex -5.537273e+00  1.830213e+02  1.671573e-15
     vertex -1.794955e+01  1.879929e+02  6.911820e-15
     vertex -1.829839e+01  1.875221e+02  6.921502e-15
   endloop
 endfacet
 facet normal  3.219580e-16 -2.502246e-16  1.000000e+00
   outer loop
     vertex -5.537273e+00  1.830213e+02  1.671573e-15
     vertex -1.756992e+01  1.884393e+02  6.901283e-15
     vertex -1.794955e+01  1.879929e+02  6.911820e-15
   endloop
 endfacet
 facet normal  3.106406e-16 -2.753595e-16  1.000000e+00
   outer loop
     vertex -5.537273e+00  1.830213e+02  1.671573e-15
     vertex -1.716121e+01  1.888592e+02  6.889939e-15
     vertex -1.756992e+01  1.884393e+02  6.901283e-15
   endloop
 endfacet
 facet normal  2.978763e-16 -3.007750e-16  1.000000e+00
   outer loop
     vertex -5.537273e+00  1.830213e+02  1.671573e-15
     vertex -1.672525e+01  1.892507e+02  6.877839e-15
     vertex -1.716121e+01  1.888592e+02  6.889939e-15
   endloop
 endfacet
 facet normal  2.835664e-16 -3.264756e-16  1.000000e+00
   outer loop
     vertex -5.537273e+00  1.830213e+02  1.671573e-15
     vertex -1.626401e+01  1.896121e+02  6.865037e-15
     vertex -1.672525e+01  1.892507e+02  6.877839e-15
   endloop
 endfacet
 facet normal  2.554663e-16 -7.236476e-16  1.000000e+00
   outer loop
     vertex -5.537273e+00  1.830213e+02  1.671573e-15
     vertex -1.935661e+01  1.854382e+02  6.950874e-15
     vertex -5.556250e+00  1.825625e+02  1.344389e-15
   endloop
 endfacet
 facet normal  4.516921e-16 -5.284363e-17  1.000000e+00
   outer loop
     vertex -5.480470e+00  1.834770e+02  1.669997e-15
     vertex -1.626401e+01  1.896121e+02  6.865037e-15
     vertex -5.537273e+00  1.830213e+02  1.671573e-15
   endloop
 endfacet
 facet normal  2.750243e-16 -3.633714e-16  1.000000e+00
   outer loop
     vertex -5.480470e+00  1.834770e+02  1.669997e-15
     vertex -1.577958e+01  1.899417e+02  6.851591e-15
     vertex -1.626401e+01  1.896121e+02  6.865037e-15
   endloop
 endfacet
 facet normal  2.573559e-16 -3.915195e-16  1.000000e+00
   outer loop
     vertex -5.480470e+00  1.834770e+02  1.669997e-15
     vertex -1.527412e+01  1.902382e+02  6.837562e-15
     vertex -1.577958e+01  1.899417e+02  6.851591e-15
   endloop
 endfacet
 facet normal  2.029373e-15  2.175290e-15  1.000000e+00
   outer loop
     vertex -5.480470e+00  1.834770e+02  1.669997e-15
     vertex -1.474992e+01  1.905000e+02  5.204170e-15
     vertex -1.527412e+01  1.902382e+02  6.837562e-15
   endloop
 endfacet
 facet normal -1.540684e-17  3.462692e-16  1.000000e+00
   outer loop
     vertex  3.637419e+00  1.746250e+02  2.385245e-15
     vertex  9.145287e-01  1.770820e+02  1.492500e-15
     vertex  4.588315e-01  1.770252e+02  1.505148e-15
   endloop
 endfacet
 facet normal  1.193612e-17  3.824791e-16  1.000000e+00
   outer loop
     vertex  3.637419e+00  1.746250e+02  2.385245e-15
     vertex  4.588315e-01  1.770252e+02  1.505148e-15
     vertex  4.265403e-14  1.770062e+02  1.517883e-15
   endloop
 endfacet
 facet normal  4.570875e-17  4.340677e-16  1.000000e+00
   outer loop
     vertex  3.637419e+00  1.746250e+02  2.385245e-15
     vertex  4.265403e-14  1.770062e+02  1.517883e-15
     vertex -4.588315e-01  1.770252e+02  1.530618e-15
   endloop
 endfacet
 facet normal  9.163104e-17  5.124391e-16  1.000000e+00
   outer loop
     vertex  3.637419e+00  1.746250e+02  2.385245e-15
     vertex -4.588315e-01  1.770252e+02  1.530618e-15
     vertex -9.145287e-01  1.770820e+02  1.543266e-15
   endloop
 endfacet
 facet normal  1.628795e-16  6.444356e-16  1.000000e+00
   outer loop
     vertex  3.637419e+00  1.746250e+02  2.385245e-15
     vertex -9.145287e-01  1.770820e+02  1.543266e-15
     vertex -1.363979e+00  1.771763e+02  1.555741e-15
   endloop
 endfacet
 facet normal  2.004797e-16  7.181453e-16  1.000000e+00
   outer loop
     vertex  3.637419e+00  1.746250e+02  2.385245e-15
     vertex -1.363979e+00  1.771763e+02  1.555741e-15
     vertex -1.474992e+01  1.746250e+02  6.071532e-15
   endloop
 endfacet
 facet normal  3.328097e-16 -6.396312e-17  1.000000e+00
   outer loop
     vertex -5.386230e+00  1.839265e+02  1.667381e-15
     vertex -1.474992e+01  1.905000e+02  5.204170e-15
     vertex -5.480470e+00  1.834770e+02  1.669997e-15
   endloop
 endfacet
 facet normal -3.929796e-17  3.197930e-16  1.000000e+00
   outer loop
     vertex  1.363979e+00  1.771763e+02  1.480025e-15
     vertex  9.145287e-01  1.770820e+02  1.492500e-15
     vertex  3.637419e+00  1.746250e+02  2.385245e-15
   endloop
 endfacet
 facet normal  3.172157e-16 -8.617602e-17  1.000000e+00
   outer loop
     vertex -5.255197e+00  1.843666e+02  1.663744e-15
     vertex -1.474992e+01  1.905000e+02  5.204170e-15
     vertex -5.386230e+00  1.839265e+02  1.667381e-15
   endloop
 endfacet
 facet normal -6.154812e-17  2.999658e-16  1.000000e+00
   outer loop
     vertex  1.804111e+00  1.773073e+02  1.467809e-15
     vertex  1.363979e+00  1.771763e+02  1.480025e-15
     vertex  3.637419e+00  1.746250e+02  2.385245e-15
   endloop
 endfacet
 facet normal  3.034034e-16 -1.075581e-16  1.000000e+00
   outer loop
     vertex -5.088266e+00  1.847944e+02  1.659111e-15
     vertex -1.474992e+01  1.905000e+02  5.204170e-15
     vertex -5.255197e+00  1.843666e+02  1.663744e-15
   endloop
 endfacet
 facet normal -8.345025e-17  2.849961e-16  1.000000e+00
   outer loop
     vertex  2.231920e+00  1.774742e+02  1.455935e-15
     vertex  1.804111e+00  1.773073e+02  1.467809e-15
     vertex  3.637419e+00  1.746250e+02  2.385245e-15
   endloop
 endfacet
 facet normal  2.909401e-16 -1.286631e-16  1.000000e+00
   outer loop
     vertex -4.886576e+00  1.852070e+02  1.653513e-15
     vertex -1.474992e+01  1.905000e+02  5.204170e-15
     vertex -5.088266e+00  1.847944e+02  1.659111e-15
   endloop
 endfacet
 facet normal  2.775558e-17  2.320069e-31  1.000000e+00
   outer loop
     vertex  2.644483e+00  1.776759e+02  1.444484e-15
     vertex  4.161620e+00  1.748868e+02  1.402375e-15
     vertex  4.667077e+00  1.751833e+02  1.388346e-15
   endloop
 endfacet
 facet normal  1.480308e-15  7.901256e-16  1.000000e+00
   outer loop
     vertex  2.644483e+00  1.776759e+02  1.444484e-15
     vertex  3.637419e+00  1.746250e+02  2.385245e-15
     vertex  4.161620e+00  1.748868e+02  1.402375e-15
   endloop
 endfacet
 facet normal -1.061068e-16  2.738198e-16  1.000000e+00
   outer loop
     vertex  2.644483e+00  1.776759e+02  1.444484e-15
     vertex  2.231920e+00  1.774742e+02  1.455935e-15
     vertex  3.637419e+00  1.746250e+02  2.385245e-15
   endloop
 endfacet
 facet normal  2.794895e-16 -1.500008e-16  1.000000e+00
   outer loop
     vertex -4.651506e+00  1.856015e+02  1.646988e-15
     vertex -1.474992e+01  1.905000e+02  5.204170e-15
     vertex -4.886576e+00  1.852070e+02  1.653513e-15
   endloop
 endfacet
 facet normal  2.775558e-17  6.633565e-33  1.000000e+00
   outer loop
     vertex  3.038981e+00  1.779110e+02  1.433534e-15
     vertex  4.667077e+00  1.751833e+02  1.388346e-15
     vertex  5.151514e+00  1.755129e+02  1.374900e-15
   endloop
 endfacet
 facet normal  2.775558e-17  2.239085e-31  1.000000e+00
   outer loop
     vertex  3.038981e+00  1.779110e+02  1.433534e-15
     vertex  2.644483e+00  1.776759e+02  1.444484e-15
     vertex  4.667077e+00  1.751833e+02  1.388346e-15
   endloop
 endfacet
 facet normal  2.687766e-16 -1.720857e-16  1.000000e+00
   outer loop
     vertex -4.384662e+00  1.859752e+02  1.639582e-15
     vertex -1.474992e+01  1.905000e+02  5.204170e-15
     vertex -4.651506e+00  1.856015e+02  1.646988e-15
   endloop
 endfacet
 facet normal  2.775558e-17  3.317779e-32  1.000000e+00
   outer loop
     vertex  3.412719e+00  1.781778e+02  1.423161e-15
     vertex  5.151514e+00  1.755129e+02  1.374900e-15
     vertex  5.612749e+00  1.758743e+02  1.362098e-15
   endloop
 endfacet
 facet normal  2.775558e-17  1.730732e-31  1.000000e+00
   outer loop
     vertex  3.412719e+00  1.781778e+02  1.423161e-15
     vertex  3.038981e+00  1.779110e+02  1.433534e-15
     vertex  5.151514e+00  1.755129e+02  1.374900e-15
   endloop
 endfacet
 facet normal  2.585626e-16 -1.954836e-16  1.000000e+00
   outer loop
     vertex -4.087866e+00  1.863256e+02  1.631344e-15
     vertex -1.474992e+01  1.905000e+02  5.204170e-15
     vertex -4.384662e+00  1.859752e+02  1.639582e-15
   endloop
 endfacet
 facet normal  2.775558e-17 -1.160696e-31  1.000000e+00
   outer loop
     vertex  3.763146e+00  1.784746e+02  1.413435e-15
     vertex  3.412719e+00  1.781778e+02  1.423161e-15
     vertex  5.612749e+00  1.758743e+02  1.362098e-15
   endloop
 endfacet
 facet normal  2.775558e-17  1.990421e-31  1.000000e+00
   outer loop
     vertex  6.048706e+00  1.762658e+02  1.349998e-15
     vertex  3.763146e+00  1.784746e+02  1.413435e-15
     vertex  5.612749e+00  1.758743e+02  1.362098e-15
   endloop
 endfacet
 facet normal  2.486241e-16 -2.208685e-16  1.000000e+00
   outer loop
     vertex -3.763146e+00  1.866504e+02  1.622331e-15
     vertex -1.474992e+01  1.905000e+02  5.204170e-15
     vertex -4.087866e+00  1.863256e+02  1.631344e-15
   endloop
 endfacet
 facet normal  2.775558e-17  3.230543e-31  1.000000e+00
   outer loop
     vertex  4.087866e+00  1.787994e+02  1.404422e-15
     vertex  3.763146e+00  1.784746e+02  1.413435e-15
     vertex  6.048706e+00  1.762658e+02  1.349998e-15
   endloop
 endfacet
 facet normal  2.775558e-17  5.636443e-32  1.000000e+00
   outer loop
     vertex  6.457420e+00  1.766857e+02  1.338654e-15
     vertex  4.087866e+00  1.787994e+02  1.404422e-15
     vertex  6.048706e+00  1.762658e+02  1.349998e-15
   endloop
 endfacet
 facet normal  2.387322e-16 -2.490996e-16  1.000000e+00
   outer loop
     vertex -3.412719e+00  1.869472e+02  1.612605e-15
     vertex -1.474992e+01  1.905000e+02  5.204170e-15
     vertex -3.763146e+00  1.866504e+02  1.622331e-15
   endloop
 endfacet
 facet normal  2.775558e-17  2.352466e-31  1.000000e+00
   outer loop
     vertex  6.837051e+00  1.771321e+02  1.328117e-15
     vertex  4.087866e+00  1.787994e+02  1.404422e-15
     vertex  6.457420e+00  1.766857e+02  1.338654e-15
   endloop
 endfacet
 facet normal  2.775558e-17 -1.014324e-31  1.000000e+00
   outer loop
     vertex  6.837051e+00  1.771321e+02  1.328117e-15
     vertex  4.384662e+00  1.791498e+02  1.396184e-15
     vertex  4.087866e+00  1.787994e+02  1.404422e-15
   endloop
 endfacet
 facet normal  2.286287e-16 -2.813403e-16  1.000000e+00
   outer loop
     vertex -3.038981e+00  1.872140e+02  1.602232e-15
     vertex -1.474992e+01  1.905000e+02  5.204170e-15
     vertex -3.412719e+00  1.869472e+02  1.612605e-15
   endloop
 endfacet
 facet normal  2.775558e-17  6.755308e-32  1.000000e+00
   outer loop
     vertex  7.185888e+00  1.776029e+02  1.318435e-15
     vertex  4.651506e+00  1.795235e+02  1.388778e-15
     vertex  4.384662e+00  1.791498e+02  1.396184e-15
   endloop
 endfacet
 facet normal  2.775558e-17  3.150366e-32  1.000000e+00
   outer loop
     vertex  7.185888e+00  1.776029e+02  1.318435e-15
     vertex  4.384662e+00  1.791498e+02  1.396184e-15
     vertex  6.837051e+00  1.771321e+02  1.328117e-15
   endloop
 endfacet
 facet normal  2.179902e-16 -3.192548e-16  1.000000e+00
   outer loop
     vertex -2.644483e+00  1.874491e+02  1.591282e-15
     vertex -1.474992e+01  1.905000e+02  5.204170e-15
     vertex -3.038981e+00  1.872140e+02  1.602232e-15
   endloop
 endfacet
 facet normal  2.063699e-16 -3.653615e-16  1.000000e+00
   outer loop
     vertex -2.231920e+00  1.876508e+02  1.579831e-15
     vertex -1.474992e+01  1.905000e+02  5.204170e-15
     vertex -2.644483e+00  1.874491e+02  1.591282e-15
   endloop
 endfacet
 facet normal  2.775558e-17  1.625632e-31  1.000000e+00
   outer loop
     vertex  7.502362e+00  1.780960e+02  1.309651e-15
     vertex  4.651506e+00  1.795235e+02  1.388778e-15
     vertex  7.185888e+00  1.776029e+02  1.318435e-15
   endloop
 endfacet
 facet normal  2.775558e-17  1.350590e-31  1.000000e+00
   outer loop
     vertex  7.502362e+00  1.780960e+02  1.309651e-15
     vertex  4.886576e+00  1.799180e+02  1.382253e-15
     vertex  4.651506e+00  1.795235e+02  1.388778e-15
   endloop
 endfacet
 facet normal  1.930886e-16 -4.237123e-16  1.000000e+00
   outer loop
     vertex -1.804111e+00  1.878177e+02  1.567957e-15
     vertex -1.474992e+01  1.905000e+02  5.204170e-15
     vertex -2.231920e+00  1.876508e+02  1.579831e-15
   endloop
 endfacet
 facet normal  2.775558e-17 -1.210943e-31  1.000000e+00
   outer loop
     vertex  7.785046e+00  1.786093e+02  1.301805e-15
     vertex  4.886576e+00  1.799180e+02  1.382253e-15
     vertex  7.502362e+00  1.780960e+02  1.309651e-15
   endloop
 endfacet
 facet normal  2.775558e-17 -8.443853e-32  1.000000e+00
   outer loop
     vertex  7.785046e+00  1.786093e+02  1.301805e-15
     vertex  5.088266e+00  1.803306e+02  1.376655e-15
     vertex  4.886576e+00  1.799180e+02  1.382253e-15
   endloop
 endfacet
 facet normal  1.770072e-16 -5.013274e-16  1.000000e+00
   outer loop
     vertex -1.363979e+00  1.879487e+02  1.555741e-15
     vertex -1.474992e+01  1.905000e+02  5.204170e-15
     vertex -1.804111e+00  1.878177e+02  1.567957e-15
   endloop
 endfacet
 facet normal  2.775558e-17  1.690426e-31  1.000000e+00
   outer loop
     vertex  8.032667e+00  1.791404e+02  1.294932e-15
     vertex  5.255197e+00  1.807584e+02  1.372022e-15
     vertex  5.088266e+00  1.803306e+02  1.376655e-15
   endloop
 endfacet
 facet normal  2.775558e-17  2.669606e-31  1.000000e+00
   outer loop
     vertex  8.032667e+00  1.791404e+02  1.294932e-15
     vertex  5.088266e+00  1.803306e+02  1.376655e-15
     vertex  7.785046e+00  1.786093e+02  1.301805e-15
   endloop
 endfacet
 facet normal  2.775558e-17  3.313509e-31  1.000000e+00
   outer loop
     vertex  8.244111e+00  1.796868e+02  1.289063e-15
     vertex  5.255197e+00  1.807584e+02  1.372022e-15
     vertex  8.032667e+00  1.791404e+02  1.294932e-15
   endloop
 endfacet
 facet normal  2.775558e-17  2.364946e-31  1.000000e+00
   outer loop
     vertex  8.418424e+00  1.802463e+02  1.284225e-15
     vertex  5.386230e+00  1.811985e+02  1.368385e-15
     vertex  5.255197e+00  1.807584e+02  1.372022e-15
   endloop
 endfacet
 facet normal  2.775558e-17 -6.796624e-32  1.000000e+00
   outer loop
     vertex  8.418424e+00  1.802463e+02  1.284225e-15
     vertex  5.255197e+00  1.807584e+02  1.372022e-15
     vertex  8.244111e+00  1.796868e+02  1.289063e-15
   endloop
 endfacet
 facet normal  2.775558e-17 -1.012982e-31  1.000000e+00
   outer loop
     vertex  8.554822e+00  1.808161e+02  1.280439e-15
     vertex  5.480470e+00  1.816480e+02  1.365769e-15
     vertex  5.386230e+00  1.811985e+02  1.368385e-15
   endloop
 endfacet
 facet normal  2.775558e-17  1.807935e-31  1.000000e+00
   outer loop
     vertex  8.554822e+00  1.808161e+02  1.280439e-15
     vertex  5.386230e+00  1.811985e+02  1.368385e-15
     vertex  8.418424e+00  1.802463e+02  1.284225e-15
   endloop
 endfacet
 facet normal  2.775558e-17  3.376961e-31  1.000000e+00
   outer loop
     vertex  8.652690e+00  1.813939e+02  1.277723e-15
     vertex  5.537273e+00  1.821037e+02  1.364193e-15
     vertex  5.480470e+00  1.816480e+02  1.365769e-15
   endloop
 endfacet
 facet normal  2.775558e-17 -3.193374e-31  1.000000e+00
   outer loop
     vertex  8.652690e+00  1.813939e+02  1.277723e-15
     vertex  5.480470e+00  1.816480e+02  1.365769e-15
     vertex  8.554822e+00  1.808161e+02  1.280439e-15
   endloop
 endfacet
 facet normal  2.775558e-17 -7.435033e-31  1.000000e+00
   outer loop
     vertex  8.711588e+00  1.819769e+02  1.276088e-15
     vertex  5.556250e+00  1.825625e+02  1.363666e-15
     vertex  5.537273e+00  1.821037e+02  1.364193e-15
   endloop
 endfacet
 facet normal  2.775558e-17  2.628617e-31  1.000000e+00
   outer loop
     vertex  8.711588e+00  1.819769e+02  1.276088e-15
     vertex  5.537273e+00  1.821037e+02  1.364193e-15
     vertex  8.652690e+00  1.813939e+02  1.277723e-15
   endloop
 endfacet
 facet normal  2.775558e-17  2.507655e-31  1.000000e+00
   outer loop
     vertex  8.731250e+00  1.825625e+02  1.275542e-15
     vertex  5.556250e+00  1.825625e+02  1.363666e-15
     vertex  8.711588e+00  1.819769e+02  1.276088e-15
   endloop
 endfacet
 facet normal  2.775558e-17  8.110946e-31  1.000000e+00
   outer loop
     vertex  8.711588e+00  1.831481e+02  1.276088e-15
     vertex  5.537273e+00  1.830213e+02  1.364193e-15
     vertex  5.556250e+00  1.825625e+02  1.363666e-15
   endloop
 endfacet
 facet normal  2.775558e-17 -1.665555e-31  1.000000e+00
   outer loop
     vertex  8.711588e+00  1.831481e+02  1.276088e-15
     vertex  5.556250e+00  1.825625e+02  1.363666e-15
     vertex  8.731250e+00  1.825625e+02  1.275542e-15
   endloop
 endfacet
 facet normal  2.775558e-17  2.363873e-31  1.000000e+00
   outer loop
     vertex  8.652690e+00  1.837311e+02  1.277723e-15
     vertex  5.480470e+00  1.834770e+02  1.365769e-15
     vertex  5.537273e+00  1.830213e+02  1.364193e-15
   endloop
 endfacet
 facet normal  2.775558e-17  3.275405e-31  1.000000e+00
   outer loop
     vertex  8.652690e+00  1.837311e+02  1.277723e-15
     vertex  5.537273e+00  1.830213e+02  1.364193e-15
     vertex  8.711588e+00  1.831481e+02  1.276088e-15
   endloop
 endfacet
 facet normal  2.775558e-17  1.350643e-31  1.000000e+00
   outer loop
     vertex  8.554822e+00  1.843089e+02  1.280439e-15
     vertex  5.386230e+00  1.839265e+02  1.368385e-15
     vertex  5.480470e+00  1.834770e+02  1.365769e-15
   endloop
 endfacet
 facet normal  2.775558e-17  7.382086e-32  1.000000e+00
   outer loop
     vertex  8.554822e+00  1.843089e+02  1.280439e-15
     vertex  5.480470e+00  1.834770e+02  1.365769e-15
     vertex  8.652690e+00  1.837311e+02  1.277723e-15
   endloop
 endfacet
 facet normal  2.775558e-17  2.364946e-31  1.000000e+00
   outer loop
     vertex  8.418424e+00  1.848787e+02  1.284225e-15
     vertex  5.255197e+00  1.843666e+02  1.372022e-15
     vertex  5.386230e+00  1.839265e+02  1.368385e-15
   endloop
 endfacet
 facet normal  2.775558e-17 -1.658656e-32  1.000000e+00
   outer loop
     vertex  8.418424e+00  1.848787e+02  1.284225e-15
     vertex  5.386230e+00  1.839265e+02  1.368385e-15
     vertex  8.554822e+00  1.843089e+02  1.280439e-15
   endloop
 endfacet
 facet normal  2.775558e-17  2.188181e-31  1.000000e+00
   outer loop
     vertex  8.244111e+00  1.854382e+02  1.289063e-15
     vertex  5.255197e+00  1.843666e+02  1.372022e-15
     vertex  8.418424e+00  1.848787e+02  1.284225e-15
   endloop
 endfacet
 facet normal  2.775558e-17 -6.761705e-32  1.000000e+00
   outer loop
     vertex  8.032667e+00  1.859846e+02  1.294932e-15
     vertex  5.088266e+00  1.847944e+02  1.376655e-15
     vertex  5.255197e+00  1.843666e+02  1.372022e-15
   endloop
 endfacet
 facet normal  2.775558e-17 -1.010620e-31  1.000000e+00
   outer loop
     vertex  8.032667e+00  1.859846e+02  1.294932e-15
     vertex  5.255197e+00  1.843666e+02  1.372022e-15
     vertex  8.244111e+00  1.854382e+02  1.289063e-15
   endloop
 endfacet
 facet normal  9.434337e-17 -9.350460e-16  1.000000e+00
   outer loop
     vertex  3.637419e+00  1.905000e+02  3.469447e-15
     vertex -1.474992e+01  1.905000e+02  5.204170e-15
     vertex -1.363979e+00  1.879487e+02  1.555741e-15
   endloop
 endfacet
 facet normal  3.141741e-16 -1.365993e-15  1.000000e+00
   outer loop
     vertex  3.637419e+00  1.905000e+02  3.469447e-15
     vertex -1.363979e+00  1.879487e+02  1.555741e-15
     vertex -9.145287e-01  1.880430e+02  1.543266e-15
   endloop
 endfacet
 facet normal  1.631507e-16 -1.086203e-15  1.000000e+00
   outer loop
     vertex  3.637419e+00  1.905000e+02  3.469447e-15
     vertex -9.145287e-01  1.880430e+02  1.543266e-15
     vertex -4.588315e-01  1.880998e+02  1.530618e-15
   endloop
 endfacet
 facet normal  6.581043e-17 -9.200815e-16  1.000000e+00
   outer loop
     vertex  3.637419e+00  1.905000e+02  3.469447e-15
     vertex -4.588315e-01  1.880998e+02  1.530618e-15
     vertex  4.129314e-14  1.881188e+02  1.517883e-15
   endloop
 endfacet
 facet normal -5.776493e-18 -8.107307e-16  1.000000e+00
   outer loop
     vertex  3.637419e+00  1.905000e+02  3.469447e-15
     vertex  4.129314e-14  1.881188e+02  1.517883e-15
     vertex  4.588315e-01  1.880998e+02  1.505148e-15
   endloop
 endfacet
 facet normal -6.373463e-17 -7.339775e-16  1.000000e+00
   outer loop
     vertex  3.637419e+00  1.905000e+02  3.469447e-15
     vertex  4.588315e-01  1.880998e+02  1.505148e-15
     vertex  9.145287e-01  1.880430e+02  1.492500e-15
   endloop
 endfacet
 facet normal -1.143760e-16 -6.778565e-16  1.000000e+00
   outer loop
     vertex  3.637419e+00  1.905000e+02  3.469447e-15
     vertex  9.145287e-01  1.880430e+02  1.492500e-15
     vertex  1.363979e+00  1.879487e+02  1.480025e-15
   endloop
 endfacet
 facet normal -1.615391e-16 -6.358295e-16  1.000000e+00
   outer loop
     vertex  3.637419e+00  1.905000e+02  3.469447e-15
     vertex  1.363979e+00  1.879487e+02  1.480025e-15
     vertex  1.804111e+00  1.878177e+02  1.467809e-15
   endloop
 endfacet
 facet normal -2.079644e-16 -6.040985e-16  1.000000e+00
   outer loop
     vertex  3.637419e+00  1.905000e+02  3.469447e-15
     vertex  1.804111e+00  1.878177e+02  1.467809e-15
     vertex  2.231920e+00  1.876508e+02  1.455935e-15
   endloop
 endfacet
 facet normal -2.559889e-16 -5.804085e-16  1.000000e+00
   outer loop
     vertex  3.637419e+00  1.905000e+02  3.469447e-15
     vertex  2.231920e+00  1.876508e+02  1.455935e-15
     vertex  2.644483e+00  1.874491e+02  1.444484e-15
   endloop
 endfacet
 facet normal  2.775558e-17  1.688771e-31  1.000000e+00
   outer loop
     vertex  7.785046e+00  1.865157e+02  1.301805e-15
     vertex  4.886576e+00  1.852070e+02  1.382253e-15
     vertex  5.088266e+00  1.847944e+02  1.376655e-15
   endloop
 endfacet
 facet normal  2.775558e-17  1.641559e-31  1.000000e+00
   outer loop
     vertex  7.785046e+00  1.865157e+02  1.301805e-15
     vertex  5.088266e+00  1.847944e+02  1.376655e-15
     vertex  8.032667e+00  1.859846e+02  1.294932e-15
   endloop
 endfacet
 facet normal  3.106692e-15 -1.674808e-15  1.000000e+00
   outer loop
     vertex  4.161620e+00  1.902382e+02  1.402375e-15
     vertex  3.637419e+00  1.905000e+02  3.469447e-15
     vertex  2.644483e+00  1.874491e+02  1.444484e-15
   endloop
 endfacet
 facet normal  2.775558e-17 -1.688238e-32  1.000000e+00
   outer loop
     vertex  7.502362e+00  1.870290e+02  1.309651e-15
     vertex  4.651506e+00  1.856015e+02  1.388778e-15
     vertex  4.886576e+00  1.852070e+02  1.382253e-15
   endloop
 endfacet
 facet normal  2.775558e-17  2.388709e-31  1.000000e+00
   outer loop
     vertex  7.502362e+00  1.870290e+02  1.309651e-15
     vertex  4.886576e+00  1.852070e+02  1.382253e-15
     vertex  7.785046e+00  1.865157e+02  1.301805e-15
   endloop
 endfacet
 facet normal  2.775558e-17  1.358897e-31  1.000000e+00
   outer loop
     vertex  4.667077e+00  1.899417e+02  1.388346e-15
     vertex  4.161620e+00  1.902382e+02  1.402375e-15
     vertex  2.644483e+00  1.874491e+02  1.444484e-15
   endloop
 endfacet
 facet normal  2.775558e-17  4.224689e-32  1.000000e+00
   outer loop
     vertex  4.667077e+00  1.899417e+02  1.388346e-15
     vertex  2.644483e+00  1.874491e+02  1.444484e-15
     vertex  3.038981e+00  1.872140e+02  1.433534e-15
   endloop
 endfacet
 facet normal  2.775558e-17  3.377654e-32  1.000000e+00
   outer loop
     vertex  7.185888e+00  1.875221e+02  1.318435e-15
     vertex  4.384662e+00  1.859752e+02  1.396184e-15
     vertex  4.651506e+00  1.856015e+02  1.388778e-15
   endloop
 endfacet
 facet normal  2.775558e-17 -4.147019e-32  1.000000e+00
   outer loop
     vertex  7.185888e+00  1.875221e+02  1.318435e-15
     vertex  4.651506e+00  1.856015e+02  1.388778e-15
     vertex  7.502362e+00  1.870290e+02  1.309651e-15
   endloop
 endfacet
 facet normal  2.775558e-17  3.316783e-32  1.000000e+00
   outer loop
     vertex  5.151514e+00  1.896121e+02  1.374900e-15
     vertex  4.667077e+00  1.899417e+02  1.388346e-15
     vertex  3.038981e+00  1.872140e+02  1.433534e-15
   endloop
 endfacet
 facet normal  2.775558e-17  1.857371e-31  1.000000e+00
   outer loop
     vertex  5.151514e+00  1.896121e+02  1.374900e-15
     vertex  3.038981e+00  1.872140e+02  1.433534e-15
     vertex  3.412719e+00  1.869472e+02  1.423161e-15
   endloop
 endfacet
 facet normal  2.775558e-17  1.724411e-31  1.000000e+00
   outer loop
     vertex  6.837051e+00  1.879929e+02  1.328117e-15
     vertex  4.384662e+00  1.859752e+02  1.396184e-15
     vertex  7.185888e+00  1.875221e+02  1.318435e-15
   endloop
 endfacet
 facet normal  2.775558e-17  2.535809e-31  1.000000e+00
   outer loop
     vertex  6.837051e+00  1.879929e+02  1.328117e-15
     vertex  4.087866e+00  1.863256e+02  1.404422e-15
     vertex  4.384662e+00  1.859752e+02  1.396184e-15
   endloop
 endfacet
 facet normal  2.775558e-17 -1.327111e-32  1.000000e+00
   outer loop
     vertex  5.612749e+00  1.892507e+02  1.362098e-15
     vertex  5.151514e+00  1.896121e+02  1.374900e-15
     vertex  3.412719e+00  1.869472e+02  1.423161e-15
   endloop
 endfacet
 facet normal  2.775558e-17 -6.753141e-32  1.000000e+00
   outer loop
     vertex  5.612749e+00  1.892507e+02  1.362098e-15
     vertex  3.412719e+00  1.869472e+02  1.423161e-15
     vertex  3.763146e+00  1.866504e+02  1.413435e-15
   endloop
 endfacet
 facet normal  2.775558e-17 -1.988000e-32  1.000000e+00
   outer loop
     vertex  6.457420e+00  1.884393e+02  1.338654e-15
     vertex  4.087866e+00  1.863256e+02  1.404422e-15
     vertex  6.837051e+00  1.879929e+02  1.328117e-15
   endloop
 endfacet
 facet normal  2.775558e-17  1.973835e-31  1.000000e+00
   outer loop
     vertex  6.048706e+00  1.888592e+02  1.349998e-15
     vertex  5.612749e+00  1.892507e+02  1.362098e-15
     vertex  3.763146e+00  1.866504e+02  1.413435e-15
   endloop
 endfacet
 facet normal  2.775558e-17  1.044400e-31  1.000000e+00
   outer loop
     vertex  6.048706e+00  1.888592e+02  1.349998e-15
     vertex  4.087866e+00  1.863256e+02  1.404422e-15
     vertex  6.457420e+00  1.884393e+02  1.338654e-15
   endloop
 endfacet
 facet normal  2.775558e-17  8.445865e-32  1.000000e+00
   outer loop
     vertex  6.048706e+00  1.888592e+02  1.349998e-15
     vertex  3.763146e+00  1.866504e+02  1.413435e-15
     vertex  4.087866e+00  1.863256e+02  1.404422e-15
   endloop
 endfacet
endsolid
