solid 
 facet normal -4.468681e-01 -8.945999e-01 -1.591637e-16
   outer loop
     vertex -4.161620e+00 -1.902382e+02 -2.312670e+02
     vertex -3.637419e+00 -1.905000e+02 -2.312670e+02
     vertex -3.637419e+00 -1.905000e+02 -2.276958e+02
   endloop
 endfacet
 facet normal -4.468681e-01 -8.945999e-01 -1.444787e-15
   outer loop
     vertex -4.161620e+00 -1.902382e+02 -2.312670e+02
     vertex -3.637419e+00 -1.905000e+02 -2.276958e+02
     vertex -4.161620e+00 -1.902382e+02 -2.276958e+02
   endloop
 endfacet
 facet normal -5.058652e-01 -8.626125e-01 -1.383913e-15
   outer loop
     vertex -4.667077e+00 -1.899417e+02 -2.312670e+02
     vertex -4.161620e+00 -1.902382e+02 -2.276958e+02
     vertex -4.667077e+00 -1.899417e+02 -2.276958e+02
   endloop
 endfacet
 facet normal -5.058652e-01 -8.626125e-01 -1.631428e-15
   outer loop
     vertex -4.667077e+00 -1.899417e+02 -2.312670e+02
     vertex -4.161620e+00 -1.902382e+02 -2.312670e+02
     vertex -4.161620e+00 -1.902382e+02 -2.276958e+02
   endloop
 endfacet
 facet normal -5.625840e-01 -8.267401e-01 -1.259247e-15
   outer loop
     vertex -5.151514e+00 -1.896121e+02 -2.312670e+02
     vertex -4.667077e+00 -1.899417e+02 -2.276958e+02
     vertex -5.151514e+00 -1.896121e+02 -2.276958e+02
   endloop
 endfacet
 facet normal -5.625840e-01 -8.267401e-01 -1.538582e-15
   outer loop
     vertex -5.151514e+00 -1.896121e+02 -2.312670e+02
     vertex -4.667077e+00 -1.899417e+02 -2.312670e+02
     vertex -4.667077e+00 -1.899417e+02 -2.276958e+02
   endloop
 endfacet
 facet normal -6.167690e-01 -7.871442e-01 -1.533924e-15
   outer loop
     vertex -5.612749e+00 -1.892507e+02 -2.312670e+02
     vertex -5.151514e+00 -1.896121e+02 -2.276958e+02
     vertex -5.612749e+00 -1.892507e+02 -2.276958e+02
   endloop
 endfacet
 facet normal -6.167690e-01 -7.871442e-01 -1.379419e-15
   outer loop
     vertex -5.612749e+00 -1.892507e+02 -2.312670e+02
     vertex -5.151514e+00 -1.896121e+02 -2.312670e+02
     vertex -5.151514e+00 -1.896121e+02 -2.276958e+02
   endloop
 endfacet
 facet normal -6.681761e-01 -7.440031e-01  4.425551e-15
   outer loop
     vertex -6.048706e+00 -1.888592e+02 -2.312670e+02
     vertex -5.612749e+00 -1.892507e+02 -2.276958e+02
     vertex -6.048706e+00 -1.888592e+02 -2.276958e+02
   endloop
 endfacet
 facet normal -6.681761e-01 -7.440031e-01 -1.671219e-15
   outer loop
     vertex -6.048706e+00 -1.888592e+02 -2.312670e+02
     vertex -5.612749e+00 -1.892507e+02 -2.312670e+02
     vertex -5.612749e+00 -1.892507e+02 -2.276958e+02
   endloop
 endfacet
 facet normal -7.165739e-01 -6.975111e-01  4.125428e-15
   outer loop
     vertex -6.457420e+00 -1.884393e+02 -2.312670e+02
     vertex -6.048706e+00 -1.888592e+02 -2.276958e+02
     vertex -6.457420e+00 -1.884393e+02 -2.276958e+02
   endloop
 endfacet
 facet normal -7.165739e-01 -6.975111e-01  3.952565e-15
   outer loop
     vertex -6.457420e+00 -1.884393e+02 -2.312670e+02
     vertex -6.048706e+00 -1.888592e+02 -2.312670e+02
     vertex -6.048706e+00 -1.888592e+02 -2.276958e+02
   endloop
 endfacet
 facet normal -7.617444e-01 -6.478777e-01  3.634238e-15
   outer loop
     vertex -6.837051e+00 -1.879929e+02 -2.312670e+02
     vertex -6.457420e+00 -1.884393e+02 -2.312670e+02
     vertex -6.457420e+00 -1.884393e+02 -2.276958e+02
   endloop
 endfacet
 facet normal -7.617444e-01 -6.478777e-01  4.019445e-15
   outer loop
     vertex -6.837051e+00 -1.879929e+02 -2.312670e+02
     vertex -6.457420e+00 -1.884393e+02 -2.276958e+02
     vertex -6.837051e+00 -1.879929e+02 -2.276958e+02
   endloop
 endfacet
 facet normal -8.034841e-01 -5.953263e-01  3.541392e-15
   outer loop
     vertex -7.185888e+00 -1.875221e+02 -2.312670e+02
     vertex -6.837051e+00 -1.879929e+02 -2.312670e+02
     vertex -6.837051e+00 -1.879929e+02 -2.276958e+02
   endloop
 endfacet
 facet normal -8.034841e-01 -5.953263e-01 -9.991448e-16
   outer loop
     vertex -7.185888e+00 -1.875221e+02 -2.312670e+02
     vertex -6.837051e+00 -1.879929e+02 -2.276958e+02
     vertex -7.185888e+00 -1.875221e+02 -2.276958e+02
   endloop
 endfacet
 facet normal -8.416050e-01 -5.400936e-01 -1.047828e-15
   outer loop
     vertex -7.502362e+00 -1.870290e+02 -2.312670e+02
     vertex -7.185888e+00 -1.875221e+02 -2.312670e+02
     vertex -7.185888e+00 -1.875221e+02 -2.276958e+02
   endloop
 endfacet
 facet normal -8.416050e-01 -5.400936e-01  3.251786e-15
   outer loop
     vertex -7.502362e+00 -1.870290e+02 -2.312670e+02
     vertex -7.185888e+00 -1.875221e+02 -2.276958e+02
     vertex -7.502362e+00 -1.870290e+02 -2.276958e+02
   endloop
 endfacet
 facet normal -8.759354e-01 -4.824284e-01  2.745574e-15
   outer loop
     vertex -7.785046e+00 -1.865157e+02 -2.312670e+02
     vertex -7.502362e+00 -1.870290e+02 -2.312670e+02
     vertex -7.502362e+00 -1.870290e+02 -2.276958e+02
   endloop
 endfacet
 facet normal -8.759354e-01 -4.824284e-01  3.185863e-15
   outer loop
     vertex -7.785046e+00 -1.865157e+02 -2.312670e+02
     vertex -7.502362e+00 -1.870290e+02 -2.276958e+02
     vertex -7.785046e+00 -1.865157e+02 -2.276958e+02
   endloop
 endfacet
 facet normal -9.063207e-01 -4.225905e-01  2.679256e-15
   outer loop
     vertex -8.032667e+00 -1.859846e+02 -2.312670e+02
     vertex -7.785046e+00 -1.865157e+02 -2.312670e+02
     vertex -7.785046e+00 -1.865157e+02 -2.276958e+02
   endloop
 endfacet
 facet normal -9.063207e-01 -4.225905e-01  2.912376e-15
   outer loop
     vertex -8.032667e+00 -1.859846e+02 -2.312670e+02
     vertex -7.785046e+00 -1.865157e+02 -2.276958e+02
     vertex -8.032667e+00 -1.859846e+02 -2.276958e+02
   endloop
 endfacet
 facet normal -9.326242e-01 -3.608492e-01  2.407351e-15
   outer loop
     vertex -8.244111e+00 -1.854382e+02 -2.312670e+02
     vertex -8.032667e+00 -1.859846e+02 -2.312670e+02
     vertex -8.032667e+00 -1.859846e+02 -2.276958e+02
   endloop
 endfacet
 facet normal -9.326242e-01 -3.608492e-01 -4.638930e-16
   outer loop
     vertex -8.244111e+00 -1.854382e+02 -2.312670e+02
     vertex -8.032667e+00 -1.859846e+02 -2.276958e+02
     vertex -8.244111e+00 -1.854382e+02 -2.276958e+02
   endloop
 endfacet
 facet normal -9.547272e-01 -2.974828e-01 -4.708593e-16
   outer loop
     vertex -8.418424e+00 -1.848787e+02 -2.312670e+02
     vertex -8.244111e+00 -1.854382e+02 -2.312670e+02
     vertex -8.244111e+00 -1.854382e+02 -2.276958e+02
   endloop
 endfacet
 facet normal -9.547272e-01 -2.974828e-01  2.367516e-15
   outer loop
     vertex -8.418424e+00 -1.848787e+02 -2.312670e+02
     vertex -8.244111e+00 -1.854382e+02 -2.276958e+02
     vertex -8.418424e+00 -1.848787e+02 -2.276958e+02
   endloop
 endfacet
 facet normal -9.725303e-01 -2.327765e-01  1.850278e-15
   outer loop
     vertex -8.554822e+00 -1.843089e+02 -2.312670e+02
     vertex -8.418424e+00 -1.848787e+02 -2.312670e+02
     vertex -8.418424e+00 -1.848787e+02 -2.276958e+02
   endloop
 endfacet
 facet normal -9.725303e-01 -2.327765e-01  2.336294e-15
   outer loop
     vertex -8.554822e+00 -1.843089e+02 -2.312670e+02
     vertex -8.418424e+00 -1.848787e+02 -2.276958e+02
     vertex -8.554822e+00 -1.843089e+02 -2.276958e+02
   endloop
 endfacet
 facet normal -9.859532e-01 -1.670219e-01  1.820435e-15
   outer loop
     vertex -8.652690e+00 -1.837311e+02 -2.312670e+02
     vertex -8.554822e+00 -1.843089e+02 -2.312670e+02
     vertex -8.554822e+00 -1.843089e+02 -2.276958e+02
   endloop
 endfacet
 facet normal -9.859532e-01 -1.670219e-01  2.310082e-15
   outer loop
     vertex -8.652690e+00 -1.837311e+02 -2.312670e+02
     vertex -8.554822e+00 -1.843089e+02 -2.276958e+02
     vertex -8.652690e+00 -1.837311e+02 -2.276958e+02
   endloop
 endfacet
 facet normal -9.949355e-01 -1.005150e-01  1.790592e-15
   outer loop
     vertex -8.711588e+00 -1.831481e+02 -2.312670e+02
     vertex -8.652690e+00 -1.837311e+02 -2.312670e+02
     vertex -8.652690e+00 -1.837311e+02 -2.276958e+02
   endloop
 endfacet
 facet normal -9.949355e-01 -1.005150e-01  2.284610e-15
   outer loop
     vertex -8.711588e+00 -1.831481e+02 -2.312670e+02
     vertex -8.652690e+00 -1.837311e+02 -2.276958e+02
     vertex -8.711588e+00 -1.831481e+02 -2.276958e+02
   endloop
 endfacet
 facet normal -9.994369e-01 -3.355537e-02  1.758262e-15
   outer loop
     vertex -8.731250e+00 -1.825625e+02 -2.312670e+02
     vertex -8.711588e+00 -1.831481e+02 -2.312670e+02
     vertex -8.711588e+00 -1.831481e+02 -2.276958e+02
   endloop
 endfacet
 facet normal -9.994369e-01 -3.355537e-02  1.758429e-15
   outer loop
     vertex -8.731250e+00 -1.825625e+02 -2.312670e+02
     vertex -8.711588e+00 -1.831481e+02 -2.276958e+02
     vertex -8.731250e+00 -1.825625e+02 -2.276958e+02
   endloop
 endfacet
 facet normal -9.994369e-01  3.355537e-02  1.224400e-15
   outer loop
     vertex -8.711588e+00 -1.819769e+02 -2.312670e+02
     vertex -8.731250e+00 -1.825625e+02 -2.312670e+02
     vertex -8.731250e+00 -1.825625e+02 -2.276958e+02
   endloop
 endfacet
 facet normal -9.994369e-01  3.355537e-02  1.721454e-15
   outer loop
     vertex -8.711588e+00 -1.819769e+02 -2.312670e+02
     vertex -8.731250e+00 -1.825625e+02 -2.276958e+02
     vertex -8.711588e+00 -1.819769e+02 -2.276958e+02
   endloop
 endfacet
 facet normal -9.949355e-01  1.005150e-01  1.674487e-15
   outer loop
     vertex -8.652690e+00 -1.813939e+02 -2.312670e+02
     vertex -8.711588e+00 -1.819769e+02 -2.276958e+02
     vertex -8.652690e+00 -1.813939e+02 -2.276958e+02
   endloop
 endfacet
 facet normal -9.949355e-01  1.005150e-01  1.177148e-15
   outer loop
     vertex -8.652690e+00 -1.813939e+02 -2.312670e+02
     vertex -8.711588e+00 -1.819769e+02 -2.312670e+02
     vertex -8.711588e+00 -1.819769e+02 -2.276958e+02
   endloop
 endfacet
 facet normal -9.859532e-01  1.670219e-01  1.122853e-15
   outer loop
     vertex -8.554822e+00 -1.808161e+02 -2.312670e+02
     vertex -8.652690e+00 -1.813939e+02 -2.276958e+02
     vertex -8.554822e+00 -1.808161e+02 -2.276958e+02
   endloop
 endfacet
 facet normal -9.859532e-01  1.670219e-01  1.124094e-15
   outer loop
     vertex -8.554822e+00 -1.808161e+02 -2.312670e+02
     vertex -8.652690e+00 -1.813939e+02 -2.312670e+02
     vertex -8.652690e+00 -1.813939e+02 -2.276958e+02
   endloop
 endfacet
 facet normal -9.725303e-01  2.327765e-01  5.661610e-16
   outer loop
     vertex -8.418424e+00 -1.802463e+02 -2.312670e+02
     vertex -8.554822e+00 -1.808161e+02 -2.276958e+02
     vertex -8.418424e+00 -1.802463e+02 -2.276958e+02
   endloop
 endfacet
 facet normal -9.725303e-01  2.327765e-01  5.703366e-16
   outer loop
     vertex -8.418424e+00 -1.802463e+02 -2.312670e+02
     vertex -8.554822e+00 -1.808161e+02 -2.312670e+02
     vertex -8.554822e+00 -1.808161e+02 -2.276958e+02
   endloop
 endfacet
 facet normal -9.547272e-01  2.974828e-01  2.374436e-15
   outer loop
     vertex -8.244111e+00 -1.796868e+02 -2.312670e+02
     vertex -8.418424e+00 -1.802463e+02 -2.276958e+02
     vertex -8.244111e+00 -1.796868e+02 -2.276958e+02
   endloop
 endfacet
 facet normal -9.547272e-01  2.974828e-01  6.631821e-18
   outer loop
     vertex -8.244111e+00 -1.796868e+02 -2.312670e+02
     vertex -8.418424e+00 -1.802463e+02 -2.312670e+02
     vertex -8.418424e+00 -1.802463e+02 -2.276958e+02
   endloop
 endfacet
 facet normal -9.326242e-01  3.608492e-01 -5.523532e-16
   outer loop
     vertex -8.032667e+00 -1.791404e+02 -2.312670e+02
     vertex -8.244111e+00 -1.796868e+02 -2.276958e+02
     vertex -8.032667e+00 -1.791404e+02 -2.276958e+02
   endloop
 endfacet
 facet normal -9.326242e-01  3.608492e-01  2.321137e-15
   outer loop
     vertex -8.032667e+00 -1.791404e+02 -2.312670e+02
     vertex -8.244111e+00 -1.796868e+02 -2.312670e+02
     vertex -8.244111e+00 -1.796868e+02 -2.276958e+02
   endloop
 endfacet
 facet normal -9.063207e-01  4.225905e-01  2.479452e-15
   outer loop
     vertex -7.785046e+00 -1.786093e+02 -2.312670e+02
     vertex -8.032667e+00 -1.791404e+02 -2.276958e+02
     vertex -7.785046e+00 -1.786093e+02 -2.276958e+02
   endloop
 endfacet
 facet normal -9.063207e-01  4.225905e-01 -1.100882e-15
   outer loop
     vertex -7.785046e+00 -1.786093e+02 -2.312670e+02
     vertex -8.032667e+00 -1.791404e+02 -2.312670e+02
     vertex -8.032667e+00 -1.791404e+02 -2.276958e+02
   endloop
 endfacet
 facet normal -8.759354e-01  4.824284e-01  1.960631e-15
   outer loop
     vertex -7.502362e+00 -1.780960e+02 -2.312670e+02
     vertex -7.785046e+00 -1.786093e+02 -2.276958e+02
     vertex -7.502362e+00 -1.780960e+02 -2.276958e+02
   endloop
 endfacet
 facet normal -8.759354e-01  4.824284e-01  2.400719e-15
   outer loop
     vertex -7.502362e+00 -1.780960e+02 -2.312670e+02
     vertex -7.785046e+00 -1.786093e+02 -2.312670e+02
     vertex -7.785046e+00 -1.786093e+02 -2.276958e+02
   endloop
 endfacet
 facet normal -8.416050e-01  5.400936e-01  1.674478e-15
   outer loop
     vertex -7.185888e+00 -1.776029e+02 -2.312670e+02
     vertex -7.502362e+00 -1.780960e+02 -2.276958e+02
     vertex -7.185888e+00 -1.776029e+02 -2.276958e+02
   endloop
 endfacet
 facet normal -8.416050e-01  5.400936e-01  1.883437e-15
   outer loop
     vertex -7.185888e+00 -1.776029e+02 -2.312670e+02
     vertex -7.502362e+00 -1.780960e+02 -2.312670e+02
     vertex -7.502362e+00 -1.780960e+02 -2.276958e+02
   endloop
 endfacet
 facet normal -7.617444e-01  6.478777e-01  1.326137e-15
   outer loop
     vertex -6.837051e+00 -1.771321e+02 -2.312670e+02
     vertex -6.837051e+00 -1.771321e+02 -2.276958e+02
     vertex -6.457420e+00 -1.766857e+02 -2.276958e+02
   endloop
 endfacet
 facet normal -8.034841e-01  5.953263e-01  1.398803e-15
   outer loop
     vertex -6.837051e+00 -1.771321e+02 -2.312670e+02
     vertex -7.185888e+00 -1.776029e+02 -2.276958e+02
     vertex -6.837051e+00 -1.771321e+02 -2.276958e+02
   endloop
 endfacet
 facet normal -8.034841e-01  5.953263e-01  1.604901e-15
   outer loop
     vertex -6.837051e+00 -1.771321e+02 -2.312670e+02
     vertex -7.185888e+00 -1.776029e+02 -2.312670e+02
     vertex -7.185888e+00 -1.776029e+02 -2.276958e+02
   endloop
 endfacet
 facet normal -7.165739e-01  6.975111e-01  1.247499e-15
   outer loop
     vertex -6.457420e+00 -1.766857e+02 -2.312670e+02
     vertex -6.457420e+00 -1.766857e+02 -2.276958e+02
     vertex -6.048706e+00 -1.762658e+02 -2.276958e+02
   endloop
 endfacet
 facet normal -7.617444e-01  6.478777e-01  1.326137e-15
   outer loop
     vertex -6.457420e+00 -1.766857e+02 -2.312670e+02
     vertex -6.837051e+00 -1.771321e+02 -2.312670e+02
     vertex -6.457420e+00 -1.766857e+02 -2.276958e+02
   endloop
 endfacet
 facet normal -7.165739e-01  6.975111e-01  1.782142e-16
   outer loop
     vertex -6.048706e+00 -1.762658e+02 -2.312670e+02
     vertex -6.457420e+00 -1.766857e+02 -2.312670e+02
     vertex -6.048706e+00 -1.762658e+02 -2.276958e+02
   endloop
 endfacet
 facet normal -6.167690e-01  7.871442e-01  3.067847e-16
   outer loop
     vertex -5.612749e+00 -1.758743e+02 -2.312670e+02
     vertex -5.612749e+00 -1.758743e+02 -2.276958e+02
     vertex -5.151514e+00 -1.755129e+02 -2.276958e+02
   endloop
 endfacet
 facet normal -6.681761e-01  7.440031e-01  3.323549e-16
   outer loop
     vertex -5.612749e+00 -1.758743e+02 -2.312670e+02
     vertex -6.048706e+00 -1.762658e+02 -2.276958e+02
     vertex -5.612749e+00 -1.758743e+02 -2.276958e+02
   endloop
 endfacet
 facet normal -6.681761e-01  7.440031e-01  1.724273e-16
   outer loop
     vertex -5.612749e+00 -1.758743e+02 -2.312670e+02
     vertex -6.048706e+00 -1.762658e+02 -2.312670e+02
     vertex -6.048706e+00 -1.762658e+02 -2.276958e+02
   endloop
 endfacet
 facet normal -5.625840e-01  8.267401e-01 -2.798327e-16
   outer loop
     vertex -5.151514e+00 -1.755129e+02 -2.312670e+02
     vertex -5.151514e+00 -1.755129e+02 -2.276958e+02
     vertex -4.667077e+00 -1.751833e+02 -2.276958e+02
   endloop
 endfacet
 facet normal -6.167690e-01  7.871442e-01 -3.067847e-16
   outer loop
     vertex -5.151514e+00 -1.755129e+02 -2.312670e+02
     vertex -5.612749e+00 -1.758743e+02 -2.312670e+02
     vertex -5.151514e+00 -1.755129e+02 -2.276958e+02
   endloop
 endfacet
 facet normal -5.058652e-01  8.626125e-01  0.000000e+00
   outer loop
     vertex -4.667077e+00 -1.751833e+02 -2.312670e+02
     vertex -4.667077e+00 -1.751833e+02 -2.276958e+02
     vertex -4.161620e+00 -1.748868e+02 -2.276958e+02
   endloop
 endfacet
 facet normal -5.625840e-01  8.267401e-01  0.000000e+00
   outer loop
     vertex -4.667077e+00 -1.751833e+02 -2.312670e+02
     vertex -5.151514e+00 -1.755129e+02 -2.312670e+02
     vertex -4.667077e+00 -1.751833e+02 -2.276958e+02
   endloop
 endfacet
 facet normal -5.058652e-01  8.626125e-01 -2.516205e-16
   outer loop
     vertex -4.161620e+00 -1.748868e+02 -2.312670e+02
     vertex -4.667077e+00 -1.751833e+02 -2.312670e+02
     vertex -4.161620e+00 -1.748868e+02 -2.276958e+02
   endloop
 endfacet
 facet normal -4.468681e-01  8.945999e-01 -2.254819e-16
   outer loop
     vertex -3.637419e+00 -1.746250e+02 -2.312670e+02
     vertex -4.161620e+00 -1.748868e+02 -2.312670e+02
     vertex -4.161620e+00 -1.748868e+02 -2.276958e+02
   endloop
 endfacet
 facet normal -4.468681e-01  8.945999e-01 -1.667062e-16
   outer loop
     vertex -3.637419e+00 -1.746250e+02 -2.312670e+02
     vertex -4.161620e+00 -1.748868e+02 -2.276958e+02
     vertex -3.637419e+00 -1.746250e+02 -2.276958e+02
   endloop
 endfacet
endsolid
