solid 
 facet normal -1.123104e-17 -2.949030e-17  1.000000e+00
   outer loop
     vertex -1.235397e+02 -1.293208e+02  4.137431e-15
     vertex -1.130488e+02 -1.339083e+02  4.119968e-15
     vertex -1.235397e+02 -1.288616e+02  4.150974e-15
   endloop
 endfacet
 facet normal -1.313770e-17 -3.345379e-17  1.000000e+00
   outer loop
     vertex -1.235776e+02 -1.284039e+02  4.165786e-15
     vertex -1.235397e+02 -1.288616e+02  4.150974e-15
     vertex -1.130488e+02 -1.339083e+02  4.119968e-15
   endloop
 endfacet
 facet normal -9.625152e-18 -2.581787e-17  1.000000e+00
   outer loop
     vertex -1.235776e+02 -1.297784e+02  4.125250e-15
     vertex -1.130488e+02 -1.339083e+02  4.119968e-15
     vertex -1.235397e+02 -1.293208e+02  4.137431e-15
   endloop
 endfacet
 facet normal -1.543920e-17 -3.785613e-17  1.000000e+00
   outer loop
     vertex -1.236532e+02 -1.279510e+02  4.181766e-15
     vertex -1.235776e+02 -1.284039e+02  4.165786e-15
     vertex -1.130488e+02 -1.339083e+02  4.119968e-15
   endloop
 endfacet
 facet normal -8.254474e-18 -2.232339e-17  1.000000e+00
   outer loop
     vertex -1.236532e+02 -1.302314e+02  4.114515e-15
     vertex -1.130488e+02 -1.339083e+02  4.119968e-15
     vertex -1.235776e+02 -1.297784e+02  4.125250e-15
   endloop
 endfacet
 facet normal -1.827497e-17 -4.290398e-17  1.000000e+00
   outer loop
     vertex -1.237659e+02 -1.275058e+02  4.198805e-15
     vertex -1.236532e+02 -1.279510e+02  4.181766e-15
     vertex -1.130488e+02 -1.339083e+02  4.119968e-15
   endloop
 endfacet
 facet normal -7.072178e-18 -1.891355e-17  1.000000e+00
   outer loop
     vertex -1.237659e+02 -1.306766e+02  4.105298e-15
     vertex -1.130488e+02 -1.339083e+02  4.119968e-15
     vertex -1.236532e+02 -1.302314e+02  4.114515e-15
   endloop
 endfacet
 facet normal -2.186038e-17 -4.890560e-17  1.000000e+00
   outer loop
     vertex -1.239150e+02 -1.270714e+02  4.216788e-15
     vertex -1.237659e+02 -1.275058e+02  4.198805e-15
     vertex -1.130488e+02 -1.339083e+02  4.119968e-15
   endloop
 endfacet
 facet normal -6.044251e-18 -1.550468e-17  1.000000e+00
   outer loop
     vertex -1.239150e+02 -1.311109e+02  4.097662e-15
     vertex -1.130488e+02 -1.339083e+02  4.119968e-15
     vertex -1.237659e+02 -1.306766e+02  4.105298e-15
   endloop
 endfacet
 facet normal -2.654607e-17 -5.635289e-17  1.000000e+00
   outer loop
     vertex -1.240995e+02 -1.266509e+02  4.235590e-15
     vertex -1.239150e+02 -1.270714e+02  4.216788e-15
     vertex -1.130488e+02 -1.339083e+02  4.119968e-15
   endloop
 endfacet
 facet normal -5.145814e-18 -1.201473e-17  1.000000e+00
   outer loop
     vertex -1.240995e+02 -1.315315e+02  4.091660e-15
     vertex -1.130488e+02 -1.339083e+02  4.119968e-15
     vertex -1.239150e+02 -1.311109e+02  4.097662e-15
   endloop
 endfacet
 facet normal -3.294346e-17 -6.609411e-17  1.000000e+00
   outer loop
     vertex -1.243181e+02 -1.262470e+02  4.255083e-15
     vertex -1.240995e+02 -1.266509e+02  4.235590e-15
     vertex -1.130488e+02 -1.339083e+02  4.119968e-15
   endloop
 endfacet
 facet normal -4.358823e-18 -8.355714e-18  1.000000e+00
   outer loop
     vertex -1.243181e+02 -1.319353e+02  4.087333e-15
     vertex -1.130488e+02 -1.339083e+02  4.119968e-15
     vertex -1.240995e+02 -1.315315e+02  4.091660e-15
   endloop
 endfacet
 facet normal  1.350023e-15  9.813139e-15  1.000000e+00
   outer loop
     vertex -1.245692e+02 -1.323198e+02  4.084710e-15
     vertex -1.128632e+02 -1.344641e+02  9.323856e-15
     vertex -1.130488e+02 -1.339083e+02  4.119968e-15
   endloop
 endfacet
 facet normal -3.670680e-18 -4.425096e-18  1.000000e+00
   outer loop
     vertex -1.245692e+02 -1.323198e+02  4.084710e-15
     vertex -1.130488e+02 -1.339083e+02  4.119968e-15
     vertex -1.243181e+02 -1.319353e+02  4.087333e-15
   endloop
 endfacet
 facet normal -4.774183e-16 -1.629926e-16  1.000000e+00
   outer loop
     vertex -1.245692e+02 -1.323198e+02  4.084710e-15
     vertex -1.127154e+02 -1.350311e+02  9.302007e-15
     vertex -1.128632e+02 -1.344641e+02  9.323856e-15
   endloop
 endfacet
 facet normal -4.687778e-16 -1.252169e-16  1.000000e+00
   outer loop
     vertex -1.245692e+02 -1.323198e+02  4.084710e-15
     vertex -1.126060e+02 -1.356068e+02  9.281233e-15
     vertex -1.127154e+02 -1.350311e+02  9.302007e-15
   endloop
 endfacet
 facet normal -3.584104e-16  2.764755e-16  1.000000e+00
   outer loop
     vertex -1.248513e+02 -1.326822e+02  4.083808e-15
     vertex -1.126060e+02 -1.356068e+02  9.281233e-15
     vertex -1.245692e+02 -1.323198e+02  4.084710e-15
   endloop
 endfacet
 facet normal -4.454002e-16 -8.775334e-17  1.000000e+00
   outer loop
     vertex -1.248513e+02 -1.326822e+02  4.083808e-15
     vertex -1.125354e+02 -1.361885e+02  9.261630e-15
     vertex -1.126060e+02 -1.356068e+02  9.281233e-15
   endloop
 endfacet
 facet normal -4.360085e-16 -5.476470e-17  1.000000e+00
   outer loop
     vertex -1.248513e+02 -1.326822e+02  4.083808e-15
     vertex -1.125040e+02 -1.367736e+02  9.243285e-15
     vertex -1.125354e+02 -1.361885e+02  9.261630e-15
   endloop
 endfacet
 facet normal -4.255776e-16 -2.328553e-17  1.000000e+00
   outer loop
     vertex -1.248513e+02 -1.326822e+02  4.083808e-15
     vertex -1.125119e+02 -1.373595e+02  9.226280e-15
     vertex -1.125040e+02 -1.367736e+02  9.243285e-15
   endloop
 endfacet
 facet normal -4.141852e-16  6.769384e-18  1.000000e+00
   outer loop
     vertex -1.248513e+02 -1.326822e+02  4.083808e-15
     vertex -1.125590e+02 -1.379435e+02  9.210693e-15
     vertex -1.125119e+02 -1.373595e+02  9.226280e-15
   endloop
 endfacet
 facet normal -4.018968e-16  3.547910e-17  1.000000e+00
   outer loop
     vertex -1.248513e+02 -1.326822e+02  4.083808e-15
     vertex -1.126453e+02 -1.385231e+02  9.196593e-15
     vertex -1.125590e+02 -1.379435e+02  9.210693e-15
   endloop
 endfacet
 facet normal -3.887671e-16  6.291660e-17  1.000000e+00
   outer loop
     vertex -1.248513e+02 -1.326822e+02  4.083808e-15
     vertex -1.127702e+02 -1.390956e+02  9.184045e-15
     vertex -1.126453e+02 -1.385231e+02  9.196593e-15
   endloop
 endfacet
 facet normal -3.748413e-16  8.914888e-17  1.000000e+00
   outer loop
     vertex -1.248513e+02 -1.326822e+02  4.083808e-15
     vertex -1.129333e+02 -1.396584e+02  9.173104e-15
     vertex -1.127702e+02 -1.390956e+02  9.184045e-15
   endloop
 endfacet
 facet normal -3.601558e-16  1.142372e-16  1.000000e+00
   outer loop
     vertex -1.248513e+02 -1.326822e+02  4.083808e-15
     vertex -1.131337e+02 -1.402090e+02  9.163819e-15
     vertex -1.129333e+02 -1.396584e+02  9.173104e-15
   endloop
 endfacet
 facet normal -3.447394e-16  1.382370e-16  1.000000e+00
   outer loop
     vertex -1.248513e+02 -1.326822e+02  4.083808e-15
     vertex -1.133706e+02 -1.407450e+02  9.156234e-15
     vertex -1.131337e+02 -1.402090e+02  9.163819e-15
   endloop
 endfacet
 facet normal -3.084184e-16  1.505985e-16  1.000000e+00
   outer loop
     vertex -1.251623e+02 -1.330200e+02  4.356086e-15
     vertex -1.136429e+02 -1.412638e+02  9.150381e-15
     vertex -1.133706e+02 -1.407450e+02  9.156234e-15
   endloop
 endfacet
 facet normal -2.932547e-16  1.717876e-16  1.000000e+00
   outer loop
     vertex -1.251623e+02 -1.330200e+02  4.356086e-15
     vertex -1.139494e+02 -1.417632e+02  9.146288e-15
     vertex -1.136429e+02 -1.412638e+02  9.150381e-15
   endloop
 endfacet
 facet normal -2.773687e-16  1.921609e-16  1.000000e+00
   outer loop
     vertex -1.251623e+02 -1.330200e+02  4.356086e-15
     vertex -1.142887e+02 -1.422409e+02  9.143972e-15
     vertex -1.139494e+02 -1.417632e+02  9.146288e-15
   endloop
 endfacet
 facet normal -2.607611e-16  2.117452e-16  1.000000e+00
   outer loop
     vertex -1.251623e+02 -1.330200e+02  4.356086e-15
     vertex -1.146593e+02 -1.426948e+02  9.143444e-15
     vertex -1.142887e+02 -1.422409e+02  9.143972e-15
   endloop
 endfacet
 facet normal -2.434274e-16  2.305627e-16  1.000000e+00
   outer loop
     vertex -1.251623e+02 -1.330200e+02  4.356086e-15
     vertex -1.150595e+02 -1.431228e+02  9.144707e-15
     vertex -1.146593e+02 -1.426948e+02  9.143444e-15
   endloop
 endfacet
 facet normal -2.253585e-16  2.486315e-16  1.000000e+00
   outer loop
     vertex -1.251623e+02 -1.330200e+02  4.356086e-15
     vertex -1.154875e+02 -1.435230e+02  9.147755e-15
     vertex -1.150595e+02 -1.431228e+02  9.144707e-15
   endloop
 endfacet
 facet normal -2.065410e-16  2.659652e-16  1.000000e+00
   outer loop
     vertex -1.251623e+02 -1.330200e+02  4.356086e-15
     vertex -1.159414e+02 -1.438936e+02  9.152573e-15
     vertex -1.154875e+02 -1.435230e+02  9.147755e-15
   endloop
 endfacet
 facet normal -1.869567e-16  2.825729e-16  1.000000e+00
   outer loop
     vertex -1.251623e+02 -1.330200e+02  4.356086e-15
     vertex -1.164191e+02 -1.442329e+02  9.159141e-15
     vertex -1.159414e+02 -1.438936e+02  9.152573e-15
   endloop
 endfacet
 facet normal -1.665834e-16  2.984588e-16  1.000000e+00
   outer loop
     vertex -1.251623e+02 -1.330200e+02  4.356086e-15
     vertex -1.169185e+02 -1.445394e+02  9.167428e-15
     vertex -1.164191e+02 -1.442329e+02  9.159141e-15
   endloop
 endfacet
 facet normal -1.453944e-16  3.136226e-16  1.000000e+00
   outer loop
     vertex -1.251623e+02 -1.330200e+02  4.356086e-15
     vertex -1.174374e+02 -1.448118e+02  9.177398e-15
     vertex -1.169185e+02 -1.445394e+02  9.167428e-15
   endloop
 endfacet
 facet normal  7.539807e-17  7.364748e-16  1.000000e+00
   outer loop
     vertex -1.251623e+02 -1.330200e+02  4.356086e-15
     vertex -1.133706e+02 -1.407450e+02  9.156234e-15
     vertex -1.248513e+02 -1.326822e+02  4.083808e-15
   endloop
 endfacet
 facet normal -1.330328e-16  3.499436e-16  1.000000e+00
   outer loop
     vertex -1.255002e+02 -1.333311e+02  4.087185e-15
     vertex -1.179733e+02 -1.450487e+02  9.189006e-15
     vertex -1.174374e+02 -1.448118e+02  9.177398e-15
   endloop
 endfacet
 facet normal -1.090330e-16  3.653600e-16  1.000000e+00
   outer loop
     vertex -1.255002e+02 -1.333311e+02  4.087185e-15
     vertex -1.185239e+02 -1.452491e+02  9.202198e-15
     vertex -1.179733e+02 -1.450487e+02  9.189006e-15
   endloop
 endfacet
 facet normal -8.394471e-17  3.800455e-16  1.000000e+00
   outer loop
     vertex -1.255002e+02 -1.333311e+02  4.087185e-15
     vertex -1.190868e+02 -1.454121e+02  9.216917e-15
     vertex -1.185239e+02 -1.452491e+02  9.202198e-15
   endloop
 endfacet
 facet normal -5.771243e-17  3.939713e-16  1.000000e+00
   outer loop
     vertex -1.255002e+02 -1.333311e+02  4.087185e-15
     vertex -1.196592e+02 -1.455371e+02  9.233095e-15
     vertex -1.190868e+02 -1.454121e+02  9.216917e-15
   endloop
 endfacet
 facet normal -3.027493e-17  4.071010e-16  1.000000e+00
   outer loop
     vertex -1.255002e+02 -1.333311e+02  4.087185e-15
     vertex -1.202388e+02 -1.456233e+02  9.250660e-15
     vertex -1.196592e+02 -1.455371e+02  9.233095e-15
   endloop
 endfacet
 facet normal -1.565213e-18  4.193894e-16  1.000000e+00
   outer loop
     vertex -1.255002e+02 -1.333311e+02  4.087185e-15
     vertex -1.208229e+02 -1.456705e+02  9.269532e-15
     vertex -1.202388e+02 -1.456233e+02  9.250660e-15
   endloop
 endfacet
 facet normal  2.848970e-17  4.307818e-16  1.000000e+00
   outer loop
     vertex -1.255002e+02 -1.333311e+02  4.087185e-15
     vertex -1.214088e+02 -1.456784e+02  9.289627e-15
     vertex -1.208229e+02 -1.456705e+02  9.269532e-15
   endloop
 endfacet
 facet normal  5.996887e-17  4.412127e-16  1.000000e+00
   outer loop
     vertex -1.255002e+02 -1.333311e+02  4.087185e-15
     vertex -1.219939e+02 -1.456470e+02  9.310854e-15
     vertex -1.214088e+02 -1.456784e+02  9.289627e-15
   endloop
 endfacet
 facet normal  9.295751e-17  4.506044e-16  1.000000e+00
   outer loop
     vertex -1.255002e+02 -1.333311e+02  4.087185e-15
     vertex -1.225756e+02 -1.455764e+02  9.333117e-15
     vertex -1.219939e+02 -1.456470e+02  9.310854e-15
   endloop
 endfacet
 facet normal -7.312706e-16 -7.019390e-17  1.000000e+00
   outer loop
     vertex -1.255002e+02 -1.333311e+02  4.087185e-15
     vertex -1.174374e+02 -1.448118e+02  9.177398e-15
     vertex -1.251623e+02 -1.330200e+02  4.356086e-15
   endloop
 endfacet
 facet normal -2.712713e-16  3.636145e-16  1.000000e+00
   outer loop
     vertex -1.258626e+02 -1.336131e+02  4.091440e-15
     vertex -1.225756e+02 -1.455764e+02  9.333117e-15
     vertex -1.255002e+02 -1.333311e+02  4.087185e-15
   endloop
 endfacet
 facet normal  1.304211e-16  4.739820e-16  1.000000e+00
   outer loop
     vertex -1.258626e+02 -1.336131e+02  4.091440e-15
     vertex -1.231512e+02 -1.454669e+02  9.356316e-15
     vertex -1.225756e+02 -1.455764e+02  9.333117e-15
   endloop
 endfacet
 facet normal  1.681967e-16  4.826224e-16  1.000000e+00
   outer loop
     vertex -1.258626e+02 -1.336131e+02  4.091440e-15
     vertex -1.237183e+02 -1.453191e+02  9.380348e-15
     vertex -1.231512e+02 -1.454669e+02  9.356316e-15
   endloop
 endfacet
 facet normal -7.842219e-15 -9.847361e-16  1.000000e+00
   outer loop
     vertex -1.258626e+02 -1.336131e+02  4.091440e-15
     vertex -1.242741e+02 -1.451336e+02  5.204170e-15
     vertex -1.237183e+02 -1.453191e+02  9.380348e-15
   endloop
 endfacet
 facet normal  6.476956e-17  9.150178e-18  1.000000e+00
   outer loop
     vertex -1.260506e+02 -1.209065e+02  4.336809e-15
     vertex -1.258626e+02 -1.245692e+02  4.358147e-15
     vertex -1.255002e+02 -1.248513e+02  4.337256e-15
   endloop
 endfacet
 facet normal  7.107545e-17  1.002998e-17  1.000000e+00
   outer loop
     vertex -1.260506e+02 -1.209065e+02  4.336809e-15
     vertex -1.255002e+02 -1.248513e+02  4.337256e-15
     vertex -1.251623e+02 -1.251623e+02  4.316362e-15
   endloop
 endfacet
 facet normal  7.954522e-17  1.179772e-17  1.000000e+00
   outer loop
     vertex -1.260506e+02 -1.209065e+02  4.336809e-15
     vertex -1.251623e+02 -1.251623e+02  4.316362e-15
     vertex -1.248513e+02 -1.255002e+02  4.295608e-15
   endloop
 endfacet
 facet normal  9.187798e-17  1.501742e-17  1.000000e+00
   outer loop
     vertex -1.260506e+02 -1.209065e+02  4.336809e-15
     vertex -1.248513e+02 -1.255002e+02  4.295608e-15
     vertex -1.245692e+02 -1.258626e+02  4.275135e-15
   endloop
 endfacet
 facet normal  1.120445e-16  2.104500e-17  1.000000e+00
   outer loop
     vertex -1.260506e+02 -1.209065e+02  4.336809e-15
     vertex -1.245692e+02 -1.258626e+02  4.275135e-15
     vertex -1.243181e+02 -1.262470e+02  4.255083e-15
   endloop
 endfacet
 facet normal  2.035002e-18 -1.464271e-17  1.000000e+00
   outer loop
     vertex -1.260506e+02 -1.209065e+02  4.336809e-15
     vertex -1.243181e+02 -1.262470e+02  4.255083e-15
     vertex -1.130488e+02 -1.339083e+02  4.119968e-15
   endloop
 endfacet
 facet normal  5.977197e-17  8.893675e-18  1.000000e+00
   outer loop
     vertex -1.262470e+02 -1.243181e+02  4.378893e-15
     vertex -1.258626e+02 -1.245692e+02  4.358147e-15
     vertex -1.260506e+02 -1.209065e+02  4.336809e-15
   endloop
 endfacet
 facet normal -4.373607e-17  9.055658e-17  1.000000e+00
   outer loop
     vertex -1.262470e+02 -1.338643e+02  4.097371e-15
     vertex -1.242741e+02 -1.451336e+02  5.204170e-15
     vertex -1.258626e+02 -1.336131e+02  4.091440e-15
   endloop
 endfacet
 facet normal  5.559695e-17  9.134093e-18  1.000000e+00
   outer loop
     vertex -1.266509e+02 -1.240995e+02  4.399351e-15
     vertex -1.262470e+02 -1.243181e+02  4.378893e-15
     vertex -1.260506e+02 -1.209065e+02  4.336809e-15
   endloop
 endfacet
 facet normal -3.143693e-17  9.270982e-17  1.000000e+00
   outer loop
     vertex -1.266509e+02 -1.340829e+02  4.104938e-15
     vertex -1.242741e+02 -1.451336e+02  5.204170e-15
     vertex -1.262470e+02 -1.338643e+02  4.097371e-15
   endloop
 endfacet
 facet normal -1.998765e-17  9.517237e-17  1.000000e+00
   outer loop
     vertex -1.270714e+02 -1.342673e+02  4.114089e-15
     vertex -1.242741e+02 -1.451336e+02  5.204170e-15
     vertex -1.266509e+02 -1.340829e+02  4.104938e-15
   endloop
 endfacet
 facet normal  5.193842e-17  9.821944e-18  1.000000e+00
   outer loop
     vertex -1.270714e+02 -1.239150e+02  4.419381e-15
     vertex -1.266509e+02 -1.240995e+02  4.399351e-15
     vertex -1.260506e+02 -1.209065e+02  4.336809e-15
   endloop
 endfacet
 facet normal -9.067386e-18  9.798363e-17  1.000000e+00
   outer loop
     vertex -1.275058e+02 -1.344164e+02  4.124761e-15
     vertex -1.242741e+02 -1.451336e+02  5.204170e-15
     vertex -1.270714e+02 -1.342673e+02  4.114089e-15
   endloop
 endfacet
 facet normal  3.469447e-17 -2.949030e-17  1.000000e+00
   outer loop
     vertex -1.275058e+02 -1.237659e+02  4.438848e-15
     vertex -1.266064e+02 -1.207210e+02  4.497440e-15
     vertex -1.271734e+02 -1.205732e+02  4.521471e-15
   endloop
 endfacet
 facet normal  2.572191e-16 -9.521811e-17  1.000000e+00
   outer loop
     vertex -1.275058e+02 -1.237659e+02  4.438848e-15
     vertex -1.260506e+02 -1.209065e+02  4.336809e-15
     vertex -1.266064e+02 -1.207210e+02  4.497440e-15
   endloop
 endfacet
 facet normal  4.858144e-17  1.096105e-17  1.000000e+00
   outer loop
     vertex -1.275058e+02 -1.237659e+02  4.438848e-15
     vertex -1.270714e+02 -1.239150e+02  4.419381e-15
     vertex -1.260506e+02 -1.209065e+02  4.336809e-15
   endloop
 endfacet
 facet normal  1.599171e-18  1.012001e-16  1.000000e+00
   outer loop
     vertex -1.279510e+02 -1.345292e+02  4.136881e-15
     vertex -1.242741e+02 -1.451336e+02  5.204170e-15
     vertex -1.275058e+02 -1.344164e+02  4.124761e-15
   endloop
 endfacet
 facet normal  3.469447e-17 -2.949030e-17  1.000000e+00
   outer loop
     vertex -1.279510e+02 -1.236532e+02  4.457617e-15
     vertex -1.271734e+02 -1.205732e+02  4.521471e-15
     vertex -1.277490e+02 -1.204637e+02  4.544671e-15
   endloop
 endfacet
 facet normal  3.469447e-17 -2.949030e-17  1.000000e+00
   outer loop
     vertex -1.279510e+02 -1.236532e+02  4.457617e-15
     vertex -1.275058e+02 -1.237659e+02  4.438848e-15
     vertex -1.271734e+02 -1.205732e+02  4.521471e-15
   endloop
 endfacet
 facet normal  1.226877e-17  1.048996e-16  1.000000e+00
   outer loop
     vertex -1.284039e+02 -1.346048e+02  4.150367e-15
     vertex -1.242741e+02 -1.451336e+02  5.204170e-15
     vertex -1.279510e+02 -1.345292e+02  4.136881e-15
   endloop
 endfacet
 facet normal  3.469447e-17 -2.949030e-17  1.000000e+00
   outer loop
     vertex -1.284039e+02 -1.235776e+02  4.475561e-15
     vertex -1.277490e+02 -1.204637e+02  4.544671e-15
     vertex -1.283307e+02 -1.203931e+02  4.566934e-15
   endloop
 endfacet
 facet normal  3.469447e-17 -2.949030e-17  1.000000e+00
   outer loop
     vertex -1.284039e+02 -1.235776e+02  4.475561e-15
     vertex -1.279510e+02 -1.236532e+02  4.457617e-15
     vertex -1.277490e+02 -1.204637e+02  4.544671e-15
   endloop
 endfacet
 facet normal  2.320322e-17  1.091885e-16  1.000000e+00
   outer loop
     vertex -1.288616e+02 -1.346427e+02  4.165127e-15
     vertex -1.242741e+02 -1.451336e+02  5.204170e-15
     vertex -1.284039e+02 -1.346048e+02  4.150367e-15
   endloop
 endfacet
 facet normal  3.469447e-17 -2.949030e-17  1.000000e+00
   outer loop
     vertex -1.288616e+02 -1.235397e+02  4.492558e-15
     vertex -1.284039e+02 -1.235776e+02  4.475561e-15
     vertex -1.283307e+02 -1.203931e+02  4.566934e-15
   endloop
 endfacet
 facet normal  3.469447e-17 -2.949030e-17  1.000000e+00
   outer loop
     vertex -1.289159e+02 -1.203617e+02  4.588161e-15
     vertex -1.288616e+02 -1.235397e+02  4.492558e-15
     vertex -1.283307e+02 -1.203931e+02  4.566934e-15
   endloop
 endfacet
 facet normal  3.469447e-17  1.142134e-16  1.000000e+00
   outer loop
     vertex -1.293208e+02 -1.346427e+02  4.181059e-15
     vertex -1.242741e+02 -1.451336e+02  5.204170e-15
     vertex -1.288616e+02 -1.346427e+02  4.165127e-15
   endloop
 endfacet
 facet normal  3.469447e-17 -2.949030e-17  1.000000e+00
   outer loop
     vertex -1.293208e+02 -1.235397e+02  4.508490e-15
     vertex -1.288616e+02 -1.235397e+02  4.492558e-15
     vertex -1.289159e+02 -1.203617e+02  4.588161e-15
   endloop
 endfacet
 facet normal  3.469447e-17 -2.949030e-17  1.000000e+00
   outer loop
     vertex -1.295018e+02 -1.203696e+02  4.608256e-15
     vertex -1.293208e+02 -1.235397e+02  4.508490e-15
     vertex -1.289159e+02 -1.203617e+02  4.588161e-15
   endloop
 endfacet
 facet normal  4.709646e-17  1.201795e-16  1.000000e+00
   outer loop
     vertex -1.297784e+02 -1.346048e+02  4.198056e-15
     vertex -1.242741e+02 -1.451336e+02  5.204170e-15
     vertex -1.293208e+02 -1.346427e+02  4.181059e-15
   endloop
 endfacet
 facet normal  3.469447e-17 -2.949030e-17  1.000000e+00
   outer loop
     vertex -1.300858e+02 -1.204168e+02  4.627128e-15
     vertex -1.293208e+02 -1.235397e+02  4.508490e-15
     vertex -1.295018e+02 -1.203696e+02  4.608256e-15
   endloop
 endfacet
 facet normal  3.469447e-17 -2.949030e-17  1.000000e+00
   outer loop
     vertex -1.300858e+02 -1.204168e+02  4.627128e-15
     vertex -1.297784e+02 -1.235776e+02  4.523250e-15
     vertex -1.293208e+02 -1.235397e+02  4.508490e-15
   endloop
 endfacet
 facet normal  6.087166e-17  1.273810e-16  1.000000e+00
   outer loop
     vertex -1.302314e+02 -1.345292e+02  4.216000e-15
     vertex -1.242741e+02 -1.451336e+02  5.204170e-15
     vertex -1.297784e+02 -1.346048e+02  4.198056e-15
   endloop
 endfacet
 facet normal  3.469447e-17 -2.949030e-17  1.000000e+00
   outer loop
     vertex -1.306654e+02 -1.205030e+02  4.644693e-15
     vertex -1.302314e+02 -1.236532e+02  4.536736e-15
     vertex -1.297784e+02 -1.235776e+02  4.523250e-15
   endloop
 endfacet
 facet normal  3.469447e-17 -2.949030e-17  1.000000e+00
   outer loop
     vertex -1.306654e+02 -1.205030e+02  4.644693e-15
     vertex -1.297784e+02 -1.235776e+02  4.523250e-15
     vertex -1.300858e+02 -1.204168e+02  4.627128e-15
   endloop
 endfacet
 facet normal  7.666670e-17  1.362543e-16  1.000000e+00
   outer loop
     vertex -1.306766e+02 -1.344164e+02  4.234770e-15
     vertex -1.242741e+02 -1.451336e+02  5.204170e-15
     vertex -1.302314e+02 -1.345292e+02  4.216000e-15
   endloop
 endfacet
 facet normal  9.544614e-17  1.474733e-16  1.000000e+00
   outer loop
     vertex -1.311109e+02 -1.342673e+02  4.254236e-15
     vertex -1.242741e+02 -1.451336e+02  5.204170e-15
     vertex -1.306766e+02 -1.344164e+02  4.234770e-15
   endloop
 endfacet
 facet normal  3.469447e-17 -2.949030e-17  1.000000e+00
   outer loop
     vertex -1.312379e+02 -1.206279e+02  4.660871e-15
     vertex -1.306766e+02 -1.237659e+02  4.548857e-15
     vertex -1.302314e+02 -1.236532e+02  4.536736e-15
   endloop
 endfacet
 facet normal  3.469447e-17 -2.949030e-17  1.000000e+00
   outer loop
     vertex -1.312379e+02 -1.206279e+02  4.660871e-15
     vertex -1.302314e+02 -1.236532e+02  4.536736e-15
     vertex -1.306654e+02 -1.205030e+02  4.644693e-15
   endloop
 endfacet
 facet normal  1.187491e-16  1.621351e-16  1.000000e+00
   outer loop
     vertex -1.315315e+02 -1.340829e+02  4.274267e-15
     vertex -1.242741e+02 -1.451336e+02  5.204170e-15
     vertex -1.311109e+02 -1.342673e+02  4.254236e-15
   endloop
 endfacet
 facet normal  3.469447e-17 -2.949030e-17  1.000000e+00
   outer loop
     vertex -1.318007e+02 -1.207910e+02  4.675589e-15
     vertex -1.311109e+02 -1.239150e+02  4.559529e-15
     vertex -1.306766e+02 -1.237659e+02  4.548857e-15
   endloop
 endfacet
 facet normal  3.469447e-17 -2.949030e-17  1.000000e+00
   outer loop
     vertex -1.318007e+02 -1.207910e+02  4.675589e-15
     vertex -1.306766e+02 -1.237659e+02  4.548857e-15
     vertex -1.312379e+02 -1.206279e+02  4.660871e-15
   endloop
 endfacet
 facet normal  1.492300e-16  1.821529e-16  1.000000e+00
   outer loop
     vertex -1.319353e+02 -1.338643e+02  4.294725e-15
     vertex -1.242741e+02 -1.451336e+02  5.204170e-15
     vertex -1.315315e+02 -1.340829e+02  4.274267e-15
   endloop
 endfacet
 facet normal  3.469447e-17 -2.949030e-17  1.000000e+00
   outer loop
     vertex -1.323513e+02 -1.209914e+02  4.688782e-15
     vertex -1.315315e+02 -1.240995e+02  4.568679e-15
     vertex -1.311109e+02 -1.239150e+02  4.559529e-15
   endloop
 endfacet
 facet normal  3.469447e-17 -2.949030e-17  1.000000e+00
   outer loop
     vertex -1.323513e+02 -1.209914e+02  4.688782e-15
     vertex -1.311109e+02 -1.239150e+02  4.559529e-15
     vertex -1.318007e+02 -1.207910e+02  4.675589e-15
   endloop
 endfacet
 facet normal  3.469447e-17 -2.949030e-17  1.000000e+00
   outer loop
     vertex -1.328873e+02 -1.212283e+02  4.700390e-15
     vertex -1.315315e+02 -1.240995e+02  4.568679e-15
     vertex -1.323513e+02 -1.209914e+02  4.688782e-15
   endloop
 endfacet
 facet normal  3.469447e-17 -2.949030e-17  1.000000e+00
   outer loop
     vertex -1.334061e+02 -1.215006e+02  4.710359e-15
     vertex -1.319353e+02 -1.243181e+02  4.576246e-15
     vertex -1.315315e+02 -1.240995e+02  4.568679e-15
   endloop
 endfacet
 facet normal  3.469447e-17 -2.949030e-17  1.000000e+00
   outer loop
     vertex -1.334061e+02 -1.215006e+02  4.710359e-15
     vertex -1.315315e+02 -1.240995e+02  4.568679e-15
     vertex -1.328873e+02 -1.212283e+02  4.700390e-15
   endloop
 endfacet
 facet normal  3.469447e-17 -2.949030e-17  1.000000e+00
   outer loop
     vertex -1.339055e+02 -1.218072e+02  4.718647e-15
     vertex -1.323198e+02 -1.245692e+02  4.582177e-15
     vertex -1.319353e+02 -1.243181e+02  4.576246e-15
   endloop
 endfacet
 facet normal  3.469447e-17 -2.949030e-17  1.000000e+00
   outer loop
     vertex -1.339055e+02 -1.218072e+02  4.718647e-15
     vertex -1.319353e+02 -1.243181e+02  4.576246e-15
     vertex -1.334061e+02 -1.215006e+02  4.710359e-15
   endloop
 endfacet
 facet normal  3.469447e-17 -2.949030e-17  1.000000e+00
   outer loop
     vertex -1.343832e+02 -1.221465e+02  4.725215e-15
     vertex -1.326822e+02 -1.248513e+02  4.586432e-15
     vertex -1.323198e+02 -1.245692e+02  4.582177e-15
   endloop
 endfacet
 facet normal  3.469447e-17 -2.949030e-17  1.000000e+00
   outer loop
     vertex -1.343832e+02 -1.221465e+02  4.725215e-15
     vertex -1.323198e+02 -1.245692e+02  4.582177e-15
     vertex -1.339055e+02 -1.218072e+02  4.718647e-15
   endloop
 endfacet
 facet normal  3.469447e-17 -2.949030e-17  1.000000e+00
   outer loop
     vertex -1.348371e+02 -1.225171e+02  4.730033e-15
     vertex -1.330200e+02 -1.251623e+02  4.588982e-15
     vertex -1.326822e+02 -1.248513e+02  4.586432e-15
   endloop
 endfacet
 facet normal  3.469447e-17 -2.949030e-17  1.000000e+00
   outer loop
     vertex -1.348371e+02 -1.225171e+02  4.730033e-15
     vertex -1.326822e+02 -1.248513e+02  4.586432e-15
     vertex -1.343832e+02 -1.221465e+02  4.725215e-15
   endloop
 endfacet
 facet normal  3.469447e-17 -2.949030e-17  1.000000e+00
   outer loop
     vertex -1.352651e+02 -1.229173e+02  4.733081e-15
     vertex -1.330200e+02 -1.251623e+02  4.588982e-15
     vertex -1.348371e+02 -1.225171e+02  4.730033e-15
   endloop
 endfacet
 facet normal  3.469447e-17 -2.949030e-17  1.000000e+00
   outer loop
     vertex -1.356653e+02 -1.233453e+02  4.734343e-15
     vertex -1.333311e+02 -1.255002e+02  4.589809e-15
     vertex -1.330200e+02 -1.251623e+02  4.588982e-15
   endloop
 endfacet
 facet normal  3.469447e-17 -2.949030e-17  1.000000e+00
   outer loop
     vertex -1.356653e+02 -1.233453e+02  4.734343e-15
     vertex -1.330200e+02 -1.251623e+02  4.588982e-15
     vertex -1.352651e+02 -1.229173e+02  4.733081e-15
   endloop
 endfacet
 facet normal  3.469447e-17 -2.949030e-17  1.000000e+00
   outer loop
     vertex -1.360359e+02 -1.237991e+02  4.733816e-15
     vertex -1.336131e+02 -1.258626e+02  4.588908e-15
     vertex -1.333311e+02 -1.255002e+02  4.589809e-15
   endloop
 endfacet
 facet normal  3.469447e-17 -2.949030e-17  1.000000e+00
   outer loop
     vertex -1.360359e+02 -1.237991e+02  4.733816e-15
     vertex -1.333311e+02 -1.255002e+02  4.589809e-15
     vertex -1.356653e+02 -1.233453e+02  4.734343e-15
   endloop
 endfacet
 facet normal  3.469447e-17 -2.949030e-17  1.000000e+00
   outer loop
     vertex -1.363752e+02 -1.242769e+02  4.731500e-15
     vertex -1.338643e+02 -1.262470e+02  4.586285e-15
     vertex -1.336131e+02 -1.258626e+02  4.588908e-15
   endloop
 endfacet
 facet normal  3.469447e-17 -2.949030e-17  1.000000e+00
   outer loop
     vertex -1.363752e+02 -1.242769e+02  4.731500e-15
     vertex -1.336131e+02 -1.258626e+02  4.588908e-15
     vertex -1.360359e+02 -1.237991e+02  4.733816e-15
   endloop
 endfacet
 facet normal  3.469447e-17 -2.949030e-17  1.000000e+00
   outer loop
     vertex -1.366817e+02 -1.247763e+02  4.727406e-15
     vertex -1.340829e+02 -1.266509e+02  4.581957e-15
     vertex -1.338643e+02 -1.262470e+02  4.586285e-15
   endloop
 endfacet
 facet normal  3.469447e-17 -2.949030e-17  1.000000e+00
   outer loop
     vertex -1.366817e+02 -1.247763e+02  4.727406e-15
     vertex -1.338643e+02 -1.262470e+02  4.586285e-15
     vertex -1.363752e+02 -1.242769e+02  4.731500e-15
   endloop
 endfacet
 facet normal  3.469447e-17 -2.949030e-17  1.000000e+00
   outer loop
     vertex -1.369540e+02 -1.252951e+02  4.721554e-15
     vertex -1.340829e+02 -1.266509e+02  4.581957e-15
     vertex -1.366817e+02 -1.247763e+02  4.727406e-15
   endloop
 endfacet
 facet normal  3.469447e-17 -2.949030e-17  1.000000e+00
   outer loop
     vertex -1.371909e+02 -1.258310e+02  4.713968e-15
     vertex -1.342673e+02 -1.270714e+02  4.575955e-15
     vertex -1.340829e+02 -1.266509e+02  4.581957e-15
   endloop
 endfacet
 facet normal  3.469447e-17 -2.949030e-17  1.000000e+00
   outer loop
     vertex -1.371909e+02 -1.258310e+02  4.713968e-15
     vertex -1.340829e+02 -1.266509e+02  4.581957e-15
     vertex -1.369540e+02 -1.252951e+02  4.721554e-15
   endloop
 endfacet
 facet normal  4.604247e-16  3.937138e-16  1.000000e+00
   outer loop
     vertex -1.372759e+02 -1.321318e+02  6.071532e-15
     vertex -1.242741e+02 -1.451336e+02  5.204170e-15
     vertex -1.319353e+02 -1.338643e+02  4.294725e-15
   endloop
 endfacet
 facet normal  6.076105e-16  8.474230e-16  1.000000e+00
   outer loop
     vertex -1.372759e+02 -1.321318e+02  6.071532e-15
     vertex -1.319353e+02 -1.338643e+02  4.294725e-15
     vertex -1.323198e+02 -1.336131e+02  4.315470e-15
   endloop
 endfacet
 facet normal  5.392761e-16  6.187962e-16  1.000000e+00
   outer loop
     vertex -1.372759e+02 -1.321318e+02  6.071532e-15
     vertex -1.323198e+02 -1.336131e+02  4.315470e-15
     vertex -1.326822e+02 -1.333311e+02  4.336361e-15
   endloop
 endfacet
 facet normal  5.027746e-16  4.789803e-16  1.000000e+00
   outer loop
     vertex -1.372759e+02 -1.321318e+02  6.071532e-15
     vertex -1.326822e+02 -1.333311e+02  4.336361e-15
     vertex -1.330200e+02 -1.330200e+02  4.357255e-15
   endloop
 endfacet
 facet normal  4.827338e-16  3.829590e-16  1.000000e+00
   outer loop
     vertex -1.372759e+02 -1.321318e+02  6.071532e-15
     vertex -1.330200e+02 -1.330200e+02  4.357255e-15
     vertex -1.333311e+02 -1.326822e+02  4.378010e-15
   endloop
 endfacet
 facet normal  4.727595e-16  3.114694e-16  1.000000e+00
   outer loop
     vertex -1.372759e+02 -1.321318e+02  6.071532e-15
     vertex -1.333311e+02 -1.326822e+02  4.378010e-15
     vertex -1.336131e+02 -1.323198e+02  4.398483e-15
   endloop
 endfacet
 facet normal  4.698516e-16  2.548120e-16  1.000000e+00
   outer loop
     vertex -1.372759e+02 -1.321318e+02  6.071532e-15
     vertex -1.336131e+02 -1.323198e+02  4.398483e-15
     vertex -1.338643e+02 -1.319353e+02  4.418534e-15
   endloop
 endfacet
 facet normal  4.725772e-16  2.074800e-16  1.000000e+00
   outer loop
     vertex -1.372759e+02 -1.321318e+02  6.071532e-15
     vertex -1.338643e+02 -1.319353e+02  4.418534e-15
     vertex -1.340829e+02 -1.315315e+02  4.438028e-15
   endloop
 endfacet
 facet normal  4.803753e-16  1.660034e-16  1.000000e+00
   outer loop
     vertex -1.372759e+02 -1.321318e+02  6.071532e-15
     vertex -1.340829e+02 -1.315315e+02  4.438028e-15
     vertex -1.342673e+02 -1.311109e+02  4.456830e-15
   endloop
 endfacet
 facet normal  4.932893e-16  1.279455e-16  1.000000e+00
   outer loop
     vertex -1.372759e+02 -1.321318e+02  6.071532e-15
     vertex -1.342673e+02 -1.311109e+02  4.456830e-15
     vertex -1.344164e+02 -1.306766e+02  4.474812e-15
   endloop
 endfacet
 facet normal  3.469447e-17 -2.949030e-17  1.000000e+00
   outer loop
     vertex -1.373914e+02 -1.263817e+02  4.704684e-15
     vertex -1.344164e+02 -1.275058e+02  4.568320e-15
     vertex -1.342673e+02 -1.270714e+02  4.575955e-15
   endloop
 endfacet
 facet normal  3.469447e-17 -2.949030e-17  1.000000e+00
   outer loop
     vertex -1.373914e+02 -1.263817e+02  4.704684e-15
     vertex -1.342673e+02 -1.270714e+02  4.575955e-15
     vertex -1.371909e+02 -1.258310e+02  4.713968e-15
   endloop
 endfacet
 facet normal -7.104582e-16  2.493260e-15  1.000000e+00
   outer loop
     vertex -1.374614e+02 -1.315760e+02  4.553931e-15
     vertex -1.372759e+02 -1.321318e+02  6.071532e-15
     vertex -1.344164e+02 -1.306766e+02  4.474812e-15
   endloop
 endfacet
 facet normal  3.469447e-17 -2.949030e-17  1.000000e+00
   outer loop
     vertex -1.375544e+02 -1.269445e+02  4.693743e-15
     vertex -1.345292e+02 -1.279510e+02  4.559103e-15
     vertex -1.344164e+02 -1.275058e+02  4.568320e-15
   endloop
 endfacet
 facet normal  3.469447e-17 -2.949030e-17  1.000000e+00
   outer loop
     vertex -1.375544e+02 -1.269445e+02  4.693743e-15
     vertex -1.344164e+02 -1.275058e+02  4.568320e-15
     vertex -1.373914e+02 -1.263817e+02  4.704684e-15
   endloop
 endfacet
 facet normal  3.469447e-17 -2.949030e-17  1.000000e+00
   outer loop
     vertex -1.376092e+02 -1.310090e+02  4.575781e-15
     vertex -1.374614e+02 -1.315760e+02  4.553931e-15
     vertex -1.344164e+02 -1.306766e+02  4.474812e-15
   endloop
 endfacet
 facet normal  3.469447e-17 -2.949030e-17  1.000000e+00
   outer loop
     vertex -1.376092e+02 -1.310090e+02  4.575781e-15
     vertex -1.344164e+02 -1.306766e+02  4.474812e-15
     vertex -1.345292e+02 -1.302314e+02  4.491851e-15
   endloop
 endfacet
 facet normal  3.469447e-17 -2.949030e-17  1.000000e+00
   outer loop
     vertex -1.376793e+02 -1.275170e+02  4.681195e-15
     vertex -1.346048e+02 -1.284039e+02  4.548367e-15
     vertex -1.345292e+02 -1.279510e+02  4.559103e-15
   endloop
 endfacet
 facet normal  3.469447e-17 -2.949030e-17  1.000000e+00
   outer loop
     vertex -1.376793e+02 -1.275170e+02  4.681195e-15
     vertex -1.345292e+02 -1.279510e+02  4.559103e-15
     vertex -1.375544e+02 -1.269445e+02  4.693743e-15
   endloop
 endfacet
 facet normal  3.469447e-17 -2.949030e-17  1.000000e+00
   outer loop
     vertex -1.377187e+02 -1.304333e+02  4.596554e-15
     vertex -1.376092e+02 -1.310090e+02  4.575781e-15
     vertex -1.345292e+02 -1.302314e+02  4.491851e-15
   endloop
 endfacet
 facet normal  3.469447e-17 -2.949030e-17  1.000000e+00
   outer loop
     vertex -1.377187e+02 -1.304333e+02  4.596554e-15
     vertex -1.345292e+02 -1.302314e+02  4.491851e-15
     vertex -1.346048e+02 -1.297784e+02  4.507832e-15
   endloop
 endfacet
 facet normal  3.469447e-17 -2.949030e-17  1.000000e+00
   outer loop
     vertex -1.377656e+02 -1.280965e+02  4.667095e-15
     vertex -1.346048e+02 -1.284039e+02  4.548367e-15
     vertex -1.376793e+02 -1.275170e+02  4.681195e-15
   endloop
 endfacet
 facet normal  3.469447e-17 -2.949030e-17  1.000000e+00
   outer loop
     vertex -1.377656e+02 -1.280965e+02  4.667095e-15
     vertex -1.346427e+02 -1.288616e+02  4.536186e-15
     vertex -1.346048e+02 -1.284039e+02  4.548367e-15
   endloop
 endfacet
 facet normal  3.469447e-17 -2.949030e-17  1.000000e+00
   outer loop
     vertex -1.377893e+02 -1.298516e+02  4.616158e-15
     vertex -1.377187e+02 -1.304333e+02  4.596554e-15
     vertex -1.346048e+02 -1.297784e+02  4.507832e-15
   endloop
 endfacet
 facet normal  3.469447e-17 -2.949030e-17  1.000000e+00
   outer loop
     vertex -1.377893e+02 -1.298516e+02  4.616158e-15
     vertex -1.346048e+02 -1.297784e+02  4.507832e-15
     vertex -1.346427e+02 -1.293208e+02  4.522644e-15
   endloop
 endfacet
 facet normal  3.469447e-17 -2.949030e-17  1.000000e+00
   outer loop
     vertex -1.378128e+02 -1.286806e+02  4.651508e-15
     vertex -1.346427e+02 -1.288616e+02  4.536186e-15
     vertex -1.377656e+02 -1.280965e+02  4.667095e-15
   endloop
 endfacet
 facet normal  3.469447e-17 -2.949030e-17  1.000000e+00
   outer loop
     vertex -1.378207e+02 -1.292665e+02  4.634503e-15
     vertex -1.377893e+02 -1.298516e+02  4.616158e-15
     vertex -1.346427e+02 -1.293208e+02  4.522644e-15
   endloop
 endfacet
 facet normal  3.469447e-17 -2.949030e-17  1.000000e+00
   outer loop
     vertex -1.378207e+02 -1.292665e+02  4.634503e-15
     vertex -1.346427e+02 -1.288616e+02  4.536186e-15
     vertex -1.378128e+02 -1.286806e+02  4.651508e-15
   endloop
 endfacet
 facet normal  3.469447e-17 -2.949030e-17  1.000000e+00
   outer loop
     vertex -1.378207e+02 -1.292665e+02  4.634503e-15
     vertex -1.346427e+02 -1.293208e+02  4.522644e-15
     vertex -1.346427e+02 -1.288616e+02  4.536186e-15
   endloop
 endfacet
endsolid
