solid 
 facet normal -7.071068e-01  7.071068e-01  0.000000e+00
   outer loop
     vertex -1.321318e+02  1.372759e+02 -2.276958e+02
     vertex -1.321318e+02  1.372759e+02 -2.312670e+02
     vertex -1.451336e+02  1.242741e+02 -2.312670e+02
   endloop
 endfacet
 facet normal -7.071068e-01  7.071068e-01  0.000000e+00
   outer loop
     vertex -1.321318e+02  1.372759e+02 -2.276958e+02
     vertex -1.451336e+02  1.242741e+02 -2.312670e+02
     vertex -1.451336e+02  1.242741e+02 -2.276958e+02
   endloop
 endfacet
endsolid
