solid 
 facet normal -7.071068e-01  7.071068e-01  0.000000e+00
   outer loop
     vertex  1.209065e+02 -1.260506e+02 -2.276958e+02
     vertex  1.339083e+02 -1.130488e+02 -2.312670e+02
     vertex  1.209065e+02 -1.260506e+02 -2.312670e+02
   endloop
 endfacet
 facet normal -7.071068e-01  7.071068e-01  0.000000e+00
   outer loop
     vertex  1.209065e+02 -1.260506e+02 -2.276958e+02
     vertex  1.339083e+02 -1.130488e+02 -2.276958e+02
     vertex  1.339083e+02 -1.130488e+02 -2.312670e+02
   endloop
 endfacet
endsolid
