solid 
 facet normal  4.486483e-02  9.989931e-01 -2.980177e-16
   outer loop
     vertex  1.821356e+02 -4.743328e+00 -2.336482e+02
     vertex  1.825625e+02 -4.762500e+00 -2.276958e+02
     vertex  1.825625e+02 -4.762500e+00 -2.336482e+02
   endloop
 endfacet
 facet normal  4.486483e-02  9.989931e-01 -1.490610e-16
   outer loop
     vertex  1.821356e+02 -4.743328e+00 -2.336482e+02
     vertex  1.821356e+02 -4.743328e+00 -2.276958e+02
     vertex  1.825625e+02 -4.762500e+00 -2.276958e+02
   endloop
 endfacet
 facet normal  1.342333e-01  9.909498e-01 -2.957217e-16
   outer loop
     vertex  1.817121e+02 -4.685965e+00 -2.336482e+02
     vertex  1.817121e+02 -4.685965e+00 -2.276958e+02
     vertex  1.821356e+02 -4.743328e+00 -2.276958e+02
   endloop
 endfacet
 facet normal  2.225209e-01  9.749279e-01 -2.909404e-16
   outer loop
     vertex  1.817121e+02 -4.685965e+00 -2.336482e+02
     vertex  1.812955e+02 -4.590873e+00 -2.276958e+02
     vertex  1.817121e+02 -4.685965e+00 -2.276958e+02
   endloop
 endfacet
 facet normal  1.342333e-01  9.909498e-01 -1.473039e-16
   outer loop
     vertex  1.817121e+02 -4.685965e+00 -2.336482e+02
     vertex  1.821356e+02 -4.743328e+00 -2.276958e+02
     vertex  1.821356e+02 -4.743328e+00 -2.336482e+02
   endloop
 endfacet
 facet normal  2.225209e-01  9.749279e-01 -2.909404e-16
   outer loop
     vertex  1.812955e+02 -4.590873e+00 -2.336482e+02
     vertex  1.812955e+02 -4.590873e+00 -2.276958e+02
     vertex  1.817121e+02 -4.685965e+00 -2.336482e+02
   endloop
 endfacet
 facet normal  3.090170e-01  9.510565e-01 -1.419083e-16
   outer loop
     vertex  1.808891e+02 -4.458819e+00 -2.336482e+02
     vertex  1.808891e+02 -4.458819e+00 -2.276958e+02
     vertex  1.812955e+02 -4.590873e+00 -2.276958e+02
   endloop
 endfacet
 facet normal  3.090170e-01  9.510565e-01 -2.836964e-16
   outer loop
     vertex  1.808891e+02 -4.458819e+00 -2.336482e+02
     vertex  1.812955e+02 -4.590873e+00 -2.276958e+02
     vertex  1.812955e+02 -4.590873e+00 -2.336482e+02
   endloop
 endfacet
 facet normal  3.930250e-01  9.195278e-01 -2.744078e-16
   outer loop
     vertex  1.804961e+02 -4.290864e+00 -2.336482e+02
     vertex  1.804961e+02 -4.290864e+00 -2.276958e+02
     vertex  1.808891e+02 -4.458819e+00 -2.276958e+02
   endloop
 endfacet
 facet normal  4.738687e-01  8.805955e-01 -2.627895e-16
   outer loop
     vertex  1.804961e+02 -4.290864e+00 -2.336482e+02
     vertex  1.801198e+02 -4.088362e+00 -2.276958e+02
     vertex  1.804961e+02 -4.290864e+00 -2.276958e+02
   endloop
 endfacet
 facet normal  3.930250e-01  9.195278e-01 -1.363925e-16
   outer loop
     vertex  1.804961e+02 -4.290864e+00 -2.336482e+02
     vertex  1.808891e+02 -4.458819e+00 -2.276958e+02
     vertex  1.808891e+02 -4.458819e+00 -2.336482e+02
   endloop
 endfacet
 facet normal  4.738687e-01  8.805955e-01 -2.394004e-15
   outer loop
     vertex  1.801198e+02 -4.088362e+00 -2.336482e+02
     vertex  1.801198e+02 -4.088362e+00 -2.276958e+02
     vertex  1.804961e+02 -4.290864e+00 -2.336482e+02
   endloop
 endfacet
 facet normal  5.508970e-01  8.345733e-01 -1.867916e-16
   outer loop
     vertex  1.797632e+02 -3.852943e+00 -2.336482e+02
     vertex  1.797632e+02 -3.852943e+00 -2.276958e+02
     vertex  1.801198e+02 -4.088362e+00 -2.276958e+02
   endloop
 endfacet
 facet normal  6.234898e-01  7.818315e-01 -1.749871e-16
   outer loop
     vertex  1.797632e+02 -3.852943e+00 -2.336482e+02
     vertex  1.794291e+02 -3.586503e+00 -2.276958e+02
     vertex  1.797632e+02 -3.852943e+00 -2.276958e+02
   endloop
 endfacet
 facet normal  5.508970e-01  8.345733e-01 -2.755129e-15
   outer loop
     vertex  1.797632e+02 -3.852943e+00 -2.336482e+02
     vertex  1.801198e+02 -4.088362e+00 -2.276958e+02
     vertex  1.801198e+02 -4.088362e+00 -2.336482e+02
   endloop
 endfacet
 facet normal  6.234898e-01  7.818315e-01 -1.166580e-16
   outer loop
     vertex  1.794291e+02 -3.586503e+00 -2.336482e+02
     vertex  1.794291e+02 -3.586503e+00 -2.276958e+02
     vertex  1.797632e+02 -3.852943e+00 -2.336482e+02
   endloop
 endfacet
 facet normal  6.910626e-01  7.227949e-01 -1.091140e-16
   outer loop
     vertex  1.791202e+02 -3.291186e+00 -2.336482e+02
     vertex  1.794291e+02 -3.586503e+00 -2.276958e+02
     vertex  1.794291e+02 -3.586503e+00 -2.336482e+02
   endloop
 endfacet
 facet normal  6.910626e-01  7.227949e-01 -1.617737e-16
   outer loop
     vertex  1.791202e+02 -3.291186e+00 -2.336482e+02
     vertex  1.791202e+02 -3.291186e+00 -2.276958e+02
     vertex  1.794291e+02 -3.586503e+00 -2.276958e+02
   endloop
 endfacet
 facet normal  7.530715e-01  6.579387e-01 -1.473039e-16
   outer loop
     vertex  1.788390e+02 -2.969370e+00 -2.336482e+02
     vertex  1.791202e+02 -3.291186e+00 -2.276958e+02
     vertex  1.791202e+02 -3.291186e+00 -2.336482e+02
   endloop
 endfacet
 facet normal  7.530715e-01  6.579387e-01 -9.817185e-17
   outer loop
     vertex  1.788390e+02 -2.969370e+00 -2.336482e+02
     vertex  1.788390e+02 -2.969370e+00 -2.276958e+02
     vertex  1.791202e+02 -3.291186e+00 -2.276958e+02
   endloop
 endfacet
 facet normal  8.090170e-01  5.877853e-01 -8.729121e-17
   outer loop
     vertex  1.785878e+02 -2.623647e+00 -2.336482e+02
     vertex  1.788390e+02 -2.969370e+00 -2.276958e+02
     vertex  1.788390e+02 -2.969370e+00 -2.336482e+02
   endloop
 endfacet
 facet normal  8.090170e-01  5.877853e-01 -8.770417e-17
   outer loop
     vertex  1.785878e+02 -2.623647e+00 -2.336482e+02
     vertex  1.785878e+02 -2.623647e+00 -2.276958e+02
     vertex  1.788390e+02 -2.969370e+00 -2.276958e+02
   endloop
 endfacet
 facet normal  8.584488e-01  5.128993e-01 -7.653034e-17
   outer loop
     vertex  1.785878e+02 -2.623647e+00 -2.336482e+02
     vertex  1.783687e+02 -2.256800e+00 -2.276958e+02
     vertex  1.785878e+02 -2.623647e+00 -2.276958e+02
   endloop
 endfacet
 facet normal  8.584488e-01  5.128993e-01 -3.826517e-17
   outer loop
     vertex  1.783687e+02 -2.256800e+00 -2.336482e+02
     vertex  1.783687e+02 -2.256800e+00 -2.276958e+02
     vertex  1.785878e+02 -2.623647e+00 -2.336482e+02
   endloop
 endfacet
 facet normal  9.009689e-01  4.338837e-01 -3.273421e-17
   outer loop
     vertex  1.781832e+02 -1.871782e+00 -2.336482e+02
     vertex  1.783687e+02 -2.256800e+00 -2.276958e+02
     vertex  1.783687e+02 -2.256800e+00 -2.336482e+02
   endloop
 endfacet
 facet normal  9.009689e-01  4.338837e-01 -3.237017e-17
   outer loop
     vertex  1.781832e+02 -1.871782e+00 -2.336482e+02
     vertex  1.781832e+02 -1.871782e+00 -2.276958e+02
     vertex  1.783687e+02 -2.256800e+00 -2.276958e+02
   endloop
 endfacet
 facet normal  9.362349e-01  3.513748e-01 -2.455065e-17
   outer loop
     vertex  1.780331e+02 -1.471693e+00 -2.336482e+02
     vertex  1.781832e+02 -1.871782e+00 -2.276958e+02
     vertex  1.781832e+02 -1.871782e+00 -2.336482e+02
   endloop
 endfacet
 facet normal  9.362349e-01  3.513748e-01 -3.932181e-17
   outer loop
     vertex  1.780331e+02 -1.471693e+00 -2.336482e+02
     vertex  1.780331e+02 -1.471693e+00 -2.276958e+02
     vertex  1.781832e+02 -1.871782e+00 -2.276958e+02
   endloop
 endfacet
 facet normal  9.639629e-01  2.660368e-01 -3.000636e-17
   outer loop
     vertex  1.779194e+02 -1.059756e+00 -2.336482e+02
     vertex  1.780331e+02 -1.471693e+00 -2.276958e+02
     vertex  1.780331e+02 -1.471693e+00 -2.336482e+02
   endloop
 endfacet
 facet normal  9.639629e-01  2.660368e-01 -1.984784e-17
   outer loop
     vertex  1.779194e+02 -1.059756e+00 -2.336482e+02
     vertex  1.779194e+02 -1.059756e+00 -2.276958e+02
     vertex  1.780331e+02 -1.471693e+00 -2.276958e+02
   endloop
 endfacet
 facet normal  9.839296e-01  1.785569e-01 -1.091140e-17
   outer loop
     vertex  1.778431e+02 -6.392859e-01 -2.336482e+02
     vertex  1.779194e+02 -1.059756e+00 -2.276958e+02
     vertex  1.779194e+02 -1.059756e+00 -2.336482e+02
   endloop
 endfacet
 facet normal  9.839296e-01  1.785569e-01 -1.665168e-17
   outer loop
     vertex  1.778431e+02 -6.392859e-01 -2.336482e+02
     vertex  1.778431e+02 -6.392859e-01 -2.276958e+02
     vertex  1.779194e+02 -1.059756e+00 -2.276958e+02
   endloop
 endfacet
 facet normal  9.959743e-01  8.963931e-02 -8.359495e-18
   outer loop
     vertex  1.778431e+02 -6.392859e-01 -2.336482e+02
     vertex  1.778048e+02 -2.136688e-01 -2.276958e+02
     vertex  1.778431e+02 -6.392859e-01 -2.276958e+02
   endloop
 endfacet
 facet normal  9.959743e-01  8.963931e-02 -8.359495e-18
   outer loop
     vertex  1.778048e+02 -2.136688e-01 -2.336482e+02
     vertex  1.778048e+02 -2.136688e-01 -2.276958e+02
     vertex  1.778431e+02 -6.392859e-01 -2.336482e+02
   endloop
 endfacet
 facet normal  1.000000e+00  0.000000e+00  0.000000e+00
   outer loop
     vertex  1.778048e+02  2.136688e-01 -2.336482e+02
     vertex  1.778048e+02 -2.136688e-01 -2.276958e+02
     vertex  1.778048e+02 -2.136688e-01 -2.336482e+02
   endloop
 endfacet
 facet normal  1.000000e+00  0.000000e+00 -0.000000e+00
   outer loop
     vertex  1.778048e+02  2.136688e-01 -2.336482e+02
     vertex  1.778048e+02  2.136688e-01 -2.276958e+02
     vertex  1.778048e+02 -2.136688e-01 -2.276958e+02
   endloop
 endfacet
 facet normal  9.959743e-01 -8.963931e-02  8.359495e-18
   outer loop
     vertex  1.778048e+02  2.136688e-01 -2.336482e+02
     vertex  1.778431e+02  6.392859e-01 -2.276958e+02
     vertex  1.778048e+02  2.136688e-01 -2.276958e+02
   endloop
 endfacet
 facet normal  9.959743e-01 -8.963931e-02  8.359495e-18
   outer loop
     vertex  1.778431e+02  6.392859e-01 -2.336482e+02
     vertex  1.778431e+02  6.392859e-01 -2.276958e+02
     vertex  1.778048e+02  2.136688e-01 -2.336482e+02
   endloop
 endfacet
 facet normal  9.839296e-01 -1.785569e-01  1.665168e-17
   outer loop
     vertex  1.778431e+02  6.392859e-01 -2.336482e+02
     vertex  1.779194e+02  1.059756e+00 -2.276958e+02
     vertex  1.778431e+02  6.392859e-01 -2.276958e+02
   endloop
 endfacet
 facet normal  9.839296e-01 -1.785569e-01  1.332135e-17
   outer loop
     vertex  1.779194e+02  1.059756e+00 -2.336482e+02
     vertex  1.779194e+02  1.059756e+00 -2.276958e+02
     vertex  1.778431e+02  6.392859e-01 -2.336482e+02
   endloop
 endfacet
 facet normal  9.639629e-01 -2.660368e-01  1.984784e-17
   outer loop
     vertex  1.780331e+02  1.471693e+00 -2.336482e+02
     vertex  1.780331e+02  1.471693e+00 -2.276958e+02
     vertex  1.779194e+02  1.059756e+00 -2.276958e+02
   endloop
 endfacet
 facet normal  9.639629e-01 -2.660368e-01  1.909495e-17
   outer loop
     vertex  1.780331e+02  1.471693e+00 -2.336482e+02
     vertex  1.779194e+02  1.059756e+00 -2.276958e+02
     vertex  1.779194e+02  1.059756e+00 -2.336482e+02
   endloop
 endfacet
 facet normal  9.362349e-01 -3.513748e-01  3.932181e-17
   outer loop
     vertex  1.781832e+02  1.871782e+00 -2.336482e+02
     vertex  1.781832e+02  1.871782e+00 -2.276958e+02
     vertex  1.780331e+02  1.471693e+00 -2.276958e+02
   endloop
 endfacet
 facet normal  9.009689e-01 -4.338837e-01  4.855525e-17
   outer loop
     vertex  1.781832e+02  1.871782e+00 -2.336482e+02
     vertex  1.783687e+02  2.256800e+00 -2.276958e+02
     vertex  1.781832e+02  1.871782e+00 -2.276958e+02
   endloop
 endfacet
 facet normal  9.362349e-01 -3.513748e-01  2.455065e-17
   outer loop
     vertex  1.781832e+02  1.871782e+00 -2.336482e+02
     vertex  1.780331e+02  1.471693e+00 -2.276958e+02
     vertex  1.780331e+02  1.471693e+00 -2.336482e+02
   endloop
 endfacet
 facet normal  9.009689e-01 -4.338837e-01  6.474033e-17
   outer loop
     vertex  1.783687e+02  2.256800e+00 -2.336482e+02
     vertex  1.783687e+02  2.256800e+00 -2.276958e+02
     vertex  1.781832e+02  1.871782e+00 -2.336482e+02
   endloop
 endfacet
 facet normal  8.584488e-01 -5.128993e-01  7.653034e-17
   outer loop
     vertex  1.785878e+02  2.623647e+00 -2.336482e+02
     vertex  1.785878e+02  2.623647e+00 -2.276958e+02
     vertex  1.783687e+02  2.256800e+00 -2.276958e+02
   endloop
 endfacet
 facet normal  8.584488e-01 -5.128993e-01  7.637981e-17
   outer loop
     vertex  1.785878e+02  2.623647e+00 -2.336482e+02
     vertex  1.783687e+02  2.256800e+00 -2.276958e+02
     vertex  1.783687e+02  2.256800e+00 -2.336482e+02
   endloop
 endfacet
 facet normal  8.090170e-01 -5.877853e-01  8.770417e-17
   outer loop
     vertex  1.788390e+02  2.969370e+00 -2.336482e+02
     vertex  1.788390e+02  2.969370e+00 -2.276958e+02
     vertex  1.785878e+02  2.623647e+00 -2.276958e+02
   endloop
 endfacet
 facet normal  8.090170e-01 -5.877853e-01  8.729121e-17
   outer loop
     vertex  1.788390e+02  2.969370e+00 -2.336482e+02
     vertex  1.785878e+02  2.623647e+00 -2.276958e+02
     vertex  1.785878e+02  2.623647e+00 -2.336482e+02
   endloop
 endfacet
 facet normal  7.530715e-01 -6.579387e-01  1.472578e-16
   outer loop
     vertex  1.791202e+02  3.291186e+00 -2.336482e+02
     vertex  1.791202e+02  3.291186e+00 -2.276958e+02
     vertex  1.788390e+02  2.969370e+00 -2.276958e+02
   endloop
 endfacet
 facet normal  6.910626e-01 -7.227949e-01  1.617737e-16
   outer loop
     vertex  1.791202e+02  3.291186e+00 -2.336482e+02
     vertex  1.794291e+02  3.586503e+00 -2.276958e+02
     vertex  1.791202e+02  3.291186e+00 -2.276958e+02
   endloop
 endfacet
 facet normal  7.530715e-01 -6.579387e-01  9.820262e-17
   outer loop
     vertex  1.791202e+02  3.291186e+00 -2.336482e+02
     vertex  1.788390e+02  2.969370e+00 -2.276958e+02
     vertex  1.788390e+02  2.969370e+00 -2.336482e+02
   endloop
 endfacet
 facet normal  6.234898e-01 -7.818315e-01  5.832902e-17
   outer loop
     vertex  1.794291e+02  3.586503e+00 -2.336482e+02
     vertex  1.797632e+02  3.852943e+00 -2.276958e+02
     vertex  1.794291e+02  3.586503e+00 -2.276958e+02
   endloop
 endfacet
 facet normal  6.910626e-01 -7.227949e-01  5.392456e-17
   outer loop
     vertex  1.794291e+02  3.586503e+00 -2.336482e+02
     vertex  1.794291e+02  3.586503e+00 -2.276958e+02
     vertex  1.791202e+02  3.291186e+00 -2.336482e+02
   endloop
 endfacet
 facet normal  6.234898e-01 -7.818315e-01  1.166580e-16
   outer loop
     vertex  1.797632e+02  3.852943e+00 -2.336482e+02
     vertex  1.797632e+02  3.852943e+00 -2.276958e+02
     vertex  1.794291e+02  3.586503e+00 -2.336482e+02
   endloop
 endfacet
 facet normal  5.508970e-01 -8.345733e-01  2.879456e-15
   outer loop
     vertex  1.801198e+02  4.088362e+00 -2.336482e+02
     vertex  1.801198e+02  4.088362e+00 -2.276958e+02
     vertex  1.797632e+02  3.852943e+00 -2.276958e+02
   endloop
 endfacet
 facet normal  4.738687e-01 -8.805955e-01  2.525399e-15
   outer loop
     vertex  1.801198e+02  4.088362e+00 -2.336482e+02
     vertex  1.804961e+02  4.290864e+00 -2.276958e+02
     vertex  1.801198e+02  4.088362e+00 -2.276958e+02
   endloop
 endfacet
 facet normal  5.508970e-01 -8.345733e-01  1.254811e-16
   outer loop
     vertex  1.801198e+02  4.088362e+00 -2.336482e+02
     vertex  1.797632e+02  3.852943e+00 -2.276958e+02
     vertex  1.797632e+02  3.852943e+00 -2.336482e+02
   endloop
 endfacet
 facet normal  4.738687e-01 -8.805955e-01  2.627895e-16
   outer loop
     vertex  1.804961e+02  4.290864e+00 -2.336482e+02
     vertex  1.804961e+02  4.290864e+00 -2.276958e+02
     vertex  1.801198e+02  4.088362e+00 -2.336482e+02
   endloop
 endfacet
 facet normal  3.930250e-01 -9.195278e-01  2.744078e-16
   outer loop
     vertex  1.808891e+02  4.458819e+00 -2.336482e+02
     vertex  1.808891e+02  4.458819e+00 -2.276958e+02
     vertex  1.804961e+02  4.290864e+00 -2.276958e+02
   endloop
 endfacet
 facet normal  3.090170e-01 -9.510565e-01  2.838166e-16
   outer loop
     vertex  1.808891e+02  4.458819e+00 -2.336482e+02
     vertex  1.812955e+02  4.590873e+00 -2.276958e+02
     vertex  1.808891e+02  4.458819e+00 -2.276958e+02
   endloop
 endfacet
 facet normal  3.930250e-01 -9.195278e-01  2.727850e-16
   outer loop
     vertex  1.808891e+02  4.458819e+00 -2.336482e+02
     vertex  1.804961e+02  4.290864e+00 -2.276958e+02
     vertex  1.804961e+02  4.290864e+00 -2.336482e+02
   endloop
 endfacet
 facet normal  3.090170e-01 -9.510565e-01  1.419083e-16
   outer loop
     vertex  1.812955e+02  4.590873e+00 -2.336482e+02
     vertex  1.812955e+02  4.590873e+00 -2.276958e+02
     vertex  1.808891e+02  4.458819e+00 -2.336482e+02
   endloop
 endfacet
 facet normal  2.225209e-01 -9.749279e-01  1.445761e-16
   outer loop
     vertex  1.817121e+02  4.685965e+00 -2.336482e+02
     vertex  1.812955e+02  4.590873e+00 -2.276958e+02
     vertex  1.812955e+02  4.590873e+00 -2.336482e+02
   endloop
 endfacet
 facet normal  2.225209e-01 -9.749279e-01  2.909404e-16
   outer loop
     vertex  1.817121e+02  4.685965e+00 -2.336482e+02
     vertex  1.817121e+02  4.685965e+00 -2.276958e+02
     vertex  1.812955e+02  4.590873e+00 -2.276958e+02
   endloop
 endfacet
 facet normal  1.342333e-01 -9.909498e-01  2.957217e-16
   outer loop
     vertex  1.817121e+02  4.685965e+00 -2.336482e+02
     vertex  1.821356e+02  4.743328e+00 -2.276958e+02
     vertex  1.817121e+02  4.685965e+00 -2.276958e+02
   endloop
 endfacet
 facet normal  1.342333e-01 -9.909498e-01  2.957217e-16
   outer loop
     vertex  1.821356e+02  4.743328e+00 -2.336482e+02
     vertex  1.821356e+02  4.743328e+00 -2.276958e+02
     vertex  1.817121e+02  4.685965e+00 -2.336482e+02
   endloop
 endfacet
 facet normal  4.486483e-02 -9.989931e-01  2.980177e-16
   outer loop
     vertex  1.825625e+02  4.762500e+00 -2.336482e+02
     vertex  1.821356e+02  4.743328e+00 -2.276958e+02
     vertex  1.821356e+02  4.743328e+00 -2.336482e+02
   endloop
 endfacet
 facet normal  4.486483e-02 -9.989931e-01  2.981220e-16
   outer loop
     vertex  1.825625e+02  4.762500e+00 -2.336482e+02
     vertex  1.825625e+02  4.762500e+00 -2.276958e+02
     vertex  1.821356e+02  4.743328e+00 -2.276958e+02
   endloop
 endfacet
endsolid
