solid 
 facet normal -9.195172e-01 -3.930497e-01  0.000000e+00
   outer loop
     vertex -1.826746e+02 -5.825803e+01 -2.312670e+02
     vertex -1.814832e+02 -6.104525e+01  0.000000e+00
     vertex -1.826746e+02 -5.825803e+01  0.000000e+00
   endloop
 endfacet
 facet normal -9.195172e-01 -3.930497e-01  0.000000e+00
   outer loop
     vertex -1.826746e+02 -5.825803e+01 -2.312670e+02
     vertex -1.814832e+02 -6.104525e+01 -2.312670e+02
     vertex -1.814832e+02 -6.104525e+01  0.000000e+00
   endloop
 endfacet
 facet normal -9.294501e-01 -3.689477e-01  0.000000e+00
   outer loop
     vertex -1.838296e+02 -5.545552e+01 -2.312670e+02
     vertex -1.838296e+02 -5.545552e+01  0.000000e+00
     vertex -1.849479e+02 -5.263820e+01  0.000000e+00
   endloop
 endfacet
 facet normal -9.245622e-01 -3.810311e-01  0.000000e+00
   outer loop
     vertex -1.838296e+02 -5.545552e+01 -2.312670e+02
     vertex -1.826746e+02 -5.825803e+01  0.000000e+00
     vertex -1.838296e+02 -5.545552e+01  0.000000e+00
   endloop
 endfacet
 facet normal -9.245622e-01 -3.810311e-01  0.000000e+00
   outer loop
     vertex -1.838296e+02 -5.545552e+01 -2.312670e+02
     vertex -1.826746e+02 -5.825803e+01 -2.312670e+02
     vertex -1.826746e+02 -5.825803e+01  0.000000e+00
   endloop
 endfacet
 facet normal -9.294501e-01 -3.689477e-01  0.000000e+00
   outer loop
     vertex -1.849479e+02 -5.263820e+01 -2.312670e+02
     vertex -1.838296e+02 -5.545552e+01 -2.312670e+02
     vertex -1.849479e+02 -5.263820e+01  0.000000e+00
   endloop
 endfacet
 facet normal -9.341801e-01 -3.568017e-01  0.000000e+00
   outer loop
     vertex -1.860295e+02 -4.980654e+01 -2.312670e+02
     vertex -1.849479e+02 -5.263820e+01 -2.312670e+02
     vertex -1.849479e+02 -5.263820e+01  0.000000e+00
   endloop
 endfacet
 facet normal -9.341801e-01 -3.568017e-01  0.000000e+00
   outer loop
     vertex -1.860295e+02 -4.980654e+01 -2.312670e+02
     vertex -1.849479e+02 -5.263820e+01  0.000000e+00
     vertex -1.860295e+02 -4.980654e+01  0.000000e+00
   endloop
 endfacet
 facet normal -9.387514e-01 -3.445951e-01  0.000000e+00
   outer loop
     vertex -1.870740e+02 -4.696103e+01 -2.312670e+02
     vertex -1.860295e+02 -4.980654e+01 -2.312670e+02
     vertex -1.860295e+02 -4.980654e+01  0.000000e+00
   endloop
 endfacet
 facet normal -9.387514e-01 -3.445951e-01  0.000000e+00
   outer loop
     vertex -1.870740e+02 -4.696103e+01 -2.312670e+02
     vertex -1.860295e+02 -4.980654e+01  0.000000e+00
     vertex -1.870740e+02 -4.696103e+01  0.000000e+00
   endloop
 endfacet
 facet normal -9.431632e-01 -3.323299e-01  0.000000e+00
   outer loop
     vertex -1.880813e+02 -4.410214e+01 -2.312670e+02
     vertex -1.870740e+02 -4.696103e+01 -2.312670e+02
     vertex -1.870740e+02 -4.696103e+01  0.000000e+00
   endloop
 endfacet
 facet normal -9.431632e-01 -3.323299e-01  0.000000e+00
   outer loop
     vertex -1.880813e+02 -4.410214e+01 -2.312670e+02
     vertex -1.870740e+02 -4.696103e+01  0.000000e+00
     vertex -1.880813e+02 -4.410214e+01  0.000000e+00
   endloop
 endfacet
 facet normal -9.474147e-01 -3.200083e-01  0.000000e+00
   outer loop
     vertex -1.890513e+02 -4.123036e+01 -2.312670e+02
     vertex -1.880813e+02 -4.410214e+01 -2.312670e+02
     vertex -1.880813e+02 -4.410214e+01  0.000000e+00
   endloop
 endfacet
 facet normal -9.474147e-01 -3.200083e-01  0.000000e+00
   outer loop
     vertex -1.890513e+02 -4.123036e+01 -2.312670e+02
     vertex -1.880813e+02 -4.410214e+01  0.000000e+00
     vertex -1.890513e+02 -4.123036e+01  0.000000e+00
   endloop
 endfacet
 facet normal -9.515053e-01 -3.076323e-01  0.000000e+00
   outer loop
     vertex -1.899838e+02 -3.834618e+01 -2.312670e+02
     vertex -1.890513e+02 -4.123036e+01 -2.312670e+02
     vertex -1.890513e+02 -4.123036e+01  0.000000e+00
   endloop
 endfacet
 facet normal -9.554342e-01 -2.952040e-01  0.000000e+00
   outer loop
     vertex -1.899838e+02 -3.834618e+01 -2.312670e+02
     vertex -1.899838e+02 -3.834618e+01  0.000000e+00
     vertex -1.908786e+02 -3.545010e+01  0.000000e+00
   endloop
 endfacet
 facet normal -9.515053e-01 -3.076323e-01  0.000000e+00
   outer loop
     vertex -1.899838e+02 -3.834618e+01 -2.312670e+02
     vertex -1.890513e+02 -4.123036e+01  0.000000e+00
     vertex -1.899838e+02 -3.834618e+01  0.000000e+00
   endloop
 endfacet
 facet normal -9.554342e-01 -2.952040e-01  0.000000e+00
   outer loop
     vertex -1.908786e+02 -3.545010e+01 -2.312670e+02
     vertex -1.899838e+02 -3.834618e+01 -2.312670e+02
     vertex -1.908786e+02 -3.545010e+01  0.000000e+00
   endloop
 endfacet
 facet normal -9.592008e-01 -2.827256e-01  0.000000e+00
   outer loop
     vertex -1.917356e+02 -3.254260e+01 -2.312670e+02
     vertex -1.908786e+02 -3.545010e+01 -2.312670e+02
     vertex -1.908786e+02 -3.545010e+01  0.000000e+00
   endloop
 endfacet
 facet normal -9.628045e-01 -2.701991e-01  0.000000e+00
   outer loop
     vertex -1.917356e+02 -3.254260e+01 -2.312670e+02
     vertex -1.917356e+02 -3.254260e+01  0.000000e+00
     vertex -1.925546e+02 -2.962417e+01  0.000000e+00
   endloop
 endfacet
 facet normal -9.592008e-01 -2.827256e-01  0.000000e+00
   outer loop
     vertex -1.917356e+02 -3.254260e+01 -2.312670e+02
     vertex -1.908786e+02 -3.545010e+01  0.000000e+00
     vertex -1.917356e+02 -3.254260e+01  0.000000e+00
   endloop
 endfacet
 facet normal -9.628045e-01 -2.701991e-01  0.000000e+00
   outer loop
     vertex -1.925546e+02 -2.962417e+01 -2.312670e+02
     vertex -1.917356e+02 -3.254260e+01 -2.312670e+02
     vertex -1.925546e+02 -2.962417e+01  0.000000e+00
   endloop
 endfacet
 facet normal -9.662445e-01 -2.576267e-01  0.000000e+00
   outer loop
     vertex -1.925546e+02 -2.962417e+01 -2.312670e+02
     vertex -1.925546e+02 -2.962417e+01  0.000000e+00
     vertex -1.933356e+02 -2.669532e+01  0.000000e+00
   endloop
 endfacet
 facet normal -9.662445e-01 -2.576267e-01  0.000000e+00
   outer loop
     vertex -1.933356e+02 -2.669532e+01 -2.312670e+02
     vertex -1.925546e+02 -2.962417e+01 -2.312670e+02
     vertex -1.933356e+02 -2.669532e+01  0.000000e+00
   endloop
 endfacet
 facet normal -9.695204e-01 -2.450106e-01  0.000000e+00
   outer loop
     vertex -1.933356e+02 -2.669532e+01 -2.312670e+02
     vertex -1.933356e+02 -2.669532e+01  0.000000e+00
     vertex -1.940782e+02 -2.375654e+01  0.000000e+00
   endloop
 endfacet
 facet normal -9.695204e-01 -2.450106e-01  0.000000e+00
   outer loop
     vertex -1.940782e+02 -2.375654e+01 -2.312670e+02
     vertex -1.933356e+02 -2.669532e+01 -2.312670e+02
     vertex -1.940782e+02 -2.375654e+01  0.000000e+00
   endloop
 endfacet
 facet normal -9.726316e-01 -2.323528e-01  0.000000e+00
   outer loop
     vertex -1.947825e+02 -2.080832e+01 -2.312670e+02
     vertex -1.940782e+02 -2.375654e+01 -2.312670e+02
     vertex -1.940782e+02 -2.375654e+01  0.000000e+00
   endloop
 endfacet
 facet normal -9.726316e-01 -2.323528e-01  0.000000e+00
   outer loop
     vertex -1.947825e+02 -2.080832e+01 -2.312670e+02
     vertex -1.940782e+02 -2.375654e+01  0.000000e+00
     vertex -1.947825e+02 -2.080832e+01  0.000000e+00
   endloop
 endfacet
 facet normal -9.755775e-01 -2.196556e-01  0.000000e+00
   outer loop
     vertex -1.954483e+02 -1.785118e+01 -2.312670e+02
     vertex -1.947825e+02 -2.080832e+01 -2.312670e+02
     vertex -1.947825e+02 -2.080832e+01  0.000000e+00
   endloop
 endfacet
 facet normal -9.783577e-01 -2.069210e-01  0.000000e+00
   outer loop
     vertex -1.954483e+02 -1.785118e+01 -2.312670e+02
     vertex -1.954483e+02 -1.785118e+01  0.000000e+00
     vertex -1.960756e+02 -1.488561e+01  0.000000e+00
   endloop
 endfacet
 facet normal -9.755775e-01 -2.196556e-01  0.000000e+00
   outer loop
     vertex -1.954483e+02 -1.785118e+01 -2.312670e+02
     vertex -1.947825e+02 -2.080832e+01  0.000000e+00
     vertex -1.954483e+02 -1.785118e+01  0.000000e+00
   endloop
 endfacet
 facet normal -9.783577e-01 -2.069210e-01  0.000000e+00
   outer loop
     vertex -1.960756e+02 -1.488561e+01 -2.312670e+02
     vertex -1.954483e+02 -1.785118e+01 -2.312670e+02
     vertex -1.960756e+02 -1.488561e+01  0.000000e+00
   endloop
 endfacet
 facet normal -9.809716e-01 -1.941513e-01  0.000000e+00
   outer loop
     vertex -1.966641e+02 -1.191212e+01 -2.312670e+02
     vertex -1.960756e+02 -1.488561e+01 -2.312670e+02
     vertex -1.960756e+02 -1.488561e+01  0.000000e+00
   endloop
 endfacet
 facet normal -9.809716e-01 -1.941513e-01  0.000000e+00
   outer loop
     vertex -1.966641e+02 -1.191212e+01 -2.312670e+02
     vertex -1.960756e+02 -1.488561e+01  0.000000e+00
     vertex -1.966641e+02 -1.191212e+01  0.000000e+00
   endloop
 endfacet
 facet normal -9.834189e-01 -1.813486e-01  0.000000e+00
   outer loop
     vertex -1.972138e+02 -8.931209e+00 -2.312670e+02
     vertex -1.966641e+02 -1.191212e+01 -2.312670e+02
     vertex -1.966641e+02 -1.191212e+01  0.000000e+00
   endloop
 endfacet
 facet normal -9.834189e-01 -1.813486e-01  0.000000e+00
   outer loop
     vertex -1.972138e+02 -8.931209e+00 -2.312670e+02
     vertex -1.966641e+02 -1.191212e+01  0.000000e+00
     vertex -1.972138e+02 -8.931209e+00  0.000000e+00
   endloop
 endfacet
 facet normal -9.856991e-01 -1.685151e-01  0.000000e+00
   outer loop
     vertex -1.977246e+02 -5.943386e+00 -2.312670e+02
     vertex -1.972138e+02 -8.931209e+00  0.000000e+00
     vertex -1.977246e+02 -5.943386e+00  0.000000e+00
   endloop
 endfacet
 facet normal -9.856991e-01 -1.685151e-01  0.000000e+00
   outer loop
     vertex -1.977246e+02 -5.943386e+00 -2.312670e+02
     vertex -1.972138e+02 -8.931209e+00 -2.312670e+02
     vertex -1.972138e+02 -8.931209e+00  0.000000e+00
   endloop
 endfacet
 facet normal -9.897567e-01 -1.427643e-01  0.000000e+00
   outer loop
     vertex -1.981964e+02 -2.949159e+00 -2.312670e+02
     vertex -1.981964e+02 -2.949159e+00  0.000000e+00
     vertex -1.986291e+02  5.096297e-02  0.000000e+00
   endloop
 endfacet
 facet normal -9.878118e-01 -1.556529e-01  0.000000e+00
   outer loop
     vertex -1.981964e+02 -2.949159e+00 -2.312670e+02
     vertex -1.977246e+02 -5.943386e+00  0.000000e+00
     vertex -1.981964e+02 -2.949159e+00  0.000000e+00
   endloop
 endfacet
 facet normal -9.878118e-01 -1.556529e-01  0.000000e+00
   outer loop
     vertex -1.981964e+02 -2.949159e+00 -2.312670e+02
     vertex -1.977246e+02 -5.943386e+00 -2.312670e+02
     vertex -1.977246e+02 -5.943386e+00  0.000000e+00
   endloop
 endfacet
 facet normal -9.915335e-01 -1.298515e-01  0.000000e+00
   outer loop
     vertex -1.986291e+02  5.096297e-02 -2.312670e+02
     vertex -1.986291e+02  5.096297e-02  0.000000e+00
     vertex -1.990227e+02  3.056471e+00  0.000000e+00
   endloop
 endfacet
 facet normal -9.897567e-01 -1.427643e-01  0.000000e+00
   outer loop
     vertex -1.986291e+02  5.096297e-02 -2.312670e+02
     vertex -1.981964e+02 -2.949159e+00 -2.312670e+02
     vertex -1.986291e+02  5.096297e-02  0.000000e+00
   endloop
 endfacet
 facet normal -9.931417e-01 -1.169166e-01  0.000000e+00
   outer loop
     vertex -1.990227e+02  3.056471e+00 -2.312670e+02
     vertex -1.990227e+02  3.056471e+00  0.000000e+00
     vertex -1.993771e+02  6.066853e+00  0.000000e+00
   endloop
 endfacet
 facet normal -9.915335e-01 -1.298515e-01  0.000000e+00
   outer loop
     vertex -1.990227e+02  3.056471e+00 -2.312670e+02
     vertex -1.986291e+02  5.096297e-02 -2.312670e+02
     vertex -1.990227e+02  3.056471e+00  0.000000e+00
   endloop
 endfacet
 facet normal -9.931417e-01 -1.169166e-01  0.000000e+00
   outer loop
     vertex -1.993771e+02  6.066853e+00 -2.312670e+02
     vertex -1.990227e+02  3.056471e+00 -2.312670e+02
     vertex -1.993771e+02  6.066853e+00  0.000000e+00
   endloop
 endfacet
 facet normal -9.945813e-01 -1.039618e-01  0.000000e+00
   outer loop
     vertex -1.996922e+02  9.081600e+00 -2.312670e+02
     vertex -1.993771e+02  6.066853e+00 -2.312670e+02
     vertex -1.993771e+02  6.066853e+00  0.000000e+00
   endloop
 endfacet
 facet normal -9.958519e-01 -9.098937e-02  0.000000e+00
   outer loop
     vertex -1.996922e+02  9.081600e+00 -2.312670e+02
     vertex -1.996922e+02  9.081600e+00  0.000000e+00
     vertex -1.999680e+02  1.210020e+01  0.000000e+00
   endloop
 endfacet
 facet normal -9.945813e-01 -1.039618e-01  0.000000e+00
   outer loop
     vertex -1.996922e+02  9.081600e+00 -2.312670e+02
     vertex -1.993771e+02  6.066853e+00  0.000000e+00
     vertex -1.996922e+02  9.081600e+00  0.000000e+00
   endloop
 endfacet
 facet normal -9.958519e-01 -9.098937e-02  0.000000e+00
   outer loop
     vertex -1.999680e+02  1.210020e+01 -2.312670e+02
     vertex -1.996922e+02  9.081600e+00 -2.312670e+02
     vertex -1.999680e+02  1.210020e+01  0.000000e+00
   endloop
 endfacet
 facet normal -9.969532e-01 -7.800148e-02  0.000000e+00
   outer loop
     vertex -2.002045e+02  1.512213e+01 -2.312670e+02
     vertex -1.999680e+02  1.210020e+01 -2.312670e+02
     vertex -1.999680e+02  1.210020e+01  0.000000e+00
   endloop
 endfacet
 facet normal -9.969532e-01 -7.800148e-02  0.000000e+00
   outer loop
     vertex -2.002045e+02  1.512213e+01 -2.312670e+02
     vertex -1.999680e+02  1.210020e+01  0.000000e+00
     vertex -2.002045e+02  1.512213e+01  0.000000e+00
   endloop
 endfacet
 facet normal -9.978852e-01 -6.500033e-02  0.000000e+00
   outer loop
     vertex -2.004015e+02  1.814689e+01 -2.312670e+02
     vertex -2.002045e+02  1.512213e+01 -2.312670e+02
     vertex -2.002045e+02  1.512213e+01  0.000000e+00
   endloop
 endfacet
 facet normal -9.978852e-01 -6.500033e-02  0.000000e+00
   outer loop
     vertex -2.004015e+02  1.814689e+01 -2.312670e+02
     vertex -2.002045e+02  1.512213e+01  0.000000e+00
     vertex -2.004015e+02  1.814689e+01  0.000000e+00
   endloop
 endfacet
 facet normal -9.986477e-01 -5.198814e-02  0.000000e+00
   outer loop
     vertex -2.005591e+02  2.117397e+01 -2.312670e+02
     vertex -2.004015e+02  1.814689e+01 -2.312670e+02
     vertex -2.004015e+02  1.814689e+01  0.000000e+00
   endloop
 endfacet
 facet normal -9.992405e-01 -3.896712e-02  0.000000e+00
   outer loop
     vertex -2.005591e+02  2.117397e+01 -2.312670e+02
     vertex -2.005591e+02  2.117397e+01  0.000000e+00
     vertex -2.006772e+02  2.420284e+01  0.000000e+00
   endloop
 endfacet
 facet normal -9.986477e-01 -5.198814e-02  0.000000e+00
   outer loop
     vertex -2.005591e+02  2.117397e+01 -2.312670e+02
     vertex -2.004015e+02  1.814689e+01  0.000000e+00
     vertex -2.005591e+02  2.117397e+01  0.000000e+00
   endloop
 endfacet
 facet normal -9.992405e-01 -3.896712e-02  0.000000e+00
   outer loop
     vertex -2.006772e+02  2.420284e+01 -2.312670e+02
     vertex -2.005591e+02  2.117397e+01 -2.312670e+02
     vertex -2.006772e+02  2.420284e+01  0.000000e+00
   endloop
 endfacet
 facet normal -9.996635e-01 -2.593947e-02  0.000000e+00
   outer loop
     vertex -2.007558e+02  2.723299e+01 -2.312670e+02
     vertex -2.006772e+02  2.420284e+01 -2.312670e+02
     vertex -2.006772e+02  2.420284e+01  0.000000e+00
   endloop
 endfacet
 facet normal -9.996635e-01 -2.593947e-02  0.000000e+00
   outer loop
     vertex -2.007558e+02  2.723299e+01 -2.312670e+02
     vertex -2.006772e+02  2.420284e+01  0.000000e+00
     vertex -2.007558e+02  2.723299e+01  0.000000e+00
   endloop
 endfacet
 facet normal -9.999167e-01 -1.290742e-02  0.000000e+00
   outer loop
     vertex -2.007950e+02  3.026391e+01 -2.312670e+02
     vertex -2.007558e+02  2.723299e+01 -2.312670e+02
     vertex -2.007558e+02  2.723299e+01  0.000000e+00
   endloop
 endfacet
 facet normal -9.999167e-01 -1.290742e-02  0.000000e+00
   outer loop
     vertex -2.007950e+02  3.026391e+01 -2.312670e+02
     vertex -2.007558e+02  2.723299e+01  0.000000e+00
     vertex -2.007950e+02  3.026391e+01  0.000000e+00
   endloop
 endfacet
 facet normal -1.000000e+00  1.268195e-04  0.000000e+00
   outer loop
     vertex -2.007946e+02  3.329508e+01 -2.312670e+02
     vertex -2.007950e+02  3.026391e+01 -2.312670e+02
     vertex -2.007950e+02  3.026391e+01  0.000000e+00
   endloop
 endfacet
 facet normal -9.999134e-01  1.316104e-02  0.000000e+00
   outer loop
     vertex -2.007946e+02  3.329508e+01 -2.312670e+02
     vertex -2.007946e+02  3.329508e+01  0.000000e+00
     vertex -2.007547e+02  3.632599e+01  0.000000e+00
   endloop
 endfacet
 facet normal -1.000000e+00  1.268195e-04  0.000000e+00
   outer loop
     vertex -2.007946e+02  3.329508e+01 -2.312670e+02
     vertex -2.007950e+02  3.026391e+01  0.000000e+00
     vertex -2.007946e+02  3.329508e+01  0.000000e+00
   endloop
 endfacet
 facet normal -9.999134e-01  1.316104e-02  0.000000e+00
   outer loop
     vertex -2.007547e+02  3.632599e+01 -2.312670e+02
     vertex -2.007946e+02  3.329508e+01 -2.312670e+02
     vertex -2.007547e+02  3.632599e+01  0.000000e+00
   endloop
 endfacet
 facet normal -9.996569e-01  2.619303e-02  0.000000e+00
   outer loop
     vertex -2.006753e+02  3.935612e+01 -2.312670e+02
     vertex -2.007547e+02  3.632599e+01 -2.312670e+02
     vertex -2.007547e+02  3.632599e+01  0.000000e+00
   endloop
 endfacet
 facet normal -9.996569e-01  2.619303e-02  0.000000e+00
   outer loop
     vertex -2.006753e+02  3.935612e+01 -2.312670e+02
     vertex -2.007547e+02  3.632599e+01  0.000000e+00
     vertex -2.006753e+02  3.935612e+01  0.000000e+00
   endloop
 endfacet
 facet normal -9.992306e-01  3.922056e-02  0.000000e+00
   outer loop
     vertex -2.005564e+02  4.238496e+01 -2.312670e+02
     vertex -2.006753e+02  3.935612e+01 -2.312670e+02
     vertex -2.006753e+02  3.935612e+01  0.000000e+00
   endloop
 endfacet
 facet normal -9.992306e-01  3.922056e-02  0.000000e+00
   outer loop
     vertex -2.005564e+02  4.238496e+01 -2.312670e+02
     vertex -2.006753e+02  3.935612e+01  0.000000e+00
     vertex -2.005564e+02  4.238496e+01  0.000000e+00
   endloop
 endfacet
 facet normal -9.986345e-01  5.224143e-02  0.000000e+00
   outer loop
     vertex -2.003980e+02  4.541199e+01 -2.312670e+02
     vertex -2.005564e+02  4.238496e+01 -2.312670e+02
     vertex -2.005564e+02  4.238496e+01  0.000000e+00
   endloop
 endfacet
 facet normal -9.986345e-01  5.224143e-02  0.000000e+00
   outer loop
     vertex -2.003980e+02  4.541199e+01 -2.312670e+02
     vertex -2.005564e+02  4.238496e+01  0.000000e+00
     vertex -2.003980e+02  4.541199e+01  0.000000e+00
   endloop
 endfacet
 facet normal -9.978687e-01  6.525343e-02  0.000000e+00
   outer loop
     vertex -2.002002e+02  4.843670e+01 -2.312670e+02
     vertex -2.003980e+02  4.541199e+01 -2.312670e+02
     vertex -2.003980e+02  4.541199e+01  0.000000e+00
   endloop
 endfacet
 facet normal -9.969334e-01  7.825434e-02  0.000000e+00
   outer loop
     vertex -2.002002e+02  4.843670e+01 -2.312670e+02
     vertex -2.002002e+02  4.843670e+01  0.000000e+00
     vertex -1.999630e+02  5.145857e+01  0.000000e+00
   endloop
 endfacet
 facet normal -9.978687e-01  6.525343e-02  0.000000e+00
   outer loop
     vertex -2.002002e+02  4.843670e+01 -2.312670e+02
     vertex -2.003980e+02  4.541199e+01  0.000000e+00
     vertex -2.002002e+02  4.843670e+01  0.000000e+00
   endloop
 endfacet
 facet normal -9.969334e-01  7.825434e-02  0.000000e+00
   outer loop
     vertex -1.999630e+02  5.145857e+01 -2.312670e+02
     vertex -2.002002e+02  4.843670e+01 -2.312670e+02
     vertex -1.999630e+02  5.145857e+01  0.000000e+00
   endloop
 endfacet
 facet normal -9.958288e-01  9.124196e-02  0.000000e+00
   outer loop
     vertex -1.996865e+02  5.447710e+01 -2.312670e+02
     vertex -1.999630e+02  5.145857e+01 -2.312670e+02
     vertex -1.999630e+02  5.145857e+01  0.000000e+00
   endloop
 endfacet
 facet normal -9.958288e-01  9.124196e-02  0.000000e+00
   outer loop
     vertex -1.996865e+02  5.447710e+01 -2.312670e+02
     vertex -1.999630e+02  5.145857e+01  0.000000e+00
     vertex -1.996865e+02  5.447710e+01  0.000000e+00
   endloop
 endfacet
 facet normal -9.945549e-01  1.042141e-01  0.000000e+00
   outer loop
     vertex -1.993706e+02  5.749177e+01 -2.312670e+02
     vertex -1.996865e+02  5.447710e+01  0.000000e+00
     vertex -1.993706e+02  5.749177e+01  0.000000e+00
   endloop
 endfacet
 facet normal -9.945549e-01  1.042141e-01  0.000000e+00
   outer loop
     vertex -1.993706e+02  5.749177e+01 -2.312670e+02
     vertex -1.996865e+02  5.447710e+01 -2.312670e+02
     vertex -1.996865e+02  5.447710e+01  0.000000e+00
   endloop
 endfacet
 facet normal -9.915005e-01  1.301030e-01  0.000000e+00
   outer loop
     vertex -1.990154e+02  6.050206e+01 -2.312670e+02
     vertex -1.990154e+02  6.050206e+01  0.000000e+00
     vertex -1.986211e+02  6.350747e+01  0.000000e+00
   endloop
 endfacet
 facet normal -9.931121e-01  1.171685e-01  0.000000e+00
   outer loop
     vertex -1.990154e+02  6.050206e+01 -2.312670e+02
     vertex -1.993706e+02  5.749177e+01  0.000000e+00
     vertex -1.990154e+02  6.050206e+01  0.000000e+00
   endloop
 endfacet
 facet normal -9.931121e-01  1.171685e-01  0.000000e+00
   outer loop
     vertex -1.990154e+02  6.050206e+01 -2.312670e+02
     vertex -1.993706e+02  5.749177e+01 -2.312670e+02
     vertex -1.993706e+02  5.749177e+01  0.000000e+00
   endloop
 endfacet
 facet normal -9.915005e-01  1.301030e-01  0.000000e+00
   outer loop
     vertex -1.986211e+02  6.350747e+01 -2.312670e+02
     vertex -1.990154e+02  6.050206e+01 -2.312670e+02
     vertex -1.986211e+02  6.350747e+01  0.000000e+00
   endloop
 endfacet
 facet normal -9.897205e-01  1.430154e-01  0.000000e+00
   outer loop
     vertex -1.981876e+02  6.650748e+01 -2.312670e+02
     vertex -1.986211e+02  6.350747e+01  0.000000e+00
     vertex -1.981876e+02  6.650748e+01  0.000000e+00
   endloop
 endfacet
 facet normal -9.897205e-01  1.430154e-01  0.000000e+00
   outer loop
     vertex -1.981876e+02  6.650748e+01 -2.312670e+02
     vertex -1.986211e+02  6.350747e+01 -2.312670e+02
     vertex -1.986211e+02  6.350747e+01  0.000000e+00
   endloop
 endfacet
 facet normal -9.877723e-01  1.559035e-01  0.000000e+00
   outer loop
     vertex -1.977150e+02  6.950159e+01 -2.312670e+02
     vertex -1.981876e+02  6.650748e+01  0.000000e+00
     vertex -1.977150e+02  6.950159e+01  0.000000e+00
   endloop
 endfacet
 facet normal -9.877723e-01  1.559035e-01  0.000000e+00
   outer loop
     vertex -1.977150e+02  6.950159e+01 -2.312670e+02
     vertex -1.981876e+02  6.650748e+01 -2.312670e+02
     vertex -1.981876e+02  6.650748e+01  0.000000e+00
   endloop
 endfacet
 facet normal -9.856563e-01  1.687651e-01  0.000000e+00
   outer loop
     vertex -1.972034e+02  7.248928e+01 -2.312670e+02
     vertex -1.977150e+02  6.950159e+01  0.000000e+00
     vertex -1.972034e+02  7.248928e+01  0.000000e+00
   endloop
 endfacet
 facet normal -9.856563e-01  1.687651e-01  0.000000e+00
   outer loop
     vertex -1.972034e+02  7.248928e+01 -2.312670e+02
     vertex -1.977150e+02  6.950159e+01 -2.312670e+02
     vertex -1.977150e+02  6.950159e+01  0.000000e+00
   endloop
 endfacet
 facet normal -9.809223e-01  1.944001e-01  0.000000e+00
   outer loop
     vertex -1.966530e+02  7.547005e+01 -2.312670e+02
     vertex -1.966530e+02  7.547005e+01  0.000000e+00
     vertex -1.960637e+02  7.844340e+01  0.000000e+00
   endloop
 endfacet
 facet normal -9.833728e-01  1.815980e-01  0.000000e+00
   outer loop
     vertex -1.966530e+02  7.547005e+01 -2.312670e+02
     vertex -1.972034e+02  7.248928e+01  0.000000e+00
     vertex -1.966530e+02  7.547005e+01  0.000000e+00
   endloop
 endfacet
 facet normal -9.833728e-01  1.815980e-01  0.000000e+00
   outer loop
     vertex -1.966530e+02  7.547005e+01 -2.312670e+02
     vertex -1.972034e+02  7.248928e+01 -2.312670e+02
     vertex -1.972034e+02  7.248928e+01  0.000000e+00
   endloop
 endfacet
 facet normal -9.809223e-01  1.944001e-01  0.000000e+00
   outer loop
     vertex -1.960637e+02  7.844340e+01 -2.312670e+02
     vertex -1.966530e+02  7.547005e+01 -2.312670e+02
     vertex -1.960637e+02  7.844340e+01  0.000000e+00
   endloop
 endfacet
 facet normal -9.783051e-01  2.071692e-01  0.000000e+00
   outer loop
     vertex -1.954358e+02  8.140881e+01 -2.312670e+02
     vertex -1.960637e+02  7.844340e+01  0.000000e+00
     vertex -1.954358e+02  8.140881e+01  0.000000e+00
   endloop
 endfacet
 facet normal -9.783051e-01  2.071692e-01  0.000000e+00
   outer loop
     vertex -1.954358e+02  8.140881e+01 -2.312670e+02
     vertex -1.960637e+02  7.844340e+01 -2.312670e+02
     vertex -1.960637e+02  7.844340e+01  0.000000e+00
   endloop
 endfacet
 facet normal -9.755217e-01  2.199030e-01  0.000000e+00
   outer loop
     vertex -1.947692e+02  8.436578e+01 -2.312670e+02
     vertex -1.954358e+02  8.140881e+01 -2.312670e+02
     vertex -1.954358e+02  8.140881e+01  0.000000e+00
   endloop
 endfacet
 facet normal -9.755217e-01  2.199030e-01  0.000000e+00
   outer loop
     vertex -1.947692e+02  8.436578e+01 -2.312670e+02
     vertex -1.954358e+02  8.140881e+01  0.000000e+00
     vertex -1.947692e+02  8.436578e+01  0.000000e+00
   endloop
 endfacet
 facet normal -9.725726e-01  2.325995e-01  0.000000e+00
   outer loop
     vertex -1.940641e+02  8.731381e+01 -2.312670e+02
     vertex -1.947692e+02  8.436578e+01 -2.312670e+02
     vertex -1.947692e+02  8.436578e+01  0.000000e+00
   endloop
 endfacet
 facet normal -9.725726e-01  2.325995e-01  0.000000e+00
   outer loop
     vertex -1.940641e+02  8.731381e+01 -2.312670e+02
     vertex -1.947692e+02  8.436578e+01  0.000000e+00
     vertex -1.940641e+02  8.731381e+01  0.000000e+00
   endloop
 endfacet
 facet normal -9.694582e-01  2.452565e-01  0.000000e+00
   outer loop
     vertex -1.933207e+02  9.025241e+01 -2.312670e+02
     vertex -1.940641e+02  8.731381e+01 -2.312670e+02
     vertex -1.940641e+02  8.731381e+01  0.000000e+00
   endloop
 endfacet
 facet normal -9.694582e-01  2.452565e-01  0.000000e+00
   outer loop
     vertex -1.933207e+02  9.025241e+01 -2.312670e+02
     vertex -1.940641e+02  8.731381e+01  0.000000e+00
     vertex -1.933207e+02  9.025241e+01  0.000000e+00
   endloop
 endfacet
 facet normal -9.661791e-01  2.578718e-01  0.000000e+00
   outer loop
     vertex -1.925391e+02  9.318106e+01 -2.312670e+02
     vertex -1.933207e+02  9.025241e+01 -2.312670e+02
     vertex -1.933207e+02  9.025241e+01  0.000000e+00
   endloop
 endfacet
 facet normal -9.661791e-01  2.578718e-01  0.000000e+00
   outer loop
     vertex -1.925391e+02  9.318106e+01 -2.312670e+02
     vertex -1.933207e+02  9.025241e+01  0.000000e+00
     vertex -1.925391e+02  9.318106e+01  0.000000e+00
   endloop
 endfacet
 facet normal -9.627359e-01  2.704433e-01  0.000000e+00
   outer loop
     vertex -1.917193e+02  9.609928e+01 -2.312670e+02
     vertex -1.925391e+02  9.318106e+01 -2.312670e+02
     vertex -1.925391e+02  9.318106e+01  0.000000e+00
   endloop
 endfacet
 facet normal -9.627359e-01  2.704433e-01  0.000000e+00
   outer loop
     vertex -1.917193e+02  9.609928e+01 -2.312670e+02
     vertex -1.925391e+02  9.318106e+01  0.000000e+00
     vertex -1.917193e+02  9.609928e+01  0.000000e+00
   endloop
 endfacet
 facet normal -9.591291e-01  2.829688e-01  0.000000e+00
   outer loop
     vertex -1.908616e+02  9.900656e+01 -2.312670e+02
     vertex -1.917193e+02  9.609928e+01 -2.312670e+02
     vertex -1.917193e+02  9.609928e+01  0.000000e+00
   endloop
 endfacet
 facet normal -9.591291e-01  2.829688e-01  0.000000e+00
   outer loop
     vertex -1.908616e+02  9.900656e+01 -2.312670e+02
     vertex -1.917193e+02  9.609928e+01  0.000000e+00
     vertex -1.908616e+02  9.900656e+01  0.000000e+00
   endloop
 endfacet
 facet normal -9.553593e-01  2.954463e-01  0.000000e+00
   outer loop
     vertex -1.899660e+02  1.019024e+02 -2.312670e+02
     vertex -1.908616e+02  9.900656e+01 -2.312670e+02
     vertex -1.908616e+02  9.900656e+01  0.000000e+00
   endloop
 endfacet
 facet normal -9.553593e-01  2.954463e-01  0.000000e+00
   outer loop
     vertex -1.899660e+02  1.019024e+02 -2.312670e+02
     vertex -1.908616e+02  9.900656e+01  0.000000e+00
     vertex -1.899660e+02  1.019024e+02  0.000000e+00
   endloop
 endfacet
 facet normal -9.514273e-01  3.078736e-01  0.000000e+00
   outer loop
     vertex -1.890328e+02  1.047864e+02 -2.312670e+02
     vertex -1.899660e+02  1.019024e+02 -2.312670e+02
     vertex -1.899660e+02  1.019024e+02  0.000000e+00
   endloop
 endfacet
 facet normal -9.514273e-01  3.078736e-01  0.000000e+00
   outer loop
     vertex -1.890328e+02  1.047864e+02 -2.312670e+02
     vertex -1.899660e+02  1.019024e+02  0.000000e+00
     vertex -1.890328e+02  1.047864e+02  0.000000e+00
   endloop
 endfacet
 facet normal -9.473335e-01  3.202486e-01  0.000000e+00
   outer loop
     vertex -1.880621e+02  1.076579e+02 -2.312670e+02
     vertex -1.890328e+02  1.047864e+02 -2.312670e+02
     vertex -1.890328e+02  1.047864e+02  0.000000e+00
   endloop
 endfacet
 facet normal -9.473335e-01  3.202486e-01  0.000000e+00
   outer loop
     vertex -1.880621e+02  1.076579e+02 -2.312670e+02
     vertex -1.890328e+02  1.047864e+02  0.000000e+00
     vertex -1.880621e+02  1.076579e+02  0.000000e+00
   endloop
 endfacet
 facet normal -9.430789e-01  3.325691e-01  0.000000e+00
   outer loop
     vertex -1.870540e+02  1.105165e+02 -2.312670e+02
     vertex -1.880621e+02  1.076579e+02 -2.312670e+02
     vertex -1.880621e+02  1.076579e+02  0.000000e+00
   endloop
 endfacet
 facet normal -9.386640e-01  3.448332e-01  0.000000e+00
   outer loop
     vertex -1.870540e+02  1.105165e+02 -2.312670e+02
     vertex -1.870540e+02  1.105165e+02  0.000000e+00
     vertex -1.860088e+02  1.133618e+02  0.000000e+00
   endloop
 endfacet
 facet normal -9.430789e-01  3.325691e-01  0.000000e+00
   outer loop
     vertex -1.870540e+02  1.105165e+02 -2.312670e+02
     vertex -1.880621e+02  1.076579e+02  0.000000e+00
     vertex -1.870540e+02  1.105165e+02  0.000000e+00
   endloop
 endfacet
 facet normal -9.386640e-01  3.448332e-01  0.000000e+00
   outer loop
     vertex -1.860088e+02  1.133618e+02 -2.312670e+02
     vertex -1.870540e+02  1.105165e+02 -2.312670e+02
     vertex -1.860088e+02  1.133618e+02  0.000000e+00
   endloop
 endfacet
 facet normal -9.340896e-01  3.570387e-01  0.000000e+00
   outer loop
     vertex -1.849265e+02  1.161932e+02 -2.312670e+02
     vertex -1.860088e+02  1.133618e+02  0.000000e+00
     vertex -1.849265e+02  1.161932e+02  0.000000e+00
   endloop
 endfacet
 facet normal -9.340896e-01  3.570387e-01  0.000000e+00
   outer loop
     vertex -1.849265e+02  1.161932e+02 -2.312670e+02
     vertex -1.860088e+02  1.133618e+02 -2.312670e+02
     vertex -1.860088e+02  1.133618e+02  0.000000e+00
   endloop
 endfacet
 facet normal -9.293565e-01  3.691835e-01  0.000000e+00
   outer loop
     vertex -1.838075e+02  1.190102e+02 -2.312670e+02
     vertex -1.849265e+02  1.161932e+02  0.000000e+00
     vertex -1.838075e+02  1.190102e+02  0.000000e+00
   endloop
 endfacet
 facet normal -9.293565e-01  3.691835e-01  0.000000e+00
   outer loop
     vertex -1.838075e+02  1.190102e+02 -2.312670e+02
     vertex -1.849265e+02  1.161932e+02 -2.312670e+02
     vertex -1.849265e+02  1.161932e+02  0.000000e+00
   endloop
 endfacet
 facet normal -9.244656e-01  3.812656e-01  0.000000e+00
   outer loop
     vertex -1.826518e+02  1.218124e+02 -2.312670e+02
     vertex -1.838075e+02  1.190102e+02  0.000000e+00
     vertex -1.826518e+02  1.218124e+02  0.000000e+00
   endloop
 endfacet
 facet normal -9.244656e-01  3.812656e-01  0.000000e+00
   outer loop
     vertex -1.826518e+02  1.218124e+02 -2.312670e+02
     vertex -1.838075e+02  1.190102e+02 -2.312670e+02
     vertex -1.838075e+02  1.190102e+02  0.000000e+00
   endloop
 endfacet
 facet normal -9.194175e-01  3.932829e-01  0.000000e+00
   outer loop
     vertex -1.814597e+02  1.245993e+02 -2.312670e+02
     vertex -1.826518e+02  1.218124e+02  0.000000e+00
     vertex -1.814597e+02  1.245993e+02  0.000000e+00
   endloop
 endfacet
 facet normal -9.194175e-01  3.932829e-01  0.000000e+00
   outer loop
     vertex -1.814597e+02  1.245993e+02 -2.312670e+02
     vertex -1.826518e+02  1.218124e+02 -2.312670e+02
     vertex -1.826518e+02  1.218124e+02  0.000000e+00
   endloop
 endfacet
 facet normal -9.142133e-01  4.052334e-01  0.000000e+00
   outer loop
     vertex -1.802313e+02  1.273705e+02 -2.312670e+02
     vertex -1.814597e+02  1.245993e+02  0.000000e+00
     vertex -1.802313e+02  1.273705e+02  0.000000e+00
   endloop
 endfacet
 facet normal -9.142133e-01  4.052334e-01  0.000000e+00
   outer loop
     vertex -1.802313e+02  1.273705e+02 -2.312670e+02
     vertex -1.814597e+02  1.245993e+02 -2.312670e+02
     vertex -1.814597e+02  1.245993e+02  0.000000e+00
   endloop
 endfacet
 facet normal -9.088537e-01  4.171150e-01  0.000000e+00
   outer loop
     vertex -1.789670e+02  1.301254e+02 -2.312670e+02
     vertex -1.802313e+02  1.273705e+02  0.000000e+00
     vertex -1.789670e+02  1.301254e+02  0.000000e+00
   endloop
 endfacet
 facet normal -9.088537e-01  4.171150e-01  0.000000e+00
   outer loop
     vertex -1.789670e+02  1.301254e+02 -2.312670e+02
     vertex -1.802313e+02  1.273705e+02 -2.312670e+02
     vertex -1.802313e+02  1.273705e+02  0.000000e+00
   endloop
 endfacet
 facet normal -9.033397e-01  4.289258e-01  0.000000e+00
   outer loop
     vertex -1.776668e+02  1.328635e+02 -2.312670e+02
     vertex -1.789670e+02  1.301254e+02  0.000000e+00
     vertex -1.776668e+02  1.328635e+02  0.000000e+00
   endloop
 endfacet
 facet normal -9.033397e-01  4.289258e-01  0.000000e+00
   outer loop
     vertex -1.776668e+02  1.328635e+02 -2.312670e+02
     vertex -1.789670e+02  1.301254e+02 -2.312670e+02
     vertex -1.789670e+02  1.301254e+02  0.000000e+00
   endloop
 endfacet
 facet normal -8.976723e-01  4.406637e-01  0.000000e+00
   outer loop
     vertex -1.763311e+02  1.355845e+02 -2.312670e+02
     vertex -1.776668e+02  1.328635e+02  0.000000e+00
     vertex -1.763311e+02  1.355845e+02  0.000000e+00
   endloop
 endfacet
 facet normal -8.976723e-01  4.406637e-01  0.000000e+00
   outer loop
     vertex -1.763311e+02  1.355845e+02 -2.312670e+02
     vertex -1.776668e+02  1.328635e+02 -2.312670e+02
     vertex -1.776668e+02  1.328635e+02  0.000000e+00
   endloop
 endfacet
 facet normal -8.918523e-01  4.523267e-01  0.000000e+00
   outer loop
     vertex -1.749600e+02  1.382879e+02 -2.312670e+02
     vertex -1.763311e+02  1.355845e+02  0.000000e+00
     vertex -1.749600e+02  1.382879e+02  0.000000e+00
   endloop
 endfacet
 facet normal -8.918523e-01  4.523267e-01  0.000000e+00
   outer loop
     vertex -1.749600e+02  1.382879e+02 -2.312670e+02
     vertex -1.763311e+02  1.355845e+02 -2.312670e+02
     vertex -1.763311e+02  1.355845e+02  0.000000e+00
   endloop
 endfacet
 facet normal -8.858808e-01  4.639129e-01  0.000000e+00
   outer loop
     vertex -1.735538e+02  1.409731e+02 -2.312670e+02
     vertex -1.749600e+02  1.382879e+02  0.000000e+00
     vertex -1.735538e+02  1.409731e+02  0.000000e+00
   endloop
 endfacet
 facet normal -8.858808e-01  4.639129e-01  0.000000e+00
   outer loop
     vertex -1.735538e+02  1.409731e+02 -2.312670e+02
     vertex -1.749600e+02  1.382879e+02 -2.312670e+02
     vertex -1.749600e+02  1.382879e+02  0.000000e+00
   endloop
 endfacet
 facet normal -8.797588e-01  4.754203e-01  0.000000e+00
   outer loop
     vertex -1.721128e+02  1.436398e+02 -2.312670e+02
     vertex -1.735538e+02  1.409731e+02  0.000000e+00
     vertex -1.721128e+02  1.436398e+02  0.000000e+00
   endloop
 endfacet
 facet normal -8.797588e-01  4.754203e-01  0.000000e+00
   outer loop
     vertex -1.721128e+02  1.436398e+02 -2.312670e+02
     vertex -1.735538e+02  1.409731e+02 -2.312670e+02
     vertex -1.735538e+02  1.409731e+02  0.000000e+00
   endloop
 endfacet
 facet normal -8.734873e-01  4.868469e-01  0.000000e+00
   outer loop
     vertex -1.706370e+02  1.462875e+02 -2.312670e+02
     vertex -1.721128e+02  1.436398e+02  0.000000e+00
     vertex -1.706370e+02  1.462875e+02  0.000000e+00
   endloop
 endfacet
 facet normal -8.734873e-01  4.868469e-01  0.000000e+00
   outer loop
     vertex -1.706370e+02  1.462875e+02 -2.312670e+02
     vertex -1.721128e+02  1.436398e+02 -2.312670e+02
     vertex -1.721128e+02  1.436398e+02  0.000000e+00
   endloop
 endfacet
 facet normal -8.670675e-01  4.981907e-01  0.000000e+00
   outer loop
     vertex -1.691269e+02  1.489158e+02 -2.312670e+02
     vertex -1.706370e+02  1.462875e+02  0.000000e+00
     vertex -1.691269e+02  1.489158e+02  0.000000e+00
   endloop
 endfacet
 facet normal -8.670675e-01  4.981907e-01  0.000000e+00
   outer loop
     vertex -1.691269e+02  1.489158e+02 -2.312670e+02
     vertex -1.706370e+02  1.462875e+02 -2.312670e+02
     vertex -1.706370e+02  1.462875e+02  0.000000e+00
   endloop
 endfacet
 facet normal -8.605003e-01  5.094500e-01  0.000000e+00
   outer loop
     vertex -1.675827e+02  1.515241e+02 -2.312670e+02
     vertex -1.691269e+02  1.489158e+02  0.000000e+00
     vertex -1.675827e+02  1.515241e+02  0.000000e+00
   endloop
 endfacet
 facet normal -8.605003e-01  5.094500e-01  0.000000e+00
   outer loop
     vertex -1.675827e+02  1.515241e+02 -2.312670e+02
     vertex -1.691269e+02  1.489158e+02 -2.312670e+02
     vertex -1.691269e+02  1.489158e+02  0.000000e+00
   endloop
 endfacet
 facet normal -8.537869e-01  5.206227e-01  0.000000e+00
   outer loop
     vertex -1.660046e+02  1.541121e+02 -2.312670e+02
     vertex -1.675827e+02  1.515241e+02 -2.312670e+02
     vertex -1.675827e+02  1.515241e+02  0.000000e+00
   endloop
 endfacet
 facet normal -8.537869e-01  5.206227e-01  0.000000e+00
   outer loop
     vertex -1.660046e+02  1.541121e+02 -2.312670e+02
     vertex -1.675827e+02  1.515241e+02  0.000000e+00
     vertex -1.660046e+02  1.541121e+02  0.000000e+00
   endloop
 endfacet
 facet normal -8.469284e-01  5.317069e-01  0.000000e+00
   outer loop
     vertex -1.643929e+02  1.566792e+02 -2.312670e+02
     vertex -1.660046e+02  1.541121e+02 -2.312670e+02
     vertex -1.660046e+02  1.541121e+02  0.000000e+00
   endloop
 endfacet
 facet normal -8.469284e-01  5.317069e-01  0.000000e+00
   outer loop
     vertex -1.643929e+02  1.566792e+02 -2.312670e+02
     vertex -1.660046e+02  1.541121e+02  0.000000e+00
     vertex -1.643929e+02  1.566792e+02  0.000000e+00
   endloop
 endfacet
 facet normal -8.399261e-01  5.427008e-01  0.000000e+00
   outer loop
     vertex -1.627479e+02  1.592252e+02 -2.312670e+02
     vertex -1.643929e+02  1.566792e+02 -2.312670e+02
     vertex -1.643929e+02  1.566792e+02  0.000000e+00
   endloop
 endfacet
 facet normal -8.399261e-01  5.427008e-01  0.000000e+00
   outer loop
     vertex -1.627479e+02  1.592252e+02 -2.312670e+02
     vertex -1.643929e+02  1.566792e+02  0.000000e+00
     vertex -1.627479e+02  1.592252e+02  0.000000e+00
   endloop
 endfacet
 facet normal -8.327811e-01  5.536025e-01  0.000000e+00
   outer loop
     vertex -1.610698e+02  1.617495e+02 -2.312670e+02
     vertex -1.627479e+02  1.592252e+02 -2.312670e+02
     vertex -1.627479e+02  1.592252e+02  0.000000e+00
   endloop
 endfacet
 facet normal -8.327811e-01  5.536025e-01  0.000000e+00
   outer loop
     vertex -1.610698e+02  1.617495e+02 -2.312670e+02
     vertex -1.627479e+02  1.592252e+02  0.000000e+00
     vertex -1.610698e+02  1.617495e+02  0.000000e+00
   endloop
 endfacet
 facet normal -8.254945e-01  5.644101e-01  0.000000e+00
   outer loop
     vertex -1.593590e+02  1.642517e+02 -2.312670e+02
     vertex -1.610698e+02  1.617495e+02 -2.312670e+02
     vertex -1.610698e+02  1.617495e+02  0.000000e+00
   endloop
 endfacet
 facet normal -8.254945e-01  5.644101e-01  0.000000e+00
   outer loop
     vertex -1.593590e+02  1.642517e+02 -2.312670e+02
     vertex -1.610698e+02  1.617495e+02  0.000000e+00
     vertex -1.593590e+02  1.642517e+02  0.000000e+00
   endloop
 endfacet
 facet normal -8.180678e-01  5.751219e-01  0.000000e+00
   outer loop
     vertex -1.576157e+02  1.667314e+02 -2.312670e+02
     vertex -1.593590e+02  1.642517e+02 -2.312670e+02
     vertex -1.593590e+02  1.642517e+02  0.000000e+00
   endloop
 endfacet
 facet normal -8.105020e-01  5.857359e-01  0.000000e+00
   outer loop
     vertex -1.576157e+02  1.667314e+02 -2.312670e+02
     vertex -1.576157e+02  1.667314e+02  0.000000e+00
     vertex -1.558403e+02  1.691882e+02  0.000000e+00
   endloop
 endfacet
 facet normal -8.180678e-01  5.751219e-01  0.000000e+00
   outer loop
     vertex -1.576157e+02  1.667314e+02 -2.312670e+02
     vertex -1.593590e+02  1.642517e+02  0.000000e+00
     vertex -1.576157e+02  1.667314e+02  0.000000e+00
   endloop
 endfacet
 facet normal -8.105020e-01  5.857359e-01  0.000000e+00
   outer loop
     vertex -1.558403e+02  1.691882e+02 -2.312670e+02
     vertex -1.576157e+02  1.667314e+02 -2.312670e+02
     vertex -1.558403e+02  1.691882e+02  0.000000e+00
   endloop
 endfacet
 facet normal -8.027985e-01  5.962504e-01  0.000000e+00
   outer loop
     vertex -1.540329e+02  1.716216e+02 -2.312670e+02
     vertex -1.558403e+02  1.691882e+02  0.000000e+00
     vertex -1.540329e+02  1.716216e+02  0.000000e+00
   endloop
 endfacet
 facet normal -8.027985e-01  5.962504e-01  0.000000e+00
   outer loop
     vertex -1.540329e+02  1.716216e+02 -2.312670e+02
     vertex -1.558403e+02  1.691882e+02 -2.312670e+02
     vertex -1.558403e+02  1.691882e+02  0.000000e+00
   endloop
 endfacet
 facet normal -7.949587e-01  6.066636e-01  0.000000e+00
   outer loop
     vertex -1.521940e+02  1.740313e+02 -2.312670e+02
     vertex -1.540329e+02  1.716216e+02  0.000000e+00
     vertex -1.521940e+02  1.740313e+02  0.000000e+00
   endloop
 endfacet
 facet normal -7.949587e-01  6.066636e-01  0.000000e+00
   outer loop
     vertex -1.521940e+02  1.740313e+02 -2.312670e+02
     vertex -1.540329e+02  1.716216e+02 -2.312670e+02
     vertex -1.540329e+02  1.716216e+02  0.000000e+00
   endloop
 endfacet
 facet normal -7.869837e-01  6.169738e-01  0.000000e+00
   outer loop
     vertex -1.503239e+02  1.764168e+02 -2.312670e+02
     vertex -1.521940e+02  1.740313e+02  0.000000e+00
     vertex -1.503239e+02  1.764168e+02  0.000000e+00
   endloop
 endfacet
 facet normal -7.869837e-01  6.169738e-01  0.000000e+00
   outer loop
     vertex -1.503239e+02  1.764168e+02 -2.312670e+02
     vertex -1.521940e+02  1.740313e+02 -2.312670e+02
     vertex -1.521940e+02  1.740313e+02  0.000000e+00
   endloop
 endfacet
 facet normal -7.788751e-01  6.271791e-01  0.000000e+00
   outer loop
     vertex -1.484228e+02  1.787777e+02 -2.312670e+02
     vertex -1.503239e+02  1.764168e+02  0.000000e+00
     vertex -1.484228e+02  1.787777e+02  0.000000e+00
   endloop
 endfacet
 facet normal -7.788751e-01  6.271791e-01  0.000000e+00
   outer loop
     vertex -1.484228e+02  1.787777e+02 -2.312670e+02
     vertex -1.503239e+02  1.764168e+02 -2.312670e+02
     vertex -1.503239e+02  1.764168e+02  0.000000e+00
   endloop
 endfacet
 facet normal -7.706341e-01  6.372778e-01  0.000000e+00
   outer loop
     vertex -1.464911e+02  1.811136e+02 -2.312670e+02
     vertex -1.484228e+02  1.787777e+02  0.000000e+00
     vertex -1.464911e+02  1.811136e+02  0.000000e+00
   endloop
 endfacet
 facet normal -7.706341e-01  6.372778e-01  0.000000e+00
   outer loop
     vertex -1.464911e+02  1.811136e+02 -2.312670e+02
     vertex -1.484228e+02  1.787777e+02 -2.312670e+02
     vertex -1.484228e+02  1.787777e+02  0.000000e+00
   endloop
 endfacet
 facet normal -7.622622e-01  6.472683e-01  0.000000e+00
   outer loop
     vertex -1.445291e+02  1.834241e+02 -2.312670e+02
     vertex -1.464911e+02  1.811136e+02  0.000000e+00
     vertex -1.445291e+02  1.834241e+02  0.000000e+00
   endloop
 endfacet
 facet normal -7.622622e-01  6.472683e-01  0.000000e+00
   outer loop
     vertex -1.445291e+02  1.834241e+02 -2.312670e+02
     vertex -1.464911e+02  1.811136e+02 -2.312670e+02
     vertex -1.464911e+02  1.811136e+02  0.000000e+00
   endloop
 endfacet
 facet normal -7.537608e-01  6.571488e-01  0.000000e+00
   outer loop
     vertex -1.425372e+02  1.857089e+02 -2.312670e+02
     vertex -1.445291e+02  1.834241e+02  0.000000e+00
     vertex -1.425372e+02  1.857089e+02  0.000000e+00
   endloop
 endfacet
 facet normal -7.537608e-01  6.571488e-01  0.000000e+00
   outer loop
     vertex -1.425372e+02  1.857089e+02 -2.312670e+02
     vertex -1.445291e+02  1.834241e+02 -2.312670e+02
     vertex -1.445291e+02  1.834241e+02  0.000000e+00
   endloop
 endfacet
 facet normal -7.451314e-01  6.669177e-01  0.000000e+00
   outer loop
     vertex -1.405156e+02  1.879675e+02 -2.312670e+02
     vertex -1.425372e+02  1.857089e+02  0.000000e+00
     vertex -1.405156e+02  1.879675e+02  0.000000e+00
   endloop
 endfacet
 facet normal -7.451314e-01  6.669177e-01  0.000000e+00
   outer loop
     vertex -1.405156e+02  1.879675e+02 -2.312670e+02
     vertex -1.425372e+02  1.857089e+02 -2.312670e+02
     vertex -1.425372e+02  1.857089e+02  0.000000e+00
   endloop
 endfacet
 facet normal -7.363753e-01  6.765733e-01  0.000000e+00
   outer loop
     vertex -1.384648e+02  1.901996e+02 -2.312670e+02
     vertex -1.405156e+02  1.879675e+02  0.000000e+00
     vertex -1.384648e+02  1.901996e+02  0.000000e+00
   endloop
 endfacet
 facet normal -7.363753e-01  6.765733e-01  0.000000e+00
   outer loop
     vertex -1.384648e+02  1.901996e+02 -2.312670e+02
     vertex -1.405156e+02  1.879675e+02 -2.312670e+02
     vertex -1.405156e+02  1.879675e+02  0.000000e+00
   endloop
 endfacet
 facet normal -7.274942e-01  6.861139e-01  0.000000e+00
   outer loop
     vertex -1.363851e+02  1.924048e+02 -2.312670e+02
     vertex -1.384648e+02  1.901996e+02  0.000000e+00
     vertex -1.363851e+02  1.924048e+02  0.000000e+00
   endloop
 endfacet
 facet normal -7.274942e-01  6.861139e-01  0.000000e+00
   outer loop
     vertex -1.363851e+02  1.924048e+02 -2.312670e+02
     vertex -1.384648e+02  1.901996e+02 -2.312670e+02
     vertex -1.384648e+02  1.901996e+02  0.000000e+00
   endloop
 endfacet
 facet normal -7.184894e-01  6.955379e-01  0.000000e+00
   outer loop
     vertex -1.342768e+02  1.945826e+02 -2.312670e+02
     vertex -1.363851e+02  1.924048e+02  0.000000e+00
     vertex -1.342768e+02  1.945826e+02  0.000000e+00
   endloop
 endfacet
 facet normal -7.184894e-01  6.955379e-01  0.000000e+00
   outer loop
     vertex -1.342768e+02  1.945826e+02 -2.312670e+02
     vertex -1.363851e+02  1.924048e+02 -2.312670e+02
     vertex -1.363851e+02  1.924048e+02  0.000000e+00
   endloop
 endfacet
 facet normal -7.093625e-01  7.048438e-01  0.000000e+00
   outer loop
     vertex -1.321403e+02  1.967328e+02 -2.312670e+02
     vertex -1.342768e+02  1.945826e+02  0.000000e+00
     vertex -1.321403e+02  1.967328e+02  0.000000e+00
   endloop
 endfacet
 facet normal -7.093625e-01  7.048438e-01  0.000000e+00
   outer loop
     vertex -1.321403e+02  1.967328e+02 -2.312670e+02
     vertex -1.342768e+02  1.945826e+02 -2.312670e+02
     vertex -1.342768e+02  1.945826e+02  0.000000e+00
   endloop
 endfacet
 facet normal -6.907489e-01  7.230947e-01  0.000000e+00
   outer loop
     vertex -1.299759e+02  1.988550e+02 -2.312670e+02
     vertex -1.299759e+02  1.988550e+02  0.000000e+00
     vertex -1.277841e+02  2.009488e+02  0.000000e+00
   endloop
 endfacet
 facet normal -7.001152e-01  7.140299e-01  0.000000e+00
   outer loop
     vertex -1.299759e+02  1.988550e+02 -2.312670e+02
     vertex -1.321403e+02  1.967328e+02  0.000000e+00
     vertex -1.299759e+02  1.988550e+02  0.000000e+00
   endloop
 endfacet
 facet normal -7.001152e-01  7.140299e-01  0.000000e+00
   outer loop
     vertex -1.299759e+02  1.988550e+02 -2.312670e+02
     vertex -1.321403e+02  1.967328e+02 -2.312670e+02
     vertex -1.321403e+02  1.967328e+02  0.000000e+00
   endloop
 endfacet
 facet normal -6.812652e-01  7.320367e-01  0.000000e+00
   outer loop
     vertex -1.277841e+02  2.009488e+02 -2.312670e+02
     vertex -1.277841e+02  2.009488e+02  0.000000e+00
     vertex -1.255652e+02  2.030138e+02  0.000000e+00
   endloop
 endfacet
 facet normal -6.907489e-01  7.230947e-01  0.000000e+00
   outer loop
     vertex -1.277841e+02  2.009488e+02 -2.312670e+02
     vertex -1.299759e+02  1.988550e+02 -2.312670e+02
     vertex -1.277841e+02  2.009488e+02  0.000000e+00
   endloop
 endfacet
 facet normal -6.812652e-01  7.320367e-01  0.000000e+00
   outer loop
     vertex -1.255652e+02  2.030138e+02 -2.312670e+02
     vertex -1.277841e+02  2.009488e+02 -2.312670e+02
     vertex -1.255652e+02  2.030138e+02  0.000000e+00
   endloop
 endfacet
 facet normal -6.716658e-01  7.408543e-01  0.000000e+00
   outer loop
     vertex -1.233195e+02  2.050497e+02 -2.312670e+02
     vertex -1.255652e+02  2.030138e+02  0.000000e+00
     vertex -1.233195e+02  2.050497e+02  0.000000e+00
   endloop
 endfacet
 facet normal -6.716658e-01  7.408543e-01  0.000000e+00
   outer loop
     vertex -1.233195e+02  2.050497e+02 -2.312670e+02
     vertex -1.255652e+02  2.030138e+02 -2.312670e+02
     vertex -1.255652e+02  2.030138e+02  0.000000e+00
   endloop
 endfacet
 facet normal -6.619523e-01  7.495460e-01  0.000000e+00
   outer loop
     vertex -1.210475e+02  2.070562e+02 -2.312670e+02
     vertex -1.233195e+02  2.050497e+02  0.000000e+00
     vertex -1.210475e+02  2.070562e+02  0.000000e+00
   endloop
 endfacet
 facet normal -6.619523e-01  7.495460e-01  0.000000e+00
   outer loop
     vertex -1.210475e+02  2.070562e+02 -2.312670e+02
     vertex -1.233195e+02  2.050497e+02 -2.312670e+02
     vertex -1.233195e+02  2.050497e+02  0.000000e+00
   endloop
 endfacet
 facet normal -6.521263e-01  7.581103e-01  0.000000e+00
   outer loop
     vertex -1.187496e+02  2.090329e+02 -2.312670e+02
     vertex -1.210475e+02  2.070562e+02  0.000000e+00
     vertex -1.187496e+02  2.090329e+02  0.000000e+00
   endloop
 endfacet
 facet normal -6.521263e-01  7.581103e-01  0.000000e+00
   outer loop
     vertex -1.187496e+02  2.090329e+02 -2.312670e+02
     vertex -1.210475e+02  2.070562e+02 -2.312670e+02
     vertex -1.210475e+02  2.070562e+02  0.000000e+00
   endloop
 endfacet
 facet normal -6.421895e-01  7.665459e-01  0.000000e+00
   outer loop
     vertex -1.164260e+02  2.109795e+02 -2.312670e+02
     vertex -1.187496e+02  2.090329e+02  0.000000e+00
     vertex -1.164260e+02  2.109795e+02  0.000000e+00
   endloop
 endfacet
 facet normal -6.421895e-01  7.665459e-01  0.000000e+00
   outer loop
     vertex -1.164260e+02  2.109795e+02 -2.312670e+02
     vertex -1.187496e+02  2.090329e+02 -2.312670e+02
     vertex -1.187496e+02  2.090329e+02  0.000000e+00
   endloop
 endfacet
 facet normal -6.321436e-01  7.748512e-01  0.000000e+00
   outer loop
     vertex -1.140773e+02  2.128957e+02 -2.312670e+02
     vertex -1.164260e+02  2.109795e+02  0.000000e+00
     vertex -1.140773e+02  2.128957e+02  0.000000e+00
   endloop
 endfacet
 facet normal -6.321436e-01  7.748512e-01  0.000000e+00
   outer loop
     vertex -1.140773e+02  2.128957e+02 -2.312670e+02
     vertex -1.164260e+02  2.109795e+02 -2.312670e+02
     vertex -1.164260e+02  2.109795e+02  0.000000e+00
   endloop
 endfacet
 facet normal -6.219903e-01  7.830249e-01  0.000000e+00
   outer loop
     vertex -1.117039e+02  2.147810e+02 -2.312670e+02
     vertex -1.140773e+02  2.128957e+02  0.000000e+00
     vertex -1.117039e+02  2.147810e+02  0.000000e+00
   endloop
 endfacet
 facet normal -6.219903e-01  7.830249e-01  0.000000e+00
   outer loop
     vertex -1.117039e+02  2.147810e+02 -2.312670e+02
     vertex -1.140773e+02  2.128957e+02 -2.312670e+02
     vertex -1.140773e+02  2.128957e+02  0.000000e+00
   endloop
 endfacet
 facet normal -6.013685e-01  7.989718e-01  0.000000e+00
   outer loop
     vertex -1.093060e+02  2.166353e+02 -2.312670e+02
     vertex -1.093060e+02  2.166353e+02  0.000000e+00
     vertex -1.068842e+02  2.184581e+02  0.000000e+00
   endloop
 endfacet
 facet normal -6.117314e-01  7.910656e-01  0.000000e+00
   outer loop
     vertex -1.093060e+02  2.166353e+02 -2.312670e+02
     vertex -1.117039e+02  2.147810e+02  0.000000e+00
     vertex -1.093060e+02  2.166353e+02  0.000000e+00
   endloop
 endfacet
 facet normal -6.117314e-01  7.910656e-01  0.000000e+00
   outer loop
     vertex -1.093060e+02  2.166353e+02 -2.312670e+02
     vertex -1.117039e+02  2.147810e+02 -2.312670e+02
     vertex -1.117039e+02  2.147810e+02  0.000000e+00
   endloop
 endfacet
 facet normal -6.013685e-01  7.989718e-01  0.000000e+00
   outer loop
     vertex -1.068842e+02  2.184581e+02 -2.312670e+02
     vertex -1.093060e+02  2.166353e+02 -2.312670e+02
     vertex -1.068842e+02  2.184581e+02  0.000000e+00
   endloop
 endfacet
 facet normal -5.909034e-01  8.067423e-01  0.000000e+00
   outer loop
     vertex -1.044388e+02  2.202493e+02 -2.312670e+02
     vertex -1.068842e+02  2.184581e+02  0.000000e+00
     vertex -1.044388e+02  2.202493e+02  0.000000e+00
   endloop
 endfacet
 facet normal -5.909034e-01  8.067423e-01  0.000000e+00
   outer loop
     vertex -1.044388e+02  2.202493e+02 -2.312670e+02
     vertex -1.068842e+02  2.184581e+02 -2.312670e+02
     vertex -1.068842e+02  2.184581e+02  0.000000e+00
   endloop
 endfacet
 facet normal -5.803379e-01  8.143758e-01  0.000000e+00
   outer loop
     vertex -1.044388e+02  2.202493e+02 -2.312670e+02
     vertex -1.044388e+02  2.202493e+02  0.000000e+00
     vertex -1.019703e+02  2.220084e+02  0.000000e+00
   endloop
 endfacet
 facet normal -5.803379e-01  8.143758e-01  0.000000e+00
   outer loop
     vertex -1.019703e+02  2.220084e+02 -2.312670e+02
     vertex -1.044388e+02  2.202493e+02 -2.312670e+02
     vertex -1.019703e+02  2.220084e+02  0.000000e+00
   endloop
 endfacet
 facet normal -5.696739e-01  8.218708e-01  0.000000e+00
   outer loop
     vertex -1.019703e+02  2.220084e+02 -2.312670e+02
     vertex -1.019703e+02  2.220084e+02  0.000000e+00
     vertex -9.947906e+01  2.237351e+02  0.000000e+00
   endloop
 endfacet
 facet normal -5.696739e-01  8.218708e-01  0.000000e+00
   outer loop
     vertex -9.947906e+01  2.237351e+02 -2.312670e+02
     vertex -1.019703e+02  2.220084e+02 -2.312670e+02
     vertex -9.947906e+01  2.237351e+02  0.000000e+00
   endloop
 endfacet
 facet normal -5.589130e-01  8.292263e-01  0.000000e+00
   outer loop
     vertex -9.947906e+01  2.237351e+02 -2.312670e+02
     vertex -9.947906e+01  2.237351e+02  0.000000e+00
     vertex -9.696553e+01  2.254293e+02  0.000000e+00
   endloop
 endfacet
 facet normal -5.589130e-01  8.292263e-01  0.000000e+00
   outer loop
     vertex -9.696553e+01  2.254293e+02 -2.312670e+02
     vertex -9.947906e+01  2.237351e+02 -2.312670e+02
     vertex -9.696553e+01  2.254293e+02  0.000000e+00
   endloop
 endfacet
 facet normal -5.480572e-01  8.364409e-01  0.000000e+00
   outer loop
     vertex -9.443013e+01  2.270906e+02 -2.312670e+02
     vertex -9.696553e+01  2.254293e+02 -2.312670e+02
     vertex -9.696553e+01  2.254293e+02  0.000000e+00
   endloop
 endfacet
 facet normal -5.371083e-01  8.435133e-01  0.000000e+00
   outer loop
     vertex -9.443013e+01  2.270906e+02 -2.312670e+02
     vertex -9.443013e+01  2.270906e+02  0.000000e+00
     vertex -9.187330e+01  2.287186e+02  0.000000e+00
   endloop
 endfacet
 facet normal -5.480572e-01  8.364409e-01  0.000000e+00
   outer loop
     vertex -9.443013e+01  2.270906e+02 -2.312670e+02
     vertex -9.696553e+01  2.254293e+02  0.000000e+00
     vertex -9.443013e+01  2.270906e+02  0.000000e+00
   endloop
 endfacet
 facet normal -5.371083e-01  8.435133e-01  0.000000e+00
   outer loop
     vertex -9.187330e+01  2.287186e+02 -2.312670e+02
     vertex -9.443013e+01  2.270906e+02 -2.312670e+02
     vertex -9.187330e+01  2.287186e+02  0.000000e+00
   endloop
 endfacet
 facet normal -5.260681e-01  8.504424e-01  0.000000e+00
   outer loop
     vertex -8.929546e+01  2.303132e+02 -2.312670e+02
     vertex -9.187330e+01  2.287186e+02 -2.312670e+02
     vertex -9.187330e+01  2.287186e+02  0.000000e+00
   endloop
 endfacet
 facet normal -5.149386e-01  8.572271e-01  0.000000e+00
   outer loop
     vertex -8.929546e+01  2.303132e+02 -2.312670e+02
     vertex -8.929546e+01  2.303132e+02  0.000000e+00
     vertex -8.669706e+01  2.318741e+02  0.000000e+00
   endloop
 endfacet
 facet normal -5.260681e-01  8.504424e-01  0.000000e+00
   outer loop
     vertex -8.929546e+01  2.303132e+02 -2.312670e+02
     vertex -9.187330e+01  2.287186e+02  0.000000e+00
     vertex -8.929546e+01  2.303132e+02  0.000000e+00
   endloop
 endfacet
 facet normal -5.149386e-01  8.572271e-01  0.000000e+00
   outer loop
     vertex -8.669706e+01  2.318741e+02 -2.312670e+02
     vertex -8.929546e+01  2.303132e+02 -2.312670e+02
     vertex -8.669706e+01  2.318741e+02  0.000000e+00
   endloop
 endfacet
 facet normal -5.037215e-01  8.638661e-01  0.000000e+00
   outer loop
     vertex -8.407854e+01  2.334010e+02 -2.312670e+02
     vertex -8.669706e+01  2.318741e+02 -2.312670e+02
     vertex -8.669706e+01  2.318741e+02  0.000000e+00
   endloop
 endfacet
 facet normal -5.037215e-01  8.638661e-01  0.000000e+00
   outer loop
     vertex -8.407854e+01  2.334010e+02 -2.312670e+02
     vertex -8.669706e+01  2.318741e+02  0.000000e+00
     vertex -8.407854e+01  2.334010e+02  0.000000e+00
   endloop
 endfacet
 facet normal -4.924189e-01  8.703583e-01  0.000000e+00
   outer loop
     vertex -8.144033e+01  2.348936e+02 -2.312670e+02
     vertex -8.407854e+01  2.334010e+02 -2.312670e+02
     vertex -8.407854e+01  2.334010e+02  0.000000e+00
   endloop
 endfacet
 facet normal -4.810326e-01  8.767027e-01  0.000000e+00
   outer loop
     vertex -8.144033e+01  2.348936e+02 -2.312670e+02
     vertex -8.144033e+01  2.348936e+02  0.000000e+00
     vertex -7.878290e+01  2.363517e+02  0.000000e+00
   endloop
 endfacet
 facet normal -4.924189e-01  8.703583e-01  0.000000e+00
   outer loop
     vertex -8.144033e+01  2.348936e+02 -2.312670e+02
     vertex -8.407854e+01  2.334010e+02  0.000000e+00
     vertex -8.144033e+01  2.348936e+02  0.000000e+00
   endloop
 endfacet
 facet normal -4.810326e-01  8.767027e-01  0.000000e+00
   outer loop
     vertex -7.878290e+01  2.363517e+02 -2.312670e+02
     vertex -8.144033e+01  2.348936e+02 -2.312670e+02
     vertex -7.878290e+01  2.363517e+02  0.000000e+00
   endloop
 endfacet
 facet normal -4.695646e-01  8.828981e-01  0.000000e+00
   outer loop
     vertex -7.610668e+01  2.377750e+02 -2.312670e+02
     vertex -7.878290e+01  2.363517e+02 -2.312670e+02
     vertex -7.878290e+01  2.363517e+02  0.000000e+00
   endloop
 endfacet
 facet normal -4.580168e-01  8.889435e-01  0.000000e+00
   outer loop
     vertex -7.610668e+01  2.377750e+02 -2.312670e+02
     vertex -7.610668e+01  2.377750e+02  0.000000e+00
     vertex -7.341214e+01  2.391633e+02  0.000000e+00
   endloop
 endfacet
 facet normal -4.695646e-01  8.828981e-01  0.000000e+00
   outer loop
     vertex -7.610668e+01  2.377750e+02 -2.312670e+02
     vertex -7.878290e+01  2.363517e+02  0.000000e+00
     vertex -7.610668e+01  2.377750e+02  0.000000e+00
   endloop
 endfacet
 facet normal -4.580168e-01  8.889435e-01  0.000000e+00
   outer loop
     vertex -7.341214e+01  2.391633e+02 -2.312670e+02
     vertex -7.610668e+01  2.377750e+02 -2.312670e+02
     vertex -7.341214e+01  2.391633e+02  0.000000e+00
   endloop
 endfacet
 facet normal -4.463912e-01  8.948379e-01  0.000000e+00
   outer loop
     vertex -7.069973e+01  2.405164e+02 -2.312670e+02
     vertex -7.341214e+01  2.391633e+02 -2.312670e+02
     vertex -7.341214e+01  2.391633e+02  0.000000e+00
   endloop
 endfacet
 facet normal -4.346898e-01  9.005803e-01  0.000000e+00
   outer loop
     vertex -7.069973e+01  2.405164e+02 -2.312670e+02
     vertex -7.069973e+01  2.405164e+02  0.000000e+00
     vertex -6.796992e+01  2.418340e+02  0.000000e+00
   endloop
 endfacet
 facet normal -4.463912e-01  8.948379e-01  0.000000e+00
   outer loop
     vertex -7.069973e+01  2.405164e+02 -2.312670e+02
     vertex -7.341214e+01  2.391633e+02  0.000000e+00
     vertex -7.069973e+01  2.405164e+02  0.000000e+00
   endloop
 endfacet
 facet normal -4.346898e-01  9.005803e-01  0.000000e+00
   outer loop
     vertex -6.796992e+01  2.418340e+02 -2.312670e+02
     vertex -7.069973e+01  2.405164e+02 -2.312670e+02
     vertex -6.796992e+01  2.418340e+02  0.000000e+00
   endloop
 endfacet
 facet normal -4.229145e-01  9.061696e-01  0.000000e+00
   outer loop
     vertex -6.522316e+01  2.431160e+02 -2.312670e+02
     vertex -6.796992e+01  2.418340e+02 -2.312670e+02
     vertex -6.796992e+01  2.418340e+02  0.000000e+00
   endloop
 endfacet
 facet normal -4.110673e-01  9.116050e-01  0.000000e+00
   outer loop
     vertex -6.522316e+01  2.431160e+02 -2.312670e+02
     vertex -6.522316e+01  2.431160e+02  0.000000e+00
     vertex -6.245993e+01  2.443620e+02  0.000000e+00
   endloop
 endfacet
 facet normal -4.229145e-01  9.061696e-01  0.000000e+00
   outer loop
     vertex -6.522316e+01  2.431160e+02 -2.312670e+02
     vertex -6.796992e+01  2.418340e+02  0.000000e+00
     vertex -6.522316e+01  2.431160e+02  0.000000e+00
   endloop
 endfacet
 facet normal -4.110673e-01  9.116050e-01  0.000000e+00
   outer loop
     vertex -6.245993e+01  2.443620e+02 -2.312670e+02
     vertex -6.522316e+01  2.431160e+02 -2.312670e+02
     vertex -6.245993e+01  2.443620e+02  0.000000e+00
   endloop
 endfacet
 facet normal -3.871655e-01  9.220102e-01  0.000000e+00
   outer loop
     vertex -5.968070e+01  2.455719e+02 -2.312670e+02
     vertex -5.968070e+01  2.455719e+02  0.000000e+00
     vertex -5.688593e+01  2.467454e+02  0.000000e+00
   endloop
 endfacet
 facet normal -3.991503e-01  9.168855e-01  0.000000e+00
   outer loop
     vertex -5.968070e+01  2.455719e+02 -2.312670e+02
     vertex -6.245993e+01  2.443620e+02  0.000000e+00
     vertex -5.968070e+01  2.455719e+02  0.000000e+00
   endloop
 endfacet
 facet normal -3.991503e-01  9.168855e-01  0.000000e+00
   outer loop
     vertex -5.968070e+01  2.455719e+02 -2.312670e+02
     vertex -6.245993e+01  2.443620e+02 -2.312670e+02
     vertex -6.245993e+01  2.443620e+02  0.000000e+00
   endloop
 endfacet
 facet normal -3.871655e-01  9.220102e-01  0.000000e+00
   outer loop
     vertex -5.688593e+01  2.467454e+02 -2.312670e+02
     vertex -5.968070e+01  2.455719e+02 -2.312670e+02
     vertex -5.688593e+01  2.467454e+02  0.000000e+00
   endloop
 endfacet
 facet normal -3.630006e-01  9.317889e-01  0.000000e+00
   outer loop
     vertex -5.407610e+01  2.478825e+02 -2.312670e+02
     vertex -5.407610e+01  2.478825e+02  0.000000e+00
     vertex -5.125168e+01  2.489828e+02  0.000000e+00
   endloop
 endfacet
 facet normal -3.751149e-01  9.269783e-01  0.000000e+00
   outer loop
     vertex -5.407610e+01  2.478825e+02 -2.312670e+02
     vertex -5.688593e+01  2.467454e+02  0.000000e+00
     vertex -5.407610e+01  2.478825e+02  0.000000e+00
   endloop
 endfacet
 facet normal -3.751149e-01  9.269783e-01  0.000000e+00
   outer loop
     vertex -5.407610e+01  2.478825e+02 -2.312670e+02
     vertex -5.688593e+01  2.467454e+02 -2.312670e+02
     vertex -5.688593e+01  2.467454e+02  0.000000e+00
   endloop
 endfacet
 facet normal -3.630006e-01  9.317889e-01  0.000000e+00
   outer loop
     vertex -5.125168e+01  2.489828e+02 -2.312670e+02
     vertex -5.407610e+01  2.478825e+02 -2.312670e+02
     vertex -5.125168e+01  2.489828e+02  0.000000e+00
   endloop
 endfacet
 facet normal -3.508246e-01  9.364412e-01  0.000000e+00
   outer loop
     vertex -4.841317e+01  2.500462e+02 -2.312670e+02
     vertex -5.125168e+01  2.489828e+02 -2.312670e+02
     vertex -5.125168e+01  2.489828e+02  0.000000e+00
   endloop
 endfacet
 facet normal -3.385890e-01  9.409344e-01  0.000000e+00
   outer loop
     vertex -4.841317e+01  2.500462e+02 -2.312670e+02
     vertex -4.841317e+01  2.500462e+02  0.000000e+00
     vertex -4.556104e+01  2.510725e+02  0.000000e+00
   endloop
 endfacet
 facet normal -3.508246e-01  9.364412e-01  0.000000e+00
   outer loop
     vertex -4.841317e+01  2.500462e+02 -2.312670e+02
     vertex -5.125168e+01  2.489828e+02  0.000000e+00
     vertex -4.841317e+01  2.500462e+02  0.000000e+00
   endloop
 endfacet
 facet normal -3.385890e-01  9.409344e-01  0.000000e+00
   outer loop
     vertex -4.556104e+01  2.510725e+02 -2.312670e+02
     vertex -4.841317e+01  2.500462e+02 -2.312670e+02
     vertex -4.556104e+01  2.510725e+02  0.000000e+00
   endloop
 endfacet
 facet normal -3.262959e-01  9.452677e-01  0.000000e+00
   outer loop
     vertex -4.269577e+01  2.520616e+02 -2.312670e+02
     vertex -4.556104e+01  2.510725e+02 -2.312670e+02
     vertex -4.556104e+01  2.510725e+02  0.000000e+00
   endloop
 endfacet
 facet normal -3.139473e-01  9.494404e-01  0.000000e+00
   outer loop
     vertex -4.269577e+01  2.520616e+02 -2.312670e+02
     vertex -4.269577e+01  2.520616e+02  0.000000e+00
     vertex -3.981785e+01  2.530132e+02  0.000000e+00
   endloop
 endfacet
 facet normal -3.262959e-01  9.452677e-01  0.000000e+00
   outer loop
     vertex -4.269577e+01  2.520616e+02 -2.312670e+02
     vertex -4.556104e+01  2.510725e+02  0.000000e+00
     vertex -4.269577e+01  2.520616e+02  0.000000e+00
   endloop
 endfacet
 facet normal -3.139473e-01  9.494404e-01  0.000000e+00
   outer loop
     vertex -3.981785e+01  2.530132e+02 -2.312670e+02
     vertex -4.269577e+01  2.520616e+02 -2.312670e+02
     vertex -3.981785e+01  2.530132e+02  0.000000e+00
   endloop
 endfacet
 facet normal -3.015455e-01  9.534518e-01  0.000000e+00
   outer loop
     vertex -3.692778e+01  2.539272e+02 -2.312670e+02
     vertex -3.981785e+01  2.530132e+02 -2.312670e+02
     vertex -3.981785e+01  2.530132e+02  0.000000e+00
   endloop
 endfacet
 facet normal -3.015455e-01  9.534518e-01  0.000000e+00
   outer loop
     vertex -3.692778e+01  2.539272e+02 -2.312670e+02
     vertex -3.981785e+01  2.530132e+02  0.000000e+00
     vertex -3.692778e+01  2.539272e+02  0.000000e+00
   endloop
 endfacet
 facet normal -2.890923e-01  9.573012e-01  0.000000e+00
   outer loop
     vertex -3.402603e+01  2.548035e+02 -2.312670e+02
     vertex -3.692778e+01  2.539272e+02 -2.312670e+02
     vertex -3.692778e+01  2.539272e+02  0.000000e+00
   endloop
 endfacet
 facet normal -2.765901e-01  9.609880e-01  0.000000e+00
   outer loop
     vertex -3.402603e+01  2.548035e+02 -2.312670e+02
     vertex -3.402603e+01  2.548035e+02  0.000000e+00
     vertex -3.111311e+01  2.556419e+02  0.000000e+00
   endloop
 endfacet
 facet normal -2.890923e-01  9.573012e-01  0.000000e+00
   outer loop
     vertex -3.402603e+01  2.548035e+02 -2.312670e+02
     vertex -3.692778e+01  2.539272e+02  0.000000e+00
     vertex -3.402603e+01  2.548035e+02  0.000000e+00
   endloop
 endfacet
 facet normal -2.765901e-01  9.609880e-01  0.000000e+00
   outer loop
     vertex -3.111311e+01  2.556419e+02 -2.312670e+02
     vertex -3.402603e+01  2.548035e+02 -2.312670e+02
     vertex -3.111311e+01  2.556419e+02  0.000000e+00
   endloop
 endfacet
 facet normal -2.640408e-01  9.645115e-01  0.000000e+00
   outer loop
     vertex -2.818951e+01  2.564423e+02 -2.312670e+02
     vertex -3.111311e+01  2.556419e+02 -2.312670e+02
     vertex -3.111311e+01  2.556419e+02  0.000000e+00
   endloop
 endfacet
 facet normal -2.514467e-01  9.678711e-01  0.000000e+00
   outer loop
     vertex -2.818951e+01  2.564423e+02 -2.312670e+02
     vertex -2.818951e+01  2.564423e+02  0.000000e+00
     vertex -2.525573e+01  2.572045e+02  0.000000e+00
   endloop
 endfacet
 facet normal -2.640408e-01  9.645115e-01  0.000000e+00
   outer loop
     vertex -2.818951e+01  2.564423e+02 -2.312670e+02
     vertex -3.111311e+01  2.556419e+02  0.000000e+00
     vertex -2.818951e+01  2.564423e+02  0.000000e+00
   endloop
 endfacet
 facet normal -2.514467e-01  9.678711e-01  0.000000e+00
   outer loop
     vertex -2.525573e+01  2.572045e+02 -2.312670e+02
     vertex -2.818951e+01  2.564423e+02 -2.312670e+02
     vertex -2.525573e+01  2.572045e+02  0.000000e+00
   endloop
 endfacet
 facet normal -2.388099e-01  9.710663e-01  0.000000e+00
   outer loop
     vertex -2.231226e+01  2.579283e+02 -2.312670e+02
     vertex -2.525573e+01  2.572045e+02 -2.312670e+02
     vertex -2.525573e+01  2.572045e+02  0.000000e+00
   endloop
 endfacet
 facet normal -2.388099e-01  9.710663e-01  0.000000e+00
   outer loop
     vertex -2.231226e+01  2.579283e+02 -2.312670e+02
     vertex -2.525573e+01  2.572045e+02  0.000000e+00
     vertex -2.231226e+01  2.579283e+02  0.000000e+00
   endloop
 endfacet
 facet normal -2.261325e-01  9.740965e-01  0.000000e+00
   outer loop
     vertex -1.935961e+01  2.586138e+02 -2.312670e+02
     vertex -2.231226e+01  2.579283e+02 -2.312670e+02
     vertex -2.231226e+01  2.579283e+02  0.000000e+00
   endloop
 endfacet
 facet normal -2.261325e-01  9.740965e-01  0.000000e+00
   outer loop
     vertex -1.935961e+01  2.586138e+02 -2.312670e+02
     vertex -2.231226e+01  2.579283e+02  0.000000e+00
     vertex -1.935961e+01  2.586138e+02  0.000000e+00
   endloop
 endfacet
 facet normal -2.134167e-01  9.769613e-01  0.000000e+00
   outer loop
     vertex -1.639827e+01  2.592607e+02 -2.312670e+02
     vertex -1.935961e+01  2.586138e+02 -2.312670e+02
     vertex -1.935961e+01  2.586138e+02  0.000000e+00
   endloop
 endfacet
 facet normal -2.006647e-01  9.796600e-01  0.000000e+00
   outer loop
     vertex -1.639827e+01  2.592607e+02 -2.312670e+02
     vertex -1.639827e+01  2.592607e+02  0.000000e+00
     vertex -1.342876e+01  2.598689e+02  0.000000e+00
   endloop
 endfacet
 facet normal -2.134167e-01  9.769613e-01  0.000000e+00
   outer loop
     vertex -1.639827e+01  2.592607e+02 -2.312670e+02
     vertex -1.935961e+01  2.586138e+02  0.000000e+00
     vertex -1.639827e+01  2.592607e+02  0.000000e+00
   endloop
 endfacet
 facet normal -2.006647e-01  9.796600e-01  0.000000e+00
   outer loop
     vertex -1.342876e+01  2.598689e+02 -2.312670e+02
     vertex -1.639827e+01  2.592607e+02 -2.312670e+02
     vertex -1.342876e+01  2.598689e+02  0.000000e+00
   endloop
 endfacet
 facet normal -1.878785e-01  9.821923e-01  0.000000e+00
   outer loop
     vertex -1.045156e+01  2.604384e+02 -2.312670e+02
     vertex -1.342876e+01  2.598689e+02 -2.312670e+02
     vertex -1.342876e+01  2.598689e+02  0.000000e+00
   endloop
 endfacet
 facet normal -1.750604e-01  9.845577e-01  0.000000e+00
   outer loop
     vertex -1.045156e+01  2.604384e+02 -2.312670e+02
     vertex -1.045156e+01  2.604384e+02  0.000000e+00
     vertex -7.467199e+00  2.609691e+02  0.000000e+00
   endloop
 endfacet
 facet normal -1.878785e-01  9.821923e-01  0.000000e+00
   outer loop
     vertex -1.045156e+01  2.604384e+02 -2.312670e+02
     vertex -1.342876e+01  2.598689e+02  0.000000e+00
     vertex -1.045156e+01  2.604384e+02  0.000000e+00
   endloop
 endfacet
 facet normal -1.750604e-01  9.845577e-01  0.000000e+00
   outer loop
     vertex -7.467199e+00  2.609691e+02 -2.312670e+02
     vertex -1.045156e+01  2.604384e+02 -2.312670e+02
     vertex -7.467199e+00  2.609691e+02  0.000000e+00
   endloop
 endfacet
 facet normal -1.622126e-01  9.867558e-01  0.000000e+00
   outer loop
     vertex -4.476173e+00  2.614607e+02 -2.312670e+02
     vertex -7.467199e+00  2.609691e+02 -2.312670e+02
     vertex -7.467199e+00  2.609691e+02  0.000000e+00
   endloop
 endfacet
 facet normal -1.493372e-01  9.887863e-01  0.000000e+00
   outer loop
     vertex -4.476173e+00  2.614607e+02 -2.312670e+02
     vertex -4.476173e+00  2.614607e+02  0.000000e+00
     vertex -1.478993e+00  2.619134e+02  0.000000e+00
   endloop
 endfacet
 facet normal -1.622126e-01  9.867558e-01  0.000000e+00
   outer loop
     vertex -4.476173e+00  2.614607e+02 -2.312670e+02
     vertex -7.467199e+00  2.609691e+02  0.000000e+00
     vertex -4.476173e+00  2.614607e+02  0.000000e+00
   endloop
 endfacet
 facet normal -1.493372e-01  9.887863e-01  0.000000e+00
   outer loop
     vertex -1.478993e+00  2.619134e+02 -2.312670e+02
     vertex -4.476173e+00  2.614607e+02 -2.312670e+02
     vertex -1.478993e+00  2.619134e+02  0.000000e+00
   endloop
 endfacet
 facet normal -1.235125e-01  9.923430e-01  0.000000e+00
   outer loop
     vertex  1.523834e+00  2.623270e+02 -2.312670e+02
     vertex  1.523834e+00  2.623270e+02  0.000000e+00
     vertex  4.531795e+00  2.627014e+02  0.000000e+00
   endloop
 endfacet
 facet normal -1.364364e-01  9.906488e-01  0.000000e+00
   outer loop
     vertex  1.523834e+00  2.623270e+02 -2.312670e+02
     vertex -1.478993e+00  2.619134e+02  0.000000e+00
     vertex  1.523834e+00  2.623270e+02  0.000000e+00
   endloop
 endfacet
 facet normal -1.364364e-01  9.906488e-01  0.000000e+00
   outer loop
     vertex  1.523834e+00  2.623270e+02 -2.312670e+02
     vertex -1.478993e+00  2.619134e+02 -2.312670e+02
     vertex -1.478993e+00  2.619134e+02  0.000000e+00
   endloop
 endfacet
 facet normal -1.235125e-01  9.923430e-01  0.000000e+00
   outer loop
     vertex  4.531795e+00  2.627014e+02 -2.312670e+02
     vertex  1.523834e+00  2.623270e+02 -2.312670e+02
     vertex  4.531795e+00  2.627014e+02  0.000000e+00
   endloop
 endfacet
 facet normal -1.105676e-01  9.938686e-01  0.000000e+00
   outer loop
     vertex  7.544381e+00  2.630365e+02 -2.312670e+02
     vertex  4.531795e+00  2.627014e+02  0.000000e+00
     vertex  7.544381e+00  2.630365e+02  0.000000e+00
   endloop
 endfacet
 facet normal -1.105676e-01  9.938686e-01  0.000000e+00
   outer loop
     vertex  7.544381e+00  2.630365e+02 -2.312670e+02
     vertex  4.531795e+00  2.627014e+02 -2.312670e+02
     vertex  4.531795e+00  2.627014e+02  0.000000e+00
   endloop
 endfacet
 facet normal -9.760387e-02  9.952253e-01  0.000000e+00
   outer loop
     vertex  1.056108e+01  2.633324e+02 -2.312670e+02
     vertex  7.544381e+00  2.630365e+02  0.000000e+00
     vertex  1.056108e+01  2.633324e+02  0.000000e+00
   endloop
 endfacet
 facet normal -9.760387e-02  9.952253e-01  0.000000e+00
   outer loop
     vertex  1.056108e+01  2.633324e+02 -2.312670e+02
     vertex  7.544381e+00  2.630365e+02 -2.312670e+02
     vertex  7.544381e+00  2.630365e+02  0.000000e+00
   endloop
 endfacet
 facet normal -8.462358e-02  9.964130e-01  0.000000e+00
   outer loop
     vertex  1.358138e+01  2.635889e+02 -2.312670e+02
     vertex  1.056108e+01  2.633324e+02  0.000000e+00
     vertex  1.358138e+01  2.635889e+02  0.000000e+00
   endloop
 endfacet
 facet normal -8.462358e-02  9.964130e-01  0.000000e+00
   outer loop
     vertex  1.358138e+01  2.635889e+02 -2.312670e+02
     vertex  1.056108e+01  2.633324e+02 -2.312670e+02
     vertex  1.056108e+01  2.633324e+02  0.000000e+00
   endloop
 endfacet
 facet normal -7.162892e-02  9.974314e-01  0.000000e+00
   outer loop
     vertex  1.660476e+01  2.638060e+02 -2.312670e+02
     vertex  1.358138e+01  2.635889e+02  0.000000e+00
     vertex  1.660476e+01  2.638060e+02  0.000000e+00
   endloop
 endfacet
 facet normal -7.162892e-02  9.974314e-01  0.000000e+00
   outer loop
     vertex  1.660476e+01  2.638060e+02 -2.312670e+02
     vertex  1.358138e+01  2.635889e+02 -2.312670e+02
     vertex  1.358138e+01  2.635889e+02  0.000000e+00
   endloop
 endfacet
 facet normal -5.862208e-02  9.982802e-01  0.000000e+00
   outer loop
     vertex  1.963072e+01  2.639837e+02 -2.312670e+02
     vertex  1.660476e+01  2.638060e+02  0.000000e+00
     vertex  1.963072e+01  2.639837e+02  0.000000e+00
   endloop
 endfacet
 facet normal -5.862208e-02  9.982802e-01  0.000000e+00
   outer loop
     vertex  1.963072e+01  2.639837e+02 -2.312670e+02
     vertex  1.660476e+01  2.638060e+02 -2.312670e+02
     vertex  1.660476e+01  2.638060e+02  0.000000e+00
   endloop
 endfacet
 facet normal -4.560528e-02  9.989595e-01  0.000000e+00
   outer loop
     vertex  2.265874e+01  2.641219e+02 -2.312670e+02
     vertex  1.963072e+01  2.639837e+02  0.000000e+00
     vertex  2.265874e+01  2.641219e+02  0.000000e+00
   endloop
 endfacet
 facet normal -4.560528e-02  9.989595e-01  0.000000e+00
   outer loop
     vertex  2.265874e+01  2.641219e+02 -2.312670e+02
     vertex  1.963072e+01  2.639837e+02 -2.312670e+02
     vertex  1.963072e+01  2.639837e+02  0.000000e+00
   endloop
 endfacet
 facet normal -3.258074e-02  9.994691e-01  0.000000e+00
   outer loop
     vertex  2.568830e+01  2.642207e+02 -2.312670e+02
     vertex  2.265874e+01  2.641219e+02 -2.312670e+02
     vertex  2.265874e+01  2.641219e+02  0.000000e+00
   endloop
 endfacet
 facet normal -3.258074e-02  9.994691e-01  0.000000e+00
   outer loop
     vertex  2.568830e+01  2.642207e+02 -2.312670e+02
     vertex  2.265874e+01  2.641219e+02  0.000000e+00
     vertex  2.568830e+01  2.642207e+02  0.000000e+00
   endloop
 endfacet
 facet normal -1.955066e-02  9.998089e-01  0.000000e+00
   outer loop
     vertex  2.871889e+01  2.642799e+02 -2.312670e+02
     vertex  2.568830e+01  2.642207e+02 -2.312670e+02
     vertex  2.568830e+01  2.642207e+02  0.000000e+00
   endloop
 endfacet
 facet normal -1.955066e-02  9.998089e-01  0.000000e+00
   outer loop
     vertex  2.871889e+01  2.642799e+02 -2.312670e+02
     vertex  2.568830e+01  2.642207e+02  0.000000e+00
     vertex  2.871889e+01  2.642799e+02  0.000000e+00
   endloop
 endfacet
 facet normal -6.517255e-03  9.999788e-01  0.000000e+00
   outer loop
     vertex  3.175000e+01  2.642997e+02 -2.312670e+02
     vertex  2.871889e+01  2.642799e+02 -2.312670e+02
     vertex  2.871889e+01  2.642799e+02  0.000000e+00
   endloop
 endfacet
 facet normal -6.517255e-03  9.999788e-01  0.000000e+00
   outer loop
     vertex  3.175000e+01  2.642997e+02 -2.312670e+02
     vertex  2.871889e+01  2.642799e+02  0.000000e+00
     vertex  3.175000e+01  2.642997e+02  0.000000e+00
   endloop
 endfacet
endsolid
