solid 
 facet normal -2.255141e-17  4.067441e-16  1.000000e+00
   outer loop
     vertex -1.293208e+02  1.235397e+02  2.558386e-15
     vertex -1.339083e+02  1.130488e+02  6.722053e-15
     vertex -1.288616e+02  1.235397e+02  2.568742e-15
   endloop
 endfacet
 facet normal -5.825329e-17  4.239187e-16  1.000000e+00
   outer loop
     vertex -1.284039e+02  1.235776e+02  2.579326e-15
     vertex -1.288616e+02  1.235397e+02  2.568742e-15
     vertex -1.339083e+02  1.130488e+02  6.722053e-15
   endloop
 endfacet
 facet normal  1.052872e-17  3.922788e-16  1.000000e+00
   outer loop
     vertex -1.297784e+02  1.235776e+02  2.548328e-15
     vertex -1.339083e+02  1.130488e+02  6.722053e-15
     vertex -1.293208e+02  1.235397e+02  2.558386e-15
   endloop
 endfacet
 facet normal -9.790826e-17  4.446500e-16  1.000000e+00
   outer loop
     vertex -1.279510e+02  1.236532e+02  2.590065e-15
     vertex -1.284039e+02  1.235776e+02  2.579326e-15
     vertex -1.339083e+02  1.130488e+02  6.722053e-15
   endloop
 endfacet
 facet normal  4.200595e-17  3.799321e-16  1.000000e+00
   outer loop
     vertex -1.302314e+02  1.236532e+02  2.538638e-15
     vertex -1.339083e+02  1.130488e+02  6.722053e-15
     vertex -1.297784e+02  1.235776e+02  2.548328e-15
   endloop
 endfacet
 facet normal -1.433778e-16  4.701937e-16  1.000000e+00
   outer loop
     vertex -1.275058e+02  1.237659e+02  2.600887e-15
     vertex -1.279510e+02  1.236532e+02  2.590065e-15
     vertex -1.339083e+02  1.130488e+02  6.722053e-15
   endloop
 endfacet
 facet normal  7.272076e-17  3.692824e-16  1.000000e+00
   outer loop
     vertex -1.306766e+02  1.237659e+02  2.529381e-15
     vertex -1.339083e+02  1.130488e+02  6.722053e-15
     vertex -1.302314e+02  1.236532e+02  2.538638e-15
   endloop
 endfacet
 facet normal -1.974386e-16  5.024900e-16  1.000000e+00
   outer loop
     vertex -1.270714e+02  1.239150e+02  2.611716e-15
     vertex -1.275058e+02  1.237659e+02  2.600887e-15
     vertex -1.339083e+02  1.130488e+02  6.722053e-15
   endloop
 endfacet
 facet normal  1.034268e-16  3.600231e-16  1.000000e+00
   outer loop
     vertex -1.311109e+02  1.239150e+02  2.520620e-15
     vertex -1.339083e+02  1.130488e+02  6.722053e-15
     vertex -1.306766e+02  1.237659e+02  2.529381e-15
   endloop
 endfacet
 facet normal -2.645215e-16  5.446973e-16  1.000000e+00
   outer loop
     vertex -1.266509e+02  1.240995e+02  2.622480e-15
     vertex -1.270714e+02  1.239150e+02  2.611716e-15
     vertex -1.339083e+02  1.130488e+02  6.722053e-15
   endloop
 endfacet
 facet normal  1.348632e-16  3.519303e-16  1.000000e+00
   outer loop
     vertex -1.315315e+02  1.240995e+02  2.512417e-15
     vertex -1.339083e+02  1.130488e+02  6.722053e-15
     vertex -1.311109e+02  1.239150e+02  2.520620e-15
   endloop
 endfacet
 facet normal -3.522675e-16  6.023230e-16  1.000000e+00
   outer loop
     vertex -1.262470e+02  1.243181e+02  2.633105e-15
     vertex -1.266509e+02  1.240995e+02  2.622480e-15
     vertex -1.339083e+02  1.130488e+02  6.722053e-15
   endloop
 endfacet
 facet normal  1.678225e-16  3.448413e-16  1.000000e+00
   outer loop
     vertex -1.319353e+02  1.243181e+02  2.504825e-15
     vertex -1.339083e+02  1.130488e+02  6.722053e-15
     vertex -1.315315e+02  1.240995e+02  2.512417e-15
   endloop
 endfacet
 facet normal  2.321547e-15  4.655859e-17  1.000000e+00
   outer loop
     vertex -1.323198e+02  1.245692e+02  2.497898e-15
     vertex -1.344641e+02  1.128632e+02  8.021052e-15
     vertex -1.339083e+02  1.130488e+02  6.722053e-15
   endloop
 endfacet
 facet normal -1.547492e-16  5.001699e-16  1.000000e+00
   outer loop
     vertex -1.323198e+02  1.245692e+02  2.497898e-15
     vertex -1.350311e+02  1.127154e+02  8.007239e-15
     vertex -1.344641e+02  1.128632e+02  8.021052e-15
   endloop
 endfacet
 facet normal -1.173427e-16  4.916139e-16  1.000000e+00
   outer loop
     vertex -1.323198e+02  1.245692e+02  2.497898e-15
     vertex -1.356068e+02  1.126060e+02  7.993498e-15
     vertex -1.350311e+02  1.127154e+02  8.007239e-15
   endloop
 endfacet
 facet normal  2.032283e-16  3.386427e-16  1.000000e+00
   outer loop
     vertex -1.323198e+02  1.245692e+02  2.497898e-15
     vertex -1.339083e+02  1.130488e+02  6.722053e-15
     vertex -1.319353e+02  1.243181e+02  2.504825e-15
   endloop
 endfacet
 facet normal  2.804247e-16  3.823248e-16  1.000000e+00
   outer loop
     vertex -1.326822e+02  1.248513e+02  2.491683e-15
     vertex -1.356068e+02  1.126060e+02  7.993498e-15
     vertex -1.323198e+02  1.245692e+02  2.497898e-15
   endloop
 endfacet
 facet normal -8.024514e-17  4.684647e-16  1.000000e+00
   outer loop
     vertex -1.326822e+02  1.248513e+02  2.491683e-15
     vertex -1.361885e+02  1.125354e+02  7.979890e-15
     vertex -1.356068e+02  1.126060e+02  7.993498e-15
   endloop
 endfacet
 facet normal -4.757885e-17  4.591648e-16  1.000000e+00
   outer loop
     vertex -1.326822e+02  1.248513e+02  2.491683e-15
     vertex -1.367736e+02  1.125040e+02  7.966477e-15
     vertex -1.361885e+02  1.125354e+02  7.979890e-15
   endloop
 endfacet
 facet normal -1.640727e-17  4.488358e-16  1.000000e+00
   outer loop
     vertex -1.326822e+02  1.248513e+02  2.491683e-15
     vertex -1.373595e+02  1.125119e+02  7.953319e-15
     vertex -1.367736e+02  1.125040e+02  7.966477e-15
   endloop
 endfacet
 facet normal  1.335398e-17  4.375547e-16  1.000000e+00
   outer loop
     vertex -1.326822e+02  1.248513e+02  2.491683e-15
     vertex -1.379435e+02  1.125590e+02  7.940475e-15
     vertex -1.373595e+02  1.125119e+02  7.953319e-15
   endloop
 endfacet
 facet normal  4.178317e-17  4.253863e-16  1.000000e+00
   outer loop
     vertex -1.326822e+02  1.248513e+02  2.491683e-15
     vertex -1.385231e+02  1.126453e+02  7.928003e-15
     vertex -1.379435e+02  1.125590e+02  7.940475e-15
   endloop
 endfacet
 facet normal  6.895256e-17  4.123850e-16  1.000000e+00
   outer loop
     vertex -1.326822e+02  1.248513e+02  2.491683e-15
     vertex -1.390956e+02  1.127702e+02  7.915959e-15
     vertex -1.385231e+02  1.126453e+02  7.928003e-15
   endloop
 endfacet
 facet normal  9.492853e-17  3.985952e-16  1.000000e+00
   outer loop
     vertex -1.326822e+02  1.248513e+02  2.491683e-15
     vertex -1.396584e+02  1.129333e+02  7.904398e-15
     vertex -1.390956e+02  1.127702e+02  7.915959e-15
   endloop
 endfacet
 facet normal  1.197717e-16  3.840532e-16  1.000000e+00
   outer loop
     vertex -1.326822e+02  1.248513e+02  2.491683e-15
     vertex -1.402090e+02  1.131337e+02  7.893372e-15
     vertex -1.396584e+02  1.129333e+02  7.904398e-15
   endloop
 endfacet
 facet normal  1.435370e-16  3.687875e-16  1.000000e+00
   outer loop
     vertex -1.326822e+02  1.248513e+02  2.491683e-15
     vertex -1.407450e+02  1.133706e+02  7.882930e-15
     vertex -1.402090e+02  1.131337e+02  7.893372e-15
   endloop
 endfacet
 facet normal  1.525427e-16  3.266579e-16  1.000000e+00
   outer loop
     vertex -1.330200e+02  1.251623e+02  2.852688e-15
     vertex -1.412638e+02  1.136429e+02  7.873119e-15
     vertex -1.407450e+02  1.133706e+02  7.882930e-15
   endloop
 endfacet
 facet normal  1.731441e-16  3.119147e-16  1.000000e+00
   outer loop
     vertex -1.330200e+02  1.251623e+02  2.852688e-15
     vertex -1.417632e+02  1.139494e+02  7.863983e-15
     vertex -1.412638e+02  1.136429e+02  7.873119e-15
   endloop
 endfacet
 facet normal  1.929524e-16  2.964693e-16  1.000000e+00
   outer loop
     vertex -1.330200e+02  1.251623e+02  2.852688e-15
     vertex -1.422409e+02  1.142887e+02  7.855565e-15
     vertex -1.417632e+02  1.139494e+02  7.863983e-15
   endloop
 endfacet
 facet normal  2.119935e-16  2.803223e-16  1.000000e+00
   outer loop
     vertex -1.330200e+02  1.251623e+02  2.852688e-15
     vertex -1.426948e+02  1.146593e+02  7.847900e-15
     vertex -1.422409e+02  1.142887e+02  7.855565e-15
   endloop
 endfacet
 facet normal  2.302891e-16  2.634694e-16  1.000000e+00
   outer loop
     vertex -1.330200e+02  1.251623e+02  2.852688e-15
     vertex -1.431228e+02  1.150595e+02  7.841025e-15
     vertex -1.426948e+02  1.146593e+02  7.847900e-15
   endloop
 endfacet
 facet normal  2.478568e-16  2.459017e-16  1.000000e+00
   outer loop
     vertex -1.330200e+02  1.251623e+02  2.852688e-15
     vertex -1.435230e+02  1.154875e+02  7.834970e-15
     vertex -1.431228e+02  1.150595e+02  7.841025e-15
   endloop
 endfacet
 facet normal  2.647098e-16  2.276060e-16  1.000000e+00
   outer loop
     vertex -1.330200e+02  1.251623e+02  2.852688e-15
     vertex -1.438936e+02  1.159414e+02  7.829762e-15
     vertex -1.435230e+02  1.154875e+02  7.834970e-15
   endloop
 endfacet
 facet normal  2.808568e-16  2.085649e-16  1.000000e+00
   outer loop
     vertex -1.330200e+02  1.251623e+02  2.852688e-15
     vertex -1.442329e+02  1.164191e+02  7.825425e-15
     vertex -1.438936e+02  1.159414e+02  7.829762e-15
   endloop
 endfacet
 facet normal  2.963022e-16  1.887566e-16  1.000000e+00
   outer loop
     vertex -1.330200e+02  1.251623e+02  2.852688e-15
     vertex -1.445394e+02  1.169185e+02  7.821978e-15
     vertex -1.442329e+02  1.164191e+02  7.825425e-15
   endloop
 endfacet
 facet normal  3.110454e-16  1.681553e-16  1.000000e+00
   outer loop
     vertex -1.330200e+02  1.251623e+02  2.852688e-15
     vertex -1.448118e+02  1.174374e+02  7.819437e-15
     vertex -1.445394e+02  1.169185e+02  7.821978e-15
   endloop
 endfacet
 facet normal  9.114991e-16 -1.705460e-16  1.000000e+00
   outer loop
     vertex -1.330200e+02  1.251623e+02  2.852688e-15
     vertex -1.407450e+02  1.133706e+02  7.882930e-15
     vertex -1.326822e+02  1.248513e+02  2.491683e-15
   endloop
 endfacet
 facet normal  3.531749e-16  1.591495e-16  1.000000e+00
   outer loop
     vertex -1.333311e+02  1.255002e+02  2.481552e-15
     vertex -1.450487e+02  1.179733e+02  7.817813e-15
     vertex -1.448118e+02  1.174374e+02  7.819437e-15
   endloop
 endfacet
 facet normal  3.684407e-16  1.353842e-16  1.000000e+00
   outer loop
     vertex -1.333311e+02  1.255002e+02  2.481552e-15
     vertex -1.452491e+02  1.185239e+02  7.817114e-15
     vertex -1.450487e+02  1.179733e+02  7.817813e-15
   endloop
 endfacet
 facet normal  3.829827e-16  1.105410e-16  1.000000e+00
   outer loop
     vertex -1.333311e+02  1.255002e+02  2.481552e-15
     vertex -1.454121e+02  1.190868e+02  7.817342e-15
     vertex -1.452491e+02  1.185239e+02  7.817114e-15
   endloop
 endfacet
 facet normal  3.967725e-16  8.456508e-17  1.000000e+00
   outer loop
     vertex -1.333311e+02  1.255002e+02  2.481552e-15
     vertex -1.455371e+02  1.196592e+02  7.818498e-15
     vertex -1.454121e+02  1.190868e+02  7.817342e-15
   endloop
 endfacet
 facet normal  4.097738e-16  5.739568e-17  1.000000e+00
   outer loop
     vertex -1.333311e+02  1.255002e+02  2.481552e-15
     vertex -1.456233e+02  1.202388e+02  7.820574e-15
     vertex -1.455371e+02  1.196592e+02  7.818498e-15
   endloop
 endfacet
 facet normal  4.219422e-16  2.896649e-17  1.000000e+00
   outer loop
     vertex -1.333311e+02  1.255002e+02  2.481552e-15
     vertex -1.456705e+02  1.208229e+02  7.823563e-15
     vertex -1.456233e+02  1.202388e+02  7.820574e-15
   endloop
 endfacet
 facet normal  4.332233e-16 -7.947546e-19  1.000000e+00
   outer loop
     vertex -1.333311e+02  1.255002e+02  2.481552e-15
     vertex -1.456784e+02  1.214088e+02  7.827450e-15
     vertex -1.456705e+02  1.208229e+02  7.823563e-15
   endloop
 endfacet
 facet normal  4.435523e-16 -3.196634e-17  1.000000e+00
   outer loop
     vertex -1.333311e+02  1.255002e+02  2.481552e-15
     vertex -1.456470e+02  1.219939e+02  7.832219e-15
     vertex -1.456784e+02  1.214088e+02  7.827450e-15
   endloop
 endfacet
 facet normal  4.528522e-16 -6.463263e-17  1.000000e+00
   outer loop
     vertex -1.333311e+02  1.255002e+02  2.481552e-15
     vertex -1.455764e+02  1.225756e+02  7.837847e-15
     vertex -1.456470e+02  1.219939e+02  7.832219e-15
   endloop
 endfacet
 facet normal -1.861585e-16  9.271116e-16  1.000000e+00
   outer loop
     vertex -1.333311e+02  1.255002e+02  2.481552e-15
     vertex -1.448118e+02  1.174374e+02  7.819437e-15
     vertex -1.330200e+02  1.251623e+02  2.852688e-15
   endloop
 endfacet
 facet normal  4.760013e-16 -1.017302e-16  1.000000e+00
   outer loop
     vertex -1.336131e+02  1.258626e+02  2.477706e-15
     vertex -1.454669e+02  1.231512e+02  7.844310e-15
     vertex -1.455764e+02  1.225756e+02  7.837847e-15
   endloop
 endfacet
 facet normal  4.845574e-16 -1.391367e-16  1.000000e+00
   outer loop
     vertex -1.336131e+02  1.258626e+02  2.477706e-15
     vertex -1.453191e+02  1.237183e+02  7.851578e-15
     vertex -1.454669e+02  1.231512e+02  7.844310e-15
   endloop
 endfacet
 facet normal  1.634843e-17  2.416849e-15  1.000000e+00
   outer loop
     vertex -1.336131e+02  1.258626e+02  2.477706e-15
     vertex -1.451336e+02  1.242741e+02  6.505213e-15
     vertex -1.453191e+02  1.237183e+02  7.851578e-15
   endloop
 endfacet
 facet normal  3.667123e-16  2.960372e-16  1.000000e+00
   outer loop
     vertex -1.336131e+02  1.258626e+02  2.477706e-15
     vertex -1.455764e+02  1.225756e+02  7.837847e-15
     vertex -1.333311e+02  1.255002e+02  2.481552e-15
   endloop
 endfacet
 facet normal  2.705975e-16 -2.351059e-16  1.000000e+00
   outer loop
     vertex -1.209065e+02  1.260506e+02  1.734723e-15
     vertex -1.245692e+02  1.258626e+02  2.681659e-15
     vertex -1.248513e+02  1.255002e+02  2.672783e-15
   endloop
 endfacet
 facet normal  2.772722e-16 -2.829460e-16  1.000000e+00
   outer loop
     vertex -1.209065e+02  1.260506e+02  1.734723e-15
     vertex -1.248513e+02  1.255002e+02  2.672783e-15
     vertex -1.251623e+02  1.251623e+02  2.663425e-15
   endloop
 endfacet
 facet normal  2.906833e-16 -3.472025e-16  1.000000e+00
   outer loop
     vertex -1.209065e+02  1.260506e+02  1.734723e-15
     vertex -1.251623e+02  1.251623e+02  2.663425e-15
     vertex -1.255002e+02  1.248513e+02  2.653647e-15
   endloop
 endfacet
 facet normal  3.151098e-16 -4.407660e-16  1.000000e+00
   outer loop
     vertex -1.209065e+02  1.260506e+02  1.734723e-15
     vertex -1.255002e+02  1.248513e+02  2.653647e-15
     vertex -1.258626e+02  1.245692e+02  2.643518e-15
   endloop
 endfacet
 facet normal  3.608385e-16 -5.937609e-16  1.000000e+00
   outer loop
     vertex -1.209065e+02  1.260506e+02  1.734723e-15
     vertex -1.258626e+02  1.245692e+02  2.643518e-15
     vertex -1.262470e+02  1.243181e+02  2.633105e-15
   endloop
 endfacet
 facet normal  6.480401e-17  3.187833e-16  1.000000e+00
   outer loop
     vertex -1.209065e+02  1.260506e+02  1.734723e-15
     vertex -1.262470e+02  1.243181e+02  2.633105e-15
     vertex -1.339083e+02  1.130488e+02  6.722053e-15
   endloop
 endfacet
 facet normal  2.686516e-16 -1.971913e-16  1.000000e+00
   outer loop
     vertex -1.243181e+02  1.262470e+02  2.689990e-15
     vertex -1.245692e+02  1.258626e+02  2.681659e-15
     vertex -1.209065e+02  1.260506e+02  1.734723e-15
   endloop
 endfacet
 facet normal  3.197188e-16  2.166774e-16  1.000000e+00
   outer loop
     vertex -1.338643e+02  1.262470e+02  2.474709e-15
     vertex -1.451336e+02  1.242741e+02  6.505213e-15
     vertex -1.336131e+02  1.258626e+02  2.477706e-15
   endloop
 endfacet
 facet normal  2.704755e-16 -1.655171e-16  1.000000e+00
   outer loop
     vertex -1.240995e+02  1.266509e+02  2.697722e-15
     vertex -1.243181e+02  1.262470e+02  2.689990e-15
     vertex -1.209065e+02  1.260506e+02  1.734723e-15
   endloop
 endfacet
 facet normal  3.258580e-16  1.816109e-16  1.000000e+00
   outer loop
     vertex -1.340829e+02  1.266509e+02  2.472583e-15
     vertex -1.451336e+02  1.242741e+02  6.505213e-15
     vertex -1.338643e+02  1.262470e+02  2.474709e-15
   endloop
 endfacet
 facet normal  2.756939e-16 -1.377614e-16  1.000000e+00
   outer loop
     vertex -1.239150e+02  1.270714e+02  2.704800e-15
     vertex -1.240995e+02  1.266509e+02  2.697722e-15
     vertex -1.209065e+02  1.260506e+02  1.734723e-15
   endloop
 endfacet
 facet normal  3.328791e-16  1.489674e-16  1.000000e+00
   outer loop
     vertex -1.342673e+02  1.270714e+02  2.471341e-15
     vertex -1.451336e+02  1.242741e+02  6.505213e-15
     vertex -1.340829e+02  1.266509e+02  2.472583e-15
   endloop
 endfacet
 facet normal -2.255141e-17 -6.938894e-18  1.000000e+00
   outer loop
     vertex -1.237659e+02  1.275058e+02  2.711176e-15
     vertex -1.207210e+02  1.266064e+02  2.773604e-15
     vertex -1.205732e+02  1.271734e+02  2.780871e-15
   endloop
 endfacet
 facet normal -5.212005e-16 -1.695139e-15  1.000000e+00
   outer loop
     vertex -1.237659e+02  1.275058e+02  2.711176e-15
     vertex -1.209065e+02  1.260506e+02  1.734723e-15
     vertex -1.207210e+02  1.266064e+02  2.773604e-15
   endloop
 endfacet
 facet normal  2.843359e-16 -1.122934e-16  1.000000e+00
   outer loop
     vertex -1.237659e+02  1.275058e+02  2.711176e-15
     vertex -1.239150e+02  1.270714e+02  2.704800e-15
     vertex -1.209065e+02  1.260506e+02  1.734723e-15
   endloop
 endfacet
 facet normal  3.408944e-16  1.178322e-16  1.000000e+00
   outer loop
     vertex -1.344164e+02  1.275058e+02  2.470992e-15
     vertex -1.451336e+02  1.242741e+02  6.505213e-15
     vertex -1.342673e+02  1.270714e+02  2.471341e-15
   endloop
 endfacet
 facet normal -2.255141e-17 -6.938894e-18  1.000000e+00
   outer loop
     vertex -1.236532e+02  1.279510e+02  2.716808e-15
     vertex -1.205732e+02  1.271734e+02  2.780871e-15
     vertex -1.204637e+02  1.277490e+02  2.787334e-15
   endloop
 endfacet
 facet normal -2.255141e-17 -6.938894e-18  1.000000e+00
   outer loop
     vertex -1.236532e+02  1.279510e+02  2.716808e-15
     vertex -1.237659e+02  1.275058e+02  2.711176e-15
     vertex -1.205732e+02  1.271734e+02  2.780871e-15
   endloop
 endfacet
 facet normal  3.500649e-16  8.742038e-17  1.000000e+00
   outer loop
     vertex -1.345292e+02  1.279510e+02  2.471539e-15
     vertex -1.451336e+02  1.242741e+02  6.505213e-15
     vertex -1.344164e+02  1.275058e+02  2.470992e-15
   endloop
 endfacet
 facet normal -2.255141e-17 -6.938894e-18  1.000000e+00
   outer loop
     vertex -1.235776e+02  1.284039e+02  2.721655e-15
     vertex -1.204637e+02  1.277490e+02  2.787334e-15
     vertex -1.203931e+02  1.283307e+02  2.792962e-15
   endloop
 endfacet
 facet normal -2.255141e-17 -6.938894e-18  1.000000e+00
   outer loop
     vertex -1.235776e+02  1.284039e+02  2.721655e-15
     vertex -1.236532e+02  1.279510e+02  2.716808e-15
     vertex -1.204637e+02  1.277490e+02  2.787334e-15
   endloop
 endfacet
 facet normal  3.606126e-16  5.699988e-17  1.000000e+00
   outer loop
     vertex -1.346048e+02  1.284039e+02  2.472977e-15
     vertex -1.451336e+02  1.242741e+02  6.505213e-15
     vertex -1.345292e+02  1.279510e+02  2.471539e-15
   endloop
 endfacet
 facet normal -2.255141e-17 -6.938894e-18  1.000000e+00
   outer loop
     vertex -1.235397e+02  1.288616e+02  2.725686e-15
     vertex -1.235776e+02  1.284039e+02  2.721655e-15
     vertex -1.203931e+02  1.283307e+02  2.792962e-15
   endloop
 endfacet
 facet normal  3.728410e-16  2.582425e-17  1.000000e+00
   outer loop
     vertex -1.346427e+02  1.288616e+02  2.475298e-15
     vertex -1.451336e+02  1.242741e+02  6.505213e-15
     vertex -1.346048e+02  1.284039e+02  2.472977e-15
   endloop
 endfacet
 facet normal -2.255141e-17 -6.938894e-18  1.000000e+00
   outer loop
     vertex -1.203617e+02  1.289159e+02  2.797731e-15
     vertex -1.235397e+02  1.288616e+02  2.725686e-15
     vertex -1.203931e+02  1.283307e+02  2.792962e-15
   endloop
 endfacet
 facet normal -2.255141e-17 -6.938894e-18  1.000000e+00
   outer loop
     vertex -1.235397e+02  1.293208e+02  2.728873e-15
     vertex -1.235397e+02  1.288616e+02  2.725686e-15
     vertex -1.203617e+02  1.289159e+02  2.797731e-15
   endloop
 endfacet
 facet normal  3.871677e-16 -6.938894e-18  1.000000e+00
   outer loop
     vertex -1.346427e+02  1.293208e+02  2.478484e-15
     vertex -1.451336e+02  1.242741e+02  6.505213e-15
     vertex -1.346427e+02  1.288616e+02  2.475298e-15
   endloop
 endfacet
 facet normal -2.255141e-17 -6.938894e-18  1.000000e+00
   outer loop
     vertex -1.203696e+02  1.295018e+02  2.801618e-15
     vertex -1.235397e+02  1.293208e+02  2.728873e-15
     vertex -1.203617e+02  1.289159e+02  2.797731e-15
   endloop
 endfacet
 facet normal  4.041778e-16 -4.229868e-17  1.000000e+00
   outer loop
     vertex -1.346048e+02  1.297784e+02  2.482515e-15
     vertex -1.451336e+02  1.242741e+02  6.505213e-15
     vertex -1.346427e+02  1.293208e+02  2.478484e-15
   endloop
 endfacet
 facet normal -2.255141e-17 -6.938894e-18  1.000000e+00
   outer loop
     vertex -1.204168e+02  1.300858e+02  2.804607e-15
     vertex -1.235397e+02  1.293208e+02  2.728873e-15
     vertex -1.203696e+02  1.295018e+02  2.801618e-15
   endloop
 endfacet
 facet normal -2.255141e-17 -6.938894e-18  1.000000e+00
   outer loop
     vertex -1.204168e+02  1.300858e+02  2.804607e-15
     vertex -1.235776e+02  1.297784e+02  2.731193e-15
     vertex -1.235397e+02  1.293208e+02  2.728873e-15
   endloop
 endfacet
 facet normal  4.247103e-16 -8.157368e-17  1.000000e+00
   outer loop
     vertex -1.345292e+02  1.302314e+02  2.487363e-15
     vertex -1.451336e+02  1.242741e+02  6.505213e-15
     vertex -1.346048e+02  1.297784e+02  2.482515e-15
   endloop
 endfacet
 facet normal -2.255141e-17 -6.938894e-18  1.000000e+00
   outer loop
     vertex -1.205030e+02  1.306654e+02  2.806684e-15
     vertex -1.235776e+02  1.297784e+02  2.731193e-15
     vertex -1.204168e+02  1.300858e+02  2.804607e-15
   endloop
 endfacet
 facet normal -2.255141e-17 -6.938894e-18  1.000000e+00
   outer loop
     vertex -1.205030e+02  1.306654e+02  2.806684e-15
     vertex -1.236532e+02  1.302314e+02  2.732632e-15
     vertex -1.235776e+02  1.297784e+02  2.731193e-15
   endloop
 endfacet
 facet normal  4.500094e-16 -1.266075e-16  1.000000e+00
   outer loop
     vertex -1.344164e+02  1.306766e+02  2.492994e-15
     vertex -1.451336e+02  1.242741e+02  6.505213e-15
     vertex -1.345292e+02  1.302314e+02  2.487363e-15
   endloop
 endfacet
 facet normal  4.819962e-16 -1.801503e-16  1.000000e+00
   outer loop
     vertex -1.342673e+02  1.311109e+02  2.499370e-15
     vertex -1.451336e+02  1.242741e+02  6.505213e-15
     vertex -1.344164e+02  1.306766e+02  2.492994e-15
   endloop
 endfacet
 facet normal -2.255141e-17 -6.938894e-18  1.000000e+00
   outer loop
     vertex -1.206279e+02  1.312379e+02  2.807839e-15
     vertex -1.237659e+02  1.306766e+02  2.733178e-15
     vertex -1.236532e+02  1.302314e+02  2.732632e-15
   endloop
 endfacet
 facet normal -2.255141e-17 -6.938894e-18  1.000000e+00
   outer loop
     vertex -1.206279e+02  1.312379e+02  2.807839e-15
     vertex -1.236532e+02  1.302314e+02  2.732632e-15
     vertex -1.205030e+02  1.306654e+02  2.806684e-15
   endloop
 endfacet
 facet normal  5.237990e-16 -2.465904e-16  1.000000e+00
   outer loop
     vertex -1.340829e+02  1.315315e+02  2.506449e-15
     vertex -1.451336e+02  1.242741e+02  6.505213e-15
     vertex -1.342673e+02  1.311109e+02  2.499370e-15
   endloop
 endfacet
 facet normal -2.255141e-17 -6.938894e-18  1.000000e+00
   outer loop
     vertex -1.207910e+02  1.318007e+02  2.808067e-15
     vertex -1.239150e+02  1.311109e+02  2.732830e-15
     vertex -1.237659e+02  1.306766e+02  2.733178e-15
   endloop
 endfacet
 facet normal -2.255141e-17 -6.938894e-18  1.000000e+00
   outer loop
     vertex -1.207910e+02  1.318007e+02  2.808067e-15
     vertex -1.237659e+02  1.306766e+02  2.733178e-15
     vertex -1.206279e+02  1.312379e+02  2.807839e-15
   endloop
 endfacet
 facet normal  5.808726e-16 -3.334956e-16  1.000000e+00
   outer loop
     vertex -1.338643e+02  1.319353e+02  2.514180e-15
     vertex -1.451336e+02  1.242741e+02  6.505213e-15
     vertex -1.340829e+02  1.315315e+02  2.506449e-15
   endloop
 endfacet
 facet normal -2.255141e-17 -6.938894e-18  1.000000e+00
   outer loop
     vertex -1.209914e+02  1.323513e+02  2.807368e-15
     vertex -1.240995e+02  1.315315e+02  2.731588e-15
     vertex -1.239150e+02  1.311109e+02  2.732830e-15
   endloop
 endfacet
 facet normal -2.255141e-17 -6.938894e-18  1.000000e+00
   outer loop
     vertex -1.209914e+02  1.323513e+02  2.807368e-15
     vertex -1.239150e+02  1.311109e+02  2.732830e-15
     vertex -1.207910e+02  1.318007e+02  2.808067e-15
   endloop
 endfacet
 facet normal -2.255141e-17 -6.938894e-18  1.000000e+00
   outer loop
     vertex -1.212283e+02  1.328873e+02  2.805744e-15
     vertex -1.240995e+02  1.315315e+02  2.731588e-15
     vertex -1.209914e+02  1.323513e+02  2.807368e-15
   endloop
 endfacet
 facet normal -2.255141e-17 -6.938894e-18  1.000000e+00
   outer loop
     vertex -1.215006e+02  1.334061e+02  2.803203e-15
     vertex -1.243181e+02  1.319353e+02  2.729461e-15
     vertex -1.240995e+02  1.315315e+02  2.731588e-15
   endloop
 endfacet
 facet normal -2.255141e-17 -6.938894e-18  1.000000e+00
   outer loop
     vertex -1.215006e+02  1.334061e+02  2.803203e-15
     vertex -1.240995e+02  1.315315e+02  2.731588e-15
     vertex -1.212283e+02  1.328873e+02  2.805744e-15
   endloop
 endfacet
 facet normal -2.255141e-17 -6.938894e-18  1.000000e+00
   outer loop
     vertex -1.218072e+02  1.339055e+02  2.799756e-15
     vertex -1.245692e+02  1.323198e+02  2.726464e-15
     vertex -1.243181e+02  1.319353e+02  2.729461e-15
   endloop
 endfacet
 facet normal -2.255141e-17 -6.938894e-18  1.000000e+00
   outer loop
     vertex -1.218072e+02  1.339055e+02  2.799756e-15
     vertex -1.243181e+02  1.319353e+02  2.729461e-15
     vertex -1.215006e+02  1.334061e+02  2.803203e-15
   endloop
 endfacet
 facet normal -2.255141e-17 -6.938894e-18  1.000000e+00
   outer loop
     vertex -1.221465e+02  1.343832e+02  2.795419e-15
     vertex -1.248513e+02  1.326822e+02  2.722618e-15
     vertex -1.245692e+02  1.323198e+02  2.726464e-15
   endloop
 endfacet
 facet normal -2.255141e-17 -6.938894e-18  1.000000e+00
   outer loop
     vertex -1.221465e+02  1.343832e+02  2.795419e-15
     vertex -1.245692e+02  1.323198e+02  2.726464e-15
     vertex -1.218072e+02  1.339055e+02  2.799756e-15
   endloop
 endfacet
 facet normal -2.255141e-17 -6.938894e-18  1.000000e+00
   outer loop
     vertex -1.225171e+02  1.348371e+02  2.790211e-15
     vertex -1.251623e+02  1.330200e+02  2.717949e-15
     vertex -1.248513e+02  1.326822e+02  2.722618e-15
   endloop
 endfacet
 facet normal -2.255141e-17 -6.938894e-18  1.000000e+00
   outer loop
     vertex -1.225171e+02  1.348371e+02  2.790211e-15
     vertex -1.248513e+02  1.326822e+02  2.722618e-15
     vertex -1.221465e+02  1.343832e+02  2.795419e-15
   endloop
 endfacet
 facet normal -2.255141e-17 -6.938894e-18  1.000000e+00
   outer loop
     vertex -1.229173e+02  1.352651e+02  2.784156e-15
     vertex -1.251623e+02  1.330200e+02  2.717949e-15
     vertex -1.225171e+02  1.348371e+02  2.790211e-15
   endloop
 endfacet
 facet normal -2.255141e-17 -6.938894e-18  1.000000e+00
   outer loop
     vertex -1.233453e+02  1.356653e+02  2.777281e-15
     vertex -1.255002e+02  1.333311e+02  2.712487e-15
     vertex -1.251623e+02  1.330200e+02  2.717949e-15
   endloop
 endfacet
 facet normal -2.255141e-17 -6.938894e-18  1.000000e+00
   outer loop
     vertex -1.233453e+02  1.356653e+02  2.777281e-15
     vertex -1.251623e+02  1.330200e+02  2.717949e-15
     vertex -1.229173e+02  1.352651e+02  2.784156e-15
   endloop
 endfacet
 facet normal -2.255141e-17 -6.938894e-18  1.000000e+00
   outer loop
     vertex -1.237991e+02  1.360359e+02  2.769617e-15
     vertex -1.258626e+02  1.336131e+02  2.706272e-15
     vertex -1.255002e+02  1.333311e+02  2.712487e-15
   endloop
 endfacet
 facet normal -2.255141e-17 -6.938894e-18  1.000000e+00
   outer loop
     vertex -1.237991e+02  1.360359e+02  2.769617e-15
     vertex -1.255002e+02  1.333311e+02  2.712487e-15
     vertex -1.233453e+02  1.356653e+02  2.777281e-15
   endloop
 endfacet
 facet normal -2.255141e-17 -6.938894e-18  1.000000e+00
   outer loop
     vertex -1.242769e+02  1.363752e+02  2.761198e-15
     vertex -1.258626e+02  1.336131e+02  2.706272e-15
     vertex -1.237991e+02  1.360359e+02  2.769617e-15
   endloop
 endfacet
 facet normal -2.255141e-17 -6.938894e-18  1.000000e+00
   outer loop
     vertex -1.242769e+02  1.363752e+02  2.761198e-15
     vertex -1.262470e+02  1.338643e+02  2.699345e-15
     vertex -1.258626e+02  1.336131e+02  2.706272e-15
   endloop
 endfacet
 facet normal -2.255141e-17 -6.938894e-18  1.000000e+00
   outer loop
     vertex -1.247763e+02  1.366817e+02  2.752062e-15
     vertex -1.266509e+02  1.340829e+02  2.691754e-15
     vertex -1.262470e+02  1.338643e+02  2.699345e-15
   endloop
 endfacet
 facet normal -2.255141e-17 -6.938894e-18  1.000000e+00
   outer loop
     vertex -1.247763e+02  1.366817e+02  2.752062e-15
     vertex -1.262470e+02  1.338643e+02  2.699345e-15
     vertex -1.242769e+02  1.363752e+02  2.761198e-15
   endloop
 endfacet
 facet normal -2.255141e-17 -6.938894e-18  1.000000e+00
   outer loop
     vertex -1.252951e+02  1.369540e+02  2.742252e-15
     vertex -1.266509e+02  1.340829e+02  2.691754e-15
     vertex -1.247763e+02  1.366817e+02  2.752062e-15
   endloop
 endfacet
 facet normal -2.255141e-17 -6.938894e-18  1.000000e+00
   outer loop
     vertex -1.258310e+02  1.371909e+02  2.731809e-15
     vertex -1.270714e+02  1.342673e+02  2.683550e-15
     vertex -1.266509e+02  1.340829e+02  2.691754e-15
   endloop
 endfacet
 facet normal -2.255141e-17 -6.938894e-18  1.000000e+00
   outer loop
     vertex -1.258310e+02  1.371909e+02  2.731809e-15
     vertex -1.266509e+02  1.340829e+02  2.691754e-15
     vertex -1.252951e+02  1.369540e+02  2.742252e-15
   endloop
 endfacet
 facet normal  2.562319e-16  1.440331e-16  1.000000e+00
   outer loop
     vertex -1.321318e+02  1.372759e+02  1.301043e-15
     vertex -1.451336e+02  1.242741e+02  6.505213e-15
     vertex -1.338643e+02  1.319353e+02  2.514180e-15
   endloop
 endfacet
 facet normal -7.564862e-16  4.725646e-16  1.000000e+00
   outer loop
     vertex -1.321318e+02  1.372759e+02  1.301043e-15
     vertex -1.338643e+02  1.319353e+02  2.514180e-15
     vertex -1.336131e+02  1.323198e+02  2.522512e-15
   endloop
 endfacet
 facet normal -5.651364e-16  4.153720e-16  1.000000e+00
   outer loop
     vertex -1.321318e+02  1.372759e+02  1.301043e-15
     vertex -1.336131e+02  1.323198e+02  2.522512e-15
     vertex -1.333311e+02  1.326822e+02  2.531387e-15
   endloop
 endfacet
 facet normal -4.481171e-16  3.848220e-16  1.000000e+00
   outer loop
     vertex -1.321318e+02  1.372759e+02  1.301043e-15
     vertex -1.333311e+02  1.326822e+02  2.531387e-15
     vertex -1.330200e+02  1.330200e+02  2.540746e-15
   endloop
 endfacet
 facet normal -3.677518e-16  3.680487e-16  1.000000e+00
   outer loop
     vertex -1.321318e+02  1.372759e+02  1.301043e-15
     vertex -1.330200e+02  1.330200e+02  2.540746e-15
     vertex -1.326822e+02  1.333311e+02  2.550523e-15
   endloop
 endfacet
 facet normal -3.079185e-16  3.597007e-16  1.000000e+00
   outer loop
     vertex -1.321318e+02  1.372759e+02  1.301043e-15
     vertex -1.326822e+02  1.333311e+02  2.550523e-15
     vertex -1.323198e+02  1.336131e+02  2.560653e-15
   endloop
 endfacet
 facet normal -2.604989e-16  3.572669e-16  1.000000e+00
   outer loop
     vertex -1.321318e+02  1.372759e+02  1.301043e-15
     vertex -1.323198e+02  1.336131e+02  2.560653e-15
     vertex -1.319353e+02  1.338643e+02  2.571066e-15
   endloop
 endfacet
 facet normal -2.208843e-16  3.595481e-16  1.000000e+00
   outer loop
     vertex -1.321318e+02  1.372759e+02  1.301043e-15
     vertex -1.319353e+02  1.338643e+02  2.571066e-15
     vertex -1.315315e+02  1.340829e+02  2.581690e-15
   endloop
 endfacet
 facet normal -1.861704e-16  3.660748e-16  1.000000e+00
   outer loop
     vertex -1.321318e+02  1.372759e+02  1.301043e-15
     vertex -1.315315e+02  1.340829e+02  2.581690e-15
     vertex -1.311109e+02  1.342673e+02  2.592454e-15
   endloop
 endfacet
 facet normal -1.543177e-16  3.768832e-16  1.000000e+00
   outer loop
     vertex -1.321318e+02  1.372759e+02  1.301043e-15
     vertex -1.311109e+02  1.342673e+02  2.592454e-15
     vertex -1.306766e+02  1.344164e+02  2.603284e-15
   endloop
 endfacet
 facet normal -2.255141e-17 -6.938894e-18  1.000000e+00
   outer loop
     vertex -1.263817e+02  1.373914e+02  2.720783e-15
     vertex -1.275058e+02  1.344164e+02  2.674790e-15
     vertex -1.270714e+02  1.342673e+02  2.683550e-15
   endloop
 endfacet
 facet normal -2.255141e-17 -6.938894e-18  1.000000e+00
   outer loop
     vertex -1.263817e+02  1.373914e+02  2.720783e-15
     vertex -1.270714e+02  1.342673e+02  2.683550e-15
     vertex -1.258310e+02  1.371909e+02  2.731809e-15
   endloop
 endfacet
 facet normal -2.133974e-15 -6.305963e-16  1.000000e+00
   outer loop
     vertex -1.315760e+02  1.374614e+02  2.604130e-15
     vertex -1.321318e+02  1.372759e+02  1.301043e-15
     vertex -1.306766e+02  1.344164e+02  2.603284e-15
   endloop
 endfacet
 facet normal -2.255141e-17 -6.938894e-18  1.000000e+00
   outer loop
     vertex -1.269445e+02  1.375544e+02  2.709222e-15
     vertex -1.279510e+02  1.345292e+02  2.665533e-15
     vertex -1.275058e+02  1.344164e+02  2.674790e-15
   endloop
 endfacet
 facet normal -2.255141e-17 -6.938894e-18  1.000000e+00
   outer loop
     vertex -1.269445e+02  1.375544e+02  2.709222e-15
     vertex -1.275058e+02  1.344164e+02  2.674790e-15
     vertex -1.263817e+02  1.373914e+02  2.720783e-15
   endloop
 endfacet
 facet normal -2.255141e-17 -6.938894e-18  1.000000e+00
   outer loop
     vertex -1.310090e+02  1.376092e+02  2.617942e-15
     vertex -1.315760e+02  1.374614e+02  2.604130e-15
     vertex -1.306766e+02  1.344164e+02  2.603284e-15
   endloop
 endfacet
 facet normal -2.255141e-17 -6.938894e-18  1.000000e+00
   outer loop
     vertex -1.310090e+02  1.376092e+02  2.617942e-15
     vertex -1.306766e+02  1.344164e+02  2.603284e-15
     vertex -1.302314e+02  1.345292e+02  2.614105e-15
   endloop
 endfacet
 facet normal -2.255141e-17 -6.938894e-18  1.000000e+00
   outer loop
     vertex -1.275170e+02  1.376793e+02  2.697178e-15
     vertex -1.284039e+02  1.346048e+02  2.655842e-15
     vertex -1.279510e+02  1.345292e+02  2.665533e-15
   endloop
 endfacet
 facet normal -2.255141e-17 -6.938894e-18  1.000000e+00
   outer loop
     vertex -1.275170e+02  1.376793e+02  2.697178e-15
     vertex -1.279510e+02  1.345292e+02  2.665533e-15
     vertex -1.269445e+02  1.375544e+02  2.709222e-15
   endloop
 endfacet
 facet normal -2.255141e-17 -6.938894e-18  1.000000e+00
   outer loop
     vertex -1.304333e+02  1.377187e+02  2.631683e-15
     vertex -1.310090e+02  1.376092e+02  2.617942e-15
     vertex -1.302314e+02  1.345292e+02  2.614105e-15
   endloop
 endfacet
 facet normal -2.255141e-17 -6.938894e-18  1.000000e+00
   outer loop
     vertex -1.304333e+02  1.377187e+02  2.631683e-15
     vertex -1.302314e+02  1.345292e+02  2.614105e-15
     vertex -1.297784e+02  1.346048e+02  2.624845e-15
   endloop
 endfacet
 facet normal -2.255141e-17 -6.938894e-18  1.000000e+00
   outer loop
     vertex -1.280965e+02  1.377656e+02  2.684707e-15
     vertex -1.284039e+02  1.346048e+02  2.655842e-15
     vertex -1.275170e+02  1.376793e+02  2.697178e-15
   endloop
 endfacet
 facet normal -2.255141e-17 -6.938894e-18  1.000000e+00
   outer loop
     vertex -1.280965e+02  1.377656e+02  2.684707e-15
     vertex -1.288616e+02  1.346427e+02  2.645785e-15
     vertex -1.284039e+02  1.346048e+02  2.655842e-15
   endloop
 endfacet
 facet normal -2.255141e-17 -6.938894e-18  1.000000e+00
   outer loop
     vertex -1.298516e+02  1.377893e+02  2.645291e-15
     vertex -1.304333e+02  1.377187e+02  2.631683e-15
     vertex -1.297784e+02  1.346048e+02  2.624845e-15
   endloop
 endfacet
 facet normal -2.255141e-17 -6.938894e-18  1.000000e+00
   outer loop
     vertex -1.298516e+02  1.377893e+02  2.645291e-15
     vertex -1.297784e+02  1.346048e+02  2.624845e-15
     vertex -1.293208e+02  1.346427e+02  2.635428e-15
   endloop
 endfacet
 facet normal -2.255141e-17 -6.938894e-18  1.000000e+00
   outer loop
     vertex -1.286806e+02  1.378128e+02  2.671863e-15
     vertex -1.288616e+02  1.346427e+02  2.645785e-15
     vertex -1.280965e+02  1.377656e+02  2.684707e-15
   endloop
 endfacet
 facet normal -2.255141e-17 -6.938894e-18  1.000000e+00
   outer loop
     vertex -1.292665e+02  1.378207e+02  2.658704e-15
     vertex -1.298516e+02  1.377893e+02  2.645291e-15
     vertex -1.293208e+02  1.346427e+02  2.635428e-15
   endloop
 endfacet
 facet normal -2.255141e-17 -6.938894e-18  1.000000e+00
   outer loop
     vertex -1.292665e+02  1.378207e+02  2.658704e-15
     vertex -1.288616e+02  1.346427e+02  2.645785e-15
     vertex -1.286806e+02  1.378128e+02  2.671863e-15
   endloop
 endfacet
 facet normal -2.255141e-17 -6.938894e-18  1.000000e+00
   outer loop
     vertex -1.292665e+02  1.378207e+02  2.658704e-15
     vertex -1.293208e+02  1.346427e+02  2.635428e-15
     vertex -1.288616e+02  1.346427e+02  2.645785e-15
   endloop
 endfacet
endsolid
