solid 
 facet normal -1.000000e+00 -8.300311e-17 -0.000000e+00
   outer loop
     vertex -2.514600e+02  1.499870e+01  3.429000e+00
     vertex -2.514600e+02  1.499870e+01  0.000000e+00
     vertex -2.514600e+02 -3.274187e+02  0.000000e+00
   endloop
 endfacet
 facet normal -1.000000e+00 -8.300311e-17  0.000000e+00
   outer loop
     vertex -2.514600e+02  1.499870e+01  3.429000e+00
     vertex -2.514600e+02 -3.274187e+02  0.000000e+00
     vertex -2.514600e+02 -3.274187e+02  3.429000e+00
   endloop
 endfacet
endsolid
