solid 
 facet normal  4.132497e-02 -9.991458e-01 -2.236763e-15
   outer loop
     vertex  1.830213e+02 -5.537273e+00  2.381250e+00
     vertex  1.825625e+02 -5.556250e+00  2.381250e+00
     vertex  1.825625e+02 -5.556250e+00  5.898038e-15
   endloop
 endfacet
 facet normal  4.132497e-02 -9.991458e-01 -2.236018e-15
   outer loop
     vertex  1.830213e+02 -5.537273e+00  2.381250e+00
     vertex  1.825625e+02 -5.556250e+00  5.898038e-15
     vertex  1.830213e+02 -5.537273e+00  5.898631e-15
   endloop
 endfacet
 facet normal  1.236926e-01 -9.923206e-01 -2.220744e-15
   outer loop
     vertex  1.834770e+02 -5.480470e+00  2.381250e+00
     vertex  1.830213e+02 -5.537273e+00  5.898631e-15
     vertex  1.834770e+02 -5.480470e+00  5.900404e-15
   endloop
 endfacet
 facet normal  1.236926e-01 -9.923206e-01 -2.220900e-15
   outer loop
     vertex  1.834770e+02 -5.480470e+00  2.381250e+00
     vertex  1.830213e+02 -5.537273e+00  2.381250e+00
     vertex  1.830213e+02 -5.537273e+00  5.898631e-15
   endloop
 endfacet
 facet normal  2.052153e-01 -9.787168e-01 -2.190300e-15
   outer loop
     vertex  1.839265e+02 -5.386230e+00  2.381250e+00
     vertex  1.834770e+02 -5.480470e+00  5.900404e-15
     vertex  1.839265e+02 -5.386230e+00  5.903347e-15
   endloop
 endfacet
 facet normal  2.052153e-01 -9.787168e-01 -2.189172e-15
   outer loop
     vertex  1.839265e+02 -5.386230e+00  2.381250e+00
     vertex  1.834770e+02 -5.480470e+00  2.381250e+00
     vertex  1.834770e+02 -5.480470e+00  5.900404e-15
   endloop
 endfacet
 facet normal  2.853362e-01 -9.584275e-01 -2.144893e-15
   outer loop
     vertex  1.843666e+02 -5.255197e+00  2.381250e+00
     vertex  1.839265e+02 -5.386230e+00  5.903347e-15
     vertex  1.843666e+02 -5.255197e+00  5.907439e-15
   endloop
 endfacet
 facet normal  2.853362e-01 -9.584275e-01 -2.144755e-15
   outer loop
     vertex  1.843666e+02 -5.255197e+00  2.381250e+00
     vertex  1.839265e+02 -5.386230e+00  2.381250e+00
     vertex  1.839265e+02 -5.386230e+00  5.903347e-15
   endloop
 endfacet
 facet normal  3.635080e-01 -9.315911e-01 -2.081300e-15
   outer loop
     vertex  1.847944e+02 -5.088266e+00  2.381250e+00
     vertex  1.843666e+02 -5.255197e+00  2.381250e+00
     vertex  1.843666e+02 -5.255197e+00  5.907439e-15
   endloop
 endfacet
 facet normal  3.635080e-01 -9.315911e-01 -2.084836e-15
   outer loop
     vertex  1.847944e+02 -5.088266e+00  2.381250e+00
     vertex  1.843666e+02 -5.255197e+00  5.907439e-15
     vertex  1.847944e+02 -5.088266e+00  5.912651e-15
   endloop
 endfacet
 facet normal  4.391966e-01 -8.983910e-01 -2.005155e-15
   outer loop
     vertex  1.852070e+02 -4.886576e+00  2.381250e+00
     vertex  1.847944e+02 -5.088266e+00  2.381250e+00
     vertex  1.847944e+02 -5.088266e+00  5.912651e-15
   endloop
 endfacet
 facet normal  4.391966e-01 -8.983910e-01 -2.010536e-15
   outer loop
     vertex  1.852070e+02 -4.886576e+00  2.381250e+00
     vertex  1.847944e+02 -5.088266e+00  5.912651e-15
     vertex  1.852070e+02 -4.886576e+00  5.918949e-15
   endloop
 endfacet
 facet normal  5.118850e-01 -8.590540e-01 -1.916319e-15
   outer loop
     vertex  1.856015e+02 -4.651506e+00  2.381250e+00
     vertex  1.852070e+02 -4.886576e+00  2.381250e+00
     vertex  1.852070e+02 -4.886576e+00  5.918949e-15
   endloop
 endfacet
 facet normal  5.118850e-01 -8.590540e-01 -1.922503e-15
   outer loop
     vertex  1.856015e+02 -4.651506e+00  2.381250e+00
     vertex  1.852070e+02 -4.886576e+00  5.918949e-15
     vertex  1.856015e+02 -4.651506e+00  5.926289e-15
   endloop
 endfacet
 facet normal  5.810768e-01 -8.138487e-01 -1.827483e-15
   outer loop
     vertex  1.859752e+02 -4.384662e+00  2.381250e+00
     vertex  1.856015e+02 -4.651506e+00  2.381250e+00
     vertex  1.856015e+02 -4.651506e+00  5.926289e-15
   endloop
 endfacet
 facet normal  5.810768e-01 -8.138487e-01 -1.821336e-15
   outer loop
     vertex  1.859752e+02 -4.384662e+00  2.381250e+00
     vertex  1.856015e+02 -4.651506e+00  5.926289e-15
     vertex  1.859752e+02 -4.384662e+00  5.934621e-15
   endloop
 endfacet
 facet normal  6.462992e-01 -7.630841e-01 -1.700575e-15
   outer loop
     vertex  1.863256e+02 -4.087866e+00  2.381250e+00
     vertex  1.859752e+02 -4.384662e+00  2.381250e+00
     vertex  1.859752e+02 -4.384662e+00  5.934621e-15
   endloop
 endfacet
 facet normal  6.462992e-01 -7.630841e-01 -1.707729e-15
   outer loop
     vertex  1.863256e+02 -4.087866e+00  2.381250e+00
     vertex  1.859752e+02 -4.384662e+00  5.934621e-15
     vertex  1.863256e+02 -4.087866e+00  5.943888e-15
   endloop
 endfacet
 facet normal  7.071068e-01 -7.071068e-01 -1.586357e-15
   outer loop
     vertex  1.866504e+02 -3.763146e+00  2.381250e+00
     vertex  1.863256e+02 -4.087866e+00  2.381250e+00
     vertex  1.863256e+02 -4.087866e+00  5.943888e-15
   endloop
 endfacet
 facet normal  7.630841e-01 -6.462992e-01 -1.446372e-15
   outer loop
     vertex  1.866504e+02 -3.763146e+00  2.381250e+00
     vertex  1.866504e+02 -3.763146e+00  5.954028e-15
     vertex  1.869472e+02 -3.412719e+00  5.964970e-15
   endloop
 endfacet
 facet normal  7.071068e-01 -7.071068e-01 -1.582455e-15
   outer loop
     vertex  1.866504e+02 -3.763146e+00  2.381250e+00
     vertex  1.863256e+02 -4.087866e+00  5.943888e-15
     vertex  1.866504e+02 -3.763146e+00  5.954028e-15
   endloop
 endfacet
 facet normal  7.630841e-01 -6.462992e-01 -1.446372e-15
   outer loop
     vertex  1.869472e+02 -3.412719e+00  2.381250e+00
     vertex  1.866504e+02 -3.763146e+00  2.381250e+00
     vertex  1.869472e+02 -3.412719e+00  5.964970e-15
   endloop
 endfacet
 facet normal  8.138487e-01 -5.810768e-01 -1.307158e-15
   outer loop
     vertex  1.872140e+02 -3.038981e+00  2.381250e+00
     vertex  1.869472e+02 -3.412719e+00  2.381250e+00
     vertex  1.869472e+02 -3.412719e+00  5.964970e-15
   endloop
 endfacet
 facet normal  8.138487e-01 -5.810768e-01 -1.300409e-15
   outer loop
     vertex  1.872140e+02 -3.038981e+00  2.381250e+00
     vertex  1.869472e+02 -3.412719e+00  5.964970e-15
     vertex  1.872140e+02 -3.038981e+00  5.976640e-15
   endloop
 endfacet
 facet normal  8.590540e-01 -5.118850e-01 -1.145563e-15
   outer loop
     vertex  1.874491e+02 -2.644483e+00  2.381250e+00
     vertex  1.872140e+02 -3.038981e+00  5.976640e-15
     vertex  1.874491e+02 -2.644483e+00  5.988958e-15
   endloop
 endfacet
 facet normal  8.590540e-01 -5.118850e-01 -1.154868e-15
   outer loop
     vertex  1.874491e+02 -2.644483e+00  2.381250e+00
     vertex  1.872140e+02 -3.038981e+00  2.381250e+00
     vertex  1.872140e+02 -3.038981e+00  5.976640e-15
   endloop
 endfacet
 facet normal  9.315911e-01 -3.635080e-01 -8.135053e-16
   outer loop
     vertex  1.876508e+02 -2.231920e+00  2.381250e+00
     vertex  1.876508e+02 -2.231920e+00  6.001840e-15
     vertex  1.878177e+02 -1.804111e+00  6.015199e-15
   endloop
 endfacet
 facet normal  8.983910e-01 -4.391966e-01 -9.828912e-16
   outer loop
     vertex  1.876508e+02 -2.231920e+00  2.381250e+00
     vertex  1.874491e+02 -2.644483e+00  5.988958e-15
     vertex  1.876508e+02 -2.231920e+00  6.001840e-15
   endloop
 endfacet
 facet normal  8.983910e-01 -4.391966e-01 -9.898867e-16
   outer loop
     vertex  1.876508e+02 -2.231920e+00  2.381250e+00
     vertex  1.874491e+02 -2.644483e+00  2.381250e+00
     vertex  1.874491e+02 -2.644483e+00  5.988958e-15
   endloop
 endfacet
 facet normal  9.315911e-01 -3.635080e-01 -7.796093e-16
   outer loop
     vertex  1.878177e+02 -1.804111e+00  2.381250e+00
     vertex  1.876508e+02 -2.231920e+00  2.381250e+00
     vertex  1.878177e+02 -1.804111e+00  6.015199e-15
   endloop
 endfacet
 facet normal  9.787168e-01 -2.052153e-01 -4.401218e-16
   outer loop
     vertex  1.879487e+02 -1.363979e+00  2.381250e+00
     vertex  1.879487e+02 -1.363979e+00  6.028942e-15
     vertex  1.880430e+02 -9.145287e-01  6.042976e-15
   endloop
 endfacet
 facet normal  9.584275e-01 -2.853362e-01 -6.119557e-16
   outer loop
     vertex  1.879487e+02 -1.363979e+00  2.381250e+00
     vertex  1.878177e+02 -1.804111e+00  6.015199e-15
     vertex  1.879487e+02 -1.363979e+00  6.028942e-15
   endloop
 endfacet
 facet normal  9.584275e-01 -2.853362e-01 -6.155065e-16
   outer loop
     vertex  1.879487e+02 -1.363979e+00  2.381250e+00
     vertex  1.878177e+02 -1.804111e+00  2.381250e+00
     vertex  1.878177e+02 -1.804111e+00  6.015199e-15
   endloop
 endfacet
 facet normal  9.787168e-01 -2.052153e-01 -4.401218e-16
   outer loop
     vertex  1.880430e+02 -9.145287e-01  2.381250e+00
     vertex  1.879487e+02 -1.363979e+00  2.381250e+00
     vertex  1.880430e+02 -9.145287e-01  6.042976e-15
   endloop
 endfacet
 facet normal  9.991458e-01 -4.132497e-02 -9.055568e-17
   outer loop
     vertex  1.880998e+02 -4.588315e-01  2.381250e+00
     vertex  1.880998e+02 -4.588315e-01  6.057205e-15
     vertex  1.881188e+02 -3.869106e-14  6.071532e-15
   endloop
 endfacet
 facet normal  9.923206e-01 -1.236926e-01 -2.710484e-16
   outer loop
     vertex  1.880998e+02 -4.588315e-01  2.381250e+00
     vertex  1.880430e+02 -9.145287e-01  6.042976e-15
     vertex  1.880998e+02 -4.588315e-01  6.057205e-15
   endloop
 endfacet
 facet normal  9.923206e-01 -1.236926e-01 -2.665080e-16
   outer loop
     vertex  1.880998e+02 -4.588315e-01  2.381250e+00
     vertex  1.880430e+02 -9.145287e-01  2.381250e+00
     vertex  1.880430e+02 -9.145287e-01  6.042976e-15
   endloop
 endfacet
 facet normal  9.991458e-01 -4.132497e-02 -9.031484e-17
   outer loop
     vertex  1.881188e+02 -4.389523e-14  2.381250e+00
     vertex  1.880998e+02 -4.588315e-01  2.381250e+00
     vertex  1.881188e+02 -3.869106e-14  6.071532e-15
   endloop
 endfacet
 facet normal  9.991458e-01  4.132497e-02  9.055568e-17
   outer loop
     vertex  1.880998e+02  4.588315e-01  2.381250e+00
     vertex  1.881188e+02 -3.869106e-14  6.071532e-15
     vertex  1.880998e+02  4.588315e-01  6.085859e-15
   endloop
 endfacet
 facet normal  9.991458e-01  4.132497e-02  9.042234e-17
   outer loop
     vertex  1.880998e+02  4.588315e-01  2.381250e+00
     vertex  1.881188e+02 -4.389523e-14  2.381250e+00
     vertex  1.881188e+02 -3.869106e-14  6.071532e-15
   endloop
 endfacet
 facet normal  9.923206e-01  1.236926e-01  2.652815e-16
   outer loop
     vertex  1.880430e+02  9.145287e-01  2.381250e+00
     vertex  1.880998e+02  4.588315e-01  6.085859e-15
     vertex  1.880430e+02  9.145287e-01  6.100088e-15
   endloop
 endfacet
 facet normal  9.923206e-01  1.236926e-01  2.696807e-16
   outer loop
     vertex  1.880430e+02  9.145287e-01  2.381250e+00
     vertex  1.880998e+02  4.588315e-01  2.381250e+00
     vertex  1.880998e+02  4.588315e-01  6.085859e-15
   endloop
 endfacet
 facet normal  9.787168e-01  2.052153e-01  4.401218e-16
   outer loop
     vertex  1.879487e+02  1.363979e+00  2.381250e+00
     vertex  1.880430e+02  9.145287e-01  6.100088e-15
     vertex  1.879487e+02  1.363979e+00  6.114122e-15
   endloop
 endfacet
 facet normal  9.787168e-01  2.052153e-01  4.378345e-16
   outer loop
     vertex  1.879487e+02  1.363979e+00  2.381250e+00
     vertex  1.880430e+02  9.145287e-01  2.381250e+00
     vertex  1.880430e+02  9.145287e-01  6.100088e-15
   endloop
 endfacet
 facet normal  9.315911e-01  3.635080e-01  7.796093e-16
   outer loop
     vertex  1.878177e+02  1.804111e+00  2.381250e+00
     vertex  1.878177e+02  1.804111e+00  6.127866e-15
     vertex  1.876508e+02  2.231920e+00  6.141224e-15
   endloop
 endfacet
 facet normal  9.584275e-01  2.853362e-01  6.119557e-16
   outer loop
     vertex  1.878177e+02  1.804111e+00  2.381250e+00
     vertex  1.879487e+02  1.363979e+00  6.114122e-15
     vertex  1.878177e+02  1.804111e+00  6.127866e-15
   endloop
 endfacet
 facet normal  9.584275e-01  2.853362e-01  6.155065e-16
   outer loop
     vertex  1.878177e+02  1.804111e+00  2.381250e+00
     vertex  1.879487e+02  1.363979e+00  2.381250e+00
     vertex  1.879487e+02  1.363979e+00  6.114122e-15
   endloop
 endfacet
 facet normal  9.315911e-01  3.635080e-01  8.135053e-16
   outer loop
     vertex  1.876508e+02  2.231920e+00  2.381250e+00
     vertex  1.878177e+02  1.804111e+00  2.381250e+00
     vertex  1.876508e+02  2.231920e+00  6.141224e-15
   endloop
 endfacet
 facet normal  8.983910e-01  4.391966e-01  9.828912e-16
   outer loop
     vertex  1.874491e+02  2.644483e+00  2.381250e+00
     vertex  1.876508e+02  2.231920e+00  6.141224e-15
     vertex  1.874491e+02  2.644483e+00  6.154106e-15
   endloop
 endfacet
 facet normal  8.983910e-01  4.391966e-01  9.771958e-16
   outer loop
     vertex  1.874491e+02  2.644483e+00  2.381250e+00
     vertex  1.876508e+02  2.231920e+00  2.381250e+00
     vertex  1.876508e+02  2.231920e+00  6.141224e-15
   endloop
 endfacet
 facet normal  8.138487e-01  5.810768e-01  1.300409e-15
   outer loop
     vertex  1.872140e+02  3.038981e+00  2.381250e+00
     vertex  1.872140e+02  3.038981e+00  6.166424e-15
     vertex  1.869472e+02  3.412719e+00  6.178094e-15
   endloop
 endfacet
 facet normal  8.590540e-01  5.118850e-01  1.145563e-15
   outer loop
     vertex  1.872140e+02  3.038981e+00  2.381250e+00
     vertex  1.874491e+02  2.644483e+00  6.154106e-15
     vertex  1.872140e+02  3.038981e+00  6.166424e-15
   endloop
 endfacet
 facet normal  8.590540e-01  5.118850e-01  1.142177e-15
   outer loop
     vertex  1.872140e+02  3.038981e+00  2.381250e+00
     vertex  1.874491e+02  2.644483e+00  2.381250e+00
     vertex  1.874491e+02  2.644483e+00  6.154106e-15
   endloop
 endfacet
 facet normal  8.138487e-01  5.810768e-01  1.300409e-15
   outer loop
     vertex  1.869472e+02  3.412719e+00  2.381250e+00
     vertex  1.872140e+02  3.038981e+00  2.381250e+00
     vertex  1.869472e+02  3.412719e+00  6.178094e-15
   endloop
 endfacet
 facet normal  7.071068e-01  7.071068e-01  1.582455e-15
   outer loop
     vertex  1.866504e+02  3.763146e+00  2.381250e+00
     vertex  1.866504e+02  3.763146e+00  6.189036e-15
     vertex  1.863256e+02  4.087866e+00  6.199176e-15
   endloop
 endfacet
 facet normal  7.630841e-01  6.462992e-01  1.446372e-15
   outer loop
     vertex  1.866504e+02  3.763146e+00  2.381250e+00
     vertex  1.869472e+02  3.412719e+00  6.178094e-15
     vertex  1.866504e+02  3.763146e+00  6.189036e-15
   endloop
 endfacet
 facet normal  7.630841e-01  6.462992e-01  1.446757e-15
   outer loop
     vertex  1.866504e+02  3.763146e+00  2.381250e+00
     vertex  1.869472e+02  3.412719e+00  2.381250e+00
     vertex  1.869472e+02  3.412719e+00  6.178094e-15
   endloop
 endfacet
 facet normal  7.071068e-01  7.071068e-01  1.582455e-15
   outer loop
     vertex  1.863256e+02  4.087866e+00  2.381250e+00
     vertex  1.866504e+02  3.763146e+00  2.381250e+00
     vertex  1.863256e+02  4.087866e+00  6.199176e-15
   endloop
 endfacet
 facet normal  6.462992e-01  7.630841e-01  1.713265e-15
   outer loop
     vertex  1.859752e+02  4.384662e+00  2.381250e+00
     vertex  1.863256e+02  4.087866e+00  2.381250e+00
     vertex  1.863256e+02  4.087866e+00  6.199176e-15
   endloop
 endfacet
 facet normal  6.462992e-01  7.630841e-01  1.707729e-15
   outer loop
     vertex  1.859752e+02  4.384662e+00  2.381250e+00
     vertex  1.863256e+02  4.087866e+00  6.199176e-15
     vertex  1.859752e+02  4.384662e+00  6.208443e-15
   endloop
 endfacet
 facet normal  5.810768e-01  8.138487e-01  1.814792e-15
   outer loop
     vertex  1.856015e+02  4.651506e+00  2.381250e+00
     vertex  1.859752e+02  4.384662e+00  2.381250e+00
     vertex  1.859752e+02  4.384662e+00  6.208443e-15
   endloop
 endfacet
 facet normal  5.810768e-01  8.138487e-01  1.821336e-15
   outer loop
     vertex  1.856015e+02  4.651506e+00  2.381250e+00
     vertex  1.859752e+02  4.384662e+00  6.208443e-15
     vertex  1.856015e+02  4.651506e+00  6.216776e-15
   endloop
 endfacet
 facet normal  4.391966e-01  8.983910e-01  2.010536e-15
   outer loop
     vertex  1.852070e+02  4.886576e+00  2.381250e+00
     vertex  1.852070e+02  4.886576e+00  6.224116e-15
     vertex  1.847944e+02  5.088266e+00  6.230413e-15
   endloop
 endfacet
 facet normal  5.118850e-01  8.590540e-01  1.922503e-15
   outer loop
     vertex  1.852070e+02  4.886576e+00  2.381250e+00
     vertex  1.856015e+02  4.651506e+00  6.216776e-15
     vertex  1.852070e+02  4.886576e+00  6.224116e-15
   endloop
 endfacet
 facet normal  5.118850e-01  8.590540e-01  1.929010e-15
   outer loop
     vertex  1.852070e+02  4.886576e+00  2.381250e+00
     vertex  1.856015e+02  4.651506e+00  2.381250e+00
     vertex  1.856015e+02  4.651506e+00  6.216776e-15
   endloop
 endfacet
 facet normal  3.635080e-01  9.315911e-01  2.084836e-15
   outer loop
     vertex  1.847944e+02  5.088266e+00  2.381250e+00
     vertex  1.847944e+02  5.088266e+00  6.230413e-15
     vertex  1.843666e+02  5.255197e+00  6.235626e-15
   endloop
 endfacet
 facet normal  4.391966e-01  8.983910e-01  2.010536e-15
   outer loop
     vertex  1.847944e+02  5.088266e+00  2.381250e+00
     vertex  1.852070e+02  4.886576e+00  2.381250e+00
     vertex  1.847944e+02  5.088266e+00  6.230413e-15
   endloop
 endfacet
 facet normal  3.635080e-01  9.315911e-01  2.084836e-15
   outer loop
     vertex  1.843666e+02  5.255197e+00  2.381250e+00
     vertex  1.847944e+02  5.088266e+00  2.381250e+00
     vertex  1.843666e+02  5.255197e+00  6.235626e-15
   endloop
 endfacet
 facet normal  2.052153e-01  9.787168e-01  2.190300e-15
   outer loop
     vertex  1.839265e+02  5.386230e+00  2.381250e+00
     vertex  1.839265e+02  5.386230e+00  6.239717e-15
     vertex  1.834770e+02  5.480470e+00  6.242660e-15
   endloop
 endfacet
 facet normal  2.853362e-01  9.584275e-01  2.144893e-15
   outer loop
     vertex  1.839265e+02  5.386230e+00  2.381250e+00
     vertex  1.843666e+02  5.255197e+00  6.235626e-15
     vertex  1.839265e+02  5.386230e+00  6.239717e-15
   endloop
 endfacet
 facet normal  2.853362e-01  9.584275e-01  2.144755e-15
   outer loop
     vertex  1.839265e+02  5.386230e+00  2.381250e+00
     vertex  1.843666e+02  5.255197e+00  2.381250e+00
     vertex  1.843666e+02  5.255197e+00  6.235626e-15
   endloop
 endfacet
 facet normal  2.052153e-01  9.787168e-01  2.190300e-15
   outer loop
     vertex  1.834770e+02  5.480470e+00  2.381250e+00
     vertex  1.839265e+02  5.386230e+00  2.381250e+00
     vertex  1.834770e+02  5.480470e+00  6.242660e-15
   endloop
 endfacet
 facet normal  4.132497e-02  9.991458e-01  2.236018e-15
   outer loop
     vertex  1.830213e+02  5.537273e+00  2.381250e+00
     vertex  1.830213e+02  5.537273e+00  6.244434e-15
     vertex  1.825625e+02  5.556250e+00  5.801653e-15
   endloop
 endfacet
 facet normal  1.236926e-01  9.923206e-01  2.220744e-15
   outer loop
     vertex  1.830213e+02  5.537273e+00  2.381250e+00
     vertex  1.834770e+02  5.480470e+00  6.242660e-15
     vertex  1.830213e+02  5.537273e+00  6.244434e-15
   endloop
 endfacet
 facet normal  1.236926e-01  9.923206e-01  2.220900e-15
   outer loop
     vertex  1.830213e+02  5.537273e+00  2.381250e+00
     vertex  1.834770e+02  5.480470e+00  2.381250e+00
     vertex  1.834770e+02  5.480470e+00  6.242660e-15
   endloop
 endfacet
 facet normal  4.132497e-02  9.991458e-01  1.863348e-15
   outer loop
     vertex  1.825625e+02  5.556250e+00  2.381250e+00
     vertex  1.830213e+02  5.537273e+00  2.381250e+00
     vertex  1.825625e+02  5.556250e+00  5.801653e-15
   endloop
 endfacet
endsolid
