solid 
 facet normal -9.991458e-01 -4.132497e-02 -1.490679e-15
   outer loop
     vertex -5.556250e+00  1.825625e+02  2.381250e+00
     vertex -5.556250e+00  1.825625e+02  1.344389e-15
     vertex -5.537273e+00  1.821037e+02  1.671573e-15
   endloop
 endfacet
 facet normal -9.991458e-01 -4.132497e-02 -1.490679e-15
   outer loop
     vertex -5.537273e+00  1.821037e+02  2.381250e+00
     vertex -5.556250e+00  1.825625e+02  2.381250e+00
     vertex -5.537273e+00  1.821037e+02  1.671573e-15
   endloop
 endfacet
 facet normal -9.923206e-01 -1.236926e-01 -1.480496e-15
   outer loop
     vertex -5.480470e+00  1.816480e+02  2.381250e+00
     vertex -5.537273e+00  1.821037e+02  1.671573e-15
     vertex -5.480470e+00  1.816480e+02  1.669997e-15
   endloop
 endfacet
 facet normal -9.923206e-01 -1.236926e-01 -1.481657e-15
   outer loop
     vertex -5.480470e+00  1.816480e+02  2.381250e+00
     vertex -5.537273e+00  1.821037e+02  2.381250e+00
     vertex -5.537273e+00  1.821037e+02  1.671573e-15
   endloop
 endfacet
 facet normal -9.787168e-01 -2.052153e-01 -1.460200e-15
   outer loop
     vertex -5.386230e+00  1.811985e+02  2.381250e+00
     vertex -5.480470e+00  1.816480e+02  1.669997e-15
     vertex -5.386230e+00  1.811985e+02  1.667381e-15
   endloop
 endfacet
 facet normal -9.787168e-01 -2.052153e-01 -1.459448e-15
   outer loop
     vertex -5.386230e+00  1.811985e+02  2.381250e+00
     vertex -5.480470e+00  1.816480e+02  2.381250e+00
     vertex -5.480470e+00  1.816480e+02  1.669997e-15
   endloop
 endfacet
 facet normal -9.584275e-01 -2.853362e-01 -1.429929e-15
   outer loop
     vertex -5.255197e+00  1.807584e+02  2.381250e+00
     vertex -5.386230e+00  1.811985e+02  1.667381e-15
     vertex -5.255197e+00  1.807584e+02  1.663744e-15
   endloop
 endfacet
 facet normal -9.584275e-01 -2.853362e-01 -1.434067e-15
   outer loop
     vertex -5.255197e+00  1.807584e+02  2.381250e+00
     vertex -5.386230e+00  1.811985e+02  2.381250e+00
     vertex -5.386230e+00  1.811985e+02  1.667381e-15
   endloop
 endfacet
 facet normal -9.315911e-01 -3.635080e-01 -1.395994e-15
   outer loop
     vertex -5.088266e+00  1.803306e+02  2.381250e+00
     vertex -5.255197e+00  1.807584e+02  2.381250e+00
     vertex -5.255197e+00  1.807584e+02  1.663744e-15
   endloop
 endfacet
 facet normal -9.315911e-01 -3.635080e-01 -1.389890e-15
   outer loop
     vertex -5.088266e+00  1.803306e+02  2.381250e+00
     vertex -5.255197e+00  1.807584e+02  1.663744e-15
     vertex -5.088266e+00  1.803306e+02  1.659111e-15
   endloop
 endfacet
 facet normal -8.983910e-01 -4.391966e-01 -1.345231e-15
   outer loop
     vertex -4.886576e+00  1.799180e+02  2.381250e+00
     vertex -5.088266e+00  1.803306e+02  2.381250e+00
     vertex -5.088266e+00  1.803306e+02  1.659111e-15
   endloop
 endfacet
 facet normal -8.983910e-01 -4.391966e-01 -1.340357e-15
   outer loop
     vertex -4.886576e+00  1.799180e+02  2.381250e+00
     vertex -5.088266e+00  1.803306e+02  1.659111e-15
     vertex -4.886576e+00  1.799180e+02  1.653513e-15
   endloop
 endfacet
 facet normal -8.590540e-01 -5.118850e-01 -1.281776e-15
   outer loop
     vertex -4.651506e+00  1.795235e+02  2.381250e+00
     vertex -4.886576e+00  1.799180e+02  2.381250e+00
     vertex -4.886576e+00  1.799180e+02  1.653513e-15
   endloop
 endfacet
 facet normal -8.590540e-01 -5.118850e-01 -1.281668e-15
   outer loop
     vertex -4.651506e+00  1.795235e+02  2.381250e+00
     vertex -4.886576e+00  1.799180e+02  1.653513e-15
     vertex -4.651506e+00  1.795235e+02  1.646988e-15
   endloop
 endfacet
 facet normal -8.138487e-01 -5.810768e-01 -1.218322e-15
   outer loop
     vertex -4.384662e+00  1.791498e+02  2.381250e+00
     vertex -4.651506e+00  1.795235e+02  2.381250e+00
     vertex -4.651506e+00  1.795235e+02  1.646988e-15
   endloop
 endfacet
 facet normal -8.138487e-01 -5.810768e-01 -1.214224e-15
   outer loop
     vertex -4.384662e+00  1.791498e+02  2.381250e+00
     vertex -4.651506e+00  1.795235e+02  1.646988e-15
     vertex -4.384662e+00  1.791498e+02  1.639582e-15
   endloop
 endfacet
 facet normal -7.630841e-01 -6.462992e-01 -1.142177e-15
   outer loop
     vertex -4.087866e+00  1.787994e+02  2.381250e+00
     vertex -4.384662e+00  1.791498e+02  2.381250e+00
     vertex -4.384662e+00  1.791498e+02  1.639582e-15
   endloop
 endfacet
 facet normal -7.630841e-01 -6.462992e-01 -1.138486e-15
   outer loop
     vertex -4.087866e+00  1.787994e+02  2.381250e+00
     vertex -4.384662e+00  1.791498e+02  1.639582e-15
     vertex -4.087866e+00  1.787994e+02  1.631344e-15
   endloop
 endfacet
 facet normal -7.071068e-01 -7.071068e-01 -1.053341e-15
   outer loop
     vertex -3.763146e+00  1.784746e+02  2.381250e+00
     vertex -4.087866e+00  1.787994e+02  2.381250e+00
     vertex -4.087866e+00  1.787994e+02  1.631344e-15
   endloop
 endfacet
 facet normal -7.071068e-01 -7.071068e-01 -1.054970e-15
   outer loop
     vertex -3.763146e+00  1.784746e+02  2.381250e+00
     vertex -4.087866e+00  1.787994e+02  1.631344e-15
     vertex -3.763146e+00  1.784746e+02  1.622331e-15
   endloop
 endfacet
 facet normal -6.462992e-01 -7.630841e-01 -9.645050e-16
   outer loop
     vertex -3.412719e+00  1.781778e+02  2.381250e+00
     vertex -3.763146e+00  1.784746e+02  2.381250e+00
     vertex -3.763146e+00  1.784746e+02  1.622331e-15
   endloop
 endfacet
 facet normal -5.810768e-01 -8.138487e-01 -8.669394e-16
   outer loop
     vertex -3.412719e+00  1.781778e+02  2.381250e+00
     vertex -3.412719e+00  1.781778e+02  1.612605e-15
     vertex -3.038981e+00  1.779110e+02  1.602232e-15
   endloop
 endfacet
 facet normal -6.462992e-01 -7.630841e-01 -9.642482e-16
   outer loop
     vertex -3.412719e+00  1.781778e+02  2.381250e+00
     vertex -3.763146e+00  1.784746e+02  1.622331e-15
     vertex -3.412719e+00  1.781778e+02  1.612605e-15
   endloop
 endfacet
 facet normal -5.810768e-01 -8.138487e-01 -8.669394e-16
   outer loop
     vertex -3.038981e+00  1.779110e+02  2.381250e+00
     vertex -3.412719e+00  1.781778e+02  2.381250e+00
     vertex -3.038981e+00  1.779110e+02  1.602232e-15
   endloop
 endfacet
 facet normal -5.118850e-01 -8.590540e-01 -7.614513e-16
   outer loop
     vertex -2.644483e+00  1.776759e+02  2.381250e+00
     vertex -3.038981e+00  1.779110e+02  2.381250e+00
     vertex -3.038981e+00  1.779110e+02  1.602232e-15
   endloop
 endfacet
 facet normal -5.118850e-01 -8.590540e-01 -7.637086e-16
   outer loop
     vertex -2.644483e+00  1.776759e+02  2.381250e+00
     vertex -3.038981e+00  1.779110e+02  1.602232e-15
     vertex -2.644483e+00  1.776759e+02  1.591282e-15
   endloop
 endfacet
 facet normal -4.391966e-01 -8.983910e-01 -6.552608e-16
   outer loop
     vertex -2.231920e+00  1.774742e+02  2.381250e+00
     vertex -2.644483e+00  1.776759e+02  1.591282e-15
     vertex -2.231920e+00  1.774742e+02  1.579831e-15
   endloop
 endfacet
 facet normal -4.391966e-01 -8.983910e-01 -6.599245e-16
   outer loop
     vertex -2.231920e+00  1.774742e+02  2.381250e+00
     vertex -2.644483e+00  1.776759e+02  2.381250e+00
     vertex -2.644483e+00  1.776759e+02  1.591282e-15
   endloop
 endfacet
 facet normal -3.635080e-01 -9.315911e-01 -5.084408e-16
   outer loop
     vertex -1.804111e+00  1.773073e+02  2.381250e+00
     vertex -2.231920e+00  1.774742e+02  1.579831e-15
     vertex -1.804111e+00  1.773073e+02  1.567957e-15
   endloop
 endfacet
 facet normal -3.635080e-01 -9.315911e-01 -5.457068e-16
   outer loop
     vertex -1.804111e+00  1.773073e+02  2.381250e+00
     vertex -2.231920e+00  1.774742e+02  2.381250e+00
     vertex -2.231920e+00  1.774742e+02  1.579831e-15
   endloop
 endfacet
 facet normal -2.853362e-01 -9.584275e-01 -4.257083e-16
   outer loop
     vertex -1.363979e+00  1.771763e+02  2.381250e+00
     vertex -1.804111e+00  1.773073e+02  1.567957e-15
     vertex -1.363979e+00  1.771763e+02  1.555741e-15
   endloop
 endfacet
 facet normal -2.853362e-01 -9.584275e-01 -3.997619e-16
   outer loop
     vertex -1.363979e+00  1.771763e+02  2.381250e+00
     vertex -1.804111e+00  1.773073e+02  2.381250e+00
     vertex -1.804111e+00  1.773073e+02  1.567957e-15
   endloop
 endfacet
 facet normal -2.052153e-01 -9.787168e-01 -2.966038e-16
   outer loop
     vertex -9.145287e-01  1.770820e+02  2.381250e+00
     vertex -1.363979e+00  1.771763e+02  1.555741e-15
     vertex -9.145287e-01  1.770820e+02  1.543266e-15
   endloop
 endfacet
 facet normal -2.052153e-01 -9.787168e-01 -3.045805e-16
   outer loop
     vertex -9.145287e-01  1.770820e+02  2.381250e+00
     vertex -1.363979e+00  1.771763e+02  2.381250e+00
     vertex -1.363979e+00  1.771763e+02  1.555741e-15
   endloop
 endfacet
 facet normal -1.236926e-01 -9.923206e-01 -1.816601e-16
   outer loop
     vertex -4.588315e-01  1.770252e+02  2.381250e+00
     vertex -9.145287e-01  1.770820e+02  1.543266e-15
     vertex -4.588315e-01  1.770252e+02  1.530618e-15
   endloop
 endfacet
 facet normal -1.236926e-01 -9.923206e-01 -1.808447e-16
   outer loop
     vertex -4.588315e-01  1.770252e+02  2.381250e+00
     vertex -9.145287e-01  1.770820e+02  2.381250e+00
     vertex -9.145287e-01  1.770820e+02  1.543266e-15
   endloop
 endfacet
 facet normal -4.132497e-02 -9.991458e-01 -6.020989e-17
   outer loop
     vertex  3.918458e-14  1.770062e+02  2.381250e+00
     vertex -4.588315e-01  1.770252e+02  1.530618e-15
     vertex  4.265403e-14  1.770062e+02  1.517883e-15
   endloop
 endfacet
 facet normal -4.132497e-02 -9.991458e-01 -6.028156e-17
   outer loop
     vertex  3.918458e-14  1.770062e+02  2.381250e+00
     vertex -4.588315e-01  1.770252e+02  2.381250e+00
     vertex -4.588315e-01  1.770252e+02  1.530618e-15
   endloop
 endfacet
 facet normal  1.236926e-01 -9.923206e-01  1.816601e-16
   outer loop
     vertex  4.588315e-01  1.770252e+02  2.381250e+00
     vertex  4.588315e-01  1.770252e+02  1.505148e-15
     vertex  9.145287e-01  1.770820e+02  1.492500e-15
   endloop
 endfacet
 facet normal  4.132497e-02 -9.991458e-01  6.069157e-17
   outer loop
     vertex  4.588315e-01  1.770252e+02  2.381250e+00
     vertex  4.265403e-14  1.770062e+02  1.517883e-15
     vertex  4.588315e-01  1.770252e+02  1.505148e-15
   endloop
 endfacet
 facet normal  4.132497e-02 -9.991458e-01  6.028156e-17
   outer loop
     vertex  4.588315e-01  1.770252e+02  2.381250e+00
     vertex  3.918458e-14  1.770062e+02  2.381250e+00
     vertex  4.265403e-14  1.770062e+02  1.517883e-15
   endloop
 endfacet
 facet normal  2.052153e-01 -9.787168e-01  2.966038e-16
   outer loop
     vertex  9.145287e-01  1.770820e+02  2.381250e+00
     vertex  9.145287e-01  1.770820e+02  1.492500e-15
     vertex  1.363979e+00  1.771763e+02  1.480025e-15
   endloop
 endfacet
 facet normal  1.236926e-01 -9.923206e-01  1.787766e-16
   outer loop
     vertex  9.145287e-01  1.770820e+02  2.381250e+00
     vertex  4.588315e-01  1.770252e+02  2.381250e+00
     vertex  9.145287e-01  1.770820e+02  1.492500e-15
   endloop
 endfacet
 facet normal  2.052153e-01 -9.787168e-01  2.870360e-16
   outer loop
     vertex  1.363979e+00  1.771763e+02  2.381250e+00
     vertex  9.145287e-01  1.770820e+02  2.381250e+00
     vertex  1.363979e+00  1.771763e+02  1.480025e-15
   endloop
 endfacet
 facet normal  2.853362e-01 -9.584275e-01  4.257083e-16
   outer loop
     vertex  1.804111e+00  1.773073e+02  2.381250e+00
     vertex  1.363979e+00  1.771763e+02  1.480025e-15
     vertex  1.804111e+00  1.773073e+02  1.467809e-15
   endloop
 endfacet
 facet normal  2.853362e-01 -9.584275e-01  3.997619e-16
   outer loop
     vertex  1.804111e+00  1.773073e+02  2.381250e+00
     vertex  1.363979e+00  1.771763e+02  2.381250e+00
     vertex  1.363979e+00  1.771763e+02  1.480025e-15
   endloop
 endfacet
 facet normal  3.635080e-01 -9.315911e-01  5.423369e-16
   outer loop
     vertex  2.231920e+00  1.774742e+02  2.381250e+00
     vertex  1.804111e+00  1.773073e+02  1.467809e-15
     vertex  2.231920e+00  1.774742e+02  1.455935e-15
   endloop
 endfacet
 facet normal  3.635080e-01 -9.315911e-01  5.457068e-16
   outer loop
     vertex  2.231920e+00  1.774742e+02  2.381250e+00
     vertex  1.804111e+00  1.773073e+02  2.381250e+00
     vertex  1.804111e+00  1.773073e+02  1.467809e-15
   endloop
 endfacet
 facet normal  5.118850e-01 -8.590540e-01  7.637086e-16
   outer loop
     vertex  2.644483e+00  1.776759e+02  2.381250e+00
     vertex  2.644483e+00  1.776759e+02  1.444484e-15
     vertex  3.038981e+00  1.779110e+02  1.433534e-15
   endloop
 endfacet
 facet normal  4.391966e-01 -8.983910e-01  6.552608e-16
   outer loop
     vertex  2.644483e+00  1.776759e+02  2.381250e+00
     vertex  2.231920e+00  1.774742e+02  1.455935e-15
     vertex  2.644483e+00  1.776759e+02  1.444484e-15
   endloop
 endfacet
 facet normal  4.391966e-01 -8.983910e-01  6.599245e-16
   outer loop
     vertex  2.644483e+00  1.776759e+02  2.381250e+00
     vertex  2.231920e+00  1.774742e+02  2.381250e+00
     vertex  2.231920e+00  1.774742e+02  1.455935e-15
   endloop
 endfacet
 facet normal  5.118850e-01 -8.590540e-01  7.637086e-16
   outer loop
     vertex  3.038981e+00  1.779110e+02  2.381250e+00
     vertex  2.644483e+00  1.776759e+02  2.381250e+00
     vertex  3.038981e+00  1.779110e+02  1.433534e-15
   endloop
 endfacet
 facet normal  5.810768e-01 -8.138487e-01  8.669394e-16
   outer loop
     vertex  3.412719e+00  1.781778e+02  2.381250e+00
     vertex  3.038981e+00  1.779110e+02  1.433534e-15
     vertex  3.412719e+00  1.781778e+02  1.423161e-15
   endloop
 endfacet
 facet normal  5.810768e-01 -8.138487e-01  8.629781e-16
   outer loop
     vertex  3.412719e+00  1.781778e+02  2.381250e+00
     vertex  3.038981e+00  1.779110e+02  2.381250e+00
     vertex  3.038981e+00  1.779110e+02  1.433534e-15
   endloop
 endfacet
 facet normal  6.462992e-01 -7.630841e-01  9.642482e-16
   outer loop
     vertex  3.763146e+00  1.784746e+02  2.381250e+00
     vertex  3.412719e+00  1.781778e+02  1.423161e-15
     vertex  3.763146e+00  1.784746e+02  1.413435e-15
   endloop
 endfacet
 facet normal  6.462992e-01 -7.630841e-01  9.645050e-16
   outer loop
     vertex  3.763146e+00  1.784746e+02  2.381250e+00
     vertex  3.412719e+00  1.781778e+02  2.381250e+00
     vertex  3.412719e+00  1.781778e+02  1.423161e-15
   endloop
 endfacet
 facet normal  7.071068e-01 -7.071068e-01  1.054970e-15
   outer loop
     vertex  4.087866e+00  1.787994e+02  2.381250e+00
     vertex  3.763146e+00  1.784746e+02  1.413435e-15
     vertex  4.087866e+00  1.787994e+02  1.404422e-15
   endloop
 endfacet
 facet normal  7.071068e-01 -7.071068e-01  1.053341e-15
   outer loop
     vertex  4.087866e+00  1.787994e+02  2.381250e+00
     vertex  3.763146e+00  1.784746e+02  2.381250e+00
     vertex  3.763146e+00  1.784746e+02  1.413435e-15
   endloop
 endfacet
 facet normal  7.630841e-01 -6.462992e-01  1.142177e-15
   outer loop
     vertex  4.384662e+00  1.791498e+02  2.381250e+00
     vertex  4.087866e+00  1.787994e+02  2.381250e+00
     vertex  4.087866e+00  1.787994e+02  1.404422e-15
   endloop
 endfacet
 facet normal  7.630841e-01 -6.462992e-01  1.138486e-15
   outer loop
     vertex  4.384662e+00  1.791498e+02  2.381250e+00
     vertex  4.087866e+00  1.787994e+02  1.404422e-15
     vertex  4.384662e+00  1.791498e+02  1.396184e-15
   endloop
 endfacet
 facet normal  8.138487e-01 -5.810768e-01  1.218322e-15
   outer loop
     vertex  4.651506e+00  1.795235e+02  2.381250e+00
     vertex  4.384662e+00  1.791498e+02  2.381250e+00
     vertex  4.384662e+00  1.791498e+02  1.396184e-15
   endloop
 endfacet
 facet normal  8.138487e-01 -5.810768e-01  1.214224e-15
   outer loop
     vertex  4.651506e+00  1.795235e+02  2.381250e+00
     vertex  4.384662e+00  1.791498e+02  1.396184e-15
     vertex  4.651506e+00  1.795235e+02  1.388778e-15
   endloop
 endfacet
 facet normal  8.590540e-01 -5.118850e-01  1.281668e-15
   outer loop
     vertex  4.886576e+00  1.799180e+02  2.381250e+00
     vertex  4.651506e+00  1.795235e+02  1.388778e-15
     vertex  4.886576e+00  1.799180e+02  1.382253e-15
   endloop
 endfacet
 facet normal  8.590540e-01 -5.118850e-01  1.269086e-15
   outer loop
     vertex  4.886576e+00  1.799180e+02  2.381250e+00
     vertex  4.651506e+00  1.795235e+02  2.381250e+00
     vertex  4.651506e+00  1.795235e+02  1.388778e-15
   endloop
 endfacet
 facet normal  9.315911e-01 -3.635080e-01  1.389890e-15
   outer loop
     vertex  5.088266e+00  1.803306e+02  2.381250e+00
     vertex  5.088266e+00  1.803306e+02  1.376655e-15
     vertex  5.255197e+00  1.807584e+02  1.372022e-15
   endloop
 endfacet
 facet normal  8.983910e-01 -4.391966e-01  1.340357e-15
   outer loop
     vertex  5.088266e+00  1.803306e+02  2.381250e+00
     vertex  4.886576e+00  1.799180e+02  1.382253e-15
     vertex  5.088266e+00  1.803306e+02  1.376655e-15
   endloop
 endfacet
 facet normal  8.983910e-01 -4.391966e-01  1.345231e-15
   outer loop
     vertex  5.088266e+00  1.803306e+02  2.381250e+00
     vertex  4.886576e+00  1.799180e+02  2.381250e+00
     vertex  4.886576e+00  1.799180e+02  1.382253e-15
   endloop
 endfacet
 facet normal  9.584275e-01 -2.853362e-01  1.429929e-15
   outer loop
     vertex  5.255197e+00  1.807584e+02  2.381250e+00
     vertex  5.255197e+00  1.807584e+02  1.372022e-15
     vertex  5.386230e+00  1.811985e+02  1.368385e-15
   endloop
 endfacet
 facet normal  9.315911e-01 -3.635080e-01  1.389890e-15
   outer loop
     vertex  5.255197e+00  1.807584e+02  2.381250e+00
     vertex  5.088266e+00  1.803306e+02  2.381250e+00
     vertex  5.255197e+00  1.807584e+02  1.372022e-15
   endloop
 endfacet
 facet normal  9.584275e-01 -2.853362e-01  1.429929e-15
   outer loop
     vertex  5.386230e+00  1.811985e+02  2.381250e+00
     vertex  5.255197e+00  1.807584e+02  2.381250e+00
     vertex  5.386230e+00  1.811985e+02  1.368385e-15
   endloop
 endfacet
 facet normal  9.787168e-01 -2.052153e-01  1.460200e-15
   outer loop
     vertex  5.480470e+00  1.816480e+02  2.381250e+00
     vertex  5.386230e+00  1.811985e+02  1.368385e-15
     vertex  5.480470e+00  1.816480e+02  1.365769e-15
   endloop
 endfacet
 facet normal  9.787168e-01 -2.052153e-01  1.459448e-15
   outer loop
     vertex  5.480470e+00  1.816480e+02  2.381250e+00
     vertex  5.386230e+00  1.811985e+02  2.381250e+00
     vertex  5.386230e+00  1.811985e+02  1.368385e-15
   endloop
 endfacet
 facet normal  9.991458e-01 -4.132497e-02  1.490679e-15
   outer loop
     vertex  5.537273e+00  1.821037e+02  2.381250e+00
     vertex  5.537273e+00  1.821037e+02  1.364193e-15
     vertex  5.556250e+00  1.825625e+02  1.363666e-15
   endloop
 endfacet
 facet normal  9.923206e-01 -1.236926e-01  1.480496e-15
   outer loop
     vertex  5.537273e+00  1.821037e+02  2.381250e+00
     vertex  5.480470e+00  1.816480e+02  1.365769e-15
     vertex  5.537273e+00  1.821037e+02  1.364193e-15
   endloop
 endfacet
 facet normal  9.923206e-01 -1.236926e-01  1.481657e-15
   outer loop
     vertex  5.537273e+00  1.821037e+02  2.381250e+00
     vertex  5.480470e+00  1.816480e+02  2.381250e+00
     vertex  5.480470e+00  1.816480e+02  1.365769e-15
   endloop
 endfacet
 facet normal  9.991458e-01 -4.132497e-02  1.490679e-15
   outer loop
     vertex  5.556250e+00  1.825625e+02  2.381250e+00
     vertex  5.537273e+00  1.821037e+02  2.381250e+00
     vertex  5.556250e+00  1.825625e+02  1.363666e-15
   endloop
 endfacet
endsolid
