solid 
 facet normal -9.989931e-01 -4.486483e-02 -8.947350e-16
   outer loop
     vertex  4.743328e+00 -1.821356e+02  2.381250e+00
     vertex  4.762500e+00 -1.825625e+02 -3.571240e+00
     vertex  4.762500e+00 -1.825625e+02  2.381250e+00
   endloop
 endfacet
 facet normal -9.989931e-01 -4.486483e-02 -8.943660e-16
   outer loop
     vertex  4.743328e+00 -1.821356e+02  2.381250e+00
     vertex  4.743328e+00 -1.821356e+02 -3.571240e+00
     vertex  4.762500e+00 -1.825625e+02 -3.571240e+00
   endloop
 endfacet
 facet normal -9.909498e-01 -1.342333e-01 -8.871651e-16
   outer loop
     vertex  4.685965e+00 -1.817121e+02  2.381250e+00
     vertex  4.685965e+00 -1.817121e+02 -3.571240e+00
     vertex  4.743328e+00 -1.821356e+02 -3.571240e+00
   endloop
 endfacet
 facet normal -9.909498e-01 -1.342333e-01 -8.879153e-16
   outer loop
     vertex  4.685965e+00 -1.817121e+02  2.381250e+00
     vertex  4.743328e+00 -1.821356e+02 -3.571240e+00
     vertex  4.743328e+00 -1.821356e+02  2.381250e+00
   endloop
 endfacet
 facet normal -9.749279e-01 -2.225209e-01 -1.018291e-15
   outer loop
     vertex  4.590873e+00 -1.812955e+02  2.381250e+00
     vertex  4.590873e+00 -1.812955e+02 -3.571240e+00
     vertex  4.685965e+00 -1.817121e+02 -3.571240e+00
   endloop
 endfacet
 facet normal -9.510565e-01 -3.090170e-01 -9.933583e-16
   outer loop
     vertex  4.590873e+00 -1.812955e+02  2.381250e+00
     vertex  4.458819e+00 -1.808891e+02 -3.571240e+00
     vertex  4.590873e+00 -1.812955e+02 -3.571240e+00
   endloop
 endfacet
 facet normal -9.749279e-01 -2.225209e-01 -8.729121e-16
   outer loop
     vertex  4.590873e+00 -1.812955e+02  2.381250e+00
     vertex  4.685965e+00 -1.817121e+02 -3.571240e+00
     vertex  4.685965e+00 -1.817121e+02  2.381250e+00
   endloop
 endfacet
 facet normal -9.510565e-01 -3.090170e-01 -8.514499e-16
   outer loop
     vertex  4.458819e+00 -1.808891e+02  2.381250e+00
     vertex  4.458819e+00 -1.808891e+02 -3.571240e+00
     vertex  4.590873e+00 -1.812955e+02  2.381250e+00
   endloop
 endfacet
 facet normal -9.195278e-01 -3.930250e-01 -8.232233e-16
   outer loop
     vertex  4.290864e+00 -1.804961e+02  2.381250e+00
     vertex  4.290864e+00 -1.804961e+02 -3.571240e+00
     vertex  4.458819e+00 -1.808891e+02 -3.571240e+00
   endloop
 endfacet
 facet normal -9.195278e-01 -3.930250e-01 -8.238108e-16
   outer loop
     vertex  4.290864e+00 -1.804961e+02  2.381250e+00
     vertex  4.458819e+00 -1.808891e+02 -3.571240e+00
     vertex  4.458819e+00 -1.808891e+02  2.381250e+00
   endloop
 endfacet
 facet normal -8.805955e-01 -4.738687e-01  1.474240e-15
   outer loop
     vertex  4.088362e+00 -1.801198e+02  2.381250e+00
     vertex  4.088362e+00 -1.801198e+02 -3.571240e+00
     vertex  4.290864e+00 -1.804961e+02 -3.571240e+00
   endloop
 endfacet
 facet normal -8.805955e-01 -4.738687e-01 -7.910766e-16
   outer loop
     vertex  4.088362e+00 -1.801198e+02  2.381250e+00
     vertex  4.290864e+00 -1.804961e+02 -3.571240e+00
     vertex  4.290864e+00 -1.804961e+02  2.381250e+00
   endloop
 endfacet
 facet normal -8.345733e-01 -5.508970e-01  1.882217e-15
   outer loop
     vertex  3.852943e+00 -1.797632e+02  2.381250e+00
     vertex  4.088362e+00 -1.801198e+02 -3.571240e+00
     vertex  4.088362e+00 -1.801198e+02  2.381250e+00
   endloop
 endfacet
 facet normal -8.345733e-01 -5.508970e-01 -8.716940e-16
   outer loop
     vertex  3.852943e+00 -1.797632e+02  2.381250e+00
     vertex  3.852943e+00 -1.797632e+02 -3.571240e+00
     vertex  4.088362e+00 -1.801198e+02 -3.571240e+00
   endloop
 endfacet
 facet normal -7.818315e-01 -6.234898e-01 -8.128994e-16
   outer loop
     vertex  3.586503e+00 -1.794291e+02  2.381250e+00
     vertex  3.852943e+00 -1.797632e+02 -3.571240e+00
     vertex  3.852943e+00 -1.797632e+02  2.381250e+00
   endloop
 endfacet
 facet normal -7.818315e-01 -6.234898e-01 -8.749353e-16
   outer loop
     vertex  3.586503e+00 -1.794291e+02  2.381250e+00
     vertex  3.586503e+00 -1.794291e+02 -3.571240e+00
     vertex  3.852943e+00 -1.797632e+02 -3.571240e+00
   endloop
 endfacet
 facet normal -7.227949e-01 -6.910626e-01 -8.074437e-16
   outer loop
     vertex  3.291186e+00 -1.791202e+02  2.381250e+00
     vertex  3.586503e+00 -1.794291e+02 -3.571240e+00
     vertex  3.586503e+00 -1.794291e+02  2.381250e+00
   endloop
 endfacet
 facet normal -7.227949e-01 -6.910626e-01 -7.010193e-16
   outer loop
     vertex  3.291186e+00 -1.791202e+02  2.381250e+00
     vertex  3.291186e+00 -1.791202e+02 -3.571240e+00
     vertex  3.586503e+00 -1.794291e+02 -3.571240e+00
   endloop
 endfacet
 facet normal -6.579387e-01 -7.530715e-01 -6.383170e-16
   outer loop
     vertex  2.969370e+00 -1.788390e+02  2.381250e+00
     vertex  3.291186e+00 -1.791202e+02 -3.571240e+00
     vertex  3.291186e+00 -1.791202e+02  2.381250e+00
   endloop
 endfacet
 facet normal -6.579387e-01 -7.530715e-01 -6.872030e-16
   outer loop
     vertex  2.969370e+00 -1.788390e+02  2.381250e+00
     vertex  2.969370e+00 -1.788390e+02 -3.571240e+00
     vertex  3.291186e+00 -1.791202e+02 -3.571240e+00
   endloop
 endfacet
 facet normal -5.877853e-01 -8.090170e-01 -6.110385e-16
   outer loop
     vertex  2.623647e+00 -1.785878e+02  2.381250e+00
     vertex  2.969370e+00 -1.788390e+02 -3.571240e+00
     vertex  2.969370e+00 -1.788390e+02  2.381250e+00
   endloop
 endfacet
 facet normal -5.877853e-01 -8.090170e-01 -6.139292e-16
   outer loop
     vertex  2.623647e+00 -1.785878e+02  2.381250e+00
     vertex  2.623647e+00 -1.785878e+02 -3.571240e+00
     vertex  2.969370e+00 -1.788390e+02 -3.571240e+00
   endloop
 endfacet
 facet normal -5.128993e-01 -8.584488e-01 -5.357124e-16
   outer loop
     vertex  2.623647e+00 -1.785878e+02  2.381250e+00
     vertex  2.256800e+00 -1.783687e+02 -3.571240e+00
     vertex  2.623647e+00 -1.785878e+02 -3.571240e+00
   endloop
 endfacet
 facet normal -5.128993e-01 -8.584488e-01 -5.357124e-16
   outer loop
     vertex  2.256800e+00 -1.783687e+02  2.381250e+00
     vertex  2.256800e+00 -1.783687e+02 -3.571240e+00
     vertex  2.623647e+00 -1.785878e+02  2.381250e+00
   endloop
 endfacet
 facet normal -4.338837e-01 -9.009689e-01 -4.528232e-16
   outer loop
     vertex  1.871782e+00 -1.781832e+02  2.381250e+00
     vertex  2.256800e+00 -1.783687e+02 -3.571240e+00
     vertex  2.256800e+00 -1.783687e+02  2.381250e+00
   endloop
 endfacet
 facet normal -4.338837e-01 -9.009689e-01 -4.531823e-16
   outer loop
     vertex  1.871782e+00 -1.781832e+02  2.381250e+00
     vertex  1.871782e+00 -1.781832e+02 -3.571240e+00
     vertex  2.256800e+00 -1.783687e+02 -3.571240e+00
   endloop
 endfacet
 facet normal -3.513748e-01 -9.362349e-01 -3.682598e-16
   outer loop
     vertex  1.471693e+00 -1.780331e+02  2.381250e+00
     vertex  1.871782e+00 -1.781832e+02 -3.571240e+00
     vertex  1.871782e+00 -1.781832e+02  2.381250e+00
   endloop
 endfacet
 facet normal -3.513748e-01 -9.362349e-01 -3.670035e-16
   outer loop
     vertex  1.471693e+00 -1.780331e+02  2.381250e+00
     vertex  1.471693e+00 -1.780331e+02 -3.571240e+00
     vertex  1.871782e+00 -1.781832e+02 -3.571240e+00
   endloop
 endfacet
 facet normal -2.660368e-01 -9.639629e-01 -2.782407e-16
   outer loop
     vertex  1.059756e+00 -1.779194e+02  2.381250e+00
     vertex  1.471693e+00 -1.780331e+02 -3.571240e+00
     vertex  1.471693e+00 -1.780331e+02  2.381250e+00
   endloop
 endfacet
 facet normal -2.660368e-01 -9.639629e-01 -2.877937e-16
   outer loop
     vertex  1.059756e+00 -1.779194e+02  2.381250e+00
     vertex  1.059756e+00 -1.779194e+02 -3.571240e+00
     vertex  1.471693e+00 -1.780331e+02 -3.571240e+00
   endloop
 endfacet
 facet normal -1.785569e-01 -9.839296e-01 -1.936774e-16
   outer loop
     vertex  6.392859e-01 -1.778431e+02  2.381250e+00
     vertex  1.059756e+00 -1.779194e+02 -3.571240e+00
     vertex  1.059756e+00 -1.779194e+02  2.381250e+00
   endloop
 endfacet
 facet normal -1.785569e-01 -9.839296e-01 -1.898292e-16
   outer loop
     vertex  6.392859e-01 -1.778431e+02  2.381250e+00
     vertex  6.392859e-01 -1.778431e+02 -3.571240e+00
     vertex  1.059756e+00 -1.779194e+02 -3.571240e+00
   endloop
 endfacet
 facet normal -8.963931e-02 -9.959743e-01 -9.411084e-17
   outer loop
     vertex  2.136688e-01 -1.778048e+02  2.381250e+00
     vertex  6.392859e-01 -1.778431e+02 -3.571240e+00
     vertex  6.392859e-01 -1.778431e+02  2.381250e+00
   endloop
 endfacet
 facet normal -8.963931e-02 -9.959743e-01 -9.613420e-17
   outer loop
     vertex  2.136688e-01 -1.778048e+02  2.381250e+00
     vertex  2.136688e-01 -1.778048e+02 -3.571240e+00
     vertex  6.392859e-01 -1.778431e+02 -3.571240e+00
   endloop
 endfacet
 facet normal  0.000000e+00 -1.000000e+00 -0.000000e+00
   outer loop
     vertex  2.136688e-01 -1.778048e+02  2.381250e+00
     vertex -2.136688e-01 -1.778048e+02 -3.571240e+00
     vertex  2.136688e-01 -1.778048e+02 -3.571240e+00
   endloop
 endfacet
 facet normal  0.000000e+00 -1.000000e+00  0.000000e+00
   outer loop
     vertex -2.136688e-01 -1.778048e+02  2.381250e+00
     vertex -2.136688e-01 -1.778048e+02 -3.571240e+00
     vertex  2.136688e-01 -1.778048e+02  2.381250e+00
   endloop
 endfacet
 facet normal  8.963931e-02 -9.959743e-01  9.547477e-17
   outer loop
     vertex -6.392859e-01 -1.778431e+02  2.381250e+00
     vertex -2.136688e-01 -1.778048e+02 -3.571240e+00
     vertex -2.136688e-01 -1.778048e+02  2.381250e+00
   endloop
 endfacet
 facet normal  8.963931e-02 -9.959743e-01  9.529825e-17
   outer loop
     vertex -6.392859e-01 -1.778431e+02  2.381250e+00
     vertex -6.392859e-01 -1.778431e+02 -3.571240e+00
     vertex -2.136688e-01 -1.778048e+02 -3.571240e+00
   endloop
 endfacet
 facet normal  1.785569e-01 -9.839296e-01  1.898292e-16
   outer loop
     vertex -6.392859e-01 -1.778431e+02  2.381250e+00
     vertex -1.059756e+00 -1.779194e+02 -3.571240e+00
     vertex -6.392859e-01 -1.778431e+02 -3.571240e+00
   endloop
 endfacet
 facet normal  1.785569e-01 -9.839296e-01  1.864989e-16
   outer loop
     vertex -1.059756e+00 -1.779194e+02  2.381250e+00
     vertex -1.059756e+00 -1.779194e+02 -3.571240e+00
     vertex -6.392859e-01 -1.778431e+02  2.381250e+00
   endloop
 endfacet
 facet normal  2.660368e-01 -9.639629e-01  2.778698e-16
   outer loop
     vertex -1.059756e+00 -1.779194e+02  2.381250e+00
     vertex -1.471693e+00 -1.780331e+02 -3.571240e+00
     vertex -1.059756e+00 -1.779194e+02 -3.571240e+00
   endloop
 endfacet
 facet normal  2.660368e-01 -9.639629e-01  2.778698e-16
   outer loop
     vertex -1.471693e+00 -1.780331e+02  2.381250e+00
     vertex -1.471693e+00 -1.780331e+02 -3.571240e+00
     vertex -1.059756e+00 -1.779194e+02  2.381250e+00
   endloop
 endfacet
 facet normal  3.513748e-01 -9.362349e-01  3.670035e-16
   outer loop
     vertex -1.871782e+00 -1.781832e+02  2.381250e+00
     vertex -1.871782e+00 -1.781832e+02 -3.571240e+00
     vertex -1.471693e+00 -1.780331e+02 -3.571240e+00
   endloop
 endfacet
 facet normal  3.513748e-01 -9.362349e-01  3.682598e-16
   outer loop
     vertex -1.871782e+00 -1.781832e+02  2.381250e+00
     vertex -1.471693e+00 -1.780331e+02 -3.571240e+00
     vertex -1.471693e+00 -1.780331e+02  2.381250e+00
   endloop
 endfacet
 facet normal  4.338837e-01 -9.009689e-01  4.855525e-16
   outer loop
     vertex -2.256800e+00 -1.783687e+02  2.381250e+00
     vertex -2.256800e+00 -1.783687e+02 -3.571240e+00
     vertex -1.871782e+00 -1.781832e+02 -3.571240e+00
   endloop
 endfacet
 facet normal  4.338837e-01 -9.009689e-01  4.528232e-16
   outer loop
     vertex -2.256800e+00 -1.783687e+02  2.381250e+00
     vertex -1.871782e+00 -1.781832e+02 -3.571240e+00
     vertex -1.871782e+00 -1.781832e+02  2.381250e+00
   endloop
 endfacet
 facet normal  5.128993e-01 -8.584488e-01  5.357124e-16
   outer loop
     vertex -2.623647e+00 -1.785878e+02  2.381250e+00
     vertex -2.623647e+00 -1.785878e+02 -3.571240e+00
     vertex -2.256800e+00 -1.783687e+02 -3.571240e+00
   endloop
 endfacet
 facet normal  5.877853e-01 -8.090170e-01  6.139292e-16
   outer loop
     vertex -2.623647e+00 -1.785878e+02  2.381250e+00
     vertex -2.969370e+00 -1.788390e+02 -3.571240e+00
     vertex -2.623647e+00 -1.785878e+02 -3.571240e+00
   endloop
 endfacet
 facet normal  5.128993e-01 -8.584488e-01  5.728486e-16
   outer loop
     vertex -2.623647e+00 -1.785878e+02  2.381250e+00
     vertex -2.256800e+00 -1.783687e+02 -3.571240e+00
     vertex -2.256800e+00 -1.783687e+02  2.381250e+00
   endloop
 endfacet
 facet normal  5.877853e-01 -8.090170e-01  6.139292e-16
   outer loop
     vertex -2.969370e+00 -1.788390e+02  2.381250e+00
     vertex -2.969370e+00 -1.788390e+02 -3.571240e+00
     vertex -2.623647e+00 -1.785878e+02  2.381250e+00
   endloop
 endfacet
 facet normal  6.579387e-01 -7.530715e-01  6.381170e-16
   outer loop
     vertex -3.291186e+00 -1.791202e+02  2.381250e+00
     vertex -3.291186e+00 -1.791202e+02 -3.571240e+00
     vertex -2.969370e+00 -1.788390e+02 -3.571240e+00
   endloop
 endfacet
 facet normal  6.579387e-01 -7.530715e-01  6.874183e-16
   outer loop
     vertex -3.291186e+00 -1.791202e+02  2.381250e+00
     vertex -2.969370e+00 -1.788390e+02 -3.571240e+00
     vertex -2.969370e+00 -1.788390e+02  2.381250e+00
   endloop
 endfacet
 facet normal  7.227949e-01 -6.910626e-01  7.549438e-16
   outer loop
     vertex -3.586503e+00 -1.794291e+02  2.381250e+00
     vertex -3.586503e+00 -1.794291e+02 -3.571240e+00
     vertex -3.291186e+00 -1.791202e+02 -3.571240e+00
   endloop
 endfacet
 facet normal  7.227949e-01 -6.910626e-01  7.037854e-16
   outer loop
     vertex -3.586503e+00 -1.794291e+02  2.381250e+00
     vertex -3.291186e+00 -1.791202e+02 -3.571240e+00
     vertex -3.291186e+00 -1.791202e+02  2.381250e+00
   endloop
 endfacet
 facet normal  7.818315e-01 -6.234898e-01  7.582773e-16
   outer loop
     vertex -3.852943e+00 -1.797632e+02  2.381250e+00
     vertex -3.852943e+00 -1.797632e+02 -3.571240e+00
     vertex -3.586503e+00 -1.794291e+02 -3.571240e+00
   endloop
 endfacet
 facet normal  7.818315e-01 -6.234898e-01  8.128994e-16
   outer loop
     vertex -3.852943e+00 -1.797632e+02  2.381250e+00
     vertex -3.586503e+00 -1.794291e+02 -3.571240e+00
     vertex -3.586503e+00 -1.794291e+02  2.381250e+00
   endloop
 endfacet
 facet normal  8.345733e-01 -5.508970e-01 -1.758707e-15
   outer loop
     vertex -4.088362e+00 -1.801198e+02  2.381250e+00
     vertex -4.088362e+00 -1.801198e+02 -3.571240e+00
     vertex -3.852943e+00 -1.797632e+02 -3.571240e+00
   endloop
 endfacet
 facet normal  8.345733e-01 -5.508970e-01  8.074437e-16
   outer loop
     vertex -4.088362e+00 -1.801198e+02  2.381250e+00
     vertex -3.852943e+00 -1.797632e+02 -3.571240e+00
     vertex -3.852943e+00 -1.797632e+02  2.381250e+00
   endloop
 endfacet
 facet normal  8.805955e-01 -4.738687e-01  7.883685e-16
   outer loop
     vertex -4.290864e+00 -1.804961e+02  2.381250e+00
     vertex -4.290864e+00 -1.804961e+02 -3.571240e+00
     vertex -4.088362e+00 -1.801198e+02 -3.571240e+00
   endloop
 endfacet
 facet normal  8.805955e-01 -4.738687e-01 -1.342102e-15
   outer loop
     vertex -4.290864e+00 -1.804961e+02  2.381250e+00
     vertex -4.088362e+00 -1.801198e+02 -3.571240e+00
     vertex -4.088362e+00 -1.801198e+02  2.381250e+00
   endloop
 endfacet
 facet normal  9.195278e-01 -3.930250e-01  9.604272e-16
   outer loop
     vertex -4.458819e+00 -1.808891e+02  2.381250e+00
     vertex -4.458819e+00 -1.808891e+02 -3.571240e+00
     vertex -4.290864e+00 -1.804961e+02 -3.571240e+00
   endloop
 endfacet
 facet normal  9.195278e-01 -3.930250e-01  8.238108e-16
   outer loop
     vertex -4.458819e+00 -1.808891e+02  2.381250e+00
     vertex -4.290864e+00 -1.804961e+02 -3.571240e+00
     vertex -4.290864e+00 -1.804961e+02  2.381250e+00
   endloop
 endfacet
 facet normal  9.510565e-01 -3.090170e-01  9.929376e-16
   outer loop
     vertex -4.590873e+00 -1.812955e+02  2.381250e+00
     vertex -4.458819e+00 -1.808891e+02 -3.571240e+00
     vertex -4.458819e+00 -1.808891e+02  2.381250e+00
   endloop
 endfacet
 facet normal  9.510565e-01 -3.090170e-01  8.514499e-16
   outer loop
     vertex -4.590873e+00 -1.812955e+02  2.381250e+00
     vertex -4.590873e+00 -1.812955e+02 -3.571240e+00
     vertex -4.458819e+00 -1.808891e+02 -3.571240e+00
   endloop
 endfacet
 facet normal  9.749279e-01 -2.225209e-01  8.729121e-16
   outer loop
     vertex -4.685965e+00 -1.817121e+02  2.381250e+00
     vertex -4.590873e+00 -1.812955e+02 -3.571240e+00
     vertex -4.590873e+00 -1.812955e+02  2.381250e+00
   endloop
 endfacet
 facet normal  9.749279e-01 -2.225209e-01  8.728212e-16
   outer loop
     vertex -4.685965e+00 -1.817121e+02  2.381250e+00
     vertex -4.685965e+00 -1.817121e+02 -3.571240e+00
     vertex -4.590873e+00 -1.812955e+02 -3.571240e+00
   endloop
 endfacet
 facet normal  9.909498e-01 -1.342333e-01  8.879153e-16
   outer loop
     vertex -4.743328e+00 -1.821356e+02  2.381250e+00
     vertex -4.685965e+00 -1.817121e+02 -3.571240e+00
     vertex -4.685965e+00 -1.817121e+02  2.381250e+00
   endloop
 endfacet
 facet normal  9.909498e-01 -1.342333e-01  1.035026e-15
   outer loop
     vertex -4.743328e+00 -1.821356e+02  2.381250e+00
     vertex -4.743328e+00 -1.821356e+02 -3.571240e+00
     vertex -4.685965e+00 -1.817121e+02 -3.571240e+00
   endloop
 endfacet
 facet normal  9.989931e-01 -4.486483e-02  1.043427e-15
   outer loop
     vertex -4.743328e+00 -1.821356e+02  2.381250e+00
     vertex -4.762500e+00 -1.825625e+02 -3.571240e+00
     vertex -4.743328e+00 -1.821356e+02 -3.571240e+00
   endloop
 endfacet
 facet normal  9.989931e-01 -4.486483e-02  8.943660e-16
   outer loop
     vertex -4.762500e+00 -1.825625e+02  2.381250e+00
     vertex -4.762500e+00 -1.825625e+02 -3.571240e+00
     vertex -4.743328e+00 -1.821356e+02  2.381250e+00
   endloop
 endfacet
endsolid
