solid 
 facet normal  9.485611e-01 -3.165942e-01  0.000000e+00
   outer loop
     vertex  1.453191e+02 -1.237183e+02  8.066829e-15
     vertex  1.451336e+02 -1.242741e+02  7.155734e-15
     vertex  1.451336e+02 -1.242741e+02 -3.571240e+00
   endloop
 endfacet
 facet normal  9.485611e-01 -3.165942e-01  0.000000e+00
   outer loop
     vertex  1.453191e+02 -1.237183e+02  8.066829e-15
     vertex  1.451336e+02 -1.242741e+02 -3.571240e+00
     vertex  1.453191e+02 -1.237183e+02 -3.571240e+00
   endloop
 endfacet
 facet normal  9.824005e-01 -1.867866e-01  0.000000e+00
   outer loop
     vertex  1.454669e+02 -1.231512e+02  8.056354e-15
     vertex  1.454669e+02 -1.231512e+02 -3.571240e+00
     vertex  1.455764e+02 -1.225756e+02 -3.571240e+00
   endloop
 endfacet
 facet normal  9.676599e-01 -2.522585e-01  0.000000e+00
   outer loop
     vertex  1.454669e+02 -1.231512e+02  8.056354e-15
     vertex  1.453191e+02 -1.237183e+02 -3.571240e+00
     vertex  1.454669e+02 -1.231512e+02 -3.571240e+00
   endloop
 endfacet
 facet normal  9.676599e-01 -2.522585e-01  0.000000e+00
   outer loop
     vertex  1.454669e+02 -1.231512e+02  8.056354e-15
     vertex  1.453191e+02 -1.237183e+02  8.066829e-15
     vertex  1.453191e+02 -1.237183e+02 -3.571240e+00
   endloop
 endfacet
 facet normal  9.927165e-01 -1.204735e-01  0.000000e+00
   outer loop
     vertex  1.455764e+02 -1.225756e+02  8.046706e-15
     vertex  1.455764e+02 -1.225756e+02 -3.571240e+00
     vertex  1.456470e+02 -1.219939e+02 -3.571240e+00
   endloop
 endfacet
 facet normal  9.824005e-01 -1.867866e-01  0.000000e+00
   outer loop
     vertex  1.455764e+02 -1.225756e+02  8.046706e-15
     vertex  1.454669e+02 -1.231512e+02  8.056354e-15
     vertex  1.455764e+02 -1.225756e+02 -3.571240e+00
   endloop
 endfacet
 facet normal  9.927165e-01 -1.204735e-01  0.000000e+00
   outer loop
     vertex  1.456470e+02 -1.219939e+02  8.037928e-15
     vertex  1.455764e+02 -1.225756e+02  8.046706e-15
     vertex  1.456470e+02 -1.219939e+02 -3.571240e+00
   endloop
 endfacet
 facet normal  9.999091e-01  1.347943e-02  0.000000e+00
   outer loop
     vertex  1.456784e+02 -1.214088e+02  8.030060e-15
     vertex  1.456784e+02 -1.214088e+02 -3.571240e+00
     vertex  1.456705e+02 -1.208229e+02 -3.571240e+00
   endloop
 endfacet
 facet normal  9.985615e-01 -5.361777e-02  0.000000e+00
   outer loop
     vertex  1.456784e+02 -1.214088e+02  8.030060e-15
     vertex  1.456470e+02 -1.219939e+02 -3.571240e+00
     vertex  1.456784e+02 -1.214088e+02 -3.571240e+00
   endloop
 endfacet
 facet normal  9.985615e-01 -5.361777e-02  0.000000e+00
   outer loop
     vertex  1.456784e+02 -1.214088e+02  8.030060e-15
     vertex  1.456470e+02 -1.219939e+02  8.037928e-15
     vertex  1.456470e+02 -1.219939e+02 -3.571240e+00
   endloop
 endfacet
 facet normal  9.967533e-01  8.051592e-02  0.000000e+00
   outer loop
     vertex  1.456705e+02 -1.208229e+02  8.023137e-15
     vertex  1.456705e+02 -1.208229e+02 -3.571240e+00
     vertex  1.456233e+02 -1.202388e+02 -3.571240e+00
   endloop
 endfacet
 facet normal  9.999091e-01  1.347943e-02  0.000000e+00
   outer loop
     vertex  1.456705e+02 -1.208229e+02  8.023137e-15
     vertex  1.456784e+02 -1.214088e+02  8.030060e-15
     vertex  1.456705e+02 -1.208229e+02 -3.571240e+00
   endloop
 endfacet
 facet normal  9.967533e-01  8.051592e-02  0.000000e+00
   outer loop
     vertex  1.456233e+02 -1.202388e+02  8.017191e-15
     vertex  1.456705e+02 -1.208229e+02  8.023137e-15
     vertex  1.456233e+02 -1.202388e+02 -3.571240e+00
   endloop
 endfacet
 facet normal  9.891083e-01  1.471898e-01  0.000000e+00
   outer loop
     vertex  1.456233e+02 -1.202388e+02  8.017191e-15
     vertex  1.456233e+02 -1.202388e+02 -3.571240e+00
     vertex  1.455371e+02 -1.196592e+02 -3.571240e+00
   endloop
 endfacet
 facet normal  9.891083e-01  1.471898e-01  0.000000e+00
   outer loop
     vertex  1.455371e+02 -1.196592e+02  8.012247e-15
     vertex  1.456233e+02 -1.202388e+02  8.017191e-15
     vertex  1.455371e+02 -1.196592e+02 -3.571240e+00
   endloop
 endfacet
 facet normal  9.770084e-01  2.132007e-01  0.000000e+00
   outer loop
     vertex  1.455371e+02 -1.196592e+02  8.012247e-15
     vertex  1.455371e+02 -1.196592e+02 -3.571240e+00
     vertex  1.454121e+02 -1.190868e+02 -3.571240e+00
   endloop
 endfacet
 facet normal  9.770084e-01  2.132007e-01  0.000000e+00
   outer loop
     vertex  1.454121e+02 -1.190868e+02  8.008330e-15
     vertex  1.455371e+02 -1.196592e+02  8.012247e-15
     vertex  1.454121e+02 -1.190868e+02 -3.571240e+00
   endloop
 endfacet
 facet normal  9.605083e-01  2.782514e-01  0.000000e+00
   outer loop
     vertex  1.452491e+02 -1.185239e+02  8.005455e-15
     vertex  1.454121e+02 -1.190868e+02  8.008330e-15
     vertex  1.454121e+02 -1.190868e+02 -3.571240e+00
   endloop
 endfacet
 facet normal  9.605083e-01  2.782514e-01  0.000000e+00
   outer loop
     vertex  1.452491e+02 -1.185239e+02  8.005455e-15
     vertex  1.454121e+02 -1.190868e+02 -3.571240e+00
     vertex  1.452491e+02 -1.185239e+02 -3.571240e+00
   endloop
 endfacet
 facet normal  9.396821e-01  3.420489e-01  0.000000e+00
   outer loop
     vertex  1.450487e+02 -1.179733e+02  8.003636e-15
     vertex  1.452491e+02 -1.185239e+02  8.005455e-15
     vertex  1.452491e+02 -1.185239e+02 -3.571240e+00
   endloop
 endfacet
 facet normal  9.396821e-01  3.420489e-01  0.000000e+00
   outer loop
     vertex  1.450487e+02 -1.179733e+02  8.003636e-15
     vertex  1.452491e+02 -1.185239e+02 -3.571240e+00
     vertex  1.450487e+02 -1.179733e+02 -3.571240e+00
   endloop
 endfacet
 facet normal  9.146238e-01  4.043059e-01  0.000000e+00
   outer loop
     vertex  1.448118e+02 -1.174374e+02  8.002882e-15
     vertex  1.450487e+02 -1.179733e+02  8.003636e-15
     vertex  1.450487e+02 -1.179733e+02 -3.571240e+00
   endloop
 endfacet
 facet normal  9.146238e-01  4.043059e-01  0.000000e+00
   outer loop
     vertex  1.448118e+02 -1.174374e+02  8.002882e-15
     vertex  1.450487e+02 -1.179733e+02 -3.571240e+00
     vertex  1.448118e+02 -1.174374e+02 -3.571240e+00
   endloop
 endfacet
 facet normal  8.854462e-01  4.647420e-01  0.000000e+00
   outer loop
     vertex  1.445394e+02 -1.169185e+02  8.003195e-15
     vertex  1.448118e+02 -1.174374e+02  8.002882e-15
     vertex  1.448118e+02 -1.174374e+02 -3.571240e+00
   endloop
 endfacet
 facet normal  8.854462e-01  4.647420e-01  0.000000e+00
   outer loop
     vertex  1.445394e+02 -1.169185e+02  8.003195e-15
     vertex  1.448118e+02 -1.174374e+02 -3.571240e+00
     vertex  1.445394e+02 -1.169185e+02 -3.571240e+00
   endloop
 endfacet
 facet normal  8.522806e-01  5.230849e-01  0.000000e+00
   outer loop
     vertex  1.442329e+02 -1.164191e+02  8.004575e-15
     vertex  1.445394e+02 -1.169185e+02  8.003195e-15
     vertex  1.445394e+02 -1.169185e+02 -3.571240e+00
   endloop
 endfacet
 facet normal  8.522806e-01  5.230849e-01  0.000000e+00
   outer loop
     vertex  1.442329e+02 -1.164191e+02  8.004575e-15
     vertex  1.445394e+02 -1.169185e+02 -3.571240e+00
     vertex  1.442329e+02 -1.164191e+02 -3.571240e+00
   endloop
 endfacet
 facet normal  8.152765e-01  5.790719e-01  0.000000e+00
   outer loop
     vertex  1.438936e+02 -1.159414e+02  8.007015e-15
     vertex  1.442329e+02 -1.164191e+02  8.004575e-15
     vertex  1.442329e+02 -1.164191e+02 -3.571240e+00
   endloop
 endfacet
 facet normal  8.152765e-01  5.790719e-01  0.000000e+00
   outer loop
     vertex  1.438936e+02 -1.159414e+02  8.007015e-15
     vertex  1.442329e+02 -1.164191e+02 -3.571240e+00
     vertex  1.438936e+02 -1.159414e+02 -3.571240e+00
   endloop
 endfacet
 facet normal  7.746005e-01  6.324509e-01  0.000000e+00
   outer loop
     vertex  1.435230e+02 -1.154875e+02  8.010503e-15
     vertex  1.438936e+02 -1.159414e+02  8.007015e-15
     vertex  1.438936e+02 -1.159414e+02 -3.571240e+00
   endloop
 endfacet
 facet normal  7.746005e-01  6.324509e-01  0.000000e+00
   outer loop
     vertex  1.435230e+02 -1.154875e+02  8.010503e-15
     vertex  1.438936e+02 -1.159414e+02 -3.571240e+00
     vertex  1.435230e+02 -1.154875e+02 -3.571240e+00
   endloop
 endfacet
 facet normal  7.304358e-01  6.829814e-01  0.000000e+00
   outer loop
     vertex  1.431228e+02 -1.150595e+02  8.015025e-15
     vertex  1.435230e+02 -1.154875e+02  8.010503e-15
     vertex  1.435230e+02 -1.154875e+02 -3.571240e+00
   endloop
 endfacet
 facet normal  7.304358e-01  6.829814e-01  0.000000e+00
   outer loop
     vertex  1.431228e+02 -1.150595e+02  8.015025e-15
     vertex  1.435230e+02 -1.154875e+02 -3.571240e+00
     vertex  1.431228e+02 -1.150595e+02 -3.571240e+00
   endloop
 endfacet
 facet normal  6.829814e-01  7.304358e-01  0.000000e+00
   outer loop
     vertex  1.426948e+02 -1.146593e+02  8.020560e-15
     vertex  1.431228e+02 -1.150595e+02  8.015025e-15
     vertex  1.431228e+02 -1.150595e+02 -3.571240e+00
   endloop
 endfacet
 facet normal  6.829814e-01  7.304358e-01  0.000000e+00
   outer loop
     vertex  1.426948e+02 -1.146593e+02  8.020560e-15
     vertex  1.431228e+02 -1.150595e+02 -3.571240e+00
     vertex  1.426948e+02 -1.146593e+02 -3.571240e+00
   endloop
 endfacet
 facet normal  5.790719e-01  8.152765e-01  0.000000e+00
   outer loop
     vertex  1.422409e+02 -1.142887e+02  8.027083e-15
     vertex  1.422409e+02 -1.142887e+02 -3.571240e+00
     vertex  1.417632e+02 -1.139494e+02 -3.571240e+00
   endloop
 endfacet
 facet normal  6.324509e-01  7.746005e-01  0.000000e+00
   outer loop
     vertex  1.422409e+02 -1.142887e+02  8.027083e-15
     vertex  1.426948e+02 -1.146593e+02 -3.571240e+00
     vertex  1.422409e+02 -1.142887e+02 -3.571240e+00
   endloop
 endfacet
 facet normal  6.324509e-01  7.746005e-01  0.000000e+00
   outer loop
     vertex  1.422409e+02 -1.142887e+02  8.027083e-15
     vertex  1.426948e+02 -1.146593e+02  8.020560e-15
     vertex  1.426948e+02 -1.146593e+02 -3.571240e+00
   endloop
 endfacet
 facet normal  5.790719e-01  8.152765e-01  0.000000e+00
   outer loop
     vertex  1.417632e+02 -1.139494e+02  8.034565e-15
     vertex  1.422409e+02 -1.142887e+02  8.027083e-15
     vertex  1.417632e+02 -1.139494e+02 -3.571240e+00
   endloop
 endfacet
 facet normal  5.230849e-01  8.522806e-01  0.000000e+00
   outer loop
     vertex  1.412638e+02 -1.136429e+02  8.042972e-15
     vertex  1.417632e+02 -1.139494e+02 -3.571240e+00
     vertex  1.412638e+02 -1.136429e+02 -3.571240e+00
   endloop
 endfacet
 facet normal  5.230849e-01  8.522806e-01  0.000000e+00
   outer loop
     vertex  1.412638e+02 -1.136429e+02  8.042972e-15
     vertex  1.417632e+02 -1.139494e+02  8.034565e-15
     vertex  1.417632e+02 -1.139494e+02 -3.571240e+00
   endloop
 endfacet
 facet normal  4.647420e-01  8.854462e-01  0.000000e+00
   outer loop
     vertex  1.407450e+02 -1.133706e+02  8.052265e-15
     vertex  1.412638e+02 -1.136429e+02 -3.571240e+00
     vertex  1.407450e+02 -1.133706e+02 -3.571240e+00
   endloop
 endfacet
 facet normal  4.647420e-01  8.854462e-01  0.000000e+00
   outer loop
     vertex  1.407450e+02 -1.133706e+02  8.052265e-15
     vertex  1.412638e+02 -1.136429e+02  8.042972e-15
     vertex  1.412638e+02 -1.136429e+02 -3.571240e+00
   endloop
 endfacet
 facet normal  4.043059e-01  9.146238e-01  0.000000e+00
   outer loop
     vertex  1.402090e+02 -1.131337e+02  8.062404e-15
     vertex  1.407450e+02 -1.133706e+02 -3.571240e+00
     vertex  1.402090e+02 -1.131337e+02 -3.571240e+00
   endloop
 endfacet
 facet normal  4.043059e-01  9.146238e-01  0.000000e+00
   outer loop
     vertex  1.402090e+02 -1.131337e+02  8.062404e-15
     vertex  1.407450e+02 -1.133706e+02  8.052265e-15
     vertex  1.407450e+02 -1.133706e+02 -3.571240e+00
   endloop
 endfacet
 facet normal  3.420489e-01  9.396821e-01  0.000000e+00
   outer loop
     vertex  1.396584e+02 -1.129333e+02  8.073343e-15
     vertex  1.402090e+02 -1.131337e+02 -3.571240e+00
     vertex  1.396584e+02 -1.129333e+02 -3.571240e+00
   endloop
 endfacet
 facet normal  3.420489e-01  9.396821e-01  0.000000e+00
   outer loop
     vertex  1.396584e+02 -1.129333e+02  8.073343e-15
     vertex  1.402090e+02 -1.131337e+02  8.062404e-15
     vertex  1.402090e+02 -1.131337e+02 -3.571240e+00
   endloop
 endfacet
 facet normal  2.782514e-01  9.605083e-01  0.000000e+00
   outer loop
     vertex  1.390956e+02 -1.127702e+02  8.085032e-15
     vertex  1.396584e+02 -1.129333e+02 -3.571240e+00
     vertex  1.390956e+02 -1.127702e+02 -3.571240e+00
   endloop
 endfacet
 facet normal  2.782514e-01  9.605083e-01  0.000000e+00
   outer loop
     vertex  1.390956e+02 -1.127702e+02  8.085032e-15
     vertex  1.396584e+02 -1.129333e+02  8.073343e-15
     vertex  1.396584e+02 -1.129333e+02 -3.571240e+00
   endloop
 endfacet
 facet normal  1.471898e-01  9.891083e-01  0.000000e+00
   outer loop
     vertex  1.385231e+02 -1.126453e+02  8.097418e-15
     vertex  1.385231e+02 -1.126453e+02 -3.571240e+00
     vertex  1.379435e+02 -1.125590e+02 -3.571240e+00
   endloop
 endfacet
 facet normal  2.132007e-01  9.770084e-01  0.000000e+00
   outer loop
     vertex  1.385231e+02 -1.126453e+02  8.097418e-15
     vertex  1.390956e+02 -1.127702e+02 -3.571240e+00
     vertex  1.385231e+02 -1.126453e+02 -3.571240e+00
   endloop
 endfacet
 facet normal  2.132007e-01  9.770084e-01  0.000000e+00
   outer loop
     vertex  1.385231e+02 -1.126453e+02  8.097418e-15
     vertex  1.390956e+02 -1.127702e+02  8.085032e-15
     vertex  1.390956e+02 -1.127702e+02 -3.571240e+00
   endloop
 endfacet
 facet normal  8.051592e-02  9.967533e-01  0.000000e+00
   outer loop
     vertex  1.379435e+02 -1.125590e+02  8.110447e-15
     vertex  1.379435e+02 -1.125590e+02 -3.571240e+00
     vertex  1.373595e+02 -1.125119e+02 -3.571240e+00
   endloop
 endfacet
 facet normal  1.471898e-01  9.891083e-01  0.000000e+00
   outer loop
     vertex  1.379435e+02 -1.125590e+02  8.110447e-15
     vertex  1.385231e+02 -1.126453e+02  8.097418e-15
     vertex  1.379435e+02 -1.125590e+02 -3.571240e+00
   endloop
 endfacet
 facet normal  8.051592e-02  9.967533e-01  0.000000e+00
   outer loop
     vertex  1.373595e+02 -1.125119e+02  8.124058e-15
     vertex  1.379435e+02 -1.125590e+02  8.110447e-15
     vertex  1.373595e+02 -1.125119e+02 -3.571240e+00
   endloop
 endfacet
 facet normal -5.361777e-02  9.985615e-01  0.000000e+00
   outer loop
     vertex  1.367736e+02 -1.125040e+02  8.138192e-15
     vertex  1.367736e+02 -1.125040e+02 -3.571240e+00
     vertex  1.361885e+02 -1.125354e+02 -3.571240e+00
   endloop
 endfacet
 facet normal  1.347943e-02  9.999091e-01  0.000000e+00
   outer loop
     vertex  1.367736e+02 -1.125040e+02  8.138192e-15
     vertex  1.373595e+02 -1.125119e+02 -3.571240e+00
     vertex  1.367736e+02 -1.125040e+02 -3.571240e+00
   endloop
 endfacet
 facet normal  1.347943e-02  9.999091e-01  0.000000e+00
   outer loop
     vertex  1.367736e+02 -1.125040e+02  8.138192e-15
     vertex  1.373595e+02 -1.125119e+02  8.124058e-15
     vertex  1.373595e+02 -1.125119e+02 -3.571240e+00
   endloop
 endfacet
 facet normal -1.204735e-01  9.927165e-01  0.000000e+00
   outer loop
     vertex  1.361885e+02 -1.125354e+02  8.152784e-15
     vertex  1.361885e+02 -1.125354e+02 -3.571240e+00
     vertex  1.356068e+02 -1.126060e+02 -3.571240e+00
   endloop
 endfacet
 facet normal -5.361777e-02  9.985615e-01  0.000000e+00
   outer loop
     vertex  1.361885e+02 -1.125354e+02  8.152784e-15
     vertex  1.367736e+02 -1.125040e+02  8.138192e-15
     vertex  1.361885e+02 -1.125354e+02 -3.571240e+00
   endloop
 endfacet
 facet normal -1.204735e-01  9.927165e-01  0.000000e+00
   outer loop
     vertex  1.356068e+02 -1.126060e+02  8.167768e-15
     vertex  1.361885e+02 -1.125354e+02  8.152784e-15
     vertex  1.356068e+02 -1.126060e+02 -3.571240e+00
   endloop
 endfacet
 facet normal -1.867866e-01  9.824005e-01  0.000000e+00
   outer loop
     vertex  1.350311e+02 -1.127154e+02  8.183077e-15
     vertex  1.356068e+02 -1.126060e+02  8.167768e-15
     vertex  1.356068e+02 -1.126060e+02 -3.571240e+00
   endloop
 endfacet
 facet normal -1.867866e-01  9.824005e-01  0.000000e+00
   outer loop
     vertex  1.350311e+02 -1.127154e+02  8.183077e-15
     vertex  1.356068e+02 -1.126060e+02 -3.571240e+00
     vertex  1.350311e+02 -1.127154e+02 -3.571240e+00
   endloop
 endfacet
 facet normal -2.522585e-01  9.676599e-01  0.000000e+00
   outer loop
     vertex  1.344641e+02 -1.128632e+02  8.198643e-15
     vertex  1.350311e+02 -1.127154e+02  8.183077e-15
     vertex  1.350311e+02 -1.127154e+02 -3.571240e+00
   endloop
 endfacet
 facet normal -3.165942e-01  9.485611e-01  0.000000e+00
   outer loop
     vertex  1.344641e+02 -1.128632e+02  8.198643e-15
     vertex  1.344641e+02 -1.128632e+02 -3.571240e+00
     vertex  1.339083e+02 -1.130488e+02 -3.571240e+00
   endloop
 endfacet
 facet normal -2.522585e-01  9.676599e-01  0.000000e+00
   outer loop
     vertex  1.344641e+02 -1.128632e+02  8.198643e-15
     vertex  1.350311e+02 -1.127154e+02 -3.571240e+00
     vertex  1.344641e+02 -1.128632e+02 -3.571240e+00
   endloop
 endfacet
 facet normal -3.165942e-01  9.485611e-01  0.000000e+00
   outer loop
     vertex  1.339083e+02 -1.130488e+02  7.372575e-15
     vertex  1.344641e+02 -1.128632e+02  8.198643e-15
     vertex  1.339083e+02 -1.130488e+02 -3.571240e+00
   endloop
 endfacet
endsolid
