solid 
 facet normal -4.132497e-02 -9.991458e-01 -1.490679e-15
   outer loop
     vertex -1.830213e+02 -5.537273e+00 -2.336482e+02
     vertex -1.825625e+02 -5.556250e+00 -2.312670e+02
     vertex -1.830213e+02 -5.537273e+00 -2.312670e+02
   endloop
 endfacet
 facet normal -4.132497e-02 -9.991458e-01 -1.491175e-15
   outer loop
     vertex -1.830213e+02 -5.537273e+00 -2.336482e+02
     vertex -1.825625e+02 -5.556250e+00 -2.336482e+02
     vertex -1.825625e+02 -5.556250e+00 -2.312670e+02
   endloop
 endfacet
 facet normal -1.236926e-01 -9.923206e-01 -1.480496e-15
   outer loop
     vertex -1.834770e+02 -5.480470e+00 -2.336482e+02
     vertex -1.830213e+02 -5.537273e+00 -2.312670e+02
     vertex -1.834770e+02 -5.480470e+00 -2.312670e+02
   endloop
 endfacet
 facet normal -1.236926e-01 -9.923206e-01 -1.481657e-15
   outer loop
     vertex -1.834770e+02 -5.480470e+00 -2.336482e+02
     vertex -1.830213e+02 -5.537273e+00 -2.336482e+02
     vertex -1.830213e+02 -5.537273e+00 -2.312670e+02
   endloop
 endfacet
 facet normal -2.052153e-01 -9.787168e-01 -1.460200e-15
   outer loop
     vertex -1.839265e+02 -5.386230e+00 -2.336482e+02
     vertex -1.834770e+02 -5.480470e+00 -2.312670e+02
     vertex -1.839265e+02 -5.386230e+00 -2.312670e+02
   endloop
 endfacet
 facet normal -2.052153e-01 -9.787168e-01 -1.459448e-15
   outer loop
     vertex -1.839265e+02 -5.386230e+00 -2.336482e+02
     vertex -1.834770e+02 -5.480470e+00 -2.336482e+02
     vertex -1.834770e+02 -5.480470e+00 -2.312670e+02
   endloop
 endfacet
 facet normal -2.853362e-01 -9.584275e-01 -1.429929e-15
   outer loop
     vertex -1.843666e+02 -5.255197e+00 -2.336482e+02
     vertex -1.839265e+02 -5.386230e+00 -2.312670e+02
     vertex -1.843666e+02 -5.255197e+00 -2.312670e+02
   endloop
 endfacet
 facet normal -2.853362e-01 -9.584275e-01 -1.427721e-15
   outer loop
     vertex -1.843666e+02 -5.255197e+00 -2.336482e+02
     vertex -1.839265e+02 -5.386230e+00 -2.336482e+02
     vertex -1.839265e+02 -5.386230e+00 -2.312670e+02
   endloop
 endfacet
 facet normal -3.635080e-01 -9.315911e-01 -1.383303e-15
   outer loop
     vertex -1.847944e+02 -5.088266e+00 -2.336482e+02
     vertex -1.843666e+02 -5.255197e+00 -2.336482e+02
     vertex -1.843666e+02 -5.255197e+00 -2.312670e+02
   endloop
 endfacet
 facet normal -3.635080e-01 -9.315911e-01 -1.389890e-15
   outer loop
     vertex -1.847944e+02 -5.088266e+00 -2.336482e+02
     vertex -1.843666e+02 -5.255197e+00 -2.312670e+02
     vertex -1.847944e+02 -5.088266e+00 -2.312670e+02
   endloop
 endfacet
 facet normal -4.391966e-01 -8.983910e-01 -1.345231e-15
   outer loop
     vertex -1.852070e+02 -4.886576e+00 -2.336482e+02
     vertex -1.847944e+02 -5.088266e+00 -2.336482e+02
     vertex -1.847944e+02 -5.088266e+00 -2.312670e+02
   endloop
 endfacet
 facet normal -4.391966e-01 -8.983910e-01 -1.340357e-15
   outer loop
     vertex -1.852070e+02 -4.886576e+00 -2.336482e+02
     vertex -1.847944e+02 -5.088266e+00 -2.312670e+02
     vertex -1.852070e+02 -4.886576e+00 -2.312670e+02
   endloop
 endfacet
 facet normal -5.118850e-01 -8.590540e-01 -1.281776e-15
   outer loop
     vertex -1.856015e+02 -4.651506e+00 -2.336482e+02
     vertex -1.852070e+02 -4.886576e+00 -2.336482e+02
     vertex -1.852070e+02 -4.886576e+00 -2.312670e+02
   endloop
 endfacet
 facet normal -5.118850e-01 -8.590540e-01 -1.281668e-15
   outer loop
     vertex -1.856015e+02 -4.651506e+00 -2.336482e+02
     vertex -1.852070e+02 -4.886576e+00 -2.312670e+02
     vertex -1.856015e+02 -4.651506e+00 -2.312670e+02
   endloop
 endfacet
 facet normal -5.810768e-01 -8.138487e-01 -1.218322e-15
   outer loop
     vertex -1.859752e+02 -4.384662e+00 -2.336482e+02
     vertex -1.856015e+02 -4.651506e+00 -2.336482e+02
     vertex -1.856015e+02 -4.651506e+00 -2.312670e+02
   endloop
 endfacet
 facet normal -5.810768e-01 -8.138487e-01 -1.214224e-15
   outer loop
     vertex -1.859752e+02 -4.384662e+00 -2.336482e+02
     vertex -1.856015e+02 -4.651506e+00 -2.312670e+02
     vertex -1.859752e+02 -4.384662e+00 -2.312670e+02
   endloop
 endfacet
 facet normal -6.462992e-01 -7.630841e-01 -1.142177e-15
   outer loop
     vertex -1.863256e+02 -4.087866e+00 -2.336482e+02
     vertex -1.859752e+02 -4.384662e+00 -2.336482e+02
     vertex -1.859752e+02 -4.384662e+00 -2.312670e+02
   endloop
 endfacet
 facet normal -7.071068e-01 -7.071068e-01 -1.054970e-15
   outer loop
     vertex -1.863256e+02 -4.087866e+00 -2.336482e+02
     vertex -1.863256e+02 -4.087866e+00 -2.312670e+02
     vertex -1.866504e+02 -3.763146e+00 -2.312670e+02
   endloop
 endfacet
 facet normal -6.462992e-01 -7.630841e-01 -1.138486e-15
   outer loop
     vertex -1.863256e+02 -4.087866e+00 -2.336482e+02
     vertex -1.859752e+02 -4.384662e+00 -2.312670e+02
     vertex -1.863256e+02 -4.087866e+00 -2.312670e+02
   endloop
 endfacet
 facet normal -7.071068e-01 -7.071068e-01 -9.230990e-16
   outer loop
     vertex -1.866504e+02 -3.763146e+00 -2.336482e+02
     vertex -1.863256e+02 -4.087866e+00 -2.336482e+02
     vertex -1.866504e+02 -3.763146e+00 -2.312670e+02
   endloop
 endfacet
 facet normal -7.630841e-01 -6.462992e-01 -8.375964e-16
   outer loop
     vertex -1.869472e+02 -3.412719e+00 -2.336482e+02
     vertex -1.866504e+02 -3.763146e+00 -2.336482e+02
     vertex -1.866504e+02 -3.763146e+00 -2.312670e+02
   endloop
 endfacet
 facet normal -7.630841e-01 -6.462992e-01 -8.437172e-16
   outer loop
     vertex -1.869472e+02 -3.412719e+00 -2.336482e+02
     vertex -1.866504e+02 -3.763146e+00 -2.312670e+02
     vertex -1.869472e+02 -3.412719e+00 -2.312670e+02
   endloop
 endfacet
 facet normal -8.590540e-01 -5.118850e-01 -6.682450e-16
   outer loop
     vertex -1.872140e+02 -3.038981e+00 -2.336482e+02
     vertex -1.872140e+02 -3.038981e+00 -2.312670e+02
     vertex -1.874491e+02 -2.644483e+00 -2.312670e+02
   endloop
 endfacet
 facet normal -8.138487e-01 -5.810768e-01 -7.585720e-16
   outer loop
     vertex -1.872140e+02 -3.038981e+00 -2.336482e+02
     vertex -1.869472e+02 -3.412719e+00 -2.312670e+02
     vertex -1.872140e+02 -3.038981e+00 -2.312670e+02
   endloop
 endfacet
 facet normal -8.138487e-01 -5.810768e-01 -7.614513e-16
   outer loop
     vertex -1.872140e+02 -3.038981e+00 -2.336482e+02
     vertex -1.869472e+02 -3.412719e+00 -2.336482e+02
     vertex -1.869472e+02 -3.412719e+00 -2.312670e+02
   endloop
 endfacet
 facet normal -8.590540e-01 -5.118850e-01 -6.682450e-16
   outer loop
     vertex -1.874491e+02 -2.644483e+00 -2.336482e+02
     vertex -1.872140e+02 -3.038981e+00 -2.336482e+02
     vertex -1.874491e+02 -2.644483e+00 -2.312670e+02
   endloop
 endfacet
 facet normal -8.983910e-01 -4.391966e-01 -5.733532e-16
   outer loop
     vertex -1.876508e+02 -2.231920e+00 -2.336482e+02
     vertex -1.874491e+02 -2.644483e+00 -2.312670e+02
     vertex -1.876508e+02 -2.231920e+00 -2.312670e+02
   endloop
 endfacet
 facet normal -8.983910e-01 -4.391966e-01 -5.710885e-16
   outer loop
     vertex -1.876508e+02 -2.231920e+00 -2.336482e+02
     vertex -1.874491e+02 -2.644483e+00 -2.336482e+02
     vertex -1.874491e+02 -2.644483e+00 -2.312670e+02
   endloop
 endfacet
 facet normal -9.584275e-01 -2.853362e-01 -4.257083e-16
   outer loop
     vertex -1.878177e+02 -1.804111e+00 -2.336482e+02
     vertex -1.878177e+02 -1.804111e+00 -2.312670e+02
     vertex -1.879487e+02 -1.363979e+00 -2.312670e+02
   endloop
 endfacet
 facet normal -9.315911e-01 -3.635080e-01 -5.423369e-16
   outer loop
     vertex -1.878177e+02 -1.804111e+00 -2.336482e+02
     vertex -1.876508e+02 -2.231920e+00 -2.312670e+02
     vertex -1.878177e+02 -1.804111e+00 -2.312670e+02
   endloop
 endfacet
 facet normal -9.315911e-01 -3.635080e-01 -4.695616e-16
   outer loop
     vertex -1.878177e+02 -1.804111e+00 -2.336482e+02
     vertex -1.876508e+02 -2.231920e+00 -2.336482e+02
     vertex -1.876508e+02 -2.231920e+00 -2.312670e+02
   endloop
 endfacet
 facet normal -9.584275e-01 -2.853362e-01 -4.257083e-16
   outer loop
     vertex -1.879487e+02 -1.363979e+00 -2.336482e+02
     vertex -1.878177e+02 -1.804111e+00 -2.336482e+02
     vertex -1.879487e+02 -1.363979e+00 -2.312670e+02
   endloop
 endfacet
 facet normal -9.923206e-01 -1.236926e-01 -1.787766e-16
   outer loop
     vertex -1.880430e+02 -9.145287e-01 -2.336482e+02
     vertex -1.880430e+02 -9.145287e-01 -2.312670e+02
     vertex -1.880998e+02 -4.588315e-01 -2.312670e+02
   endloop
 endfacet
 facet normal -9.787168e-01 -2.052153e-01 -2.966038e-16
   outer loop
     vertex -1.880430e+02 -9.145287e-01 -2.336482e+02
     vertex -1.879487e+02 -1.363979e+00 -2.312670e+02
     vertex -1.880430e+02 -9.145287e-01 -2.312670e+02
   endloop
 endfacet
 facet normal -9.787168e-01 -2.052153e-01 -3.109259e-16
   outer loop
     vertex -1.880430e+02 -9.145287e-01 -2.336482e+02
     vertex -1.879487e+02 -1.363979e+00 -2.336482e+02
     vertex -1.879487e+02 -1.363979e+00 -2.312670e+02
   endloop
 endfacet
 facet normal -9.923206e-01 -1.236926e-01 -1.816601e-16
   outer loop
     vertex -1.880998e+02 -4.588315e-01 -2.336482e+02
     vertex -1.880430e+02 -9.145287e-01 -2.336482e+02
     vertex -1.880998e+02 -4.588315e-01 -2.312670e+02
   endloop
 endfacet
 facet normal -9.991458e-01  4.132497e-02  6.020989e-17
   outer loop
     vertex -1.881188e+02  4.785820e-14 -2.336482e+02
     vertex -1.881188e+02  4.438875e-14 -2.312670e+02
     vertex -1.880998e+02  4.588315e-01 -2.312670e+02
   endloop
 endfacet
 facet normal -9.991458e-01 -4.132497e-02 -6.020989e-17
   outer loop
     vertex -1.881188e+02  4.785820e-14 -2.336482e+02
     vertex -1.880998e+02 -4.588315e-01 -2.312670e+02
     vertex -1.881188e+02  4.438875e-14 -2.312670e+02
   endloop
 endfacet
 facet normal -9.991458e-01 -4.132497e-02 -6.186792e-17
   outer loop
     vertex -1.881188e+02  4.785820e-14 -2.336482e+02
     vertex -1.880998e+02 -4.588315e-01 -2.336482e+02
     vertex -1.880998e+02 -4.588315e-01 -2.312670e+02
   endloop
 endfacet
 facet normal -9.923206e-01  1.236926e-01  1.816601e-16
   outer loop
     vertex -1.880998e+02  4.588315e-01 -2.336482e+02
     vertex -1.880998e+02  4.588315e-01 -2.312670e+02
     vertex -1.880430e+02  9.145287e-01 -2.312670e+02
   endloop
 endfacet
 facet normal -9.991458e-01  4.132497e-02  6.069157e-17
   outer loop
     vertex -1.880998e+02  4.588315e-01 -2.336482e+02
     vertex -1.881188e+02  4.785820e-14 -2.336482e+02
     vertex -1.880998e+02  4.588315e-01 -2.312670e+02
   endloop
 endfacet
 facet normal -9.787168e-01  2.052153e-01  2.966038e-16
   outer loop
     vertex -1.880430e+02  9.145287e-01 -2.336482e+02
     vertex -1.880430e+02  9.145287e-01 -2.312670e+02
     vertex -1.879487e+02  1.363979e+00 -2.312670e+02
   endloop
 endfacet
 facet normal -9.923206e-01  1.236926e-01  1.787766e-16
   outer loop
     vertex -1.880430e+02  9.145287e-01 -2.336482e+02
     vertex -1.880998e+02  4.588315e-01 -2.336482e+02
     vertex -1.880430e+02  9.145287e-01 -2.312670e+02
   endloop
 endfacet
 facet normal -9.787168e-01  2.052153e-01  3.061717e-16
   outer loop
     vertex -1.879487e+02  1.363979e+00 -2.336482e+02
     vertex -1.880430e+02  9.145287e-01 -2.336482e+02
     vertex -1.879487e+02  1.363979e+00 -2.312670e+02
   endloop
 endfacet
 facet normal -9.584275e-01  2.853362e-01  4.257083e-16
   outer loop
     vertex -1.878177e+02  1.804111e+00 -2.336482e+02
     vertex -1.879487e+02  1.363979e+00 -2.312670e+02
     vertex -1.878177e+02  1.804111e+00 -2.312670e+02
   endloop
 endfacet
 facet normal -9.584275e-01  2.853362e-01  4.251436e-16
   outer loop
     vertex -1.878177e+02  1.804111e+00 -2.336482e+02
     vertex -1.879487e+02  1.363979e+00 -2.336482e+02
     vertex -1.879487e+02  1.363979e+00 -2.312670e+02
   endloop
 endfacet
 facet normal -9.315911e-01  3.635080e-01  4.745448e-16
   outer loop
     vertex -1.876508e+02  2.231920e+00 -2.336482e+02
     vertex -1.878177e+02  1.804111e+00 -2.312670e+02
     vertex -1.876508e+02  2.231920e+00 -2.312670e+02
   endloop
 endfacet
 facet normal -9.315911e-01  3.635080e-01  5.330159e-16
   outer loop
     vertex -1.876508e+02  2.231920e+00 -2.336482e+02
     vertex -1.878177e+02  1.804111e+00 -2.336482e+02
     vertex -1.878177e+02  1.804111e+00 -2.312670e+02
   endloop
 endfacet
 facet normal -8.983910e-01  4.391966e-01  5.733532e-16
   outer loop
     vertex -1.874491e+02  2.644483e+00 -2.336482e+02
     vertex -1.876508e+02  2.231920e+00 -2.312670e+02
     vertex -1.874491e+02  2.644483e+00 -2.312670e+02
   endloop
 endfacet
 facet normal -8.983910e-01  4.391966e-01  5.710885e-16
   outer loop
     vertex -1.874491e+02  2.644483e+00 -2.336482e+02
     vertex -1.876508e+02  2.231920e+00 -2.336482e+02
     vertex -1.876508e+02  2.231920e+00 -2.312670e+02
   endloop
 endfacet
 facet normal -8.138487e-01  5.810768e-01  7.585720e-16
   outer loop
     vertex -1.872140e+02  3.038981e+00 -2.336482e+02
     vertex -1.872140e+02  3.038981e+00 -2.312670e+02
     vertex -1.869472e+02  3.412719e+00 -2.312670e+02
   endloop
 endfacet
 facet normal -8.590540e-01  5.118850e-01  6.682450e-16
   outer loop
     vertex -1.872140e+02  3.038981e+00 -2.336482e+02
     vertex -1.874491e+02  2.644483e+00 -2.312670e+02
     vertex -1.872140e+02  3.038981e+00 -2.312670e+02
   endloop
 endfacet
 facet normal -8.590540e-01  5.118850e-01  6.726153e-16
   outer loop
     vertex -1.872140e+02  3.038981e+00 -2.336482e+02
     vertex -1.874491e+02  2.644483e+00 -2.336482e+02
     vertex -1.874491e+02  2.644483e+00 -2.312670e+02
   endloop
 endfacet
 facet normal -8.138487e-01  5.810768e-01  7.585720e-16
   outer loop
     vertex -1.869472e+02  3.412719e+00 -2.336482e+02
     vertex -1.872140e+02  3.038981e+00 -2.336482e+02
     vertex -1.869472e+02  3.412719e+00 -2.312670e+02
   endloop
 endfacet
 facet normal -7.630841e-01  6.462992e-01  8.437172e-16
   outer loop
     vertex -1.866504e+02  3.763146e+00 -2.336482e+02
     vertex -1.869472e+02  3.412719e+00 -2.312670e+02
     vertex -1.866504e+02  3.763146e+00 -2.312670e+02
   endloop
 endfacet
 facet normal -7.630841e-01  6.462992e-01  8.375964e-16
   outer loop
     vertex -1.866504e+02  3.763146e+00 -2.336482e+02
     vertex -1.869472e+02  3.412719e+00 -2.336482e+02
     vertex -1.869472e+02  3.412719e+00 -2.312670e+02
   endloop
 endfacet
 facet normal -7.071068e-01  7.071068e-01  1.054970e-15
   outer loop
     vertex -1.863256e+02  4.087866e+00 -2.336482e+02
     vertex -1.866504e+02  3.763146e+00 -2.312670e+02
     vertex -1.863256e+02  4.087866e+00 -2.312670e+02
   endloop
 endfacet
 facet normal -7.071068e-01  7.071068e-01  9.137416e-16
   outer loop
     vertex -1.863256e+02  4.087866e+00 -2.336482e+02
     vertex -1.866504e+02  3.763146e+00 -2.336482e+02
     vertex -1.866504e+02  3.763146e+00 -2.312670e+02
   endloop
 endfacet
 facet normal -6.462992e-01  7.630841e-01  1.142177e-15
   outer loop
     vertex -1.859752e+02  4.384662e+00 -2.336482e+02
     vertex -1.863256e+02  4.087866e+00 -2.336482e+02
     vertex -1.863256e+02  4.087866e+00 -2.312670e+02
   endloop
 endfacet
 facet normal -6.462992e-01  7.630841e-01  1.138486e-15
   outer loop
     vertex -1.859752e+02  4.384662e+00 -2.336482e+02
     vertex -1.863256e+02  4.087866e+00 -2.312670e+02
     vertex -1.859752e+02  4.384662e+00 -2.312670e+02
   endloop
 endfacet
 facet normal -5.810768e-01  8.138487e-01  1.218322e-15
   outer loop
     vertex -1.856015e+02  4.651506e+00 -2.336482e+02
     vertex -1.859752e+02  4.384662e+00 -2.336482e+02
     vertex -1.859752e+02  4.384662e+00 -2.312670e+02
   endloop
 endfacet
 facet normal -5.118850e-01  8.590540e-01  1.281668e-15
   outer loop
     vertex -1.856015e+02  4.651506e+00 -2.336482e+02
     vertex -1.856015e+02  4.651506e+00 -2.312670e+02
     vertex -1.852070e+02  4.886576e+00 -2.312670e+02
   endloop
 endfacet
 facet normal -5.810768e-01  8.138487e-01  1.214224e-15
   outer loop
     vertex -1.856015e+02  4.651506e+00 -2.336482e+02
     vertex -1.859752e+02  4.384662e+00 -2.312670e+02
     vertex -1.856015e+02  4.651506e+00 -2.312670e+02
   endloop
 endfacet
 facet normal -4.391966e-01  8.983910e-01  1.340357e-15
   outer loop
     vertex -1.852070e+02  4.886576e+00 -2.336482e+02
     vertex -1.852070e+02  4.886576e+00 -2.312670e+02
     vertex -1.847944e+02  5.088266e+00 -2.312670e+02
   endloop
 endfacet
 facet normal -5.118850e-01  8.590540e-01  1.281668e-15
   outer loop
     vertex -1.852070e+02  4.886576e+00 -2.336482e+02
     vertex -1.856015e+02  4.651506e+00 -2.336482e+02
     vertex -1.852070e+02  4.886576e+00 -2.312670e+02
   endloop
 endfacet
 facet normal -4.391966e-01  8.983910e-01  1.340357e-15
   outer loop
     vertex -1.847944e+02  5.088266e+00 -2.336482e+02
     vertex -1.852070e+02  4.886576e+00 -2.336482e+02
     vertex -1.847944e+02  5.088266e+00 -2.312670e+02
   endloop
 endfacet
 facet normal -2.853362e-01  9.584275e-01  1.429929e-15
   outer loop
     vertex -1.843666e+02  5.255197e+00 -2.336482e+02
     vertex -1.843666e+02  5.255197e+00 -2.312670e+02
     vertex -1.839265e+02  5.386230e+00 -2.312670e+02
   endloop
 endfacet
 facet normal -3.635080e-01  9.315911e-01  1.389890e-15
   outer loop
     vertex -1.843666e+02  5.255197e+00 -2.336482e+02
     vertex -1.847944e+02  5.088266e+00 -2.312670e+02
     vertex -1.843666e+02  5.255197e+00 -2.312670e+02
   endloop
 endfacet
 facet normal -3.635080e-01  9.315911e-01  1.395994e-15
   outer loop
     vertex -1.843666e+02  5.255197e+00 -2.336482e+02
     vertex -1.847944e+02  5.088266e+00 -2.336482e+02
     vertex -1.847944e+02  5.088266e+00 -2.312670e+02
   endloop
 endfacet
 facet normal -2.052153e-01  9.787168e-01  1.460200e-15
   outer loop
     vertex -1.839265e+02  5.386230e+00 -2.336482e+02
     vertex -1.839265e+02  5.386230e+00 -2.312670e+02
     vertex -1.834770e+02  5.480470e+00 -2.312670e+02
   endloop
 endfacet
 facet normal -2.853362e-01  9.584275e-01  1.429929e-15
   outer loop
     vertex -1.839265e+02  5.386230e+00 -2.336482e+02
     vertex -1.843666e+02  5.255197e+00 -2.336482e+02
     vertex -1.839265e+02  5.386230e+00 -2.312670e+02
   endloop
 endfacet
 facet normal -2.052153e-01  9.787168e-01  1.460200e-15
   outer loop
     vertex -1.834770e+02  5.480470e+00 -2.336482e+02
     vertex -1.839265e+02  5.386230e+00 -2.336482e+02
     vertex -1.834770e+02  5.480470e+00 -2.312670e+02
   endloop
 endfacet
 facet normal -1.236926e-01  9.923206e-01  1.480496e-15
   outer loop
     vertex -1.830213e+02  5.537273e+00 -2.336482e+02
     vertex -1.834770e+02  5.480470e+00 -2.312670e+02
     vertex -1.830213e+02  5.537273e+00 -2.312670e+02
   endloop
 endfacet
 facet normal -1.236926e-01  9.923206e-01  1.478485e-15
   outer loop
     vertex -1.830213e+02  5.537273e+00 -2.336482e+02
     vertex -1.834770e+02  5.480470e+00 -2.336482e+02
     vertex -1.834770e+02  5.480470e+00 -2.312670e+02
   endloop
 endfacet
 facet normal -4.132497e-02  9.991458e-01  1.490679e-15
   outer loop
     vertex -1.825625e+02  5.556250e+00 -2.336482e+02
     vertex -1.830213e+02  5.537273e+00 -2.312670e+02
     vertex -1.825625e+02  5.556250e+00 -2.312670e+02
   endloop
 endfacet
 facet normal -4.132497e-02  9.991458e-01  1.491175e-15
   outer loop
     vertex -1.825625e+02  5.556250e+00 -2.336482e+02
     vertex -1.830213e+02  5.537273e+00 -2.336482e+02
     vertex -1.830213e+02  5.537273e+00 -2.312670e+02
   endloop
 endfacet
endsolid
