solid 
 facet normal  9.989931e-01 -4.486483e-02  7.453851e-16
   outer loop
     vertex -4.743328e+00  1.829894e+02 -2.336482e+02
     vertex -4.762500e+00  1.825625e+02 -2.276958e+02
     vertex -4.762500e+00  1.825625e+02 -2.336482e+02
   endloop
 endfacet
 facet normal  9.989931e-01 -4.486483e-02  7.453050e-16
   outer loop
     vertex -4.743328e+00  1.829894e+02 -2.336482e+02
     vertex -4.743328e+00  1.829894e+02 -2.276958e+02
     vertex -4.762500e+00  1.825625e+02 -2.276958e+02
   endloop
 endfacet
 facet normal  9.909498e-01 -1.342333e-01  7.393042e-16
   outer loop
     vertex -4.685965e+00  1.834129e+02 -2.336482e+02
     vertex -4.685965e+00  1.834129e+02 -2.276958e+02
     vertex -4.743328e+00  1.829894e+02 -2.276958e+02
   endloop
 endfacet
 facet normal  9.749279e-01 -2.225209e-01  7.273510e-16
   outer loop
     vertex -4.685965e+00  1.834129e+02 -2.336482e+02
     vertex -4.590873e+00  1.838295e+02 -2.276958e+02
     vertex -4.685965e+00  1.834129e+02 -2.276958e+02
   endloop
 endfacet
 facet normal  9.909498e-01 -1.342333e-01  7.406114e-16
   outer loop
     vertex -4.685965e+00  1.834129e+02 -2.336482e+02
     vertex -4.743328e+00  1.829894e+02 -2.276958e+02
     vertex -4.743328e+00  1.829894e+02 -2.336482e+02
   endloop
 endfacet
 facet normal  9.749279e-01 -2.225209e-01  7.273510e-16
   outer loop
     vertex -4.590873e+00  1.838295e+02 -2.336482e+02
     vertex -4.590873e+00  1.838295e+02 -2.276958e+02
     vertex -4.685965e+00  1.834129e+02 -2.336482e+02
   endloop
 endfacet
 facet normal  9.510565e-01 -3.090170e-01  7.095416e-16
   outer loop
     vertex -4.458819e+00  1.842359e+02 -2.336482e+02
     vertex -4.458819e+00  1.842359e+02 -2.276958e+02
     vertex -4.590873e+00  1.838295e+02 -2.276958e+02
   endloop
 endfacet
 facet normal  9.510565e-01 -3.090170e-01  7.092411e-16
   outer loop
     vertex -4.458819e+00  1.842359e+02 -2.336482e+02
     vertex -4.590873e+00  1.838295e+02 -2.276958e+02
     vertex -4.590873e+00  1.838295e+02 -2.336482e+02
   endloop
 endfacet
 facet normal  9.195278e-01 -3.930250e-01 -1.190581e-15
   outer loop
     vertex -4.290864e+00  1.846289e+02 -2.336482e+02
     vertex -4.290864e+00  1.846289e+02 -2.276958e+02
     vertex -4.458819e+00  1.842359e+02 -2.276958e+02
   endloop
 endfacet
 facet normal  8.805955e-01 -4.738687e-01 -1.605635e-15
   outer loop
     vertex -4.290864e+00  1.846289e+02 -2.336482e+02
     vertex -4.088362e+00  1.850052e+02 -2.276958e+02
     vertex -4.290864e+00  1.846289e+02 -2.276958e+02
   endloop
 endfacet
 facet normal  9.195278e-01 -3.930250e-01  6.874183e-16
   outer loop
     vertex -4.290864e+00  1.846289e+02 -2.336482e+02
     vertex -4.458819e+00  1.842359e+02 -2.276958e+02
     vertex -4.458819e+00  1.842359e+02 -2.336482e+02
   endloop
 endfacet
 facet normal  8.805955e-01 -4.738687e-01  6.569738e-16
   outer loop
     vertex -4.088362e+00  1.850052e+02 -2.336482e+02
     vertex -4.088362e+00  1.850052e+02 -2.276958e+02
     vertex -4.290864e+00  1.846289e+02 -2.336482e+02
   endloop
 endfacet
 facet normal  8.345733e-01 -5.508970e-01  7.471663e-16
   outer loop
     vertex -3.852943e+00  1.853618e+02 -2.336482e+02
     vertex -3.852943e+00  1.853618e+02 -2.276958e+02
     vertex -4.088362e+00  1.850052e+02 -2.276958e+02
   endloop
 endfacet
 facet normal  7.818315e-01 -6.234898e-01  6.999483e-16
   outer loop
     vertex -3.852943e+00  1.853618e+02 -2.336482e+02
     vertex -3.586503e+00  1.856959e+02 -2.276958e+02
     vertex -3.852943e+00  1.853618e+02 -2.276958e+02
   endloop
 endfacet
 facet normal  8.345733e-01 -5.508970e-01  6.219499e-16
   outer loop
     vertex -3.852943e+00  1.853618e+02 -2.336482e+02
     vertex -4.088362e+00  1.850052e+02 -2.276958e+02
     vertex -4.088362e+00  1.850052e+02 -2.336482e+02
   endloop
 endfacet
 facet normal  7.818315e-01 -6.234898e-01  6.416193e-16
   outer loop
     vertex -3.586503e+00  1.856959e+02 -2.336482e+02
     vertex -3.586503e+00  1.856959e+02 -2.276958e+02
     vertex -3.852943e+00  1.853618e+02 -2.336482e+02
   endloop
 endfacet
 facet normal  7.227949e-01 -6.910626e-01  5.946714e-16
   outer loop
     vertex -3.291186e+00  1.860048e+02 -2.336482e+02
     vertex -3.586503e+00  1.856959e+02 -2.276958e+02
     vertex -3.586503e+00  1.856959e+02 -2.336482e+02
   endloop
 endfacet
 facet normal  7.227949e-01 -6.910626e-01  5.392456e-16
   outer loop
     vertex -3.291186e+00  1.860048e+02 -2.336482e+02
     vertex -3.291186e+00  1.860048e+02 -2.276958e+02
     vertex -3.586503e+00  1.856959e+02 -2.276958e+02
   endloop
 endfacet
 facet normal  6.579387e-01 -7.530715e-01  4.910131e-16
   outer loop
     vertex -2.969370e+00  1.862860e+02 -2.336482e+02
     vertex -3.291186e+00  1.860048e+02 -2.276958e+02
     vertex -3.291186e+00  1.860048e+02 -2.336482e+02
   endloop
 endfacet
 facet normal  6.579387e-01 -7.530715e-01  5.399452e-16
   outer loop
     vertex -2.969370e+00  1.862860e+02 -2.336482e+02
     vertex -2.969370e+00  1.862860e+02 -2.276958e+02
     vertex -3.291186e+00  1.860048e+02 -2.276958e+02
   endloop
 endfacet
 facet normal  5.877853e-01 -8.090170e-01  4.801017e-16
   outer loop
     vertex -2.623647e+00  1.865372e+02 -2.336482e+02
     vertex -2.969370e+00  1.862860e+02 -2.276958e+02
     vertex -2.969370e+00  1.862860e+02 -2.336482e+02
   endloop
 endfacet
 facet normal  5.877853e-01 -8.090170e-01  4.823729e-16
   outer loop
     vertex -2.623647e+00  1.865372e+02 -2.336482e+02
     vertex -2.623647e+00  1.865372e+02 -2.276958e+02
     vertex -2.969370e+00  1.862860e+02 -2.276958e+02
   endloop
 endfacet
 facet normal  5.128993e-01 -8.584488e-01  4.209169e-16
   outer loop
     vertex -2.623647e+00  1.865372e+02 -2.336482e+02
     vertex -2.256800e+00  1.867563e+02 -2.276958e+02
     vertex -2.623647e+00  1.865372e+02 -2.276958e+02
   endloop
 endfacet
 facet normal  5.128993e-01 -8.584488e-01  4.591820e-16
   outer loop
     vertex -2.256800e+00  1.867563e+02 -2.336482e+02
     vertex -2.256800e+00  1.867563e+02 -2.276958e+02
     vertex -2.623647e+00  1.865372e+02 -2.336482e+02
   endloop
 endfacet
 facet normal  4.338837e-01 -9.009689e-01  3.873548e-16
   outer loop
     vertex -1.871782e+00  1.869418e+02 -2.336482e+02
     vertex -2.256800e+00  1.867563e+02 -2.276958e+02
     vertex -2.256800e+00  1.867563e+02 -2.336482e+02
   endloop
 endfacet
 facet normal  4.338837e-01 -9.009689e-01  4.046271e-16
   outer loop
     vertex -1.871782e+00  1.869418e+02 -2.336482e+02
     vertex -1.871782e+00  1.869418e+02 -2.276958e+02
     vertex -2.256800e+00  1.867563e+02 -2.276958e+02
   endloop
 endfacet
 facet normal  3.513748e-01 -9.362349e-01  3.273421e-16
   outer loop
     vertex -1.471693e+00  1.870919e+02 -2.336482e+02
     vertex -1.871782e+00  1.869418e+02 -2.276958e+02
     vertex -1.871782e+00  1.869418e+02 -2.336482e+02
   endloop
 endfacet
 facet normal  3.513748e-01 -9.362349e-01  3.276817e-16
   outer loop
     vertex -1.471693e+00  1.870919e+02 -2.336482e+02
     vertex -1.471693e+00  1.870919e+02 -2.276958e+02
     vertex -1.871782e+00  1.869418e+02 -2.276958e+02
   endloop
 endfacet
 facet normal  2.660368e-01 -9.639629e-01  2.482344e-16
   outer loop
     vertex -1.059756e+00  1.872056e+02 -2.336482e+02
     vertex -1.471693e+00  1.870919e+02 -2.276958e+02
     vertex -1.471693e+00  1.870919e+02 -2.336482e+02
   endloop
 endfacet
 facet normal  2.660368e-01 -9.639629e-01  2.580220e-16
   outer loop
     vertex -1.059756e+00  1.872056e+02 -2.336482e+02
     vertex -1.059756e+00  1.872056e+02 -2.276958e+02
     vertex -1.471693e+00  1.870919e+02 -2.276958e+02
   endloop
 endfacet
 facet normal  1.785569e-01 -9.839296e-01  1.718546e-16
   outer loop
     vertex -6.392859e-01  1.872819e+02 -2.336482e+02
     vertex -1.059756e+00  1.872056e+02 -2.276958e+02
     vertex -1.059756e+00  1.872056e+02 -2.336482e+02
   endloop
 endfacet
 facet normal  1.785569e-01 -9.839296e-01  1.665168e-16
   outer loop
     vertex -6.392859e-01  1.872819e+02 -2.336482e+02
     vertex -6.392859e-01  1.872819e+02 -2.276958e+02
     vertex -1.059756e+00  1.872056e+02 -2.276958e+02
   endloop
 endfacet
 facet normal  8.963931e-02 -9.959743e-01  8.359495e-17
   outer loop
     vertex -6.392859e-01  1.872819e+02 -2.336482e+02
     vertex -2.136688e-01  1.873202e+02 -2.276958e+02
     vertex -6.392859e-01  1.872819e+02 -2.276958e+02
   endloop
 endfacet
 facet normal  8.963931e-02 -9.959743e-01  8.317698e-17
   outer loop
     vertex -2.136688e-01  1.873202e+02 -2.336482e+02
     vertex -2.136688e-01  1.873202e+02 -2.276958e+02
     vertex -6.392859e-01  1.872819e+02 -2.336482e+02
   endloop
 endfacet
 facet normal  0.000000e+00 -1.000000e+00  0.000000e+00
   outer loop
     vertex  2.136688e-01  1.873202e+02 -2.336482e+02
     vertex -2.136688e-01  1.873202e+02 -2.276958e+02
     vertex -2.136688e-01  1.873202e+02 -2.336482e+02
   endloop
 endfacet
 facet normal  0.000000e+00 -1.000000e+00  0.000000e+00
   outer loop
     vertex  2.136688e-01  1.873202e+02 -2.336482e+02
     vertex  2.136688e-01  1.873202e+02 -2.276958e+02
     vertex -2.136688e-01  1.873202e+02 -2.276958e+02
   endloop
 endfacet
 facet normal -8.963931e-02 -9.959743e-01 -8.317698e-17
   outer loop
     vertex  2.136688e-01  1.873202e+02 -2.336482e+02
     vertex  6.392859e-01  1.872819e+02 -2.276958e+02
     vertex  2.136688e-01  1.873202e+02 -2.276958e+02
   endloop
 endfacet
 facet normal -8.963931e-02 -9.959743e-01 -8.192305e-17
   outer loop
     vertex  6.392859e-01  1.872819e+02 -2.336482e+02
     vertex  6.392859e-01  1.872819e+02 -2.276958e+02
     vertex  2.136688e-01  1.873202e+02 -2.336482e+02
   endloop
 endfacet
 facet normal -1.785569e-01 -9.839296e-01 -1.631865e-16
   outer loop
     vertex  6.392859e-01  1.872819e+02 -2.336482e+02
     vertex  1.059756e+00  1.872056e+02 -2.276958e+02
     vertex  6.392859e-01  1.872819e+02 -2.276958e+02
   endloop
 endfacet
 facet normal -1.785569e-01 -9.839296e-01 -1.665168e-16
   outer loop
     vertex  1.059756e+00  1.872056e+02 -2.336482e+02
     vertex  1.059756e+00  1.872056e+02 -2.276958e+02
     vertex  6.392859e-01  1.872819e+02 -2.336482e+02
   endloop
 endfacet
 facet normal -2.660368e-01 -9.639629e-01 -2.381741e-16
   outer loop
     vertex  1.471693e+00  1.870919e+02 -2.336482e+02
     vertex  1.471693e+00  1.870919e+02 -2.276958e+02
     vertex  1.059756e+00  1.872056e+02 -2.276958e+02
   endloop
 endfacet
 facet normal -2.660368e-01 -9.639629e-01 -2.482344e-16
   outer loop
     vertex  1.471693e+00  1.870919e+02 -2.336482e+02
     vertex  1.059756e+00  1.872056e+02 -2.276958e+02
     vertex  1.059756e+00  1.872056e+02 -2.336482e+02
   endloop
 endfacet
 facet normal -3.513748e-01 -9.362349e-01 -3.276817e-16
   outer loop
     vertex  1.871782e+00  1.869418e+02 -2.336482e+02
     vertex  1.871782e+00  1.869418e+02 -2.276958e+02
     vertex  1.471693e+00  1.870919e+02 -2.276958e+02
   endloop
 endfacet
 facet normal -3.513748e-01 -9.362349e-01 -3.137028e-16
   outer loop
     vertex  1.871782e+00  1.869418e+02 -2.336482e+02
     vertex  1.471693e+00  1.870919e+02 -2.276958e+02
     vertex  1.471693e+00  1.870919e+02 -2.336482e+02
   endloop
 endfacet
 facet normal -4.338837e-01 -9.009689e-01 -4.046271e-16
   outer loop
     vertex  1.871782e+00  1.869418e+02 -2.336482e+02
     vertex  2.256800e+00  1.867563e+02 -2.276958e+02
     vertex  1.871782e+00  1.869418e+02 -2.276958e+02
   endloop
 endfacet
 facet normal -4.338837e-01 -9.009689e-01 -3.560718e-16
   outer loop
     vertex  2.256800e+00  1.867563e+02 -2.336482e+02
     vertex  2.256800e+00  1.867563e+02 -2.276958e+02
     vertex  1.871782e+00  1.869418e+02 -2.336482e+02
   endloop
 endfacet
 facet normal -5.128993e-01 -8.584488e-01 -4.591820e-16
   outer loop
     vertex  2.623647e+00  1.865372e+02 -2.336482e+02
     vertex  2.623647e+00  1.865372e+02 -2.276958e+02
     vertex  2.256800e+00  1.867563e+02 -2.276958e+02
   endloop
 endfacet
 facet normal -5.128993e-01 -8.584488e-01 -4.200890e-16
   outer loop
     vertex  2.623647e+00  1.865372e+02 -2.336482e+02
     vertex  2.256800e+00  1.867563e+02 -2.276958e+02
     vertex  2.256800e+00  1.867563e+02 -2.336482e+02
   endloop
 endfacet
 facet normal -5.877853e-01 -8.090170e-01 -5.262250e-16
   outer loop
     vertex  2.969370e+00  1.862860e+02 -2.336482e+02
     vertex  2.969370e+00  1.862860e+02 -2.276958e+02
     vertex  2.623647e+00  1.865372e+02 -2.276958e+02
   endloop
 endfacet
 facet normal -5.877853e-01 -8.090170e-01 -5.237473e-16
   outer loop
     vertex  2.969370e+00  1.862860e+02 -2.336482e+02
     vertex  2.623647e+00  1.865372e+02 -2.276958e+02
     vertex  2.623647e+00  1.865372e+02 -2.336482e+02
   endloop
 endfacet
 facet normal -6.579387e-01 -7.530715e-01 -4.908593e-16
   outer loop
     vertex  3.291186e+00  1.860048e+02 -2.336482e+02
     vertex  3.291186e+00  1.860048e+02 -2.276958e+02
     vertex  2.969370e+00  1.862860e+02 -2.276958e+02
   endloop
 endfacet
 facet normal -7.227949e-01 -6.910626e-01 -5.392456e-16
   outer loop
     vertex  3.291186e+00  1.860048e+02 -2.336482e+02
     vertex  3.586503e+00  1.856959e+02 -2.276958e+02
     vertex  3.291186e+00  1.860048e+02 -2.276958e+02
   endloop
 endfacet
 facet normal -6.579387e-01 -7.530715e-01 -5.892157e-16
   outer loop
     vertex  3.291186e+00  1.860048e+02 -2.336482e+02
     vertex  2.969370e+00  1.862860e+02 -2.276958e+02
     vertex  2.969370e+00  1.862860e+02 -2.336482e+02
   endloop
 endfacet
 facet normal -7.818315e-01 -6.234898e-01 -6.416193e-16
   outer loop
     vertex  3.586503e+00  1.856959e+02 -2.336482e+02
     vertex  3.852943e+00  1.853618e+02 -2.276958e+02
     vertex  3.586503e+00  1.856959e+02 -2.276958e+02
   endloop
 endfacet
 facet normal -7.227949e-01 -6.910626e-01 -5.931702e-16
   outer loop
     vertex  3.586503e+00  1.856959e+02 -2.336482e+02
     vertex  3.586503e+00  1.856959e+02 -2.276958e+02
     vertex  3.291186e+00  1.860048e+02 -2.336482e+02
   endloop
 endfacet
 facet normal -7.818315e-01 -6.234898e-01 -6.416193e-16
   outer loop
     vertex  3.852943e+00  1.853618e+02 -2.336482e+02
     vertex  3.852943e+00  1.853618e+02 -2.276958e+02
     vertex  3.586503e+00  1.856959e+02 -2.336482e+02
   endloop
 endfacet
 facet normal -8.345733e-01 -5.508970e-01 -7.471663e-16
   outer loop
     vertex  4.088362e+00  1.850052e+02 -2.336482e+02
     vertex  4.088362e+00  1.850052e+02 -2.276958e+02
     vertex  3.852943e+00  1.853618e+02 -2.276958e+02
   endloop
 endfacet
 facet normal -8.805955e-01 -4.738687e-01 -7.883685e-16
   outer loop
     vertex  4.088362e+00  1.850052e+02 -2.336482e+02
     vertex  4.290864e+00  1.846289e+02 -2.276958e+02
     vertex  4.088362e+00  1.850052e+02 -2.276958e+02
   endloop
 endfacet
 facet normal -8.345733e-01 -5.508970e-01 -6.874183e-16
   outer loop
     vertex  4.088362e+00  1.850052e+02 -2.336482e+02
     vertex  3.852943e+00  1.853618e+02 -2.276958e+02
     vertex  3.852943e+00  1.853618e+02 -2.336482e+02
   endloop
 endfacet
 facet normal -8.805955e-01 -4.738687e-01 -6.569738e-16
   outer loop
     vertex  4.290864e+00  1.846289e+02 -2.336482e+02
     vertex  4.290864e+00  1.846289e+02 -2.276958e+02
     vertex  4.088362e+00  1.850052e+02 -2.336482e+02
   endloop
 endfacet
 facet normal -9.195278e-01 -3.930250e-01 -6.860194e-16
   outer loop
     vertex  4.458819e+00  1.842359e+02 -2.336482e+02
     vertex  4.458819e+00  1.842359e+02 -2.276958e+02
     vertex  4.290864e+00  1.846289e+02 -2.276958e+02
   endloop
 endfacet
 facet normal -9.510565e-01 -3.090170e-01 -7.095416e-16
   outer loop
     vertex  4.458819e+00  1.842359e+02 -2.336482e+02
     vertex  4.590873e+00  1.838295e+02 -2.276958e+02
     vertex  4.458819e+00  1.842359e+02 -2.276958e+02
   endloop
 endfacet
 facet normal -9.195278e-01 -3.930250e-01 -6.874183e-16
   outer loop
     vertex  4.458819e+00  1.842359e+02 -2.336482e+02
     vertex  4.290864e+00  1.846289e+02 -2.276958e+02
     vertex  4.290864e+00  1.846289e+02 -2.336482e+02
   endloop
 endfacet
 facet normal -9.510565e-01 -3.090170e-01 -7.095416e-16
   outer loop
     vertex  4.590873e+00  1.838295e+02 -2.336482e+02
     vertex  4.590873e+00  1.838295e+02 -2.276958e+02
     vertex  4.458819e+00  1.842359e+02 -2.336482e+02
   endloop
 endfacet
 facet normal -9.749279e-01 -2.225209e-01 -7.283361e-16
   outer loop
     vertex  4.685965e+00  1.834129e+02 -2.336482e+02
     vertex  4.590873e+00  1.838295e+02 -2.276958e+02
     vertex  4.590873e+00  1.838295e+02 -2.336482e+02
   endloop
 endfacet
 facet normal -9.749279e-01 -2.225209e-01 -7.273510e-16
   outer loop
     vertex  4.685965e+00  1.834129e+02 -2.336482e+02
     vertex  4.685965e+00  1.834129e+02 -2.276958e+02
     vertex  4.590873e+00  1.838295e+02 -2.276958e+02
   endloop
 endfacet
 facet normal -9.909498e-01 -1.342333e-01 -7.393042e-16
   outer loop
     vertex  4.685965e+00  1.834129e+02 -2.336482e+02
     vertex  4.743328e+00  1.829894e+02 -2.276958e+02
     vertex  4.685965e+00  1.834129e+02 -2.276958e+02
   endloop
 endfacet
 facet normal -9.909498e-01 -1.342333e-01 -8.871651e-16
   outer loop
     vertex  4.743328e+00  1.829894e+02 -2.336482e+02
     vertex  4.743328e+00  1.829894e+02 -2.276958e+02
     vertex  4.685965e+00  1.834129e+02 -2.336482e+02
   endloop
 endfacet
 facet normal -9.989931e-01 -4.486483e-02 -8.947350e-16
   outer loop
     vertex  4.762500e+00  1.825625e+02 -2.336482e+02
     vertex  4.743328e+00  1.829894e+02 -2.276958e+02
     vertex  4.743328e+00  1.829894e+02 -2.336482e+02
   endloop
 endfacet
 facet normal -9.989931e-01 -4.486483e-02 -7.453050e-16
   outer loop
     vertex  4.762500e+00  1.825625e+02 -2.336482e+02
     vertex  4.762500e+00  1.825625e+02 -2.276958e+02
     vertex  4.743328e+00  1.829894e+02 -2.276958e+02
   endloop
 endfacet
endsolid
