solid 
 facet normal  1.853711e-02  9.902061e-01  1.383771e-01
   outer loop
     vertex -2.780410e+02  6.644570e+02 -4.013627e+02
     vertex -2.872830e+02  6.560090e+02 -3.396719e+02
     vertex -2.862237e+02  6.559702e+02 -3.395363e+02
   endloop
 endfacet
 facet normal  1.784150e-02  9.902329e-01  1.382765e-01
   outer loop
     vertex -2.780410e+02  6.644570e+02 -4.013627e+02
     vertex -2.790604e+02  6.644936e+02 -4.014933e+02
     vertex -2.872830e+02  6.560090e+02 -3.396719e+02
   endloop
 endfacet
 facet normal  5.558702e-02  9.881555e-01  1.430343e-01
   outer loop
     vertex -2.770228e+02  6.643838e+02 -4.012374e+02
     vertex -2.862237e+02  6.559702e+02 -3.395363e+02
     vertex -2.851659e+02  6.558919e+02 -3.394064e+02
   endloop
 endfacet
 facet normal  8.333199e-02  9.857162e-01  1.463532e-01
   outer loop
     vertex -2.770228e+02  6.643838e+02 -4.012374e+02
     vertex -2.851659e+02  6.558919e+02 -3.394064e+02
     vertex -2.846380e+02  6.558379e+02 -3.393435e+02
   endloop
 endfacet
 facet normal  5.350283e-02  9.883124e-01  1.427448e-01
   outer loop
     vertex -2.770228e+02  6.643838e+02 -4.012374e+02
     vertex -2.780410e+02  6.644570e+02 -4.013627e+02
     vertex -2.862237e+02  6.559702e+02 -3.395363e+02
   endloop
 endfacet
 facet normal  1.017868e-01  9.836521e-01  1.485527e-01
   outer loop
     vertex -2.760073e+02  6.642740e+02 -4.011174e+02
     vertex -2.846380e+02  6.558379e+02 -3.393435e+02
     vertex -2.841110e+02  6.557742e+02 -3.392822e+02
   endloop
 endfacet
 facet normal  1.202144e-01  9.812526e-01  1.506378e-01
   outer loop
     vertex -2.760073e+02  6.642740e+02 -4.011174e+02
     vertex -2.841110e+02  6.557742e+02 -3.392822e+02
     vertex -2.835852e+02  6.557005e+02 -3.392224e+02
   endloop
 endfacet
 facet normal  8.910121e-02  9.851181e-01  1.469805e-01
   outer loop
     vertex -2.760073e+02  6.642740e+02 -4.011174e+02
     vertex -2.770228e+02  6.643838e+02 -4.012374e+02
     vertex -2.846380e+02  6.558379e+02 -3.393435e+02
   endloop
 endfacet
 facet normal  1.385901e-01  9.785000e-01  1.527435e-01
   outer loop
     vertex -2.749957e+02  6.641279e+02 -4.010029e+02
     vertex -2.835852e+02  6.557005e+02 -3.392224e+02
     vertex -2.830606e+02  6.556171e+02 -3.391641e+02
   endloop
 endfacet
 facet normal  1.245760e-01  9.806394e-01  1.510869e-01
   outer loop
     vertex -2.749957e+02  6.641279e+02 -4.010029e+02
     vertex -2.760073e+02  6.642740e+02 -4.011174e+02
     vertex -2.835852e+02  6.557005e+02 -3.392224e+02
   endloop
 endfacet
 facet normal  1.598860e-01  9.748867e-01  1.550236e-01
   outer loop
     vertex -2.739894e+02  6.639455e+02 -4.008941e+02
     vertex -2.749957e+02  6.641279e+02 -4.010029e+02
     vertex -2.830606e+02  6.556171e+02 -3.391641e+02
   endloop
 endfacet
 facet normal  1.660643e-01  9.737333e-01  1.557758e-01
   outer loop
     vertex -2.739894e+02  6.639455e+02 -4.008941e+02
     vertex -2.830606e+02  6.556171e+02 -3.391641e+02
     vertex -2.820161e+02  6.554211e+02 -3.390520e+02
   endloop
 endfacet
 facet normal  1.949937e-01  9.678762e-01  1.587233e-01
   outer loop
     vertex -2.729897e+02  6.637272e+02 -4.007910e+02
     vertex -2.739894e+02  6.639455e+02 -4.008941e+02
     vertex -2.820161e+02  6.554211e+02 -3.390520e+02
   endloop
 endfacet
 facet normal  2.024942e-01  9.661915e-01  1.595933e-01
   outer loop
     vertex -2.729897e+02  6.637272e+02 -4.007910e+02
     vertex -2.820161e+02  6.554211e+02 -3.390520e+02
     vertex -2.809790e+02  6.551863e+02 -3.389463e+02
   endloop
 endfacet
 facet normal  2.386411e-01  9.572986e-01  1.631867e-01
   outer loop
     vertex -2.719978e+02  6.634733e+02 -4.006940e+02
     vertex -2.809790e+02  6.551863e+02 -3.389463e+02
     vertex -2.799506e+02  6.549130e+02 -3.388470e+02
   endloop
 endfacet
 facet normal  2.298487e-01  9.596118e-01  1.622183e-01
   outer loop
     vertex -2.719978e+02  6.634733e+02 -4.006940e+02
     vertex -2.729897e+02  6.637272e+02 -4.007910e+02
     vertex -2.809790e+02  6.551863e+02 -3.389463e+02
   endloop
 endfacet
 facet normal  2.744542e-01  9.470668e-01  1.665511e-01
   outer loop
     vertex -2.710151e+02  6.631839e+02 -4.006030e+02
     vertex -2.799506e+02  6.549130e+02 -3.388470e+02
     vertex -2.789326e+02  6.546017e+02 -3.387544e+02
   endloop
 endfacet
 facet normal  2.644058e-01  9.501042e-01  1.655040e-01
   outer loop
     vertex -2.710151e+02  6.631839e+02 -4.006030e+02
     vertex -2.719978e+02  6.634733e+02 -4.006940e+02
     vertex -2.799506e+02  6.549130e+02 -3.388470e+02
   endloop
 endfacet
 facet normal  3.098837e-01  9.355107e-01  1.696818e-01
   outer loop
     vertex -2.700428e+02  6.628596e+02 -4.005182e+02
     vertex -2.789326e+02  6.546017e+02 -3.387544e+02
     vertex -2.779262e+02  6.542527e+02 -3.386684e+02
   endloop
 endfacet
 facet normal  2.986203e-01  9.393658e-01  1.685761e-01
   outer loop
     vertex -2.700428e+02  6.628596e+02 -4.005182e+02
     vertex -2.710151e+02  6.631839e+02 -4.006030e+02
     vertex -2.789326e+02  6.546017e+02 -3.387544e+02
   endloop
 endfacet
 facet normal  3.448798e-01  9.226462e-01  1.725744e-01
   outer loop
     vertex -2.690822e+02  6.625008e+02 -4.004397e+02
     vertex -2.779262e+02  6.542527e+02 -3.386684e+02
     vertex -2.769329e+02  6.538666e+02 -3.385893e+02
   endloop
 endfacet
 facet normal  3.324479e-01  9.274103e-01  1.714306e-01
   outer loop
     vertex -2.690822e+02  6.625008e+02 -4.004397e+02
     vertex -2.700428e+02  6.628596e+02 -4.005182e+02
     vertex -2.779262e+02  6.542527e+02 -3.386684e+02
   endloop
 endfacet
 facet normal  3.793937e-01  9.084914e-01  1.752248e-01
   outer loop
     vertex -2.681345e+02  6.621078e+02 -4.003675e+02
     vertex -2.769329e+02  6.538666e+02 -3.385893e+02
     vertex -2.759540e+02  6.534439e+02 -3.385171e+02
   endloop
 endfacet
 facet normal  3.658447e-01  9.142535e-01  1.740638e-01
   outer loop
     vertex -2.681345e+02  6.621078e+02 -4.003675e+02
     vertex -2.690822e+02  6.625008e+02 -4.004397e+02
     vertex -2.769329e+02  6.538666e+02 -3.385893e+02
   endloop
 endfacet
 facet normal  4.133771e-01  8.930662e-01  1.776294e-01
   outer loop
     vertex -2.672010e+02  6.616813e+02 -4.003019e+02
     vertex -2.759540e+02  6.534439e+02 -3.385171e+02
     vertex -2.749910e+02  6.529852e+02 -3.384520e+02
   endloop
 endfacet
 facet normal  3.987675e-01  8.999122e-01  1.764724e-01
   outer loop
     vertex -2.672010e+02  6.616813e+02 -4.003019e+02
     vertex -2.681345e+02  6.621078e+02 -4.003675e+02
     vertex -2.759540e+02  6.534439e+02 -3.385171e+02
   endloop
 endfacet
 facet normal  4.467824e-01  8.763920e-01  1.797848e-01
   outer loop
     vertex -2.662828e+02  6.612217e+02 -4.002429e+02
     vertex -2.749910e+02  6.529852e+02 -3.384520e+02
     vertex -2.740452e+02  6.524912e+02 -3.383940e+02
   endloop
 endfacet
 facet normal  4.311737e-01  8.844051e-01  1.786531e-01
   outer loop
     vertex -2.662828e+02  6.612217e+02 -4.002429e+02
     vertex -2.672010e+02  6.616813e+02 -4.003019e+02
     vertex -2.749910e+02  6.529852e+02 -3.384520e+02
   endloop
 endfacet
 facet normal  4.795630e-01  8.584922e-01  1.816879e-01
   outer loop
     vertex -2.653812e+02  6.607297e+02 -4.001905e+02
     vertex -2.740452e+02  6.524912e+02 -3.383940e+02
     vertex -2.731180e+02  6.519624e+02 -3.383432e+02
   endloop
 endfacet
 facet normal  4.630212e-01  8.677522e-01  1.806032e-01
   outer loop
     vertex -2.653812e+02  6.607297e+02 -4.001905e+02
     vertex -2.662828e+02  6.612217e+02 -4.002429e+02
     vertex -2.740452e+02  6.524912e+02 -3.383940e+02
   endloop
 endfacet
 facet normal  5.116729e-01  8.393918e-01  1.833362e-01
   outer loop
     vertex -2.644973e+02  6.602059e+02 -4.001448e+02
     vertex -2.731180e+02  6.519624e+02 -3.383432e+02
     vertex -2.722105e+02  6.513998e+02 -3.382997e+02
   endloop
 endfacet
 facet normal  4.942688e-01  8.499751e-01  1.823202e-01
   outer loop
     vertex -2.644973e+02  6.602059e+02 -4.001448e+02
     vertex -2.653812e+02  6.607297e+02 -4.001905e+02
     vertex -2.731180e+02  6.519624e+02 -3.383432e+02
   endloop
 endfacet
 facet normal  5.430674e-01  8.191176e-01  1.847273e-01
   outer loop
     vertex -2.636323e+02  6.596510e+02 -4.001059e+02
     vertex -2.722105e+02  6.513998e+02 -3.382997e+02
     vertex -2.713241e+02  6.508039e+02 -3.382636e+02
   endloop
 endfacet
 facet normal  5.248760e-01  8.310969e-01  1.838017e-01
   outer loop
     vertex -2.636323e+02  6.596510e+02 -4.001059e+02
     vertex -2.644973e+02  6.602059e+02 -4.001448e+02
     vertex -2.722105e+02  6.513998e+02 -3.382997e+02
   endloop
 endfacet
 facet normal  5.737024e-01  7.976979e-01  1.858593e-01
   outer loop
     vertex -2.627872e+02  6.590657e+02 -4.000738e+02
     vertex -2.713241e+02  6.508039e+02 -3.382636e+02
     vertex -2.704600e+02  6.501758e+02 -3.382349e+02
   endloop
 endfacet
 facet normal  5.548032e-01  8.111420e-01  1.850460e-01
   outer loop
     vertex -2.627872e+02  6.590657e+02 -4.000738e+02
     vertex -2.636323e+02  6.596510e+02 -4.001059e+02
     vertex -2.713241e+02  6.508039e+02 -3.382636e+02
   endloop
 endfacet
 facet normal  6.035351e-01  7.751626e-01  1.867305e-01
   outer loop
     vertex -2.619633e+02  6.584507e+02 -4.000486e+02
     vertex -2.704600e+02  6.501758e+02 -3.382349e+02
     vertex -2.696195e+02  6.495163e+02 -3.382136e+02
   endloop
 endfacet
 facet normal  5.840117e-01  7.901362e-01  1.860514e-01
   outer loop
     vertex -2.619633e+02  6.584507e+02 -4.000486e+02
     vertex -2.627872e+02  6.590657e+02 -4.000738e+02
     vertex -2.704600e+02  6.501758e+02 -3.382349e+02
   endloop
 endfacet
 facet normal  6.325239e-01  7.515433e-01  1.873398e-01
   outer loop
     vertex -2.611614e+02  6.578070e+02 -4.000304e+02
     vertex -2.696195e+02  6.495163e+02 -3.382136e+02
     vertex -2.688036e+02  6.488262e+02 -3.381998e+02
   endloop
 endfacet
 facet normal  6.124634e-01  7.681068e-01  1.868165e-01
   outer loop
     vertex -2.611614e+02  6.578070e+02 -4.000304e+02
     vertex -2.619633e+02  6.584507e+02 -4.000486e+02
     vertex -2.696195e+02  6.495163e+02 -3.382136e+02
   endloop
 endfacet
 facet normal  6.606274e-01  7.268723e-01  1.876912e-01
   outer loop
     vertex -2.603563e+02  6.571114e+02 -4.000187e+02
     vertex -2.688036e+02  6.488262e+02 -3.381998e+02
     vertex -2.680136e+02  6.481065e+02 -3.381935e+02
   endloop
 endfacet
 facet normal  6.405938e-01  7.446767e-01  1.873399e-01
   outer loop
     vertex -2.603563e+02  6.571114e+02 -4.000187e+02
     vertex -2.611614e+02  6.578070e+02 -4.000304e+02
     vertex -2.688036e+02  6.488262e+02 -3.381998e+02
   endloop
 endfacet
 facet normal  6.878071e-01  7.011848e-01  1.877801e-01
   outer loop
     vertex -2.595771e+02  6.563869e+02 -4.000145e+02
     vertex -2.680136e+02  6.481065e+02 -3.381935e+02
     vertex -2.672506e+02  6.473584e+02 -3.381947e+02
   endloop
 endfacet
 facet normal  6.683210e-01  7.198241e-01  1.876175e-01
   outer loop
     vertex -2.595771e+02  6.563869e+02 -4.000145e+02
     vertex -2.603563e+02  6.571114e+02 -4.000187e+02
     vertex -2.680136e+02  6.481065e+02 -3.381935e+02
   endloop
 endfacet
 facet normal  7.140247e-01  6.745165e-01  1.876065e-01
   outer loop
     vertex -2.588249e+02  6.556343e+02 -4.000178e+02
     vertex -2.672506e+02  6.473584e+02 -3.381947e+02
     vertex -2.665156e+02  6.465827e+02 -3.382034e+02
   endloop
 endfacet
 facet normal  6.951215e-01  6.939736e-01  1.876349e-01
   outer loop
     vertex -2.588249e+02  6.556343e+02 -4.000178e+02
     vertex -2.595771e+02  6.563869e+02 -4.000145e+02
     vertex -2.672506e+02  6.473584e+02 -3.381947e+02
   endloop
 endfacet
 facet normal  7.392437e-01  6.469049e-01  1.871706e-01
   outer loop
     vertex -2.581008e+02  6.548548e+02 -4.000284e+02
     vertex -2.665156e+02  6.465827e+02 -3.382034e+02
     vertex -2.658096e+02  6.457806e+02 -3.382196e+02
   endloop
 endfacet
 facet normal  7.209582e-01  6.671608e-01  1.873920e-01
   outer loop
     vertex -2.581008e+02  6.548548e+02 -4.000284e+02
     vertex -2.588249e+02  6.556343e+02 -4.000178e+02
     vertex -2.665156e+02  6.465827e+02 -3.382034e+02
   endloop
 endfacet
 facet normal  7.634288e-01  6.183885e-01  1.864730e-01
   outer loop
     vertex -2.574057e+02  6.540494e+02 -4.000465e+02
     vertex -2.658096e+02  6.457806e+02 -3.382196e+02
     vertex -2.651336e+02  6.449533e+02 -3.382432e+02
   endloop
 endfacet
 facet normal  7.457953e-01  6.394230e-01  1.868893e-01
   outer loop
     vertex -2.574057e+02  6.540494e+02 -4.000465e+02
     vertex -2.581008e+02  6.548548e+02 -4.000284e+02
     vertex -2.658096e+02  6.457806e+02 -3.382196e+02
   endloop
 endfacet
 facet normal  7.865461e-01  5.890072e-01  1.855147e-01
   outer loop
     vertex -2.567407e+02  6.532192e+02 -4.000720e+02
     vertex -2.651336e+02  6.449533e+02 -3.382432e+02
     vertex -2.644887e+02  6.441018e+02 -3.382743e+02
   endloop
 endfacet
 facet normal  7.695984e-01  6.107986e-01  1.861274e-01
   outer loop
     vertex -2.567407e+02  6.532192e+02 -4.000720e+02
     vertex -2.574057e+02  6.540494e+02 -4.000465e+02
     vertex -2.651336e+02  6.449533e+02 -3.382432e+02
   endloop
 endfacet
 facet normal  8.085634e-01  5.588021e-01  1.842969e-01
   outer loop
     vertex -2.561066e+02  6.523654e+02 -4.001048e+02
     vertex -2.644887e+02  6.441018e+02 -3.382743e+02
     vertex -2.638756e+02  6.432274e+02 -3.383128e+02
   endloop
 endfacet
 facet normal  7.923344e-01  5.813274e-01  1.851073e-01
   outer loop
     vertex -2.561066e+02  6.523654e+02 -4.001048e+02
     vertex -2.567407e+02  6.532192e+02 -4.000720e+02
     vertex -2.644887e+02  6.441018e+02 -3.382743e+02
   endloop
 endfacet
 facet normal  8.294499e-01  5.278155e-01  1.828215e-01
   outer loop
     vertex -2.555043e+02  6.514892e+02 -4.001450e+02
     vertex -2.638756e+02  6.432274e+02 -3.383128e+02
     vertex -2.632952e+02  6.423312e+02 -3.383586e+02
   endloop
 endfacet
 facet normal  8.139718e-01  5.510502e-01  1.838305e-01
   outer loop
     vertex -2.555043e+02  6.514892e+02 -4.001450e+02
     vertex -2.561066e+02  6.523654e+02 -4.001048e+02
     vertex -2.638756e+02  6.432274e+02 -3.383128e+02
   endloop
 endfacet
 facet normal  8.491762e-01  4.960907e-01  1.810905e-01
   outer loop
     vertex -2.549347e+02  6.505917e+02 -4.001924e+02
     vertex -2.632952e+02  6.423312e+02 -3.383586e+02
     vertex -2.627484e+02  6.414146e+02 -3.384116e+02
   endloop
 endfacet
 facet normal  8.344806e-01  5.200089e-01  1.822988e-01
   outer loop
     vertex -2.549347e+02  6.505917e+02 -4.001924e+02
     vertex -2.555043e+02  6.514892e+02 -4.001450e+02
     vertex -2.632952e+02  6.423312e+02 -3.383586e+02
   endloop
 endfacet
 facet normal  8.677149e-01  4.636720e-01  1.791063e-01
   outer loop
     vertex -2.543985e+02  6.496743e+02 -4.002470e+02
     vertex -2.627484e+02  6.414146e+02 -3.384116e+02
     vertex -2.622359e+02  6.404788e+02 -3.384719e+02
   endloop
 endfacet
 facet normal  8.538325e-01  4.882466e-01  1.805142e-01
   outer loop
     vertex -2.543985e+02  6.496743e+02 -4.002470e+02
     vertex -2.549347e+02  6.505917e+02 -4.001924e+02
     vertex -2.627484e+02  6.414146e+02 -3.384116e+02
   endloop
 endfacet
 facet normal  8.850401e-01  4.306049e-01  1.768716e-01
   outer loop
     vertex -2.538966e+02  6.487381e+02 -4.003087e+02
     vertex -2.622359e+02  6.404788e+02 -3.384719e+02
     vertex -2.617585e+02  6.395251e+02 -3.385393e+02
   endloop
 endfacet
 facet normal  8.720004e-01  4.558074e-01  1.784793e-01
   outer loop
     vertex -2.538966e+02  6.487381e+02 -4.003087e+02
     vertex -2.543985e+02  6.496743e+02 -4.002470e+02
     vertex -2.622359e+02  6.404788e+02 -3.384719e+02
   endloop
 endfacet
 facet normal  8.889594e-01  4.227362e-01  1.761968e-01
   outer loop
     vertex -2.534295e+02  6.477846e+02 -4.003775e+02
     vertex -2.538966e+02  6.487381e+02 -4.003087e+02
     vertex -2.617585e+02  6.395251e+02 -3.385393e+02
   endloop
 endfacet
 facet normal  9.011274e-01  3.969355e-01  1.743896e-01
   outer loop
     vertex -2.534295e+02  6.477846e+02 -4.003775e+02
     vertex -2.617585e+02  6.395251e+02 -3.385393e+02
     vertex -2.613167e+02  6.385549e+02 -3.386137e+02
   endloop
 endfacet
 facet normal  9.046858e-01  3.890789e-01  1.736700e-01
   outer loop
     vertex -2.529980e+02  6.468150e+02 -4.004531e+02
     vertex -2.534295e+02  6.477846e+02 -4.003775e+02
     vertex -2.613167e+02  6.385549e+02 -3.386137e+02
   endloop
 endfacet
 facet normal  9.159543e-01  3.627109e-01  1.716638e-01
   outer loop
     vertex -2.529980e+02  6.468150e+02 -4.004531e+02
     vertex -2.613167e+02  6.385549e+02 -3.386137e+02
     vertex -2.609113e+02  6.375695e+02 -3.386950e+02
   endloop
 endfacet
 facet normal  9.191578e-01  3.548821e-01  1.709023e-01
   outer loop
     vertex -2.526026e+02  6.458306e+02 -4.005357e+02
     vertex -2.529980e+02  6.468150e+02 -4.004531e+02
     vertex -2.609113e+02  6.375695e+02 -3.386950e+02
   endloop
 endfacet
 facet normal  9.295003e-01  3.279790e-01  1.686980e-01
   outer loop
     vertex -2.526026e+02  6.458306e+02 -4.005357e+02
     vertex -2.609113e+02  6.375695e+02 -3.386950e+02
     vertex -2.605427e+02  6.365703e+02 -3.387831e+02
   endloop
 endfacet
 facet normal  9.323554e-01  3.201933e-01  1.678976e-01
   outer loop
     vertex -2.522438e+02  6.448328e+02 -4.006249e+02
     vertex -2.526026e+02  6.458306e+02 -4.005357e+02
     vertex -2.605427e+02  6.365703e+02 -3.387831e+02
   endloop
 endfacet
 facet normal  9.417462e-01  2.927884e-01  1.654963e-01
   outer loop
     vertex -2.522438e+02  6.448328e+02 -4.006249e+02
     vertex -2.605427e+02  6.365703e+02 -3.387831e+02
     vertex -2.602115e+02  6.355587e+02 -3.388779e+02
   endloop
 endfacet
 facet normal  9.442603e-01  2.850605e-01  1.646600e-01
   outer loop
     vertex -2.519223e+02  6.438231e+02 -4.007207e+02
     vertex -2.522438e+02  6.448328e+02 -4.006249e+02
     vertex -2.602115e+02  6.355587e+02 -3.388779e+02
   endloop
 endfacet
 facet normal  9.526750e-01  2.571884e-01  1.620632e-01
   outer loop
     vertex -2.519223e+02  6.438231e+02 -4.007207e+02
     vertex -2.602115e+02  6.355587e+02 -3.388779e+02
     vertex -2.599182e+02  6.345362e+02 -3.389792e+02
   endloop
 endfacet
 facet normal  9.548560e-01  2.495325e-01  1.611941e-01
   outer loop
     vertex -2.516384e+02  6.428028e+02 -4.008230e+02
     vertex -2.519223e+02  6.438231e+02 -4.007207e+02
     vertex -2.599182e+02  6.345362e+02 -3.389792e+02
   endloop
 endfacet
 facet normal  9.622714e-01  2.212286e-01  1.584035e-01
   outer loop
     vertex -2.516384e+02  6.428028e+02 -4.008230e+02
     vertex -2.599182e+02  6.345362e+02 -3.389792e+02
     vertex -2.596632e+02  6.335040e+02 -3.390870e+02
   endloop
 endfacet
 facet normal  9.641278e-01  2.136585e-01  1.575046e-01
   outer loop
     vertex -2.513925e+02  6.417733e+02 -4.009316e+02
     vertex -2.516384e+02  6.428028e+02 -4.008230e+02
     vertex -2.596632e+02  6.335040e+02 -3.390870e+02
   endloop
 endfacet
 facet normal  9.705220e-01  1.849594e-01  1.545224e-01
   outer loop
     vertex -2.513925e+02  6.417733e+02 -4.009316e+02
     vertex -2.596632e+02  6.335040e+02 -3.390870e+02
     vertex -2.594468e+02  6.324637e+02 -3.392010e+02
   endloop
 endfacet
 facet normal  9.720627e-01  1.774883e-01  1.535967e-01
   outer loop
     vertex -2.511850e+02  6.407360e+02 -4.010463e+02
     vertex -2.513925e+02  6.417733e+02 -4.009316e+02
     vertex -2.594468e+02  6.324637e+02 -3.392010e+02
   endloop
 endfacet
 facet normal  9.774151e-01  1.484315e-01  1.504251e-01
   outer loop
     vertex -2.511850e+02  6.407360e+02 -4.010463e+02
     vertex -2.594468e+02  6.324637e+02 -3.392010e+02
     vertex -2.592693e+02  6.314168e+02 -3.393210e+02
   endloop
 endfacet
 facet normal  9.786499e-01  1.410720e-01  1.494757e-01
   outer loop
     vertex -2.510161e+02  6.396924e+02 -4.011671e+02
     vertex -2.511850e+02  6.407360e+02 -4.010463e+02
     vertex -2.592693e+02  6.314168e+02 -3.393210e+02
   endloop
 endfacet
 facet normal  9.829413e-01  1.116960e-01  1.461176e-01
   outer loop
     vertex -2.510161e+02  6.396924e+02 -4.011671e+02
     vertex -2.592693e+02  6.314168e+02 -3.393210e+02
     vertex -2.591310e+02  6.303647e+02 -3.394470e+02
   endloop
 endfacet
 facet normal  9.838802e-01  1.044601e-01  1.451475e-01
   outer loop
     vertex -2.508861e+02  6.386440e+02 -4.012937e+02
     vertex -2.510161e+02  6.396924e+02 -4.011671e+02
     vertex -2.591310e+02  6.303647e+02 -3.394470e+02
   endloop
 endfacet
 facet normal  9.870928e-01  7.480427e-02  1.416057e-01
   outer loop
     vertex -2.508861e+02  6.386440e+02 -4.012937e+02
     vertex -2.591310e+02  6.303647e+02 -3.394470e+02
     vertex -2.590321e+02  6.293088e+02 -3.395788e+02
   endloop
 endfacet
 facet normal  9.898637e-01  3.780792e-02  1.368959e-01
   outer loop
     vertex -2.507952e+02  6.375922e+02 -4.014259e+02
     vertex -2.590321e+02  6.293088e+02 -3.395788e+02
     vertex -2.589727e+02  6.282507e+02 -3.397161e+02
   endloop
 endfacet
 facet normal  9.877464e-01  6.770342e-02  1.406179e-01
   outer loop
     vertex -2.507952e+02  6.375922e+02 -4.014259e+02
     vertex -2.508861e+02  6.386440e+02 -4.012937e+02
     vertex -2.590321e+02  6.293088e+02 -3.395788e+02
   endloop
 endfacet
 facet normal  9.912501e-01  7.586796e-04  1.319946e-01
   outer loop
     vertex -2.507435e+02  6.365384e+02 -4.015637e+02
     vertex -2.589727e+02  6.282507e+02 -3.397161e+02
     vertex -2.589529e+02  6.271918e+02 -3.398588e+02
   endloop
 endfacet
 facet normal  9.902430e-01  3.085284e-02  1.358933e-01
   outer loop
     vertex -2.507435e+02  6.365384e+02 -4.015637e+02
     vertex -2.507952e+02  6.375922e+02 -4.014259e+02
     vertex -2.589727e+02  6.282507e+02 -3.397161e+02
   endloop
 endfacet
 facet normal  9.912503e-01 -3.629162e-02  1.269088e-01
   outer loop
     vertex -2.507310e+02  6.354841e+02 -4.017067e+02
     vertex -2.589529e+02  6.271918e+02 -3.398588e+02
     vertex -2.589727e+02  6.261336e+02 -3.400067e+02
   endloop
 endfacet
 facet normal  9.913666e-01 -6.040505e-03  1.309802e-01
   outer loop
     vertex -2.507310e+02  6.354841e+02 -4.017067e+02
     vertex -2.507435e+02  6.365384e+02 -4.015637e+02
     vertex -2.589529e+02  6.271918e+02 -3.398588e+02
   endloop
 endfacet
 facet normal  9.898640e-01 -7.329118e-02  1.216456e-01
   outer loop
     vertex -2.507578e+02  6.344308e+02 -4.018548e+02
     vertex -2.589727e+02  6.261336e+02 -3.400067e+02
     vertex -2.590321e+02  6.250776e+02 -3.401595e+02
   endloop
 endfacet
 facet normal  9.911157e-01 -4.292547e-02  1.258855e-01
   outer loop
     vertex -2.507578e+02  6.344308e+02 -4.018548e+02
     vertex -2.507310e+02  6.354841e+02 -4.017067e+02
     vertex -2.589727e+02  6.261336e+02 -3.400067e+02
   endloop
 endfacet
 facet normal  9.870933e-01 -1.101882e-01  1.162123e-01
   outer loop
     vertex -2.508238e+02  6.333799e+02 -4.020079e+02
     vertex -2.590321e+02  6.250776e+02 -3.401595e+02
     vertex -2.591310e+02  6.240253e+02 -3.403171e+02
   endloop
 endfacet
 facet normal  9.894905e-01 -7.975091e-02  1.206162e-01
   outer loop
     vertex -2.508238e+02  6.333799e+02 -4.020079e+02
     vertex -2.507578e+02  6.344308e+02 -4.018548e+02
     vertex -2.590321e+02  6.250776e+02 -3.401595e+02
   endloop
 endfacet
 facet normal  9.829421e-01 -1.469312e-01  1.106165e-01
   outer loop
     vertex -2.509290e+02  6.323329e+02 -4.021655e+02
     vertex -2.591310e+02  6.240253e+02 -3.403171e+02
     vertex -2.592693e+02  6.229781e+02 -3.404792e+02
   endloop
 endfacet
 facet normal  9.864935e-01 -1.164658e-01  1.151796e-01
   outer loop
     vertex -2.509290e+02  6.323329e+02 -4.021655e+02
     vertex -2.508238e+02  6.333799e+02 -4.020079e+02
     vertex -2.591310e+02  6.240253e+02 -3.403171e+02
   endloop
 endfacet
 facet normal  9.774162e-01 -1.834687e-01  1.048660e-01
   outer loop
     vertex -2.510732e+02  6.312912e+02 -4.023277e+02
     vertex -2.592693e+02  6.229781e+02 -3.404792e+02
     vertex -2.594468e+02  6.219375e+02 -3.406456e+02
   endloop
 endfacet
 facet normal  9.821286e-01 -1.530191e-01  1.095832e-01
   outer loop
     vertex -2.510732e+02  6.312912e+02 -4.023277e+02
     vertex -2.509290e+02  6.323329e+02 -4.021655e+02
     vertex -2.592693e+02  6.229781e+02 -3.404792e+02
   endloop
 endfacet
 facet normal  9.705232e-01 -2.197495e-01  9.896894e-02
   outer loop
     vertex -2.512562e+02  6.302564e+02 -4.024941e+02
     vertex -2.594468e+02  6.219375e+02 -3.406456e+02
     vertex -2.596632e+02  6.209050e+02 -3.408161e+02
   endloop
 endfacet
 facet normal  9.764021e-01 -1.893603e-01  1.038349e-01
   outer loop
     vertex -2.512562e+02  6.302564e+02 -4.024941e+02
     vertex -2.510732e+02  6.312912e+02 -4.023277e+02
     vertex -2.594468e+02  6.219375e+02 -3.406456e+02
   endloop
 endfacet
 facet normal  9.622729e-01 -2.557231e-01  9.293349e-02
   outer loop
     vertex -2.514778e+02  6.292297e+02 -4.026644e+02
     vertex -2.596632e+02  6.209050e+02 -3.408161e+02
     vertex -2.599182e+02  6.198820e+02 -3.409904e+02
   endloop
 endfacet
 facet normal  9.693217e-01 -2.254390e-01  9.794256e-02
   outer loop
     vertex -2.514778e+02  6.292297e+02 -4.026644e+02
     vertex -2.512562e+02  6.302564e+02 -4.024941e+02
     vertex -2.596632e+02  6.209050e+02 -3.408161e+02
   endloop
 endfacet
 facet normal  9.526767e-01 -2.913390e-01  8.676811e-02
   outer loop
     vertex -2.517376e+02  6.282127e+02 -4.028386e+02
     vertex -2.599182e+02  6.198820e+02 -3.409904e+02
     vertex -2.602115e+02  6.188699e+02 -3.411683e+02
   endloop
 endfacet
 facet normal  9.608973e-01 -2.612050e-01  9.191436e-02
   outer loop
     vertex -2.517376e+02  6.282127e+02 -4.028386e+02
     vertex -2.514778e+02  6.292297e+02 -4.026644e+02
     vertex -2.599182e+02  6.198820e+02 -3.409904e+02
   endloop
 endfacet
 facet normal  9.417481e-01 -3.265474e-01  8.048142e-02
   outer loop
     vertex -2.520353e+02  6.272067e+02 -4.030162e+02
     vertex -2.602115e+02  6.188699e+02 -3.411683e+02
     vertex -2.605427e+02  6.178702e+02 -3.413496e+02
   endloop
 endfacet
 facet normal  9.511407e-01 -2.966089e-01  8.575868e-02
   outer loop
     vertex -2.520353e+02  6.272067e+02 -4.030162e+02
     vertex -2.517376e+02  6.282127e+02 -4.028386e+02
     vertex -2.602115e+02  6.188699e+02 -3.411683e+02
   endloop
 endfacet
 facet normal  9.295024e-01 -3.612992e-01  7.408222e-02
   outer loop
     vertex -2.523704e+02  6.262132e+02 -4.031972e+02
     vertex -2.605427e+02  6.178702e+02 -3.413496e+02
     vertex -2.609113e+02  6.168842e+02 -3.415339e+02
   endloop
 endfacet
 facet normal  9.400653e-01 -3.316015e-01  7.948405e-02
   outer loop
     vertex -2.523704e+02  6.262132e+02 -4.031972e+02
     vertex -2.520353e+02  6.272067e+02 -4.030162e+02
     vertex -2.605427e+02  6.178702e+02 -3.413496e+02
   endloop
 endfacet
 facet normal  9.159567e-01 -3.955456e-01  6.757944e-02
   outer loop
     vertex -2.527426e+02  6.252335e+02 -4.033811e+02
     vertex -2.609113e+02  6.168842e+02 -3.415339e+02
     vertex -2.613167e+02  6.159133e+02 -3.417211e+02
   endloop
 endfacet
 facet normal  9.276864e-01 -3.661344e-01  7.309917e-02
   outer loop
     vertex -2.527426e+02  6.252335e+02 -4.033811e+02
     vertex -2.523704e+02  6.262132e+02 -4.031972e+02
     vertex -2.609113e+02  6.168842e+02 -3.415339e+02
   endloop
 endfacet
 facet normal  9.011300e-01 -4.292388e-01  6.098220e-02
   outer loop
     vertex -2.531513e+02  6.242690e+02 -4.035678e+02
     vertex -2.613167e+02  6.159133e+02 -3.417211e+02
     vertex -2.617585e+02  6.149590e+02 -3.419108e+02
   endloop
 endfacet
 facet normal  9.140213e-01 -4.001596e-01  6.661290e-02
   outer loop
     vertex -2.531513e+02  6.242690e+02 -4.035678e+02
     vertex -2.527426e+02  6.252335e+02 -4.033811e+02
     vertex -2.613167e+02  6.159133e+02 -3.417211e+02
   endloop
 endfacet
 facet normal  8.850429e-01 -4.623317e-01  5.429970e-02
   outer loop
     vertex -2.535958e+02  6.233210e+02 -4.037571e+02
     vertex -2.617585e+02  6.149590e+02 -3.419108e+02
     vertex -2.622359e+02  6.140224e+02 -3.421029e+02
   endloop
 endfacet
 facet normal  8.990890e-01 -4.336299e-01  6.003423e-02
   outer loop
     vertex -2.535958e+02  6.233210e+02 -4.037571e+02
     vertex -2.531513e+02  6.242690e+02 -4.035678e+02
     vertex -2.617585e+02  6.149590e+02 -3.419108e+02
   endloop
 endfacet
 facet normal  8.829100e-01 -4.664991e-01  5.337228e-02
   outer loop
     vertex -2.540757e+02  6.223909e+02 -4.039486e+02
     vertex -2.535958e+02  6.233210e+02 -4.037571e+02
     vertex -2.622359e+02  6.140224e+02 -3.421029e+02
   endloop
 endfacet
 facet normal  8.677180e-01 -4.947780e-01  4.754129e-02
   outer loop
     vertex -2.540757e+02  6.223909e+02 -4.039486e+02
     vertex -2.622359e+02  6.140224e+02 -3.421029e+02
     vertex -2.627484e+02  6.131050e+02 -3.422970e+02
   endloop
 endfacet
 facet normal  8.655068e-01 -4.987214e-01  4.663630e-02
   outer loop
     vertex -2.545902e+02  6.214799e+02 -4.041420e+02
     vertex -2.540757e+02  6.223909e+02 -4.039486e+02
     vertex -2.627484e+02  6.131050e+02 -3.422970e+02
   endloop
 endfacet
 facet normal  8.491795e-01 -5.265323e-01  4.071643e-02
   outer loop
     vertex -2.545902e+02  6.214799e+02 -4.041420e+02
     vertex -2.627484e+02  6.131050e+02 -3.422970e+02
     vertex -2.632952e+02  6.122080e+02 -3.424928e+02
   endloop
 endfacet
 facet normal  8.469036e-01 -5.302522e-01  3.983562e-02
   outer loop
     vertex -2.551387e+02  6.205892e+02 -4.043372e+02
     vertex -2.545902e+02  6.214799e+02 -4.041420e+02
     vertex -2.632952e+02  6.122080e+02 -3.424928e+02
   endloop
 endfacet
 facet normal  8.294534e-01 -5.575503e-01  3.383466e-02
   outer loop
     vertex -2.551387e+02  6.205892e+02 -4.043372e+02
     vertex -2.632952e+02  6.122080e+02 -3.424928e+02
     vertex -2.638756e+02  6.113326e+02 -3.426901e+02
   endloop
 endfacet
 facet normal  8.271262e-01 -5.610478e-01  3.297968e-02
   outer loop
     vertex -2.557203e+02  6.197202e+02 -4.045338e+02
     vertex -2.551387e+02  6.205892e+02 -4.043372e+02
     vertex -2.638756e+02  6.113326e+02 -3.426901e+02
   endloop
 endfacet
 facet normal  8.085672e-01 -5.877884e-01  2.690561e-02
   outer loop
     vertex -2.557203e+02  6.197202e+02 -4.045338e+02
     vertex -2.638756e+02  6.113326e+02 -3.426901e+02
     vertex -2.644887e+02  6.104801e+02 -3.428887e+02
   endloop
 endfacet
 facet normal  8.062019e-01 -5.910655e-01  2.607798e-02
   outer loop
     vertex -2.563343e+02  6.188740e+02 -4.047316e+02
     vertex -2.557203e+02  6.197202e+02 -4.045338e+02
     vertex -2.644887e+02  6.104801e+02 -3.428887e+02
   endloop
 endfacet
 facet normal  7.865501e-01 -6.172045e-01  1.993895e-02
   outer loop
     vertex -2.563343e+02  6.188740e+02 -4.047316e+02
     vertex -2.644887e+02  6.104801e+02 -3.428887e+02
     vertex -2.651336e+02  6.096518e+02 -3.430881e+02
   endloop
 endfacet
 facet normal  7.841599e-01 -6.202636e-01  1.914009e-02
   outer loop
     vertex -2.569798e+02  6.180518e+02 -4.049303e+02
     vertex -2.563343e+02  6.188740e+02 -4.047316e+02
     vertex -2.651336e+02  6.096518e+02 -3.430881e+02
   endloop
 endfacet
 facet normal  7.634330e-01 -6.457573e-01  1.294444e-02
   outer loop
     vertex -2.569798e+02  6.180518e+02 -4.049303e+02
     vertex -2.651336e+02  6.096518e+02 -3.430881e+02
     vertex -2.658096e+02  6.088486e+02 -3.432883e+02
   endloop
 endfacet
 facet normal  7.610306e-01 -6.486018e-01  1.217563e-02
   outer loop
     vertex -2.576559e+02  6.172548e+02 -4.051296e+02
     vertex -2.569798e+02  6.180518e+02 -4.049303e+02
     vertex -2.658096e+02  6.088486e+02 -3.432883e+02
   endloop
 endfacet
 facet normal  7.392481e-01 -6.734070e-01  5.931853e-03
   outer loop
     vertex -2.576559e+02  6.172548e+02 -4.051296e+02
     vertex -2.658096e+02  6.088486e+02 -3.432883e+02
     vertex -2.665156e+02  6.080718e+02 -3.434888e+02
   endloop
 endfacet
 facet normal  7.368461e-01 -6.760406e-01  5.194266e-03
   outer loop
     vertex -2.583617e+02  6.164840e+02 -4.053293e+02
     vertex -2.576559e+02  6.172548e+02 -4.051296e+02
     vertex -2.665156e+02  6.080718e+02 -3.434888e+02
   endloop
 endfacet
 facet normal  7.140293e-01 -7.001149e-01 -1.089003e-03
   outer loop
     vertex -2.583617e+02  6.164840e+02 -4.053293e+02
     vertex -2.665156e+02  6.080718e+02 -3.434888e+02
     vertex -2.672506e+02  6.073225e+02 -3.436894e+02
   endloop
 endfacet
 facet normal  7.116399e-01 -7.025421e-01 -1.794326e-03
   outer loop
     vertex -2.590962e+02  6.157405e+02 -4.055290e+02
     vertex -2.583617e+02  6.164840e+02 -4.053293e+02
     vertex -2.672506e+02  6.073225e+02 -3.436894e+02
   endloop
 endfacet
 facet normal  6.878119e-01 -7.258436e-01 -8.108309e-03
   outer loop
     vertex -2.590962e+02  6.157405e+02 -4.055290e+02
     vertex -2.672506e+02  6.073225e+02 -3.436894e+02
     vertex -2.680136e+02  6.066017e+02 -3.438898e+02
   endloop
 endfacet
 facet normal  6.854471e-01 -7.280695e-01 -8.780454e-03
   outer loop
     vertex -2.598584e+02  6.150253e+02 -4.057286e+02
     vertex -2.590962e+02  6.157405e+02 -4.055290e+02
     vertex -2.680136e+02  6.066017e+02 -3.438898e+02
   endloop
 endfacet
 facet normal  6.606326e-01 -7.505572e-01 -1.511625e-02
   outer loop
     vertex -2.598584e+02  6.150253e+02 -4.057286e+02
     vertex -2.680136e+02  6.066017e+02 -3.438898e+02
     vertex -2.688036e+02  6.059104e+02 -3.440898e+02
   endloop
 endfacet
 facet normal  6.583038e-01 -7.525874e-01 -1.575443e-02
   outer loop
     vertex -2.606471e+02  6.143395e+02 -4.059276e+02
     vertex -2.598584e+02  6.150253e+02 -4.057286e+02
     vertex -2.688036e+02  6.059104e+02 -3.440898e+02
   endloop
 endfacet
 facet normal  6.325292e-01 -7.742211e-01 -2.210303e-02
   outer loop
     vertex -2.606471e+02  6.143395e+02 -4.059276e+02
     vertex -2.688036e+02  6.059104e+02 -3.440898e+02
     vertex -2.696195e+02  6.052495e+02 -3.442890e+02
   endloop
 endfacet
 facet normal  6.302479e-01 -7.760619e-01 -2.270658e-02
   outer loop
     vertex -2.614615e+02  6.136840e+02 -4.061259e+02
     vertex -2.606471e+02  6.143395e+02 -4.059276e+02
     vertex -2.696195e+02  6.052495e+02 -3.442890e+02
   endloop
 endfacet
 facet normal  6.035412e-01 -7.968021e-01 -2.905887e-02
   outer loop
     vertex -2.614615e+02  6.136840e+02 -4.061259e+02
     vertex -2.696195e+02  6.052495e+02 -3.442890e+02
     vertex -2.704600e+02  6.046201e+02 -3.444871e+02
   endloop
 endfacet
 facet normal  6.013180e-01 -7.984603e-01 -2.962727e-02
   outer loop
     vertex -2.623002e+02  6.130597e+02 -4.063231e+02
     vertex -2.614615e+02  6.136840e+02 -4.061259e+02
     vertex -2.704600e+02  6.046201e+02 -3.444871e+02
   endloop
 endfacet
 facet normal  5.737091e-01 -8.182687e-01 -3.597405e-02
   outer loop
     vertex -2.623002e+02  6.130597e+02 -4.063231e+02
     vertex -2.704600e+02  6.046201e+02 -3.444871e+02
     vertex -2.713241e+02  6.040229e+02 -3.446840e+02
   endloop
 endfacet
 facet normal  5.715545e-01 -8.197516e-01 -3.650690e-02
   outer loop
     vertex -2.631621e+02  6.124674e+02 -4.065190e+02
     vertex -2.623002e+02  6.130597e+02 -4.063231e+02
     vertex -2.713241e+02  6.040229e+02 -3.446840e+02
   endloop
 endfacet
 facet normal  5.430746e-01 -8.385909e-01 -4.283891e-02
   outer loop
     vertex -2.631621e+02  6.124674e+02 -4.065190e+02
     vertex -2.713241e+02  6.040229e+02 -3.446840e+02
     vertex -2.722105e+02  6.034589e+02 -3.448793e+02
   endloop
 endfacet
 facet normal  5.409984e-01 -8.399064e-01 -4.333593e-02
   outer loop
     vertex -2.640462e+02  6.119081e+02 -4.067134e+02
     vertex -2.631621e+02  6.124674e+02 -4.065190e+02
     vertex -2.722105e+02  6.034589e+02 -3.448793e+02
   endloop
 endfacet
 facet normal  5.116806e-01 -8.577403e-01 -4.964383e-02
   outer loop
     vertex -2.640462e+02  6.119081e+02 -4.067134e+02
     vertex -2.722105e+02  6.034589e+02 -3.448793e+02
     vertex -2.731180e+02  6.029287e+02 -3.450728e+02
   endloop
 endfacet
 facet normal  5.096923e-01 -8.588965e-01 -5.010488e-02
   outer loop
     vertex -2.649510e+02  6.113823e+02 -4.069059e+02
     vertex -2.640462e+02  6.119081e+02 -4.067134e+02
     vertex -2.731180e+02  6.029287e+02 -3.450728e+02
   endloop
 endfacet
 facet normal  4.795709e-01 -8.756901e-01 -5.637930e-02
   outer loop
     vertex -2.649510e+02  6.113823e+02 -4.069059e+02
     vertex -2.731180e+02  6.029287e+02 -3.450728e+02
     vertex -2.740452e+02  6.024332e+02 -3.452641e+02
   endloop
 endfacet
 facet normal  4.776795e-01 -8.766958e-01 -5.680438e-02
   outer loop
     vertex -2.658754e+02  6.108910e+02 -4.070963e+02
     vertex -2.649510e+02  6.113823e+02 -4.069059e+02
     vertex -2.740452e+02  6.024332e+02 -3.452641e+02
   endloop
 endfacet
 facet normal  4.467906e-01 -8.924151e-01 -6.303591e-02
   outer loop
     vertex -2.658754e+02  6.108910e+02 -4.070963e+02
     vertex -2.740452e+02  6.024332e+02 -3.452641e+02
     vertex -2.749910e+02  6.019730e+02 -3.454531e+02
   endloop
 endfacet
 facet normal  4.450043e-01 -8.932796e-01 -6.342513e-02
   outer loop
     vertex -2.668180e+02  6.104348e+02 -4.072843e+02
     vertex -2.658754e+02  6.108910e+02 -4.070963e+02
     vertex -2.749910e+02  6.019730e+02 -3.454531e+02
   endloop
 endfacet
 facet normal  4.133853e-01 -9.078920e-01 -6.960435e-02
   outer loop
     vertex -2.668180e+02  6.104348e+02 -4.072843e+02
     vertex -2.749910e+02  6.019730e+02 -3.454531e+02
     vertex -2.759540e+02  6.015489e+02 -3.456394e+02
   endloop
 endfacet
 facet normal  4.117122e-01 -9.086248e-01 -6.995794e-02
   outer loop
     vertex -2.677777e+02  6.100142e+02 -4.074696e+02
     vertex -2.668180e+02  6.104348e+02 -4.072843e+02
     vertex -2.759540e+02  6.015489e+02 -3.456394e+02
   endloop
 endfacet
 facet normal  3.794019e-01 -9.220991e-01 -7.607543e-02
   outer loop
     vertex -2.677777e+02  6.100142e+02 -4.074696e+02
     vertex -2.759540e+02  6.015489e+02 -3.456394e+02
     vertex -2.769329e+02  6.011612e+02 -3.458228e+02
   endloop
 endfacet
 facet normal  3.448878e-01 -9.350166e-01 -8.244010e-02
   outer loop
     vertex -2.687530e+02  6.096299e+02 -4.076521e+02
     vertex -2.769329e+02  6.011612e+02 -3.458228e+02
     vertex -2.779262e+02  6.008107e+02 -3.460030e+02
   endloop
 endfacet
 facet normal  3.778492e-01 -9.227101e-01 -7.639377e-02
   outer loop
     vertex -2.687530e+02  6.096299e+02 -4.076521e+02
     vertex -2.677777e+02  6.100142e+02 -4.074696e+02
     vertex -2.769329e+02  6.011612e+02 -3.458228e+02
   endloop
 endfacet
 facet normal  3.098914e-01 -9.466264e-01 -8.868947e-02
   outer loop
     vertex -2.697425e+02  6.092825e+02 -4.078314e+02
     vertex -2.779262e+02  6.008107e+02 -3.460030e+02
     vertex -2.789326e+02  6.004978e+02 -3.461798e+02
   endloop
 endfacet
 facet normal  3.434623e-01 -9.355161e-01 -8.272368e-02
   outer loop
     vertex -2.697425e+02  6.092825e+02 -4.078314e+02
     vertex -2.687530e+02  6.096299e+02 -4.076521e+02
     vertex -2.779262e+02  6.008107e+02 -3.460030e+02
   endloop
 endfacet
 facet normal  2.744616e-01 -9.569122e-01 -9.481479e-02
   outer loop
     vertex -2.707450e+02  6.089723e+02 -4.080073e+02
     vertex -2.789326e+02  6.004978e+02 -3.461798e+02
     vertex -2.799506e+02  6.002230e+02 -3.463529e+02
   endloop
 endfacet
 facet normal  3.085992e-01 -9.470250e-01 -8.893890e-02
   outer loop
     vertex -2.707450e+02  6.089723e+02 -4.080073e+02
     vertex -2.697425e+02  6.092825e+02 -4.078314e+02
     vertex -2.789326e+02  6.004978e+02 -3.461798e+02
   endloop
 endfacet
 facet normal  2.386479e-01 -9.658597e-01 -1.008075e-01
   outer loop
     vertex -2.717590e+02  6.086999e+02 -4.081795e+02
     vertex -2.799506e+02  6.002230e+02 -3.463529e+02
     vertex -2.809790e+02  5.999866e+02 -3.465221e+02
   endloop
 endfacet
 facet normal  2.733082e-01 -9.572209e-01 -9.503080e-02
   outer loop
     vertex -2.717590e+02  6.086999e+02 -4.081795e+02
     vertex -2.707450e+02  6.089723e+02 -4.080073e+02
     vertex -2.799506e+02  6.002230e+02 -3.463529e+02
   endloop
 endfacet
 facet normal  2.025004e-01 -9.734564e-01 -1.066592e-01
   outer loop
     vertex -2.727832e+02  6.084656e+02 -4.083479e+02
     vertex -2.809790e+02  5.999866e+02 -3.465221e+02
     vertex -2.820161e+02  5.997889e+02 -3.466872e+02
   endloop
 endfacet
 facet normal  2.376383e-01 -9.660895e-01 -1.009909e-01
   outer loop
     vertex -2.727832e+02  6.084656e+02 -4.083479e+02
     vertex -2.717590e+02  6.086999e+02 -4.081795e+02
     vertex -2.809790e+02  5.999866e+02 -3.465221e+02
   endloop
 endfacet
 facet normal  1.660698e-01 -9.796916e-01 -1.123618e-01
   outer loop
     vertex -2.738161e+02  6.082697e+02 -4.085122e+02
     vertex -2.820161e+02  5.997889e+02 -3.466872e+02
     vertex -2.830606e+02  5.996303e+02 -3.468479e+02
   endloop
 endfacet
 facet normal  2.016388e-01 -9.736186e-01 -1.068111e-01
   outer loop
     vertex -2.738161e+02  6.082697e+02 -4.085122e+02
     vertex -2.727832e+02  6.084656e+02 -4.083479e+02
     vertex -2.820161e+02  5.997889e+02 -3.466872e+02
   endloop
 endfacet
 facet normal  1.653598e-01 -9.797978e-01 -1.124831e-01
   outer loop
     vertex -2.748562e+02  6.081125e+02 -4.086721e+02
     vertex -2.738161e+02  6.082697e+02 -4.085122e+02
     vertex -2.830606e+02  5.996303e+02 -3.468479e+02
   endloop
 endfacet
 facet normal  1.385920e-01 -9.834688e-01 -1.165390e-01
   outer loop
     vertex -2.748562e+02  6.081125e+02 -4.086721e+02
     vertex -2.830606e+02  5.996303e+02 -3.468479e+02
     vertex -2.835852e+02  5.995657e+02 -3.469265e+02
   endloop
 endfacet
 facet normal  1.288613e-01 -9.846084e-01 -1.180724e-01
   outer loop
     vertex -2.759021e+02  6.079942e+02 -4.088274e+02
     vertex -2.748562e+02  6.081125e+02 -4.086721e+02
     vertex -2.835852e+02  5.995657e+02 -3.469265e+02
   endloop
 endfacet
 facet normal  1.202118e-01 -9.855570e-01 -1.192751e-01
   outer loop
     vertex -2.759021e+02  6.079942e+02 -4.088274e+02
     vertex -2.835852e+02  5.995657e+02 -3.469265e+02
     vertex -2.841110e+02  5.995109e+02 -3.470040e+02
   endloop
 endfacet
 facet normal  1.017884e-01 -9.873017e-01 -1.219608e-01
   outer loop
     vertex -2.759021e+02  6.079942e+02 -4.088274e+02
     vertex -2.841110e+02  5.995109e+02 -3.470040e+02
     vertex -2.846380e+02  5.994660e+02 -3.470803e+02
   endloop
 endfacet
 facet normal  9.217455e-02 -9.880637e-01 -1.234262e-01
   outer loop
     vertex -2.769525e+02  6.079151e+02 -4.089780e+02
     vertex -2.759021e+02  6.079942e+02 -4.088274e+02
     vertex -2.846380e+02  5.994660e+02 -3.470803e+02
   endloop
 endfacet
 facet normal  8.333037e-02 -9.887002e-01 -1.246112e-01
   outer loop
     vertex -2.769525e+02  6.079151e+02 -4.089780e+02
     vertex -2.846380e+02  5.994660e+02 -3.470803e+02
     vertex -2.851659e+02  5.994310e+02 -3.471553e+02
   endloop
 endfacet
 facet normal  5.558955e-02 -9.901508e-01 -1.284958e-01
   outer loop
     vertex -2.769525e+02  6.079151e+02 -4.089780e+02
     vertex -2.851659e+02  5.994310e+02 -3.471553e+02
     vertex -2.862237e+02  5.993906e+02 -3.473015e+02
   endloop
 endfacet
 facet normal  5.534990e-02 -9.901594e-01 -1.285330e-01
   outer loop
     vertex -2.780057e+02  6.078751e+02 -4.091236e+02
     vertex -2.769525e+02  6.079151e+02 -4.089780e+02
     vertex -2.862237e+02  5.993906e+02 -3.473015e+02
   endloop
 endfacet
 facet normal  1.853843e-02 -9.908722e-01 -1.335241e-01
   outer loop
     vertex -2.780057e+02  6.078751e+02 -4.091236e+02
     vertex -2.862237e+02  5.993906e+02 -3.473015e+02
     vertex -2.872830e+02  5.993897e+02 -3.474425e+02
   endloop
 endfacet
 facet normal  1.845844e-02 -9.908720e-01 -1.335362e-01
   outer loop
     vertex -2.790604e+02  6.078744e+02 -4.092640e+02
     vertex -2.780057e+02  6.078751e+02 -4.091236e+02
     vertex -2.872830e+02  5.993897e+02 -3.474425e+02
   endloop
 endfacet
endsolid
