solid 
 facet normal  1.876194e-02  9.901995e-01  1.383944e-01
   outer loop
     vertex -2.790604e+02  6.090822e+02 -4.090982e+02
     vertex -2.883093e+02  6.006354e+02 -3.474081e+02
     vertex -2.872830e+02  6.005976e+02 -3.472768e+02
   endloop
 endfacet
 facet normal  1.883242e-02  9.901967e-01  1.384045e-01
   outer loop
     vertex -2.800906e+02  6.091203e+02 -4.092300e+02
     vertex -2.883093e+02  6.006354e+02 -3.474081e+02
     vertex -2.790604e+02  6.090822e+02 -4.090982e+02
   endloop
 endfacet
 facet normal  5.625911e-02  9.881089e-01  1.430936e-01
   outer loop
     vertex -2.800906e+02  6.091203e+02 -4.092300e+02
     vertex -2.893342e+02  6.007120e+02 -3.475339e+02
     vertex -2.883093e+02  6.006354e+02 -3.474081e+02
   endloop
 endfacet
 facet normal  5.647025e-02  9.880926e-01  1.431230e-01
   outer loop
     vertex -2.811193e+02  6.091973e+02 -4.093562e+02
     vertex -2.893342e+02  6.007120e+02 -3.475339e+02
     vertex -2.800906e+02  6.091203e+02 -4.092300e+02
   endloop
 endfacet
 facet normal  9.367568e-02  9.846028e-01  1.475878e-01
   outer loop
     vertex -2.811193e+02  6.091973e+02 -4.093562e+02
     vertex -2.903561e+02  6.008272e+02 -3.476540e+02
     vertex -2.893342e+02  6.007120e+02 -3.475339e+02
   endloop
 endfacet
 facet normal  9.402657e-02  9.845623e-01  1.476348e-01
   outer loop
     vertex -2.821450e+02  6.093134e+02 -4.094767e+02
     vertex -2.903561e+02  6.008272e+02 -3.476540e+02
     vertex -2.811193e+02  6.091973e+02 -4.093562e+02
   endloop
 endfacet
 facet normal  1.309581e-01  9.796863e-01  1.518706e-01
   outer loop
     vertex -2.821450e+02  6.093134e+02 -4.094767e+02
     vertex -2.913736e+02  6.009809e+02 -3.477682e+02
     vertex -2.903561e+02  6.008272e+02 -3.476540e+02
   endloop
 endfacet
 facet normal  1.314472e-01  9.796111e-01  1.519336e-01
   outer loop
     vertex -2.831663e+02  6.094682e+02 -4.095913e+02
     vertex -2.913736e+02  6.009809e+02 -3.477682e+02
     vertex -2.821450e+02  6.093134e+02 -4.094767e+02
   endloop
 endfacet
 facet normal  1.680528e-01  9.733664e-01  1.559359e-01
   outer loop
     vertex -2.831663e+02  6.094682e+02 -4.095913e+02
     vertex -2.923852e+02  6.011729e+02 -3.478764e+02
     vertex -2.913736e+02  6.009809e+02 -3.477682e+02
   endloop
 endfacet
 facet normal  2.049069e-01  9.656522e-01  1.597778e-01
   outer loop
     vertex -2.841816e+02  6.096615e+02 -4.096998e+02
     vertex -2.933895e+02  6.014029e+02 -3.479784e+02
     vertex -2.923852e+02  6.011729e+02 -3.478764e+02
   endloop
 endfacet
 facet normal  1.686781e-01  9.732459e-01  1.560131e-01
   outer loop
     vertex -2.841816e+02  6.096615e+02 -4.096998e+02
     vertex -2.923852e+02  6.011729e+02 -3.478764e+02
     vertex -2.831663e+02  6.094682e+02 -4.095913e+02
   endloop
 endfacet
 facet normal  2.414674e-01  9.565547e-01  1.633908e-01
   outer loop
     vertex -2.851896e+02  6.098932e+02 -4.098021e+02
     vertex -2.943851e+02  6.016706e+02 -3.480741e+02
     vertex -2.933895e+02  6.014029e+02 -3.479784e+02
   endloop
 endfacet
 facet normal  2.056655e-01  9.654761e-01  1.598674e-01
   outer loop
     vertex -2.851896e+02  6.098932e+02 -4.098021e+02
     vertex -2.933895e+02  6.014029e+02 -3.479784e+02
     vertex -2.841816e+02  6.096615e+02 -4.096998e+02
   endloop
 endfacet
 facet normal  2.776820e-01  9.460870e-01  1.667698e-01
   outer loop
     vertex -2.861887e+02  6.101628e+02 -4.098980e+02
     vertex -2.953705e+02  6.019755e+02 -3.481633e+02
     vertex -2.943851e+02  6.016706e+02 -3.480741e+02
   endloop
 endfacet
 facet normal  2.423561e-01  9.563128e-01  1.634910e-01
   outer loop
     vertex -2.861887e+02  6.101628e+02 -4.098980e+02
     vertex -2.943851e+02  6.016706e+02 -3.480741e+02
     vertex -2.851896e+02  6.098932e+02 -4.098021e+02
   endloop
 endfacet
 facet normal  2.786969e-01  9.457693e-01  1.668786e-01
   outer loop
     vertex -2.871775e+02  6.104699e+02 -4.099873e+02
     vertex -2.953705e+02  6.019755e+02 -3.481633e+02
     vertex -2.861887e+02  6.101628e+02 -4.098980e+02
   endloop
 endfacet
 facet normal  3.134989e-01  9.342639e-01  1.699099e-01
   outer loop
     vertex -2.871775e+02  6.104699e+02 -4.099873e+02
     vertex -2.963444e+02  6.023173e+02 -3.482459e+02
     vertex -2.953705e+02  6.019755e+02 -3.481633e+02
   endloop
 endfacet
 facet normal  3.146355e-01  9.338607e-01  1.700254e-01
   outer loop
     vertex -2.881546e+02  6.108142e+02 -4.100701e+02
     vertex -2.963444e+02  6.023173e+02 -3.482459e+02
     vertex -2.871775e+02  6.104699e+02 -4.099873e+02
   endloop
 endfacet
 facet normal  3.488666e-01  9.211026e-01  1.728065e-01
   outer loop
     vertex -2.881546e+02  6.108142e+02 -4.100701e+02
     vertex -2.973052e+02  6.026955e+02 -3.483218e+02
     vertex -2.963444e+02  6.023173e+02 -3.482459e+02
   endloop
 endfacet
 facet normal  3.501200e-01  9.206043e-01  1.729268e-01
   outer loop
     vertex -2.891185e+02  6.111951e+02 -4.101460e+02
     vertex -2.973052e+02  6.026955e+02 -3.483218e+02
     vertex -2.881546e+02  6.108142e+02 -4.100701e+02
   endloop
 endfacet
 facet normal  3.837347e-01  9.066218e-01  1.754557e-01
   outer loop
     vertex -2.891185e+02  6.111951e+02 -4.101460e+02
     vertex -2.982517e+02  6.031095e+02 -3.483909e+02
     vertex -2.973052e+02  6.026955e+02 -3.483218e+02
   endloop
 endfacet
 facet normal  3.850991e-01  9.060192e-01  1.755786e-01
   outer loop
     vertex -2.900680e+02  6.116120e+02 -4.102151e+02
     vertex -2.982517e+02  6.031095e+02 -3.483909e+02
     vertex -2.891185e+02  6.111951e+02 -4.101460e+02
   endloop
 endfacet
 facet normal  4.180530e-01  8.908422e-01  1.778534e-01
   outer loop
     vertex -2.900680e+02  6.116120e+02 -4.102151e+02
     vertex -2.991825e+02  6.035587e+02 -3.484531e+02
     vertex -2.982517e+02  6.031095e+02 -3.483909e+02
   endloop
 endfacet
 facet normal  4.195224e-01  8.901265e-01  1.779770e-01
   outer loop
     vertex -2.910016e+02  6.120644e+02 -4.102771e+02
     vertex -2.991825e+02  6.035587e+02 -3.484531e+02
     vertex -2.900680e+02  6.116120e+02 -4.102151e+02
   endloop
 endfacet
 facet normal  4.517724e-01  8.737866e-01  1.799964e-01
   outer loop
     vertex -2.910016e+02  6.120644e+02 -4.102771e+02
     vertex -3.000962e+02  6.040425e+02 -3.485082e+02
     vertex -2.991825e+02  6.035587e+02 -3.484531e+02
   endloop
 endfacet
 facet normal  4.533402e-01  8.729490e-01  1.801185e-01
   outer loop
     vertex -2.919179e+02  6.125516e+02 -4.103321e+02
     vertex -3.000962e+02  6.040425e+02 -3.485082e+02
     vertex -2.910016e+02  6.120644e+02 -4.102771e+02
   endloop
 endfacet
 facet normal  4.848447e-01  8.554792e-01  1.818816e-01
   outer loop
     vertex -2.919179e+02  6.125516e+02 -4.103321e+02
     vertex -3.009916e+02  6.045601e+02 -3.485562e+02
     vertex -3.000962e+02  6.040425e+02 -3.485082e+02
   endloop
 endfacet
 facet normal  4.865038e-01  8.545116e-01  1.820001e-01
   outer loop
     vertex -2.928157e+02  6.130730e+02 -4.103800e+02
     vertex -3.009916e+02  6.045601e+02 -3.485562e+02
     vertex -2.919179e+02  6.125516e+02 -4.103321e+02
   endloop
 endfacet
 facet normal  5.172225e-01  8.359464e-01  1.835062e-01
   outer loop
     vertex -2.928157e+02  6.130730e+02 -4.103800e+02
     vertex -3.018673e+02  6.051109e+02 -3.485971e+02
     vertex -3.009916e+02  6.045601e+02 -3.485562e+02
   endloop
 endfacet
 facet normal  5.488594e-01  8.152161e-01  1.848679e-01
   outer loop
     vertex -2.936936e+02  6.136277e+02 -4.104206e+02
     vertex -3.027222e+02  6.056941e+02 -3.486308e+02
     vertex -3.018673e+02  6.051109e+02 -3.485971e+02
   endloop
 endfacet
 facet normal  5.189651e-01  8.348409e-01  1.836190e-01
   outer loop
     vertex -2.936936e+02  6.136277e+02 -4.104206e+02
     vertex -3.018673e+02  6.051109e+02 -3.485971e+02
     vertex -2.928157e+02  6.130730e+02 -4.103800e+02
   endloop
 endfacet
 facet normal  5.797100e-01  7.933180e-01  1.859647e-01
   outer loop
     vertex -2.945504e+02  6.142149e+02 -4.104540e+02
     vertex -3.035549e+02  6.063088e+02 -3.486572e+02
     vertex -3.027222e+02  6.056941e+02 -3.486308e+02
   endloop
 endfacet
 facet normal  5.506774e-01  8.139652e-01  1.849729e-01
   outer loop
     vertex -2.945504e+02  6.142149e+02 -4.104540e+02
     vertex -3.027222e+02  6.056941e+02 -3.486308e+02
     vertex -2.936936e+02  6.136277e+02 -4.104206e+02
   endloop
 endfacet
 facet normal  6.097302e-01  7.702835e-01  1.867952e-01
   outer loop
     vertex -2.953848e+02  6.148338e+02 -4.104800e+02
     vertex -3.043643e+02  6.069542e+02 -3.486763e+02
     vertex -3.035549e+02  6.063088e+02 -3.486572e+02
   endloop
 endfacet
 facet normal  5.815949e-01  7.919148e-01  1.860599e-01
   outer loop
     vertex -2.953848e+02  6.148338e+02 -4.104800e+02
     vertex -3.035549e+02  6.063088e+02 -3.486572e+02
     vertex -2.945504e+02  6.142149e+02 -4.104540e+02
   endloop
 endfacet
 facet normal  6.388770e-01  7.461456e-01  1.873580e-01
   outer loop
     vertex -2.961957e+02  6.154836e+02 -4.104987e+02
     vertex -3.051493e+02  6.076292e+02 -3.486880e+02
     vertex -3.043643e+02  6.069542e+02 -3.486763e+02
   endloop
 endfacet
 facet normal  6.116731e-01  7.687214e-01  1.868783e-01
   outer loop
     vertex -2.961957e+02  6.154836e+02 -4.104987e+02
     vertex -3.043643e+02  6.069542e+02 -3.486763e+02
     vertex -2.953848e+02  6.148338e+02 -4.104800e+02
   endloop
 endfacet
 facet normal  6.671084e-01  7.209386e-01  1.876537e-01
   outer loop
     vertex -2.969782e+02  6.161599e+02 -4.105100e+02
     vertex -3.059086e+02  6.083330e+02 -3.486924e+02
     vertex -3.051493e+02  6.076292e+02 -3.486880e+02
   endloop
 endfacet
 facet normal  6.407997e-01  7.444782e-01  1.874247e-01
   outer loop
     vertex -2.969782e+02  6.161599e+02 -4.105100e+02
     vertex -3.051493e+02  6.076292e+02 -3.486880e+02
     vertex -2.961957e+02  6.154836e+02 -4.104987e+02
   endloop
 endfacet
 facet normal  6.943842e-01  6.946989e-01  1.876806e-01
   outer loop
     vertex -2.977350e+02  6.168649e+02 -4.105139e+02
     vertex -3.066413e+02  6.090646e+02 -3.486895e+02
     vertex -3.059086e+02  6.083330e+02 -3.486924e+02
   endloop
 endfacet
 facet normal  6.689393e-01  7.192276e-01  1.877016e-01
   outer loop
     vertex -2.977350e+02  6.168649e+02 -4.105139e+02
     vertex -3.059086e+02  6.083330e+02 -3.486924e+02
     vertex -2.969782e+02  6.161599e+02 -4.105100e+02
   endloop
 endfacet
 facet normal  7.206653e-01  6.674641e-01  1.874386e-01
   outer loop
     vertex -2.984652e+02  6.175974e+02 -4.105105e+02
     vertex -3.073463e+02  6.098228e+02 -3.486792e+02
     vertex -3.066413e+02  6.090646e+02 -3.486895e+02
   endloop
 endfacet
 facet normal  6.961226e-01  6.929489e-01  1.877102e-01
   outer loop
     vertex -2.984652e+02  6.175974e+02 -4.105105e+02
     vertex -3.066413e+02  6.090646e+02 -3.486895e+02
     vertex -2.977350e+02  6.168649e+02 -4.105139e+02
   endloop
 endfacet
 facet normal  7.459140e-01  6.392732e-01  1.869281e-01
   outer loop
     vertex -2.991676e+02  6.183565e+02 -4.104997e+02
     vertex -3.080225e+02  6.106067e+02 -3.486615e+02
     vertex -3.073463e+02  6.098228e+02 -3.486792e+02
   endloop
 endfacet
 facet normal  7.223108e-01  6.656796e-01  1.874506e-01
   outer loop
     vertex -2.991676e+02  6.183565e+02 -4.104997e+02
     vertex -3.073463e+02  6.098228e+02 -3.486792e+02
     vertex -2.984652e+02  6.175974e+02 -4.105105e+02
   endloop
 endfacet
 facet normal  7.700943e-01  6.101664e-01  1.861497e-01
   outer loop
     vertex -2.998412e+02  6.191411e+02 -4.104816e+02
     vertex -3.086690e+02  6.114150e+02 -3.486366e+02
     vertex -3.080225e+02  6.106067e+02 -3.486615e+02
   endloop
 endfacet
 facet normal  7.474665e-01  6.374587e-01  1.869230e-01
   outer loop
     vertex -2.998412e+02  6.191411e+02 -4.104816e+02
     vertex -3.080225e+02  6.106067e+02 -3.486615e+02
     vertex -2.991676e+02  6.183565e+02 -4.104997e+02
   endloop
 endfacet
 facet normal  7.931714e-01  5.801857e-01  1.851047e-01
   outer loop
     vertex -3.004852e+02  6.199501e+02 -4.104562e+02
     vertex -3.092848e+02  6.122467e+02 -3.486044e+02
     vertex -3.086690e+02  6.114150e+02 -3.486366e+02
   endloop
 endfacet
 facet normal  7.715537e-01  6.083266e-01  1.861282e-01
   outer loop
     vertex -3.004852e+02  6.199501e+02 -4.104562e+02
     vertex -3.086690e+02  6.114150e+02 -3.486366e+02
     vertex -2.998412e+02  6.191411e+02 -4.104816e+02
   endloop
 endfacet
 facet normal  8.151122e-01  5.493738e-01  1.837945e-01
   outer loop
     vertex -3.010985e+02  6.207823e+02 -4.104236e+02
     vertex -3.098692e+02  6.131005e+02 -3.485649e+02
     vertex -3.092848e+02  6.122467e+02 -3.486044e+02
   endloop
 endfacet
 facet normal  7.945379e-01  5.783248e-01  1.850674e-01
   outer loop
     vertex -3.010985e+02  6.207823e+02 -4.104236e+02
     vertex -3.092848e+02  6.122467e+02 -3.486044e+02
     vertex -3.004852e+02  6.199501e+02 -4.104562e+02
   endloop
 endfacet
 facet normal  8.358855e-01  5.177750e-01  1.822210e-01
   outer loop
     vertex -3.016803e+02  6.216365e+02 -4.103838e+02
     vertex -3.104212e+02  6.139752e+02 -3.485183e+02
     vertex -3.098692e+02  6.131005e+02 -3.485649e+02
   endloop
 endfacet
 facet normal  8.163863e-01  5.474963e-01  1.837420e-01
   outer loop
     vertex -3.016803e+02  6.216365e+02 -4.103838e+02
     vertex -3.098692e+02  6.131005e+02 -3.485649e+02
     vertex -3.010985e+02  6.207823e+02 -4.104236e+02
   endloop
 endfacet
 facet normal  8.554614e-01  4.854344e-01  1.803865e-01
   outer loop
     vertex -3.022298e+02  6.225115e+02 -4.103368e+02
     vertex -3.109400e+02  6.148695e+02 -3.484645e+02
     vertex -3.104212e+02  6.139752e+02 -3.485183e+02
   endloop
 endfacet
 facet normal  8.370677e-01  5.158852e-01  1.821540e-01
   outer loop
     vertex -3.022298e+02  6.225115e+02 -4.103368e+02
     vertex -3.104212e+02  6.139752e+02 -3.485183e+02
     vertex -3.016803e+02  6.216365e+02 -4.103838e+02
   endloop
 endfacet
 facet normal  8.738118e-01  4.523985e-01  1.782935e-01
   outer loop
     vertex -3.027462e+02  6.234060e+02 -4.102827e+02
     vertex -3.114250e+02  6.157823e+02 -3.484038e+02
     vertex -3.109400e+02  6.148695e+02 -3.484645e+02
   endloop
 endfacet
 facet normal  8.565525e-01  4.835366e-01  1.803057e-01
   outer loop
     vertex -3.027462e+02  6.234060e+02 -4.102827e+02
     vertex -3.109400e+02  6.148695e+02 -3.484645e+02
     vertex -3.022298e+02  6.225115e+02 -4.103368e+02
   endloop
 endfacet
 facet normal  8.909105e-01  4.187145e-01  1.759451e-01
   outer loop
     vertex -3.032287e+02  6.243188e+02 -4.102216e+02
     vertex -3.118753e+02  6.167121e+02 -3.483360e+02
     vertex -3.114250e+02  6.157823e+02 -3.484038e+02
   endloop
 endfacet
 facet normal  8.748129e-01  4.504968e-01  1.781996e-01
   outer loop
     vertex -3.032287e+02  6.243188e+02 -4.102216e+02
     vertex -3.114250e+02  6.157823e+02 -3.484038e+02
     vertex -3.027462e+02  6.234060e+02 -4.102827e+02
   endloop
 endfacet
 facet normal  9.067329e-01  3.844308e-01  1.733446e-01
   outer loop
     vertex -3.036766e+02  6.252486e+02 -4.101535e+02
     vertex -3.122905e+02  6.176577e+02 -3.482615e+02
     vertex -3.118753e+02  6.167121e+02 -3.483360e+02
   endloop
 endfacet
 facet normal  8.918227e-01  4.168130e-01  1.758388e-01
   outer loop
     vertex -3.036766e+02  6.252486e+02 -4.101535e+02
     vertex -3.118753e+02  6.167121e+02 -3.483360e+02
     vertex -3.032287e+02  6.243188e+02 -4.102216e+02
   endloop
 endfacet
 facet normal  9.212565e-01  3.495963e-01  1.704958e-01
   outer loop
     vertex -3.040894e+02  6.261940e+02 -4.100787e+02
     vertex -3.126698e+02  6.186176e+02 -3.481802e+02
     vertex -3.122905e+02  6.176577e+02 -3.482615e+02
   endloop
 endfacet
 facet normal  9.075576e-01  3.825334e-01  1.732267e-01
   outer loop
     vertex -3.040894e+02  6.261940e+02 -4.100787e+02
     vertex -3.122905e+02  6.176577e+02 -3.482615e+02
     vertex -3.036766e+02  6.252486e+02 -4.101535e+02
   endloop
 endfacet
 facet normal  9.344604e-01  3.142611e-01  1.674027e-01
   outer loop
     vertex -3.044664e+02  6.271537e+02 -4.099971e+02
     vertex -3.130128e+02  6.195906e+02 -3.480923e+02
     vertex -3.126698e+02  6.186176e+02 -3.481802e+02
   endloop
 endfacet
 facet normal  9.219951e-01  3.477069e-01  1.703669e-01
   outer loop
     vertex -3.044664e+02  6.271537e+02 -4.099971e+02
     vertex -3.126698e+02  6.186176e+02 -3.481802e+02
     vertex -3.040894e+02  6.261940e+02 -4.100787e+02
   endloop
 endfacet
 facet normal  9.351147e-01  3.123833e-01  1.672636e-01
   outer loop
     vertex -3.048071e+02  6.281263e+02 -4.099089e+02
     vertex -3.130128e+02  6.195906e+02 -3.480923e+02
     vertex -3.044664e+02  6.271537e+02 -4.099971e+02
   endloop
 endfacet
 facet normal  9.463257e-01  2.784756e-01  1.640698e-01
   outer loop
     vertex -3.048071e+02  6.281263e+02 -4.099089e+02
     vertex -3.133189e+02  6.205752e+02 -3.479979e+02
     vertex -3.130128e+02  6.195906e+02 -3.480923e+02
   endloop
 endfacet
 facet normal  9.468975e-01  2.766133e-01  1.639213e-01
   outer loop
     vertex -3.051109e+02  6.291104e+02 -4.098143e+02
     vertex -3.133189e+02  6.205752e+02 -3.479979e+02
     vertex -3.048071e+02  6.281263e+02 -4.099089e+02
   endloop
 endfacet
 facet normal  9.568354e-01  2.422913e-01  1.605019e-01
   outer loop
     vertex -3.051109e+02  6.291104e+02 -4.098143e+02
     vertex -3.135877e+02  6.215699e+02 -3.478971e+02
     vertex -3.133189e+02  6.205752e+02 -3.479979e+02
   endloop
 endfacet
 facet normal  9.573267e-01  2.404477e-01  1.603446e-01
   outer loop
     vertex -3.053776e+02  6.301046e+02 -4.097133e+02
     vertex -3.135877e+02  6.215699e+02 -3.478971e+02
     vertex -3.051109e+02  6.291104e+02 -4.098143e+02
   endloop
 endfacet
 facet normal  9.659745e-01  2.057599e-01  1.567040e-01
   outer loop
     vertex -3.053776e+02  6.301046e+02 -4.097133e+02
     vertex -3.138188e+02  6.225735e+02 -3.477901e+02
     vertex -3.135877e+02  6.215699e+02 -3.478971e+02
   endloop
 endfacet
 facet normal  9.663874e-01  2.039385e-01  1.565388e-01
   outer loop
     vertex -3.056066e+02  6.311075e+02 -4.096061e+02
     vertex -3.138188e+02  6.225735e+02 -3.477901e+02
     vertex -3.053776e+02  6.301046e+02 -4.097133e+02
   endloop
 endfacet
 facet normal  9.737298e-01  1.689337e-01  1.526816e-01
   outer loop
     vertex -3.056066e+02  6.311075e+02 -4.096061e+02
     vertex -3.140119e+02  6.235844e+02 -3.476770e+02
     vertex -3.138188e+02  6.225735e+02 -3.477901e+02
   endloop
 endfacet
 facet normal  9.740667e-01  1.671377e-01  1.525092e-01
   outer loop
     vertex -3.057976e+02  6.321176e+02 -4.094929e+02
     vertex -3.140119e+02  6.235844e+02 -3.476770e+02
     vertex -3.056066e+02  6.311075e+02 -4.096061e+02
   endloop
 endfacet
 facet normal  9.800902e-01  1.318656e-01  1.484405e-01
   outer loop
     vertex -3.057976e+02  6.321176e+02 -4.094929e+02
     vertex -3.141667e+02  6.246012e+02 -3.475581e+02
     vertex -3.140119e+02  6.235844e+02 -3.476770e+02
   endloop
 endfacet
 facet normal  9.803535e-01  1.300981e-01  1.482616e-01
   outer loop
     vertex -3.059505e+02  6.331336e+02 -4.093738e+02
     vertex -3.141667e+02  6.246012e+02 -3.475581e+02
     vertex -3.057976e+02  6.321176e+02 -4.094929e+02
   endloop
 endfacet
 facet normal  9.850467e-01  9.460851e-02  1.439868e-01
   outer loop
     vertex -3.059505e+02  6.331336e+02 -4.093738e+02
     vertex -3.142830e+02  6.256224e+02 -3.474334e+02
     vertex -3.141667e+02  6.246012e+02 -3.475581e+02
   endloop
 endfacet
 facet normal  9.885921e-01  5.721594e-02  1.393267e-01
   outer loop
     vertex -3.060649e+02  6.341540e+02 -4.092490e+02
     vertex -3.143607e+02  6.266466e+02 -3.473032e+02
     vertex -3.142830e+02  6.256224e+02 -3.474334e+02
   endloop
 endfacet
 facet normal  9.852389e-01  9.287238e-02  1.438021e-01
   outer loop
     vertex -3.060649e+02  6.341540e+02 -4.092490e+02
     vertex -3.142830e+02  6.256224e+02 -3.474334e+02
     vertex -3.059505e+02  6.331336e+02 -4.093738e+02
   endloop
 endfacet
 facet normal  9.907214e-01  1.974141e-02  1.344671e-01
   outer loop
     vertex -3.061407e+02  6.351772e+02 -4.091186e+02
     vertex -3.143995e+02  6.276723e+02 -3.471676e+02
     vertex -3.143607e+02  6.266466e+02 -3.473032e+02
   endloop
 endfacet
 facet normal  9.887159e-01  5.551395e-02  1.391370e-01
   outer loop
     vertex -3.061407e+02  6.351772e+02 -4.091186e+02
     vertex -3.143607e+02  6.266466e+02 -3.473032e+02
     vertex -3.060649e+02  6.341540e+02 -4.092490e+02
   endloop
 endfacet
 facet normal  9.914315e-01 -1.776140e-02  1.294148e-01
   outer loop
     vertex -3.061777e+02  6.362019e+02 -4.089829e+02
     vertex -3.143995e+02  6.286981e+02 -3.470268e+02
     vertex -3.143995e+02  6.276723e+02 -3.471676e+02
   endloop
 endfacet
 facet normal  9.907795e-01  1.807615e-02  1.342731e-01
   outer loop
     vertex -3.061777e+02  6.362019e+02 -4.089829e+02
     vertex -3.143995e+02  6.276723e+02 -3.471676e+02
     vertex -3.061407e+02  6.351772e+02 -4.091186e+02
   endloop
 endfacet
 facet normal  9.907213e-01 -5.523876e-02  1.241771e-01
   outer loop
     vertex -3.061761e+02  6.372265e+02 -4.088421e+02
     vertex -3.143607e+02  6.297224e+02 -3.468810e+02
     vertex -3.143995e+02  6.286981e+02 -3.470268e+02
   endloop
 endfacet
 facet normal  9.914268e-01 -1.938749e-02  1.292172e-01
   outer loop
     vertex -3.061761e+02  6.372265e+02 -4.088421e+02
     vertex -3.143995e+02  6.286981e+02 -3.470268e+02
     vertex -3.061777e+02  6.362019e+02 -4.089829e+02
   endloop
 endfacet
 facet normal  9.885920e-01 -9.263699e-02  1.187615e-01
   outer loop
     vertex -3.061356e+02  6.382497e+02 -4.086963e+02
     vertex -3.142830e+02  6.307438e+02 -3.467305e+02
     vertex -3.143607e+02  6.297224e+02 -3.468810e+02
   endloop
 endfacet
 facet normal  9.906568e-01 -5.682341e-02  1.239766e-01
   outer loop
     vertex -3.061356e+02  6.382497e+02 -4.086963e+02
     vertex -3.143607e+02  6.297224e+02 -3.468810e+02
     vertex -3.061761e+02  6.372265e+02 -4.088421e+02
   endloop
 endfacet
 facet normal  9.850465e-01 -1.299025e-01  1.131758e-01
   outer loop
     vertex -3.060565e+02  6.392699e+02 -4.085457e+02
     vertex -3.141667e+02  6.317609e+02 -3.465755e+02
     vertex -3.142830e+02  6.307438e+02 -3.467305e+02
   endloop
 endfacet
 facet normal  9.884707e-01 -9.417811e-02  1.185589e-01
   outer loop
     vertex -3.060565e+02  6.392699e+02 -4.085457e+02
     vertex -3.142830e+02  6.307438e+02 -3.467305e+02
     vertex -3.061356e+02  6.382497e+02 -4.086963e+02
   endloop
 endfacet
 facet normal  9.800899e-01 -1.669820e-01  1.074279e-01
   outer loop
     vertex -3.059387e+02  6.402857e+02 -4.083907e+02
     vertex -3.140119e+02  6.327721e+02 -3.464161e+02
     vertex -3.141667e+02  6.317609e+02 -3.465755e+02
   endloop
 endfacet
 facet normal  9.848715e-01 -1.313982e-01  1.129716e-01
   outer loop
     vertex -3.059387e+02  6.402857e+02 -4.083907e+02
     vertex -3.141667e+02  6.317609e+02 -3.465755e+02
     vertex -3.060565e+02  6.392699e+02 -4.085457e+02
   endloop
 endfacet
 facet normal  9.737294e-01 -2.038222e-01  1.015261e-01
   outer loop
     vertex -3.057826e+02  6.412956e+02 -4.082313e+02
     vertex -3.138188e+02  6.337761e+02 -3.462526e+02
     vertex -3.140119e+02  6.327721e+02 -3.464161e+02
   endloop
 endfacet
 facet normal  9.798645e-01 -1.684304e-01  1.072229e-01
   outer loop
     vertex -3.057826e+02  6.412956e+02 -4.082313e+02
     vertex -3.140119e+02  6.327721e+02 -3.464161e+02
     vertex -3.059387e+02  6.402857e+02 -4.083907e+02
   endloop
 endfacet
 facet normal  9.659740e-01 -2.403705e-01  9.547887e-02
   outer loop
     vertex -3.055882e+02  6.422983e+02 -4.080678e+02
     vertex -3.135877e+02  6.347714e+02 -3.460853e+02
     vertex -3.138188e+02  6.337761e+02 -3.462526e+02
   endloop
 endfacet
 facet normal  9.734567e-01 -2.052219e-01  1.013209e-01
   outer loop
     vertex -3.055882e+02  6.422983e+02 -4.080678e+02
     vertex -3.138188e+02  6.337761e+02 -3.462526e+02
     vertex -3.057826e+02  6.412956e+02 -4.082313e+02
   endloop
 endfacet
 facet normal  9.568349e-01 -2.765744e-01  8.929485e-02
   outer loop
     vertex -3.053559e+02  6.432922e+02 -4.079005e+02
     vertex -3.133189e+02  6.357565e+02 -3.459143e+02
     vertex -3.135877e+02  6.347714e+02 -3.460853e+02
   endloop
 endfacet
 facet normal  9.656574e-01 -2.417200e-01  9.527413e-02
   outer loop
     vertex -3.053559e+02  6.432922e+02 -4.079005e+02
     vertex -3.135877e+02  6.347714e+02 -3.460853e+02
     vertex -3.055882e+02  6.422983e+02 -4.080678e+02
   endloop
 endfacet
 facet normal  9.463251e-01 -3.123821e-01  8.298290e-02
   outer loop
     vertex -3.050861e+02  6.442759e+02 -4.077296e+02
     vertex -3.130128e+02  6.367301e+02 -3.457400e+02
     vertex -3.133189e+02  6.357565e+02 -3.459143e+02
   endloop
 endfacet
 facet normal  9.564777e-01 -2.778726e-01  8.909115e-02
   outer loop
     vertex -3.050861e+02  6.442759e+02 -4.077296e+02
     vertex -3.133189e+02  6.357565e+02 -3.459143e+02
     vertex -3.053559e+02  6.432922e+02 -4.079005e+02
   endloop
 endfacet
 facet normal  9.344597e-01 -3.477424e-01  7.655207e-02
   outer loop
     vertex -3.047790e+02  6.452480e+02 -4.075554e+02
     vertex -3.126698e+02  6.376908e+02 -3.455625e+02
     vertex -3.130128e+02  6.367301e+02 -3.457400e+02
   endloop
 endfacet
 facet normal  9.459307e-01 -3.136279e-01  8.278082e-02
   outer loop
     vertex -3.047790e+02  6.452480e+02 -4.075554e+02
     vertex -3.130128e+02  6.367301e+02 -3.457400e+02
     vertex -3.050861e+02  6.442759e+02 -4.077296e+02
   endloop
 endfacet
 facet normal  9.212558e-01 -3.826045e-01  7.001156e-02
   outer loop
     vertex -3.044352e+02  6.462072e+02 -4.073780e+02
     vertex -3.122905e+02  6.386372e+02 -3.453822e+02
     vertex -3.126698e+02  6.376908e+02 -3.455625e+02
   endloop
 endfacet
 facet normal  9.340314e-01 -3.489349e-01  7.635218e-02
   outer loop
     vertex -3.044352e+02  6.462072e+02 -4.073780e+02
     vertex -3.126698e+02  6.376908e+02 -3.455625e+02
     vertex -3.047790e+02  6.452480e+02 -4.075554e+02
   endloop
 endfacet
 facet normal  9.067321e-01 -4.169185e-01  6.337075e-02
   outer loop
     vertex -3.040550e+02  6.471521e+02 -4.071977e+02
     vertex -3.118753e+02  6.395678e+02 -3.451992e+02
     vertex -3.122905e+02  6.386372e+02 -3.453822e+02
   endloop
 endfacet
 facet normal  9.207970e-01 -3.837432e-01  6.981440e-02
   outer loop
     vertex -3.040550e+02  6.471521e+02 -4.071977e+02
     vertex -3.122905e+02  6.386372e+02 -3.453822e+02
     vertex -3.044352e+02  6.462072e+02 -4.073780e+02
   endloop
 endfacet
 facet normal  8.909095e-01 -4.506353e-01  5.663915e-02
   outer loop
     vertex -3.036392e+02  6.480813e+02 -4.070149e+02
     vertex -3.114250e+02  6.404815e+02 -3.450139e+02
     vertex -3.118753e+02  6.395678e+02 -3.451992e+02
   endloop
 endfacet
 facet normal  9.062463e-01 -4.180028e-01  6.317683e-02
   outer loop
     vertex -3.036392e+02  6.480813e+02 -4.070149e+02
     vertex -3.118753e+02  6.395678e+02 -3.451992e+02
     vertex -3.040550e+02  6.471521e+02 -4.071977e+02
   endloop
 endfacet
 facet normal  8.738108e-01 -4.837066e-01  4.982640e-02
   outer loop
     vertex -3.031882e+02  6.489935e+02 -4.068297e+02
     vertex -3.109400e+02  6.413769e+02 -3.448265e+02
     vertex -3.114250e+02  6.404815e+02 -3.450139e+02
   endloop
 endfacet
 facet normal  8.904001e-01 -4.516649e-01  5.644897e-02
   outer loop
     vertex -3.031882e+02  6.489935e+02 -4.068297e+02
     vertex -3.114250e+02  6.404815e+02 -3.450139e+02
     vertex -3.036392e+02  6.480813e+02 -4.070149e+02
   endloop
 endfacet
 facet normal  8.554603e-01 -5.160850e-01  4.294226e-02
   outer loop
     vertex -3.027028e+02  6.498874e+02 -4.066425e+02
     vertex -3.104212e+02  6.422527e+02 -3.446373e+02
     vertex -3.109400e+02  6.413769e+02 -3.448265e+02
   endloop
 endfacet
 facet normal  8.732810e-01 -4.846814e-01  4.964042e-02
   outer loop
     vertex -3.027028e+02  6.498874e+02 -4.066425e+02
     vertex -3.109400e+02  6.413769e+02 -3.448265e+02
     vertex -3.031882e+02  6.489935e+02 -4.068297e+02
   endloop
 endfacet
 facet normal  8.358843e-01 -5.477240e-01  3.599659e-02
   outer loop
     vertex -3.021835e+02  6.507617e+02 -4.064534e+02
     vertex -3.098692e+02  6.431076e+02 -3.444466e+02
     vertex -3.104212e+02  6.422527e+02 -3.446373e+02
   endloop
 endfacet
 facet normal  8.549136e-01 -5.170050e-01  4.276092e-02
   outer loop
     vertex -3.021835e+02  6.507617e+02 -4.064534e+02
     vertex -3.104212e+02  6.422527e+02 -3.446373e+02
     vertex -3.027028e+02  6.498874e+02 -4.066425e+02
   endloop
 endfacet
 facet normal  8.151110e-01 -5.785785e-01  2.899935e-02
   outer loop
     vertex -3.016312e+02  6.516151e+02 -4.062628e+02
     vertex -3.092848e+02  6.439405e+02 -3.442546e+02
     vertex -3.098692e+02  6.431076e+02 -3.444466e+02
   endloop
 endfacet
 facet normal  8.353241e-01 -5.485896e-01  3.582031e-02
   outer loop
     vertex -3.016312e+02  6.516151e+02 -4.062628e+02
     vertex -3.098692e+02  6.431076e+02 -3.444466e+02
     vertex -3.021835e+02  6.507617e+02 -4.064534e+02
   endloop
 endfacet
 facet normal  7.931700e-01 -6.086042e-01  2.196056e-02
   outer loop
     vertex -3.010466e+02  6.524465e+02 -4.060710e+02
     vertex -3.086690e+02  6.447501e+02 -3.440615e+02
     vertex -3.092848e+02  6.439405e+02 -3.442546e+02
   endloop
 endfacet
 facet normal  8.145405e-01 -5.793899e-01  2.882851e-02
   outer loop
     vertex -3.010466e+02  6.524465e+02 -4.060710e+02
     vertex -3.092848e+02  6.439405e+02 -3.442546e+02
     vertex -3.016312e+02  6.516151e+02 -4.062628e+02
   endloop
 endfacet
 facet normal  7.925925e-01 -6.093620e-01  2.179550e-02
   outer loop
     vertex -3.004306e+02  6.532546e+02 -4.058781e+02
     vertex -3.086690e+02  6.447501e+02 -3.440615e+02
     vertex -3.010466e+02  6.524465e+02 -4.060710e+02
   endloop
 endfacet
 facet normal  7.700929e-01 -6.377580e-01  1.489030e-02
   outer loop
     vertex -3.004306e+02  6.532546e+02 -4.058781e+02
     vertex -3.080225e+02  6.455352e+02 -3.438678e+02
     vertex -3.086690e+02  6.447501e+02 -3.440615e+02
   endloop
 endfacet
 facet normal  7.695115e-01 -6.384630e-01  1.473135e-02
   outer loop
     vertex -2.997840e+02  6.540384e+02 -4.056846e+02
     vertex -3.080225e+02  6.455352e+02 -3.438678e+02
     vertex -3.004306e+02  6.532546e+02 -4.058781e+02
   endloop
 endfacet
 facet normal  7.459126e-01 -6.659982e-01  7.798696e-03
   outer loop
     vertex -2.997840e+02  6.540384e+02 -4.056846e+02
     vertex -3.073463e+02  6.462949e+02 -3.436736e+02
     vertex -3.080225e+02  6.455352e+02 -3.438678e+02
   endloop
 endfacet
 facet normal  7.453304e-01 -6.666514e-01  7.646146e-03
   outer loop
     vertex -2.991078e+02  6.547966e+02 -4.054906e+02
     vertex -3.073463e+02  6.462949e+02 -3.436736e+02
     vertex -2.997840e+02  6.540384e+02 -4.056846e+02
   endloop
 endfacet
 facet normal  7.206637e-01 -6.932844e-01  6.959126e-04
   outer loop
     vertex -2.991078e+02  6.547966e+02 -4.054906e+02
     vertex -3.066413e+02  6.470278e+02 -3.434792e+02
     vertex -3.073463e+02  6.462949e+02 -3.436736e+02
   endloop
 endfacet
 facet normal  7.200839e-01 -6.938867e-01  5.500232e-04
   outer loop
     vertex -2.984030e+02  6.555282e+02 -4.052964e+02
     vertex -3.066413e+02  6.470278e+02 -3.434792e+02
     vertex -2.991078e+02  6.547966e+02 -4.054906e+02
   endloop
 endfacet
 facet normal  6.943825e-01 -7.195775e-01 -6.407877e-03
   outer loop
     vertex -2.984030e+02  6.555282e+02 -4.052964e+02
     vertex -3.059086e+02  6.477331e+02 -3.432850e+02
     vertex -3.066413e+02  6.470278e+02 -3.434792e+02
   endloop
 endfacet
 facet normal  6.938081e-01 -7.201302e-01 -6.546877e-03
   outer loop
     vertex -2.976705e+02  6.562322e+02 -4.051024e+02
     vertex -3.059086e+02  6.477331e+02 -3.432850e+02
     vertex -2.984030e+02  6.555282e+02 -4.052964e+02
   endloop
 endfacet
 facet normal  6.671067e-01 -7.448398e-01 -1.350250e-02
   outer loop
     vertex -2.976705e+02  6.562322e+02 -4.051024e+02
     vertex -3.051493e+02  6.484097e+02 -3.430911e+02
     vertex -3.059086e+02  6.477331e+02 -3.432850e+02
   endloop
 endfacet
 facet normal  6.665404e-01 -7.453442e-01 -1.363441e-02
   outer loop
     vertex -2.969114e+02  6.569075e+02 -4.049087e+02
     vertex -3.051493e+02  6.484097e+02 -3.430911e+02
     vertex -2.976705e+02  6.562322e+02 -4.051024e+02
   endloop
 endfacet
 facet normal  6.388752e-01 -7.690351e-01 -2.057778e-02
   outer loop
     vertex -2.969114e+02  6.569075e+02 -4.049087e+02
     vertex -3.043643e+02  6.490567e+02 -3.428979e+02
     vertex -3.051493e+02  6.484097e+02 -3.430911e+02
   endloop
 endfacet
 facet normal  6.383199e-01 -7.694927e-01 -2.070245e-02
   outer loop
     vertex -2.961268e+02  6.575531e+02 -4.047158e+02
     vertex -3.043643e+02  6.490567e+02 -3.428979e+02
     vertex -2.969114e+02  6.569075e+02 -4.049087e+02
   endloop
 endfacet
 facet normal  6.097285e-01 -7.921288e-01 -2.762360e-02
   outer loop
     vertex -2.961268e+02  6.575531e+02 -4.047158e+02
     vertex -3.035549e+02  6.496730e+02 -3.427057e+02
     vertex -3.043643e+02  6.490567e+02 -3.428979e+02
   endloop
 endfacet
 facet normal  6.091870e-01 -7.925413e-01 -2.774088e-02
   outer loop
     vertex -2.953178e+02  6.581683e+02 -4.045237e+02
     vertex -3.035549e+02  6.496730e+02 -3.427057e+02
     vertex -2.961268e+02  6.575531e+02 -4.047158e+02
   endloop
 endfacet
 facet normal  5.797084e-01 -8.140878e-01 -3.462985e-02
   outer loop
     vertex -2.953178e+02  6.581683e+02 -4.045237e+02
     vertex -3.027222e+02  6.502579e+02 -3.425147e+02
     vertex -3.035549e+02  6.496730e+02 -3.427057e+02
   endloop
 endfacet
 facet normal  5.791832e-01 -8.144569e-01 -3.473965e-02
   outer loop
     vertex -2.944855e+02  6.587520e+02 -4.043329e+02
     vertex -3.027222e+02  6.502579e+02 -3.425147e+02
     vertex -2.953178e+02  6.581683e+02 -4.045237e+02
   endloop
 endfacet
 facet normal  5.488579e-01 -8.348806e-01 -4.158650e-02
   outer loop
     vertex -2.944855e+02  6.587520e+02 -4.043329e+02
     vertex -3.018673e+02  6.508104e+02 -3.423251e+02
     vertex -3.027222e+02  6.502579e+02 -3.425147e+02
   endloop
 endfacet
 facet normal  5.483514e-01 -8.352082e-01 -4.168875e-02
   outer loop
     vertex -2.936312e+02  6.593034e+02 -4.041436e+02
     vertex -3.018673e+02  6.508104e+02 -3.423251e+02
     vertex -2.944855e+02  6.587520e+02 -4.043329e+02
   endloop
 endfacet
 facet normal  5.172211e-01 -8.544774e-01 -4.848359e-02
   outer loop
     vertex -2.936312e+02  6.593034e+02 -4.041436e+02
     vertex -3.009916e+02  6.513298e+02 -3.421374e+02
     vertex -3.018673e+02  6.508104e+02 -3.423251e+02
   endloop
 endfacet
 facet normal  5.167358e-01 -8.547656e-01 -4.857826e-02
   outer loop
     vertex -2.927561e+02  6.598218e+02 -4.039561e+02
     vertex -3.009916e+02  6.513298e+02 -3.421374e+02
     vertex -2.936312e+02  6.593034e+02 -4.041436e+02
   endloop
 endfacet
 facet normal  4.848434e-01 -8.728502e-01 -5.531123e-02
   outer loop
     vertex -2.927561e+02  6.598218e+02 -4.039561e+02
     vertex -3.000962e+02  6.518154e+02 -3.419516e+02
     vertex -3.009916e+02  6.513298e+02 -3.421374e+02
   endloop
 endfacet
 facet normal  4.843815e-01 -8.731011e-01 -5.539831e-02
   outer loop
     vertex -2.918614e+02  6.603064e+02 -4.037706e+02
     vertex -3.000962e+02  6.518154e+02 -3.419516e+02
     vertex -2.927561e+02  6.598218e+02 -4.039561e+02
   endloop
 endfacet
 facet normal  4.517712e-01 -8.899727e-01 -6.205964e-02
   outer loop
     vertex -2.918614e+02  6.603064e+02 -4.037706e+02
     vertex -2.991825e+02  6.522665e+02 -3.417682e+02
     vertex -3.000962e+02  6.518154e+02 -3.419516e+02
   endloop
 endfacet
 facet normal  4.513348e-01 -8.901886e-01 -6.213917e-02
   outer loop
     vertex -2.909484e+02  6.607565e+02 -4.035874e+02
     vertex -2.991825e+02  6.522665e+02 -3.417682e+02
     vertex -2.918614e+02  6.603064e+02 -4.037706e+02
   endloop
 endfacet
 facet normal  4.180519e-01 -9.058202e-01 -6.871916e-02
   outer loop
     vertex -2.909484e+02  6.607565e+02 -4.035874e+02
     vertex -2.982517e+02  6.526823e+02 -3.415873e+02
     vertex -2.991825e+02  6.522665e+02 -3.417682e+02
   endloop
 endfacet
 facet normal  3.837336e-01 -9.203702e-01 -7.528024e-02
   outer loop
     vertex -2.900184e+02  6.611715e+02 -4.034067e+02
     vertex -2.973052e+02  6.530624e+02 -3.414093e+02
     vertex -2.982517e+02  6.526823e+02 -3.415873e+02
   endloop
 endfacet
 facet normal  4.176428e-01 -9.060034e-01 -6.879120e-02
   outer loop
     vertex -2.900184e+02  6.611715e+02 -4.034067e+02
     vertex -2.982517e+02  6.526823e+02 -3.415873e+02
     vertex -2.909484e+02  6.607565e+02 -4.035874e+02
   endloop
 endfacet
 facet normal  3.488657e-01 -9.336018e-01 -8.173349e-02
   outer loop
     vertex -2.890727e+02  6.615508e+02 -4.032289e+02
     vertex -2.963444e+02  6.534061e+02 -3.412343e+02
     vertex -2.973052e+02  6.530624e+02 -3.414093e+02
   endloop
 endfacet
 facet normal  3.833539e-01 -9.205232e-01 -7.534488e-02
   outer loop
     vertex -2.890727e+02  6.615508e+02 -4.032289e+02
     vertex -2.973052e+02  6.530624e+02 -3.414093e+02
     vertex -2.900184e+02  6.611715e+02 -4.034067e+02
   endloop
 endfacet
 facet normal  3.134981e-01 -9.454960e-01 -8.806966e-02
   outer loop
     vertex -2.881127e+02  6.618938e+02 -4.030541e+02
     vertex -2.953705e+02  6.537130e+02 -3.410627e+02
     vertex -2.963444e+02  6.534061e+02 -3.412343e+02
   endloop
 endfacet
 facet normal  3.485170e-01 -9.337270e-01 -8.179085e-02
   outer loop
     vertex -2.881127e+02  6.618938e+02 -4.030541e+02
     vertex -2.963444e+02  6.534061e+02 -3.412343e+02
     vertex -2.890727e+02  6.615508e+02 -4.032289e+02
   endloop
 endfacet
 facet normal  2.776813e-01 -9.560358e-01 -9.427968e-02
   outer loop
     vertex -2.871398e+02  6.622000e+02 -4.028827e+02
     vertex -2.943851e+02  6.539826e+02 -3.408946e+02
     vertex -2.953705e+02  6.537130e+02 -3.410627e+02
   endloop
 endfacet
 facet normal  3.131818e-01 -9.455961e-01 -8.811990e-02
   outer loop
     vertex -2.871398e+02  6.622000e+02 -4.028827e+02
     vertex -2.953705e+02  6.537130e+02 -3.410627e+02
     vertex -2.881127e+02  6.618938e+02 -4.030541e+02
   endloop
 endfacet
 facet normal  2.414668e-01 -9.652061e-01 -1.003546e-01
   outer loop
     vertex -2.861553e+02  6.624691e+02 -4.027148e+02
     vertex -2.933895e+02  6.542146e+02 -3.407303e+02
     vertex -2.943851e+02  6.539826e+02 -3.408946e+02
   endloop
 endfacet
 facet normal  2.773990e-01 -9.561135e-01 -9.432298e-02
   outer loop
     vertex -2.861553e+02  6.624691e+02 -4.027148e+02
     vertex -2.943851e+02  6.539826e+02 -3.408946e+02
     vertex -2.871398e+02  6.622000e+02 -4.028827e+02
   endloop
 endfacet
 facet normal  2.049064e-01 -9.729937e-01 -1.062859e-01
   outer loop
     vertex -2.851607e+02  6.627006e+02 -4.025508e+02
     vertex -2.923852e+02  6.544086e+02 -3.405701e+02
     vertex -2.933895e+02  6.542146e+02 -3.407303e+02
   endloop
 endfacet
 facet normal  2.412196e-01 -9.652641e-01 -1.003912e-01
   outer loop
     vertex -2.851607e+02  6.627006e+02 -4.025508e+02
     vertex -2.933895e+02  6.542146e+02 -3.407303e+02
     vertex -2.861553e+02  6.624691e+02 -4.027148e+02
   endloop
 endfacet
 facet normal  1.680524e-01 -9.793875e-01 -1.120648e-01
   outer loop
     vertex -2.841574e+02  6.628942e+02 -4.023907e+02
     vertex -2.913736e+02  6.545644e+02 -3.404142e+02
     vertex -2.923852e+02  6.544086e+02 -3.405701e+02
   endloop
 endfacet
 facet normal  2.046954e-01 -9.730348e-01 -1.063160e-01
   outer loop
     vertex -2.841574e+02  6.628942e+02 -4.023907e+02
     vertex -2.923852e+02  6.544086e+02 -3.405701e+02
     vertex -2.851607e+02  6.627006e+02 -4.025508e+02
   endloop
 endfacet
 facet normal  1.309578e-01 -9.843783e-01 -1.176832e-01
   outer loop
     vertex -2.831468e+02  6.630496e+02 -4.022350e+02
     vertex -2.903561e+02  6.546816e+02 -3.402628e+02
     vertex -2.913736e+02  6.545644e+02 -3.404142e+02
   endloop
 endfacet
 facet normal  1.678785e-01 -9.794146e-01 -1.120887e-01
   outer loop
     vertex -2.831468e+02  6.630496e+02 -4.022350e+02
     vertex -2.913736e+02  6.545644e+02 -3.404142e+02
     vertex -2.841574e+02  6.628942e+02 -4.023907e+02
   endloop
 endfacet
 facet normal  9.367550e-02 -9.879591e-01 -1.231331e-01
   outer loop
     vertex -2.821303e+02  6.631666e+02 -4.020837e+02
     vertex -2.893342e+02  6.547602e+02 -3.401161e+02
     vertex -2.903561e+02  6.546816e+02 -3.402628e+02
   endloop
 endfacet
 facet normal  1.308217e-01 -9.843943e-01 -1.177012e-01
   outer loop
     vertex -2.821303e+02  6.631666e+02 -4.020837e+02
     vertex -2.903561e+02  6.546816e+02 -3.402628e+02
     vertex -2.831468e+02  6.630496e+02 -4.022350e+02
   endloop
 endfacet
 facet normal  5.625904e-02 -9.901246e-01 -1.284065e-01
   outer loop
     vertex -2.811094e+02  6.632450e+02 -4.019372e+02
     vertex -2.883093e+02  6.548001e+02 -3.399743e+02
     vertex -2.893342e+02  6.547602e+02 -3.401161e+02
   endloop
 endfacet
 facet normal  9.357790e-02 -9.879668e-01 -1.231455e-01
   outer loop
     vertex -2.811094e+02  6.632450e+02 -4.019372e+02
     vertex -2.893342e+02  6.547602e+02 -3.401161e+02
     vertex -2.821303e+02  6.631666e+02 -4.020837e+02
   endloop
 endfacet
 facet normal  1.876199e-02 -9.908717e-01 -1.334961e-01
   outer loop
     vertex -2.800857e+02  6.632847e+02 -4.017956e+02
     vertex -2.872830e+02  6.548011e+02 -3.398376e+02
     vertex -2.883093e+02  6.548001e+02 -3.399743e+02
   endloop
 endfacet
 facet normal  5.620031e-02 -9.901270e-01 -1.284137e-01
   outer loop
     vertex -2.800857e+02  6.632847e+02 -4.017956e+02
     vertex -2.883093e+02  6.548001e+02 -3.399743e+02
     vertex -2.811094e+02  6.632450e+02 -4.019372e+02
   endloop
 endfacet
 facet normal  1.874238e-02 -9.908718e-01 -1.334984e-01
   outer loop
     vertex -2.790604e+02  6.632857e+02 -4.016591e+02
     vertex -2.872830e+02  6.548011e+02 -3.398376e+02
     vertex -2.800857e+02  6.632847e+02 -4.017956e+02
   endloop
 endfacet
endsolid
