solid 
 facet normal -9.972817e-01  1.853930e-02 -7.131251e-02
   outer loop
     vertex -3.013315e+02  6.418006e+02 -4.902490e+02
     vertex -3.068460e+02  6.368852e+02 -4.144079e+02
     vertex -3.068313e+02  6.379445e+02 -4.143382e+02
   endloop
 endfacet
 facet normal -9.960788e-01  5.559226e-02 -6.882288e-02
   outer loop
     vertex -3.013167e+02  6.428627e+02 -4.901791e+02
     vertex -3.068313e+02  6.379445e+02 -4.143382e+02
     vertex -3.067773e+02  6.390024e+02 -4.142657e+02
   endloop
 endfacet
 facet normal -9.972810e-01  1.858860e-02 -7.130996e-02
   outer loop
     vertex -3.013167e+02  6.428627e+02 -4.901791e+02
     vertex -3.013315e+02  6.418006e+02 -4.902490e+02
     vertex -3.068313e+02  6.379445e+02 -4.143382e+02
   endloop
 endfacet
 facet normal -9.935007e-01  9.256847e-02 -6.623823e-02
   outer loop
     vertex -3.012623e+02  6.439234e+02 -4.901064e+02
     vertex -3.067773e+02  6.390024e+02 -4.142657e+02
     vertex -3.066840e+02  6.400573e+02 -4.141905e+02
   endloop
 endfacet
 facet normal -9.960711e-01  5.573996e-02 -6.881481e-02
   outer loop
     vertex -3.012623e+02  6.439234e+02 -4.901064e+02
     vertex -3.013167e+02  6.428627e+02 -4.901791e+02
     vertex -3.067773e+02  6.390024e+02 -4.142657e+02
   endloop
 endfacet
 facet normal -9.895510e-01  1.294169e-01 -6.356214e-02
   outer loop
     vertex -3.011685e+02  6.449811e+02 -4.900310e+02
     vertex -3.066840e+02  6.400573e+02 -4.141905e+02
     vertex -3.065516e+02  6.411079e+02 -4.141128e+02
   endloop
 endfacet
 facet normal -9.934787e-01  9.281396e-02 -6.622416e-02
   outer loop
     vertex -3.011685e+02  6.449811e+02 -4.900310e+02
     vertex -3.012623e+02  6.439234e+02 -4.901064e+02
     vertex -3.066840e+02  6.400573e+02 -4.141905e+02
   endloop
 endfacet
 facet normal -9.842351e-01  1.660866e-01 -6.079830e-02
   outer loop
     vertex -3.010354e+02  6.460345e+02 -4.899530e+02
     vertex -3.065516e+02  6.411079e+02 -4.141128e+02
     vertex -3.063802e+02  6.421527e+02 -4.140326e+02
   endloop
 endfacet
 facet normal -9.895075e-01  1.297591e-01 -6.354160e-02
   outer loop
     vertex -3.010354e+02  6.460345e+02 -4.899530e+02
     vertex -3.011685e+02  6.449811e+02 -4.900310e+02
     vertex -3.065516e+02  6.411079e+02 -4.141128e+02
   endloop
 endfacet
 facet normal -9.775605e-01  2.025271e-01 -5.795052e-02
   outer loop
     vertex -3.008631e+02  6.470819e+02 -4.898726e+02
     vertex -3.063802e+02  6.421527e+02 -4.140326e+02
     vertex -3.061702e+02  6.431901e+02 -4.139501e+02
   endloop
 endfacet
 facet normal -9.841629e-01  1.665242e-01 -6.077084e-02
   outer loop
     vertex -3.008631e+02  6.470819e+02 -4.898726e+02
     vertex -3.010354e+02  6.460345e+02 -4.899530e+02
     vertex -3.063802e+02  6.421527e+02 -4.140326e+02
   endloop
 endfacet
 facet normal -9.774524e-01  2.030582e-01 -5.791574e-02
   outer loop
     vertex -3.006520e+02  6.481220e+02 -4.897899e+02
     vertex -3.008631e+02  6.470819e+02 -4.898726e+02
     vertex -3.061702e+02  6.431901e+02 -4.139501e+02
   endloop
 endfacet
 facet normal -9.695363e-01  2.386879e-01 -5.502274e-02
   outer loop
     vertex -3.006520e+02  6.481220e+02 -4.897899e+02
     vertex -3.061702e+02  6.431901e+02 -4.139501e+02
     vertex -3.059217e+02  6.442189e+02 -4.138654e+02
   endloop
 endfacet
 facet normal -9.693852e-01  2.393103e-01 -5.498026e-02
   outer loop
     vertex -3.004022e+02  6.491534e+02 -4.897049e+02
     vertex -3.006520e+02  6.481220e+02 -4.897899e+02
     vertex -3.059217e+02  6.442189e+02 -4.138654e+02
   endloop
 endfacet
 facet normal -9.601735e-01  2.745193e-01 -5.201899e-02
   outer loop
     vertex -3.004022e+02  6.491534e+02 -4.897049e+02
     vertex -3.059217e+02  6.442189e+02 -4.138654e+02
     vertex -3.056352e+02  6.452375e+02 -4.137785e+02
   endloop
 endfacet
 facet normal -9.599727e-01  2.752303e-01 -5.196847e-02
   outer loop
     vertex -3.001141e+02  6.501745e+02 -4.896177e+02
     vertex -3.004022e+02  6.491534e+02 -4.897049e+02
     vertex -3.056352e+02  6.452375e+02 -4.137785e+02
   endloop
 endfacet
 facet normal -9.494852e-01  3.099716e-01 -4.894342e-02
   outer loop
     vertex -3.001141e+02  6.501745e+02 -4.896177e+02
     vertex -3.056352e+02  6.452375e+02 -4.137785e+02
     vertex -3.053110e+02  6.462446e+02 -4.136897e+02
   endloop
 endfacet
 facet normal -9.492278e-01  3.107683e-01 -4.888456e-02
   outer loop
     vertex -2.997882e+02  6.511840e+02 -4.895286e+02
     vertex -3.001141e+02  6.501745e+02 -4.896177e+02
     vertex -3.053110e+02  6.462446e+02 -4.136897e+02
   endloop
 endfacet
 facet normal -9.374861e-01  3.449960e-01 -4.580028e-02
   outer loop
     vertex -2.997882e+02  6.511840e+02 -4.895286e+02
     vertex -3.053110e+02  6.462446e+02 -4.136897e+02
     vertex -3.049495e+02  6.472388e+02 -4.135990e+02
   endloop
 endfacet
 facet normal -9.371654e-01  3.458750e-01 -4.573281e-02
   outer loop
     vertex -2.994249e+02  6.521805e+02 -4.894376e+02
     vertex -2.997882e+02  6.511840e+02 -4.895286e+02
     vertex -3.049495e+02  6.472388e+02 -4.135990e+02
   endloop
 endfacet
 facet normal -9.241926e-01  3.795441e-01 -4.259390e-02
   outer loop
     vertex -2.994249e+02  6.521805e+02 -4.894376e+02
     vertex -3.049495e+02  6.472388e+02 -4.135990e+02
     vertex -3.045514e+02  6.482187e+02 -4.135065e+02
   endloop
 endfacet
 facet normal -9.238023e-01  3.805016e-01 -4.251759e-02
   outer loop
     vertex -2.990247e+02  6.531626e+02 -4.893448e+02
     vertex -2.994249e+02  6.521805e+02 -4.894376e+02
     vertex -3.045514e+02  6.482187e+02 -4.135065e+02
   endloop
 endfacet
 facet normal -9.096233e-01  4.135682e-01 -3.932872e-02
   outer loop
     vertex -2.990247e+02  6.531626e+02 -4.893448e+02
     vertex -3.045514e+02  6.482187e+02 -4.135065e+02
     vertex -3.041170e+02  6.491830e+02 -4.134124e+02
   endloop
 endfacet
 facet normal -8.937982e-01  4.470214e-01 -3.600923e-02
   outer loop
     vertex -2.985881e+02  6.541289e+02 -4.892505e+02
     vertex -3.041170e+02  6.491830e+02 -4.134124e+02
     vertex -3.036471e+02  6.501303e+02 -4.133169e+02
   endloop
 endfacet
 facet normal -9.091571e-01  4.146002e-01 -3.924337e-02
   outer loop
     vertex -2.985881e+02  6.541289e+02 -4.892505e+02
     vertex -2.990247e+02  6.531626e+02 -4.893448e+02
     vertex -3.041170e+02  6.491830e+02 -4.134124e+02
   endloop
 endfacet
 facet normal -8.767391e-01  4.798574e-01 -3.264002e-02
   outer loop
     vertex -2.981157e+02  6.550781e+02 -4.891546e+02
     vertex -3.036471e+02  6.501303e+02 -4.133169e+02
     vertex -3.031423e+02  6.510592e+02 -4.132199e+02
   endloop
 endfacet
 facet normal -8.932501e-01  4.481233e-01 -3.591469e-02
   outer loop
     vertex -2.981157e+02  6.550781e+02 -4.891546e+02
     vertex -2.985881e+02  6.541289e+02 -4.892505e+02
     vertex -3.036471e+02  6.501303e+02 -4.133169e+02
   endloop
 endfacet
 facet normal -8.584697e-01  5.120309e-01 -2.922575e-02
   outer loop
     vertex -2.976083e+02  6.560088e+02 -4.890574e+02
     vertex -3.031423e+02  6.510592e+02 -4.132199e+02
     vertex -3.026032e+02  6.519687e+02 -4.131218e+02
   endloop
 endfacet
 facet normal -8.761033e-01  4.810244e-01 -3.253617e-02
   outer loop
     vertex -2.976083e+02  6.560088e+02 -4.890574e+02
     vertex -2.981157e+02  6.550781e+02 -4.891546e+02
     vertex -3.031423e+02  6.510592e+02 -4.132199e+02
   endloop
 endfacet
 facet normal -8.390150e-01  5.434976e-01 -2.577111e-02
   outer loop
     vertex -2.970665e+02  6.569199e+02 -4.889589e+02
     vertex -3.026032e+02  6.519687e+02 -4.131218e+02
     vertex -3.020306e+02  6.528573e+02 -4.130226e+02
   endloop
 endfacet
 facet normal -8.577405e-01  5.132579e-01 -2.911250e-02
   outer loop
     vertex -2.970665e+02  6.569199e+02 -4.889589e+02
     vertex -2.976083e+02  6.560088e+02 -4.890574e+02
     vertex -3.026032e+02  6.519687e+02 -4.131218e+02
   endloop
 endfacet
 facet normal -8.184021e-01  5.742139e-01 -2.228089e-02
   outer loop
     vertex -2.964910e+02  6.578100e+02 -4.888594e+02
     vertex -3.020306e+02  6.528573e+02 -4.130226e+02
     vertex -3.014254e+02  6.537238e+02 -4.129224e+02
   endloop
 endfacet
 facet normal -8.381873e-01  5.447791e-01 -2.564843e-02
   outer loop
     vertex -2.964910e+02  6.578100e+02 -4.888594e+02
     vertex -2.970665e+02  6.569199e+02 -4.889589e+02
     vertex -3.020306e+02  6.528573e+02 -4.130226e+02
   endloop
 endfacet
 facet normal -7.966593e-01  6.041375e-01 -1.875989e-02
   outer loop
     vertex -2.958827e+02  6.586778e+02 -4.887589e+02
     vertex -3.014254e+02  6.537238e+02 -4.129224e+02
     vertex -3.007883e+02  6.545671e+02 -4.128214e+02
   endloop
 endfacet
 facet normal -8.174707e-01  5.755442e-01 -2.214878e-02
   outer loop
     vertex -2.958827e+02  6.586778e+02 -4.887589e+02
     vertex -2.964910e+02  6.578100e+02 -4.888594e+02
     vertex -3.014254e+02  6.537238e+02 -4.129224e+02
   endloop
 endfacet
 facet normal -7.738166e-01  6.332270e-01 -1.521299e-02
   outer loop
     vertex -2.952425e+02  6.595222e+02 -4.886577e+02
     vertex -3.007883e+02  6.545671e+02 -4.128214e+02
     vertex -3.001201e+02  6.553860e+02 -4.127198e+02
   endloop
 endfacet
 facet normal -7.956195e-01  6.055104e-01 -1.861840e-02
   outer loop
     vertex -2.952425e+02  6.595222e+02 -4.886577e+02
     vertex -2.958827e+02  6.586778e+02 -4.887589e+02
     vertex -3.007883e+02  6.545671e+02 -4.128214e+02
   endloop
 endfacet
 facet normal -7.499057e-01  6.614423e-01 -1.164507e-02
   outer loop
     vertex -2.945711e+02  6.603421e+02 -4.885557e+02
     vertex -3.001201e+02  6.553860e+02 -4.127198e+02
     vertex -2.994220e+02  6.561793e+02 -4.126176e+02
   endloop
 endfacet
 facet normal -7.726641e-01  6.346363e-01 -1.506220e-02
   outer loop
     vertex -2.945711e+02  6.603421e+02 -4.885557e+02
     vertex -2.952425e+02  6.595222e+02 -4.886577e+02
     vertex -3.001201e+02  6.553860e+02 -4.127198e+02
   endloop
 endfacet
 facet normal -7.249594e-01  6.887444e-01 -8.061056e-03
   outer loop
     vertex -2.938695e+02  6.611362e+02 -4.884532e+02
     vertex -2.994220e+02  6.561793e+02 -4.126176e+02
     vertex -2.986947e+02  6.569460e+02 -4.125150e+02
   endloop
 endfacet
 facet normal -7.486364e-01  6.628814e-01 -1.148510e-02
   outer loop
     vertex -2.938695e+02  6.611362e+02 -4.884532e+02
     vertex -2.945711e+02  6.603421e+02 -4.885557e+02
     vertex -2.994220e+02  6.561793e+02 -4.126176e+02
   endloop
 endfacet
 facet normal -6.990123e-01  7.150957e-01 -4.465902e-03
   outer loop
     vertex -2.931388e+02  6.619034e+02 -4.883504e+02
     vertex -2.986947e+02  6.569460e+02 -4.125150e+02
     vertex -2.979394e+02  6.576850e+02 -4.124122e+02
   endloop
 endfacet
 facet normal -7.235695e-01  6.902064e-01 -7.892071e-03
   outer loop
     vertex -2.931388e+02  6.619034e+02 -4.883504e+02
     vertex -2.938695e+02  6.611362e+02 -4.884532e+02
     vertex -2.986947e+02  6.569460e+02 -4.125150e+02
   endloop
 endfacet
 facet normal -6.721002e-01  7.404597e-01 -8.645669e-04
   outer loop
     vertex -2.923798e+02  6.626428e+02 -4.882473e+02
     vertex -2.979394e+02  6.576850e+02 -4.124122e+02
     vertex -2.971569e+02  6.583953e+02 -4.123093e+02
   endloop
 endfacet
 facet normal -6.974984e-01  7.165735e-01 -4.288108e-03
   outer loop
     vertex -2.923798e+02  6.626428e+02 -4.882473e+02
     vertex -2.931388e+02  6.619034e+02 -4.883504e+02
     vertex -2.979394e+02  6.576850e+02 -4.124122e+02
   endloop
 endfacet
 facet normal -6.442602e-01  7.648015e-01  2.737977e-03
   outer loop
     vertex -2.915937e+02  6.633532e+02 -4.881441e+02
     vertex -2.971569e+02  6.583953e+02 -4.123093e+02
     vertex -2.963486e+02  6.590759e+02 -4.122064e+02
   endloop
 endfacet
 facet normal -6.704593e-01  7.419460e-01 -6.782087e-04
   outer loop
     vertex -2.915937e+02  6.633532e+02 -4.881441e+02
     vertex -2.923798e+02  6.626428e+02 -4.882473e+02
     vertex -2.971569e+02  6.583953e+02 -4.123093e+02
   endloop
 endfacet
 facet normal -6.155307e-01  7.880874e-01  6.336759e-03
   outer loop
     vertex -2.907816e+02  6.640337e+02 -4.880409e+02
     vertex -2.963486e+02  6.590759e+02 -4.122064e+02
     vertex -2.955153e+02  6.597259e+02 -4.121037e+02
   endloop
 endfacet
 facet normal -6.424896e-01  7.662888e-01  2.932615e-03
   outer loop
     vertex -2.907816e+02  6.640337e+02 -4.880409e+02
     vertex -2.915937e+02  6.633532e+02 -4.881441e+02
     vertex -2.963486e+02  6.590759e+02 -4.122064e+02
   endloop
 endfacet
 facet normal -5.859515e-01  8.102853e-01  9.926809e-03
   outer loop
     vertex -2.899446e+02  6.646834e+02 -4.879379e+02
     vertex -2.955153e+02  6.597259e+02 -4.121037e+02
     vertex -2.946584e+02  6.603443e+02 -4.120013e+02
   endloop
 endfacet
 facet normal -6.136282e-01  7.895680e-01  6.539350e-03
   outer loop
     vertex -2.899446e+02  6.646834e+02 -4.879379e+02
     vertex -2.907816e+02  6.640337e+02 -4.880409e+02
     vertex -2.955153e+02  6.597259e+02 -4.121037e+02
   endloop
 endfacet
 facet normal -5.555633e-01  8.313646e-01  1.350317e-02
   outer loop
     vertex -2.890838e+02  6.653013e+02 -4.878353e+02
     vertex -2.946584e+02  6.603443e+02 -4.120013e+02
     vertex -2.937789e+02  6.609304e+02 -4.118994e+02
   endloop
 endfacet
 facet normal -5.839151e-01  8.117514e-01  1.013699e-02
   outer loop
     vertex -2.890838e+02  6.653013e+02 -4.878353e+02
     vertex -2.899446e+02  6.646834e+02 -4.879379e+02
     vertex -2.946584e+02  6.603443e+02 -4.120013e+02
   endloop
 endfacet
 facet normal -5.244081e-01  8.512961e-01  1.706091e-02
   outer loop
     vertex -2.882005e+02  6.658866e+02 -4.877331e+02
     vertex -2.937789e+02  6.609304e+02 -4.118994e+02
     vertex -2.928782e+02  6.614832e+02 -4.117980e+02
   endloop
 endfacet
 facet normal -5.533916e-01  8.328082e-01  1.372054e-02
   outer loop
     vertex -2.882005e+02  6.658866e+02 -4.877331e+02
     vertex -2.890838e+02  6.653013e+02 -4.878353e+02
     vertex -2.937789e+02  6.609304e+02 -4.118994e+02
   endloop
 endfacet
 facet normal -4.925290e-01  8.700523e-01  2.059512e-02
   outer loop
     vertex -2.872958e+02  6.664384e+02 -4.876316e+02
     vertex -2.928782e+02  6.614832e+02 -4.117980e+02
     vertex -2.919574e+02  6.620021e+02 -4.116974e+02
   endloop
 endfacet
 facet normal -5.221000e-01  8.527091e-01  1.728503e-02
   outer loop
     vertex -2.872958e+02  6.664384e+02 -4.876316e+02
     vertex -2.882005e+02  6.658866e+02 -4.877331e+02
     vertex -2.928782e+02  6.614832e+02 -4.117980e+02
   endloop
 endfacet
 facet normal -4.599698e-01  8.876074e-01  2.410092e-02
   outer loop
     vertex -2.863711e+02  6.669561e+02 -4.875308e+02
     vertex -2.919574e+02  6.620021e+02 -4.116974e+02
     vertex -2.910178e+02  6.624863e+02 -4.115977e+02
   endloop
 endfacet
 facet normal -4.900838e-01  8.714265e-01  2.082551e-02
   outer loop
     vertex -2.863711e+02  6.669561e+02 -4.875308e+02
     vertex -2.872958e+02  6.664384e+02 -4.876316e+02
     vertex -2.919574e+02  6.620021e+02 -4.116974e+02
   endloop
 endfacet
 facet normal -4.267757e-01  9.039371e-01  2.757346e-02
   outer loop
     vertex -2.854275e+02  6.674388e+02 -4.874309e+02
     vertex -2.910178e+02  6.624863e+02 -4.115977e+02
     vertex -2.900606e+02  6.629352e+02 -4.114991e+02
   endloop
 endfacet
 facet normal -4.573874e-01  8.889344e-01  2.433706e-02
   outer loop
     vertex -2.854275e+02  6.674388e+02 -4.874309e+02
     vertex -2.863711e+02  6.669561e+02 -4.875308e+02
     vertex -2.910178e+02  6.624863e+02 -4.115977e+02
   endloop
 endfacet
 facet normal -4.240562e-01  9.052086e-01  2.781481e-02
   outer loop
     vertex -2.844665e+02  6.678860e+02 -4.873320e+02
     vertex -2.854275e+02  6.674388e+02 -4.874309e+02
     vertex -2.900606e+02  6.629352e+02 -4.114991e+02
   endloop
 endfacet
 facet normal -3.929924e-01  9.190188e-01  3.100796e-02
   outer loop
     vertex -2.844665e+02  6.678860e+02 -4.873320e+02
     vertex -2.900606e+02  6.629352e+02 -4.114991e+02
     vertex -2.890874e+02  6.633481e+02 -4.114015e+02
   endloop
 endfacet
 facet normal -3.901365e-01  9.202265e-01  3.125394e-02
   outer loop
     vertex -2.834894e+02  6.682969e+02 -4.872344e+02
     vertex -2.844665e+02  6.678860e+02 -4.873320e+02
     vertex -2.890874e+02  6.633481e+02 -4.114015e+02
   endloop
 endfacet
 facet normal -3.586665e-01  9.328317e-01  3.439968e-02
   outer loop
     vertex -2.834894e+02  6.682969e+02 -4.872344e+02
     vertex -2.890874e+02  6.633481e+02 -4.114015e+02
     vertex -2.880993e+02  6.637245e+02 -4.113053e+02
   endloop
 endfacet
 facet normal -3.556752e-01  9.339671e-01  3.464966e-02
   outer loop
     vertex -2.824974e+02  6.686711e+02 -4.871380e+02
     vertex -2.834894e+02  6.682969e+02 -4.872344e+02
     vertex -2.880993e+02  6.637245e+02 -4.113053e+02
   endloop
 endfacet
 facet normal -3.238454e-01  9.453568e-01  3.774392e-02
   outer loop
     vertex -2.824974e+02  6.686711e+02 -4.871380e+02
     vertex -2.880993e+02  6.637245e+02 -4.113053e+02
     vertex -2.870977e+02  6.640638e+02 -4.112105e+02
   endloop
 endfacet
 facet normal -3.207204e-01  9.464115e-01  3.799726e-02
   outer loop
     vertex -2.814920e+02  6.690080e+02 -4.870430e+02
     vertex -2.824974e+02  6.686711e+02 -4.871380e+02
     vertex -2.870977e+02  6.640638e+02 -4.112105e+02
   endloop
 endfacet
 facet normal -2.885773e-01  9.565768e-01  4.103609e-02
   outer loop
     vertex -2.814920e+02  6.690080e+02 -4.870430e+02
     vertex -2.870977e+02  6.640638e+02 -4.112105e+02
     vertex -2.860840e+02  6.643656e+02 -4.111172e+02
   endloop
 endfacet
 facet normal -2.853203e-01  9.575423e-01  4.129210e-02
   outer loop
     vertex -2.804747e+02  6.693071e+02 -4.869497e+02
     vertex -2.814920e+02  6.690080e+02 -4.870430e+02
     vertex -2.860840e+02  6.643656e+02 -4.111172e+02
   endloop
 endfacet
 facet normal -2.529108e-01  9.664762e-01  4.427162e-02
   outer loop
     vertex -2.804747e+02  6.693071e+02 -4.869497e+02
     vertex -2.860840e+02  6.643656e+02 -4.111172e+02
     vertex -2.850597e+02  6.646294e+02 -4.110256e+02
   endloop
 endfacet
 facet normal -2.495243e-01  9.673442e-01  4.452961e-02
   outer loop
     vertex -2.794467e+02  6.695681e+02 -4.868580e+02
     vertex -2.804747e+02  6.693071e+02 -4.869497e+02
     vertex -2.850597e+02  6.646294e+02 -4.110256e+02
   endloop
 endfacet
 facet normal -2.168951e-01  9.750412e-01  4.744607e-02
   outer loop
     vertex -2.794467e+02  6.695681e+02 -4.868580e+02
     vertex -2.850597e+02  6.646294e+02 -4.110256e+02
     vertex -2.840261e+02  6.648550e+02 -4.109358e+02
   endloop
 endfacet
 facet normal -2.133820e-01  9.758034e-01  4.770529e-02
   outer loop
     vertex -2.784095e+02  6.697905e+02 -4.867682e+02
     vertex -2.794467e+02  6.695681e+02 -4.868580e+02
     vertex -2.840261e+02  6.648550e+02 -4.109358e+02
   endloop
 endfacet
 facet normal -1.805800e-01  9.822602e-01  5.055504e-02
   outer loop
     vertex -2.784095e+02  6.697905e+02 -4.867682e+02
     vertex -2.840261e+02  6.648550e+02 -4.109358e+02
     vertex -2.829846e+02  6.650419e+02 -4.108480e+02
   endloop
 endfacet
 facet normal -1.769435e-01  9.829084e-01  5.081472e-02
   outer loop
     vertex -2.773646e+02  6.699741e+02 -4.866803e+02
     vertex -2.784095e+02  6.697905e+02 -4.867682e+02
     vertex -2.829846e+02  6.650419e+02 -4.108480e+02
   endloop
 endfacet
 facet normal -1.440155e-01  9.881231e-01  5.359424e-02
   outer loop
     vertex -2.773646e+02  6.699741e+02 -4.866803e+02
     vertex -2.829846e+02  6.650419e+02 -4.108480e+02
     vertex -2.819368e+02  6.651900e+02 -4.107622e+02
   endloop
 endfacet
 facet normal -1.402594e-01  9.886491e-01  5.385361e-02
   outer loop
     vertex -2.763134e+02  6.701185e+02 -4.865945e+02
     vertex -2.773646e+02  6.699741e+02 -4.866803e+02
     vertex -2.819368e+02  6.651900e+02 -4.107622e+02
   endloop
 endfacet
 facet normal -1.072523e-01  9.926218e-01  5.655948e-02
   outer loop
     vertex -2.763134e+02  6.701185e+02 -4.865945e+02
     vertex -2.819368e+02  6.651900e+02 -4.107622e+02
     vertex -2.808840e+02  6.652990e+02 -4.106786e+02
   endloop
 endfacet
 facet normal -1.033806e-01  9.930177e-01  5.681771e-02
   outer loop
     vertex -2.752573e+02  6.702237e+02 -4.865109e+02
     vertex -2.763134e+02  6.701185e+02 -4.865945e+02
     vertex -2.808840e+02  6.652990e+02 -4.106786e+02
   endloop
 endfacet
 facet normal -7.034099e-02  9.957501e-01  5.944666e-02
   outer loop
     vertex -2.752573e+02  6.702237e+02 -4.865109e+02
     vertex -2.808840e+02  6.652990e+02 -4.106786e+02
     vertex -2.798277e+02  6.653688e+02 -4.105973e+02
   endloop
 endfacet
 facet normal -6.635839e-02  9.960081e-01  5.970293e-02
   outer loop
     vertex -2.741979e+02  6.702894e+02 -4.864296e+02
     vertex -2.752573e+02  6.702237e+02 -4.865109e+02
     vertex -2.798277e+02  6.653688e+02 -4.105973e+02
   endloop
 endfacet
 facet normal -3.333257e-02  9.975037e-01  6.225181e-02
   outer loop
     vertex -2.741979e+02  6.702894e+02 -4.864296e+02
     vertex -2.798277e+02  6.653688e+02 -4.105973e+02
     vertex -2.787693e+02  6.653992e+02 -4.105183e+02
   endloop
 endfacet
 facet normal -2.924405e-02  9.976161e-01  6.250526e-02
   outer loop
     vertex -2.731366e+02  6.703156e+02 -4.863508e+02
     vertex -2.741979e+02  6.702894e+02 -4.864296e+02
     vertex -2.787693e+02  6.653992e+02 -4.105183e+02
   endloop
 endfacet
 facet normal  3.721870e-03  9.978802e-01  6.497104e-02
   outer loop
     vertex -2.731366e+02  6.703156e+02 -4.863508e+02
     vertex -2.787693e+02  6.653992e+02 -4.105183e+02
     vertex -2.777104e+02  6.653903e+02 -4.104419e+02
   endloop
 endfacet
 facet normal  7.910884e-03  9.978395e-01  6.522080e-02
   outer loop
     vertex -2.720749e+02  6.703022e+02 -4.862744e+02
     vertex -2.731366e+02  6.703156e+02 -4.863508e+02
     vertex -2.777104e+02  6.653903e+02 -4.104419e+02
   endloop
 endfacet
 facet normal  4.077117e-02  9.968791e-01  6.760061e-02
   outer loop
     vertex -2.720749e+02  6.703022e+02 -4.862744e+02
     vertex -2.777104e+02  6.653903e+02 -4.104419e+02
     vertex -2.766523e+02  6.653420e+02 -4.103681e+02
   endloop
 endfacet
 facet normal  4.505484e-02  9.966780e-01  6.784579e-02
   outer loop
     vertex -2.710142e+02  6.702492e+02 -4.862007e+02
     vertex -2.720749e+02  6.703022e+02 -4.862744e+02
     vertex -2.766523e+02  6.653420e+02 -4.103681e+02
   endloop
 endfacet
 facet normal  7.776417e-02  9.945017e-01  7.013688e-02
   outer loop
     vertex -2.710142e+02  6.702492e+02 -4.862007e+02
     vertex -2.766523e+02  6.653420e+02 -4.103681e+02
     vertex -2.755966e+02  6.652544e+02 -4.102970e+02
   endloop
 endfacet
 facet normal  8.213626e-02  9.941332e-01  7.037658e-02
   outer loop
     vertex -2.699560e+02  6.701567e+02 -4.861298e+02
     vertex -2.710142e+02  6.702492e+02 -4.862007e+02
     vertex -2.755966e+02  6.652544e+02 -4.102970e+02
   endloop
 endfacet
 facet normal  1.146498e-01  9.907513e-01  7.257635e-02
   outer loop
     vertex -2.699560e+02  6.701567e+02 -4.861298e+02
     vertex -2.755966e+02  6.652544e+02 -4.102970e+02
     vertex -2.745447e+02  6.651277e+02 -4.102288e+02
   endloop
 endfacet
 facet normal  1.513772e-01  9.856331e-01  7.491567e-02
   outer loop
     vertex -2.689019e+02  6.700249e+02 -4.860617e+02
     vertex -2.745447e+02  6.651277e+02 -4.102288e+02
     vertex -2.734980e+02  6.649620e+02 -4.101634e+02
   endloop
 endfacet
 facet normal  1.191037e-01  9.902086e-01  7.280966e-02
   outer loop
     vertex -2.689019e+02  6.700249e+02 -4.860617e+02
     vertex -2.699560e+02  6.701567e+02 -4.861298e+02
     vertex -2.745447e+02  6.651277e+02 -4.102288e+02
   endloop
 endfacet
 facet normal  1.878955e-01  9.791542e-01  7.715159e-02
   outer loop
     vertex -2.678532e+02  6.698540e+02 -4.859965e+02
     vertex -2.734980e+02  6.649620e+02 -4.101634e+02
     vertex -2.724580e+02  6.647575e+02 -4.101010e+02
   endloop
 endfacet
 facet normal  1.559058e-01  9.849097e-01  7.514165e-02
   outer loop
     vertex -2.678532e+02  6.698540e+02 -4.859965e+02
     vertex -2.689019e+02  6.700249e+02 -4.860617e+02
     vertex -2.734980e+02  6.649620e+02 -4.101634e+02
   endloop
 endfacet
 facet normal  2.241545e-01  9.713235e-01  7.928104e-02
   outer loop
     vertex -2.668114e+02  6.696440e+02 -4.859344e+02
     vertex -2.724580e+02  6.647575e+02 -4.101010e+02
     vertex -2.714261e+02  6.645145e+02 -4.100417e+02
   endloop
 endfacet
 facet normal  1.924916e-01  9.782438e-01  7.736932e-02
   outer loop
     vertex -2.668114e+02  6.696440e+02 -4.859344e+02
     vertex -2.678532e+02  6.698540e+02 -4.859965e+02
     vertex -2.724580e+02  6.647575e+02 -4.101010e+02
   endloop
 endfacet
 facet normal  2.601040e-01  9.621518e-01  8.130106e-02
   outer loop
     vertex -2.657779e+02  6.693955e+02 -4.858753e+02
     vertex -2.714261e+02  6.645145e+02 -4.100417e+02
     vertex -2.704038e+02  6.642334e+02 -4.099856e+02
   endloop
 endfacet
 facet normal  2.288102e-01  9.702202e-01  7.948956e-02
   outer loop
     vertex -2.657779e+02  6.693955e+02 -4.858753e+02
     vertex -2.668114e+02  6.696440e+02 -4.859344e+02
     vertex -2.714261e+02  6.645145e+02 -4.100417e+02
   endloop
 endfacet
 facet normal  2.956944e-01  9.516518e-01  8.320889e-02
   outer loop
     vertex -2.647543e+02  6.691086e+02 -4.858195e+02
     vertex -2.704038e+02  6.642334e+02 -4.099856e+02
     vertex -2.693925e+02  6.639146e+02 -4.099328e+02
   endloop
 endfacet
 facet normal  2.648112e-01  9.608501e-01  8.149945e-02
   outer loop
     vertex -2.647543e+02  6.691086e+02 -4.858195e+02
     vertex -2.657779e+02  6.693955e+02 -4.858753e+02
     vertex -2.704038e+02  6.642334e+02 -4.099856e+02
   endloop
 endfacet
 facet normal  3.308766e-01  9.398379e-01  8.500187e-02
   outer loop
     vertex -2.637418e+02  6.687839e+02 -4.857669e+02
     vertex -2.693925e+02  6.639146e+02 -4.099328e+02
     vertex -2.683935e+02  6.635584e+02 -4.098832e+02
   endloop
 endfacet
 facet normal  3.004447e-01  9.501463e-01  8.339619e-02
   outer loop
     vertex -2.637418e+02  6.687839e+02 -4.857669e+02
     vertex -2.647543e+02  6.691086e+02 -4.858195e+02
     vertex -2.693925e+02  6.639146e+02 -4.099328e+02
   endloop
 endfacet
 facet normal  3.656020e-01  9.267266e-01  8.667755e-02
   outer loop
     vertex -2.627420e+02  6.684217e+02 -4.857177e+02
     vertex -2.683935e+02  6.635584e+02 -4.098832e+02
     vertex -2.674083e+02  6.631654e+02 -4.098370e+02
   endloop
 endfacet
 facet normal  3.356612e-01  9.381239e-01  8.517713e-02
   outer loop
     vertex -2.627420e+02  6.684217e+02 -4.857177e+02
     vertex -2.637418e+02  6.687839e+02 -4.857669e+02
     vertex -2.683935e+02  6.635584e+02 -4.098832e+02
   endloop
 endfacet
 facet normal  3.998226e-01  9.123358e-01  8.823359e-02
   outer loop
     vertex -2.617562e+02  6.680225e+02 -4.856719e+02
     vertex -2.674083e+02  6.631654e+02 -4.098370e+02
     vertex -2.664381e+02  6.627361e+02 -4.097943e+02
   endloop
 endfacet
 facet normal  3.704118e-01  9.247994e-01  8.683983e-02
   outer loop
     vertex -2.617562e+02  6.680225e+02 -4.856719e+02
     vertex -2.627420e+02  6.684217e+02 -4.857177e+02
     vertex -2.674083e+02  6.631654e+02 -4.098370e+02
   endloop
 endfacet
 facet normal  4.334913e-01  8.966856e-01  8.966787e-02
   outer loop
     vertex -2.607857e+02  6.675870e+02 -4.856296e+02
     vertex -2.664381e+02  6.627361e+02 -4.097943e+02
     vertex -2.654844e+02  6.622711e+02 -4.097551e+02
   endloop
 endfacet
 facet normal  4.046483e-01  9.101914e-01  8.838195e-02
   outer loop
     vertex -2.607857e+02  6.675870e+02 -4.856296e+02
     vertex -2.617562e+02  6.680225e+02 -4.856719e+02
     vertex -2.664381e+02  6.627361e+02 -4.097943e+02
   endloop
 endfacet
 facet normal  4.665615e-01  8.797973e-01  9.097839e-02
   outer loop
     vertex -2.598320e+02  6.671156e+02 -4.855908e+02
     vertex -2.654844e+02  6.622711e+02 -4.097551e+02
     vertex -2.645485e+02  6.617711e+02 -4.097195e+02
   endloop
 endfacet
 facet normal  4.383233e-01  8.943201e-01  8.980137e-02
   outer loop
     vertex -2.598320e+02  6.671156e+02 -4.855908e+02
     vertex -2.607857e+02  6.675870e+02 -4.856296e+02
     vertex -2.654844e+02  6.622711e+02 -4.097551e+02
   endloop
 endfacet
 facet normal  4.989875e-01  8.616945e-01  9.216335e-02
   outer loop
     vertex -2.588963e+02  6.666091e+02 -4.855555e+02
     vertex -2.645485e+02  6.617711e+02 -4.097195e+02
     vertex -2.636316e+02  6.612367e+02 -4.096874e+02
   endloop
 endfacet
 facet normal  4.713898e-01  8.772076e-01  9.109611e-02
   outer loop
     vertex -2.588963e+02  6.666091e+02 -4.855555e+02
     vertex -2.598320e+02  6.671156e+02 -4.855908e+02
     vertex -2.645485e+02  6.617711e+02 -4.097195e+02
   endloop
 endfacet
 facet normal  5.307247e-01  8.424020e-01  9.322111e-02
   outer loop
     vertex -2.579799e+02  6.660682e+02 -4.855240e+02
     vertex -2.636316e+02  6.612367e+02 -4.096874e+02
     vertex -2.627350e+02  6.606687e+02 -4.096591e+02
   endloop
 endfacet
 facet normal  5.038022e-01  8.588776e-01  9.226438e-02
   outer loop
     vertex -2.579799e+02  6.660682e+02 -4.855240e+02
     vertex -2.588963e+02  6.666091e+02 -4.855555e+02
     vertex -2.636316e+02  6.612367e+02 -4.096874e+02
   endloop
 endfacet
 facet normal  5.355153e-01  8.393555e-01  9.330455e-02
   outer loop
     vertex -2.570842e+02  6.654937e+02 -4.854961e+02
     vertex -2.579799e+02  6.660682e+02 -4.855240e+02
     vertex -2.627350e+02  6.606687e+02 -4.096591e+02
   endloop
 endfacet
 facet normal  5.617292e-01  8.219465e-01  9.415022e-02
   outer loop
     vertex -2.570842e+02  6.654937e+02 -4.854961e+02
     vertex -2.627350e+02  6.606687e+02 -4.096591e+02
     vertex -2.618600e+02  6.600679e+02 -4.096344e+02
   endloop
 endfacet
 facet normal  5.664851e-01  8.186685e-01  9.421518e-02
   outer loop
     vertex -2.562103e+02  6.648862e+02 -4.854719e+02
     vertex -2.570842e+02  6.654937e+02 -4.854961e+02
     vertex -2.618600e+02  6.600679e+02 -4.096344e+02
   endloop
 endfacet
 facet normal  5.919582e-01  8.003563e-01  9.494939e-02
   outer loop
     vertex -2.562103e+02  6.648862e+02 -4.854719e+02
     vertex -2.618600e+02  6.600679e+02 -4.096344e+02
     vertex -2.610077e+02  6.594351e+02 -4.096134e+02
   endloop
 endfacet
 facet normal  5.966687e-01  7.968453e-01  9.499500e-02
   outer loop
     vertex -2.553595e+02  6.642467e+02 -4.854515e+02
     vertex -2.562103e+02  6.648862e+02 -4.854719e+02
     vertex -2.610077e+02  6.594351e+02 -4.096134e+02
   endloop
 endfacet
 facet normal  6.213699e-01  7.776611e-01  9.561752e-02
   outer loop
     vertex -2.553595e+02  6.642467e+02 -4.854515e+02
     vertex -2.610077e+02  6.594351e+02 -4.096134e+02
     vertex -2.601794e+02  6.587711e+02 -4.095962e+02
   endloop
 endfacet
 facet normal  6.496582e-01  7.541218e-01  9.614846e-02
   outer loop
     vertex -2.545329e+02  6.635760e+02 -4.854349e+02
     vertex -2.601794e+02  6.587711e+02 -4.095962e+02
     vertex -2.593911e+02  6.580903e+02 -4.095830e+02
   endloop
 endfacet
 facet normal  6.260242e-01  7.739161e-01  9.564293e-02
   outer loop
     vertex -2.545329e+02  6.635760e+02 -4.854349e+02
     vertex -2.553595e+02  6.642467e+02 -4.854515e+02
     vertex -2.601794e+02  6.587711e+02 -4.095962e+02
   endloop
 endfacet
 facet normal  6.768092e-01  7.297996e-01  9.654984e-02
   outer loop
     vertex -2.537318e+02  6.628751e+02 -4.854220e+02
     vertex -2.593911e+02  6.580903e+02 -4.095830e+02
     vertex -2.586280e+02  6.573813e+02 -4.095735e+02
   endloop
 endfacet
 facet normal  6.545111e-01  7.499130e-01  9.615489e-02
   outer loop
     vertex -2.537318e+02  6.628751e+02 -4.854220e+02
     vertex -2.545329e+02  6.635760e+02 -4.854349e+02
     vertex -2.593911e+02  6.580903e+02 -4.095830e+02
   endloop
 endfacet
 facet normal  7.030607e-01  7.045076e-01  9.682273e-02
   outer loop
     vertex -2.529571e+02  6.621450e+02 -4.854130e+02
     vertex -2.586280e+02  6.573813e+02 -4.095735e+02
     vertex -2.578911e+02  6.566451e+02 -4.095676e+02
   endloop
 endfacet
 facet normal  6.820896e-01  7.248690e-01  9.653357e-02
   outer loop
     vertex -2.529571e+02  6.621450e+02 -4.854130e+02
     vertex -2.537318e+02  6.628751e+02 -4.854220e+02
     vertex -2.586280e+02  6.573813e+02 -4.095735e+02
   endloop
 endfacet
 facet normal  7.283780e-01  6.782794e-01  9.696677e-02
   outer loop
     vertex -2.522101e+02  6.613866e+02 -4.854079e+02
     vertex -2.578911e+02  6.566451e+02 -4.095676e+02
     vertex -2.571813e+02  6.558826e+02 -4.095654e+02
   endloop
 endfacet
 facet normal  7.087213e-01  6.988190e-01  9.677846e-02
   outer loop
     vertex -2.522101e+02  6.613866e+02 -4.854079e+02
     vertex -2.529571e+02  6.621450e+02 -4.854130e+02
     vertex -2.578911e+02  6.566451e+02 -4.095676e+02
   endloop
 endfacet
 facet normal  7.527273e-01  6.511499e-01  9.698177e-02
   outer loop
     vertex -2.514916e+02  6.606010e+02 -4.854065e+02
     vertex -2.571813e+02  6.558826e+02 -4.095654e+02
     vertex -2.564997e+02  6.550949e+02 -4.095669e+02
   endloop
 endfacet
 facet normal  7.343694e-01  6.717991e-01  9.688921e-02
   outer loop
     vertex -2.514916e+02  6.606010e+02 -4.854065e+02
     vertex -2.522101e+02  6.613866e+02 -4.854079e+02
     vertex -2.571813e+02  6.558826e+02 -4.095654e+02
   endloop
 endfacet
 facet normal  7.760763e-01  6.231550e-01  9.686771e-02
   outer loop
     vertex -2.508028e+02  6.597894e+02 -4.854091e+02
     vertex -2.564997e+02  6.550949e+02 -4.095669e+02
     vertex -2.558471e+02  6.542830e+02 -4.095721e+02
   endloop
 endfacet
 facet normal  7.589983e-01  6.438468e-01  9.686565e-02
   outer loop
     vertex -2.508028e+02  6.597894e+02 -4.854091e+02
     vertex -2.514916e+02  6.606010e+02 -4.854065e+02
     vertex -2.564997e+02  6.550949e+02 -4.095669e+02
   endloop
 endfacet
 facet normal  7.983940e-01  5.943321e-01  9.662475e-02
   outer loop
     vertex -2.501445e+02  6.589528e+02 -4.854154e+02
     vertex -2.558471e+02  6.542830e+02 -4.095721e+02
     vertex -2.552245e+02  6.534480e+02 -4.095809e+02
   endloop
 endfacet
 facet normal  7.825737e-01  6.150009e-01  9.670782e-02
   outer loop
     vertex -2.501445e+02  6.589528e+02 -4.854154e+02
     vertex -2.508028e+02  6.597894e+02 -4.854091e+02
     vertex -2.558471e+02  6.542830e+02 -4.095721e+02
   endloop
 endfacet
 facet normal  8.196508e-01  5.647193e-01  9.625321e-02
   outer loop
     vertex -2.495177e+02  6.580924e+02 -4.854256e+02
     vertex -2.552245e+02  6.534480e+02 -4.095809e+02
     vertex -2.546325e+02  6.525909e+02 -4.095934e+02
   endloop
 endfacet
 facet normal  8.050629e-01  5.853013e-01  9.641594e-02
   outer loop
     vertex -2.495177e+02  6.580924e+02 -4.854256e+02
     vertex -2.501445e+02  6.589528e+02 -4.854154e+02
     vertex -2.552245e+02  6.534480e+02 -4.095809e+02
   endloop
 endfacet
 facet normal  8.398183e-01  5.343561e-01  9.575360e-02
   outer loop
     vertex -2.489233e+02  6.572093e+02 -4.854396e+02
     vertex -2.546325e+02  6.525909e+02 -4.095934e+02
     vertex -2.540721e+02  6.517130e+02 -4.096096e+02
   endloop
 endfacet
 facet normal  8.264348e-01  5.547895e-01  9.599040e-02
   outer loop
     vertex -2.489233e+02  6.572093e+02 -4.854396e+02
     vertex -2.495177e+02  6.580924e+02 -4.854256e+02
     vertex -2.546325e+02  6.525909e+02 -4.095934e+02
   endloop
 endfacet
 facet normal  8.588698e-01  5.032828e-01  9.512657e-02
   outer loop
     vertex -2.483621e+02  6.563049e+02 -4.854574e+02
     vertex -2.540721e+02  6.517130e+02 -4.096096e+02
     vertex -2.535439e+02  6.508154e+02 -4.096294e+02
   endloop
 endfacet
 facet normal  8.466597e-01  5.235076e-01  9.543179e-02
   outer loop
     vertex -2.483621e+02  6.563049e+02 -4.854574e+02
     vertex -2.489233e+02  6.572093e+02 -4.854396e+02
     vertex -2.540721e+02  6.517130e+02 -4.096096e+02
   endloop
 endfacet
 facet normal  8.767800e-01  4.715407e-01  9.437297e-02
   outer loop
     vertex -2.478348e+02  6.553803e+02 -4.854790e+02
     vertex -2.535439e+02  6.508154e+02 -4.096294e+02
     vertex -2.530487e+02  6.498993e+02 -4.096527e+02
   endloop
 endfacet
 facet normal  8.657094e-01  4.914991e-01  9.474089e-02
   outer loop
     vertex -2.478348e+02  6.553803e+02 -4.854790e+02
     vertex -2.483621e+02  6.563049e+02 -4.854574e+02
     vertex -2.535439e+02  6.508154e+02 -4.096294e+02
   endloop
 endfacet
 facet normal  8.935250e-01  4.391720e-01  9.349379e-02
   outer loop
     vertex -2.473423e+02  6.544370e+02 -4.855043e+02
     vertex -2.530487e+02  6.498993e+02 -4.096527e+02
     vertex -2.525871e+02  6.489658e+02 -4.096797e+02
   endloop
 endfacet
 facet normal  8.835576e-01  4.588085e-01  9.391865e-02
   outer loop
     vertex -2.473423e+02  6.544370e+02 -4.855043e+02
     vertex -2.478348e+02  6.553803e+02 -4.854790e+02
     vertex -2.530487e+02  6.498993e+02 -4.096527e+02
   endloop
 endfacet
 facet normal  9.090826e-01  4.062197e-01  9.249021e-02
   outer loop
     vertex -2.468851e+02  6.534760e+02 -4.855334e+02
     vertex -2.525871e+02  6.489658e+02 -4.096797e+02
     vertex -2.521597e+02  6.480163e+02 -4.097101e+02
   endloop
 endfacet
 facet normal  9.001795e-01  4.254810e-01  9.296622e-02
   outer loop
     vertex -2.468851e+02  6.534760e+02 -4.855334e+02
     vertex -2.473423e+02  6.544370e+02 -4.855043e+02
     vertex -2.525871e+02  6.489658e+02 -4.096797e+02
   endloop
 endfacet
 facet normal  9.234321e-01  3.727275e-01  9.136356e-02
   outer loop
     vertex -2.464639e+02  6.524989e+02 -4.855661e+02
     vertex -2.521597e+02  6.480163e+02 -4.097101e+02
     vertex -2.517671e+02  6.470521e+02 -4.097441e+02
   endloop
 endfacet
 facet normal  9.155520e-01  3.915630e-01  9.188490e-02
   outer loop
     vertex -2.464639e+02  6.524989e+02 -4.855661e+02
     vertex -2.468851e+02  6.534760e+02 -4.855334e+02
     vertex -2.521597e+02  6.480163e+02 -4.097101e+02
   endloop
 endfacet
 facet normal  9.365545e-01  3.387401e-01  9.011534e-02
   outer loop
     vertex -2.460793e+02  6.515069e+02 -4.856024e+02
     vertex -2.517671e+02  6.470521e+02 -4.097441e+02
     vertex -2.514099e+02  6.460743e+02 -4.097815e+02
   endloop
 endfacet
 facet normal  9.296538e-01  3.571016e-01  9.067621e-02
   outer loop
     vertex -2.460793e+02  6.515069e+02 -4.856024e+02
     vertex -2.464639e+02  6.524989e+02 -4.855661e+02
     vertex -2.517671e+02  6.470521e+02 -4.097441e+02
   endloop
 endfacet
 facet normal  9.484324e-01  3.043025e-01  8.874720e-02
   outer loop
     vertex -2.457318e+02  6.505014e+02 -4.856423e+02
     vertex -2.514099e+02  6.460743e+02 -4.097815e+02
     vertex -2.510884e+02  6.450843e+02 -4.098223e+02
   endloop
 endfacet
 facet normal  9.424654e-01  3.221445e-01  8.934182e-02
   outer loop
     vertex -2.457318e+02  6.505014e+02 -4.856423e+02
     vertex -2.460793e+02  6.515069e+02 -4.856024e+02
     vertex -2.514099e+02  6.460743e+02 -4.097815e+02
   endloop
 endfacet
 facet normal  9.590498e-01  2.694605e-01  8.726098e-02
   outer loop
     vertex -2.454220e+02  6.494839e+02 -4.856857e+02
     vertex -2.510884e+02  6.450843e+02 -4.098223e+02
     vertex -2.508032e+02  6.440834e+02 -4.098664e+02
   endloop
 endfacet
 facet normal  9.539688e-01  2.867403e-01  8.788358e-02
   outer loop
     vertex -2.454220e+02  6.494839e+02 -4.856857e+02
     vertex -2.457318e+02  6.505014e+02 -4.856423e+02
     vertex -2.510884e+02  6.450843e+02 -4.098223e+02
   endloop
 endfacet
 facet normal  9.683928e-01  2.342605e-01  8.565863e-02
   outer loop
     vertex -2.451502e+02  6.484557e+02 -4.857326e+02
     vertex -2.508032e+02  6.440834e+02 -4.098664e+02
     vertex -2.505546e+02  6.430729e+02 -4.099138e+02
   endloop
 endfacet
 facet normal  9.641482e-01  2.509381e-01  8.630351e-02
   outer loop
     vertex -2.451502e+02  6.484557e+02 -4.857326e+02
     vertex -2.454220e+02  6.494839e+02 -4.856857e+02
     vertex -2.508032e+02  6.440834e+02 -4.098664e+02
   endloop
 endfacet
 facet normal  9.764489e-01  1.987491e-01  8.394230e-02
   outer loop
     vertex -2.449168e+02  6.474182e+02 -4.857829e+02
     vertex -2.505546e+02  6.430729e+02 -4.099138e+02
     vertex -2.503429e+02  6.420543e+02 -4.099644e+02
   endloop
 endfacet
 facet normal  9.729894e-01  2.147877e-01  8.460381e-02
   outer loop
     vertex -2.449168e+02  6.474182e+02 -4.857829e+02
     vertex -2.451502e+02  6.484557e+02 -4.857326e+02
     vertex -2.505546e+02  6.430729e+02 -4.099138e+02
   endloop
 endfacet
 facet normal  9.832074e-01  1.629737e-01  8.211425e-02
   outer loop
     vertex -2.447221e+02  6.463730e+02 -4.858365e+02
     vertex -2.503429e+02  6.420543e+02 -4.099644e+02
     vertex -2.501684e+02  6.410287e+02 -4.100182e+02
   endloop
 endfacet
 facet normal  9.804802e-01  1.783391e-01  8.278684e-02
   outer loop
     vertex -2.447221e+02  6.463730e+02 -4.858365e+02
     vertex -2.449168e+02  6.474182e+02 -4.857829e+02
     vertex -2.503429e+02  6.420543e+02 -4.099644e+02
   endloop
 endfacet
 facet normal  9.886594e-01  1.269816e-01  8.017693e-02
   outer loop
     vertex -2.445665e+02  6.453214e+02 -4.858933e+02
     vertex -2.501684e+02  6.410287e+02 -4.100182e+02
     vertex -2.500313e+02  6.399977e+02 -4.100751e+02
   endloop
 endfacet
 facet normal  9.866102e-01  1.416429e-01  8.085512e-02
   outer loop
     vertex -2.445665e+02  6.453214e+02 -4.858933e+02
     vertex -2.447221e+02  6.463730e+02 -4.858365e+02
     vertex -2.501684e+02  6.410287e+02 -4.100182e+02
   endloop
 endfacet
 facet normal  9.913708e-01  1.047502e-01  7.881133e-02
   outer loop
     vertex -2.444501e+02  6.442650e+02 -4.859533e+02
     vertex -2.445665e+02  6.453214e+02 -4.858933e+02
     vertex -2.500313e+02  6.399977e+02 -4.100751e+02
   endloop
 endfacet
 facet normal  9.927975e-01  9.082089e-02  7.813290e-02
   outer loop
     vertex -2.444501e+02  6.442650e+02 -4.859533e+02
     vertex -2.500313e+02  6.399977e+02 -4.100751e+02
     vertex -2.499319e+02  6.389625e+02 -4.101349e+02
   endloop
 endfacet
 facet normal  9.947555e-01  6.771213e-02  7.665832e-02
   outer loop
     vertex -2.443731e+02  6.432051e+02 -4.860164e+02
     vertex -2.444501e+02  6.442650e+02 -4.859533e+02
     vertex -2.499319e+02  6.389625e+02 -4.101349e+02
   endloop
 endfacet
 facet normal  9.956163e-01  5.453945e-02  7.598487e-02
   outer loop
     vertex -2.443731e+02  6.432051e+02 -4.860164e+02
     vertex -2.499319e+02  6.389625e+02 -4.101349e+02
     vertex -2.498703e+02  6.379245e+02 -4.101977e+02
   endloop
 endfacet
 facet normal  9.967596e-01  3.058003e-02  7.439906e-02
   outer loop
     vertex -2.443356e+02  6.421432e+02 -4.860825e+02
     vertex -2.443731e+02  6.432051e+02 -4.860164e+02
     vertex -2.498703e+02  6.379245e+02 -4.101977e+02
   endloop
 endfacet
 facet normal  9.971120e-01  1.818554e-02  7.373571e-02
   outer loop
     vertex -2.443356e+02  6.421432e+02 -4.860825e+02
     vertex -2.498703e+02  6.379245e+02 -4.101977e+02
     vertex -2.498465e+02  6.368852e+02 -4.102634e+02
   endloop
 endfacet
 facet normal  9.972688e-01  9.991497e-03  7.317885e-02
   outer loop
     vertex -2.443339e+02  6.420290e+02 -4.860898e+02
     vertex -2.443356e+02  6.421432e+02 -4.860825e+02
     vertex -2.498465e+02  6.368852e+02 -4.102634e+02
   endloop
 endfacet
 facet normal  9.973204e-01  5.995273e-03  7.291151e-02
   outer loop
     vertex -2.443327e+02  6.419148e+02 -4.860971e+02
     vertex -2.443339e+02  6.420290e+02 -4.860898e+02
     vertex -2.498465e+02  6.368852e+02 -4.102634e+02
   endloop
 endfacet
 facet normal  9.973556e-01  1.998564e-03  7.264898e-02
   outer loop
     vertex -2.443319e+02  6.418006e+02 -4.861044e+02
     vertex -2.443327e+02  6.419148e+02 -4.860971e+02
     vertex -2.498465e+02  6.368852e+02 -4.102634e+02
   endloop
 endfacet
endsolid
