solid 
 facet normal  8.387463e-01  5.964856e-02  5.412455e-01
   outer loop
     vertex -2.268067e+02  6.774136e+02 -5.606637e+02
     vertex -2.260682e+02  6.768261e+02 -5.617433e+02
     vertex -2.267303e+02  6.783014e+02 -5.608799e+02
   endloop
 endfacet
 facet normal  8.459795e-01  5.634394e-02  5.302302e-01
   outer loop
     vertex -2.268067e+02  6.774136e+02 -5.606637e+02
     vertex -2.267303e+02  6.783014e+02 -5.608799e+02
     vertex -2.269274e+02  6.780279e+02 -5.605365e+02
   endloop
 endfacet
 facet normal  8.199032e-01  4.279311e-02  5.709006e-01
   outer loop
     vertex -2.268067e+02  6.774136e+02 -5.606637e+02
     vertex -2.269274e+02  6.780279e+02 -5.605365e+02
     vertex -2.271523e+02  6.777747e+02 -5.601945e+02
   endloop
 endfacet
 facet normal  8.256684e-01  3.820382e-02  5.628607e-01
   outer loop
     vertex -2.266048e+02  6.768967e+02 -5.609195e+02
     vertex -2.265286e+02  6.762413e+02 -5.609869e+02
     vertex -2.262843e+02  6.765235e+02 -5.613644e+02
   endloop
 endfacet
 facet normal  8.384266e-01  7.694318e-02  5.395559e-01
   outer loop
     vertex -2.266048e+02  6.768967e+02 -5.609195e+02
     vertex -2.262843e+02  6.765235e+02 -5.613644e+02
     vertex -2.260682e+02  6.768261e+02 -5.617433e+02
   endloop
 endfacet
 facet normal  8.387463e-01  5.964856e-02  5.412455e-01
   outer loop
     vertex -2.266048e+02  6.768967e+02 -5.609195e+02
     vertex -2.260682e+02  6.768261e+02 -5.617433e+02
     vertex -2.268067e+02  6.774136e+02 -5.606637e+02
   endloop
 endfacet
 facet normal  7.966924e-01  1.806545e-02  6.041149e-01
   outer loop
     vertex -2.271590e+02  6.770594e+02 -5.601642e+02
     vertex -2.271523e+02  6.777747e+02 -5.601945e+02
     vertex -2.274038e+02  6.775430e+02 -5.598559e+02
   endloop
 endfacet
 facet normal  8.113172e-01  1.708965e-02  5.843564e-01
   outer loop
     vertex -2.271590e+02  6.770594e+02 -5.601642e+02
     vertex -2.268067e+02  6.774136e+02 -5.606637e+02
     vertex -2.271523e+02  6.777747e+02 -5.601945e+02
   endloop
 endfacet
 facet normal  7.795122e-01 -8.761228e-04  6.263864e-01
   outer loop
     vertex -2.269796e+02  6.765200e+02 -5.603883e+02
     vertex -2.270976e+02  6.757428e+02 -5.602425e+02
     vertex -2.268001e+02  6.759807e+02 -5.606124e+02
   endloop
 endfacet
 facet normal  8.029456e-01  1.965681e-02  5.957280e-01
   outer loop
     vertex -2.269796e+02  6.765200e+02 -5.603883e+02
     vertex -2.268001e+02  6.759807e+02 -5.606124e+02
     vertex -2.265286e+02  6.762413e+02 -5.609869e+02
   endloop
 endfacet
 facet normal  8.085702e-01  2.478955e-02  5.878774e-01
   outer loop
     vertex -2.269796e+02  6.765200e+02 -5.603883e+02
     vertex -2.266048e+02  6.768967e+02 -5.609195e+02
     vertex -2.268067e+02  6.774136e+02 -5.606637e+02
   endloop
 endfacet
 facet normal  8.055978e-01  3.292384e-02  5.915473e-01
   outer loop
     vertex -2.269796e+02  6.765200e+02 -5.603883e+02
     vertex -2.265286e+02  6.762413e+02 -5.609869e+02
     vertex -2.266048e+02  6.768967e+02 -5.609195e+02
   endloop
 endfacet
 facet normal  8.085702e-01  2.478955e-02  5.878774e-01
   outer loop
     vertex -2.269796e+02  6.765200e+02 -5.603883e+02
     vertex -2.268067e+02  6.774136e+02 -5.606637e+02
     vertex -2.271590e+02  6.770594e+02 -5.601642e+02
   endloop
 endfacet
 facet normal  7.723913e-01 -9.607413e-03  6.350743e-01
   outer loop
     vertex -2.275632e+02  6.767506e+02 -5.596739e+02
     vertex -2.274038e+02  6.775430e+02 -5.598559e+02
     vertex -2.276807e+02  6.773341e+02 -5.595222e+02
   endloop
 endfacet
 facet normal  7.424595e-01 -2.456801e-02  6.694402e-01
   outer loop
     vertex -2.275632e+02  6.767506e+02 -5.596739e+02
     vertex -2.276807e+02  6.773341e+02 -5.595222e+02
     vertex -2.279816e+02  6.771490e+02 -5.591953e+02
   endloop
 endfacet
 facet normal  7.748553e-01 -1.079848e-02  6.320464e-01
   outer loop
     vertex -2.275632e+02  6.767506e+02 -5.596739e+02
     vertex -2.271590e+02  6.770594e+02 -5.601642e+02
     vertex -2.274038e+02  6.775430e+02 -5.598559e+02
   endloop
 endfacet
 facet normal  7.551156e-01 -2.361621e-02  6.551661e-01
   outer loop
     vertex -2.274094e+02  6.761917e+02 -5.598669e+02
     vertex -2.274198e+02  6.755286e+02 -5.598789e+02
     vertex -2.270976e+02  6.757428e+02 -5.602425e+02
   endloop
 endfacet
 facet normal  7.708139e-01  2.445347e-03  6.370557e-01
   outer loop
     vertex -2.274094e+02  6.761917e+02 -5.598669e+02
     vertex -2.270976e+02  6.757428e+02 -5.602425e+02
     vertex -2.269796e+02  6.765200e+02 -5.603883e+02
   endloop
 endfacet
 facet normal  7.734147e-01 -6.014475e-03  6.338718e-01
   outer loop
     vertex -2.274094e+02  6.761917e+02 -5.598669e+02
     vertex -2.269796e+02  6.765200e+02 -5.603883e+02
     vertex -2.271590e+02  6.770594e+02 -5.601642e+02
   endloop
 endfacet
 facet normal  7.734147e-01 -6.014475e-03  6.338718e-01
   outer loop
     vertex -2.274094e+02  6.761917e+02 -5.598669e+02
     vertex -2.271590e+02  6.770594e+02 -5.601642e+02
     vertex -2.275632e+02  6.767506e+02 -5.596739e+02
   endloop
 endfacet
 facet normal  7.110156e-01 -3.900994e-02  7.020933e-01
   outer loop
     vertex -2.280154e+02  6.764902e+02 -5.591977e+02
     vertex -2.279816e+02  6.771490e+02 -5.591953e+02
     vertex -2.283048e+02  6.769887e+02 -5.588769e+02
   endloop
 endfacet
 facet normal  7.354910e-01 -4.017677e-02  6.763422e-01
   outer loop
     vertex -2.280154e+02  6.764902e+02 -5.591977e+02
     vertex -2.275632e+02  6.767506e+02 -5.596739e+02
     vertex -2.279816e+02  6.771490e+02 -5.591953e+02
   endloop
 endfacet
 facet normal  6.971290e-01 -5.067822e-02  7.151524e-01
   outer loop
     vertex -2.278903e+02  6.759147e+02 -5.593604e+02
     vertex -2.281326e+02  6.751751e+02 -5.591766e+02
     vertex -2.277653e+02  6.753391e+02 -5.595231e+02
   endloop
 endfacet
 facet normal  7.264897e-01 -3.611951e-02  6.862274e-01
   outer loop
     vertex -2.278903e+02  6.759147e+02 -5.593604e+02
     vertex -2.277653e+02  6.753391e+02 -5.595231e+02
     vertex -2.274198e+02  6.755286e+02 -5.598789e+02
   endloop
 endfacet
 facet normal  7.314402e-01 -2.372587e-02  6.814927e-01
   outer loop
     vertex -2.278903e+02  6.759147e+02 -5.593604e+02
     vertex -2.274198e+02  6.755286e+02 -5.598789e+02
     vertex -2.274094e+02  6.761917e+02 -5.598669e+02
   endloop
 endfacet
 facet normal  7.336205e-01 -3.246523e-02  6.787835e-01
   outer loop
     vertex -2.278903e+02  6.759147e+02 -5.593604e+02
     vertex -2.275632e+02  6.767506e+02 -5.596739e+02
     vertex -2.280154e+02  6.764902e+02 -5.591977e+02
   endloop
 endfacet
 facet normal  7.336205e-01 -3.246523e-02  6.787835e-01
   outer loop
     vertex -2.278903e+02  6.759147e+02 -5.593604e+02
     vertex -2.274094e+02  6.761917e+02 -5.598669e+02
     vertex -2.275632e+02  6.767506e+02 -5.596739e+02
   endloop
 endfacet
 facet normal  6.785964e-01 -5.623495e-02  7.323555e-01
   outer loop
     vertex -2.285112e+02  6.762806e+02 -5.587401e+02
     vertex -2.283048e+02  6.769887e+02 -5.588769e+02
     vertex -2.286489e+02  6.768540e+02 -5.585684e+02
   endloop
 endfacet
 facet normal  6.442747e-01 -7.313481e-02  7.612893e-01
   outer loop
     vertex -2.285112e+02  6.762806e+02 -5.587401e+02
     vertex -2.286489e+02  6.768540e+02 -5.585684e+02
     vertex -2.290119e+02  6.767456e+02 -5.582716e+02
   endloop
 endfacet
 facet normal  6.910356e-01 -6.222024e-02  7.201378e-01
   outer loop
     vertex -2.285112e+02  6.762806e+02 -5.587401e+02
     vertex -2.280154e+02  6.764902e+02 -5.591977e+02
     vertex -2.283048e+02  6.769887e+02 -5.588769e+02
   endloop
 endfacet
 facet normal  6.667170e-01 -6.744918e-02  7.422527e-01
   outer loop
     vertex -2.284176e+02  6.756918e+02 -5.588737e+02
     vertex -2.285202e+02  6.750373e+02 -5.588410e+02
     vertex -2.281326e+02  6.751751e+02 -5.591766e+02
   endloop
 endfacet
 facet normal  6.895727e-01 -5.430656e-02  7.221775e-01
   outer loop
     vertex -2.284176e+02  6.756918e+02 -5.588737e+02
     vertex -2.280154e+02  6.764902e+02 -5.591977e+02
     vertex -2.285112e+02  6.762806e+02 -5.587401e+02
   endloop
 endfacet
 facet normal  6.878579e-01 -4.533639e-02  7.244281e-01
   outer loop
     vertex -2.284176e+02  6.756918e+02 -5.588737e+02
     vertex -2.281326e+02  6.751751e+02 -5.591766e+02
     vertex -2.278903e+02  6.759147e+02 -5.593604e+02
   endloop
 endfacet
 facet normal  6.895727e-01 -5.430656e-02  7.221775e-01
   outer loop
     vertex -2.284176e+02  6.756918e+02 -5.588737e+02
     vertex -2.278903e+02  6.759147e+02 -5.593604e+02
     vertex -2.280154e+02  6.764902e+02 -5.591977e+02
   endloop
 endfacet
 facet normal  6.067435e-01 -7.612185e-02  7.912444e-01
   outer loop
     vertex -2.290457e+02  6.761239e+02 -5.583055e+02
     vertex -2.290119e+02  6.767456e+02 -5.582716e+02
     vertex -2.293920e+02  6.766641e+02 -5.579880e+02
   endloop
 endfacet
 facet normal  6.423565e-01 -7.649877e-02  7.625785e-01
   outer loop
     vertex -2.290457e+02  6.761239e+02 -5.583055e+02
     vertex -2.285112e+02  6.762806e+02 -5.587401e+02
     vertex -2.290119e+02  6.767456e+02 -5.582716e+02
   endloop
 endfacet
 facet normal  5.991864e-01 -8.137842e-02  7.964629e-01
   outer loop
     vertex -2.289860e+02  6.755251e+02 -5.584116e+02
     vertex -2.293494e+02  6.748426e+02 -5.582080e+02
     vertex -2.289264e+02  6.749263e+02 -5.585176e+02
   endloop
 endfacet
 facet normal  6.333400e-01 -7.335649e-02  7.703891e-01
   outer loop
     vertex -2.289860e+02  6.755251e+02 -5.584116e+02
     vertex -2.289264e+02  6.749263e+02 -5.585176e+02
     vertex -2.285202e+02  6.750373e+02 -5.588410e+02
   endloop
 endfacet
 facet normal  6.416980e-01 -7.132699e-02  7.636335e-01
   outer loop
     vertex -2.289860e+02  6.755251e+02 -5.584116e+02
     vertex -2.284176e+02  6.756918e+02 -5.588737e+02
     vertex -2.285112e+02  6.762806e+02 -5.587401e+02
   endloop
 endfacet
 facet normal  6.404892e-01 -6.217694e-02  7.654461e-01
   outer loop
     vertex -2.289860e+02  6.755251e+02 -5.584116e+02
     vertex -2.285202e+02  6.750373e+02 -5.588410e+02
     vertex -2.284176e+02  6.756918e+02 -5.588737e+02
   endloop
 endfacet
 facet normal  6.416980e-01 -7.132699e-02  7.636335e-01
   outer loop
     vertex -2.289860e+02  6.755251e+02 -5.584116e+02
     vertex -2.285112e+02  6.762806e+02 -5.587401e+02
     vertex -2.290457e+02  6.761239e+02 -5.583055e+02
   endloop
 endfacet
 facet normal  5.684192e-01 -8.190670e-02  8.186519e-01
   outer loop
     vertex -2.296138e+02  6.760216e+02 -5.578982e+02
     vertex -2.293920e+02  6.766641e+02 -5.579880e+02
     vertex -2.297873e+02  6.766097e+02 -5.577189e+02
   endloop
 endfacet
 facet normal  5.287474e-01 -1.009575e-01  8.427537e-01
   outer loop
     vertex -2.296138e+02  6.760216e+02 -5.578982e+02
     vertex -2.297873e+02  6.766097e+02 -5.577189e+02
     vertex -2.301958e+02  6.765830e+02 -5.574659e+02
   endloop
 endfacet
 facet normal  5.910434e-01 -9.213438e-02  8.013607e-01
   outer loop
     vertex -2.296138e+02  6.760216e+02 -5.578982e+02
     vertex -2.290457e+02  6.761239e+02 -5.583055e+02
     vertex -2.293920e+02  6.766641e+02 -5.579880e+02
   endloop
 endfacet
 facet normal  5.904600e-01 -8.336167e-02  8.027502e-01
   outer loop
     vertex -2.296138e+02  6.760216e+02 -5.578982e+02
     vertex -2.289860e+02  6.755251e+02 -5.584116e+02
     vertex -2.290457e+02  6.761239e+02 -5.583055e+02
   endloop
 endfacet
 facet normal  5.270833e-01 -7.743827e-02  8.462781e-01
   outer loop
     vertex -2.295903e+02  6.754163e+02 -5.579785e+02
     vertex -2.302386e+02  6.747582e+02 -5.576349e+02
     vertex -2.297874e+02  6.747865e+02 -5.579133e+02
   endloop
 endfacet
 facet normal  5.638883e-01 -9.160138e-02  8.207552e-01
   outer loop
     vertex -2.295903e+02  6.754163e+02 -5.579785e+02
     vertex -2.297874e+02  6.747865e+02 -5.579133e+02
     vertex -2.293494e+02  6.748426e+02 -5.582080e+02
   endloop
 endfacet
 facet normal  5.363548e-01 -9.029409e-02  8.391487e-01
   outer loop
     vertex -2.295903e+02  6.754163e+02 -5.579785e+02
     vertex -2.301958e+02  6.765830e+02 -5.574659e+02
     vertex -2.302386e+02  6.747582e+02 -5.576349e+02
   endloop
 endfacet
 facet normal  5.897926e-01 -7.408445e-02  8.041493e-01
   outer loop
     vertex -2.295903e+02  6.754163e+02 -5.579785e+02
     vertex -2.293494e+02  6.748426e+02 -5.582080e+02
     vertex -2.289860e+02  6.755251e+02 -5.584116e+02
   endloop
 endfacet
 facet normal  5.363548e-01 -9.029409e-02  8.391487e-01
   outer loop
     vertex -2.295903e+02  6.754163e+02 -5.579785e+02
     vertex -2.296138e+02  6.760216e+02 -5.578982e+02
     vertex -2.301958e+02  6.765830e+02 -5.574659e+02
   endloop
 endfacet
 facet normal  5.904600e-01 -8.336167e-02  8.027502e-01
   outer loop
     vertex -2.295903e+02  6.754163e+02 -5.579785e+02
     vertex -2.289860e+02  6.755251e+02 -5.584116e+02
     vertex -2.296138e+02  6.760216e+02 -5.578982e+02
   endloop
 endfacet
endsolid
