solid 
 facet normal  9.477876e-01  2.737565e-01  1.635727e-01
   outer loop
     vertex -2.490815e+02  6.349851e+02 -3.054040e+02
     vertex -2.494684e+02  6.362516e+02 -3.052817e+02
     vertex -2.503788e+02  6.353123e+02 -2.984348e+02
   endloop
 endfacet
 facet normal  9.477876e-01  2.737565e-01  1.635727e-01
   outer loop
     vertex -2.490815e+02  6.349851e+02 -3.054040e+02
     vertex -2.503788e+02  6.353123e+02 -2.984348e+02
     vertex -2.499919e+02  6.340458e+02 -2.985571e+02
   endloop
 endfacet
 facet normal  9.560669e-01  2.451451e-01  1.607484e-01
   outer loop
     vertex -2.487325e+02  6.337083e+02 -3.055328e+02
     vertex -2.499919e+02  6.340458e+02 -2.985571e+02
     vertex -2.496428e+02  6.327690e+02 -2.986858e+02
   endloop
 endfacet
 facet normal  9.560669e-01  2.451451e-01  1.607484e-01
   outer loop
     vertex -2.487325e+02  6.337083e+02 -3.055328e+02
     vertex -2.490815e+02  6.349851e+02 -3.054040e+02
     vertex -2.499919e+02  6.340458e+02 -2.985571e+02
   endloop
 endfacet
 facet normal  9.634903e-01  2.163142e-01  1.577802e-01
   outer loop
     vertex -2.484216e+02  6.324224e+02 -3.056679e+02
     vertex -2.496428e+02  6.327690e+02 -2.986858e+02
     vertex -2.493320e+02  6.314831e+02 -2.988209e+02
   endloop
 endfacet
 facet normal  9.634903e-01  2.163142e-01  1.577802e-01
   outer loop
     vertex -2.484216e+02  6.324224e+02 -3.056679e+02
     vertex -2.487325e+02  6.337083e+02 -3.055328e+02
     vertex -2.496428e+02  6.327690e+02 -2.986858e+02
   endloop
 endfacet
 facet normal  9.700513e-01  1.872897e-01  1.546708e-01
   outer loop
     vertex -2.481493e+02  6.311284e+02 -3.058092e+02
     vertex -2.493320e+02  6.314831e+02 -2.988209e+02
     vertex -2.490596e+02  6.301890e+02 -2.989622e+02
   endloop
 endfacet
 facet normal  9.757440e-01  1.580976e-01  1.514229e-01
   outer loop
     vertex -2.481493e+02  6.311284e+02 -3.058092e+02
     vertex -2.490596e+02  6.301890e+02 -2.989622e+02
     vertex -2.488260e+02  6.288882e+02 -2.991096e+02
   endloop
 endfacet
 facet normal  9.700513e-01  1.872897e-01  1.546708e-01
   outer loop
     vertex -2.481493e+02  6.311284e+02 -3.058092e+02
     vertex -2.484216e+02  6.324224e+02 -3.056679e+02
     vertex -2.493320e+02  6.314831e+02 -2.988209e+02
   endloop
 endfacet
 facet normal  9.757440e-01  1.580976e-01  1.514229e-01
   outer loop
     vertex -2.479156e+02  6.298275e+02 -3.059566e+02
     vertex -2.481493e+02  6.311284e+02 -3.058092e+02
     vertex -2.488260e+02  6.288882e+02 -2.991096e+02
   endloop
 endfacet
 facet normal  9.805632e-01  1.287640e-01  1.480394e-01
   outer loop
     vertex -2.477209e+02  6.285209e+02 -3.061099e+02
     vertex -2.488260e+02  6.288882e+02 -2.991096e+02
     vertex -2.486312e+02  6.275816e+02 -2.992630e+02
   endloop
 endfacet
 facet normal  9.845047e-01  9.931507e-02  1.445235e-01
   outer loop
     vertex -2.477209e+02  6.285209e+02 -3.061099e+02
     vertex -2.486312e+02  6.275816e+02 -2.992630e+02
     vertex -2.484756e+02  6.262704e+02 -2.994221e+02
   endloop
 endfacet
 facet normal  9.805632e-01  1.287640e-01  1.480394e-01
   outer loop
     vertex -2.477209e+02  6.285209e+02 -3.061099e+02
     vertex -2.479156e+02  6.298275e+02 -3.059566e+02
     vertex -2.488260e+02  6.288882e+02 -2.991096e+02
   endloop
 endfacet
 facet normal  9.845047e-01  9.931507e-02  1.445235e-01
   outer loop
     vertex -2.475653e+02  6.272098e+02 -3.062691e+02
     vertex -2.477209e+02  6.285209e+02 -3.061099e+02
     vertex -2.484756e+02  6.262704e+02 -2.994221e+02
   endloop
 endfacet
 facet normal  9.875649e-01  6.977726e-02  1.408781e-01
   outer loop
     vertex -2.474489e+02  6.258953e+02 -3.064340e+02
     vertex -2.484756e+02  6.262704e+02 -2.994221e+02
     vertex -2.483592e+02  6.249560e+02 -2.995870e+02
   endloop
 endfacet
 facet normal  9.875649e-01  6.977726e-02  1.408781e-01
   outer loop
     vertex -2.474489e+02  6.258953e+02 -3.064340e+02
     vertex -2.475653e+02  6.272098e+02 -3.062691e+02
     vertex -2.484756e+02  6.262704e+02 -2.994221e+02
   endloop
 endfacet
 facet normal  9.897412e-01  4.017700e-02  1.371067e-01
   outer loop
     vertex -2.473718e+02  6.245786e+02 -3.066043e+02
     vertex -2.483592e+02  6.249560e+02 -2.995870e+02
     vertex -2.482822e+02  6.236393e+02 -2.997574e+02
   endloop
 endfacet
 facet normal  9.897412e-01  4.017700e-02  1.371067e-01
   outer loop
     vertex -2.473718e+02  6.245786e+02 -3.066043e+02
     vertex -2.474489e+02  6.258953e+02 -3.064340e+02
     vertex -2.483592e+02  6.249560e+02 -2.995870e+02
   endloop
 endfacet
 facet normal  9.910314e-01  1.054077e-02  1.332126e-01
   outer loop
     vertex -2.473342e+02  6.232609e+02 -3.067801e+02
     vertex -2.482822e+02  6.236393e+02 -2.997574e+02
     vertex -2.482445e+02  6.223216e+02 -2.999331e+02
   endloop
 endfacet
 facet normal  9.910314e-01  1.054077e-02  1.332126e-01
   outer loop
     vertex -2.473342e+02  6.232609e+02 -3.067801e+02
     vertex -2.473718e+02  6.245786e+02 -3.066043e+02
     vertex -2.482822e+02  6.236393e+02 -2.997574e+02
   endloop
 endfacet
 facet normal  9.914346e-01 -1.910490e-02  1.291992e-01
   outer loop
     vertex -2.473360e+02  6.219434e+02 -3.069611e+02
     vertex -2.482445e+02  6.223216e+02 -2.999331e+02
     vertex -2.482463e+02  6.210041e+02 -3.001141e+02
   endloop
 endfacet
 facet normal  9.914346e-01 -1.910490e-02  1.291992e-01
   outer loop
     vertex -2.473360e+02  6.219434e+02 -3.069611e+02
     vertex -2.473342e+02  6.232609e+02 -3.067801e+02
     vertex -2.482445e+02  6.223216e+02 -2.999331e+02
   endloop
 endfacet
 facet normal  9.909503e-01 -4.873346e-02  1.250701e-01
   outer loop
     vertex -2.473772e+02  6.206272e+02 -3.071471e+02
     vertex -2.482463e+02  6.210041e+02 -3.001141e+02
     vertex -2.482876e+02  6.196879e+02 -3.003002e+02
   endloop
 endfacet
 facet normal  9.909503e-01 -4.873346e-02  1.250701e-01
   outer loop
     vertex -2.473772e+02  6.206272e+02 -3.071471e+02
     vertex -2.473360e+02  6.219434e+02 -3.069611e+02
     vertex -2.482463e+02  6.210041e+02 -3.001141e+02
   endloop
 endfacet
 facet normal  9.895790e-01 -7.831841e-02  1.208291e-01
   outer loop
     vertex -2.474579e+02  6.193136e+02 -3.073381e+02
     vertex -2.482876e+02  6.196879e+02 -3.003002e+02
     vertex -2.483682e+02  6.183743e+02 -3.004911e+02
   endloop
 endfacet
 facet normal  9.895790e-01 -7.831841e-02  1.208291e-01
   outer loop
     vertex -2.474579e+02  6.193136e+02 -3.073381e+02
     vertex -2.473772e+02  6.206272e+02 -3.071471e+02
     vertex -2.482876e+02  6.196879e+02 -3.003002e+02
   endloop
 endfacet
 facet normal  9.873218e-01 -1.078332e-01  1.164799e-01
   outer loop
     vertex -2.475779e+02  6.180036e+02 -3.075337e+02
     vertex -2.483682e+02  6.183743e+02 -3.004911e+02
     vertex -2.484882e+02  6.170643e+02 -3.006868e+02
   endloop
 endfacet
 facet normal  9.841809e-01 -1.372516e-01  1.120265e-01
   outer loop
     vertex -2.475779e+02  6.180036e+02 -3.075337e+02
     vertex -2.484882e+02  6.170643e+02 -3.006868e+02
     vertex -2.486474e+02  6.157593e+02 -3.008870e+02
   endloop
 endfacet
 facet normal  9.873218e-01 -1.078332e-01  1.164799e-01
   outer loop
     vertex -2.475779e+02  6.180036e+02 -3.075337e+02
     vertex -2.474579e+02  6.193136e+02 -3.073381e+02
     vertex -2.483682e+02  6.183743e+02 -3.004911e+02
   endloop
 endfacet
 facet normal  9.841809e-01 -1.372516e-01  1.120265e-01
   outer loop
     vertex -2.477371e+02  6.166986e+02 -3.077339e+02
     vertex -2.475779e+02  6.180036e+02 -3.075337e+02
     vertex -2.486474e+02  6.157593e+02 -3.008870e+02
   endloop
 endfacet
 facet normal  9.801590e-01 -1.665470e-01  1.074728e-01
   outer loop
     vertex -2.479354e+02  6.153996e+02 -3.079385e+02
     vertex -2.486474e+02  6.157593e+02 -3.008870e+02
     vertex -2.488457e+02  6.144603e+02 -3.010916e+02
   endloop
 endfacet
 facet normal  9.752597e-01 -1.956934e-01  1.028229e-01
   outer loop
     vertex -2.479354e+02  6.153996e+02 -3.079385e+02
     vertex -2.488457e+02  6.144603e+02 -3.010916e+02
     vertex -2.490829e+02  6.131685e+02 -3.013003e+02
   endloop
 endfacet
 facet normal  9.801590e-01 -1.665470e-01  1.074728e-01
   outer loop
     vertex -2.479354e+02  6.153996e+02 -3.079385e+02
     vertex -2.477371e+02  6.166986e+02 -3.077339e+02
     vertex -2.486474e+02  6.157593e+02 -3.008870e+02
   endloop
 endfacet
 facet normal  9.694875e-01 -2.246646e-01  9.808095e-02
   outer loop
     vertex -2.481726e+02  6.141078e+02 -3.081473e+02
     vertex -2.490829e+02  6.131685e+02 -3.013003e+02
     vertex -2.493588e+02  6.118850e+02 -3.015131e+02
   endloop
 endfacet
 facet normal  9.752597e-01 -1.956934e-01  1.028229e-01
   outer loop
     vertex -2.481726e+02  6.141078e+02 -3.081473e+02
     vertex -2.479354e+02  6.153996e+02 -3.079385e+02
     vertex -2.490829e+02  6.131685e+02 -3.013003e+02
   endloop
 endfacet
 facet normal  9.694875e-01 -2.246646e-01  9.808095e-02
   outer loop
     vertex -2.484485e+02  6.128243e+02 -3.083600e+02
     vertex -2.481726e+02  6.141078e+02 -3.081473e+02
     vertex -2.493588e+02  6.118850e+02 -3.015131e+02
   endloop
 endfacet
 facet normal  9.628474e-01 -2.534347e-01  9.325120e-02
   outer loop
     vertex -2.487628e+02  6.115504e+02 -3.085766e+02
     vertex -2.493588e+02  6.118850e+02 -3.015131e+02
     vertex -2.496732e+02  6.106111e+02 -3.017296e+02
   endloop
 endfacet
 facet normal  9.628474e-01 -2.534347e-01  9.325120e-02
   outer loop
     vertex -2.487628e+02  6.115504e+02 -3.085766e+02
     vertex -2.484485e+02  6.128243e+02 -3.083600e+02
     vertex -2.493588e+02  6.118850e+02 -3.015131e+02
   endloop
 endfacet
 facet normal  9.553454e-01 -2.819779e-01  8.833798e-02
   outer loop
     vertex -2.491153e+02  6.102871e+02 -3.087968e+02
     vertex -2.496732e+02  6.106111e+02 -3.017296e+02
     vertex -2.500257e+02  6.093478e+02 -3.019498e+02
   endloop
 endfacet
 facet normal  9.553454e-01 -2.819779e-01  8.833798e-02
   outer loop
     vertex -2.491153e+02  6.102871e+02 -3.087968e+02
     vertex -2.487628e+02  6.115504e+02 -3.085766e+02
     vertex -2.496732e+02  6.106111e+02 -3.017296e+02
   endloop
 endfacet
 facet normal  9.469883e-01 -3.102687e-01  8.334569e-02
   outer loop
     vertex -2.495057e+02  6.090356e+02 -3.090204e+02
     vertex -2.500257e+02  6.093478e+02 -3.019498e+02
     vertex -2.504160e+02  6.080963e+02 -3.021734e+02
   endloop
 endfacet
 facet normal  9.469883e-01 -3.102687e-01  8.334569e-02
   outer loop
     vertex -2.495057e+02  6.090356e+02 -3.090204e+02
     vertex -2.491153e+02  6.102871e+02 -3.087968e+02
     vertex -2.500257e+02  6.093478e+02 -3.019498e+02
   endloop
 endfacet
 facet normal  9.377835e-01 -3.382818e-01  7.827879e-02
   outer loop
     vertex -2.499335e+02  6.077970e+02 -3.092472e+02
     vertex -2.495057e+02  6.090356e+02 -3.090204e+02
     vertex -2.504160e+02  6.080963e+02 -3.021734e+02
   endloop
 endfacet
 facet normal  9.377835e-01 -3.382818e-01  7.827879e-02
   outer loop
     vertex -2.499335e+02  6.077970e+02 -3.092472e+02
     vertex -2.504160e+02  6.080963e+02 -3.021734e+02
     vertex -2.508439e+02  6.068577e+02 -3.024002e+02
   endloop
 endfacet
 facet normal  9.277392e-01 -3.659921e-01  7.314182e-02
   outer loop
     vertex -2.503985e+02  6.065725e+02 -3.094770e+02
     vertex -2.499335e+02  6.077970e+02 -3.092472e+02
     vertex -2.508439e+02  6.068577e+02 -3.024002e+02
   endloop
 endfacet
 facet normal  9.277392e-01 -3.659921e-01  7.314182e-02
   outer loop
     vertex -2.503985e+02  6.065725e+02 -3.094770e+02
     vertex -2.508439e+02  6.068577e+02 -3.024002e+02
     vertex -2.513089e+02  6.056331e+02 -3.026300e+02
   endloop
 endfacet
 facet normal  9.168645e-01 -3.933748e-01  6.793938e-02
   outer loop
     vertex -2.509002e+02  6.053630e+02 -3.097096e+02
     vertex -2.503985e+02  6.065725e+02 -3.094770e+02
     vertex -2.513089e+02  6.056331e+02 -3.026300e+02
   endloop
 endfacet
 facet normal  9.168645e-01 -3.933748e-01  6.793938e-02
   outer loop
     vertex -2.509002e+02  6.053630e+02 -3.097096e+02
     vertex -2.513089e+02  6.056331e+02 -3.026300e+02
     vertex -2.518105e+02  6.044237e+02 -3.028626e+02
   endloop
 endfacet
 facet normal  9.051691e-01 -4.204053e-01  6.267613e-02
   outer loop
     vertex -2.509002e+02  6.053630e+02 -3.097096e+02
     vertex -2.518105e+02  6.044237e+02 -3.028626e+02
     vertex -2.523485e+02  6.032304e+02 -3.030979e+02
   endloop
 endfacet
 facet normal  9.051691e-01 -4.204053e-01  6.267613e-02
   outer loop
     vertex -2.514381e+02  6.041697e+02 -3.099448e+02
     vertex -2.509002e+02  6.053630e+02 -3.097096e+02
     vertex -2.523485e+02  6.032304e+02 -3.030979e+02
   endloop
 endfacet
 facet normal  8.926634e-01 -4.470596e-01  5.735677e-02
   outer loop
     vertex -2.520118e+02  6.029937e+02 -3.101825e+02
     vertex -2.514381e+02  6.041697e+02 -3.099448e+02
     vertex -2.523485e+02  6.032304e+02 -3.030979e+02
   endloop
 endfacet
 facet normal  8.926634e-01 -4.470596e-01  5.735677e-02
   outer loop
     vertex -2.520118e+02  6.029937e+02 -3.101825e+02
     vertex -2.523485e+02  6.032304e+02 -3.030979e+02
     vertex -2.529222e+02  6.020544e+02 -3.033355e+02
   endloop
 endfacet
 facet normal  8.793587e-01 -4.733136e-01  5.198606e-02
   outer loop
     vertex -2.520118e+02  6.029937e+02 -3.101825e+02
     vertex -2.529222e+02  6.020544e+02 -3.033355e+02
     vertex -2.535311e+02  6.008967e+02 -3.035753e+02
   endloop
 endfacet
 facet normal  8.793587e-01 -4.733136e-01  5.198606e-02
   outer loop
     vertex -2.526208e+02  6.018360e+02 -3.104222e+02
     vertex -2.520118e+02  6.029937e+02 -3.101825e+02
     vertex -2.535311e+02  6.008967e+02 -3.035753e+02
   endloop
 endfacet
 facet normal  8.652668e-01 -4.991440e-01  4.656883e-02
   outer loop
     vertex -2.532644e+02  6.006976e+02 -3.106640e+02
     vertex -2.526208e+02  6.018360e+02 -3.104222e+02
     vertex -2.535311e+02  6.008967e+02 -3.035753e+02
   endloop
 endfacet
 facet normal  8.652668e-01 -4.991440e-01  4.656883e-02
   outer loop
     vertex -2.532644e+02  6.006976e+02 -3.106640e+02
     vertex -2.535311e+02  6.008967e+02 -3.035753e+02
     vertex -2.541748e+02  5.997583e+02 -3.038170e+02
   endloop
 endfacet
 facet normal  8.504004e-01 -5.245275e-01  4.110991e-02
   outer loop
     vertex -2.539422e+02  5.995796e+02 -3.109075e+02
     vertex -2.541748e+02  5.997583e+02 -3.038170e+02
     vertex -2.548526e+02  5.986403e+02 -3.040605e+02
   endloop
 endfacet
 facet normal  8.504004e-01 -5.245275e-01  4.110991e-02
   outer loop
     vertex -2.539422e+02  5.995796e+02 -3.109075e+02
     vertex -2.532644e+02  6.006976e+02 -3.106640e+02
     vertex -2.541748e+02  5.997583e+02 -3.038170e+02
   endloop
 endfacet
 facet normal  8.347728e-01 -5.494416e-01  3.561419e-02
   outer loop
     vertex -2.539422e+02  5.995796e+02 -3.109075e+02
     vertex -2.548526e+02  5.986403e+02 -3.040605e+02
     vertex -2.555639e+02  5.975437e+02 -3.043055e+02
   endloop
 endfacet
 facet normal  8.347728e-01 -5.494416e-01  3.561419e-02
   outer loop
     vertex -2.546536e+02  5.984830e+02 -3.111525e+02
     vertex -2.539422e+02  5.995796e+02 -3.109075e+02
     vertex -2.555639e+02  5.975437e+02 -3.043055e+02
   endloop
 endfacet
 facet normal  8.183979e-01 -5.738638e-01  3.008659e-02
   outer loop
     vertex -2.553978e+02  5.974087e+02 -3.113988e+02
     vertex -2.555639e+02  5.975437e+02 -3.043055e+02
     vertex -2.563082e+02  5.964694e+02 -3.045519e+02
   endloop
 endfacet
 facet normal  8.183979e-01 -5.738638e-01  3.008659e-02
   outer loop
     vertex -2.553978e+02  5.974087e+02 -3.113988e+02
     vertex -2.546536e+02  5.984830e+02 -3.111525e+02
     vertex -2.555639e+02  5.975437e+02 -3.043055e+02
   endloop
 endfacet
 facet normal  8.012905e-01 -5.977723e-01  2.453206e-02
   outer loop
     vertex -2.561743e+02  5.963578e+02 -3.116462e+02
     vertex -2.563082e+02  5.964694e+02 -3.045519e+02
     vertex -2.570846e+02  5.954185e+02 -3.047993e+02
   endloop
 endfacet
 facet normal  7.834658e-01 -6.211458e-01  1.895556e-02
   outer loop
     vertex -2.561743e+02  5.963578e+02 -3.116462e+02
     vertex -2.570846e+02  5.954185e+02 -3.047993e+02
     vertex -2.578926e+02  5.943918e+02 -3.050476e+02
   endloop
 endfacet
 facet normal  8.012905e-01 -5.977723e-01  2.453206e-02
   outer loop
     vertex -2.561743e+02  5.963578e+02 -3.116462e+02
     vertex -2.553978e+02  5.974087e+02 -3.113988e+02
     vertex -2.563082e+02  5.964694e+02 -3.045519e+02
   endloop
 endfacet
 facet normal  7.834658e-01 -6.211458e-01  1.895556e-02
   outer loop
     vertex -2.569822e+02  5.953311e+02 -3.118945e+02
     vertex -2.561743e+02  5.963578e+02 -3.116462e+02
     vertex -2.578926e+02  5.943918e+02 -3.050476e+02
   endloop
 endfacet
 facet normal  7.649397e-01 -6.439632e-01  1.336211e-02
   outer loop
     vertex -2.578210e+02  5.943295e+02 -3.121434e+02
     vertex -2.578926e+02  5.943918e+02 -3.050476e+02
     vertex -2.587314e+02  5.933902e+02 -3.052965e+02
   endloop
 endfacet
 facet normal  7.649397e-01 -6.439632e-01  1.336211e-02
   outer loop
     vertex -2.578210e+02  5.943295e+02 -3.121434e+02
     vertex -2.569822e+02  5.953311e+02 -3.118945e+02
     vertex -2.578926e+02  5.943918e+02 -3.050476e+02
   endloop
 endfacet
 facet normal  7.457290e-01 -6.662042e-01  7.756685e-03
   outer loop
     vertex -2.586899e+02  5.933541e+02 -3.123928e+02
     vertex -2.587314e+02  5.933902e+02 -3.052965e+02
     vertex -2.596002e+02  5.924148e+02 -3.055458e+02
   endloop
 endfacet
 facet normal  7.457290e-01 -6.662042e-01  7.756685e-03
   outer loop
     vertex -2.586899e+02  5.933541e+02 -3.123928e+02
     vertex -2.578210e+02  5.943295e+02 -3.121434e+02
     vertex -2.587314e+02  5.933902e+02 -3.052965e+02
   endloop
 endfacet
 facet normal  7.258507e-01 -6.878489e-01  2.144322e-03
   outer loop
     vertex -2.595880e+02  5.924055e+02 -3.126423e+02
     vertex -2.596002e+02  5.924148e+02 -3.055458e+02
     vertex -2.604984e+02  5.914662e+02 -3.057954e+02
   endloop
 endfacet
 facet normal  7.258507e-01 -6.878489e-01  2.144322e-03
   outer loop
     vertex -2.595880e+02  5.924055e+02 -3.126423e+02
     vertex -2.586899e+02  5.933541e+02 -3.123928e+02
     vertex -2.596002e+02  5.924148e+02 -3.055458e+02
   endloop
 endfacet
 facet normal  7.053227e-01 -7.088778e-01 -3.469960e-03
   outer loop
     vertex -2.605146e+02  5.914848e+02 -3.128918e+02
     vertex -2.604984e+02  5.914662e+02 -3.057954e+02
     vertex -2.614250e+02  5.905455e+02 -3.060449e+02
   endloop
 endfacet
 facet normal  6.841634e-01 -7.292722e-01 -9.081137e-03
   outer loop
     vertex -2.605146e+02  5.914848e+02 -3.128918e+02
     vertex -2.614250e+02  5.905455e+02 -3.060449e+02
     vertex -2.623792e+02  5.896534e+02 -3.062941e+02
   endloop
 endfacet
 facet normal  7.053227e-01 -7.088778e-01 -3.469960e-03
   outer loop
     vertex -2.605146e+02  5.914848e+02 -3.128918e+02
     vertex -2.595880e+02  5.924055e+02 -3.126423e+02
     vertex -2.604984e+02  5.914662e+02 -3.057954e+02
   endloop
 endfacet
 facet normal  6.841634e-01 -7.292722e-01 -9.081137e-03
   outer loop
     vertex -2.614689e+02  5.905927e+02 -3.131411e+02
     vertex -2.605146e+02  5.914848e+02 -3.128918e+02
     vertex -2.623792e+02  5.896534e+02 -3.062941e+02
   endloop
 endfacet
 facet normal  6.623916e-01 -7.490138e-01 -1.468418e-02
   outer loop
     vertex -2.624499e+02  5.897300e+02 -3.133899e+02
     vertex -2.623792e+02  5.896534e+02 -3.062941e+02
     vertex -2.633603e+02  5.887907e+02 -3.065429e+02
   endloop
 endfacet
 facet normal  6.623916e-01 -7.490138e-01 -1.468418e-02
   outer loop
     vertex -2.624499e+02  5.897300e+02 -3.133899e+02
     vertex -2.614689e+02  5.905927e+02 -3.131411e+02
     vertex -2.623792e+02  5.896534e+02 -3.062941e+02
   endloop
 endfacet
 facet normal  6.400269e-01 -7.680850e-01 -2.027409e-02
   outer loop
     vertex -2.634569e+02  5.888974e+02 -3.136380e+02
     vertex -2.633603e+02  5.887907e+02 -3.065429e+02
     vertex -2.643672e+02  5.879581e+02 -3.067910e+02
   endloop
 endfacet
 facet normal  6.400269e-01 -7.680850e-01 -2.027409e-02
   outer loop
     vertex -2.634569e+02  5.888974e+02 -3.136380e+02
     vertex -2.624499e+02  5.897300e+02 -3.133899e+02
     vertex -2.633603e+02  5.887907e+02 -3.065429e+02
   endloop
 endfacet
 facet normal  6.170893e-01 -7.864686e-01 -2.584584e-02
   outer loop
     vertex -2.644888e+02  5.880959e+02 -3.138852e+02
     vertex -2.643672e+02  5.879581e+02 -3.067910e+02
     vertex -2.653992e+02  5.871565e+02 -3.070382e+02
   endloop
 endfacet
 facet normal  6.170893e-01 -7.864686e-01 -2.584584e-02
   outer loop
     vertex -2.644888e+02  5.880959e+02 -3.138852e+02
     vertex -2.634569e+02  5.888974e+02 -3.136380e+02
     vertex -2.643672e+02  5.879581e+02 -3.067910e+02
   endloop
 endfacet
 facet normal  5.935993e-01 -8.041482e-01 -3.139446e-02
   outer loop
     vertex -2.655449e+02  5.873259e+02 -3.141312e+02
     vertex -2.653992e+02  5.871565e+02 -3.070382e+02
     vertex -2.664553e+02  5.863866e+02 -3.072842e+02
   endloop
 endfacet
 facet normal  5.695779e-01 -8.211080e-01 -3.691498e-02
   outer loop
     vertex -2.655449e+02  5.873259e+02 -3.141312e+02
     vertex -2.664553e+02  5.863866e+02 -3.072842e+02
     vertex -2.675345e+02  5.856490e+02 -3.075289e+02
   endloop
 endfacet
 facet normal  5.935993e-01 -8.041482e-01 -3.139446e-02
   outer loop
     vertex -2.655449e+02  5.873259e+02 -3.141312e+02
     vertex -2.644888e+02  5.880959e+02 -3.138852e+02
     vertex -2.653992e+02  5.871565e+02 -3.070382e+02
   endloop
 endfacet
 facet normal  5.450467e-01 -8.373327e-01 -4.240245e-02
   outer loop
     vertex -2.666241e+02  5.865883e+02 -3.143759e+02
     vertex -2.675345e+02  5.856490e+02 -3.075289e+02
     vertex -2.686358e+02  5.849444e+02 -3.077720e+02
   endloop
 endfacet
 facet normal  5.695779e-01 -8.211080e-01 -3.691498e-02
   outer loop
     vertex -2.666241e+02  5.865883e+02 -3.143759e+02
     vertex -2.655449e+02  5.873259e+02 -3.141312e+02
     vertex -2.675345e+02  5.856490e+02 -3.075289e+02
   endloop
 endfacet
 facet normal  5.450467e-01 -8.373327e-01 -4.240245e-02
   outer loop
     vertex -2.677255e+02  5.858837e+02 -3.146190e+02
     vertex -2.666241e+02  5.865883e+02 -3.143759e+02
     vertex -2.686358e+02  5.849444e+02 -3.077720e+02
   endloop
 endfacet
 facet normal  5.200276e-01 -8.528080e-01 -4.785197e-02
   outer loop
     vertex -2.688480e+02  5.852127e+02 -3.148603e+02
     vertex -2.686358e+02  5.849444e+02 -3.077720e+02
     vertex -2.697584e+02  5.842734e+02 -3.080133e+02
   endloop
 endfacet
 facet normal  5.200276e-01 -8.528080e-01 -4.785197e-02
   outer loop
     vertex -2.688480e+02  5.852127e+02 -3.148603e+02
     vertex -2.677255e+02  5.858837e+02 -3.146190e+02
     vertex -2.686358e+02  5.849444e+02 -3.077720e+02
   endloop
 endfacet
 facet normal  4.945430e-01 -8.675198e-01 -5.325865e-02
   outer loop
     vertex -2.699908e+02  5.845759e+02 -3.150996e+02
     vertex -2.697584e+02  5.842734e+02 -3.080133e+02
     vertex -2.709012e+02  5.836366e+02 -3.082526e+02
   endloop
 endfacet
 facet normal  4.686158e-01 -8.814552e-01 -5.861766e-02
   outer loop
     vertex -2.699908e+02  5.845759e+02 -3.150996e+02
     vertex -2.709012e+02  5.836366e+02 -3.082526e+02
     vertex -2.720631e+02  5.830347e+02 -3.084897e+02
   endloop
 endfacet
 facet normal  4.945430e-01 -8.675198e-01 -5.325865e-02
   outer loop
     vertex -2.699908e+02  5.845759e+02 -3.150996e+02
     vertex -2.688480e+02  5.852127e+02 -3.148603e+02
     vertex -2.697584e+02  5.842734e+02 -3.080133e+02
   endloop
 endfacet
 facet normal  4.686158e-01 -8.814552e-01 -5.861766e-02
   outer loop
     vertex -2.711527e+02  5.839740e+02 -3.153367e+02
     vertex -2.699908e+02  5.845759e+02 -3.150996e+02
     vertex -2.720631e+02  5.830347e+02 -3.084897e+02
   endloop
 endfacet
 facet normal  4.422690e-01 -8.946015e-01 -6.392420e-02
   outer loop
     vertex -2.723328e+02  5.834074e+02 -3.155713e+02
     vertex -2.720631e+02  5.830347e+02 -3.084897e+02
     vertex -2.732431e+02  5.824681e+02 -3.087243e+02
   endloop
 endfacet
 facet normal  4.155264e-01 -9.069470e-01 -6.917352e-02
   outer loop
     vertex -2.723328e+02  5.834074e+02 -3.155713e+02
     vertex -2.732431e+02  5.824681e+02 -3.087243e+02
     vertex -2.744402e+02  5.819373e+02 -3.089563e+02
   endloop
 endfacet
 facet normal  4.422690e-01 -8.946015e-01 -6.392420e-02
   outer loop
     vertex -2.723328e+02  5.834074e+02 -3.155713e+02
     vertex -2.711527e+02  5.839740e+02 -3.153367e+02
     vertex -2.720631e+02  5.830347e+02 -3.084897e+02
   endloop
 endfacet
 facet normal  4.155264e-01 -9.069470e-01 -6.917352e-02
   outer loop
     vertex -2.735299e+02  5.828766e+02 -3.158033e+02
     vertex -2.723328e+02  5.834074e+02 -3.155713e+02
     vertex -2.744402e+02  5.819373e+02 -3.089563e+02
   endloop
 endfacet
 facet normal  3.884118e-01 -9.184807e-01 -7.436092e-02
   outer loop
     vertex -2.747430e+02  5.823821e+02 -3.160324e+02
     vertex -2.735299e+02  5.828766e+02 -3.158033e+02
     vertex -2.744402e+02  5.819373e+02 -3.089563e+02
   endloop
 endfacet
 facet normal  3.884118e-01 -9.184807e-01 -7.436092e-02
   outer loop
     vertex -2.747430e+02  5.823821e+02 -3.160324e+02
     vertex -2.744402e+02  5.819373e+02 -3.089563e+02
     vertex -2.756533e+02  5.814428e+02 -3.091854e+02
   endloop
 endfacet
 facet normal  3.609496e-01 -9.291922e-01 -7.948176e-02
   outer loop
     vertex -2.747430e+02  5.823821e+02 -3.160324e+02
     vertex -2.756533e+02  5.814428e+02 -3.091854e+02
     vertex -2.768814e+02  5.809851e+02 -3.094115e+02
   endloop
 endfacet
 facet normal  3.609496e-01 -9.291922e-01 -7.948176e-02
   outer loop
     vertex -2.759710e+02  5.819245e+02 -3.162585e+02
     vertex -2.747430e+02  5.823821e+02 -3.160324e+02
     vertex -2.768814e+02  5.809851e+02 -3.094115e+02
   endloop
 endfacet
 facet normal  3.331642e-01 -9.390719e-01 -8.453144e-02
   outer loop
     vertex -2.772128e+02  5.815039e+02 -3.164813e+02
     vertex -2.759710e+02  5.819245e+02 -3.162585e+02
     vertex -2.768814e+02  5.809851e+02 -3.094115e+02
   endloop
 endfacet
 facet normal  3.331642e-01 -9.390719e-01 -8.453144e-02
   outer loop
     vertex -2.772128e+02  5.815039e+02 -3.164813e+02
     vertex -2.768814e+02  5.809851e+02 -3.094115e+02
     vertex -2.781232e+02  5.805646e+02 -3.096343e+02
   endloop
 endfacet
 facet normal  3.050806e-01 -9.481111e-01 -8.950547e-02
   outer loop
     vertex -2.772128e+02  5.815039e+02 -3.164813e+02
     vertex -2.781232e+02  5.805646e+02 -3.096343e+02
     vertex -2.793777e+02  5.801816e+02 -3.098536e+02
   endloop
 endfacet
 facet normal  3.050806e-01 -9.481111e-01 -8.950547e-02
   outer loop
     vertex -2.784674e+02  5.811210e+02 -3.167006e+02
     vertex -2.772128e+02  5.815039e+02 -3.164813e+02
     vertex -2.793777e+02  5.801816e+02 -3.098536e+02
   endloop
 endfacet
 facet normal  2.767239e-01 -9.563015e-01 -9.439937e-02
   outer loop
     vertex -2.797335e+02  5.807759e+02 -3.169163e+02
     vertex -2.784674e+02  5.811210e+02 -3.167006e+02
     vertex -2.793777e+02  5.801816e+02 -3.098536e+02
   endloop
 endfacet
 facet normal  2.767239e-01 -9.563015e-01 -9.439937e-02
   outer loop
     vertex -2.797335e+02  5.807759e+02 -3.169163e+02
     vertex -2.793777e+02  5.801816e+02 -3.098536e+02
     vertex -2.806438e+02  5.798366e+02 -3.100693e+02
   endloop
 endfacet
 facet normal  2.481195e-01 -9.636360e-01 -9.920877e-02
   outer loop
     vertex -2.797335e+02  5.807759e+02 -3.169163e+02
     vertex -2.806438e+02  5.798366e+02 -3.100693e+02
     vertex -2.819204e+02  5.795297e+02 -3.102811e+02
   endloop
 endfacet
 facet normal  2.481195e-01 -9.636360e-01 -9.920877e-02
   outer loop
     vertex -2.810100e+02  5.804690e+02 -3.171281e+02
     vertex -2.797335e+02  5.807759e+02 -3.169163e+02
     vertex -2.819204e+02  5.795297e+02 -3.102811e+02
   endloop
 endfacet
 facet normal  2.192930e-01 -9.701079e-01 -1.039294e-01
   outer loop
     vertex -2.810100e+02  5.804690e+02 -3.171281e+02
     vertex -2.819204e+02  5.795297e+02 -3.102811e+02
     vertex -2.832062e+02  5.792613e+02 -3.104889e+02
   endloop
 endfacet
 facet normal  2.192930e-01 -9.701079e-01 -1.039294e-01
   outer loop
     vertex -2.822958e+02  5.802006e+02 -3.173359e+02
     vertex -2.810100e+02  5.804690e+02 -3.171281e+02
     vertex -2.832062e+02  5.792613e+02 -3.104889e+02
   endloop
 endfacet
 facet normal  1.902703e-01 -9.757113e-01 -1.085569e-01
   outer loop
     vertex -2.835898e+02  5.799709e+02 -3.175395e+02
     vertex -2.822958e+02  5.802006e+02 -3.173359e+02
     vertex -2.832062e+02  5.792613e+02 -3.104889e+02
   endloop
 endfacet
 facet normal  1.902703e-01 -9.757113e-01 -1.085569e-01
   outer loop
     vertex -2.835898e+02  5.799709e+02 -3.175395e+02
     vertex -2.832062e+02  5.792613e+02 -3.104889e+02
     vertex -2.845002e+02  5.790316e+02 -3.106925e+02
   endloop
 endfacet
 facet normal  1.610772e-01 -9.804414e-01 -1.130873e-01
   outer loop
     vertex -2.835898e+02  5.799709e+02 -3.175395e+02
     vertex -2.845002e+02  5.790316e+02 -3.106925e+02
     vertex -2.858012e+02  5.788408e+02 -3.108916e+02
   endloop
 endfacet
 facet normal  1.610772e-01 -9.804414e-01 -1.130873e-01
   outer loop
     vertex -2.848908e+02  5.797801e+02 -3.177386e+02
     vertex -2.835898e+02  5.799709e+02 -3.175395e+02
     vertex -2.858012e+02  5.788408e+02 -3.108916e+02
   endloop
 endfacet
 facet normal  1.317399e-01 -9.842939e-01 -1.175165e-01
   outer loop
     vertex -2.848908e+02  5.797801e+02 -3.177386e+02
     vertex -2.858012e+02  5.788408e+02 -3.108916e+02
     vertex -2.871080e+02  5.786891e+02 -3.110862e+02
   endloop
 endfacet
 facet normal  1.317399e-01 -9.842939e-01 -1.175165e-01
   outer loop
     vertex -2.861976e+02  5.796285e+02 -3.179332e+02
     vertex -2.848908e+02  5.797801e+02 -3.177386e+02
     vertex -2.871080e+02  5.786891e+02 -3.110862e+02
   endloop
 endfacet
 facet normal  1.022847e-01 -9.872653e-01 -1.218405e-01
   outer loop
     vertex -2.861976e+02  5.796285e+02 -3.179332e+02
     vertex -2.871080e+02  5.786891e+02 -3.110862e+02
     vertex -2.884195e+02  5.785767e+02 -3.112760e+02
   endloop
 endfacet
 facet normal  1.022847e-01 -9.872653e-01 -1.218405e-01
   outer loop
     vertex -2.875091e+02  5.795160e+02 -3.181230e+02
     vertex -2.861976e+02  5.796285e+02 -3.179332e+02
     vertex -2.884195e+02  5.785767e+02 -3.112760e+02
   endloop
 endfacet
 facet normal  7.273788e-02 -9.893529e-01 -1.260554e-01
   outer loop
     vertex -2.888240e+02  5.794429e+02 -3.183078e+02
     vertex -2.875091e+02  5.795160e+02 -3.181230e+02
     vertex -2.884195e+02  5.785767e+02 -3.112760e+02
   endloop
 endfacet
 facet normal  7.273788e-02 -9.893529e-01 -1.260554e-01
   outer loop
     vertex -2.888240e+02  5.794429e+02 -3.183078e+02
     vertex -2.884195e+02  5.785767e+02 -3.112760e+02
     vertex -2.897344e+02  5.785036e+02 -3.114609e+02
   endloop
 endfacet
 facet normal  4.312600e-02 -9.905550e-01 -1.301574e-01
   outer loop
     vertex -2.901413e+02  5.794092e+02 -3.184876e+02
     vertex -2.888240e+02  5.794429e+02 -3.183078e+02
     vertex -2.897344e+02  5.785036e+02 -3.114609e+02
   endloop
 endfacet
 facet normal  4.312600e-02 -9.905550e-01 -1.301574e-01
   outer loop
     vertex -2.901413e+02  5.794092e+02 -3.184876e+02
     vertex -2.897344e+02  5.785036e+02 -3.114609e+02
     vertex -2.910517e+02  5.784698e+02 -3.116406e+02
   endloop
 endfacet
 facet normal  1.347551e-02 -9.908704e-01 -1.341430e-01
   outer loop
     vertex -2.901413e+02  5.794092e+02 -3.184876e+02
     vertex -2.910517e+02  5.784698e+02 -3.116406e+02
     vertex -2.923700e+02  5.784755e+02 -3.118151e+02
   endloop
 endfacet
 facet normal  1.347551e-02 -9.908704e-01 -1.341430e-01
   outer loop
     vertex -2.914597e+02  5.794149e+02 -3.186621e+02
     vertex -2.901413e+02  5.794092e+02 -3.184876e+02
     vertex -2.923700e+02  5.784755e+02 -3.118151e+02
   endloop
 endfacet
 facet normal -1.618703e-02 -9.902988e-01 -1.380085e-01
   outer loop
     vertex -2.927780e+02  5.794600e+02 -3.188312e+02
     vertex -2.923700e+02  5.784755e+02 -3.118151e+02
     vertex -2.936884e+02  5.785207e+02 -3.119842e+02
   endloop
 endfacet
 facet normal -4.583509e-02 -9.888407e-01 -1.417504e-01
   outer loop
     vertex -2.927780e+02  5.794600e+02 -3.188312e+02
     vertex -2.936884e+02  5.785207e+02 -3.119842e+02
     vertex -2.950055e+02  5.786051e+02 -3.121478e+02
   endloop
 endfacet
 facet normal -1.618703e-02 -9.902988e-01 -1.380085e-01
   outer loop
     vertex -2.927780e+02  5.794600e+02 -3.188312e+02
     vertex -2.914597e+02  5.794149e+02 -3.186621e+02
     vertex -2.923700e+02  5.784755e+02 -3.118151e+02
   endloop
 endfacet
 facet normal -7.544212e-02 -9.864975e-01 -1.453655e-01
   outer loop
     vertex -2.940951e+02  5.795445e+02 -3.189947e+02
     vertex -2.950055e+02  5.786051e+02 -3.121478e+02
     vertex -2.963201e+02  5.787289e+02 -3.123056e+02
   endloop
 endfacet
 facet normal -4.583509e-02 -9.888407e-01 -1.417504e-01
   outer loop
     vertex -2.940951e+02  5.795445e+02 -3.189947e+02
     vertex -2.927780e+02  5.794600e+02 -3.188312e+02
     vertex -2.950055e+02  5.786051e+02 -3.121478e+02
   endloop
 endfacet
 facet normal -1.049816e-01 -9.832713e-01 -1.488504e-01
   outer loop
     vertex -2.954098e+02  5.796683e+02 -3.191525e+02
     vertex -2.963201e+02  5.787289e+02 -3.123056e+02
     vertex -2.976312e+02  5.788919e+02 -3.124575e+02
   endloop
 endfacet
 facet normal -7.544212e-02 -9.864975e-01 -1.453655e-01
   outer loop
     vertex -2.954098e+02  5.796683e+02 -3.191525e+02
     vertex -2.940951e+02  5.795445e+02 -3.189947e+02
     vertex -2.963201e+02  5.787289e+02 -3.123056e+02
   endloop
 endfacet
 facet normal -1.049816e-01 -9.832713e-01 -1.488504e-01
   outer loop
     vertex -2.967209e+02  5.798312e+02 -3.193045e+02
     vertex -2.954098e+02  5.796683e+02 -3.191525e+02
     vertex -2.976312e+02  5.788919e+02 -3.124575e+02
   endloop
 endfacet
 facet normal -1.344271e-01 -9.791649e-01 -1.522021e-01
   outer loop
     vertex -2.980272e+02  5.800333e+02 -3.194505e+02
     vertex -2.976312e+02  5.788919e+02 -3.124575e+02
     vertex -2.989375e+02  5.790940e+02 -3.126035e+02
   endloop
 endfacet
 facet normal -1.637523e-01 -9.741820e-01 -1.554176e-01
   outer loop
     vertex -2.980272e+02  5.800333e+02 -3.194505e+02
     vertex -2.989375e+02  5.790940e+02 -3.126035e+02
     vertex -3.002379e+02  5.793349e+02 -3.127434e+02
   endloop
 endfacet
 facet normal -1.344271e-01 -9.791649e-01 -1.522021e-01
   outer loop
     vertex -2.980272e+02  5.800333e+02 -3.194505e+02
     vertex -2.967209e+02  5.798312e+02 -3.193045e+02
     vertex -2.976312e+02  5.788919e+02 -3.124575e+02
   endloop
 endfacet
 facet normal -1.929310e-01 -9.683271e-01 -1.584939e-01
   outer loop
     vertex -2.993276e+02  5.802742e+02 -3.195903e+02
     vertex -3.002379e+02  5.793349e+02 -3.127434e+02
     vertex -3.015312e+02  5.796144e+02 -3.128770e+02
   endloop
 endfacet
 facet normal -1.637523e-01 -9.741820e-01 -1.554176e-01
   outer loop
     vertex -2.993276e+02  5.802742e+02 -3.195903e+02
     vertex -2.980272e+02  5.800333e+02 -3.194505e+02
     vertex -3.002379e+02  5.793349e+02 -3.127434e+02
   endloop
 endfacet
 facet normal -2.219369e-01 -9.616054e-01 -1.614284e-01
   outer loop
     vertex -3.006209e+02  5.805537e+02 -3.197239e+02
     vertex -3.015312e+02  5.796144e+02 -3.128770e+02
     vertex -3.028163e+02  5.799323e+02 -3.130042e+02
   endloop
 endfacet
 facet normal -1.929310e-01 -9.683271e-01 -1.584939e-01
   outer loop
     vertex -3.006209e+02  5.805537e+02 -3.197239e+02
     vertex -2.993276e+02  5.802742e+02 -3.195903e+02
     vertex -3.015312e+02  5.796144e+02 -3.128770e+02
   endloop
 endfacet
 facet normal -2.219369e-01 -9.616054e-01 -1.614284e-01
   outer loop
     vertex -3.019059e+02  5.808717e+02 -3.198512e+02
     vertex -3.006209e+02  5.805537e+02 -3.197239e+02
     vertex -3.028163e+02  5.799323e+02 -3.130042e+02
   endloop
 endfacet
 facet normal -2.507441e-01 -9.540229e-01 -1.642184e-01
   outer loop
     vertex -3.031816e+02  5.812277e+02 -3.199719e+02
     vertex -3.019059e+02  5.808717e+02 -3.198512e+02
     vertex -3.028163e+02  5.799323e+02 -3.130042e+02
   endloop
 endfacet
 facet normal -2.507441e-01 -9.540229e-01 -1.642184e-01
   outer loop
     vertex -3.031816e+02  5.812277e+02 -3.199719e+02
     vertex -3.028163e+02  5.799323e+02 -3.130042e+02
     vertex -3.040919e+02  5.802884e+02 -3.131250e+02
   endloop
 endfacet
 facet normal -2.793269e-01 -9.455865e-01 -1.668613e-01
   outer loop
     vertex -3.031816e+02  5.812277e+02 -3.199719e+02
     vertex -3.040919e+02  5.802884e+02 -3.131250e+02
     vertex -3.053570e+02  5.806823e+02 -3.132391e+02
   endloop
 endfacet
 facet normal -3.076597e-01 -9.363036e-01 -1.693549e-01
   outer loop
     vertex -3.044466e+02  5.816216e+02 -3.200861e+02
     vertex -3.053570e+02  5.806823e+02 -3.132391e+02
     vertex -3.066104e+02  5.811136e+02 -3.133466e+02
   endloop
 endfacet
 facet normal -2.793269e-01 -9.455865e-01 -1.668613e-01
   outer loop
     vertex -3.044466e+02  5.816216e+02 -3.200861e+02
     vertex -3.031816e+02  5.812277e+02 -3.199719e+02
     vertex -3.053570e+02  5.806823e+02 -3.132391e+02
   endloop
 endfacet
 facet normal -3.076597e-01 -9.363036e-01 -1.693549e-01
   outer loop
     vertex -3.057001e+02  5.820529e+02 -3.201936e+02
     vertex -3.044466e+02  5.816216e+02 -3.200861e+02
     vertex -3.066104e+02  5.811136e+02 -3.133466e+02
   endloop
 endfacet
 facet normal -3.357171e-01 -9.261826e-01 -1.716969e-01
   outer loop
     vertex -3.069407e+02  5.825212e+02 -3.202943e+02
     vertex -3.057001e+02  5.820529e+02 -3.201936e+02
     vertex -3.066104e+02  5.811136e+02 -3.133466e+02
   endloop
 endfacet
 facet normal -3.357171e-01 -9.261826e-01 -1.716969e-01
   outer loop
     vertex -3.069407e+02  5.825212e+02 -3.202943e+02
     vertex -3.066104e+02  5.811136e+02 -3.133466e+02
     vertex -3.078510e+02  5.815819e+02 -3.134473e+02
   endloop
 endfacet
 facet normal -3.634739e-01 -9.152326e-01 -1.738853e-01
   outer loop
     vertex -3.069407e+02  5.825212e+02 -3.202943e+02
     vertex -3.078510e+02  5.815819e+02 -3.134473e+02
     vertex -3.090777e+02  5.820869e+02 -3.135411e+02
   endloop
 endfacet
 facet normal -3.634739e-01 -9.152326e-01 -1.738853e-01
   outer loop
     vertex -3.081674e+02  5.830262e+02 -3.203881e+02
     vertex -3.069407e+02  5.825212e+02 -3.202943e+02
     vertex -3.090777e+02  5.820869e+02 -3.135411e+02
   endloop
 endfacet
 facet normal -3.909054e-01 -9.034632e-01 -1.759179e-01
   outer loop
     vertex -3.093790e+02  5.835674e+02 -3.204750e+02
     vertex -3.081674e+02  5.830262e+02 -3.203881e+02
     vertex -3.090777e+02  5.820869e+02 -3.135411e+02
   endloop
 endfacet
 facet normal -3.909054e-01 -9.034632e-01 -1.759179e-01
   outer loop
     vertex -3.093790e+02  5.835674e+02 -3.204750e+02
     vertex -3.090777e+02  5.820869e+02 -3.135411e+02
     vertex -3.102894e+02  5.826281e+02 -3.136280e+02
   endloop
 endfacet
 facet normal -4.179870e-01 -8.908852e-01 -1.777931e-01
   outer loop
     vertex -3.093790e+02  5.835674e+02 -3.204750e+02
     vertex -3.102894e+02  5.826281e+02 -3.136280e+02
     vertex -3.114850e+02  5.832050e+02 -3.137078e+02
   endloop
 endfacet
 facet normal -4.179870e-01 -8.908852e-01 -1.777931e-01
   outer loop
     vertex -3.105746e+02  5.841443e+02 -3.205548e+02
     vertex -3.093790e+02  5.835674e+02 -3.204750e+02
     vertex -3.114850e+02  5.832050e+02 -3.137078e+02
   endloop
 endfacet
 facet normal -4.446944e-01 -8.775097e-01 -1.795092e-01
   outer loop
     vertex -3.117531e+02  5.847564e+02 -3.206275e+02
     vertex -3.105746e+02  5.841443e+02 -3.205548e+02
     vertex -3.114850e+02  5.832050e+02 -3.137078e+02
   endloop
 endfacet
 facet normal -4.446944e-01 -8.775097e-01 -1.795092e-01
   outer loop
     vertex -3.117531e+02  5.847564e+02 -3.206275e+02
     vertex -3.114850e+02  5.832050e+02 -3.137078e+02
     vertex -3.126634e+02  5.838170e+02 -3.137805e+02
   endloop
 endfacet
 facet normal -4.710038e-01 -8.633487e-01 -1.810645e-01
   outer loop
     vertex -3.129133e+02  5.854031e+02 -3.206931e+02
     vertex -3.117531e+02  5.847564e+02 -3.206275e+02
     vertex -3.126634e+02  5.838170e+02 -3.137805e+02
   endloop
 endfacet
 facet normal -4.710038e-01 -8.633487e-01 -1.810645e-01
   outer loop
     vertex -3.129133e+02  5.854031e+02 -3.206931e+02
     vertex -3.126634e+02  5.838170e+02 -3.137805e+02
     vertex -3.138237e+02  5.844637e+02 -3.138461e+02
   endloop
 endfacet
 facet normal -4.968916e-01 -8.484149e-01 -1.824578e-01
   outer loop
     vertex -3.129133e+02  5.854031e+02 -3.206931e+02
     vertex -3.138237e+02  5.844637e+02 -3.138461e+02
     vertex -3.149646e+02  5.851445e+02 -3.139044e+02
   endloop
 endfacet
 facet normal -4.968916e-01 -8.484149e-01 -1.824578e-01
   outer loop
     vertex -3.140542e+02  5.860838e+02 -3.207514e+02
     vertex -3.129133e+02  5.854031e+02 -3.206931e+02
     vertex -3.149646e+02  5.851445e+02 -3.139044e+02
   endloop
 endfacet
 facet normal -5.223345e-01 -8.327217e-01 -1.836878e-01
   outer loop
     vertex -3.140542e+02  5.860838e+02 -3.207514e+02
     vertex -3.149646e+02  5.851445e+02 -3.139044e+02
     vertex -3.160853e+02  5.858587e+02 -3.139554e+02
   endloop
 endfacet
 facet normal -5.223345e-01 -8.327217e-01 -1.836878e-01
   outer loop
     vertex -3.151749e+02  5.867980e+02 -3.208024e+02
     vertex -3.140542e+02  5.860838e+02 -3.207514e+02
     vertex -3.160853e+02  5.858587e+02 -3.139554e+02
   endloop
 endfacet
 facet normal -5.473099e-01 -8.162831e-01 -1.847533e-01
   outer loop
     vertex -3.162743e+02  5.875451e+02 -3.208461e+02
     vertex -3.151749e+02  5.867980e+02 -3.208024e+02
     vertex -3.160853e+02  5.858587e+02 -3.139554e+02
   endloop
 endfacet
 facet normal -5.473099e-01 -8.162831e-01 -1.847533e-01
   outer loop
     vertex -3.162743e+02  5.875451e+02 -3.208461e+02
     vertex -3.160853e+02  5.858587e+02 -3.139554e+02
     vertex -3.171847e+02  5.866057e+02 -3.139991e+02
   endloop
 endfacet
 facet normal -5.717954e-01 -7.991137e-01 -1.856535e-01
   outer loop
     vertex -3.162743e+02  5.875451e+02 -3.208461e+02
     vertex -3.171847e+02  5.866057e+02 -3.139991e+02
     vertex -3.182618e+02  5.873849e+02 -3.140354e+02
   endloop
 endfacet
 facet normal -5.717954e-01 -7.991137e-01 -1.856535e-01
   outer loop
     vertex -3.173514e+02  5.883242e+02 -3.208824e+02
     vertex -3.162743e+02  5.875451e+02 -3.208461e+02
     vertex -3.182618e+02  5.873849e+02 -3.140354e+02
   endloop
 endfacet
 facet normal -5.957691e-01 -7.812291e-01 -1.863874e-01
   outer loop
     vertex -3.184053e+02  5.891348e+02 -3.209113e+02
     vertex -3.173514e+02  5.883242e+02 -3.208824e+02
     vertex -3.182618e+02  5.873849e+02 -3.140354e+02
   endloop
 endfacet
 facet normal -5.957691e-01 -7.812291e-01 -1.863874e-01
   outer loop
     vertex -3.184053e+02  5.891348e+02 -3.209113e+02
     vertex -3.182618e+02  5.873849e+02 -3.140354e+02
     vertex -3.193157e+02  5.881955e+02 -3.140644e+02
   endloop
 endfacet
 facet normal -6.192095e-01 -7.626452e-01 -1.869546e-01
   outer loop
     vertex -3.184053e+02  5.891348e+02 -3.209113e+02
     vertex -3.193157e+02  5.881955e+02 -3.140644e+02
     vertex -3.203454e+02  5.890368e+02 -3.140858e+02
   endloop
 endfacet
 facet normal -6.192095e-01 -7.626452e-01 -1.869546e-01
   outer loop
     vertex -3.194350e+02  5.899761e+02 -3.209328e+02
     vertex -3.184053e+02  5.891348e+02 -3.209113e+02
     vertex -3.203454e+02  5.890368e+02 -3.140858e+02
   endloop
 endfacet
 facet normal -6.420956e-01 -7.433785e-01 -1.873543e-01
   outer loop
     vertex -3.204397e+02  5.908474e+02 -3.209469e+02
     vertex -3.194350e+02  5.899761e+02 -3.209328e+02
     vertex -3.203454e+02  5.890368e+02 -3.140858e+02
   endloop
 endfacet
 facet normal -6.420956e-01 -7.433785e-01 -1.873543e-01
   outer loop
     vertex -3.204397e+02  5.908474e+02 -3.209469e+02
     vertex -3.203454e+02  5.890368e+02 -3.140858e+02
     vertex -3.213500e+02  5.899081e+02 -3.140999e+02
   endloop
 endfacet
 facet normal -6.644069e-01 -7.234465e-01 -1.875864e-01
   outer loop
     vertex -3.204397e+02  5.908474e+02 -3.209469e+02
     vertex -3.213500e+02  5.899081e+02 -3.140999e+02
     vertex -3.223287e+02  5.908086e+02 -3.141065e+02
   endloop
 endfacet
 facet normal -6.644069e-01 -7.234465e-01 -1.875864e-01
   outer loop
     vertex -3.214183e+02  5.917479e+02 -3.209534e+02
     vertex -3.204397e+02  5.908474e+02 -3.209469e+02
     vertex -3.223287e+02  5.908086e+02 -3.141065e+02
   endloop
 endfacet
 facet normal -6.861235e-01 -7.028669e-01 -1.876506e-01
   outer loop
     vertex -3.214183e+02  5.917479e+02 -3.209534e+02
     vertex -3.223287e+02  5.908086e+02 -3.141065e+02
     vertex -3.232804e+02  5.917374e+02 -3.141056e+02
   endloop
 endfacet
 facet normal -6.861235e-01 -7.028669e-01 -1.876506e-01
   outer loop
     vertex -3.223701e+02  5.926768e+02 -3.209526e+02
     vertex -3.214183e+02  5.917479e+02 -3.209534e+02
     vertex -3.232804e+02  5.917374e+02 -3.141056e+02
   endloop
 endfacet
 facet normal -7.072259e-01 -6.816581e-01 -1.875468e-01
   outer loop
     vertex -3.232941e+02  5.936332e+02 -3.209442e+02
     vertex -3.223701e+02  5.926768e+02 -3.209526e+02
     vertex -3.232804e+02  5.917374e+02 -3.141056e+02
   endloop
 endfacet
 facet normal -7.072259e-01 -6.816581e-01 -1.875468e-01
   outer loop
     vertex -3.232941e+02  5.936332e+02 -3.209442e+02
     vertex -3.232804e+02  5.917374e+02 -3.141056e+02
     vertex -3.242045e+02  5.926938e+02 -3.140972e+02
   endloop
 endfacet
 facet normal -7.276952e-01 -6.598391e-01 -1.872751e-01
   outer loop
     vertex -3.241896e+02  5.946162e+02 -3.209284e+02
     vertex -3.232941e+02  5.936332e+02 -3.209442e+02
     vertex -3.242045e+02  5.926938e+02 -3.140972e+02
   endloop
 endfacet
 facet normal -7.276952e-01 -6.598391e-01 -1.872751e-01
   outer loop
     vertex -3.241896e+02  5.946162e+02 -3.209284e+02
     vertex -3.242045e+02  5.926938e+02 -3.140972e+02
     vertex -3.250999e+02  5.936769e+02 -3.140814e+02
   endloop
 endfacet
 facet normal -7.475132e-01 -6.374295e-01 -1.868357e-01
   outer loop
     vertex -3.241896e+02  5.946162e+02 -3.209284e+02
     vertex -3.250999e+02  5.936769e+02 -3.140814e+02
     vertex -3.259661e+02  5.946858e+02 -3.140582e+02
   endloop
 endfacet
 facet normal -7.475132e-01 -6.374295e-01 -1.868357e-01
   outer loop
     vertex -3.250557e+02  5.956251e+02 -3.209052e+02
     vertex -3.241896e+02  5.946162e+02 -3.209284e+02
     vertex -3.259661e+02  5.946858e+02 -3.140582e+02
   endloop
 endfacet
 facet normal -7.666621e-01 -6.144493e-01 -1.862291e-01
   outer loop
     vertex -3.250557e+02  5.956251e+02 -3.209052e+02
     vertex -3.259661e+02  5.946858e+02 -3.140582e+02
     vertex -3.268021e+02  5.957196e+02 -3.140275e+02
   endloop
 endfacet
 facet normal -7.666621e-01 -6.144493e-01 -1.862291e-01
   outer loop
     vertex -3.258917e+02  5.966590e+02 -3.208745e+02
     vertex -3.250557e+02  5.956251e+02 -3.209052e+02
     vertex -3.268021e+02  5.957196e+02 -3.140275e+02
   endloop
 endfacet
 facet normal -7.851246e-01 -5.909191e-01 -1.854559e-01
   outer loop
     vertex -3.266969e+02  5.977167e+02 -3.208364e+02
     vertex -3.258917e+02  5.966590e+02 -3.208745e+02
     vertex -3.268021e+02  5.957196e+02 -3.140275e+02
   endloop
 endfacet
 facet normal -7.851246e-01 -5.909191e-01 -1.854559e-01
   outer loop
     vertex -3.266969e+02  5.977167e+02 -3.208364e+02
     vertex -3.268021e+02  5.957196e+02 -3.140275e+02
     vertex -3.276072e+02  5.967774e+02 -3.139895e+02
   endloop
 endfacet
 facet normal -8.028844e-01 -5.668600e-01 -1.845166e-01
   outer loop
     vertex -3.266969e+02  5.977167e+02 -3.208364e+02
     vertex -3.276072e+02  5.967774e+02 -3.139895e+02
     vertex -3.283808e+02  5.978583e+02 -3.139440e+02
   endloop
 endfacet
 facet normal -8.028844e-01 -5.668600e-01 -1.845166e-01
   outer loop
     vertex -3.274704e+02  5.987976e+02 -3.207910e+02
     vertex -3.266969e+02  5.977167e+02 -3.208364e+02
     vertex -3.283808e+02  5.978583e+02 -3.139440e+02
   endloop
 endfacet
 facet normal -8.199255e-01 -5.422934e-01 -1.834121e-01
   outer loop
     vertex -3.282116e+02  5.999005e+02 -3.207382e+02
     vertex -3.274704e+02  5.987976e+02 -3.207910e+02
     vertex -3.283808e+02  5.978583e+02 -3.139440e+02
   endloop
 endfacet
 facet normal -8.199255e-01 -5.422934e-01 -1.834121e-01
   outer loop
     vertex -3.282116e+02  5.999005e+02 -3.207382e+02
     vertex -3.283808e+02  5.978583e+02 -3.139440e+02
     vertex -3.291220e+02  5.989612e+02 -3.138913e+02
   endloop
 endfacet
 facet normal -8.362327e-01 -5.172414e-01 -1.821435e-01
   outer loop
     vertex -3.282116e+02  5.999005e+02 -3.207382e+02
     vertex -3.291220e+02  5.989612e+02 -3.138913e+02
     vertex -3.298303e+02  6.000851e+02 -3.138313e+02
   endloop
 endfacet
 facet normal -8.362327e-01 -5.172414e-01 -1.821435e-01
   outer loop
     vertex -3.289199e+02  6.010245e+02 -3.206782e+02
     vertex -3.282116e+02  5.999005e+02 -3.207382e+02
     vertex -3.298303e+02  6.000851e+02 -3.138313e+02
   endloop
 endfacet
 facet normal -8.517913e-01 -4.917264e-01 -1.807118e-01
   outer loop
     vertex -3.295946e+02  6.021685e+02 -3.206110e+02
     vertex -3.289199e+02  6.010245e+02 -3.206782e+02
     vertex -3.298303e+02  6.000851e+02 -3.138313e+02
   endloop
 endfacet
 facet normal -8.517913e-01 -4.917264e-01 -1.807118e-01
   outer loop
     vertex -3.295946e+02  6.021685e+02 -3.206110e+02
     vertex -3.298303e+02  6.000851e+02 -3.138313e+02
     vertex -3.305050e+02  6.012292e+02 -3.137640e+02
   endloop
 endfacet
 facet normal -8.665874e-01 -4.657712e-01 -1.791184e-01
   outer loop
     vertex -3.295946e+02  6.021685e+02 -3.206110e+02
     vertex -3.305050e+02  6.012292e+02 -3.137640e+02
     vertex -3.311455e+02  6.023923e+02 -3.136896e+02
   endloop
 endfacet
 facet normal -8.665874e-01 -4.657712e-01 -1.791184e-01
   outer loop
     vertex -3.302352e+02  6.033316e+02 -3.205366e+02
     vertex -3.295946e+02  6.021685e+02 -3.206110e+02
     vertex -3.311455e+02  6.023923e+02 -3.136896e+02
   endloop
 endfacet
 facet normal -8.806079e-01 -4.393991e-01 -1.773646e-01
   outer loop
     vertex -3.308409e+02  6.045127e+02 -3.204551e+02
     vertex -3.311455e+02  6.023923e+02 -3.136896e+02
     vertex -3.317513e+02  6.035734e+02 -3.136081e+02
   endloop
 endfacet
 facet normal -8.806079e-01 -4.393991e-01 -1.773646e-01
   outer loop
     vertex -3.308409e+02  6.045127e+02 -3.204551e+02
     vertex -3.302352e+02  6.033316e+02 -3.205366e+02
     vertex -3.311455e+02  6.023923e+02 -3.136896e+02
   endloop
 endfacet
 facet normal -8.938400e-01 -4.126337e-01 -1.754521e-01
   outer loop
     vertex -3.308409e+02  6.045127e+02 -3.204551e+02
     vertex -3.317513e+02  6.035734e+02 -3.136081e+02
     vertex -3.323217e+02  6.047715e+02 -3.135196e+02
   endloop
 endfacet
 facet normal -8.938400e-01 -4.126337e-01 -1.754521e-01
   outer loop
     vertex -3.314114e+02  6.057108e+02 -3.203666e+02
     vertex -3.308409e+02  6.045127e+02 -3.204551e+02
     vertex -3.323217e+02  6.047715e+02 -3.135196e+02
   endloop
 endfacet
 facet normal -9.062721e-01 -3.854989e-01 -1.733825e-01
   outer loop
     vertex -3.319460e+02  6.069247e+02 -3.202711e+02
     vertex -3.323217e+02  6.047715e+02 -3.135196e+02
     vertex -3.328564e+02  6.059854e+02 -3.134242e+02
   endloop
 endfacet
 facet normal -9.178929e-01 -3.580191e-01 -1.711577e-01
   outer loop
     vertex -3.319460e+02  6.069247e+02 -3.202711e+02
     vertex -3.328564e+02  6.059854e+02 -3.134242e+02
     vertex -3.333547e+02  6.072142e+02 -3.133219e+02
   endloop
 endfacet
 facet normal -9.062721e-01 -3.854989e-01 -1.733825e-01
   outer loop
     vertex -3.319460e+02  6.069247e+02 -3.202711e+02
     vertex -3.314114e+02  6.057108e+02 -3.203666e+02
     vertex -3.323217e+02  6.047715e+02 -3.135196e+02
   endloop
 endfacet
 facet normal -9.286921e-01 -3.302188e-01 -1.687797e-01
   outer loop
     vertex -3.324443e+02  6.081535e+02 -3.201688e+02
     vertex -3.333547e+02  6.072142e+02 -3.133219e+02
     vertex -3.338163e+02  6.084566e+02 -3.132128e+02
   endloop
 endfacet
 facet normal -9.178929e-01 -3.580191e-01 -1.711577e-01
   outer loop
     vertex -3.324443e+02  6.081535e+02 -3.201688e+02
     vertex -3.319460e+02  6.069247e+02 -3.202711e+02
     vertex -3.333547e+02  6.072142e+02 -3.133219e+02
   endloop
 endfacet
 facet normal -9.286921e-01 -3.302188e-01 -1.687797e-01
   outer loop
     vertex -3.329059e+02  6.093959e+02 -3.200597e+02
     vertex -3.324443e+02  6.081535e+02 -3.201688e+02
     vertex -3.338163e+02  6.084566e+02 -3.132128e+02
   endloop
 endfacet
 facet normal -9.386600e-01 -3.021228e-01 -1.662506e-01
   outer loop
     vertex -3.333304e+02  6.106509e+02 -3.199440e+02
     vertex -3.338163e+02  6.084566e+02 -3.132128e+02
     vertex -3.342408e+02  6.097116e+02 -3.130970e+02
   endloop
 endfacet
 facet normal -9.386600e-01 -3.021228e-01 -1.662506e-01
   outer loop
     vertex -3.333304e+02  6.106509e+02 -3.199440e+02
     vertex -3.329059e+02  6.093959e+02 -3.200597e+02
     vertex -3.338163e+02  6.084566e+02 -3.132128e+02
   endloop
 endfacet
endsolid
