solid 
 facet normal  2.110369e-01 -8.694237e-01  4.467280e-01
   outer loop
     vertex -2.373784e+02  6.218225e+02 -5.693033e+02
     vertex -2.366897e+02  6.227281e+02 -5.678661e+02
     vertex -2.457974e+02  6.227520e+02 -5.635171e+02
   endloop
 endfacet
 facet normal  2.110369e-01 -8.694237e-01  4.467280e-01
   outer loop
     vertex -2.373784e+02  6.218225e+02 -5.693033e+02
     vertex -2.457974e+02  6.227520e+02 -5.635171e+02
     vertex -2.464861e+02  6.218463e+02 -5.649544e+02
   endloop
 endfacet
endsolid
