solid 
 facet normal -1.784150e-02 -9.902329e-01 -1.382765e-01
   outer loop
     vertex -2.800799e+02  6.079110e+02 -4.093945e+02
     vertex -2.790604e+02  6.078744e+02 -4.092640e+02
     vertex -2.872830e+02  5.993897e+02 -3.474425e+02
   endloop
 endfacet
 facet normal -1.854011e-02 -9.902092e-01 -1.383545e-01
   outer loop
     vertex -2.800799e+02  6.079110e+02 -4.093945e+02
     vertex -2.872830e+02  5.993897e+02 -3.474425e+02
     vertex -2.883423e+02  5.994285e+02 -3.475781e+02
   endloop
 endfacet
 facet normal -5.559280e-02 -9.881615e-01 -1.429909e-01
   outer loop
     vertex -2.810981e+02  6.079842e+02 -4.095199e+02
     vertex -2.883423e+02  5.994285e+02 -3.475781e+02
     vertex -2.894001e+02  5.995068e+02 -3.477080e+02
   endloop
 endfacet
 facet normal -8.332840e-02 -9.857125e-01 -1.463802e-01
   outer loop
     vertex -2.810981e+02  6.079842e+02 -4.095199e+02
     vertex -2.894001e+02  5.995068e+02 -3.477080e+02
     vertex -2.899280e+02  5.995608e+02 -3.477709e+02
   endloop
 endfacet
 facet normal -5.349995e-02 -9.883094e-01 -1.427665e-01
   outer loop
     vertex -2.810981e+02  6.079842e+02 -4.095199e+02
     vertex -2.800799e+02  6.079110e+02 -4.093945e+02
     vertex -2.883423e+02  5.994285e+02 -3.475781e+02
   endloop
 endfacet
 facet normal -1.017904e-01 -9.836559e-01 -1.485254e-01
   outer loop
     vertex -2.821136e+02  6.080939e+02 -4.096399e+02
     vertex -2.899280e+02  5.995608e+02 -3.477709e+02
     vertex -2.904550e+02  5.996246e+02 -3.478322e+02
   endloop
 endfacet
 facet normal -1.202086e-01 -9.812467e-01 -1.506810e-01
   outer loop
     vertex -2.821136e+02  6.080939e+02 -4.096399e+02
     vertex -2.904550e+02  5.996246e+02 -3.478322e+02
     vertex -2.909808e+02  5.996982e+02 -3.478920e+02
   endloop
 endfacet
 facet normal -8.908273e-02 -9.850991e-01 -1.471194e-01
   outer loop
     vertex -2.821136e+02  6.080939e+02 -4.096399e+02
     vertex -2.810981e+02  6.079842e+02 -4.095199e+02
     vertex -2.899280e+02  5.995608e+02 -3.477709e+02
   endloop
 endfacet
 facet normal -1.385945e-01 -9.785045e-01 -1.527107e-01
   outer loop
     vertex -2.831251e+02  6.082401e+02 -4.097544e+02
     vertex -2.909808e+02  5.996982e+02 -3.478920e+02
     vertex -2.915054e+02  5.997816e+02 -3.479503e+02
   endloop
 endfacet
 facet normal -1.245583e-01 -9.806210e-01 -1.512205e-01
   outer loop
     vertex -2.831251e+02  6.082401e+02 -4.097544e+02
     vertex -2.821136e+02  6.080939e+02 -4.096399e+02
     vertex -2.909808e+02  5.996982e+02 -3.478920e+02
   endloop
 endfacet
 facet normal -1.598759e-01 -9.748763e-01 -1.550997e-01
   outer loop
     vertex -2.841314e+02  6.084224e+02 -4.098632e+02
     vertex -2.831251e+02  6.082401e+02 -4.097544e+02
     vertex -2.915054e+02  5.997816e+02 -3.479503e+02
   endloop
 endfacet
 facet normal -1.660770e-01 -9.737464e-01 -1.556806e-01
   outer loop
     vertex -2.841314e+02  6.084224e+02 -4.098632e+02
     vertex -2.915054e+02  5.997816e+02 -3.479503e+02
     vertex -2.925499e+02  5.999776e+02 -3.480624e+02
   endloop
 endfacet
 facet normal -1.949816e-01 -9.678637e-01 -1.588141e-01
   outer loop
     vertex -2.851312e+02  6.086407e+02 -4.099662e+02
     vertex -2.841314e+02  6.084224e+02 -4.098632e+02
     vertex -2.925499e+02  5.999776e+02 -3.480624e+02
   endloop
 endfacet
 facet normal -2.025087e-01 -9.662065e-01 -1.594843e-01
   outer loop
     vertex -2.851312e+02  6.086407e+02 -4.099662e+02
     vertex -2.925499e+02  5.999776e+02 -3.480624e+02
     vertex -2.935871e+02  6.002125e+02 -3.481681e+02
   endloop
 endfacet
 facet normal -2.386572e-01 -9.573152e-01 -1.630657e-01
   outer loop
     vertex -2.861230e+02  6.088947e+02 -4.100633e+02
     vertex -2.935871e+02  6.002125e+02 -3.481681e+02
     vertex -2.946154e+02  6.004857e+02 -3.482674e+02
   endloop
 endfacet
 facet normal -2.298349e-01 -9.595976e-01 -1.623220e-01
   outer loop
     vertex -2.861230e+02  6.088947e+02 -4.100633e+02
     vertex -2.851312e+02  6.086407e+02 -4.099662e+02
     vertex -2.935871e+02  6.002125e+02 -3.481681e+02
   endloop
 endfacet
 facet normal -2.744717e-01 -9.470848e-01 -1.664199e-01
   outer loop
     vertex -2.871057e+02  6.091840e+02 -4.101543e+02
     vertex -2.946154e+02  6.004857e+02 -3.482674e+02
     vertex -2.956335e+02  6.007971e+02 -3.483600e+02
   endloop
 endfacet
 facet normal -2.643905e-01 -9.500885e-01 -1.656188e-01
   outer loop
     vertex -2.871057e+02  6.091840e+02 -4.101543e+02
     vertex -2.861230e+02  6.088947e+02 -4.100633e+02
     vertex -2.946154e+02  6.004857e+02 -3.482674e+02
   endloop
 endfacet
 facet normal -3.099022e-01 -9.355298e-01 -1.695421e-01
   outer loop
     vertex -2.880780e+02  6.095084e+02 -4.102391e+02
     vertex -2.956335e+02  6.007971e+02 -3.483600e+02
     vertex -2.966399e+02  6.011460e+02 -3.484460e+02
   endloop
 endfacet
 facet normal -2.986038e-01 -9.393487e-01 -1.687002e-01
   outer loop
     vertex -2.880780e+02  6.095084e+02 -4.102391e+02
     vertex -2.871057e+02  6.091840e+02 -4.101543e+02
     vertex -2.956335e+02  6.007971e+02 -3.483600e+02
   endloop
 endfacet
 facet normal -3.448993e-01 -9.226663e-01 -1.724280e-01
   outer loop
     vertex -2.890386e+02  6.098672e+02 -4.103176e+02
     vertex -2.966399e+02  6.011460e+02 -3.484460e+02
     vertex -2.976332e+02  6.015321e+02 -3.485251e+02
   endloop
 endfacet
 facet normal -3.324304e-01 -9.273923e-01 -1.715623e-01
   outer loop
     vertex -2.890386e+02  6.098672e+02 -4.103176e+02
     vertex -2.880780e+02  6.095084e+02 -4.102391e+02
     vertex -2.966399e+02  6.011460e+02 -3.484460e+02
   endloop
 endfacet
 facet normal -3.794138e-01 -9.085122e-01 -1.750735e-01
   outer loop
     vertex -2.899863e+02  6.102602e+02 -4.103897e+02
     vertex -2.976332e+02  6.015321e+02 -3.485251e+02
     vertex -2.986120e+02  6.019548e+02 -3.485973e+02
   endloop
 endfacet
 facet normal -3.658264e-01 -9.142346e-01 -1.742014e-01
   outer loop
     vertex -2.899863e+02  6.102602e+02 -4.103897e+02
     vertex -2.890386e+02  6.098672e+02 -4.103176e+02
     vertex -2.976332e+02  6.015321e+02 -3.485251e+02
   endloop
 endfacet
 facet normal -4.133976e-01 -8.930874e-01 -1.774749e-01
   outer loop
     vertex -2.909199e+02  6.106867e+02 -4.104554e+02
     vertex -2.986120e+02  6.019548e+02 -3.485973e+02
     vertex -2.995750e+02  6.024135e+02 -3.486624e+02
   endloop
 endfacet
 facet normal -3.987487e-01 -8.998928e-01 -1.766140e-01
   outer loop
     vertex -2.909199e+02  6.106867e+02 -4.104554e+02
     vertex -2.899863e+02  6.102602e+02 -4.103897e+02
     vertex -2.986120e+02  6.019548e+02 -3.485973e+02
   endloop
 endfacet
 facet normal -4.468031e-01 -8.764134e-01 -1.796289e-01
   outer loop
     vertex -2.918380e+02  6.111463e+02 -4.105144e+02
     vertex -2.995750e+02  6.024135e+02 -3.486624e+02
     vertex -3.005208e+02  6.029076e+02 -3.487204e+02
   endloop
 endfacet
 facet normal -4.311545e-01 -8.843853e-01 -1.787970e-01
   outer loop
     vertex -2.918380e+02  6.111463e+02 -4.105144e+02
     vertex -2.909199e+02  6.106867e+02 -4.104554e+02
     vertex -2.995750e+02  6.024135e+02 -3.486624e+02
   endloop
 endfacet
 facet normal -4.795836e-01 -8.585135e-01 -1.815324e-01
   outer loop
     vertex -2.927397e+02  6.116383e+02 -4.105668e+02
     vertex -3.005208e+02  6.029076e+02 -3.487204e+02
     vertex -3.014481e+02  6.034363e+02 -3.487712e+02
   endloop
 endfacet
 facet normal -4.630020e-01 -8.677324e-01 -1.807476e-01
   outer loop
     vertex -2.927397e+02  6.116383e+02 -4.105668e+02
     vertex -2.918380e+02  6.111463e+02 -4.105144e+02
     vertex -3.005208e+02  6.029076e+02 -3.487204e+02
   endloop
 endfacet
 facet normal -5.116933e-01 -8.394129e-01 -1.831828e-01
   outer loop
     vertex -2.936236e+02  6.121621e+02 -4.106125e+02
     vertex -3.014481e+02  6.034363e+02 -3.487712e+02
     vertex -3.023555e+02  6.039990e+02 -3.488147e+02
   endloop
 endfacet
 facet normal -4.942497e-01 -8.499555e-01 -1.824633e-01
   outer loop
     vertex -2.936236e+02  6.121621e+02 -4.106125e+02
     vertex -2.927397e+02  6.116383e+02 -4.105668e+02
     vertex -3.014481e+02  6.034363e+02 -3.487712e+02
   endloop
 endfacet
 facet normal -5.430872e-01 -8.191381e-01 -1.845778e-01
   outer loop
     vertex -2.944886e+02  6.127170e+02 -4.106514e+02
     vertex -3.023555e+02  6.039990e+02 -3.488147e+02
     vertex -3.032419e+02  6.045948e+02 -3.488508e+02
   endloop
 endfacet
 facet normal -5.248574e-01 -8.310777e-01 -1.839419e-01
   outer loop
     vertex -2.944886e+02  6.127170e+02 -4.106514e+02
     vertex -2.936236e+02  6.121621e+02 -4.106125e+02
     vertex -3.023555e+02  6.039990e+02 -3.488147e+02
   endloop
 endfacet
 facet normal -5.737215e-01 -7.977176e-01 -1.857154e-01
   outer loop
     vertex -2.953336e+02  6.133023e+02 -4.106834e+02
     vertex -3.032419e+02  6.045948e+02 -3.488508e+02
     vertex -3.041060e+02  6.052229e+02 -3.488795e+02
   endloop
 endfacet
 facet normal -5.547852e-01 -8.111234e-01 -1.851814e-01
   outer loop
     vertex -2.953336e+02  6.133023e+02 -4.106834e+02
     vertex -2.944886e+02  6.127170e+02 -4.106514e+02
     vertex -3.032419e+02  6.045948e+02 -3.488508e+02
   endloop
 endfacet
 facet normal -6.035533e-01 -7.751813e-01 -1.865941e-01
   outer loop
     vertex -2.961576e+02  6.139172e+02 -4.107086e+02
     vertex -3.041060e+02  6.052229e+02 -3.488795e+02
     vertex -3.049465e+02  6.058825e+02 -3.489008e+02
   endloop
 endfacet
 facet normal -5.839945e-01 -7.901186e-01 -1.861802e-01
   outer loop
     vertex -2.961576e+02  6.139172e+02 -4.107086e+02
     vertex -2.953336e+02  6.133023e+02 -4.106834e+02
     vertex -3.041060e+02  6.052229e+02 -3.488795e+02
   endloop
 endfacet
 facet normal -6.325408e-01 -7.515608e-01 -1.872126e-01
   outer loop
     vertex -2.969594e+02  6.145610e+02 -4.107269e+02
     vertex -3.049465e+02  6.058825e+02 -3.489008e+02
     vertex -3.057624e+02  6.065726e+02 -3.489146e+02
   endloop
 endfacet
 facet normal -6.124474e-01 -7.680903e-01 -1.869370e-01
   outer loop
     vertex -2.969594e+02  6.145610e+02 -4.107269e+02
     vertex -2.961576e+02  6.139172e+02 -4.107086e+02
     vertex -3.049465e+02  6.058825e+02 -3.489008e+02
   endloop
 endfacet
 facet normal -6.606442e-01 -7.268896e-01 -1.875651e-01
   outer loop
     vertex -2.977646e+02  6.152566e+02 -4.107385e+02
     vertex -3.057624e+02  6.065726e+02 -3.489146e+02
     vertex -3.065524e+02  6.072922e+02 -3.489209e+02
   endloop
 endfacet
 facet normal -6.405772e-01 -7.446595e-01 -1.874652e-01
   outer loop
     vertex -2.977646e+02  6.152566e+02 -4.107385e+02
     vertex -2.969594e+02  6.145610e+02 -4.107269e+02
     vertex -3.057624e+02  6.065726e+02 -3.489146e+02
   endloop
 endfacet
 facet normal -6.878237e-01 -7.012019e-01 -1.876553e-01
   outer loop
     vertex -2.985438e+02  6.159811e+02 -4.107427e+02
     vertex -3.065524e+02  6.072922e+02 -3.489209e+02
     vertex -3.073154e+02  6.080404e+02 -3.489197e+02
   endloop
 endfacet
 facet normal -6.683045e-01 -7.198071e-01 -1.877416e-01
   outer loop
     vertex -2.985438e+02  6.159811e+02 -4.107427e+02
     vertex -2.977646e+02  6.152566e+02 -4.107385e+02
     vertex -3.065524e+02  6.072922e+02 -3.489209e+02
   endloop
 endfacet
 facet normal -7.140411e-01 -6.745335e-01 -1.874829e-01
   outer loop
     vertex -2.992959e+02  6.167337e+02 -4.107395e+02
     vertex -3.073154e+02  6.080404e+02 -3.489197e+02
     vertex -3.080504e+02  6.088160e+02 -3.489110e+02
   endloop
 endfacet
 facet normal -6.951051e-01 -6.939567e-01 -1.877578e-01
   outer loop
     vertex -2.992959e+02  6.167337e+02 -4.107395e+02
     vertex -2.985438e+02  6.159811e+02 -4.107427e+02
     vertex -3.073154e+02  6.080404e+02 -3.489197e+02
   endloop
 endfacet
 facet normal -7.392600e-01 -6.469217e-01 -1.870482e-01
   outer loop
     vertex -3.000201e+02  6.175132e+02 -4.107288e+02
     vertex -3.080504e+02  6.088160e+02 -3.489110e+02
     vertex -3.087564e+02  6.096181e+02 -3.488948e+02
   endloop
 endfacet
 facet normal -7.209420e-01 -6.671441e-01 -1.875137e-01
   outer loop
     vertex -3.000201e+02  6.175132e+02 -4.107288e+02
     vertex -2.992959e+02  6.167337e+02 -4.107395e+02
     vertex -3.080504e+02  6.088160e+02 -3.489110e+02
   endloop
 endfacet
 facet normal -7.634449e-01 -6.184051e-01 -1.863519e-01
   outer loop
     vertex -3.007151e+02  6.183186e+02 -4.107107e+02
     vertex -3.087564e+02  6.096181e+02 -3.488948e+02
     vertex -3.094324e+02  6.104454e+02 -3.488712e+02
   endloop
 endfacet
 facet normal -7.457793e-01 -6.394065e-01 -1.870097e-01
   outer loop
     vertex -3.007151e+02  6.183186e+02 -4.107107e+02
     vertex -3.000201e+02  6.175132e+02 -4.107288e+02
     vertex -3.087564e+02  6.096181e+02 -3.488948e+02
   endloop
 endfacet
 facet normal -7.865621e-01 -5.890236e-01 -1.853948e-01
   outer loop
     vertex -3.013802e+02  6.191488e+02 -4.106853e+02
     vertex -3.094324e+02  6.104454e+02 -3.488712e+02
     vertex -3.100774e+02  6.112969e+02 -3.488401e+02
   endloop
 endfacet
 facet normal -7.695825e-01 -6.107823e-01 -1.862465e-01
   outer loop
     vertex -3.013802e+02  6.191488e+02 -4.106853e+02
     vertex -3.007151e+02  6.183186e+02 -4.107107e+02
     vertex -3.094324e+02  6.104454e+02 -3.488712e+02
   endloop
 endfacet
 facet normal -8.085792e-01 -5.588184e-01 -1.841784e-01
   outer loop
     vertex -3.020143e+02  6.200026e+02 -4.106524e+02
     vertex -3.100774e+02  6.112969e+02 -3.488401e+02
     vertex -3.106904e+02  6.121714e+02 -3.488016e+02
   endloop
 endfacet
 facet normal -7.923187e-01 -5.813112e-01 -1.852252e-01
   outer loop
     vertex -3.020143e+02  6.200026e+02 -4.106524e+02
     vertex -3.013802e+02  6.191488e+02 -4.106853e+02
     vertex -3.100774e+02  6.112969e+02 -3.488401e+02
   endloop
 endfacet
 facet normal -8.294655e-01 -5.278316e-01 -1.827043e-01
   outer loop
     vertex -3.026166e+02  6.208788e+02 -4.106123e+02
     vertex -3.106904e+02  6.121714e+02 -3.488016e+02
     vertex -3.112708e+02  6.130675e+02 -3.487558e+02
   endloop
 endfacet
 facet normal -8.139563e-01 -5.510342e-01 -1.839471e-01
   outer loop
     vertex -3.026166e+02  6.208788e+02 -4.106123e+02
     vertex -3.020143e+02  6.200026e+02 -4.106524e+02
     vertex -3.106904e+02  6.121714e+02 -3.488016e+02
   endloop
 endfacet
 facet normal -8.491916e-01 -4.961066e-01 -1.809746e-01
   outer loop
     vertex -3.031862e+02  6.217763e+02 -4.105649e+02
     vertex -3.112708e+02  6.130675e+02 -3.487558e+02
     vertex -3.118176e+02  6.139841e+02 -3.487028e+02
   endloop
 endfacet
 facet normal -8.344653e-01 -5.199931e-01 -1.824140e-01
   outer loop
     vertex -3.031862e+02  6.217763e+02 -4.105649e+02
     vertex -3.026166e+02  6.208788e+02 -4.106123e+02
     vertex -3.112708e+02  6.130675e+02 -3.487558e+02
   endloop
 endfacet
 facet normal -8.677302e-01 -4.636877e-01 -1.789918e-01
   outer loop
     vertex -3.037223e+02  6.226937e+02 -4.105103e+02
     vertex -3.118176e+02  6.139841e+02 -3.487028e+02
     vertex -3.123301e+02  6.149199e+02 -3.486425e+02
   endloop
 endfacet
 facet normal -8.538173e-01 -4.882310e-01 -1.806280e-01
   outer loop
     vertex -3.037223e+02  6.226937e+02 -4.105103e+02
     vertex -3.031862e+02  6.217763e+02 -4.105649e+02
     vertex -3.118176e+02  6.139841e+02 -3.487028e+02
   endloop
 endfacet
 facet normal -8.850551e-01 -4.306204e-01 -1.767585e-01
   outer loop
     vertex -3.042243e+02  6.236298e+02 -4.104485e+02
     vertex -3.123301e+02  6.149199e+02 -3.486425e+02
     vertex -3.128076e+02  6.158736e+02 -3.485751e+02
   endloop
 endfacet
 facet normal -8.719855e-01 -4.557920e-01 -1.785917e-01
   outer loop
     vertex -3.042243e+02  6.236298e+02 -4.104485e+02
     vertex -3.037223e+02  6.226937e+02 -4.105103e+02
     vertex -3.123301e+02  6.149199e+02 -3.486425e+02
   endloop
 endfacet
 facet normal -8.889446e-01 -4.227210e-01 -1.763078e-01
   outer loop
     vertex -3.046914e+02  6.245834e+02 -4.103798e+02
     vertex -3.042243e+02  6.236298e+02 -4.104485e+02
     vertex -3.128076e+02  6.158736e+02 -3.485751e+02
   endloop
 endfacet
 facet normal -9.011422e-01 -3.969508e-01 -1.742780e-01
   outer loop
     vertex -3.046914e+02  6.245834e+02 -4.103798e+02
     vertex -3.128076e+02  6.158736e+02 -3.485751e+02
     vertex -3.132493e+02  6.168438e+02 -3.485007e+02
   endloop
 endfacet
 facet normal -9.046712e-01 -3.890638e-01 -1.737796e-01
   outer loop
     vertex -3.051229e+02  6.255530e+02 -4.103041e+02
     vertex -3.046914e+02  6.245834e+02 -4.103798e+02
     vertex -3.132493e+02  6.168438e+02 -3.485007e+02
   endloop
 endfacet
 facet normal -9.159690e-01 -3.627260e-01 -1.715536e-01
   outer loop
     vertex -3.051229e+02  6.255530e+02 -4.103041e+02
     vertex -3.132493e+02  6.168438e+02 -3.485007e+02
     vertex -3.136548e+02  6.178292e+02 -3.484194e+02
   endloop
 endfacet
 facet normal -9.191434e-01 -3.548672e-01 -1.710104e-01
   outer loop
     vertex -3.055183e+02  6.265374e+02 -4.102216e+02
     vertex -3.051229e+02  6.255530e+02 -4.103041e+02
     vertex -3.136548e+02  6.178292e+02 -3.484194e+02
   endloop
 endfacet
 facet normal -9.295147e-01 -3.279939e-01 -1.685893e-01
   outer loop
     vertex -3.055183e+02  6.265374e+02 -4.102216e+02
     vertex -3.136548e+02  6.178292e+02 -3.484194e+02
     vertex -3.140233e+02  6.188284e+02 -3.483313e+02
   endloop
 endfacet
 facet normal -9.323413e-01 -3.201786e-01 -1.680042e-01
   outer loop
     vertex -3.058770e+02  6.275351e+02 -4.101324e+02
     vertex -3.055183e+02  6.265374e+02 -4.102216e+02
     vertex -3.140233e+02  6.188284e+02 -3.483313e+02
   endloop
 endfacet
 facet normal -9.417605e-01 -2.928032e-01 -1.653891e-01
   outer loop
     vertex -3.058770e+02  6.275351e+02 -4.101324e+02
     vertex -3.140233e+02  6.188284e+02 -3.483313e+02
     vertex -3.143545e+02  6.198400e+02 -3.482365e+02
   endloop
 endfacet
 facet normal -9.442464e-01 -2.850461e-01 -1.647652e-01
   outer loop
     vertex -3.061986e+02  6.285449e+02 -4.100366e+02
     vertex -3.058770e+02  6.275351e+02 -4.101324e+02
     vertex -3.143545e+02  6.198400e+02 -3.482365e+02
   endloop
 endfacet
 facet normal -9.526891e-01 -2.572029e-01 -1.619575e-01
   outer loop
     vertex -3.061986e+02  6.285449e+02 -4.100366e+02
     vertex -3.143545e+02  6.198400e+02 -3.482365e+02
     vertex -3.146478e+02  6.208626e+02 -3.481352e+02
   endloop
 endfacet
 facet normal -9.548422e-01 -2.495183e-01 -1.612977e-01
   outer loop
     vertex -3.064825e+02  6.295652e+02 -4.099343e+02
     vertex -3.061986e+02  6.285449e+02 -4.100366e+02
     vertex -3.146478e+02  6.208626e+02 -3.481352e+02
   endloop
 endfacet
 facet normal -9.622852e-01 -2.212429e-01 -1.582994e-01
   outer loop
     vertex -3.064825e+02  6.295652e+02 -4.099343e+02
     vertex -3.146478e+02  6.208626e+02 -3.481352e+02
     vertex -3.149028e+02  6.218947e+02 -3.480274e+02
   endloop
 endfacet
 facet normal -9.641142e-01 -2.136445e-01 -1.576067e-01
   outer loop
     vertex -3.067284e+02  6.305947e+02 -4.098257e+02
     vertex -3.064825e+02  6.295652e+02 -4.099343e+02
     vertex -3.149028e+02  6.218947e+02 -3.480274e+02
   endloop
 endfacet
 facet normal -9.705356e-01 -1.849735e-01 -1.544198e-01
   outer loop
     vertex -3.067284e+02  6.305947e+02 -4.098257e+02
     vertex -3.149028e+02  6.218947e+02 -3.480274e+02
     vertex -3.151192e+02  6.229350e+02 -3.479134e+02
   endloop
 endfacet
 facet normal -9.720494e-01 -1.774745e-01 -1.536972e-01
   outer loop
     vertex -3.069359e+02  6.316320e+02 -4.097110e+02
     vertex -3.067284e+02  6.305947e+02 -4.098257e+02
     vertex -3.151192e+02  6.229350e+02 -3.479134e+02
   endloop
 endfacet
 facet normal -9.774286e-01 -1.484453e-01 -1.503241e-01
   outer loop
     vertex -3.069359e+02  6.316320e+02 -4.097110e+02
     vertex -3.151192e+02  6.229350e+02 -3.479134e+02
     vertex -3.152967e+02  6.239820e+02 -3.477934e+02
   endloop
 endfacet
 facet normal -9.786368e-01 -1.410584e-01 -1.495746e-01
   outer loop
     vertex -3.071048e+02  6.326755e+02 -4.095902e+02
     vertex -3.069359e+02  6.316320e+02 -4.097110e+02
     vertex -3.152967e+02  6.239820e+02 -3.477934e+02
   endloop
 endfacet
 facet normal -9.829546e-01 -1.117096e-01 -1.460182e-01
   outer loop
     vertex -3.071048e+02  6.326755e+02 -4.095902e+02
     vertex -3.152967e+02  6.239820e+02 -3.477934e+02
     vertex -3.154350e+02  6.250341e+02 -3.476674e+02
   endloop
 endfacet
 facet normal -9.838673e-01 -1.044468e-01 -1.452447e-01
   outer loop
     vertex -3.072347e+02  6.337240e+02 -4.094636e+02
     vertex -3.071048e+02  6.326755e+02 -4.095902e+02
     vertex -3.154350e+02  6.250341e+02 -3.476674e+02
   endloop
 endfacet
 facet normal -9.871058e-01 -7.481768e-02 -1.415080e-01
   outer loop
     vertex -3.072347e+02  6.337240e+02 -4.094636e+02
     vertex -3.154350e+02  6.250341e+02 -3.476674e+02
     vertex -3.155339e+02  6.260900e+02 -3.475356e+02
   endloop
 endfacet
 facet normal -9.877336e-01 -6.769030e-02 -1.407135e-01
   outer loop
     vertex -3.073257e+02  6.347758e+02 -4.093313e+02
     vertex -3.072347e+02  6.337240e+02 -4.094636e+02
     vertex -3.155339e+02  6.260900e+02 -3.475356e+02
   endloop
 endfacet
 facet normal -9.898764e-01 -3.782111e-02 -1.367998e-01
   outer loop
     vertex -3.073257e+02  6.347758e+02 -4.093313e+02
     vertex -3.155339e+02  6.260900e+02 -3.475356e+02
     vertex -3.155933e+02  6.271481e+02 -3.473983e+02
   endloop
 endfacet
 facet normal -9.912627e-01 -7.716390e-04 -1.319002e-01
   outer loop
     vertex -3.073774e+02  6.358296e+02 -4.091936e+02
     vertex -3.155933e+02  6.271481e+02 -3.473983e+02
     vertex -3.156131e+02  6.282070e+02 -3.472556e+02
   endloop
 endfacet
 facet normal -9.902305e-01 -3.083995e-02 -1.359872e-01
   outer loop
     vertex -3.073774e+02  6.358296e+02 -4.091936e+02
     vertex -3.073257e+02  6.347758e+02 -4.093313e+02
     vertex -3.155933e+02  6.271481e+02 -3.473983e+02
   endloop
 endfacet
 facet normal -9.912626e-01  3.627890e-02 -1.268161e-01
   outer loop
     vertex -3.073899e+02  6.368839e+02 -4.090505e+02
     vertex -3.156131e+02  6.282070e+02 -3.472556e+02
     vertex -3.155933e+02  6.292651e+02 -3.471077e+02
   endloop
 endfacet
 facet normal -9.913543e-01  6.053163e-03 -1.310725e-01
   outer loop
     vertex -3.073899e+02  6.368839e+02 -4.090505e+02
     vertex -3.073774e+02  6.358296e+02 -4.091936e+02
     vertex -3.156131e+02  6.282070e+02 -3.472556e+02
   endloop
 endfacet
 facet normal -9.898761e-01  7.327869e-02 -1.215546e-01
   outer loop
     vertex -3.073631e+02  6.379372e+02 -4.089024e+02
     vertex -3.155933e+02  6.292651e+02 -3.471077e+02
     vertex -3.155339e+02  6.303211e+02 -3.469549e+02
   endloop
 endfacet
 facet normal -9.911036e-01  4.293789e-02 -1.259760e-01
   outer loop
     vertex -3.073631e+02  6.379372e+02 -4.089024e+02
     vertex -3.073899e+02  6.368839e+02 -4.090505e+02
     vertex -3.155933e+02  6.292651e+02 -3.471077e+02
   endloop
 endfacet
 facet normal -9.871052e-01  1.101760e-01 -1.161230e-01
   outer loop
     vertex -3.072970e+02  6.389881e+02 -4.087494e+02
     vertex -3.155339e+02  6.303211e+02 -3.469549e+02
     vertex -3.154350e+02  6.313734e+02 -3.467973e+02
   endloop
 endfacet
 facet normal -9.894787e-01  7.976309e-02 -1.207050e-01
   outer loop
     vertex -3.072970e+02  6.389881e+02 -4.087494e+02
     vertex -3.073631e+02  6.379372e+02 -4.089024e+02
     vertex -3.155339e+02  6.303211e+02 -3.469549e+02
   endloop
 endfacet
 facet normal -9.829538e-01  1.469192e-01 -1.105290e-01
   outer loop
     vertex -3.071918e+02  6.400351e+02 -4.085917e+02
     vertex -3.154350e+02  6.313734e+02 -3.467973e+02
     vertex -3.152967e+02  6.324206e+02 -3.466352e+02
   endloop
 endfacet
 facet normal -9.864819e-01  1.164777e-01 -1.152666e-01
   outer loop
     vertex -3.071918e+02  6.400351e+02 -4.085917e+02
     vertex -3.072970e+02  6.389881e+02 -4.087494e+02
     vertex -3.154350e+02  6.313734e+02 -3.467973e+02
   endloop
 endfacet
 facet normal -9.774276e-01  1.834569e-01 -1.047803e-01
   outer loop
     vertex -3.070476e+02  6.410767e+02 -4.084296e+02
     vertex -3.152967e+02  6.324206e+02 -3.466352e+02
     vertex -3.151192e+02  6.334612e+02 -3.464688e+02
   endloop
 endfacet
 facet normal -9.821173e-01  1.530308e-01 -1.096685e-01
   outer loop
     vertex -3.070476e+02  6.410767e+02 -4.084296e+02
     vertex -3.071918e+02  6.400351e+02 -4.085917e+02
     vertex -3.152967e+02  6.324206e+02 -3.466352e+02
   endloop
 endfacet
 facet normal -9.705344e-01  2.197380e-01 -9.888509e-02
   outer loop
     vertex -3.068646e+02  6.421116e+02 -4.082632e+02
     vertex -3.151192e+02  6.334612e+02 -3.464688e+02
     vertex -3.149028e+02  6.344937e+02 -3.462983e+02
   endloop
 endfacet
 facet normal -9.763910e-01  1.893718e-01 -1.039183e-01
   outer loop
     vertex -3.068646e+02  6.421116e+02 -4.082632e+02
     vertex -3.070476e+02  6.410767e+02 -4.084296e+02
     vertex -3.151192e+02  6.334612e+02 -3.464688e+02
   endloop
 endfacet
 facet normal -9.622838e-01  2.557118e-01 -9.285149e-02
   outer loop
     vertex -3.066431e+02  6.431383e+02 -4.080928e+02
     vertex -3.149028e+02  6.344937e+02 -3.462983e+02
     vertex -3.146478e+02  6.355167e+02 -3.461240e+02
   endloop
 endfacet
 facet normal -9.693108e-01  2.254502e-01 -9.802413e-02
   outer loop
     vertex -3.066431e+02  6.431383e+02 -4.080928e+02
     vertex -3.068646e+02  6.421116e+02 -4.082632e+02
     vertex -3.149028e+02  6.344937e+02 -3.462983e+02
   endloop
 endfacet
 facet normal -9.526874e-01  2.913280e-01 -8.668798e-02
   outer loop
     vertex -3.063833e+02  6.441553e+02 -4.079187e+02
     vertex -3.146478e+02  6.355167e+02 -3.461240e+02
     vertex -3.143545e+02  6.365288e+02 -3.459461e+02
   endloop
 endfacet
 facet normal -9.608867e-01  2.612160e-01 -9.199408e-02
   outer loop
     vertex -3.063833e+02  6.441553e+02 -4.079187e+02
     vertex -3.066431e+02  6.431383e+02 -4.080928e+02
     vertex -3.146478e+02  6.355167e+02 -3.461240e+02
   endloop
 endfacet
 facet normal -9.417585e-01  3.265367e-01 -8.040319e-02
   outer loop
     vertex -3.060856e+02  6.451613e+02 -4.077410e+02
     vertex -3.143545e+02  6.365288e+02 -3.459461e+02
     vertex -3.140233e+02  6.375285e+02 -3.457648e+02
   endloop
 endfacet
 facet normal -9.511303e-01  2.966196e-01 -8.583651e-02
   outer loop
     vertex -3.060856e+02  6.451613e+02 -4.077410e+02
     vertex -3.063833e+02  6.441553e+02 -4.079187e+02
     vertex -3.143545e+02  6.365288e+02 -3.459461e+02
   endloop
 endfacet
 facet normal -9.295126e-01  3.612887e-01 -7.400590e-02
   outer loop
     vertex -3.057504e+02  6.461548e+02 -4.075601e+02
     vertex -3.140233e+02  6.375285e+02 -3.457648e+02
     vertex -3.136548e+02  6.385145e+02 -3.455805e+02
   endloop
 endfacet
 facet normal -9.400552e-01  3.316120e-01 -7.955998e-02
   outer loop
     vertex -3.057504e+02  6.461548e+02 -4.075601e+02
     vertex -3.060856e+02  6.451613e+02 -4.077410e+02
     vertex -3.140233e+02  6.375285e+02 -3.457648e+02
   endloop
 endfacet
 facet normal -9.159666e-01  3.955354e-01 -6.750507e-02
   outer loop
     vertex -3.053783e+02  6.471345e+02 -4.073762e+02
     vertex -3.136548e+02  6.385145e+02 -3.455805e+02
     vertex -3.132493e+02  6.394854e+02 -3.453933e+02
   endloop
 endfacet
 facet normal -9.276766e-01  3.661446e-01 -7.317317e-02
   outer loop
     vertex -3.053783e+02  6.471345e+02 -4.073762e+02
     vertex -3.057504e+02  6.461548e+02 -4.075601e+02
     vertex -3.136548e+02  6.385145e+02 -3.455805e+02
   endloop
 endfacet
 facet normal -9.011396e-01  4.292289e-01 -6.090978e-02
   outer loop
     vertex -3.049696e+02  6.480990e+02 -4.071894e+02
     vertex -3.132493e+02  6.394854e+02 -3.453933e+02
     vertex -3.128076e+02  6.404398e+02 -3.452036e+02
   endloop
 endfacet
 facet normal -9.140118e-01  4.001695e-01 -6.668495e-02
   outer loop
     vertex -3.049696e+02  6.480990e+02 -4.071894e+02
     vertex -3.053783e+02  6.471345e+02 -4.073762e+02
     vertex -3.132493e+02  6.394854e+02 -3.453933e+02
   endloop
 endfacet
 facet normal -8.850523e-01  4.623221e-01 -5.422927e-02
   outer loop
     vertex -3.045250e+02  6.490469e+02 -4.070002e+02
     vertex -3.128076e+02  6.404398e+02 -3.452036e+02
     vertex -3.123301e+02  6.413763e+02 -3.450115e+02
   endloop
 endfacet
 facet normal -8.990796e-01  4.336396e-01 -6.010431e-02
   outer loop
     vertex -3.045250e+02  6.490469e+02 -4.070002e+02
     vertex -3.049696e+02  6.480990e+02 -4.071894e+02
     vertex -3.128076e+02  6.404398e+02 -3.452036e+02
   endloop
 endfacet
 facet normal -8.829009e-01  4.665084e-01 -5.344036e-02
   outer loop
     vertex -3.040451e+02  6.499771e+02 -4.068087e+02
     vertex -3.045250e+02  6.490469e+02 -4.070002e+02
     vertex -3.123301e+02  6.413763e+02 -3.450115e+02
   endloop
 endfacet
 facet normal -8.677271e-01  4.947686e-01 -4.747287e-02
   outer loop
     vertex -3.040451e+02  6.499771e+02 -4.068087e+02
     vertex -3.123301e+02  6.413763e+02 -3.450115e+02
     vertex -3.118176e+02  6.422938e+02 -3.448174e+02
   endloop
 endfacet
 facet normal -8.654980e-01  4.987304e-01 -4.670236e-02
   outer loop
     vertex -3.035306e+02  6.508881e+02 -4.066152e+02
     vertex -3.040451e+02  6.499771e+02 -4.068087e+02
     vertex -3.118176e+02  6.422938e+02 -3.448174e+02
   endloop
 endfacet
 facet normal -8.491883e-01  5.265232e-01 -4.065005e-02
   outer loop
     vertex -3.035306e+02  6.508881e+02 -4.066152e+02
     vertex -3.118176e+02  6.422938e+02 -3.448174e+02
     vertex -3.112708e+02  6.431908e+02 -3.446216e+02
   endloop
 endfacet
 facet normal -8.468951e-01  5.302610e-01 -3.989964e-02
   outer loop
     vertex -3.029822e+02  6.517788e+02 -4.064201e+02
     vertex -3.035306e+02  6.508881e+02 -4.066152e+02
     vertex -3.112708e+02  6.431908e+02 -3.446216e+02
   endloop
 endfacet
 facet normal -8.294619e-01  5.575414e-01 -3.377033e-02
   outer loop
     vertex -3.029822e+02  6.517788e+02 -4.064201e+02
     vertex -3.112708e+02  6.431908e+02 -3.446216e+02
     vertex -3.106904e+02  6.440661e+02 -3.444243e+02
   endloop
 endfacet
 facet normal -8.271180e-01  5.610563e-01 -3.304163e-02
   outer loop
     vertex -3.024005e+02  6.526478e+02 -4.062234e+02
     vertex -3.029822e+02  6.517788e+02 -4.064201e+02
     vertex -3.106904e+02  6.440661e+02 -3.444243e+02
   endloop
 endfacet
 facet normal -8.085755e-01  5.877799e-01 -2.684335e-02
   outer loop
     vertex -3.024005e+02  6.526478e+02 -4.062234e+02
     vertex -3.106904e+02  6.440661e+02 -3.444243e+02
     vertex -3.100774e+02  6.449186e+02 -3.442257e+02
   endloop
 endfacet
 facet normal -8.061940e-01  5.910737e-01 -2.613783e-02
   outer loop
     vertex -3.017866e+02  6.534940e+02 -4.060256e+02
     vertex -3.024005e+02  6.526478e+02 -4.062234e+02
     vertex -3.100774e+02  6.449186e+02 -3.442257e+02
   endloop
 endfacet
 facet normal -7.865581e-01  6.171962e-01 -1.987880e-02
   outer loop
     vertex -3.017866e+02  6.534940e+02 -4.060256e+02
     vertex -3.100774e+02  6.449186e+02 -3.442257e+02
     vertex -3.094324e+02  6.457470e+02 -3.440263e+02
   endloop
 endfacet
 facet normal -7.841522e-01  6.202715e-01 -1.919783e-02
   outer loop
     vertex -3.011411e+02  6.543162e+02 -4.058269e+02
     vertex -3.017866e+02  6.534940e+02 -4.060256e+02
     vertex -3.094324e+02  6.457470e+02 -3.440263e+02
   endloop
 endfacet
 facet normal -7.634407e-01  6.457494e-01 -1.288642e-02
   outer loop
     vertex -3.011411e+02  6.543162e+02 -4.058269e+02
     vertex -3.094324e+02  6.457470e+02 -3.440263e+02
     vertex -3.087564e+02  6.465501e+02 -3.438261e+02
   endloop
 endfacet
 facet normal -7.610232e-01  6.486094e-01 -1.223124e-02
   outer loop
     vertex -3.004649e+02  6.551132e+02 -4.056276e+02
     vertex -3.011411e+02  6.543162e+02 -4.058269e+02
     vertex -3.087564e+02  6.465501e+02 -3.438261e+02
   endloop
 endfacet
 facet normal -7.392555e-01  6.733994e-01 -5.875979e-03
   outer loop
     vertex -3.004649e+02  6.551132e+02 -4.056276e+02
     vertex -3.087564e+02  6.465501e+02 -3.438261e+02
     vertex -3.080504e+02  6.473269e+02 -3.436256e+02
   endloop
 endfacet
 facet normal -7.368389e-01  6.760480e-01 -5.247711e-03
   outer loop
     vertex -2.997592e+02  6.558840e+02 -4.054280e+02
     vertex -3.004649e+02  6.551132e+02 -4.056276e+02
     vertex -3.080504e+02  6.473269e+02 -3.436256e+02
   endloop
 endfacet
 facet normal -7.140365e-01  7.001076e-01  1.142704e-03
   outer loop
     vertex -2.997592e+02  6.558840e+02 -4.054280e+02
     vertex -3.080504e+02  6.473269e+02 -3.436256e+02
     vertex -3.073154e+02  6.480762e+02 -3.434250e+02
   endloop
 endfacet
 facet normal -7.116331e-01  7.025492e-01  1.743066e-03
   outer loop
     vertex -2.990247e+02  6.566275e+02 -4.052282e+02
     vertex -2.997592e+02  6.558840e+02 -4.054280e+02
     vertex -3.073154e+02  6.480762e+02 -3.434250e+02
   endloop
 endfacet
 facet normal -6.878188e-01  7.258366e-01  8.159815e-03
   outer loop
     vertex -2.990247e+02  6.566275e+02 -4.052282e+02
     vertex -3.073154e+02  6.480762e+02 -3.434250e+02
     vertex -3.065524e+02  6.487970e+02 -3.432246e+02
   endloop
 endfacet
 facet normal -6.854405e-01  7.280763e-01  8.731401e-03
   outer loop
     vertex -2.982625e+02  6.573426e+02 -4.050287e+02
     vertex -2.990247e+02  6.566275e+02 -4.052282e+02
     vertex -3.065524e+02  6.487970e+02 -3.432246e+02
   endloop
 endfacet
 facet normal -6.606391e-01  7.505505e-01  1.516554e-02
   outer loop
     vertex -2.982625e+02  6.573426e+02 -4.050287e+02
     vertex -3.065524e+02  6.487970e+02 -3.432246e+02
     vertex -3.057624e+02  6.494884e+02 -3.430246e+02
   endloop
 endfacet
 facet normal -6.582976e-01  7.525939e-01  1.570761e-02
   outer loop
     vertex -2.974737e+02  6.580284e+02 -4.048297e+02
     vertex -2.982625e+02  6.573426e+02 -4.050287e+02
     vertex -3.057624e+02  6.494884e+02 -3.430246e+02
   endloop
 endfacet
 facet normal -6.325355e-01  7.742146e-01  2.215007e-02
   outer loop
     vertex -2.974737e+02  6.580284e+02 -4.048297e+02
     vertex -3.057624e+02  6.494884e+02 -3.430246e+02
     vertex -3.049465e+02  6.501492e+02 -3.428254e+02
   endloop
 endfacet
 facet normal -6.302419e-01  7.760680e-01  2.266202e-02
   outer loop
     vertex -2.966594e+02  6.586840e+02 -4.046314e+02
     vertex -2.974737e+02  6.580284e+02 -4.048297e+02
     vertex -3.049465e+02  6.501492e+02 -3.428254e+02
   endloop
 endfacet
 facet normal -6.035472e-01  7.967959e-01  2.910365e-02
   outer loop
     vertex -2.966594e+02  6.586840e+02 -4.046314e+02
     vertex -3.049465e+02  6.501492e+02 -3.428254e+02
     vertex -3.041060e+02  6.507786e+02 -3.426273e+02
   endloop
 endfacet
 facet normal -6.013124e-01  7.984661e-01  2.958498e-02
   outer loop
     vertex -2.958207e+02  6.593083e+02 -4.044342e+02
     vertex -2.966594e+02  6.586840e+02 -4.046314e+02
     vertex -3.041060e+02  6.507786e+02 -3.426273e+02
   endloop
 endfacet
 facet normal -5.737148e-01  8.182629e-01  3.601654e-02
   outer loop
     vertex -2.958207e+02  6.593083e+02 -4.044342e+02
     vertex -3.041060e+02  6.507786e+02 -3.426273e+02
     vertex -3.032419e+02  6.513758e+02 -3.424304e+02
   endloop
 endfacet
 facet normal -5.715491e-01  8.197571e-01  3.646691e-02
   outer loop
     vertex -2.949587e+02  6.599005e+02 -4.042382e+02
     vertex -2.958207e+02  6.593083e+02 -4.044342e+02
     vertex -3.032419e+02  6.513758e+02 -3.424304e+02
   endloop
 endfacet
 facet normal -5.430800e-01  8.385854e-01  4.287908e-02
   outer loop
     vertex -2.949587e+02  6.599005e+02 -4.042382e+02
     vertex -3.032419e+02  6.513758e+02 -3.424304e+02
     vertex -3.023555e+02  6.519399e+02 -3.422351e+02
   endloop
 endfacet
 facet normal -5.409934e-01  8.399115e-01  4.329826e-02
   outer loop
     vertex -2.940747e+02  6.604599e+02 -4.040439e+02
     vertex -2.949587e+02  6.599005e+02 -4.042382e+02
     vertex -3.023555e+02  6.519399e+02 -3.422351e+02
   endloop
 endfacet
 facet normal -5.116856e-01  8.577351e-01  4.968167e-02
   outer loop
     vertex -2.940747e+02  6.604599e+02 -4.040439e+02
     vertex -3.023555e+02  6.519399e+02 -3.422351e+02
     vertex -3.014481e+02  6.524700e+02 -3.420416e+02
   endloop
 endfacet
 facet normal -5.096876e-01  8.589014e-01  5.006957e-02
   outer loop
     vertex -2.931699e+02  6.609856e+02 -4.038514e+02
     vertex -2.940747e+02  6.604599e+02 -4.040439e+02
     vertex -3.014481e+02  6.524700e+02 -3.420416e+02
   endloop
 endfacet
 facet normal -4.795757e-01  8.756852e-01  5.641478e-02
   outer loop
     vertex -2.931699e+02  6.609856e+02 -4.038514e+02
     vertex -3.014481e+02  6.524700e+02 -3.420416e+02
     vertex -3.005208e+02  6.529655e+02 -3.418503e+02
   endloop
 endfacet
 facet normal -4.776751e-01  8.767004e-01  5.677143e-02
   outer loop
     vertex -2.922455e+02  6.614770e+02 -4.036610e+02
     vertex -2.931699e+02  6.609856e+02 -4.038514e+02
     vertex -3.005208e+02  6.529655e+02 -3.418503e+02
   endloop
 endfacet
 facet normal -4.467950e-01  8.924105e-01  6.306901e-02
   outer loop
     vertex -2.922455e+02  6.614770e+02 -4.036610e+02
     vertex -3.005208e+02  6.529655e+02 -3.418503e+02
     vertex -2.995750e+02  6.534257e+02 -3.416613e+02
   endloop
 endfacet
 facet normal -4.450002e-01  8.932838e-01  6.339457e-02
   outer loop
     vertex -2.913028e+02  6.619332e+02 -4.034730e+02
     vertex -2.922455e+02  6.614770e+02 -4.036610e+02
     vertex -2.995750e+02  6.534257e+02 -3.416613e+02
   endloop
 endfacet
 facet normal -4.133894e-01  9.078878e-01  6.963504e-02
   outer loop
     vertex -2.913028e+02  6.619332e+02 -4.034730e+02
     vertex -2.995750e+02  6.534257e+02 -3.416613e+02
     vertex -2.986120e+02  6.538499e+02 -3.414750e+02
   endloop
 endfacet
 facet normal -4.117084e-01  9.086286e-01  6.992981e-02
   outer loop
     vertex -2.903432e+02  6.623538e+02 -4.032877e+02
     vertex -2.913028e+02  6.619332e+02 -4.034730e+02
     vertex -2.986120e+02  6.538499e+02 -3.414750e+02
   endloop
 endfacet
 facet normal -3.794056e-01  9.220952e-01  7.610369e-02
   outer loop
     vertex -2.903432e+02  6.623538e+02 -4.032877e+02
     vertex -2.986120e+02  6.538499e+02 -3.414750e+02
     vertex -2.976332e+02  6.542375e+02 -3.412916e+02
   endloop
 endfacet
 facet normal -3.448912e-01  9.350130e-01  8.246591e-02
   outer loop
     vertex -2.893679e+02  6.627380e+02 -4.031052e+02
     vertex -2.976332e+02  6.542375e+02 -3.412916e+02
     vertex -2.966399e+02  6.545880e+02 -3.411114e+02
   endloop
 endfacet
 facet normal -3.778458e-01  9.227137e-01  7.636807e-02
   outer loop
     vertex -2.893679e+02  6.627380e+02 -4.031052e+02
     vertex -2.903432e+02  6.623538e+02 -4.032877e+02
     vertex -2.976332e+02  6.542375e+02 -3.412916e+02
   endloop
 endfacet
 facet normal -3.098945e-01  9.466232e-01  8.871280e-02
   outer loop
     vertex -2.883783e+02  6.630855e+02 -4.029259e+02
     vertex -2.966399e+02  6.545880e+02 -3.411114e+02
     vertex -2.956335e+02  6.549009e+02 -3.409346e+02
   endloop
 endfacet
 facet normal -3.434592e-01  9.355193e-01  8.270045e-02
   outer loop
     vertex -2.883783e+02  6.630855e+02 -4.029259e+02
     vertex -2.893679e+02  6.627380e+02 -4.031052e+02
     vertex -2.966399e+02  6.545880e+02 -3.411114e+02
   endloop
 endfacet
 facet normal -2.744644e-01  9.569094e-01  9.483562e-02
   outer loop
     vertex -2.873758e+02  6.633957e+02 -4.027500e+02
     vertex -2.956335e+02  6.549009e+02 -3.409346e+02
     vertex -2.946154e+02  6.551757e+02 -3.407615e+02
   endloop
 endfacet
 facet normal -3.085964e-01  9.470279e-01  8.891816e-02
   outer loop
     vertex -2.873758e+02  6.633957e+02 -4.027500e+02
     vertex -2.883783e+02  6.630855e+02 -4.029259e+02
     vertex -2.956335e+02  6.549009e+02 -3.409346e+02
   endloop
 endfacet
 facet normal -2.386503e-01  9.658572e-01  1.008258e-01
   outer loop
     vertex -2.863618e+02  6.636681e+02 -4.025777e+02
     vertex -2.946154e+02  6.551757e+02 -3.407615e+02
     vertex -2.935871e+02  6.554122e+02 -3.405923e+02
   endloop
 endfacet
 facet normal -2.733058e-01  9.572234e-01  9.501257e-02
   outer loop
     vertex -2.863618e+02  6.636681e+02 -4.025777e+02
     vertex -2.873758e+02  6.633957e+02 -4.027500e+02
     vertex -2.946154e+02  6.551757e+02 -3.407615e+02
   endloop
 endfacet
 facet normal -2.025025e-01  9.734542e-01  1.066750e-01
   outer loop
     vertex -2.853377e+02  6.639024e+02 -4.024094e+02
     vertex -2.935871e+02  6.554122e+02 -3.405923e+02
     vertex -2.925499e+02  6.556098e+02 -3.404272e+02
   endloop
 endfacet
 facet normal -2.376362e-01  9.660916e-01  1.009752e-01
   outer loop
     vertex -2.853377e+02  6.639024e+02 -4.024094e+02
     vertex -2.863618e+02  6.636681e+02 -4.025777e+02
     vertex -2.935871e+02  6.554122e+02 -3.405923e+02
   endloop
 endfacet
 facet normal -1.660715e-01  9.796898e-01  1.123750e-01
   outer loop
     vertex -2.843048e+02  6.640983e+02 -4.022451e+02
     vertex -2.925499e+02  6.556098e+02 -3.404272e+02
     vertex -2.915054e+02  6.557684e+02 -3.402665e+02
   endloop
 endfacet
 facet normal -2.016371e-01  9.736204e-01  1.067979e-01
   outer loop
     vertex -2.843048e+02  6.640983e+02 -4.022451e+02
     vertex -2.853377e+02  6.639024e+02 -4.024094e+02
     vertex -2.925499e+02  6.556098e+02 -3.404272e+02
   endloop
 endfacet
 facet normal -1.653584e-01  9.797992e-01  1.124725e-01
   outer loop
     vertex -2.832647e+02  6.642555e+02 -4.020852e+02
     vertex -2.843048e+02  6.640983e+02 -4.022451e+02
     vertex -2.915054e+02  6.557684e+02 -3.402665e+02
   endloop
 endfacet
 facet normal -1.385926e-01  9.834681e-01  1.165442e-01
   outer loop
     vertex -2.832647e+02  6.642555e+02 -4.020852e+02
     vertex -2.915054e+02  6.557684e+02 -3.402665e+02
     vertex -2.909808e+02  6.558331e+02 -3.401879e+02
   endloop
 endfacet
 facet normal -1.288408e-01  9.846296e-01  1.179179e-01
   outer loop
     vertex -2.822187e+02  6.643737e+02 -4.019298e+02
     vertex -2.832647e+02  6.642555e+02 -4.020852e+02
     vertex -2.909808e+02  6.558331e+02 -3.401879e+02
   endloop
 endfacet
 facet normal -1.202112e-01  9.855576e-01  1.192710e-01
   outer loop
     vertex -2.822187e+02  6.643737e+02 -4.019298e+02
     vertex -2.909808e+02  6.558331e+02 -3.401879e+02
     vertex -2.904550e+02  6.558878e+02 -3.401104e+02
   endloop
 endfacet
 facet normal -1.017889e-01  9.873012e-01  1.219647e-01
   outer loop
     vertex -2.822187e+02  6.643737e+02 -4.019298e+02
     vertex -2.904550e+02  6.558878e+02 -3.401104e+02
     vertex -2.899280e+02  6.559327e+02 -3.400341e+02
   endloop
 endfacet
 facet normal -9.215399e-02  9.880849e-01  1.232717e-01
   outer loop
     vertex -2.811684e+02  6.644529e+02 -4.017793e+02
     vertex -2.822187e+02  6.643737e+02 -4.019298e+02
     vertex -2.899280e+02  6.559327e+02 -3.400341e+02
   endloop
 endfacet
 facet normal -8.333001e-02  9.887006e-01  1.246084e-01
   outer loop
     vertex -2.811684e+02  6.644529e+02 -4.017793e+02
     vertex -2.899280e+02  6.559327e+02 -3.400341e+02
     vertex -2.894001e+02  6.559678e+02 -3.399591e+02
   endloop
 endfacet
 facet normal -5.559027e-02  9.901501e-01  1.285011e-01
   outer loop
     vertex -2.811684e+02  6.644529e+02 -4.017793e+02
     vertex -2.894001e+02  6.559678e+02 -3.399591e+02
     vertex -2.883423e+02  6.560082e+02 -3.398129e+02
   endloop
 endfacet
 facet normal -5.534955e-02  9.901598e-01  1.285303e-01
   outer loop
     vertex -2.801151e+02  6.644929e+02 -4.016337e+02
     vertex -2.811684e+02  6.644529e+02 -4.017793e+02
     vertex -2.883423e+02  6.560082e+02 -3.398129e+02
   endloop
 endfacet
 facet normal -1.853879e-02  9.908718e-01  1.335268e-01
   outer loop
     vertex -2.801151e+02  6.644929e+02 -4.016337e+02
     vertex -2.883423e+02  6.560082e+02 -3.398129e+02
     vertex -2.872830e+02  6.560090e+02 -3.396719e+02
   endloop
 endfacet
 facet normal -1.845844e-02  9.908720e-01  1.335362e-01
   outer loop
     vertex -2.790604e+02  6.644936e+02 -4.014933e+02
     vertex -2.801151e+02  6.644929e+02 -4.016337e+02
     vertex -2.872830e+02  6.560090e+02 -3.396719e+02
   endloop
 endfacet
endsolid
