solid 
 facet normal -1.334010e-01 -7.360445e-01  6.636585e-01
   outer loop
     vertex -2.344477e+02  6.210643e+02 -5.705074e+02
     vertex -2.351041e+02  6.210222e+02 -5.706861e+02
     vertex -2.348502e+02  6.207883e+02 -5.708944e+02
   endloop
 endfacet
 facet normal -1.779619e-01 -7.042239e-01  6.873123e-01
   outer loop
     vertex -2.344477e+02  6.210643e+02 -5.705074e+02
     vertex -2.348502e+02  6.207883e+02 -5.708944e+02
     vertex -2.346206e+02  6.205289e+02 -5.711007e+02
   endloop
 endfacet
 facet normal -9.461612e-02 -7.674295e-01  6.341134e-01
   outer loop
     vertex -2.348202e+02  6.213784e+02 -5.702126e+02
     vertex -2.353803e+02  6.212288e+02 -5.704773e+02
     vertex -2.351041e+02  6.210222e+02 -5.706861e+02
   endloop
 endfacet
 facet normal -1.267984e-01 -7.546320e-01  6.437800e-01
   outer loop
     vertex -2.348202e+02  6.213784e+02 -5.702126e+02
     vertex -2.351041e+02  6.210222e+02 -5.706861e+02
     vertex -2.344477e+02  6.210643e+02 -5.705074e+02
   endloop
 endfacet
 facet normal -1.456288e-01 -7.339458e-01  6.634122e-01
   outer loop
     vertex -2.339751e+02  6.212708e+02 -5.701798e+02
     vertex -2.333803e+02  6.213549e+02 -5.699561e+02
     vertex -2.336724e+02  6.216325e+02 -5.697132e+02
   endloop
 endfacet
 facet normal -1.641488e-01 -6.964693e-01  6.985597e-01
   outer loop
     vertex -2.339751e+02  6.212708e+02 -5.701798e+02
     vertex -2.331138e+02  6.210508e+02 -5.701968e+02
     vertex -2.333803e+02  6.213549e+02 -5.699561e+02
   endloop
 endfacet
 facet normal -1.671361e-01 -7.072680e-01  6.869043e-01
   outer loop
     vertex -2.339751e+02  6.212708e+02 -5.701798e+02
     vertex -2.346206e+02  6.205289e+02 -5.711007e+02
     vertex -2.331138e+02  6.210508e+02 -5.701968e+02
   endloop
 endfacet
 facet normal -1.671361e-01 -7.072680e-01  6.869043e-01
   outer loop
     vertex -2.339751e+02  6.212708e+02 -5.701798e+02
     vertex -2.344477e+02  6.210643e+02 -5.705074e+02
     vertex -2.346206e+02  6.205289e+02 -5.711007e+02
   endloop
 endfacet
 facet normal -1.488138e-02 -8.222502e-01  5.689316e-01
   outer loop
     vertex -2.352311e+02  6.216413e+02 -5.699185e+02
     vertex -2.359911e+02  6.215539e+02 -5.700647e+02
     vertex -2.356768e+02  6.214065e+02 -5.702696e+02
   endloop
 endfacet
 facet normal -5.515960e-02 -7.961395e-01  6.025938e-01
   outer loop
     vertex -2.352311e+02  6.216413e+02 -5.699185e+02
     vertex -2.356768e+02  6.214065e+02 -5.702696e+02
     vertex -2.353803e+02  6.212288e+02 -5.704773e+02
   endloop
 endfacet
 facet normal -7.416397e-02 -7.926777e-01  6.051131e-01
   outer loop
     vertex -2.352311e+02  6.216413e+02 -5.699185e+02
     vertex -2.353803e+02  6.212288e+02 -5.704773e+02
     vertex -2.348202e+02  6.213784e+02 -5.702126e+02
   endloop
 endfacet
 facet normal -6.957071e-02 -7.866908e-01  6.134146e-01
   outer loop
     vertex -2.343811e+02  6.216132e+02 -5.698584e+02
     vertex -2.339885e+02  6.218817e+02 -5.694695e+02
     vertex -2.343265e+02  6.221011e+02 -5.692264e+02
   endloop
 endfacet
 facet normal -1.098373e-01 -7.626289e-01  6.374425e-01
   outer loop
     vertex -2.343811e+02  6.216132e+02 -5.698584e+02
     vertex -2.336724e+02  6.216325e+02 -5.697132e+02
     vertex -2.339885e+02  6.218817e+02 -5.694695e+02
   endloop
 endfacet
 facet normal -1.135556e-01 -7.482120e-01  6.536696e-01
   outer loop
     vertex -2.343811e+02  6.216132e+02 -5.698584e+02
     vertex -2.339751e+02  6.212708e+02 -5.701798e+02
     vertex -2.336724e+02  6.216325e+02 -5.697132e+02
   endloop
 endfacet
 facet normal -1.208795e-01 -7.517895e-01  6.482289e-01
   outer loop
     vertex -2.343811e+02  6.216132e+02 -5.698584e+02
     vertex -2.348202e+02  6.213784e+02 -5.702126e+02
     vertex -2.344477e+02  6.210643e+02 -5.705074e+02
   endloop
 endfacet
 facet normal -1.208795e-01 -7.517895e-01  6.482289e-01
   outer loop
     vertex -2.343811e+02  6.216132e+02 -5.698584e+02
     vertex -2.344477e+02  6.210643e+02 -5.705074e+02
     vertex -2.339751e+02  6.212708e+02 -5.701798e+02
   endloop
 endfacet
 facet normal  3.538606e-02 -8.386115e-01  5.435793e-01
   outer loop
     vertex -2.356752e+02  6.218496e+02 -5.696291e+02
     vertex -2.363211e+02  6.216700e+02 -5.698641e+02
     vertex -2.359911e+02  6.215539e+02 -5.700647e+02
   endloop
 endfacet
 facet normal -1.488138e-02 -8.222502e-01  5.689316e-01
   outer loop
     vertex -2.356752e+02  6.218496e+02 -5.696291e+02
     vertex -2.359911e+02  6.215539e+02 -5.700647e+02
     vertex -2.352311e+02  6.216413e+02 -5.699185e+02
   endloop
 endfacet
 facet normal -3.534232e-02 -8.122810e-01  5.821946e-01
   outer loop
     vertex -2.348290e+02  6.218997e+02 -5.695379e+02
     vertex -2.343265e+02  6.221011e+02 -5.692264e+02
     vertex -2.346843e+02  6.222893e+02 -5.689856e+02
   endloop
 endfacet
 facet normal -6.473271e-02 -7.871519e-01  6.133528e-01
   outer loop
     vertex -2.348290e+02  6.218997e+02 -5.695379e+02
     vertex -2.343811e+02  6.216132e+02 -5.698584e+02
     vertex -2.343265e+02  6.221011e+02 -5.692264e+02
   endloop
 endfacet
 facet normal -6.925189e-02 -7.898172e-01  6.094202e-01
   outer loop
     vertex -2.348290e+02  6.218997e+02 -5.695379e+02
     vertex -2.352311e+02  6.216413e+02 -5.699185e+02
     vertex -2.348202e+02  6.213784e+02 -5.702126e+02
   endloop
 endfacet
 facet normal -6.925189e-02 -7.898172e-01  6.094202e-01
   outer loop
     vertex -2.348290e+02  6.218997e+02 -5.695379e+02
     vertex -2.348202e+02  6.213784e+02 -5.702126e+02
     vertex -2.343811e+02  6.216132e+02 -5.698584e+02
   endloop
 endfacet
 facet normal  8.526052e-02 -8.518038e-01  5.168761e-01
   outer loop
     vertex -2.361469e+02  6.220007e+02 -5.693479e+02
     vertex -2.366640e+02  6.217539e+02 -5.696694e+02
     vertex -2.363211e+02  6.216700e+02 -5.698641e+02
   endloop
 endfacet
 facet normal  4.346081e-02 -8.478516e-01  5.284494e-01
   outer loop
     vertex -2.361469e+02  6.220007e+02 -5.693479e+02
     vertex -2.363211e+02  6.216700e+02 -5.698641e+02
     vertex -2.356752e+02  6.218496e+02 -5.696291e+02
   endloop
 endfacet
 facet normal  5.733869e-03 -8.315485e-01  5.554226e-01
   outer loop
     vertex -2.353130e+02  6.221268e+02 -5.692225e+02
     vertex -2.346843e+02  6.222893e+02 -5.689856e+02
     vertex -2.350598e+02  6.224451e+02 -5.687485e+02
   endloop
 endfacet
 facet normal -1.290624e-02 -8.208702e-01  5.709689e-01
   outer loop
     vertex -2.353130e+02  6.221268e+02 -5.692225e+02
     vertex -2.352311e+02  6.216413e+02 -5.699185e+02
     vertex -2.348290e+02  6.218997e+02 -5.695379e+02
   endloop
 endfacet
 facet normal -6.518240e-03 -8.163518e-01  5.775182e-01
   outer loop
     vertex -2.353130e+02  6.221268e+02 -5.692225e+02
     vertex -2.348290e+02  6.218997e+02 -5.695379e+02
     vertex -2.346843e+02  6.222893e+02 -5.689856e+02
   endloop
 endfacet
 facet normal -1.290624e-02 -8.208702e-01  5.709689e-01
   outer loop
     vertex -2.353130e+02  6.221268e+02 -5.692225e+02
     vertex -2.356752e+02  6.218496e+02 -5.696291e+02
     vertex -2.352311e+02  6.216413e+02 -5.699185e+02
   endloop
 endfacet
 facet normal  1.814681e-01 -8.728210e-01  4.530484e-01
   outer loop
     vertex -2.366402e+02  6.220927e+02 -5.690785e+02
     vertex -2.373784e+02  6.218225e+02 -5.693033e+02
     vertex -2.370174e+02  6.218048e+02 -5.694820e+02
   endloop
 endfacet
 facet normal  1.349509e-01 -8.619197e-01  4.887562e-01
   outer loop
     vertex -2.366402e+02  6.220927e+02 -5.690785e+02
     vertex -2.370174e+02  6.218048e+02 -5.694820e+02
     vertex -2.366640e+02  6.217539e+02 -5.696694e+02
   endloop
 endfacet
 facet normal  1.770709e-01 -8.687244e-01  4.625623e-01
   outer loop
     vertex -2.366402e+02  6.220927e+02 -5.690785e+02
     vertex -2.366897e+02  6.227281e+02 -5.678661e+02
     vertex -2.373784e+02  6.218225e+02 -5.693033e+02
   endloop
 endfacet
 facet normal  1.071698e-01 -8.643790e-01  4.912877e-01
   outer loop
     vertex -2.366402e+02  6.220927e+02 -5.690785e+02
     vertex -2.366640e+02  6.217539e+02 -5.696694e+02
     vertex -2.361469e+02  6.220007e+02 -5.693479e+02
   endloop
 endfacet
 facet normal  9.392377e-02 -8.582066e-01  5.046382e-01
   outer loop
     vertex -2.358271e+02  6.222915e+02 -5.689159e+02
     vertex -2.354505e+02  6.225675e+02 -5.685166e+02
     vertex -2.358541e+02  6.226558e+02 -5.682913e+02
   endloop
 endfacet
 facet normal  5.246263e-02 -8.439327e-01  5.338776e-01
   outer loop
     vertex -2.358271e+02  6.222915e+02 -5.689159e+02
     vertex -2.350598e+02  6.224451e+02 -5.687485e+02
     vertex -2.354505e+02  6.225675e+02 -5.685166e+02
   endloop
 endfacet
 facet normal  5.110592e-02 -8.414880e-01  5.378532e-01
   outer loop
     vertex -2.358271e+02  6.222915e+02 -5.689159e+02
     vertex -2.353130e+02  6.221268e+02 -5.692225e+02
     vertex -2.350598e+02  6.224451e+02 -5.687485e+02
   endloop
 endfacet
 facet normal  4.744503e-02 -8.445559e-01  5.333613e-01
   outer loop
     vertex -2.358271e+02  6.222915e+02 -5.689159e+02
     vertex -2.361469e+02  6.220007e+02 -5.693479e+02
     vertex -2.356752e+02  6.218496e+02 -5.696291e+02
   endloop
 endfacet
 facet normal  4.744503e-02 -8.445559e-01  5.333613e-01
   outer loop
     vertex -2.358271e+02  6.222915e+02 -5.689159e+02
     vertex -2.356752e+02  6.218496e+02 -5.696291e+02
     vertex -2.353130e+02  6.221268e+02 -5.692225e+02
   endloop
 endfacet
 facet normal  1.918219e-01 -8.634437e-01  4.665505e-01
   outer loop
     vertex -2.363648e+02  6.223917e+02 -5.686223e+02
     vertex -2.362680e+02  6.227095e+02 -5.680740e+02
     vertex -2.366897e+02  6.227281e+02 -5.678661e+02
   endloop
 endfacet
 facet normal  1.385932e-01 -8.672652e-01  4.781663e-01
   outer loop
     vertex -2.363648e+02  6.223917e+02 -5.686223e+02
     vertex -2.358541e+02  6.226558e+02 -5.682913e+02
     vertex -2.362680e+02  6.227095e+02 -5.680740e+02
   endloop
 endfacet
 facet normal  1.770709e-01 -8.687244e-01  4.625623e-01
   outer loop
     vertex -2.363648e+02  6.223917e+02 -5.686223e+02
     vertex -2.366897e+02  6.227281e+02 -5.678661e+02
     vertex -2.366402e+02  6.220927e+02 -5.690785e+02
   endloop
 endfacet
 facet normal  1.158095e-01 -8.557998e-01  5.041775e-01
   outer loop
     vertex -2.363648e+02  6.223917e+02 -5.686223e+02
     vertex -2.358271e+02  6.222915e+02 -5.689159e+02
     vertex -2.358541e+02  6.226558e+02 -5.682913e+02
   endloop
 endfacet
 facet normal  1.110388e-01 -8.605748e-01  4.970728e-01
   outer loop
     vertex -2.363648e+02  6.223917e+02 -5.686223e+02
     vertex -2.366402e+02  6.220927e+02 -5.690785e+02
     vertex -2.361469e+02  6.220007e+02 -5.693479e+02
   endloop
 endfacet
 facet normal  1.110388e-01 -8.605748e-01  4.970728e-01
   outer loop
     vertex -2.363648e+02  6.223917e+02 -5.686223e+02
     vertex -2.361469e+02  6.220007e+02 -5.693479e+02
     vertex -2.358271e+02  6.222915e+02 -5.689159e+02
   endloop
 endfacet
endsolid
