solid 
 facet normal  1.789942e-02  9.902309e-01  1.382839e-01
   outer loop
     vertex -2.868434e+02  6.572333e+02 -3.343549e+02
     vertex -2.912022e+02  6.539025e+02 -3.099393e+02
     vertex -2.901094e+02  6.538632e+02 -3.097993e+02
   endloop
 endfacet
 facet normal  5.367493e-02  9.882984e-01  1.427771e-01
   outer loop
     vertex -2.868434e+02  6.572333e+02 -3.343549e+02
     vertex -2.901094e+02  6.538632e+02 -3.097993e+02
     vertex -2.890181e+02  6.537845e+02 -3.096650e+02
   endloop
 endfacet
 facet normal  1.789942e-02  9.902309e-01  1.382839e-01
   outer loop
     vertex -2.868434e+02  6.572333e+02 -3.343549e+02
     vertex -2.879362e+02  6.572726e+02 -3.344948e+02
     vertex -2.912022e+02  6.539025e+02 -3.099393e+02
   endloop
 endfacet
 facet normal  5.367493e-02  9.882984e-01  1.427771e-01
   outer loop
     vertex -2.857521e+02  6.571546e+02 -3.342205e+02
     vertex -2.868434e+02  6.572333e+02 -3.343549e+02
     vertex -2.890181e+02  6.537845e+02 -3.096650e+02
   endloop
 endfacet
 facet normal  8.938045e-02  9.850774e-01  1.470840e-01
   outer loop
     vertex -2.846635e+02  6.570367e+02 -3.340919e+02
     vertex -2.890181e+02  6.537845e+02 -3.096650e+02
     vertex -2.879296e+02  6.536666e+02 -3.095364e+02
   endloop
 endfacet
 facet normal  8.938045e-02  9.850774e-01  1.470840e-01
   outer loop
     vertex -2.846635e+02  6.570367e+02 -3.340919e+02
     vertex -2.857521e+02  6.571546e+02 -3.342205e+02
     vertex -2.890181e+02  6.537845e+02 -3.096650e+02
   endloop
 endfacet
 facet normal  1.249694e-01  9.805720e-01  1.511992e-01
   outer loop
     vertex -2.835793e+02  6.568796e+02 -3.339693e+02
     vertex -2.879296e+02  6.536666e+02 -3.095364e+02
     vertex -2.868453e+02  6.535095e+02 -3.094137e+02
   endloop
 endfacet
 facet normal  1.603955e-01  9.747881e-01  1.551173e-01
   outer loop
     vertex -2.835793e+02  6.568796e+02 -3.339693e+02
     vertex -2.868453e+02  6.535095e+02 -3.094137e+02
     vertex -2.857667e+02  6.533134e+02 -3.092972e+02
   endloop
 endfacet
 facet normal  1.249694e-01  9.805720e-01  1.511992e-01
   outer loop
     vertex -2.835793e+02  6.568796e+02 -3.339693e+02
     vertex -2.846635e+02  6.570367e+02 -3.340919e+02
     vertex -2.879296e+02  6.536666e+02 -3.095364e+02
   endloop
 endfacet
 facet normal  1.603955e-01  9.747881e-01  1.551173e-01
   outer loop
     vertex -2.825007e+02  6.566835e+02 -3.338527e+02
     vertex -2.835793e+02  6.568796e+02 -3.339693e+02
     vertex -2.857667e+02  6.533134e+02 -3.092972e+02
   endloop
 endfacet
 facet normal  1.956124e-01  9.677334e-01  1.588331e-01
   outer loop
     vertex -2.814292e+02  6.564489e+02 -3.337424e+02
     vertex -2.825007e+02  6.566835e+02 -3.338527e+02
     vertex -2.857667e+02  6.533134e+02 -3.092972e+02
   endloop
 endfacet
 facet normal  1.956124e-01  9.677334e-01  1.588331e-01
   outer loop
     vertex -2.814292e+02  6.564489e+02 -3.337424e+02
     vertex -2.857667e+02  6.533134e+02 -3.092972e+02
     vertex -2.846953e+02  6.530788e+02 -3.091869e+02
   endloop
 endfacet
 facet normal  2.305743e-01  9.594168e-01  1.623418e-01
   outer loop
     vertex -2.803662e+02  6.561758e+02 -3.336385e+02
     vertex -2.814292e+02  6.564489e+02 -3.337424e+02
     vertex -2.846953e+02  6.530788e+02 -3.091869e+02
   endloop
 endfacet
 facet normal  2.305743e-01  9.594168e-01  1.623418e-01
   outer loop
     vertex -2.803662e+02  6.561758e+02 -3.336385e+02
     vertex -2.846953e+02  6.530788e+02 -3.091869e+02
     vertex -2.836323e+02  6.528057e+02 -3.090830e+02
   endloop
 endfacet
 facet normal  2.652356e-01  9.498494e-01  1.656389e-01
   outer loop
     vertex -2.793131e+02  6.558648e+02 -3.335411e+02
     vertex -2.836323e+02  6.528057e+02 -3.090830e+02
     vertex -2.825791e+02  6.524947e+02 -3.089856e+02
   endloop
 endfacet
 facet normal  2.652356e-01  9.498494e-01  1.656389e-01
   outer loop
     vertex -2.793131e+02  6.558648e+02 -3.335411e+02
     vertex -2.803662e+02  6.561758e+02 -3.336385e+02
     vertex -2.836323e+02  6.528057e+02 -3.090830e+02
   endloop
 endfacet
 facet normal  2.995510e-01  9.390435e-01  1.687200e-01
   outer loop
     vertex -2.782712e+02  6.555161e+02 -3.334504e+02
     vertex -2.793131e+02  6.558648e+02 -3.335411e+02
     vertex -2.825791e+02  6.524947e+02 -3.089856e+02
   endloop
 endfacet
 facet normal  2.995510e-01  9.390435e-01  1.687200e-01
   outer loop
     vertex -2.782712e+02  6.555161e+02 -3.334504e+02
     vertex -2.825791e+02  6.524947e+02 -3.089856e+02
     vertex -2.815373e+02  6.521460e+02 -3.088949e+02
   endloop
 endfacet
 facet normal  3.334759e-01  9.270134e-01  1.715811e-01
   outer loop
     vertex -2.772419e+02  6.551303e+02 -3.333665e+02
     vertex -2.815373e+02  6.521460e+02 -3.088949e+02
     vertex -2.805080e+02  6.517602e+02 -3.088109e+02
   endloop
 endfacet
 facet normal  3.334759e-01  9.270134e-01  1.715811e-01
   outer loop
     vertex -2.772419e+02  6.551303e+02 -3.333665e+02
     vertex -2.782712e+02  6.555161e+02 -3.334504e+02
     vertex -2.815373e+02  6.521460e+02 -3.088949e+02
   endloop
 endfacet
 facet normal  3.669660e-01  9.137745e-01  1.742185e-01
   outer loop
     vertex -2.762266e+02  6.547078e+02 -3.332894e+02
     vertex -2.805080e+02  6.517602e+02 -3.088109e+02
     vertex -2.794926e+02  6.513377e+02 -3.087338e+02
   endloop
 endfacet
 facet normal  3.669660e-01  9.137745e-01  1.742185e-01
   outer loop
     vertex -2.762266e+02  6.547078e+02 -3.332894e+02
     vertex -2.772419e+02  6.551303e+02 -3.333665e+02
     vertex -2.805080e+02  6.517602e+02 -3.088109e+02
   endloop
 endfacet
 facet normal  3.999776e-01  8.993443e-01  1.766288e-01
   outer loop
     vertex -2.752265e+02  6.542493e+02 -3.332193e+02
     vertex -2.794926e+02  6.513377e+02 -3.087338e+02
     vertex -2.784926e+02  6.508792e+02 -3.086637e+02
   endloop
 endfacet
 facet normal  4.324678e-01  8.837415e-01  1.788087e-01
   outer loop
     vertex -2.752265e+02  6.542493e+02 -3.332193e+02
     vertex -2.784926e+02  6.508792e+02 -3.086637e+02
     vertex -2.775091e+02  6.503852e+02 -3.086007e+02
   endloop
 endfacet
 facet normal  3.999776e-01  8.993443e-01  1.766288e-01
   outer loop
     vertex -2.752265e+02  6.542493e+02 -3.332193e+02
     vertex -2.762266e+02  6.547078e+02 -3.332894e+02
     vertex -2.794926e+02  6.513377e+02 -3.087338e+02
   endloop
 endfacet
 facet normal  4.324678e-01  8.837415e-01  1.788087e-01
   outer loop
     vertex -2.742430e+02  6.537553e+02 -3.331563e+02
     vertex -2.752265e+02  6.542493e+02 -3.332193e+02
     vertex -2.775091e+02  6.503852e+02 -3.086007e+02
   endloop
 endfacet
 facet normal  4.643941e-01  8.669865e-01  1.807556e-01
   outer loop
     vertex -2.732774e+02  6.532264e+02 -3.331005e+02
     vertex -2.775091e+02  6.503852e+02 -3.086007e+02
     vertex -2.765434e+02  6.498563e+02 -3.085449e+02
   endloop
 endfacet
 facet normal  4.643941e-01  8.669865e-01  1.807556e-01
   outer loop
     vertex -2.732774e+02  6.532264e+02 -3.331005e+02
     vertex -2.742430e+02  6.537553e+02 -3.331563e+02
     vertex -2.775091e+02  6.503852e+02 -3.086007e+02
   endloop
 endfacet
 facet normal  4.957149e-01  8.491011e-01  1.824667e-01
   outer loop
     vertex -2.723308e+02  6.526633e+02 -3.330518e+02
     vertex -2.765434e+02  6.498563e+02 -3.085449e+02
     vertex -2.755969e+02  6.492932e+02 -3.084963e+02
   endloop
 endfacet
 facet normal  4.957149e-01  8.491011e-01  1.824667e-01
   outer loop
     vertex -2.723308e+02  6.526633e+02 -3.330518e+02
     vertex -2.732774e+02  6.532264e+02 -3.331005e+02
     vertex -2.765434e+02  6.498563e+02 -3.085449e+02
   endloop
 endfacet
 facet normal  5.263894e-01  8.301086e-01  1.839400e-01
   outer loop
     vertex -2.714047e+02  6.520669e+02 -3.330105e+02
     vertex -2.755969e+02  6.492932e+02 -3.084963e+02
     vertex -2.746707e+02  6.486968e+02 -3.084549e+02
   endloop
 endfacet
 facet normal  5.563776e-01  8.100338e-01  1.851735e-01
   outer loop
     vertex -2.714047e+02  6.520669e+02 -3.330105e+02
     vertex -2.746707e+02  6.486968e+02 -3.084549e+02
     vertex -2.737660e+02  6.480676e+02 -3.084210e+02
   endloop
 endfacet
 facet normal  5.263894e-01  8.301086e-01  1.839400e-01
   outer loop
     vertex -2.714047e+02  6.520669e+02 -3.330105e+02
     vertex -2.723308e+02  6.526633e+02 -3.330518e+02
     vertex -2.755969e+02  6.492932e+02 -3.084963e+02
   endloop
 endfacet
 facet normal  5.563776e-01  8.100338e-01  1.851735e-01
   outer loop
     vertex -2.705000e+02  6.514377e+02 -3.329765e+02
     vertex -2.714047e+02  6.520669e+02 -3.330105e+02
     vertex -2.737660e+02  6.480676e+02 -3.084210e+02
   endloop
 endfacet
 facet normal  5.856403e-01  7.889029e-01  1.861655e-01
   outer loop
     vertex -2.696181e+02  6.507768e+02 -3.329499e+02
     vertex -2.737660e+02  6.480676e+02 -3.084210e+02
     vertex -2.728841e+02  6.474067e+02 -3.083944e+02
   endloop
 endfacet
 facet normal  5.856403e-01  7.889029e-01  1.861655e-01
   outer loop
     vertex -2.696181e+02  6.507768e+02 -3.329499e+02
     vertex -2.705000e+02  6.514377e+02 -3.329765e+02
     vertex -2.737660e+02  6.480676e+02 -3.084210e+02
   endloop
 endfacet
 facet normal  6.141395e-01  7.667434e-01  1.869148e-01
   outer loop
     vertex -2.687601e+02  6.500849e+02 -3.329308e+02
     vertex -2.728841e+02  6.474067e+02 -3.083944e+02
     vertex -2.720261e+02  6.467148e+02 -3.083752e+02
   endloop
 endfacet
 facet normal  6.141395e-01  7.667434e-01  1.869148e-01
   outer loop
     vertex -2.687601e+02  6.500849e+02 -3.329308e+02
     vertex -2.696181e+02  6.507768e+02 -3.329499e+02
     vertex -2.728841e+02  6.474067e+02 -3.083944e+02
   endloop
 endfacet
 facet normal  6.418380e-01  7.435843e-01  1.874204e-01
   outer loop
     vertex -2.679271e+02  6.493629e+02 -3.329191e+02
     vertex -2.720261e+02  6.467148e+02 -3.083752e+02
     vertex -2.711931e+02  6.459928e+02 -3.083635e+02
   endloop
 endfacet
 facet normal  6.418380e-01  7.435843e-01  1.874204e-01
   outer loop
     vertex -2.679271e+02  6.493629e+02 -3.329191e+02
     vertex -2.687601e+02  6.500849e+02 -3.329308e+02
     vertex -2.720261e+02  6.467148e+02 -3.083752e+02
   endloop
 endfacet
 facet normal  6.686997e-01  7.194556e-01  1.876816e-01
   outer loop
     vertex -2.671201e+02  6.486118e+02 -3.329148e+02
     vertex -2.711931e+02  6.459928e+02 -3.083635e+02
     vertex -2.703862e+02  6.452417e+02 -3.083593e+02
   endloop
 endfacet
 facet normal  6.686997e-01  7.194556e-01  1.876816e-01
   outer loop
     vertex -2.671201e+02  6.486118e+02 -3.329148e+02
     vertex -2.679271e+02  6.493629e+02 -3.329191e+02
     vertex -2.711931e+02  6.459928e+02 -3.083635e+02
   endloop
 endfacet
 facet normal  6.946895e-01  6.943889e-01  1.876981e-01
   outer loop
     vertex -2.663404e+02  6.478325e+02 -3.329181e+02
     vertex -2.703862e+02  6.452417e+02 -3.083593e+02
     vertex -2.696064e+02  6.444624e+02 -3.083625e+02
   endloop
 endfacet
 facet normal  6.946895e-01  6.943889e-01  1.876981e-01
   outer loop
     vertex -2.663404e+02  6.478325e+02 -3.329181e+02
     vertex -2.671201e+02  6.486118e+02 -3.329148e+02
     vertex -2.703862e+02  6.452417e+02 -3.083593e+02
   endloop
 endfacet
 facet normal  7.197735e-01  6.684168e-01  1.874699e-01
   outer loop
     vertex -2.655887e+02  6.470261e+02 -3.329288e+02
     vertex -2.696064e+02  6.444624e+02 -3.083625e+02
     vertex -2.688547e+02  6.436560e+02 -3.083732e+02
   endloop
 endfacet
 facet normal  7.197735e-01  6.684168e-01  1.874699e-01
   outer loop
     vertex -2.655887e+02  6.470261e+02 -3.329288e+02
     vertex -2.663404e+02  6.478325e+02 -3.329181e+02
     vertex -2.696064e+02  6.444624e+02 -3.083625e+02
   endloop
 endfacet
 facet normal  7.439191e-01  6.415733e-01  1.869973e-01
   outer loop
     vertex -2.648662e+02  6.461937e+02 -3.329469e+02
     vertex -2.688547e+02  6.436560e+02 -3.083732e+02
     vertex -2.681322e+02  6.428236e+02 -3.083914e+02
   endloop
 endfacet
 facet normal  7.670948e-01  6.138933e-01  1.862809e-01
   outer loop
     vertex -2.648662e+02  6.461937e+02 -3.329469e+02
     vertex -2.681322e+02  6.428236e+02 -3.083914e+02
     vertex -2.674398e+02  6.419661e+02 -3.084169e+02
   endloop
 endfacet
 facet normal  7.439191e-01  6.415733e-01  1.869973e-01
   outer loop
     vertex -2.648662e+02  6.461937e+02 -3.329469e+02
     vertex -2.655887e+02  6.470261e+02 -3.329288e+02
     vertex -2.688547e+02  6.436560e+02 -3.083732e+02
   endloop
 endfacet
 facet normal  7.670948e-01  6.138933e-01  1.862809e-01
   outer loop
     vertex -2.641738e+02  6.453362e+02 -3.329725e+02
     vertex -2.648662e+02  6.461937e+02 -3.329469e+02
     vertex -2.674398e+02  6.419661e+02 -3.084169e+02
   endloop
 endfacet
 facet normal  7.892704e-01  5.854129e-01  1.853216e-01
   outer loop
     vertex -2.635124e+02  6.444549e+02 -3.330055e+02
     vertex -2.674398e+02  6.419661e+02 -3.084169e+02
     vertex -2.667784e+02  6.410848e+02 -3.084499e+02
   endloop
 endfacet
 facet normal  7.892704e-01  5.854129e-01  1.853216e-01
   outer loop
     vertex -2.635124e+02  6.444549e+02 -3.330055e+02
     vertex -2.641738e+02  6.453362e+02 -3.329725e+02
     vertex -2.674398e+02  6.419661e+02 -3.084169e+02
   endloop
 endfacet
 facet normal  8.104168e-01  5.561692e-01  1.841207e-01
   outer loop
     vertex -2.628828e+02  6.435508e+02 -3.330458e+02
     vertex -2.667784e+02  6.410848e+02 -3.084499e+02
     vertex -2.661488e+02  6.401807e+02 -3.084903e+02
   endloop
 endfacet
 facet normal  8.104168e-01  5.561692e-01  1.841207e-01
   outer loop
     vertex -2.628828e+02  6.435508e+02 -3.330458e+02
     vertex -2.635124e+02  6.444549e+02 -3.330055e+02
     vertex -2.667784e+02  6.410848e+02 -3.084499e+02
   endloop
 endfacet
 facet normal  8.305067e-01  5.262003e-01  1.826797e-01
   outer loop
     vertex -2.622859e+02  6.426252e+02 -3.330935e+02
     vertex -2.661488e+02  6.401807e+02 -3.084903e+02
     vertex -2.655519e+02  6.392551e+02 -3.085379e+02
   endloop
 endfacet
 facet normal  8.305067e-01  5.262003e-01  1.826797e-01
   outer loop
     vertex -2.622859e+02  6.426252e+02 -3.330935e+02
     vertex -2.628828e+02  6.435508e+02 -3.330458e+02
     vertex -2.661488e+02  6.401807e+02 -3.084903e+02
   endloop
 endfacet
 facet normal  8.495137e-01  4.955454e-01  1.810005e-01
   outer loop
     vertex -2.617224e+02  6.416793e+02 -3.331483e+02
     vertex -2.655519e+02  6.392551e+02 -3.085379e+02
     vertex -2.649884e+02  6.383092e+02 -3.085928e+02
   endloop
 endfacet
 facet normal  8.495137e-01  4.955454e-01  1.810005e-01
   outer loop
     vertex -2.617224e+02  6.416793e+02 -3.331483e+02
     vertex -2.622859e+02  6.426252e+02 -3.330935e+02
     vertex -2.655519e+02  6.392551e+02 -3.085379e+02
   endloop
 endfacet
 facet normal  8.674131e-01  4.642444e-01  1.790853e-01
   outer loop
     vertex -2.611931e+02  6.407143e+02 -3.332104e+02
     vertex -2.649884e+02  6.383092e+02 -3.085928e+02
     vertex -2.644591e+02  6.373442e+02 -3.086548e+02
   endloop
 endfacet
 facet normal  8.674131e-01  4.642444e-01  1.790853e-01
   outer loop
     vertex -2.611931e+02  6.407143e+02 -3.332104e+02
     vertex -2.617224e+02  6.416793e+02 -3.331483e+02
     vertex -2.649884e+02  6.383092e+02 -3.085928e+02
   endloop
 endfacet
 facet normal  8.841816e-01  4.323382e-01  1.769367e-01
   outer loop
     vertex -2.606986e+02  6.397314e+02 -3.332795e+02
     vertex -2.611931e+02  6.407143e+02 -3.332104e+02
     vertex -2.644591e+02  6.373442e+02 -3.086548e+02
   endloop
 endfacet
 facet normal  8.841816e-01  4.323382e-01  1.769367e-01
   outer loop
     vertex -2.606986e+02  6.397314e+02 -3.332795e+02
     vertex -2.644591e+02  6.373442e+02 -3.086548e+02
     vertex -2.639646e+02  6.363613e+02 -3.087240e+02
   endloop
 endfacet
 facet normal  8.997973e-01  3.998682e-01  1.745574e-01
   outer loop
     vertex -2.602397e+02  6.387319e+02 -3.333556e+02
     vertex -2.606986e+02  6.397314e+02 -3.332795e+02
     vertex -2.639646e+02  6.363613e+02 -3.087240e+02
   endloop
 endfacet
 facet normal  8.997973e-01  3.998682e-01  1.745574e-01
   outer loop
     vertex -2.602397e+02  6.387319e+02 -3.333556e+02
     vertex -2.639646e+02  6.363613e+02 -3.087240e+02
     vertex -2.635057e+02  6.353618e+02 -3.088001e+02
   endloop
 endfacet
 facet normal  9.142398e-01  3.668769e-01  1.719504e-01
   outer loop
     vertex -2.602397e+02  6.387319e+02 -3.333556e+02
     vertex -2.635057e+02  6.353618e+02 -3.088001e+02
     vertex -2.630829e+02  6.343471e+02 -3.088831e+02
   endloop
 endfacet
 facet normal  9.142398e-01  3.668769e-01  1.719504e-01
   outer loop
     vertex -2.598169e+02  6.377172e+02 -3.334387e+02
     vertex -2.602397e+02  6.387319e+02 -3.333556e+02
     vertex -2.630829e+02  6.343471e+02 -3.088831e+02
   endloop
 endfacet
 facet normal  9.274903e-01  3.334072e-01  1.691193e-01
   outer loop
     vertex -2.594307e+02  6.366885e+02 -3.335285e+02
     vertex -2.598169e+02  6.377172e+02 -3.334387e+02
     vertex -2.630829e+02  6.343471e+02 -3.088831e+02
   endloop
 endfacet
 facet normal  9.274903e-01  3.334072e-01  1.691193e-01
   outer loop
     vertex -2.594307e+02  6.366885e+02 -3.335285e+02
     vertex -2.630829e+02  6.343471e+02 -3.088831e+02
     vertex -2.626968e+02  6.333184e+02 -3.089729e+02
   endloop
 endfacet
 facet normal  9.395316e-01  2.995029e-01  1.660677e-01
   outer loop
     vertex -2.590817e+02  6.356473e+02 -3.336250e+02
     vertex -2.594307e+02  6.366885e+02 -3.335285e+02
     vertex -2.626968e+02  6.333184e+02 -3.089729e+02
   endloop
 endfacet
 facet normal  9.395316e-01  2.995029e-01  1.660677e-01
   outer loop
     vertex -2.590817e+02  6.356473e+02 -3.336250e+02
     vertex -2.626968e+02  6.333184e+02 -3.089729e+02
     vertex -2.623478e+02  6.322772e+02 -3.090694e+02
   endloop
 endfacet
 facet normal  9.503478e-01  2.652080e-01  1.627996e-01
   outer loop
     vertex -2.590817e+02  6.356473e+02 -3.336250e+02
     vertex -2.623478e+02  6.322772e+02 -3.090694e+02
     vertex -2.620364e+02  6.312247e+02 -3.091725e+02
   endloop
 endfacet
 facet normal  9.503478e-01  2.652080e-01  1.627996e-01
   outer loop
     vertex -2.587704e+02  6.345948e+02 -3.337280e+02
     vertex -2.590817e+02  6.356473e+02 -3.336250e+02
     vertex -2.620364e+02  6.312247e+02 -3.091725e+02
   endloop
 endfacet
 facet normal  9.599250e-01  2.305674e-01  1.593192e-01
   outer loop
     vertex -2.584970e+02  6.335324e+02 -3.338375e+02
     vertex -2.587704e+02  6.345948e+02 -3.337280e+02
     vertex -2.620364e+02  6.312247e+02 -3.091725e+02
   endloop
 endfacet
 facet normal  9.599250e-01  2.305674e-01  1.593192e-01
   outer loop
     vertex -2.584970e+02  6.335324e+02 -3.338375e+02
     vertex -2.620364e+02  6.312247e+02 -3.091725e+02
     vertex -2.617631e+02  6.301623e+02 -3.092819e+02
   endloop
 endfacet
 facet normal  9.682507e-01  1.956262e-01  1.556310e-01
   outer loop
     vertex -2.582621e+02  6.324616e+02 -3.339532e+02
     vertex -2.584970e+02  6.335324e+02 -3.338375e+02
     vertex -2.617631e+02  6.301623e+02 -3.092819e+02
   endloop
 endfacet
 facet normal  9.682507e-01  1.956262e-01  1.556310e-01
   outer loop
     vertex -2.582621e+02  6.324616e+02 -3.339532e+02
     vertex -2.617631e+02  6.301623e+02 -3.092819e+02
     vertex -2.615281e+02  6.290915e+02 -3.093976e+02
   endloop
 endfacet
 facet normal  9.753139e-01  1.604298e-01  1.517400e-01
   outer loop
     vertex -2.582621e+02  6.324616e+02 -3.339532e+02
     vertex -2.615281e+02  6.290915e+02 -3.093976e+02
     vertex -2.613318e+02  6.280135e+02 -3.095195e+02
   endloop
 endfacet
 facet normal  9.753139e-01  1.604298e-01  1.517400e-01
   outer loop
     vertex -2.580658e+02  6.313836e+02 -3.340750e+02
     vertex -2.582621e+02  6.324616e+02 -3.339532e+02
     vertex -2.613318e+02  6.280135e+02 -3.095195e+02
   endloop
 endfacet
 facet normal  9.811055e-01  1.250244e-01  1.476511e-01
   outer loop
     vertex -2.580658e+02  6.313836e+02 -3.340750e+02
     vertex -2.613318e+02  6.280135e+02 -3.095195e+02
     vertex -2.611745e+02  6.269299e+02 -3.096473e+02
   endloop
 endfacet
 facet normal  9.811055e-01  1.250244e-01  1.476511e-01
   outer loop
     vertex -2.579085e+02  6.303000e+02 -3.342028e+02
     vertex -2.580658e+02  6.313836e+02 -3.340750e+02
     vertex -2.611745e+02  6.269299e+02 -3.096473e+02
   endloop
 endfacet
 facet normal  9.856180e-01  8.945589e-02  1.433698e-01
   outer loop
     vertex -2.577903e+02  6.292121e+02 -3.343364e+02
     vertex -2.611745e+02  6.269299e+02 -3.096473e+02
     vertex -2.610564e+02  6.258420e+02 -3.097808e+02
   endloop
 endfacet
 facet normal  9.856180e-01  8.945589e-02  1.433698e-01
   outer loop
     vertex -2.577903e+02  6.292121e+02 -3.343364e+02
     vertex -2.579085e+02  6.303000e+02 -3.342028e+02
     vertex -2.611745e+02  6.269299e+02 -3.096473e+02
   endloop
 endfacet
 facet normal  9.888453e-01  5.377078e-02  1.389014e-01
   outer loop
     vertex -2.577115e+02  6.281214e+02 -3.344756e+02
     vertex -2.577903e+02  6.292121e+02 -3.343364e+02
     vertex -2.610564e+02  6.258420e+02 -3.097808e+02
   endloop
 endfacet
 facet normal  9.888453e-01  5.377078e-02  1.389014e-01
   outer loop
     vertex -2.577115e+02  6.281214e+02 -3.344756e+02
     vertex -2.610564e+02  6.258420e+02 -3.097808e+02
     vertex -2.609775e+02  6.247513e+02 -3.099201e+02
   endloop
 endfacet
 facet normal  9.907834e-01  1.801555e-02  1.342520e-01
   outer loop
     vertex -2.577115e+02  6.281214e+02 -3.344756e+02
     vertex -2.609775e+02  6.247513e+02 -3.099201e+02
     vertex -2.609380e+02  6.236591e+02 -3.100647e+02
   endloop
 endfacet
 facet normal  9.907834e-01  1.801555e-02  1.342520e-01
   outer loop
     vertex -2.576720e+02  6.270292e+02 -3.346203e+02
     vertex -2.577115e+02  6.281214e+02 -3.344756e+02
     vertex -2.609380e+02  6.236591e+02 -3.100647e+02
   endloop
 endfacet
 facet normal  9.914298e-01 -1.776316e-02  1.294276e-01
   outer loop
     vertex -2.576720e+02  6.259370e+02 -3.347702e+02
     vertex -2.609380e+02  6.236591e+02 -3.100647e+02
     vertex -2.609380e+02  6.225669e+02 -3.102146e+02
   endloop
 endfacet
 facet normal  9.914298e-01 -1.776316e-02  1.294276e-01
   outer loop
     vertex -2.576720e+02  6.259370e+02 -3.347702e+02
     vertex -2.576720e+02  6.270292e+02 -3.346203e+02
     vertex -2.609380e+02  6.236591e+02 -3.100647e+02
   endloop
 endfacet
 facet normal  9.907834e-01 -5.351871e-02  1.244344e-01
   outer loop
     vertex -2.577115e+02  6.248463e+02 -3.349251e+02
     vertex -2.609380e+02  6.225669e+02 -3.102146e+02
     vertex -2.609775e+02  6.214762e+02 -3.103695e+02
   endloop
 endfacet
 facet normal  9.888453e-01 -8.920448e-02  1.192789e-01
   outer loop
     vertex -2.577115e+02  6.248463e+02 -3.349251e+02
     vertex -2.609775e+02  6.214762e+02 -3.103695e+02
     vertex -2.610564e+02  6.203882e+02 -3.105293e+02
   endloop
 endfacet
 facet normal  9.907834e-01 -5.351871e-02  1.244344e-01
   outer loop
     vertex -2.577115e+02  6.248463e+02 -3.349251e+02
     vertex -2.576720e+02  6.259370e+02 -3.347702e+02
     vertex -2.609380e+02  6.225669e+02 -3.102146e+02
   endloop
 endfacet
 facet normal  9.856180e-01 -1.247739e-01  1.139680e-01
   outer loop
     vertex -2.577903e+02  6.237583e+02 -3.350849e+02
     vertex -2.610564e+02  6.203882e+02 -3.105293e+02
     vertex -2.611745e+02  6.193046e+02 -3.106938e+02
   endloop
 endfacet
 facet normal  9.888453e-01 -8.920448e-02  1.192789e-01
   outer loop
     vertex -2.577903e+02  6.237583e+02 -3.350849e+02
     vertex -2.577115e+02  6.248463e+02 -3.349251e+02
     vertex -2.610564e+02  6.203882e+02 -3.105293e+02
   endloop
 endfacet
 facet normal  9.856180e-01 -1.247739e-01  1.139680e-01
   outer loop
     vertex -2.579085e+02  6.226747e+02 -3.352493e+02
     vertex -2.577903e+02  6.237583e+02 -3.350849e+02
     vertex -2.611745e+02  6.193046e+02 -3.106938e+02
   endloop
 endfacet
 facet normal  9.811055e-01 -1.601807e-01  1.085084e-01
   outer loop
     vertex -2.580658e+02  6.215967e+02 -3.354182e+02
     vertex -2.611745e+02  6.193046e+02 -3.106938e+02
     vertex -2.613318e+02  6.182266e+02 -3.108627e+02
   endloop
 endfacet
 facet normal  9.753139e-01 -1.953787e-01  1.029074e-01
   outer loop
     vertex -2.580658e+02  6.215967e+02 -3.354182e+02
     vertex -2.613318e+02  6.182266e+02 -3.108627e+02
     vertex -2.615281e+02  6.171557e+02 -3.110357e+02
   endloop
 endfacet
 facet normal  9.811055e-01 -1.601807e-01  1.085084e-01
   outer loop
     vertex -2.580658e+02  6.215967e+02 -3.354182e+02
     vertex -2.579085e+02  6.226747e+02 -3.352493e+02
     vertex -2.611745e+02  6.193046e+02 -3.106938e+02
   endloop
 endfacet
 facet normal  9.682507e-01 -2.303219e-01  9.717224e-02
   outer loop
     vertex -2.582621e+02  6.205258e+02 -3.355913e+02
     vertex -2.615281e+02  6.171557e+02 -3.110357e+02
     vertex -2.617631e+02  6.160933e+02 -3.112128e+02
   endloop
 endfacet
 facet normal  9.753139e-01 -1.953787e-01  1.029074e-01
   outer loop
     vertex -2.582621e+02  6.205258e+02 -3.355913e+02
     vertex -2.580658e+02  6.215967e+02 -3.354182e+02
     vertex -2.615281e+02  6.171557e+02 -3.110357e+02
   endloop
 endfacet
 facet normal  9.682507e-01 -2.303219e-01  9.717224e-02
   outer loop
     vertex -2.584970e+02  6.194634e+02 -3.357684e+02
     vertex -2.582621e+02  6.205258e+02 -3.355913e+02
     vertex -2.617631e+02  6.160933e+02 -3.112128e+02
   endloop
 endfacet
 facet normal  9.599250e-01 -2.649648e-01  9.131035e-02
   outer loop
     vertex -2.587704e+02  6.184108e+02 -3.359492e+02
     vertex -2.617631e+02  6.160933e+02 -3.112128e+02
     vertex -2.620364e+02  6.150407e+02 -3.113936e+02
   endloop
 endfacet
 facet normal  9.599250e-01 -2.649648e-01  9.131035e-02
   outer loop
     vertex -2.587704e+02  6.184108e+02 -3.359492e+02
     vertex -2.584970e+02  6.194634e+02 -3.357684e+02
     vertex -2.617631e+02  6.160933e+02 -3.112128e+02
   endloop
 endfacet
 facet normal  9.503478e-01 -2.992622e-01  8.532941e-02
   outer loop
     vertex -2.590817e+02  6.173695e+02 -3.361335e+02
     vertex -2.620364e+02  6.150407e+02 -3.113936e+02
     vertex -2.623478e+02  6.139993e+02 -3.115779e+02
   endloop
 endfacet
 facet normal  9.503478e-01 -2.992622e-01  8.532941e-02
   outer loop
     vertex -2.590817e+02  6.173695e+02 -3.361335e+02
     vertex -2.587704e+02  6.184108e+02 -3.359492e+02
     vertex -2.620364e+02  6.150407e+02 -3.113936e+02
   endloop
 endfacet
 facet normal  9.395316e-01 -3.331695e-01  7.923722e-02
   outer loop
     vertex -2.594307e+02  6.163407e+02 -3.363211e+02
     vertex -2.623478e+02  6.139993e+02 -3.115779e+02
     vertex -2.626968e+02  6.129706e+02 -3.117656e+02
   endloop
 endfacet
 facet normal  9.274903e-01 -3.666424e-01  7.304172e-02
   outer loop
     vertex -2.594307e+02  6.163407e+02 -3.363211e+02
     vertex -2.626968e+02  6.129706e+02 -3.117656e+02
     vertex -2.630829e+02  6.119558e+02 -3.119562e+02
   endloop
 endfacet
 facet normal  9.395316e-01 -3.331695e-01  7.923722e-02
   outer loop
     vertex -2.594307e+02  6.163407e+02 -3.363211e+02
     vertex -2.590817e+02  6.173695e+02 -3.361335e+02
     vertex -2.623478e+02  6.139993e+02 -3.115779e+02
   endloop
 endfacet
 facet normal  9.274903e-01 -3.666424e-01  7.304172e-02
   outer loop
     vertex -2.598169e+02  6.153259e+02 -3.365117e+02
     vertex -2.594307e+02  6.163407e+02 -3.363211e+02
     vertex -2.630829e+02  6.119558e+02 -3.119562e+02
   endloop
 endfacet
 facet normal  9.142398e-01 -3.996372e-01  6.675099e-02
   outer loop
     vertex -2.602397e+02  6.143263e+02 -3.367052e+02
     vertex -2.630829e+02  6.119558e+02 -3.119562e+02
     vertex -2.635057e+02  6.109562e+02 -3.121496e+02
   endloop
 endfacet
 facet normal  9.142398e-01 -3.996372e-01  6.675099e-02
   outer loop
     vertex -2.602397e+02  6.143263e+02 -3.367052e+02
     vertex -2.598169e+02  6.153259e+02 -3.365117e+02
     vertex -2.630829e+02  6.119558e+02 -3.119562e+02
   endloop
 endfacet
 facet normal  8.997973e-01 -4.321110e-01  6.037322e-02
   outer loop
     vertex -2.606986e+02  6.133433e+02 -3.369011e+02
     vertex -2.635057e+02  6.109562e+02 -3.121496e+02
     vertex -2.639646e+02  6.099732e+02 -3.123456e+02
   endloop
 endfacet
 facet normal  8.997973e-01 -4.321110e-01  6.037322e-02
   outer loop
     vertex -2.606986e+02  6.133433e+02 -3.369011e+02
     vertex -2.602397e+02  6.143263e+02 -3.367052e+02
     vertex -2.635057e+02  6.109562e+02 -3.121496e+02
   endloop
 endfacet
 facet normal  8.841816e-01 -4.640214e-01  5.391674e-02
   outer loop
     vertex -2.611931e+02  6.123781e+02 -3.370993e+02
     vertex -2.606986e+02  6.133433e+02 -3.369011e+02
     vertex -2.639646e+02  6.099732e+02 -3.123456e+02
   endloop
 endfacet
 facet normal  8.841816e-01 -4.640214e-01  5.391674e-02
   outer loop
     vertex -2.611931e+02  6.123781e+02 -3.370993e+02
     vertex -2.639646e+02  6.099732e+02 -3.123456e+02
     vertex -2.644591e+02  6.090080e+02 -3.125438e+02
   endloop
 endfacet
 facet normal  8.674131e-01 -4.953268e-01  4.738997e-02
   outer loop
     vertex -2.617224e+02  6.114321e+02 -3.372996e+02
     vertex -2.611931e+02  6.123781e+02 -3.370993e+02
     vertex -2.644591e+02  6.090080e+02 -3.125438e+02
   endloop
 endfacet
 facet normal  8.674131e-01 -4.953268e-01  4.738997e-02
   outer loop
     vertex -2.617224e+02  6.114321e+02 -3.372996e+02
     vertex -2.644591e+02  6.090080e+02 -3.125438e+02
     vertex -2.649884e+02  6.080619e+02 -3.127440e+02
   endloop
 endfacet
 facet normal  8.495137e-01 -5.259864e-01  4.080140e-02
   outer loop
     vertex -2.622859e+02  6.105063e+02 -3.375016e+02
     vertex -2.617224e+02  6.114321e+02 -3.372996e+02
     vertex -2.649884e+02  6.080619e+02 -3.127440e+02
   endloop
 endfacet
 facet normal  8.495137e-01 -5.259864e-01  4.080140e-02
   outer loop
     vertex -2.622859e+02  6.105063e+02 -3.375016e+02
     vertex -2.649884e+02  6.080619e+02 -3.127440e+02
     vertex -2.655519e+02  6.071362e+02 -3.129460e+02
   endloop
 endfacet
 facet normal  8.305067e-01 -5.559602e-01  3.415964e-02
   outer loop
     vertex -2.622859e+02  6.105063e+02 -3.375016e+02
     vertex -2.655519e+02  6.071362e+02 -3.129460e+02
     vertex -2.661488e+02  6.062320e+02 -3.131495e+02
   endloop
 endfacet
 facet normal  8.305067e-01 -5.559602e-01  3.415964e-02
   outer loop
     vertex -2.628828e+02  6.096021e+02 -3.377051e+02
     vertex -2.622859e+02  6.105063e+02 -3.375016e+02
     vertex -2.661488e+02  6.062320e+02 -3.131495e+02
   endloop
 endfacet
 facet normal  8.104168e-01 -5.852092e-01  2.747334e-02
   outer loop
     vertex -2.635124e+02  6.087206e+02 -3.379098e+02
     vertex -2.628828e+02  6.096021e+02 -3.377051e+02
     vertex -2.661488e+02  6.062320e+02 -3.131495e+02
   endloop
 endfacet
 facet normal  8.104168e-01 -5.852092e-01  2.747334e-02
   outer loop
     vertex -2.635124e+02  6.087206e+02 -3.379098e+02
     vertex -2.661488e+02  6.062320e+02 -3.131495e+02
     vertex -2.667784e+02  6.053505e+02 -3.133542e+02
   endloop
 endfacet
 facet normal  7.892704e-01 -6.136951e-01  2.075122e-02
   outer loop
     vertex -2.641738e+02  6.078630e+02 -3.381155e+02
     vertex -2.635124e+02  6.087206e+02 -3.379098e+02
     vertex -2.667784e+02  6.053505e+02 -3.133542e+02
   endloop
 endfacet
 facet normal  7.892704e-01 -6.136951e-01  2.075122e-02
   outer loop
     vertex -2.641738e+02  6.078630e+02 -3.381155e+02
     vertex -2.667784e+02  6.053505e+02 -3.133542e+02
     vertex -2.674398e+02  6.044929e+02 -3.135599e+02
   endloop
 endfacet
 facet normal  7.670948e-01 -6.413809e-01  1.400205e-02
   outer loop
     vertex -2.648662e+02  6.070303e+02 -3.383218e+02
     vertex -2.641738e+02  6.078630e+02 -3.381155e+02
     vertex -2.674398e+02  6.044929e+02 -3.135599e+02
   endloop
 endfacet
 facet normal  7.670948e-01 -6.413809e-01  1.400205e-02
   outer loop
     vertex -2.648662e+02  6.070303e+02 -3.383218e+02
     vertex -2.674398e+02  6.044929e+02 -3.135599e+02
     vertex -2.681322e+02  6.036602e+02 -3.137663e+02
   endloop
 endfacet
 facet normal  7.439191e-01 -6.682305e-01  7.234619e-03
   outer loop
     vertex -2.655887e+02  6.062238e+02 -3.385286e+02
     vertex -2.648662e+02  6.070303e+02 -3.383218e+02
     vertex -2.681322e+02  6.036602e+02 -3.137663e+02
   endloop
 endfacet
 facet normal  7.439191e-01 -6.682305e-01  7.234619e-03
   outer loop
     vertex -2.655887e+02  6.062238e+02 -3.385286e+02
     vertex -2.681322e+02  6.036602e+02 -3.137663e+02
     vertex -2.688547e+02  6.028537e+02 -3.139731e+02
   endloop
 endfacet
 facet normal  7.197735e-01 -6.942088e-01  4.577558e-04
   outer loop
     vertex -2.663404e+02  6.054443e+02 -3.387356e+02
     vertex -2.655887e+02  6.062238e+02 -3.385286e+02
     vertex -2.688547e+02  6.028537e+02 -3.139731e+02
   endloop
 endfacet
 facet normal  7.197735e-01 -6.942088e-01  4.577558e-04
   outer loop
     vertex -2.663404e+02  6.054443e+02 -3.387356e+02
     vertex -2.688547e+02  6.028537e+02 -3.139731e+02
     vertex -2.696064e+02  6.020742e+02 -3.141800e+02
   endloop
 endfacet
 facet normal  6.946895e-01 -7.192820e-01 -6.319704e-03
   outer loop
     vertex -2.671201e+02  6.046930e+02 -3.389424e+02
     vertex -2.663404e+02  6.054443e+02 -3.387356e+02
     vertex -2.696064e+02  6.020742e+02 -3.141800e+02
   endloop
 endfacet
 facet normal  6.946895e-01 -7.192820e-01 -6.319704e-03
   outer loop
     vertex -2.671201e+02  6.046930e+02 -3.389424e+02
     vertex -2.696064e+02  6.020742e+02 -3.141800e+02
     vertex -2.703862e+02  6.013229e+02 -3.143869e+02
   endloop
 endfacet
 facet normal  6.686997e-01 -7.434174e-01 -1.308892e-02
   outer loop
     vertex -2.679271e+02  6.039708e+02 -3.391489e+02
     vertex -2.671201e+02  6.046930e+02 -3.389424e+02
     vertex -2.703862e+02  6.013229e+02 -3.143869e+02
   endloop
 endfacet
 facet normal  6.686997e-01 -7.434174e-01 -1.308892e-02
   outer loop
     vertex -2.679271e+02  6.039708e+02 -3.391489e+02
     vertex -2.703862e+02  6.013229e+02 -3.143869e+02
     vertex -2.711931e+02  6.006007e+02 -3.145933e+02
   endloop
 endfacet
 facet normal  6.418380e-01 -7.665835e-01 -1.984108e-02
   outer loop
     vertex -2.679271e+02  6.039708e+02 -3.391489e+02
     vertex -2.711931e+02  6.006007e+02 -3.145933e+02
     vertex -2.720261e+02  5.999086e+02 -3.147991e+02
   endloop
 endfacet
 facet normal  6.418380e-01 -7.665835e-01 -1.984108e-02
   outer loop
     vertex -2.687601e+02  6.032787e+02 -3.393546e+02
     vertex -2.679271e+02  6.039708e+02 -3.391489e+02
     vertex -2.720261e+02  5.999086e+02 -3.147991e+02
   endloop
 endfacet
 facet normal  6.141395e-01 -7.887502e-01 -2.656736e-02
   outer loop
     vertex -2.696181e+02  6.026175e+02 -3.395595e+02
     vertex -2.687601e+02  6.032787e+02 -3.393546e+02
     vertex -2.720261e+02  5.999086e+02 -3.147991e+02
   endloop
 endfacet
 facet normal  6.141395e-01 -7.887502e-01 -2.656736e-02
   outer loop
     vertex -2.696181e+02  6.026175e+02 -3.395595e+02
     vertex -2.720261e+02  5.999086e+02 -3.147991e+02
     vertex -2.728841e+02  5.992474e+02 -3.150040e+02
   endloop
 endfacet
 facet normal  5.856403e-01 -8.098884e-01 -3.325901e-02
   outer loop
     vertex -2.705000e+02  6.019882e+02 -3.397632e+02
     vertex -2.696181e+02  6.026175e+02 -3.395595e+02
     vertex -2.728841e+02  5.992474e+02 -3.150040e+02
   endloop
 endfacet
 facet normal  5.856403e-01 -8.098884e-01 -3.325901e-02
   outer loop
     vertex -2.705000e+02  6.019882e+02 -3.397632e+02
     vertex -2.728841e+02  5.992474e+02 -3.150040e+02
     vertex -2.737660e+02  5.986181e+02 -3.152076e+02
   endloop
 endfacet
 facet normal  5.563776e-01 -8.299707e-01 -3.990729e-02
   outer loop
     vertex -2.714047e+02  6.013915e+02 -3.399654e+02
     vertex -2.705000e+02  6.019882e+02 -3.397632e+02
     vertex -2.737660e+02  5.986181e+02 -3.152076e+02
   endloop
 endfacet
 facet normal  5.563776e-01 -8.299707e-01 -3.990729e-02
   outer loop
     vertex -2.714047e+02  6.013915e+02 -3.399654e+02
     vertex -2.737660e+02  5.986181e+02 -3.152076e+02
     vertex -2.746707e+02  5.980214e+02 -3.154098e+02
   endloop
 endfacet
 facet normal  5.263894e-01 -8.489709e-01 -4.650355e-02
   outer loop
     vertex -2.723308e+02  6.008282e+02 -3.401659e+02
     vertex -2.714047e+02  6.013915e+02 -3.399654e+02
     vertex -2.746707e+02  5.980214e+02 -3.154098e+02
   endloop
 endfacet
 facet normal  5.263894e-01 -8.489709e-01 -4.650355e-02
   outer loop
     vertex -2.723308e+02  6.008282e+02 -3.401659e+02
     vertex -2.746707e+02  5.980214e+02 -3.154098e+02
     vertex -2.755969e+02  5.974581e+02 -3.156103e+02
   endloop
 endfacet
 facet normal  4.957149e-01 -8.668642e-01 -5.303917e-02
   outer loop
     vertex -2.732774e+02  6.002990e+02 -3.403644e+02
     vertex -2.723308e+02  6.008282e+02 -3.401659e+02
     vertex -2.755969e+02  5.974581e+02 -3.156103e+02
   endloop
 endfacet
 facet normal  4.957149e-01 -8.668642e-01 -5.303917e-02
   outer loop
     vertex -2.732774e+02  6.002990e+02 -3.403644e+02
     vertex -2.755969e+02  5.974581e+02 -3.156103e+02
     vertex -2.765434e+02  5.969289e+02 -3.158089e+02
   endloop
 endfacet
 facet normal  4.643941e-01 -8.836273e-01 -5.950563e-02
   outer loop
     vertex -2.742430e+02  5.998048e+02 -3.405607e+02
     vertex -2.765434e+02  5.969289e+02 -3.158089e+02
     vertex -2.775091e+02  5.964347e+02 -3.160051e+02
   endloop
 endfacet
 facet normal  4.643941e-01 -8.836273e-01 -5.950563e-02
   outer loop
     vertex -2.742430e+02  5.998048e+02 -3.405607e+02
     vertex -2.732774e+02  6.002990e+02 -3.403644e+02
     vertex -2.765434e+02  5.969289e+02 -3.158089e+02
   endloop
 endfacet
 facet normal  4.324678e-01 -8.992383e-01 -6.589452e-02
   outer loop
     vertex -2.752265e+02  5.993460e+02 -3.407545e+02
     vertex -2.742430e+02  5.998048e+02 -3.405607e+02
     vertex -2.775091e+02  5.964347e+02 -3.160051e+02
   endloop
 endfacet
 facet normal  4.324678e-01 -8.992383e-01 -6.589452e-02
   outer loop
     vertex -2.752265e+02  5.993460e+02 -3.407545e+02
     vertex -2.775091e+02  5.964347e+02 -3.160051e+02
     vertex -2.784926e+02  5.959759e+02 -3.161989e+02
   endloop
 endfacet
 facet normal  3.999776e-01 -9.136769e-01 -7.219749e-02
   outer loop
     vertex -2.762266e+02  5.989233e+02 -3.409455e+02
     vertex -2.784926e+02  5.959759e+02 -3.161989e+02
     vertex -2.794926e+02  5.955532e+02 -3.163899e+02
   endloop
 endfacet
 facet normal  3.999776e-01 -9.136769e-01 -7.219749e-02
   outer loop
     vertex -2.762266e+02  5.989233e+02 -3.409455e+02
     vertex -2.752265e+02  5.993460e+02 -3.407545e+02
     vertex -2.784926e+02  5.959759e+02 -3.161989e+02
   endloop
 endfacet
 facet normal  3.669660e-01 -9.269242e-01 -7.840632e-02
   outer loop
     vertex -2.772419e+02  5.985372e+02 -3.411335e+02
     vertex -2.794926e+02  5.955532e+02 -3.163899e+02
     vertex -2.805080e+02  5.951671e+02 -3.165780e+02
   endloop
 endfacet
 facet normal  3.334759e-01 -9.389629e-01 -8.451294e-02
   outer loop
     vertex -2.772419e+02  5.985372e+02 -3.411335e+02
     vertex -2.805080e+02  5.951671e+02 -3.165780e+02
     vertex -2.815373e+02  5.948182e+02 -3.167627e+02
   endloop
 endfacet
 facet normal  3.669660e-01 -9.269242e-01 -7.840632e-02
   outer loop
     vertex -2.772419e+02  5.985372e+02 -3.411335e+02
     vertex -2.762266e+02  5.989233e+02 -3.409455e+02
     vertex -2.794926e+02  5.955532e+02 -3.163899e+02
   endloop
 endfacet
 facet normal  3.334759e-01 -9.389629e-01 -8.451294e-02
   outer loop
     vertex -2.782712e+02  5.981883e+02 -3.413183e+02
     vertex -2.772419e+02  5.985372e+02 -3.411335e+02
     vertex -2.815373e+02  5.948182e+02 -3.167627e+02
   endloop
 endfacet
 facet normal  2.995510e-01 -9.497775e-01 -9.050936e-02
   outer loop
     vertex -2.793131e+02  5.978769e+02 -3.414996e+02
     vertex -2.815373e+02  5.948182e+02 -3.167627e+02
     vertex -2.825791e+02  5.945068e+02 -3.169441e+02
   endloop
 endfacet
 facet normal  2.995510e-01 -9.497775e-01 -9.050936e-02
   outer loop
     vertex -2.793131e+02  5.978769e+02 -3.414996e+02
     vertex -2.782712e+02  5.981883e+02 -3.413183e+02
     vertex -2.815373e+02  5.948182e+02 -3.167627e+02
   endloop
 endfacet
 facet normal  2.652356e-01 -9.593537e-01 -9.638777e-02
   outer loop
     vertex -2.803662e+02  5.976036e+02 -3.416772e+02
     vertex -2.825791e+02  5.945068e+02 -3.169441e+02
     vertex -2.836323e+02  5.942335e+02 -3.171216e+02
   endloop
 endfacet
 facet normal  2.305743e-01 -9.676791e-01 -1.021405e-01
   outer loop
     vertex -2.803662e+02  5.976036e+02 -3.416772e+02
     vertex -2.836323e+02  5.942335e+02 -3.171216e+02
     vertex -2.846953e+02  5.939986e+02 -3.172953e+02
   endloop
 endfacet
 facet normal  2.652356e-01 -9.593537e-01 -9.638777e-02
   outer loop
     vertex -2.803662e+02  5.976036e+02 -3.416772e+02
     vertex -2.793131e+02  5.978769e+02 -3.414996e+02
     vertex -2.825791e+02  5.945068e+02 -3.169441e+02
   endloop
 endfacet
 facet normal  2.305743e-01 -9.676791e-01 -1.021405e-01
   outer loop
     vertex -2.814292e+02  5.973687e+02 -3.418508e+02
     vertex -2.803662e+02  5.976036e+02 -3.416772e+02
     vertex -2.846953e+02  5.939986e+02 -3.172953e+02
   endloop
 endfacet
 facet normal  1.956124e-01 -9.747428e-01 -1.077601e-01
   outer loop
     vertex -2.814292e+02  5.973687e+02 -3.418508e+02
     vertex -2.846953e+02  5.939986e+02 -3.172953e+02
     vertex -2.857667e+02  5.938023e+02 -3.174647e+02
   endloop
 endfacet
 facet normal  1.956124e-01 -9.747428e-01 -1.077601e-01
   outer loop
     vertex -2.825007e+02  5.971724e+02 -3.420203e+02
     vertex -2.814292e+02  5.973687e+02 -3.418508e+02
     vertex -2.857667e+02  5.938023e+02 -3.174647e+02
   endloop
 endfacet
 facet normal  1.603955e-01 -9.805357e-01 -1.132392e-01
   outer loop
     vertex -2.825007e+02  5.971724e+02 -3.420203e+02
     vertex -2.857667e+02  5.938023e+02 -3.174647e+02
     vertex -2.868453e+02  5.936449e+02 -3.176298e+02
   endloop
 endfacet
 facet normal  1.603955e-01 -9.805357e-01 -1.132392e-01
   outer loop
     vertex -2.835793e+02  5.970150e+02 -3.421853e+02
     vertex -2.825007e+02  5.971724e+02 -3.420203e+02
     vertex -2.868453e+02  5.936449e+02 -3.176298e+02
   endloop
 endfacet
 facet normal  1.249694e-01 -9.850501e-01 -1.185706e-01
   outer loop
     vertex -2.846635e+02  5.968968e+02 -3.423458e+02
     vertex -2.835793e+02  5.970150e+02 -3.421853e+02
     vertex -2.868453e+02  5.936449e+02 -3.176298e+02
   endloop
 endfacet
 facet normal  1.249694e-01 -9.850501e-01 -1.185706e-01
   outer loop
     vertex -2.846635e+02  5.968968e+02 -3.423458e+02
     vertex -2.868453e+02  5.936449e+02 -3.176298e+02
     vertex -2.879296e+02  5.935267e+02 -3.177902e+02
   endloop
 endfacet
 facet normal  8.938045e-02 -9.882802e-01 -1.237474e-01
   outer loop
     vertex -2.846635e+02  5.968968e+02 -3.423458e+02
     vertex -2.879296e+02  5.935267e+02 -3.177902e+02
     vertex -2.890181e+02  5.934477e+02 -3.179458e+02
   endloop
 endfacet
 facet normal  8.938045e-02 -9.882802e-01 -1.237474e-01
   outer loop
     vertex -2.857521e+02  5.968178e+02 -3.425014e+02
     vertex -2.846635e+02  5.968968e+02 -3.423458e+02
     vertex -2.890181e+02  5.934477e+02 -3.179458e+02
   endloop
 endfacet
 facet normal  5.367493e-02 -9.902217e-01 -1.287629e-01
   outer loop
     vertex -2.868434e+02  5.967782e+02 -3.426520e+02
     vertex -2.857521e+02  5.968178e+02 -3.425014e+02
     vertex -2.890181e+02  5.934477e+02 -3.179458e+02
   endloop
 endfacet
 facet normal  5.367493e-02 -9.902217e-01 -1.287629e-01
   outer loop
     vertex -2.868434e+02  5.967782e+02 -3.426520e+02
     vertex -2.890181e+02  5.934477e+02 -3.179458e+02
     vertex -2.901094e+02  5.934081e+02 -3.180964e+02
   endloop
 endfacet
 facet normal  1.789942e-02 -9.908723e-01 -1.336105e-01
   outer loop
     vertex -2.868434e+02  5.967782e+02 -3.426520e+02
     vertex -2.901094e+02  5.934081e+02 -3.180964e+02
     vertex -2.912022e+02  5.934080e+02 -3.182418e+02
   endloop
 endfacet
 facet normal  1.789942e-02 -9.908723e-01 -1.336105e-01
   outer loop
     vertex -2.879362e+02  5.967781e+02 -3.427973e+02
     vertex -2.868434e+02  5.967782e+02 -3.426520e+02
     vertex -2.912022e+02  5.934080e+02 -3.182418e+02
   endloop
 endfacet
endsolid
