solid 
 facet normal  8.222557e-01 -5.684803e-01  2.693690e-02
   outer loop
     vertex -2.278591e+02  6.758272e+02 -5.702280e+02
     vertex -2.298294e+02  6.730471e+02 -5.687564e+02
     vertex -2.302055e+02  6.724232e+02 -5.704385e+02
   endloop
 endfacet
 facet normal  8.222557e-01 -5.684803e-01  2.693690e-02
   outer loop
     vertex -2.278591e+02  6.758272e+02 -5.702280e+02
     vertex -2.302055e+02  6.724232e+02 -5.704385e+02
     vertex -2.282353e+02  6.752033e+02 -5.719101e+02
   endloop
 endfacet
endsolid
