solid 
 facet normal  8.620014e-01  1.078862e-01  4.952920e-01
   outer loop
     vertex -2.246765e+02  6.798219e+02 -5.645391e+02
     vertex -2.246586e+02  6.790096e+02 -5.643933e+02
     vertex -2.245056e+02  6.792504e+02 -5.647121e+02
   endloop
 endfacet
 facet normal  8.916222e-01  1.359325e-01  4.318938e-01
   outer loop
     vertex -2.246765e+02  6.798219e+02 -5.645391e+02
     vertex -2.245056e+02  6.792504e+02 -5.647121e+02
     vertex -2.243724e+02  6.794680e+02 -5.650555e+02
   endloop
 endfacet
 facet normal  8.683066e-01  1.060960e-01  4.845485e-01
   outer loop
     vertex -2.246765e+02  6.798219e+02 -5.645391e+02
     vertex -2.253207e+02  6.804848e+02 -5.635299e+02
     vertex -2.246586e+02  6.790096e+02 -5.643933e+02
   endloop
 endfacet
 facet normal  9.133201e-01  1.697842e-01  3.701618e-01
   outer loop
     vertex -2.245076e+02  6.801025e+02 -5.650130e+02
     vertex -2.243724e+02  6.794680e+02 -5.650555e+02
     vertex -2.242602e+02  6.796606e+02 -5.654207e+02
   endloop
 endfacet
 facet normal  8.949399e-01  1.628400e-01  4.154102e-01
   outer loop
     vertex -2.245076e+02  6.801025e+02 -5.650130e+02
     vertex -2.246765e+02  6.798219e+02 -5.645391e+02
     vertex -2.243724e+02  6.794680e+02 -5.650555e+02
   endloop
 endfacet
 facet normal  8.683194e-01  8.698495e-02  4.883186e-01
   outer loop
     vertex -2.248826e+02  6.803367e+02 -5.642825e+02
     vertex -2.251530e+02  6.807482e+02 -5.638749e+02
     vertex -2.253207e+02  6.804848e+02 -5.635299e+02
   endloop
 endfacet
 facet normal  8.838838e-01  1.383663e-01  4.467708e-01
   outer loop
     vertex -2.248826e+02  6.803367e+02 -5.642825e+02
     vertex -2.250043e+02  6.809894e+02 -5.642439e+02
     vertex -2.251530e+02  6.807482e+02 -5.638749e+02
   endloop
 endfacet
 facet normal  8.683066e-01  1.060960e-01  4.845485e-01
   outer loop
     vertex -2.248826e+02  6.803367e+02 -5.642825e+02
     vertex -2.253207e+02  6.804848e+02 -5.635299e+02
     vertex -2.246765e+02  6.798219e+02 -5.645391e+02
   endloop
 endfacet
 facet normal  9.302392e-01  2.022126e-01  3.062108e-01
   outer loop
     vertex -2.243748e+02  6.803397e+02 -5.655210e+02
     vertex -2.242602e+02  6.796606e+02 -5.654207e+02
     vertex -2.241699e+02  6.798265e+02 -5.658046e+02
   endloop
 endfacet
 facet normal  9.193671e-01  2.047654e-01  3.359096e-01
   outer loop
     vertex -2.243748e+02  6.803397e+02 -5.655210e+02
     vertex -2.245076e+02  6.801025e+02 -5.650130e+02
     vertex -2.242602e+02  6.796606e+02 -5.654207e+02
   endloop
 endfacet
 facet normal  8.981911e-01  1.544293e-01  4.115877e-01
   outer loop
     vertex -2.247015e+02  6.806375e+02 -5.647905e+02
     vertex -2.246765e+02  6.798219e+02 -5.645391e+02
     vertex -2.245076e+02  6.801025e+02 -5.650130e+02
   endloop
 endfacet
 facet normal  8.981911e-01  1.544293e-01  4.115877e-01
   outer loop
     vertex -2.247015e+02  6.806375e+02 -5.647905e+02
     vertex -2.248826e+02  6.803367e+02 -5.642825e+02
     vertex -2.246765e+02  6.798219e+02 -5.645391e+02
   endloop
 endfacet
 facet normal  9.042507e-01  1.685995e-01  3.923071e-01
   outer loop
     vertex -2.247015e+02  6.806375e+02 -5.647905e+02
     vertex -2.248754e+02  6.812071e+02 -5.646344e+02
     vertex -2.250043e+02  6.809894e+02 -5.642439e+02
   endloop
 endfacet
 facet normal  9.233277e-01  1.905668e-01  3.333920e-01
   outer loop
     vertex -2.247015e+02  6.806375e+02 -5.647905e+02
     vertex -2.247673e+02  6.813997e+02 -5.650440e+02
     vertex -2.248754e+02  6.812071e+02 -5.646344e+02
   endloop
 endfacet
 facet normal  9.020535e-01  1.441136e-01  4.068548e-01
   outer loop
     vertex -2.247015e+02  6.806375e+02 -5.647905e+02
     vertex -2.250043e+02  6.809894e+02 -5.642439e+02
     vertex -2.248826e+02  6.803367e+02 -5.642825e+02
   endloop
 endfacet
 facet normal  9.423278e-01  2.331970e-01  2.400781e-01
   outer loop
     vertex -2.242799e+02  6.805302e+02 -5.660564e+02
     vertex -2.241699e+02  6.798265e+02 -5.658046e+02
     vertex -2.241023e+02  6.799644e+02 -5.662039e+02
   endloop
 endfacet
 facet normal  9.520207e-01  2.545362e-01  1.699058e-01
   outer loop
     vertex -2.242799e+02  6.805302e+02 -5.660564e+02
     vertex -2.241023e+02  6.799644e+02 -5.662039e+02
     vertex -2.240579e+02  6.800731e+02 -5.666153e+02
   endloop
 endfacet
 facet normal  9.388006e-01  2.363915e-01  2.505444e-01
   outer loop
     vertex -2.242799e+02  6.805302e+02 -5.660564e+02
     vertex -2.243748e+02  6.803397e+02 -5.655210e+02
     vertex -2.241699e+02  6.798265e+02 -5.658046e+02
   endloop
 endfacet
 facet normal  9.342904e-01  2.237567e-01  2.775507e-01
   outer loop
     vertex -2.245592e+02  6.808917e+02 -5.653350e+02
     vertex -2.246806e+02  6.815660e+02 -5.654698e+02
     vertex -2.247673e+02  6.813997e+02 -5.650440e+02
   endloop
 endfacet
 facet normal  9.224454e-01  1.960581e-01  3.326494e-01
   outer loop
     vertex -2.245592e+02  6.808917e+02 -5.653350e+02
     vertex -2.247015e+02  6.806375e+02 -5.647905e+02
     vertex -2.245076e+02  6.801025e+02 -5.650130e+02
   endloop
 endfacet
 facet normal  9.246575e-01  1.896287e-01  3.302263e-01
   outer loop
     vertex -2.245592e+02  6.808917e+02 -5.653350e+02
     vertex -2.247673e+02  6.813997e+02 -5.650440e+02
     vertex -2.247015e+02  6.806375e+02 -5.647905e+02
   endloop
 endfacet
 facet normal  9.224454e-01  1.960581e-01  3.326494e-01
   outer loop
     vertex -2.245592e+02  6.808917e+02 -5.653350e+02
     vertex -2.245076e+02  6.801025e+02 -5.650130e+02
     vertex -2.243748e+02  6.803397e+02 -5.655210e+02
   endloop
 endfacet
 facet normal  9.591251e-01  2.658058e-01  9.708940e-02
   outer loop
     vertex -2.242241e+02  6.806715e+02 -5.666121e+02
     vertex -2.240579e+02  6.800731e+02 -5.666153e+02
     vertex -2.240371e+02  6.801516e+02 -5.670354e+02
   endloop
 endfacet
 facet normal  9.509743e-01  2.631925e-01  1.624115e-01
   outer loop
     vertex -2.242241e+02  6.806715e+02 -5.666121e+02
     vertex -2.242799e+02  6.805302e+02 -5.660564e+02
     vertex -2.240579e+02  6.800731e+02 -5.666153e+02
   endloop
 endfacet
 facet normal  9.407510e-01  2.304355e-01  2.487711e-01
   outer loop
     vertex -2.244574e+02  6.810959e+02 -5.659089e+02
     vertex -2.245592e+02  6.808917e+02 -5.653350e+02
     vertex -2.243748e+02  6.803397e+02 -5.655210e+02
   endloop
 endfacet
 facet normal  9.447087e-01  2.459998e-01  2.168170e-01
   outer loop
     vertex -2.244574e+02  6.810959e+02 -5.659089e+02
     vertex -2.246159e+02  6.817048e+02 -5.659091e+02
     vertex -2.246806e+02  6.815660e+02 -5.654698e+02
   endloop
 endfacet
 facet normal  9.407510e-01  2.304355e-01  2.487711e-01
   outer loop
     vertex -2.244574e+02  6.810959e+02 -5.659089e+02
     vertex -2.243748e+02  6.803397e+02 -5.655210e+02
     vertex -2.242799e+02  6.805302e+02 -5.660564e+02
   endloop
 endfacet
 facet normal  9.443334e-01  2.191353e-01  2.453857e-01
   outer loop
     vertex -2.244574e+02  6.810959e+02 -5.659089e+02
     vertex -2.246806e+02  6.815660e+02 -5.654698e+02
     vertex -2.245592e+02  6.808917e+02 -5.653350e+02
   endloop
 endfacet
 facet normal  9.611316e-01  2.750431e-01  2.402621e-02
   outer loop
     vertex -2.242081e+02  6.807618e+02 -5.671809e+02
     vertex -2.240371e+02  6.801516e+02 -5.670354e+02
     vertex -2.240402e+02  6.801994e+02 -5.674605e+02
   endloop
 endfacet
 facet normal  9.558144e-01  2.850055e-01  7.204649e-02
   outer loop
     vertex -2.242081e+02  6.807618e+02 -5.671809e+02
     vertex -2.242241e+02  6.806715e+02 -5.666121e+02
     vertex -2.240371e+02  6.801516e+02 -5.670354e+02
   endloop
 endfacet
 facet normal  9.528672e-01  2.571098e-01  1.610548e-01
   outer loop
     vertex -2.243976e+02  6.812474e+02 -5.665046e+02
     vertex -2.242799e+02  6.805302e+02 -5.660564e+02
     vertex -2.242241e+02  6.806715e+02 -5.666121e+02
   endloop
 endfacet
 facet normal  9.543459e-01  2.567452e-01  1.526621e-01
   outer loop
     vertex -2.243976e+02  6.812474e+02 -5.665046e+02
     vertex -2.245737e+02  6.818154e+02 -5.663591e+02
     vertex -2.246159e+02  6.817048e+02 -5.659091e+02
   endloop
 endfacet
 facet normal  9.575763e-01  2.738825e-01  8.964411e-02
   outer loop
     vertex -2.243976e+02  6.812474e+02 -5.665046e+02
     vertex -2.245542e+02  6.818969e+02 -5.668168e+02
     vertex -2.245737e+02  6.818154e+02 -5.663591e+02
   endloop
 endfacet
 facet normal  9.528672e-01  2.571098e-01  1.610548e-01
   outer loop
     vertex -2.243976e+02  6.812474e+02 -5.665046e+02
     vertex -2.244574e+02  6.810959e+02 -5.659089e+02
     vertex -2.242799e+02  6.805302e+02 -5.660564e+02
   endloop
 endfacet
 facet normal  9.553955e-01  2.487564e-01  1.591844e-01
   outer loop
     vertex -2.243976e+02  6.812474e+02 -5.665046e+02
     vertex -2.246159e+02  6.817048e+02 -5.659091e+02
     vertex -2.244574e+02  6.810959e+02 -5.659089e+02
   endloop
 endfacet
 facet normal  9.580796e-01  2.822409e-01 -4.922991e-02
   outer loop
     vertex -2.242322e+02  6.807999e+02 -5.677552e+02
     vertex -2.240402e+02  6.801994e+02 -5.674605e+02
     vertex -2.240670e+02  6.802160e+02 -5.678872e+02
   endloop
 endfacet
 facet normal  9.551531e-01  2.954015e-01 -2.050762e-02
   outer loop
     vertex -2.242322e+02  6.807999e+02 -5.677552e+02
     vertex -2.242081e+02  6.807618e+02 -5.671809e+02
     vertex -2.240402e+02  6.801994e+02 -5.674605e+02
   endloop
 endfacet
 facet normal  9.575524e-01  2.871372e-01  2.541023e-02
   outer loop
     vertex -2.243805e+02  6.813442e+02 -5.671142e+02
     vertex -2.245575e+02  6.819488e+02 -5.672792e+02
     vertex -2.245542e+02  6.818969e+02 -5.668168e+02
   endloop
 endfacet
 facet normal  9.586349e-01  2.757305e-01  7.065301e-02
   outer loop
     vertex -2.243805e+02  6.813442e+02 -5.671142e+02
     vertex -2.242241e+02  6.806715e+02 -5.666121e+02
     vertex -2.242081e+02  6.807618e+02 -5.671809e+02
   endloop
 endfacet
 facet normal  9.586349e-01  2.757305e-01  7.065301e-02
   outer loop
     vertex -2.243805e+02  6.813442e+02 -5.671142e+02
     vertex -2.243976e+02  6.812474e+02 -5.665046e+02
     vertex -2.242241e+02  6.806715e+02 -5.666121e+02
   endloop
 endfacet
 facet normal  9.617773e-01  2.649876e-01  6.903552e-02
   outer loop
     vertex -2.243805e+02  6.813442e+02 -5.671142e+02
     vertex -2.245542e+02  6.818969e+02 -5.668168e+02
     vertex -2.243976e+02  6.812474e+02 -5.665046e+02
   endloop
 endfacet
 facet normal  9.499304e-01  2.873942e-01 -1.226243e-01
   outer loop
     vertex -2.242961e+02  6.807853e+02 -5.683276e+02
     vertex -2.240670e+02  6.802160e+02 -5.678872e+02
     vertex -2.241173e+02  6.802012e+02 -5.683118e+02
   endloop
 endfacet
 facet normal  9.392145e-01  2.821381e-01 -1.956381e-01
   outer loop
     vertex -2.242961e+02  6.807853e+02 -5.683276e+02
     vertex -2.241173e+02  6.802012e+02 -5.683118e+02
     vertex -2.241908e+02  6.801552e+02 -5.687308e+02
   endloop
 endfacet
 facet normal  9.490037e-01  2.941706e-01 -1.133825e-01
   outer loop
     vertex -2.242961e+02  6.807853e+02 -5.683276e+02
     vertex -2.242322e+02  6.807999e+02 -5.677552e+02
     vertex -2.240670e+02  6.802160e+02 -5.678872e+02
   endloop
 endfacet
 facet normal  9.579782e-01  2.860529e-01 -2.124634e-02
   outer loop
     vertex -2.244064e+02  6.813850e+02 -5.677299e+02
     vertex -2.242081e+02  6.807618e+02 -5.671809e+02
     vertex -2.242322e+02  6.807999e+02 -5.677552e+02
   endloop
 endfacet
 facet normal  9.579782e-01  2.860529e-01 -2.124634e-02
   outer loop
     vertex -2.244064e+02  6.813850e+02 -5.677299e+02
     vertex -2.243805e+02  6.813442e+02 -5.671142e+02
     vertex -2.242081e+02  6.807618e+02 -5.671809e+02
   endloop
 endfacet
 facet normal  9.566488e-01  2.884623e-01 -4.015732e-02
   outer loop
     vertex -2.244064e+02  6.813850e+02 -5.677299e+02
     vertex -2.245836e+02  6.819708e+02 -5.677432e+02
     vertex -2.245575e+02  6.819488e+02 -5.672792e+02
   endloop
 endfacet
 facet normal  9.525023e-01  2.857266e-01 -1.053548e-01
   outer loop
     vertex -2.244064e+02  6.813850e+02 -5.677299e+02
     vertex -2.246324e+02  6.819628e+02 -5.682059e+02
     vertex -2.245836e+02  6.819708e+02 -5.677432e+02
   endloop
 endfacet
 facet normal  9.611262e-01  2.752239e-01 -2.209682e-02
   outer loop
     vertex -2.244064e+02  6.813850e+02 -5.677299e+02
     vertex -2.245575e+02  6.819488e+02 -5.672792e+02
     vertex -2.243805e+02  6.813442e+02 -5.671142e+02
   endloop
 endfacet
 facet normal  9.261448e-01  2.665772e-01 -2.668191e-01
   outer loop
     vertex -2.243989e+02  6.807182e+02 -5.688905e+02
     vertex -2.241908e+02  6.801552e+02 -5.687308e+02
     vertex -2.242868e+02  6.800784e+02 -5.691406e+02
   endloop
 endfacet
 facet normal  9.355450e-01  2.875693e-01 -2.050841e-01
   outer loop
     vertex -2.243989e+02  6.807182e+02 -5.688905e+02
     vertex -2.242961e+02  6.807853e+02 -5.683276e+02
     vertex -2.241908e+02  6.801552e+02 -5.687308e+02
   endloop
 endfacet
 facet normal  9.375108e-01  2.813713e-01 -2.047039e-01
   outer loop
     vertex -2.244748e+02  6.813694e+02 -5.683434e+02
     vertex -2.242961e+02  6.807853e+02 -5.683276e+02
     vertex -2.243989e+02  6.807182e+02 -5.688905e+02
   endloop
 endfacet
 facet normal  9.534471e-01  2.793854e-01 -1.135009e-01
   outer loop
     vertex -2.244748e+02  6.813694e+02 -5.683434e+02
     vertex -2.246324e+02  6.819628e+02 -5.682059e+02
     vertex -2.244064e+02  6.813850e+02 -5.677299e+02
   endloop
 endfacet
 facet normal  9.419437e-01  2.894655e-01 -1.701524e-01
   outer loop
     vertex -2.244748e+02  6.813694e+02 -5.683434e+02
     vertex -2.247034e+02  6.819248e+02 -5.686641e+02
     vertex -2.246324e+02  6.819628e+02 -5.682059e+02
   endloop
 endfacet
 facet normal  9.509059e-01  2.879415e-01 -1.134358e-01
   outer loop
     vertex -2.244748e+02  6.813694e+02 -5.683434e+02
     vertex -2.244064e+02  6.813850e+02 -5.677299e+02
     vertex -2.242322e+02  6.807999e+02 -5.677552e+02
   endloop
 endfacet
 facet normal  9.509059e-01  2.879415e-01 -1.134358e-01
   outer loop
     vertex -2.244748e+02  6.813694e+02 -5.683434e+02
     vertex -2.242322e+02  6.807999e+02 -5.677552e+02
     vertex -2.242961e+02  6.807853e+02 -5.683276e+02
   endloop
 endfacet
 facet normal  9.082735e-01  2.491167e-01 -3.361252e-01
   outer loop
     vertex -2.245392e+02  6.805994e+02 -5.694365e+02
     vertex -2.242868e+02  6.800784e+02 -5.691406e+02
     vertex -2.244044e+02  6.799715e+02 -5.695378e+02
   endloop
 endfacet
 facet normal  9.148587e-01  2.756375e-01 -2.950551e-01
   outer loop
     vertex -2.245392e+02  6.805994e+02 -5.694365e+02
     vertex -2.243989e+02  6.807182e+02 -5.688905e+02
     vertex -2.242868e+02  6.800784e+02 -5.691406e+02
   endloop
 endfacet
 facet normal  9.411227e-01  2.696075e-01 -2.039606e-01
   outer loop
     vertex -2.245850e+02  6.812974e+02 -5.689468e+02
     vertex -2.247034e+02  6.819248e+02 -5.686641e+02
     vertex -2.244748e+02  6.813694e+02 -5.683434e+02
   endloop
 endfacet
 facet normal  9.306341e-01  2.812332e-01 -2.341540e-01
   outer loop
     vertex -2.245850e+02  6.812974e+02 -5.689468e+02
     vertex -2.247964e+02  6.818570e+02 -5.691150e+02
     vertex -2.247034e+02  6.819248e+02 -5.686641e+02
   endloop
 endfacet
 facet normal  9.375108e-01  2.813713e-01 -2.047039e-01
   outer loop
     vertex -2.245850e+02  6.812974e+02 -5.689468e+02
     vertex -2.244748e+02  6.813694e+02 -5.683434e+02
     vertex -2.243989e+02  6.807182e+02 -5.688905e+02
   endloop
 endfacet
 facet normal  8.856529e-01  2.297686e-01 -4.035162e-01
   outer loop
     vertex -2.247152e+02  6.804306e+02 -5.699585e+02
     vertex -2.244044e+02  6.799715e+02 -5.695378e+02
     vertex -2.245428e+02  6.798353e+02 -5.699190e+02
   endloop
 endfacet
 facet normal  8.892456e-01  2.523543e-01 -3.815227e-01
   outer loop
     vertex -2.247152e+02  6.804306e+02 -5.699585e+02
     vertex -2.245392e+02  6.805994e+02 -5.694365e+02
     vertex -2.244044e+02  6.799715e+02 -5.695378e+02
   endloop
 endfacet
 facet normal  9.188319e-01  2.612404e-01 -2.958062e-01
   outer loop
     vertex -2.247354e+02  6.811701e+02 -5.695321e+02
     vertex -2.249106e+02  6.817598e+02 -5.695554e+02
     vertex -2.247964e+02  6.818570e+02 -5.691150e+02
   endloop
 endfacet
 facet normal  8.988906e-01  2.528599e-01 -3.578513e-01
   outer loop
     vertex -2.247354e+02  6.811701e+02 -5.695321e+02
     vertex -2.250453e+02  6.816340e+02 -5.699827e+02
     vertex -2.249106e+02  6.817598e+02 -5.695554e+02
   endloop
 endfacet
 facet normal  9.179689e-01  2.664288e-01 -2.938516e-01
   outer loop
     vertex -2.247354e+02  6.811701e+02 -5.695321e+02
     vertex -2.245850e+02  6.812974e+02 -5.689468e+02
     vertex -2.243989e+02  6.807182e+02 -5.688905e+02
   endloop
 endfacet
 facet normal  9.202048e-01  2.596256e-01 -2.929466e-01
   outer loop
     vertex -2.247354e+02  6.811701e+02 -5.695321e+02
     vertex -2.247964e+02  6.818570e+02 -5.691150e+02
     vertex -2.245850e+02  6.812974e+02 -5.689468e+02
   endloop
 endfacet
 facet normal  9.179689e-01  2.664288e-01 -2.938516e-01
   outer loop
     vertex -2.247354e+02  6.811701e+02 -5.695321e+02
     vertex -2.243989e+02  6.807182e+02 -5.688905e+02
     vertex -2.245392e+02  6.805994e+02 -5.694365e+02
   endloop
 endfacet
 facet normal  8.582608e-01  2.085481e-01 -4.689307e-01
   outer loop
     vertex -2.249246e+02  6.802139e+02 -5.704495e+02
     vertex -2.245428e+02  6.798353e+02 -5.699190e+02
     vertex -2.247007e+02  6.796709e+02 -5.702811e+02
   endloop
 endfacet
 facet normal  8.293520e-01  1.777837e-01 -5.296869e-01
   outer loop
     vertex -2.249246e+02  6.802139e+02 -5.704495e+02
     vertex -2.247007e+02  6.796709e+02 -5.702811e+02
     vertex -2.248768e+02  6.794798e+02 -5.706210e+02
   endloop
 endfacet
 facet normal  8.592228e-01  2.181894e-01 -4.627413e-01
   outer loop
     vertex -2.249246e+02  6.802139e+02 -5.704495e+02
     vertex -2.247152e+02  6.804306e+02 -5.699585e+02
     vertex -2.245428e+02  6.798353e+02 -5.699190e+02
   endloop
 endfacet
 facet normal  8.964495e-01  2.322078e-01 -3.774359e-01
   outer loop
     vertex -2.249241e+02  6.809892e+02 -5.700916e+02
     vertex -2.250453e+02  6.816340e+02 -5.699827e+02
     vertex -2.247354e+02  6.811701e+02 -5.695321e+02
   endloop
 endfacet
 facet normal  8.925370e-01  2.433102e-01 -3.797075e-01
   outer loop
     vertex -2.249241e+02  6.809892e+02 -5.700916e+02
     vertex -2.245392e+02  6.805994e+02 -5.694365e+02
     vertex -2.247152e+02  6.804306e+02 -5.699585e+02
   endloop
 endfacet
 facet normal  8.615493e-01  2.123194e-01 -4.611434e-01
   outer loop
     vertex -2.249241e+02  6.809892e+02 -5.700916e+02
     vertex -2.247152e+02  6.804306e+02 -5.699585e+02
     vertex -2.249246e+02  6.802139e+02 -5.704495e+02
   endloop
 endfacet
 facet normal  8.777093e-01  2.354298e-01 -4.173719e-01
   outer loop
     vertex -2.249241e+02  6.809892e+02 -5.700916e+02
     vertex -2.251996e+02  6.814804e+02 -5.703939e+02
     vertex -2.250453e+02  6.816340e+02 -5.699827e+02
   endloop
 endfacet
 facet normal  8.925370e-01  2.433102e-01 -3.797075e-01
   outer loop
     vertex -2.249241e+02  6.809892e+02 -5.700916e+02
     vertex -2.247354e+02  6.811701e+02 -5.695321e+02
     vertex -2.245392e+02  6.805994e+02 -5.694365e+02
   endloop
 endfacet
 facet normal  7.995015e-01  1.380872e-01 -5.845762e-01
   outer loop
     vertex -2.251647e+02  6.799522e+02 -5.709032e+02
     vertex -2.248768e+02  6.794798e+02 -5.706210e+02
     vertex -2.250696e+02  6.792636e+02 -5.709358e+02
   endloop
 endfacet
 facet normal  8.229149e-01  1.795509e-01 -5.390479e-01
   outer loop
     vertex -2.251647e+02  6.799522e+02 -5.709032e+02
     vertex -2.249246e+02  6.802139e+02 -5.704495e+02
     vertex -2.248768e+02  6.794798e+02 -5.706210e+02
   endloop
 endfacet
 facet normal  8.311806e-01  1.796227e-01 -5.261886e-01
   outer loop
     vertex -2.251486e+02  6.807569e+02 -5.706179e+02
     vertex -2.255629e+02  6.810938e+02 -5.711574e+02
     vertex -2.253725e+02  6.812999e+02 -5.707863e+02
   endloop
 endfacet
 facet normal  8.615493e-01  2.123194e-01 -4.611434e-01
   outer loop
     vertex -2.251486e+02  6.807569e+02 -5.706179e+02
     vertex -2.249241e+02  6.809892e+02 -5.700916e+02
     vertex -2.249246e+02  6.802139e+02 -5.704495e+02
   endloop
 endfacet
 facet normal  8.651499e-01  2.030285e-01 -4.585793e-01
   outer loop
     vertex -2.251486e+02  6.807569e+02 -5.706179e+02
     vertex -2.251996e+02  6.814804e+02 -5.703939e+02
     vertex -2.249241e+02  6.809892e+02 -5.700916e+02
   endloop
 endfacet
 facet normal  8.566883e-01  2.067677e-01 -4.725805e-01
   outer loop
     vertex -2.251486e+02  6.807569e+02 -5.706179e+02
     vertex -2.253725e+02  6.812999e+02 -5.707863e+02
     vertex -2.251996e+02  6.814804e+02 -5.703939e+02
   endloop
 endfacet
 facet normal  7.656765e-01  9.736667e-02 -6.358138e-01
   outer loop
     vertex -2.254323e+02  6.796490e+02 -5.713135e+02
     vertex -2.250696e+02  6.792636e+02 -5.709358e+02
     vertex -2.252776e+02  6.790240e+02 -5.712229e+02
   endloop
 endfacet
 facet normal  7.805424e-01  1.366735e-01 -6.099787e-01
   outer loop
     vertex -2.254323e+02  6.796490e+02 -5.713135e+02
     vertex -2.251647e+02  6.799522e+02 -5.709032e+02
     vertex -2.250696e+02  6.792636e+02 -5.709358e+02
   endloop
 endfacet
 facet normal  8.254130e-01  1.738635e-01 -5.370893e-01
   outer loop
     vertex -2.254059e+02  6.804764e+02 -5.711042e+02
     vertex -2.251486e+02  6.807569e+02 -5.706179e+02
     vertex -2.249246e+02  6.802139e+02 -5.704495e+02
   endloop
 endfacet
 facet normal  8.292878e-01  1.648644e-01 -5.339490e-01
   outer loop
     vertex -2.254059e+02  6.804764e+02 -5.711042e+02
     vertex -2.255629e+02  6.810938e+02 -5.711574e+02
     vertex -2.251486e+02  6.807569e+02 -5.706179e+02
   endloop
 endfacet
 facet normal  8.010362e-01  1.538352e-01 -5.785117e-01
   outer loop
     vertex -2.254059e+02  6.804764e+02 -5.711042e+02
     vertex -2.257696e+02  6.808633e+02 -5.715048e+02
     vertex -2.255629e+02  6.810938e+02 -5.711574e+02
   endloop
 endfacet
 facet normal  7.846028e-01  1.284478e-01 -6.065473e-01
   outer loop
     vertex -2.254059e+02  6.804764e+02 -5.711042e+02
     vertex -2.251647e+02  6.799522e+02 -5.709032e+02
     vertex -2.254323e+02  6.796490e+02 -5.713135e+02
   endloop
 endfacet
 facet normal  8.254130e-01  1.738635e-01 -5.370893e-01
   outer loop
     vertex -2.254059e+02  6.804764e+02 -5.711042e+02
     vertex -2.249246e+02  6.802139e+02 -5.704495e+02
     vertex -2.251647e+02  6.799522e+02 -5.709032e+02
   endloop
 endfacet
 facet normal  7.279370e-01  5.564670e-02 -6.833822e-01
   outer loop
     vertex -2.257238e+02  6.793082e+02 -5.716751e+02
     vertex -2.252776e+02  6.790240e+02 -5.712229e+02
     vertex -2.254989e+02  6.787632e+02 -5.714799e+02
   endloop
 endfacet
 facet normal  7.352743e-01  8.452583e-02 -6.724783e-01
   outer loop
     vertex -2.257238e+02  6.793082e+02 -5.716751e+02
     vertex -2.254323e+02  6.796490e+02 -5.713135e+02
     vertex -2.252776e+02  6.790240e+02 -5.712229e+02
   endloop
 endfacet
 facet normal  7.846028e-01  1.284478e-01 -6.065473e-01
   outer loop
     vertex -2.256927e+02  6.801514e+02 -5.715440e+02
     vertex -2.254059e+02  6.804764e+02 -5.711042e+02
     vertex -2.254323e+02  6.796490e+02 -5.713135e+02
   endloop
 endfacet
 facet normal  7.894706e-01  1.183621e-01 -6.022678e-01
   outer loop
     vertex -2.256927e+02  6.801514e+02 -5.715440e+02
     vertex -2.257696e+02  6.808633e+02 -5.715048e+02
     vertex -2.254059e+02  6.804764e+02 -5.711042e+02
   endloop
 endfacet
 facet normal  7.718859e-01  1.177029e-01 -6.247705e-01
   outer loop
     vertex -2.256927e+02  6.801514e+02 -5.715440e+02
     vertex -2.259911e+02  6.806100e+02 -5.718262e+02
     vertex -2.257696e+02  6.808633e+02 -5.715048e+02
   endloop
 endfacet
 facet normal  7.431949e-01  7.432948e-02 -6.649334e-01
   outer loop
     vertex -2.256927e+02  6.801514e+02 -5.715440e+02
     vertex -2.262260e+02  6.803356e+02 -5.721195e+02
     vertex -2.259911e+02  6.806100e+02 -5.718262e+02
   endloop
 endfacet
 facet normal  6.862761e-01  1.296390e-02 -7.272256e-01
   outer loop
     vertex -2.260355e+02  6.789342e+02 -5.719832e+02
     vertex -2.254989e+02  6.787632e+02 -5.714799e+02
     vertex -2.257317e+02  6.784832e+02 -5.717046e+02
   endloop
 endfacet
 facet normal  6.451527e-01 -3.694687e-02 -7.631598e-01
   outer loop
     vertex -2.260355e+02  6.789342e+02 -5.719832e+02
     vertex -2.257317e+02  6.784832e+02 -5.717046e+02
     vertex -2.259740e+02  6.781865e+02 -5.718951e+02
   endloop
 endfacet
 facet normal  6.880244e-01  2.416064e-02 -7.252852e-01
   outer loop
     vertex -2.260355e+02  6.789342e+02 -5.719832e+02
     vertex -2.257238e+02  6.793082e+02 -5.716751e+02
     vertex -2.254989e+02  6.787632e+02 -5.714799e+02
   endloop
 endfacet
 facet normal  7.396550e-01  7.666906e-02 -6.686048e-01
   outer loop
     vertex -2.260052e+02  6.797860e+02 -5.719316e+02
     vertex -2.256927e+02  6.801514e+02 -5.715440e+02
     vertex -2.254323e+02  6.796490e+02 -5.713135e+02
   endloop
 endfacet
 facet normal  7.053288e-01  4.146570e-02 -7.076665e-01
   outer loop
     vertex -2.260052e+02  6.797860e+02 -5.719316e+02
     vertex -2.264728e+02  6.800418e+02 -5.723827e+02
     vertex -2.262260e+02  6.803356e+02 -5.721195e+02
   endloop
 endfacet
 facet normal  7.396550e-01  7.666906e-02 -6.686048e-01
   outer loop
     vertex -2.260052e+02  6.797860e+02 -5.719316e+02
     vertex -2.254323e+02  6.796490e+02 -5.713135e+02
     vertex -2.257238e+02  6.793082e+02 -5.716751e+02
   endloop
 endfacet
 facet normal  7.428381e-01  7.087394e-02 -6.657090e-01
   outer loop
     vertex -2.260052e+02  6.797860e+02 -5.719316e+02
     vertex -2.262260e+02  6.803356e+02 -5.721195e+02
     vertex -2.256927e+02  6.801514e+02 -5.715440e+02
   endloop
 endfacet
 facet normal  6.053849e-01 -9.309285e-02 -7.904700e-01
   outer loop
     vertex -2.263632e+02  6.785321e+02 -5.722338e+02
     vertex -2.259740e+02  6.781865e+02 -5.718951e+02
     vertex -2.262238e+02  6.778756e+02 -5.720498e+02
   endloop
 endfacet
 facet normal  6.363757e-01 -3.852469e-02 -7.704167e-01
   outer loop
     vertex -2.263632e+02  6.785321e+02 -5.722338e+02
     vertex -2.260355e+02  6.789342e+02 -5.719832e+02
     vertex -2.259740e+02  6.781865e+02 -5.718951e+02
   endloop
 endfacet
 facet normal  6.911601e-01  1.920766e-02 -7.224464e-01
   outer loop
     vertex -2.263393e+02  6.793852e+02 -5.722619e+02
     vertex -2.257238e+02  6.793082e+02 -5.716751e+02
     vertex -2.260355e+02  6.789342e+02 -5.719832e+02
   endloop
 endfacet
 facet normal  6.911601e-01  1.920766e-02 -7.224464e-01
   outer loop
     vertex -2.263393e+02  6.793852e+02 -5.722619e+02
     vertex -2.260052e+02  6.797860e+02 -5.719316e+02
     vertex -2.257238e+02  6.793082e+02 -5.716751e+02
   endloop
 endfacet
 facet normal  6.970149e-01  9.830677e-03 -7.169892e-01
   outer loop
     vertex -2.263393e+02  6.793852e+02 -5.722619e+02
     vertex -2.264728e+02  6.800418e+02 -5.723827e+02
     vertex -2.260052e+02  6.797860e+02 -5.719316e+02
   endloop
 endfacet
 facet normal  6.694344e-01 -5.357774e-04 -7.428710e-01
   outer loop
     vertex -2.263393e+02  6.793852e+02 -5.722619e+02
     vertex -2.267299e+02  6.797306e+02 -5.726141e+02
     vertex -2.264728e+02  6.800418e+02 -5.723827e+02
   endloop
 endfacet
 facet normal  5.628297e-01 -1.488255e-01 -8.130644e-01
   outer loop
     vertex -2.267027e+02  6.781071e+02 -5.724236e+02
     vertex -2.262238e+02  6.778756e+02 -5.720498e+02
     vertex -2.264791e+02  6.775530e+02 -5.721674e+02
   endloop
 endfacet
 facet normal  5.806418e-01 -1.031492e-01 -8.075985e-01
   outer loop
     vertex -2.267027e+02  6.781071e+02 -5.724236e+02
     vertex -2.263632e+02  6.785321e+02 -5.722338e+02
     vertex -2.262238e+02  6.778756e+02 -5.720498e+02
   endloop
 endfacet
 facet normal  6.397555e-01 -4.318139e-02 -7.673645e-01
   outer loop
     vertex -2.266906e+02  6.789542e+02 -5.725306e+02
     vertex -2.260355e+02  6.789342e+02 -5.719832e+02
     vertex -2.263632e+02  6.785321e+02 -5.722338e+02
   endloop
 endfacet
 facet normal  6.397555e-01 -4.318139e-02 -7.673645e-01
   outer loop
     vertex -2.266906e+02  6.789542e+02 -5.725306e+02
     vertex -2.263393e+02  6.793852e+02 -5.722619e+02
     vertex -2.260355e+02  6.789342e+02 -5.719832e+02
   endloop
 endfacet
 facet normal  6.443430e-01 -4.955982e-02 -7.631291e-01
   outer loop
     vertex -2.266906e+02  6.789542e+02 -5.725306e+02
     vertex -2.267299e+02  6.797306e+02 -5.726141e+02
     vertex -2.263393e+02  6.793852e+02 -5.722619e+02
   endloop
 endfacet
 facet normal  6.363980e-01 -5.066823e-02 -7.696950e-01
   outer loop
     vertex -2.266906e+02  6.789542e+02 -5.725306e+02
     vertex -2.269955e+02  6.794041e+02 -5.728123e+02
     vertex -2.267299e+02  6.797306e+02 -5.726141e+02
   endloop
 endfacet
 facet normal  5.965467e-01 -9.475444e-02 -7.969653e-01
   outer loop
     vertex -2.266906e+02  6.789542e+02 -5.725306e+02
     vertex -2.272681e+02  6.790643e+02 -5.729759e+02
     vertex -2.269955e+02  6.794041e+02 -5.728123e+02
   endloop
 endfacet
 facet normal  5.861164e-01 -1.096783e-01 -8.027691e-01
   outer loop
     vertex -2.266906e+02  6.789542e+02 -5.725306e+02
     vertex -2.263632e+02  6.785321e+02 -5.722338e+02
     vertex -2.267027e+02  6.781071e+02 -5.724236e+02
   endloop
 endfacet
 facet normal  5.175471e-01 -2.041166e-01 -8.309521e-01
   outer loop
     vertex -2.270495e+02  6.776647e+02 -5.725501e+02
     vertex -2.264791e+02  6.775530e+02 -5.721674e+02
     vertex -2.267375e+02  6.772215e+02 -5.722470e+02
   endloop
 endfacet
 facet normal  5.250801e-01 -1.733771e-01 -8.332054e-01
   outer loop
     vertex -2.270495e+02  6.776647e+02 -5.725501e+02
     vertex -2.267027e+02  6.781071e+02 -5.724236e+02
     vertex -2.264791e+02  6.775530e+02 -5.721674e+02
   endloop
 endfacet
 facet normal  5.861164e-01 -1.096783e-01 -8.027691e-01
   outer loop
     vertex -2.270545e+02  6.784986e+02 -5.727340e+02
     vertex -2.266906e+02  6.789542e+02 -5.725306e+02
     vertex -2.267027e+02  6.781071e+02 -5.724236e+02
   endloop
 endfacet
 facet normal  5.923680e-01 -1.172045e-01 -7.970968e-01
   outer loop
     vertex -2.270545e+02  6.784986e+02 -5.727340e+02
     vertex -2.272681e+02  6.790643e+02 -5.729759e+02
     vertex -2.266906e+02  6.789542e+02 -5.725306e+02
   endloop
 endfacet
 facet normal  5.555249e-01 -1.406960e-01 -8.195100e-01
   outer loop
     vertex -2.270545e+02  6.784986e+02 -5.727340e+02
     vertex -2.275456e+02  6.787134e+02 -5.731038e+02
     vertex -2.272681e+02  6.790643e+02 -5.729759e+02
   endloop
 endfacet
 facet normal  4.695423e-01 -2.589119e-01 -8.440940e-01
   outer loop
     vertex -2.273990e+02  6.772109e+02 -5.726116e+02
     vertex -2.267375e+02  6.772215e+02 -5.722470e+02
     vertex -2.269971e+02  6.768838e+02 -5.722878e+02
   endloop
 endfacet
 facet normal  4.247087e-01 -3.176475e-01 -8.477751e-01
   outer loop
     vertex -2.273990e+02  6.772109e+02 -5.726116e+02
     vertex -2.269971e+02  6.768838e+02 -5.722878e+02
     vertex -2.272555e+02  6.765428e+02 -5.722895e+02
   endloop
 endfacet
 facet normal  4.708121e-01 -2.477908e-01 -8.467205e-01
   outer loop
     vertex -2.273990e+02  6.772109e+02 -5.726116e+02
     vertex -2.270495e+02  6.776647e+02 -5.725501e+02
     vertex -2.267375e+02  6.772215e+02 -5.722470e+02
   endloop
 endfacet
 facet normal  5.376598e-01 -1.863536e-01 -8.223103e-01
   outer loop
     vertex -2.274262e+02  6.780244e+02 -5.728696e+02
     vertex -2.275456e+02  6.787134e+02 -5.731038e+02
     vertex -2.270545e+02  6.784986e+02 -5.727340e+02
   endloop
 endfacet
 facet normal  5.186248e-01 -1.932448e-01 -8.328774e-01
   outer loop
     vertex -2.274262e+02  6.780244e+02 -5.728696e+02
     vertex -2.278264e+02  6.783539e+02 -5.731952e+02
     vertex -2.275456e+02  6.787134e+02 -5.731038e+02
   endloop
 endfacet
 facet normal  4.815063e-01 -2.464455e-01 -8.410804e-01
   outer loop
     vertex -2.274262e+02  6.780244e+02 -5.728696e+02
     vertex -2.281086e+02  6.779879e+02 -5.732496e+02
     vertex -2.278264e+02  6.783539e+02 -5.731952e+02
   endloop
 endfacet
 facet normal  5.309478e-01 -1.794094e-01 -8.281949e-01
   outer loop
     vertex -2.274262e+02  6.780244e+02 -5.728696e+02
     vertex -2.270545e+02  6.784986e+02 -5.727340e+02
     vertex -2.267027e+02  6.781071e+02 -5.724236e+02
   endloop
 endfacet
 facet normal  5.309478e-01 -1.794094e-01 -8.281949e-01
   outer loop
     vertex -2.274262e+02  6.780244e+02 -5.728696e+02
     vertex -2.267027e+02  6.781071e+02 -5.724236e+02
     vertex -2.270495e+02  6.776647e+02 -5.725501e+02
   endloop
 endfacet
 facet normal  3.839380e-01 -3.791552e-01 -8.419222e-01
   outer loop
     vertex -2.277466e+02  6.767514e+02 -5.726074e+02
     vertex -2.272555e+02  6.765428e+02 -5.722895e+02
     vertex -2.275107e+02  6.762015e+02 -5.722521e+02
   endloop
 endfacet
 facet normal  4.145034e-01 -3.215597e-01 -8.513438e-01
   outer loop
     vertex -2.277466e+02  6.767514e+02 -5.726074e+02
     vertex -2.273990e+02  6.772109e+02 -5.726116e+02
     vertex -2.272555e+02  6.765428e+02 -5.722895e+02
   endloop
 endfacet
 facet normal  4.806456e-01 -2.564671e-01 -8.385728e-01
   outer loop
     vertex -2.278008e+02  6.775379e+02 -5.729355e+02
     vertex -2.281086e+02  6.779879e+02 -5.732496e+02
     vertex -2.274262e+02  6.780244e+02 -5.728696e+02
   endloop
 endfacet
 facet normal  4.371305e-01 -2.941593e-01 -8.499337e-01
   outer loop
     vertex -2.278008e+02  6.775379e+02 -5.729355e+02
     vertex -2.283904e+02  6.776180e+02 -5.732665e+02
     vertex -2.281086e+02  6.779879e+02 -5.732496e+02
   endloop
 endfacet
 facet normal  4.749744e-01 -2.514585e-01 -8.433077e-01
   outer loop
     vertex -2.278008e+02  6.775379e+02 -5.729355e+02
     vertex -2.274262e+02  6.780244e+02 -5.728696e+02
     vertex -2.270495e+02  6.776647e+02 -5.725501e+02
   endloop
 endfacet
 facet normal  4.749744e-01 -2.514585e-01 -8.433077e-01
   outer loop
     vertex -2.278008e+02  6.775379e+02 -5.729355e+02
     vertex -2.270495e+02  6.776647e+02 -5.725501e+02
     vertex -2.273990e+02  6.772109e+02 -5.726116e+02
   endloop
 endfacet
 facet normal  3.416813e-01 -4.385476e-01 -8.312220e-01
   outer loop
     vertex -2.280878e+02  6.762925e+02 -5.725374e+02
     vertex -2.275107e+02  6.762015e+02 -5.722521e+02
     vertex -2.277604e+02  6.758625e+02 -5.721759e+02
   endloop
 endfacet
 facet normal  3.564962e-01 -3.942356e-01 -8.470471e-01
   outer loop
     vertex -2.280878e+02  6.762925e+02 -5.725374e+02
     vertex -2.277466e+02  6.767514e+02 -5.726074e+02
     vertex -2.275107e+02  6.762015e+02 -5.722521e+02
   endloop
 endfacet
 facet normal  4.189319e-01 -3.248787e-01 -8.479091e-01
   outer loop
     vertex -2.281734e+02  6.770455e+02 -5.729309e+02
     vertex -2.273990e+02  6.772109e+02 -5.726116e+02
     vertex -2.277466e+02  6.767514e+02 -5.726074e+02
   endloop
 endfacet
 facet normal  4.189319e-01 -3.248787e-01 -8.479091e-01
   outer loop
     vertex -2.281734e+02  6.770455e+02 -5.729309e+02
     vertex -2.278008e+02  6.775379e+02 -5.729355e+02
     vertex -2.273990e+02  6.772109e+02 -5.726116e+02
   endloop
 endfacet
 facet normal  3.981443e-01 -3.468040e-01 -8.492397e-01
   outer loop
     vertex -2.281734e+02  6.770455e+02 -5.729309e+02
     vertex -2.286699e+02  6.772466e+02 -5.732458e+02
     vertex -2.283904e+02  6.776180e+02 -5.732665e+02
   endloop
 endfacet
 facet normal  4.272652e-01 -3.311229e-01 -8.413097e-01
   outer loop
     vertex -2.281734e+02  6.770455e+02 -5.729309e+02
     vertex -2.283904e+02  6.776180e+02 -5.732665e+02
     vertex -2.278008e+02  6.775379e+02 -5.729355e+02
   endloop
 endfacet
 facet normal  2.979916e-01 -4.958026e-01 -8.157087e-01
   outer loop
     vertex -2.284180e+02  6.758401e+02 -5.724026e+02
     vertex -2.277604e+02  6.758625e+02 -5.721759e+02
     vertex -2.280026e+02  6.755289e+02 -5.720616e+02
   endloop
 endfacet
 facet normal  2.458426e-01 -5.478232e-01 -7.996569e-01
   outer loop
     vertex -2.284180e+02  6.758401e+02 -5.724026e+02
     vertex -2.280026e+02  6.755289e+02 -5.720616e+02
     vertex -2.282353e+02  6.752033e+02 -5.719101e+02
   endloop
 endfacet
 facet normal  3.021309e-01 -4.680208e-01 -8.304658e-01
   outer loop
     vertex -2.284180e+02  6.758401e+02 -5.724026e+02
     vertex -2.280878e+02  6.762925e+02 -5.725374e+02
     vertex -2.277604e+02  6.758625e+02 -5.721759e+02
   endloop
 endfacet
 facet normal  3.687375e-01 -4.019753e-01 -8.381220e-01
   outer loop
     vertex -2.285392e+02  6.765535e+02 -5.728559e+02
     vertex -2.286699e+02  6.772466e+02 -5.732458e+02
     vertex -2.281734e+02  6.770455e+02 -5.729309e+02
   endloop
 endfacet
 facet normal  3.654773e-01 -4.030916e-01 -8.390134e-01
   outer loop
     vertex -2.285392e+02  6.765535e+02 -5.728559e+02
     vertex -2.289452e+02  6.768761e+02 -5.731877e+02
     vertex -2.286699e+02  6.772466e+02 -5.732458e+02
   endloop
 endfacet
 facet normal  3.215539e-01 -4.515000e-01 -8.323166e-01
   outer loop
     vertex -2.285392e+02  6.765535e+02 -5.728559e+02
     vertex -2.292146e+02  6.765088e+02 -5.730926e+02
     vertex -2.289452e+02  6.768761e+02 -5.731877e+02
   endloop
 endfacet
 facet normal  3.635564e-01 -3.987055e-01 -8.419386e-01
   outer loop
     vertex -2.285392e+02  6.765535e+02 -5.728559e+02
     vertex -2.277466e+02  6.767514e+02 -5.726074e+02
     vertex -2.280878e+02  6.762925e+02 -5.725374e+02
   endloop
 endfacet
 facet normal  3.635564e-01 -3.987055e-01 -8.419386e-01
   outer loop
     vertex -2.285392e+02  6.765535e+02 -5.728559e+02
     vertex -2.281734e+02  6.770455e+02 -5.729309e+02
     vertex -2.277466e+02  6.767514e+02 -5.726074e+02
   endloop
 endfacet
 facet normal  2.576991e-01 -5.437057e-01 -7.987335e-01
   outer loop
     vertex -2.288932e+02  6.760686e+02 -5.727114e+02
     vertex -2.282353e+02  6.752033e+02 -5.719101e+02
     vertex -2.297287e+02  6.757939e+02 -5.727939e+02
   endloop
 endfacet
 facet normal  2.822776e-01 -5.018563e-01 -8.175938e-01
   outer loop
     vertex -2.288932e+02  6.760686e+02 -5.727114e+02
     vertex -2.294764e+02  6.761473e+02 -5.729610e+02
     vertex -2.292146e+02  6.765088e+02 -5.730926e+02
   endloop
 endfacet
 facet normal  2.614991e-01 -5.587866e-01 -7.870043e-01
   outer loop
     vertex -2.288932e+02  6.760686e+02 -5.727114e+02
     vertex -2.297287e+02  6.757939e+02 -5.727939e+02
     vertex -2.294764e+02  6.761473e+02 -5.729610e+02
   endloop
 endfacet
 facet normal  3.186484e-01 -4.767396e-01 -8.192573e-01
   outer loop
     vertex -2.288932e+02  6.760686e+02 -5.727114e+02
     vertex -2.292146e+02  6.765088e+02 -5.730926e+02
     vertex -2.285392e+02  6.765535e+02 -5.728559e+02
   endloop
 endfacet
 facet normal  3.095758e-01 -4.719687e-01 -8.254747e-01
   outer loop
     vertex -2.288932e+02  6.760686e+02 -5.727114e+02
     vertex -2.280878e+02  6.762925e+02 -5.725374e+02
     vertex -2.284180e+02  6.758401e+02 -5.724026e+02
   endloop
 endfacet
 facet normal  3.095758e-01 -4.719687e-01 -8.254747e-01
   outer loop
     vertex -2.288932e+02  6.760686e+02 -5.727114e+02
     vertex -2.285392e+02  6.765535e+02 -5.728559e+02
     vertex -2.280878e+02  6.762925e+02 -5.725374e+02
   endloop
 endfacet
 facet normal  2.576991e-01 -5.437057e-01 -7.987335e-01
   outer loop
     vertex -2.288932e+02  6.760686e+02 -5.727114e+02
     vertex -2.284180e+02  6.758401e+02 -5.724026e+02
     vertex -2.282353e+02  6.752033e+02 -5.719101e+02
   endloop
 endfacet
endsolid
