solid 
 facet normal  1.789953e-02 -9.908796e-01 -1.335561e-01
   outer loop
     vertex -2.940982e+02  6.520415e+02 -2.965295e+02
     vertex -2.905294e+02  6.557238e+02 -3.233708e+02
     vertex -2.894366e+02  6.557239e+02 -3.232255e+02
   endloop
 endfacet
 facet normal  1.789953e-02 -9.908796e-01 -1.335561e-01
   outer loop
     vertex -2.940982e+02  6.520415e+02 -2.965295e+02
     vertex -2.894366e+02  6.557239e+02 -3.232255e+02
     vertex -2.930054e+02  6.520417e+02 -2.963842e+02
   endloop
 endfacet
 facet normal  5.367524e-02 -9.902286e-01 -1.287100e-01
   outer loop
     vertex -2.951896e+02  6.520019e+02 -2.966800e+02
     vertex -2.916208e+02  6.556842e+02 -3.235214e+02
     vertex -2.905294e+02  6.557238e+02 -3.233708e+02
   endloop
 endfacet
 facet normal  5.367524e-02 -9.902286e-01 -1.287100e-01
   outer loop
     vertex -2.951896e+02  6.520019e+02 -2.966800e+02
     vertex -2.905294e+02  6.557238e+02 -3.233708e+02
     vertex -2.940982e+02  6.520415e+02 -2.965295e+02
   endloop
 endfacet
 facet normal  1.249702e-01 -9.850559e-01 -1.185211e-01
   outer loop
     vertex -2.962781e+02  6.519229e+02 -2.968356e+02
     vertex -2.937936e+02  6.554870e+02 -3.238373e+02
     vertex -2.927093e+02  6.556052e+02 -3.236769e+02
   endloop
 endfacet
 facet normal  8.938097e-02 -9.882865e-01 -1.236962e-01
   outer loop
     vertex -2.962781e+02  6.519229e+02 -2.968356e+02
     vertex -2.927093e+02  6.556052e+02 -3.236769e+02
     vertex -2.916208e+02  6.556842e+02 -3.235214e+02
   endloop
 endfacet
 facet normal  8.938097e-02 -9.882865e-01 -1.236962e-01
   outer loop
     vertex -2.962781e+02  6.519229e+02 -2.968356e+02
     vertex -2.916208e+02  6.556842e+02 -3.235214e+02
     vertex -2.951896e+02  6.520019e+02 -2.966800e+02
   endloop
 endfacet
 facet normal  1.249702e-01 -9.850559e-01 -1.185211e-01
   outer loop
     vertex -2.973624e+02  6.518047e+02 -2.969960e+02
     vertex -2.937936e+02  6.554870e+02 -3.238373e+02
     vertex -2.962781e+02  6.519229e+02 -2.968356e+02
   endloop
 endfacet
 facet normal  1.603964e-01 -9.805410e-01 -1.131915e-01
   outer loop
     vertex -2.984410e+02  6.516473e+02 -2.971610e+02
     vertex -2.948722e+02  6.553296e+02 -3.240023e+02
     vertex -2.937936e+02  6.554870e+02 -3.238373e+02
   endloop
 endfacet
 facet normal  1.603964e-01 -9.805410e-01 -1.131915e-01
   outer loop
     vertex -2.984410e+02  6.516473e+02 -2.971610e+02
     vertex -2.937936e+02  6.554870e+02 -3.238373e+02
     vertex -2.973624e+02  6.518047e+02 -2.969960e+02
   endloop
 endfacet
 facet normal  2.305756e-01 -9.676834e-01 -1.020966e-01
   outer loop
     vertex -2.995124e+02  6.514510e+02 -2.973304e+02
     vertex -2.970066e+02  6.548983e+02 -3.243453e+02
     vertex -2.959436e+02  6.551333e+02 -3.241717e+02
   endloop
 endfacet
 facet normal  1.956136e-01 -9.747476e-01 -1.077143e-01
   outer loop
     vertex -2.995124e+02  6.514510e+02 -2.973304e+02
     vertex -2.959436e+02  6.551333e+02 -3.241717e+02
     vertex -2.948722e+02  6.553296e+02 -3.240023e+02
   endloop
 endfacet
 facet normal  1.956136e-01 -9.747476e-01 -1.077143e-01
   outer loop
     vertex -2.995124e+02  6.514510e+02 -2.973304e+02
     vertex -2.948722e+02  6.553296e+02 -3.240023e+02
     vertex -2.984410e+02  6.516473e+02 -2.971610e+02
   endloop
 endfacet
 facet normal  2.305756e-01 -9.676834e-01 -1.020966e-01
   outer loop
     vertex -3.005754e+02  6.512160e+02 -2.975039e+02
     vertex -2.970066e+02  6.548983e+02 -3.243453e+02
     vertex -2.995124e+02  6.514510e+02 -2.973304e+02
   endloop
 endfacet
 facet normal  2.652371e-01 -9.593575e-01 -9.634588e-02
   outer loop
     vertex -3.005754e+02  6.512160e+02 -2.975039e+02
     vertex -2.980598e+02  6.546250e+02 -3.245228e+02
     vertex -2.970066e+02  6.548983e+02 -3.243453e+02
   endloop
 endfacet
 facet normal  2.652371e-01 -9.593575e-01 -9.634588e-02
   outer loop
     vertex -3.016286e+02  6.509427e+02 -2.976814e+02
     vertex -2.980598e+02  6.546250e+02 -3.245228e+02
     vertex -3.005754e+02  6.512160e+02 -2.975039e+02
   endloop
 endfacet
 facet normal  2.995527e-01 -9.497807e-01 -9.046950e-02
   outer loop
     vertex -3.026705e+02  6.506313e+02 -2.978627e+02
     vertex -2.980598e+02  6.546250e+02 -3.245228e+02
     vertex -3.016286e+02  6.509427e+02 -2.976814e+02
   endloop
 endfacet
 facet normal  2.995527e-01 -9.497807e-01 -9.046950e-02
   outer loop
     vertex -3.026705e+02  6.506313e+02 -2.978627e+02
     vertex -2.991017e+02  6.543136e+02 -3.247040e+02
     vertex -2.980598e+02  6.546250e+02 -3.245228e+02
   endloop
 endfacet
 facet normal  3.334778e-01 -9.389656e-01 -8.447516e-02
   outer loop
     vertex -3.036998e+02  6.502824e+02 -2.980474e+02
     vertex -2.991017e+02  6.543136e+02 -3.247040e+02
     vertex -3.026705e+02  6.506313e+02 -2.978627e+02
   endloop
 endfacet
 facet normal  3.334778e-01 -9.389656e-01 -8.447516e-02
   outer loop
     vertex -3.036998e+02  6.502824e+02 -2.980474e+02
     vertex -3.001310e+02  6.539647e+02 -3.248888e+02
     vertex -2.991017e+02  6.543136e+02 -3.247040e+02
   endloop
 endfacet
 facet normal  3.669681e-01 -9.269263e-01 -7.837069e-02
   outer loop
     vertex -3.047151e+02  6.498963e+02 -2.982354e+02
     vertex -3.001310e+02  6.539647e+02 -3.248888e+02
     vertex -3.036998e+02  6.502824e+02 -2.980474e+02
   endloop
 endfacet
 facet normal  3.669681e-01 -9.269263e-01 -7.837069e-02
   outer loop
     vertex -3.047151e+02  6.498963e+02 -2.982354e+02
     vertex -3.011463e+02  6.535786e+02 -3.250767e+02
     vertex -3.001310e+02  6.539647e+02 -3.248888e+02
   endloop
 endfacet
 facet normal  3.999800e-01 -9.136785e-01 -7.216404e-02
   outer loop
     vertex -3.057152e+02  6.494736e+02 -2.984263e+02
     vertex -3.011463e+02  6.535786e+02 -3.250767e+02
     vertex -3.047151e+02  6.498963e+02 -2.982354e+02
   endloop
 endfacet
 facet normal  3.999800e-01 -9.136785e-01 -7.216404e-02
   outer loop
     vertex -3.057152e+02  6.494736e+02 -2.984263e+02
     vertex -3.021464e+02  6.531559e+02 -3.252677e+02
     vertex -3.011463e+02  6.535786e+02 -3.250767e+02
   endloop
 endfacet
 facet normal  4.324703e-01 -8.992394e-01 -6.586330e-02
   outer loop
     vertex -3.066987e+02  6.490148e+02 -2.986200e+02
     vertex -3.021464e+02  6.531559e+02 -3.252677e+02
     vertex -3.057152e+02  6.494736e+02 -2.984263e+02
   endloop
 endfacet
 facet normal  4.643968e-01 -8.836278e-01 -5.947668e-02
   outer loop
     vertex -3.066987e+02  6.490148e+02 -2.986200e+02
     vertex -3.040956e+02  6.522028e+02 -3.256576e+02
     vertex -3.031299e+02  6.526971e+02 -3.254614e+02
   endloop
 endfacet
 facet normal  4.324703e-01 -8.992394e-01 -6.586330e-02
   outer loop
     vertex -3.066987e+02  6.490148e+02 -2.986200e+02
     vertex -3.031299e+02  6.526971e+02 -3.254614e+02
     vertex -3.021464e+02  6.531559e+02 -3.252677e+02
   endloop
 endfacet
 facet normal  4.643968e-01 -8.836278e-01 -5.947668e-02
   outer loop
     vertex -3.076644e+02  6.485205e+02 -2.988163e+02
     vertex -3.040956e+02  6.522028e+02 -3.256576e+02
     vertex -3.066987e+02  6.490148e+02 -2.986200e+02
   endloop
 endfacet
 facet normal  4.957178e-01 -8.668642e-01 -5.301252e-02
   outer loop
     vertex -3.086109e+02  6.479913e+02 -2.990147e+02
     vertex -3.040956e+02  6.522028e+02 -3.256576e+02
     vertex -3.076644e+02  6.485205e+02 -2.988163e+02
   endloop
 endfacet
 facet normal  4.957178e-01 -8.668642e-01 -5.301252e-02
   outer loop
     vertex -3.086109e+02  6.479913e+02 -2.990147e+02
     vertex -3.050421e+02  6.516736e+02 -3.258561e+02
     vertex -3.040956e+02  6.522028e+02 -3.256576e+02
   endloop
 endfacet
 facet normal  5.263924e-01 -8.489704e-01 -4.647924e-02
   outer loop
     vertex -3.095371e+02  6.474280e+02 -2.992151e+02
     vertex -3.050421e+02  6.516736e+02 -3.258561e+02
     vertex -3.086109e+02  6.479913e+02 -2.990147e+02
   endloop
 endfacet
 facet normal  5.263924e-01 -8.489704e-01 -4.647924e-02
   outer loop
     vertex -3.095371e+02  6.474280e+02 -2.992151e+02
     vertex -3.059683e+02  6.511103e+02 -3.260565e+02
     vertex -3.050421e+02  6.516736e+02 -3.258561e+02
   endloop
 endfacet
 facet normal  5.563808e-01 -8.299696e-01 -3.988536e-02
   outer loop
     vertex -3.104417e+02  6.468313e+02 -2.994173e+02
     vertex -3.059683e+02  6.511103e+02 -3.260565e+02
     vertex -3.095371e+02  6.474280e+02 -2.992151e+02
   endloop
 endfacet
 facet normal  5.563808e-01 -8.299696e-01 -3.988536e-02
   outer loop
     vertex -3.104417e+02  6.468313e+02 -2.994173e+02
     vertex -3.068729e+02  6.505136e+02 -3.262586e+02
     vertex -3.059683e+02  6.511103e+02 -3.260565e+02
   endloop
 endfacet
 facet normal  5.856437e-01 -8.098867e-01 -3.323948e-02
   outer loop
     vertex -3.113236e+02  6.462019e+02 -2.996209e+02
     vertex -3.068729e+02  6.505136e+02 -3.262586e+02
     vertex -3.104417e+02  6.468313e+02 -2.994173e+02
   endloop
 endfacet
 facet normal  5.856437e-01 -8.098867e-01 -3.323948e-02
   outer loop
     vertex -3.113236e+02  6.462019e+02 -2.996209e+02
     vertex -3.077548e+02  6.498842e+02 -3.264622e+02
     vertex -3.068729e+02  6.505136e+02 -3.262586e+02
   endloop
 endfacet
 facet normal  6.141431e-01 -7.887479e-01 -2.655026e-02
   outer loop
     vertex -3.121817e+02  6.455408e+02 -2.998257e+02
     vertex -3.077548e+02  6.498842e+02 -3.264622e+02
     vertex -3.113236e+02  6.462019e+02 -2.996209e+02
   endloop
 endfacet
 facet normal  6.418418e-01 -7.665808e-01 -1.982642e-02
   outer loop
     vertex -3.121817e+02  6.455408e+02 -2.998257e+02
     vertex -3.094459e+02  6.485309e+02 -3.268727e+02
     vertex -3.086129e+02  6.492230e+02 -3.266670e+02
   endloop
 endfacet
 facet normal  6.141431e-01 -7.887479e-01 -2.655026e-02
   outer loop
     vertex -3.121817e+02  6.455408e+02 -2.998257e+02
     vertex -3.086129e+02  6.492230e+02 -3.266670e+02
     vertex -3.077548e+02  6.498842e+02 -3.264622e+02
   endloop
 endfacet
 facet normal  6.687036e-01 -7.434141e-01 -1.307674e-02
   outer loop
     vertex -3.130147e+02  6.448486e+02 -3.000314e+02
     vertex -3.102528e+02  6.478087e+02 -3.270791e+02
     vertex -3.094459e+02  6.485309e+02 -3.268727e+02
   endloop
 endfacet
 facet normal  6.418418e-01 -7.665808e-01 -1.982642e-02
   outer loop
     vertex -3.130147e+02  6.448486e+02 -3.000314e+02
     vertex -3.094459e+02  6.485309e+02 -3.268727e+02
     vertex -3.121817e+02  6.455408e+02 -2.998257e+02
   endloop
 endfacet
 facet normal  6.687036e-01 -7.434141e-01 -1.307674e-02
   outer loop
     vertex -3.138216e+02  6.441264e+02 -3.002377e+02
     vertex -3.102528e+02  6.478087e+02 -3.270791e+02
     vertex -3.130147e+02  6.448486e+02 -3.000314e+02
   endloop
 endfacet
 facet normal  7.197777e-01 -6.942044e-01  4.649617e-04
   outer loop
     vertex -3.146014e+02  6.433751e+02 -3.004445e+02
     vertex -3.117843e+02  6.462779e+02 -3.274927e+02
     vertex -3.110326e+02  6.470573e+02 -3.272858e+02
   endloop
 endfacet
 facet normal  6.946935e-01 -7.192782e-01 -6.310001e-03
   outer loop
     vertex -3.146014e+02  6.433751e+02 -3.004445e+02
     vertex -3.110326e+02  6.470573e+02 -3.272858e+02
     vertex -3.102528e+02  6.478087e+02 -3.270791e+02
   endloop
 endfacet
 facet normal  6.946935e-01 -7.192782e-01 -6.310001e-03
   outer loop
     vertex -3.146014e+02  6.433751e+02 -3.004445e+02
     vertex -3.102528e+02  6.478087e+02 -3.270791e+02
     vertex -3.138216e+02  6.441264e+02 -3.002377e+02
   endloop
 endfacet
 facet normal  7.197777e-01 -6.942044e-01  4.649617e-04
   outer loop
     vertex -3.153531e+02  6.425956e+02 -3.006514e+02
     vertex -3.117843e+02  6.462779e+02 -3.274927e+02
     vertex -3.146014e+02  6.433751e+02 -3.004445e+02
   endloop
 endfacet
 facet normal  7.439235e-01 -6.682256e-01  7.239319e-03
   outer loop
     vertex -3.160756e+02  6.417890e+02 -3.008581e+02
     vertex -3.125068e+02  6.454713e+02 -3.276994e+02
     vertex -3.117843e+02  6.462779e+02 -3.274927e+02
   endloop
 endfacet
 facet normal  7.439235e-01 -6.682256e-01  7.239319e-03
   outer loop
     vertex -3.160756e+02  6.417890e+02 -3.008581e+02
     vertex -3.117843e+02  6.462779e+02 -3.274927e+02
     vertex -3.153531e+02  6.425956e+02 -3.006514e+02
   endloop
 endfacet
 facet normal  7.670993e-01 -6.413755e-01  1.400424e-02
   outer loop
     vertex -3.167680e+02  6.409564e+02 -3.010644e+02
     vertex -3.131992e+02  6.446386e+02 -3.279057e+02
     vertex -3.125068e+02  6.454713e+02 -3.276994e+02
   endloop
 endfacet
 facet normal  7.670993e-01 -6.413755e-01  1.400424e-02
   outer loop
     vertex -3.167680e+02  6.409564e+02 -3.010644e+02
     vertex -3.125068e+02  6.454713e+02 -3.276994e+02
     vertex -3.160756e+02  6.417890e+02 -3.008581e+02
   endloop
 endfacet
 facet normal  7.892750e-01 -6.136892e-01  2.075090e-02
   outer loop
     vertex -3.174294e+02  6.400987e+02 -3.012700e+02
     vertex -3.138606e+02  6.437810e+02 -3.281113e+02
     vertex -3.131992e+02  6.446386e+02 -3.279057e+02
   endloop
 endfacet
 facet normal  7.892750e-01 -6.136892e-01  2.075090e-02
   outer loop
     vertex -3.174294e+02  6.400987e+02 -3.012700e+02
     vertex -3.131992e+02  6.446386e+02 -3.279057e+02
     vertex -3.167680e+02  6.409564e+02 -3.010644e+02
   endloop
 endfacet
 facet normal  8.104216e-01 -5.852028e-01  2.747050e-02
   outer loop
     vertex -3.180590e+02  6.392172e+02 -3.014746e+02
     vertex -3.144902e+02  6.428995e+02 -3.283160e+02
     vertex -3.138606e+02  6.437810e+02 -3.281113e+02
   endloop
 endfacet
 facet normal  8.104216e-01 -5.852028e-01  2.747050e-02
   outer loop
     vertex -3.180590e+02  6.392172e+02 -3.014746e+02
     vertex -3.138606e+02  6.437810e+02 -3.281113e+02
     vertex -3.174294e+02  6.400987e+02 -3.012700e+02
   endloop
 endfacet
 facet normal  8.305115e-01 -5.559533e-01  3.415429e-02
   outer loop
     vertex -3.186559e+02  6.383130e+02 -3.016780e+02
     vertex -3.150871e+02  6.419953e+02 -3.285194e+02
     vertex -3.144902e+02  6.428995e+02 -3.283160e+02
   endloop
 endfacet
 facet normal  8.305115e-01 -5.559533e-01  3.415429e-02
   outer loop
     vertex -3.186559e+02  6.383130e+02 -3.016780e+02
     vertex -3.144902e+02  6.428995e+02 -3.283160e+02
     vertex -3.180590e+02  6.392172e+02 -3.014746e+02
   endloop
 endfacet
 facet normal  8.495187e-01 -5.259790e-01  4.079354e-02
   outer loop
     vertex -3.192194e+02  6.373872e+02 -3.018799e+02
     vertex -3.156506e+02  6.410695e+02 -3.287213e+02
     vertex -3.150871e+02  6.419953e+02 -3.285194e+02
   endloop
 endfacet
 facet normal  8.495187e-01 -5.259790e-01  4.079354e-02
   outer loop
     vertex -3.192194e+02  6.373872e+02 -3.018799e+02
     vertex -3.150871e+02  6.419953e+02 -3.285194e+02
     vertex -3.186559e+02  6.383130e+02 -3.016780e+02
   endloop
 endfacet
 facet normal  8.674182e-01 -4.953190e-01  4.737961e-02
   outer loop
     vertex -3.197487e+02  6.364411e+02 -3.020801e+02
     vertex -3.161799e+02  6.401234e+02 -3.289215e+02
     vertex -3.156506e+02  6.410695e+02 -3.287213e+02
   endloop
 endfacet
 facet normal  8.674182e-01 -4.953190e-01  4.737961e-02
   outer loop
     vertex -3.197487e+02  6.364411e+02 -3.020801e+02
     vertex -3.156506e+02  6.410695e+02 -3.287213e+02
     vertex -3.192194e+02  6.373872e+02 -3.018799e+02
   endloop
 endfacet
 facet normal  8.841868e-01 -4.640131e-01  5.390391e-02
   outer loop
     vertex -3.202432e+02  6.354760e+02 -3.022783e+02
     vertex -3.161799e+02  6.401234e+02 -3.289215e+02
     vertex -3.197487e+02  6.364411e+02 -3.020801e+02
   endloop
 endfacet
 facet normal  8.841868e-01 -4.640131e-01  5.390391e-02
   outer loop
     vertex -3.202432e+02  6.354760e+02 -3.022783e+02
     vertex -3.166744e+02  6.391582e+02 -3.291196e+02
     vertex -3.161799e+02  6.401234e+02 -3.289215e+02
   endloop
 endfacet
 facet normal  8.998025e-01 -4.321022e-01  6.035793e-02
   outer loop
     vertex -3.207021e+02  6.344929e+02 -3.024741e+02
     vertex -3.166744e+02  6.391582e+02 -3.291196e+02
     vertex -3.202432e+02  6.354760e+02 -3.022783e+02
   endloop
 endfacet
 facet normal  8.998025e-01 -4.321022e-01  6.035793e-02
   outer loop
     vertex -3.207021e+02  6.344929e+02 -3.024741e+02
     vertex -3.171333e+02  6.381752e+02 -3.293155e+02
     vertex -3.166744e+02  6.391582e+02 -3.291196e+02
   endloop
 endfacet
 facet normal  9.142451e-01 -3.996280e-01  6.673325e-02
   outer loop
     vertex -3.211249e+02  6.334933e+02 -3.026675e+02
     vertex -3.171333e+02  6.381752e+02 -3.293155e+02
     vertex -3.207021e+02  6.344929e+02 -3.024741e+02
   endloop
 endfacet
 facet normal  9.142451e-01 -3.996280e-01  6.673325e-02
   outer loop
     vertex -3.211249e+02  6.334933e+02 -3.026675e+02
     vertex -3.175561e+02  6.371756e+02 -3.295088e+02
     vertex -3.171333e+02  6.381752e+02 -3.293155e+02
   endloop
 endfacet
 facet normal  9.274957e-01 -3.666327e-01  7.302156e-02
   outer loop
     vertex -3.215111e+02  6.324785e+02 -3.028581e+02
     vertex -3.175561e+02  6.371756e+02 -3.295088e+02
     vertex -3.211249e+02  6.334933e+02 -3.026675e+02
   endloop
 endfacet
 facet normal  9.274957e-01 -3.666327e-01  7.302156e-02
   outer loop
     vertex -3.215111e+02  6.324785e+02 -3.028581e+02
     vertex -3.179423e+02  6.361608e+02 -3.296994e+02
     vertex -3.175561e+02  6.371756e+02 -3.295088e+02
   endloop
 endfacet
 facet normal  9.395370e-01 -3.331594e-01  7.921467e-02
   outer loop
     vertex -3.218601e+02  6.314497e+02 -3.030456e+02
     vertex -3.179423e+02  6.361608e+02 -3.296994e+02
     vertex -3.215111e+02  6.324785e+02 -3.028581e+02
   endloop
 endfacet
 facet normal  9.395370e-01 -3.331594e-01  7.921467e-02
   outer loop
     vertex -3.218601e+02  6.314497e+02 -3.030456e+02
     vertex -3.182913e+02  6.351320e+02 -3.298869e+02
     vertex -3.179423e+02  6.361608e+02 -3.296994e+02
   endloop
 endfacet
 facet normal  9.503534e-01 -2.992518e-01  8.530449e-02
   outer loop
     vertex -3.221714e+02  6.304084e+02 -3.032298e+02
     vertex -3.182913e+02  6.351320e+02 -3.298869e+02
     vertex -3.218601e+02  6.314497e+02 -3.030456e+02
   endloop
 endfacet
 facet normal  9.599306e-01 -2.649539e-01  9.128310e-02
   outer loop
     vertex -3.221714e+02  6.304084e+02 -3.032298e+02
     vertex -3.188760e+02  6.330381e+02 -3.302519e+02
     vertex -3.186026e+02  6.340907e+02 -3.300712e+02
   endloop
 endfacet
 facet normal  9.503534e-01 -2.992518e-01  8.530449e-02
   outer loop
     vertex -3.221714e+02  6.304084e+02 -3.032298e+02
     vertex -3.186026e+02  6.340907e+02 -3.300712e+02
     vertex -3.182913e+02  6.351320e+02 -3.298869e+02
   endloop
 endfacet
 facet normal  9.599306e-01 -2.649539e-01  9.128310e-02
   outer loop
     vertex -3.224448e+02  6.293558e+02 -3.034106e+02
     vertex -3.188760e+02  6.330381e+02 -3.302519e+02
     vertex -3.221714e+02  6.304084e+02 -3.032298e+02
   endloop
 endfacet
 facet normal  9.682563e-01 -2.303106e-01  9.714269e-02
   outer loop
     vertex -3.226797e+02  6.282934e+02 -3.035876e+02
     vertex -3.188760e+02  6.330381e+02 -3.302519e+02
     vertex -3.224448e+02  6.293558e+02 -3.034106e+02
   endloop
 endfacet
 facet normal  9.682563e-01 -2.303106e-01  9.714269e-02
   outer loop
     vertex -3.226797e+02  6.282934e+02 -3.035876e+02
     vertex -3.191109e+02  6.319757e+02 -3.304289e+02
     vertex -3.188760e+02  6.330381e+02 -3.302519e+02
   endloop
 endfacet
 facet normal  9.753196e-01 -1.953671e-01  1.028756e-01
   outer loop
     vertex -3.228760e+02  6.272224e+02 -3.037606e+02
     vertex -3.191109e+02  6.319757e+02 -3.304289e+02
     vertex -3.226797e+02  6.282934e+02 -3.035876e+02
   endloop
 endfacet
 facet normal  9.753196e-01 -1.953671e-01  1.028756e-01
   outer loop
     vertex -3.228760e+02  6.272224e+02 -3.037606e+02
     vertex -3.193072e+02  6.309047e+02 -3.306020e+02
     vertex -3.191109e+02  6.319757e+02 -3.304289e+02
   endloop
 endfacet
 facet normal  9.811112e-01 -1.601688e-01  1.084744e-01
   outer loop
     vertex -3.230333e+02  6.261445e+02 -3.039294e+02
     vertex -3.194645e+02  6.298267e+02 -3.307708e+02
     vertex -3.193072e+02  6.309047e+02 -3.306020e+02
   endloop
 endfacet
 facet normal  9.811112e-01 -1.601688e-01  1.084744e-01
   outer loop
     vertex -3.230333e+02  6.261445e+02 -3.039294e+02
     vertex -3.193072e+02  6.309047e+02 -3.306020e+02
     vertex -3.228760e+02  6.272224e+02 -3.037606e+02
   endloop
 endfacet
 facet normal  9.856237e-01 -1.247617e-01  1.139318e-01
   outer loop
     vertex -3.231515e+02  6.250608e+02 -3.040938e+02
     vertex -3.195827e+02  6.287431e+02 -3.309351e+02
     vertex -3.194645e+02  6.298267e+02 -3.307708e+02
   endloop
 endfacet
 facet normal  9.856237e-01 -1.247617e-01  1.139318e-01
   outer loop
     vertex -3.231515e+02  6.250608e+02 -3.040938e+02
     vertex -3.194645e+02  6.298267e+02 -3.307708e+02
     vertex -3.230333e+02  6.261445e+02 -3.039294e+02
   endloop
 endfacet
 facet normal  9.888511e-01 -8.919189e-02  1.192406e-01
   outer loop
     vertex -3.232304e+02  6.239729e+02 -3.042535e+02
     vertex -3.196616e+02  6.276551e+02 -3.310949e+02
     vertex -3.195827e+02  6.287431e+02 -3.309351e+02
   endloop
 endfacet
 facet normal  9.888511e-01 -8.919189e-02  1.192406e-01
   outer loop
     vertex -3.232304e+02  6.239729e+02 -3.042535e+02
     vertex -3.195827e+02  6.287431e+02 -3.309351e+02
     vertex -3.231515e+02  6.250608e+02 -3.040938e+02
   endloop
 endfacet
 facet normal  9.907892e-01 -5.350582e-02  1.243940e-01
   outer loop
     vertex -3.232698e+02  6.228821e+02 -3.044084e+02
     vertex -3.197010e+02  6.265644e+02 -3.312498e+02
     vertex -3.196616e+02  6.276551e+02 -3.310949e+02
   endloop
 endfacet
 facet normal  9.907892e-01 -5.350582e-02  1.243940e-01
   outer loop
     vertex -3.232698e+02  6.228821e+02 -3.044084e+02
     vertex -3.196616e+02  6.276551e+02 -3.310949e+02
     vertex -3.232304e+02  6.239729e+02 -3.042535e+02
   endloop
 endfacet
 facet normal  9.914355e-01 -1.774998e-02  1.293852e-01
   outer loop
     vertex -3.232698e+02  6.217899e+02 -3.045582e+02
     vertex -3.197010e+02  6.254722e+02 -3.313996e+02
     vertex -3.197010e+02  6.265644e+02 -3.312498e+02
   endloop
 endfacet
 facet normal  9.914355e-01 -1.774998e-02  1.293852e-01
   outer loop
     vertex -3.232698e+02  6.217899e+02 -3.045582e+02
     vertex -3.197010e+02  6.265644e+02 -3.312498e+02
     vertex -3.232698e+02  6.228821e+02 -3.044084e+02
   endloop
 endfacet
 facet normal  9.907892e-01  1.802899e-02  1.342076e-01
   outer loop
     vertex -3.232304e+02  6.206977e+02 -3.047028e+02
     vertex -3.196616e+02  6.243800e+02 -3.315442e+02
     vertex -3.197010e+02  6.254722e+02 -3.313996e+02
   endloop
 endfacet
 facet normal  9.907892e-01  1.802899e-02  1.342076e-01
   outer loop
     vertex -3.232304e+02  6.206977e+02 -3.047028e+02
     vertex -3.197010e+02  6.254722e+02 -3.313996e+02
     vertex -3.232698e+02  6.217899e+02 -3.045582e+02
   endloop
 endfacet
 facet normal  9.888511e-01  5.378446e-02  1.388551e-01
   outer loop
     vertex -3.231515e+02  6.196070e+02 -3.048420e+02
     vertex -3.195827e+02  6.232893e+02 -3.316833e+02
     vertex -3.196616e+02  6.243800e+02 -3.315442e+02
   endloop
 endfacet
 facet normal  9.888511e-01  5.378446e-02  1.388551e-01
   outer loop
     vertex -3.231515e+02  6.196070e+02 -3.048420e+02
     vertex -3.196616e+02  6.243800e+02 -3.315442e+02
     vertex -3.232304e+02  6.206977e+02 -3.047028e+02
   endloop
 endfacet
 facet normal  9.856237e-01  8.946981e-02  1.433216e-01
   outer loop
     vertex -3.230333e+02  6.185191e+02 -3.049755e+02
     vertex -3.194645e+02  6.222014e+02 -3.318169e+02
     vertex -3.195827e+02  6.232893e+02 -3.316833e+02
   endloop
 endfacet
 facet normal  9.856237e-01  8.946981e-02  1.433216e-01
   outer loop
     vertex -3.230333e+02  6.185191e+02 -3.049755e+02
     vertex -3.195827e+02  6.232893e+02 -3.316833e+02
     vertex -3.231515e+02  6.196070e+02 -3.048420e+02
   endloop
 endfacet
 facet normal  9.811112e-01  1.250385e-01  1.476012e-01
   outer loop
     vertex -3.228760e+02  6.174354e+02 -3.051032e+02
     vertex -3.193072e+02  6.211177e+02 -3.319446e+02
     vertex -3.194645e+02  6.222014e+02 -3.318169e+02
   endloop
 endfacet
 facet normal  9.811112e-01  1.250385e-01  1.476012e-01
   outer loop
     vertex -3.228760e+02  6.174354e+02 -3.051032e+02
     vertex -3.194645e+02  6.222014e+02 -3.318169e+02
     vertex -3.230333e+02  6.185191e+02 -3.049755e+02
   endloop
 endfacet
 facet normal  9.753196e-01  1.604442e-01  1.516884e-01
   outer loop
     vertex -3.226797e+02  6.163575e+02 -3.052250e+02
     vertex -3.191109e+02  6.200398e+02 -3.320664e+02
     vertex -3.193072e+02  6.211177e+02 -3.319446e+02
   endloop
 endfacet
 facet normal  9.753196e-01  1.604442e-01  1.516884e-01
   outer loop
     vertex -3.226797e+02  6.163575e+02 -3.052250e+02
     vertex -3.193072e+02  6.211177e+02 -3.319446e+02
     vertex -3.228760e+02  6.174354e+02 -3.051032e+02
   endloop
 endfacet
 facet normal  9.599306e-01  2.305821e-01  1.592643e-01
   outer loop
     vertex -3.224448e+02  6.152866e+02 -3.053407e+02
     vertex -3.186026e+02  6.179066e+02 -3.322915e+02
     vertex -3.188760e+02  6.189689e+02 -3.321821e+02
   endloop
 endfacet
 facet normal  9.682563e-01  1.956406e-01  1.555777e-01
   outer loop
     vertex -3.224448e+02  6.152866e+02 -3.053407e+02
     vertex -3.188760e+02  6.189689e+02 -3.321821e+02
     vertex -3.191109e+02  6.200398e+02 -3.320664e+02
   endloop
 endfacet
 facet normal  9.682563e-01  1.956406e-01  1.555777e-01
   outer loop
     vertex -3.224448e+02  6.152866e+02 -3.053407e+02
     vertex -3.191109e+02  6.200398e+02 -3.320664e+02
     vertex -3.226797e+02  6.163575e+02 -3.052250e+02
   endloop
 endfacet
 facet normal  9.599306e-01  2.305821e-01  1.592643e-01
   outer loop
     vertex -3.221714e+02  6.142243e+02 -3.054501e+02
     vertex -3.186026e+02  6.179066e+02 -3.322915e+02
     vertex -3.224448e+02  6.152866e+02 -3.053407e+02
   endloop
 endfacet
 facet normal  9.503534e-01  2.652228e-01  1.627432e-01
   outer loop
     vertex -3.218601e+02  6.131718e+02 -3.055531e+02
     vertex -3.182913e+02  6.168541e+02 -3.323944e+02
     vertex -3.186026e+02  6.179066e+02 -3.322915e+02
   endloop
 endfacet
 facet normal  9.503534e-01  2.652228e-01  1.627432e-01
   outer loop
     vertex -3.218601e+02  6.131718e+02 -3.055531e+02
     vertex -3.186026e+02  6.179066e+02 -3.322915e+02
     vertex -3.221714e+02  6.142243e+02 -3.054501e+02
   endloop
 endfacet
 facet normal  9.395370e-01  2.995178e-01  1.660099e-01
   outer loop
     vertex -3.215111e+02  6.121305e+02 -3.056495e+02
     vertex -3.179423e+02  6.158128e+02 -3.324909e+02
     vertex -3.182913e+02  6.168541e+02 -3.323944e+02
   endloop
 endfacet
 facet normal  9.395370e-01  2.995178e-01  1.660099e-01
   outer loop
     vertex -3.215111e+02  6.121305e+02 -3.056495e+02
     vertex -3.182913e+02  6.168541e+02 -3.323944e+02
     vertex -3.218601e+02  6.131718e+02 -3.055531e+02
   endloop
 endfacet
 facet normal  9.274957e-01  3.334222e-01  1.690601e-01
   outer loop
     vertex -3.211249e+02  6.111018e+02 -3.057393e+02
     vertex -3.175561e+02  6.147841e+02 -3.325807e+02
     vertex -3.179423e+02  6.158128e+02 -3.324909e+02
   endloop
 endfacet
 facet normal  9.274957e-01  3.334222e-01  1.690601e-01
   outer loop
     vertex -3.211249e+02  6.111018e+02 -3.057393e+02
     vertex -3.179423e+02  6.158128e+02 -3.324909e+02
     vertex -3.215111e+02  6.121305e+02 -3.056495e+02
   endloop
 endfacet
 facet normal  9.142451e-01  3.668920e-01  1.718899e-01
   outer loop
     vertex -3.207021e+02  6.100871e+02 -3.058223e+02
     vertex -3.171333e+02  6.137694e+02 -3.326637e+02
     vertex -3.175561e+02  6.147841e+02 -3.325807e+02
   endloop
 endfacet
 facet normal  9.142451e-01  3.668920e-01  1.718899e-01
   outer loop
     vertex -3.207021e+02  6.100871e+02 -3.058223e+02
     vertex -3.175561e+02  6.147841e+02 -3.325807e+02
     vertex -3.211249e+02  6.111018e+02 -3.057393e+02
   endloop
 endfacet
 facet normal  8.998025e-01  3.998833e-01  1.744957e-01
   outer loop
     vertex -3.202432e+02  6.090877e+02 -3.058984e+02
     vertex -3.171333e+02  6.137694e+02 -3.326637e+02
     vertex -3.207021e+02  6.100871e+02 -3.058223e+02
   endloop
 endfacet
 facet normal  8.841868e-01  4.323533e-01  1.768739e-01
   outer loop
     vertex -3.202432e+02  6.090877e+02 -3.058984e+02
     vertex -3.161799e+02  6.117871e+02 -3.328089e+02
     vertex -3.166744e+02  6.127700e+02 -3.327398e+02
   endloop
 endfacet
 facet normal  8.998025e-01  3.998833e-01  1.744957e-01
   outer loop
     vertex -3.202432e+02  6.090877e+02 -3.058984e+02
     vertex -3.166744e+02  6.127700e+02 -3.327398e+02
     vertex -3.171333e+02  6.137694e+02 -3.326637e+02
   endloop
 endfacet
 facet normal  8.841868e-01  4.323533e-01  1.768739e-01
   outer loop
     vertex -3.197487e+02  6.081048e+02 -3.059675e+02
     vertex -3.161799e+02  6.117871e+02 -3.328089e+02
     vertex -3.202432e+02  6.090877e+02 -3.058984e+02
   endloop
 endfacet
 facet normal  8.674182e-01  4.642596e-01  1.790215e-01
   outer loop
     vertex -3.192194e+02  6.071397e+02 -3.060295e+02
     vertex -3.161799e+02  6.117871e+02 -3.328089e+02
     vertex -3.197487e+02  6.081048e+02 -3.059675e+02
   endloop
 endfacet
 facet normal  8.674182e-01  4.642596e-01  1.790215e-01
   outer loop
     vertex -3.192194e+02  6.071397e+02 -3.060295e+02
     vertex -3.156506e+02  6.108220e+02 -3.328709e+02
     vertex -3.161799e+02  6.117871e+02 -3.328089e+02
   endloop
 endfacet
 facet normal  8.495187e-01  4.955606e-01  1.809357e-01
   outer loop
     vertex -3.186559e+02  6.061938e+02 -3.060844e+02
     vertex -3.156506e+02  6.108220e+02 -3.328709e+02
     vertex -3.192194e+02  6.071397e+02 -3.060295e+02
   endloop
 endfacet
 facet normal  8.305115e-01  5.262155e-01  1.826140e-01
   outer loop
     vertex -3.186559e+02  6.061938e+02 -3.060844e+02
     vertex -3.144902e+02  6.089505e+02 -3.329733e+02
     vertex -3.150871e+02  6.098761e+02 -3.329257e+02
   endloop
 endfacet
 facet normal  8.495187e-01  4.955606e-01  1.809357e-01
   outer loop
     vertex -3.186559e+02  6.061938e+02 -3.060844e+02
     vertex -3.150871e+02  6.098761e+02 -3.329257e+02
     vertex -3.156506e+02  6.108220e+02 -3.328709e+02
   endloop
 endfacet
 facet normal  8.305115e-01  5.262155e-01  1.826140e-01
   outer loop
     vertex -3.180590e+02  6.052682e+02 -3.061320e+02
     vertex -3.144902e+02  6.089505e+02 -3.329733e+02
     vertex -3.186559e+02  6.061938e+02 -3.060844e+02
   endloop
 endfacet
 facet normal  8.104216e-01  5.561843e-01  1.840541e-01
   outer loop
     vertex -3.174294e+02  6.043642e+02 -3.061723e+02
     vertex -3.138606e+02  6.080464e+02 -3.330136e+02
     vertex -3.144902e+02  6.089505e+02 -3.329733e+02
   endloop
 endfacet
 facet normal  8.104216e-01  5.561843e-01  1.840541e-01
   outer loop
     vertex -3.174294e+02  6.043642e+02 -3.061723e+02
     vertex -3.144902e+02  6.089505e+02 -3.329733e+02
     vertex -3.180590e+02  6.052682e+02 -3.061320e+02
   endloop
 endfacet
 facet normal  7.670993e-01  6.139083e-01  1.862131e-01
   outer loop
     vertex -3.167680e+02  6.034828e+02 -3.062052e+02
     vertex -3.125068e+02  6.063077e+02 -3.330722e+02
     vertex -3.131992e+02  6.071651e+02 -3.330466e+02
   endloop
 endfacet
 facet normal  7.892750e-01  5.854279e-01  1.852544e-01
   outer loop
     vertex -3.167680e+02  6.034828e+02 -3.062052e+02
     vertex -3.131992e+02  6.071651e+02 -3.330466e+02
     vertex -3.138606e+02  6.080464e+02 -3.330136e+02
   endloop
 endfacet
 facet normal  7.892750e-01  5.854279e-01  1.852544e-01
   outer loop
     vertex -3.167680e+02  6.034828e+02 -3.062052e+02
     vertex -3.138606e+02  6.080464e+02 -3.330136e+02
     vertex -3.174294e+02  6.043642e+02 -3.061723e+02
   endloop
 endfacet
 facet normal  7.670993e-01  6.139083e-01  1.862131e-01
   outer loop
     vertex -3.160756e+02  6.026254e+02 -3.062308e+02
     vertex -3.125068e+02  6.063077e+02 -3.330722e+02
     vertex -3.167680e+02  6.034828e+02 -3.062052e+02
   endloop
 endfacet
 facet normal  7.439235e-01  6.415882e-01  1.869290e-01
   outer loop
     vertex -3.153531e+02  6.017929e+02 -3.062490e+02
     vertex -3.117843e+02  6.054752e+02 -3.330903e+02
     vertex -3.125068e+02  6.063077e+02 -3.330722e+02
   endloop
 endfacet
 facet normal  7.439235e-01  6.415882e-01  1.869290e-01
   outer loop
     vertex -3.153531e+02  6.017929e+02 -3.062490e+02
     vertex -3.125068e+02  6.063077e+02 -3.330722e+02
     vertex -3.160756e+02  6.026254e+02 -3.062308e+02
   endloop
 endfacet
 facet normal  6.946935e-01  6.944035e-01  1.876290e-01
   outer loop
     vertex -3.146014e+02  6.009865e+02 -3.062596e+02
     vertex -3.102528e+02  6.038896e+02 -3.331042e+02
     vertex -3.110326e+02  6.046688e+02 -3.331010e+02
   endloop
 endfacet
 facet normal  7.197777e-01  6.684316e-01  1.874011e-01
   outer loop
     vertex -3.146014e+02  6.009865e+02 -3.062596e+02
     vertex -3.110326e+02  6.046688e+02 -3.331010e+02
     vertex -3.117843e+02  6.054752e+02 -3.330903e+02
   endloop
 endfacet
 facet normal  7.197777e-01  6.684316e-01  1.874011e-01
   outer loop
     vertex -3.146014e+02  6.009865e+02 -3.062596e+02
     vertex -3.117843e+02  6.054752e+02 -3.330903e+02
     vertex -3.153531e+02  6.017929e+02 -3.062490e+02
   endloop
 endfacet
 facet normal  6.946935e-01  6.944035e-01  1.876290e-01
   outer loop
     vertex -3.138216e+02  6.002073e+02 -3.062629e+02
     vertex -3.102528e+02  6.038896e+02 -3.331042e+02
     vertex -3.146014e+02  6.009865e+02 -3.062596e+02
   endloop
 endfacet
 facet normal  6.687036e-01  7.194701e-01  1.876122e-01
   outer loop
     vertex -3.130147e+02  5.994562e+02 -3.062586e+02
     vertex -3.094459e+02  6.031385e+02 -3.331000e+02
     vertex -3.102528e+02  6.038896e+02 -3.331042e+02
   endloop
 endfacet
 facet normal  6.687036e-01  7.194701e-01  1.876122e-01
   outer loop
     vertex -3.130147e+02  5.994562e+02 -3.062586e+02
     vertex -3.102528e+02  6.038896e+02 -3.331042e+02
     vertex -3.138216e+02  6.002073e+02 -3.062629e+02
   endloop
 endfacet
 facet normal  6.141431e-01  7.667575e-01  1.868451e-01
   outer loop
     vertex -3.121817e+02  5.987342e+02 -3.062469e+02
     vertex -3.077548e+02  6.017246e+02 -3.330691e+02
     vertex -3.086129e+02  6.024165e+02 -3.330883e+02
   endloop
 endfacet
 facet normal  6.418418e-01  7.435986e-01  1.873508e-01
   outer loop
     vertex -3.121817e+02  5.987342e+02 -3.062469e+02
     vertex -3.086129e+02  6.024165e+02 -3.330883e+02
     vertex -3.094459e+02  6.031385e+02 -3.331000e+02
   endloop
 endfacet
 facet normal  6.418418e-01  7.435986e-01  1.873508e-01
   outer loop
     vertex -3.121817e+02  5.987342e+02 -3.062469e+02
     vertex -3.094459e+02  6.031385e+02 -3.331000e+02
     vertex -3.130147e+02  5.994562e+02 -3.062586e+02
   endloop
 endfacet
 facet normal  6.141431e-01  7.667575e-01  1.868451e-01
   outer loop
     vertex -3.113236e+02  5.980423e+02 -3.062277e+02
     vertex -3.077548e+02  6.017246e+02 -3.330691e+02
     vertex -3.121817e+02  5.987342e+02 -3.062469e+02
   endloop
 endfacet
 facet normal  5.856437e-01  7.889168e-01  1.860958e-01
   outer loop
     vertex -3.104417e+02  5.973814e+02 -3.062012e+02
     vertex -3.068729e+02  6.010636e+02 -3.330425e+02
     vertex -3.077548e+02  6.017246e+02 -3.330691e+02
   endloop
 endfacet
 facet normal  5.856437e-01  7.889168e-01  1.860958e-01
   outer loop
     vertex -3.104417e+02  5.973814e+02 -3.062012e+02
     vertex -3.077548e+02  6.017246e+02 -3.330691e+02
     vertex -3.113236e+02  5.980423e+02 -3.062277e+02
   endloop
 endfacet
 facet normal  5.263924e-01  8.301220e-01  1.838707e-01
   outer loop
     vertex -3.095371e+02  5.967522e+02 -3.061672e+02
     vertex -3.050421e+02  5.998381e+02 -3.329672e+02
     vertex -3.059683e+02  6.004345e+02 -3.330085e+02
   endloop
 endfacet
 facet normal  5.563808e-01  8.100475e-01  1.851039e-01
   outer loop
     vertex -3.095371e+02  5.967522e+02 -3.061672e+02
     vertex -3.059683e+02  6.004345e+02 -3.330085e+02
     vertex -3.068729e+02  6.010636e+02 -3.330425e+02
   endloop
 endfacet
 facet normal  5.563808e-01  8.100475e-01  1.851039e-01
   outer loop
     vertex -3.095371e+02  5.967522e+02 -3.061672e+02
     vertex -3.068729e+02  6.010636e+02 -3.330425e+02
     vertex -3.104417e+02  5.973814e+02 -3.062012e+02
   endloop
 endfacet
 facet normal  5.263924e-01  8.301220e-01  1.838707e-01
   outer loop
     vertex -3.086109e+02  5.961558e+02 -3.061259e+02
     vertex -3.050421e+02  5.998381e+02 -3.329672e+02
     vertex -3.095371e+02  5.967522e+02 -3.061672e+02
   endloop
 endfacet
 facet normal  4.957178e-01  8.491142e-01  1.823977e-01
   outer loop
     vertex -3.076644e+02  5.955927e+02 -3.060773e+02
     vertex -3.040956e+02  5.992750e+02 -3.329186e+02
     vertex -3.050421e+02  5.998381e+02 -3.329672e+02
   endloop
 endfacet
 facet normal  4.957178e-01  8.491142e-01  1.823977e-01
   outer loop
     vertex -3.076644e+02  5.955927e+02 -3.060773e+02
     vertex -3.050421e+02  5.998381e+02 -3.329672e+02
     vertex -3.086109e+02  5.961558e+02 -3.061259e+02
   endloop
 endfacet
 facet normal  4.643968e-01  8.669994e-01  1.806869e-01
   outer loop
     vertex -3.066987e+02  5.950639e+02 -3.060214e+02
     vertex -3.031299e+02  5.987461e+02 -3.328628e+02
     vertex -3.040956e+02  5.992750e+02 -3.329186e+02
   endloop
 endfacet
 facet normal  4.643968e-01  8.669994e-01  1.806869e-01
   outer loop
     vertex -3.066987e+02  5.950639e+02 -3.060214e+02
     vertex -3.040956e+02  5.992750e+02 -3.329186e+02
     vertex -3.076644e+02  5.955927e+02 -3.060773e+02
   endloop
 endfacet
 facet normal  4.324703e-01  8.837541e-01  1.787405e-01
   outer loop
     vertex -3.057152e+02  5.945698e+02 -3.059584e+02
     vertex -3.021464e+02  5.982521e+02 -3.327998e+02
     vertex -3.031299e+02  5.987461e+02 -3.328628e+02
   endloop
 endfacet
 facet normal  4.324703e-01  8.837541e-01  1.787405e-01
   outer loop
     vertex -3.057152e+02  5.945698e+02 -3.059584e+02
     vertex -3.031299e+02  5.987461e+02 -3.328628e+02
     vertex -3.066987e+02  5.950639e+02 -3.060214e+02
   endloop
 endfacet
 facet normal  3.999800e-01  8.993566e-01  1.765611e-01
   outer loop
     vertex -3.047151e+02  5.941113e+02 -3.058884e+02
     vertex -3.011463e+02  5.977936e+02 -3.327297e+02
     vertex -3.021464e+02  5.982521e+02 -3.327998e+02
   endloop
 endfacet
 facet normal  3.999800e-01  8.993566e-01  1.765611e-01
   outer loop
     vertex -3.047151e+02  5.941113e+02 -3.058884e+02
     vertex -3.021464e+02  5.982521e+02 -3.327998e+02
     vertex -3.057152e+02  5.945698e+02 -3.059584e+02
   endloop
 endfacet
 facet normal  3.669681e-01  9.137864e-01  1.741515e-01
   outer loop
     vertex -3.047151e+02  5.941113e+02 -3.058884e+02
     vertex -3.001310e+02  5.973712e+02 -3.326527e+02
     vertex -3.011463e+02  5.977936e+02 -3.327297e+02
   endloop
 endfacet
 facet normal  3.669681e-01  9.137864e-01  1.741515e-01
   outer loop
     vertex -3.036998e+02  5.936889e+02 -3.058113e+02
     vertex -3.001310e+02  5.973712e+02 -3.326527e+02
     vertex -3.047151e+02  5.941113e+02 -3.058884e+02
   endloop
 endfacet
 facet normal  3.334778e-01  9.270249e-01  1.715148e-01
   outer loop
     vertex -3.026705e+02  5.933031e+02 -3.057274e+02
     vertex -3.001310e+02  5.973712e+02 -3.326527e+02
     vertex -3.036998e+02  5.936889e+02 -3.058113e+02
   endloop
 endfacet
 facet normal  2.995527e-01  9.390547e-01  1.686545e-01
   outer loop
     vertex -3.026705e+02  5.933031e+02 -3.057274e+02
     vertex -2.980598e+02  5.966367e+02 -3.324780e+02
     vertex -2.991017e+02  5.969854e+02 -3.325687e+02
   endloop
 endfacet
 facet normal  3.334778e-01  9.270249e-01  1.715148e-01
   outer loop
     vertex -3.026705e+02  5.933031e+02 -3.057274e+02
     vertex -2.991017e+02  5.969854e+02 -3.325687e+02
     vertex -3.001310e+02  5.973712e+02 -3.326527e+02
   endloop
 endfacet
 facet normal  2.995527e-01  9.390547e-01  1.686545e-01
   outer loop
     vertex -3.016286e+02  5.929544e+02 -3.056367e+02
     vertex -2.980598e+02  5.966367e+02 -3.324780e+02
     vertex -3.026705e+02  5.933031e+02 -3.057274e+02
   endloop
 endfacet
 facet normal  2.652371e-01  9.498602e-01  1.655743e-01
   outer loop
     vertex -3.016286e+02  5.929544e+02 -3.056367e+02
     vertex -2.970066e+02  5.963257e+02 -3.323807e+02
     vertex -2.980598e+02  5.966367e+02 -3.324780e+02
   endloop
 endfacet
 facet normal  2.305756e-01  9.594273e-01  1.622782e-01
   outer loop
     vertex -3.005754e+02  5.926434e+02 -3.055393e+02
     vertex -2.959436e+02  5.960526e+02 -3.322768e+02
     vertex -2.970066e+02  5.963257e+02 -3.323807e+02
   endloop
 endfacet
 facet normal  2.652371e-01  9.498602e-01  1.655743e-01
   outer loop
     vertex -3.005754e+02  5.926434e+02 -3.055393e+02
     vertex -2.970066e+02  5.963257e+02 -3.323807e+02
     vertex -3.016286e+02  5.929544e+02 -3.056367e+02
   endloop
 endfacet
 facet normal  2.305756e-01  9.594273e-01  1.622782e-01
   outer loop
     vertex -2.995124e+02  5.923703e+02 -3.054355e+02
     vertex -2.959436e+02  5.960526e+02 -3.322768e+02
     vertex -3.005754e+02  5.926434e+02 -3.055393e+02
   endloop
 endfacet
 facet normal  1.956136e-01  9.677434e-01  1.587705e-01
   outer loop
     vertex -2.984410e+02  5.921357e+02 -3.053252e+02
     vertex -2.959436e+02  5.960526e+02 -3.322768e+02
     vertex -2.995124e+02  5.923703e+02 -3.054355e+02
   endloop
 endfacet
 facet normal  1.956136e-01  9.677434e-01  1.587705e-01
   outer loop
     vertex -2.984410e+02  5.921357e+02 -3.053252e+02
     vertex -2.948722e+02  5.958180e+02 -3.321665e+02
     vertex -2.959436e+02  5.960526e+02 -3.322768e+02
   endloop
 endfacet
 facet normal  1.603964e-01  9.747978e-01  1.550559e-01
   outer loop
     vertex -2.973624e+02  5.919397e+02 -3.052087e+02
     vertex -2.948722e+02  5.958180e+02 -3.321665e+02
     vertex -2.984410e+02  5.921357e+02 -3.053252e+02
   endloop
 endfacet
 facet normal  1.603964e-01  9.747978e-01  1.550559e-01
   outer loop
     vertex -2.973624e+02  5.919397e+02 -3.052087e+02
     vertex -2.937936e+02  5.956219e+02 -3.320500e+02
     vertex -2.948722e+02  5.958180e+02 -3.321665e+02
   endloop
 endfacet
 facet normal  1.249702e-01  9.805812e-01  1.511390e-01
   outer loop
     vertex -2.962781e+02  5.917826e+02 -3.050861e+02
     vertex -2.937936e+02  5.956219e+02 -3.320500e+02
     vertex -2.973624e+02  5.919397e+02 -3.052087e+02
   endloop
 endfacet
 facet normal  8.938097e-02  9.850861e-01  1.470252e-01
   outer loop
     vertex -2.962781e+02  5.917826e+02 -3.050861e+02
     vertex -2.916208e+02  5.953469e+02 -3.317989e+02
     vertex -2.927093e+02  5.954649e+02 -3.319274e+02
   endloop
 endfacet
 facet normal  1.249702e-01  9.805812e-01  1.511390e-01
   outer loop
     vertex -2.962781e+02  5.917826e+02 -3.050861e+02
     vertex -2.927093e+02  5.954649e+02 -3.319274e+02
     vertex -2.937936e+02  5.956219e+02 -3.320500e+02
   endloop
 endfacet
 facet normal  8.938097e-02  9.850861e-01  1.470252e-01
   outer loop
     vertex -2.951896e+02  5.916646e+02 -3.049575e+02
     vertex -2.916208e+02  5.953469e+02 -3.317989e+02
     vertex -2.962781e+02  5.917826e+02 -3.050861e+02
   endloop
 endfacet
 facet normal  5.367524e-02  9.883067e-01  1.427196e-01
   outer loop
     vertex -2.951896e+02  5.916646e+02 -3.049575e+02
     vertex -2.905294e+02  5.952682e+02 -3.316646e+02
     vertex -2.916208e+02  5.953469e+02 -3.317989e+02
   endloop
 endfacet
 facet normal  5.367524e-02  9.883067e-01  1.427196e-01
   outer loop
     vertex -2.940982e+02  5.915860e+02 -3.048232e+02
     vertex -2.905294e+02  5.952682e+02 -3.316646e+02
     vertex -2.951896e+02  5.916646e+02 -3.049575e+02
   endloop
 endfacet
 facet normal  1.789953e-02  9.902387e-01  1.382279e-01
   outer loop
     vertex -2.930054e+02  5.915467e+02 -3.046833e+02
     vertex -2.905294e+02  5.952682e+02 -3.316646e+02
     vertex -2.940982e+02  5.915860e+02 -3.048232e+02
   endloop
 endfacet
 facet normal  1.789953e-02  9.902387e-01  1.382279e-01
   outer loop
     vertex -2.930054e+02  5.915467e+02 -3.046833e+02
     vertex -2.894366e+02  5.952290e+02 -3.315247e+02
     vertex -2.905294e+02  5.952682e+02 -3.316646e+02
   endloop
 endfacet
endsolid
