solid 
 facet normal  5.084039e-01 -9.122464e-02  8.562730e-01
   outer loop
     vertex -2.301958e+02  6.765830e+02 -5.574659e+02
     vertex -2.388837e+02  6.763116e+02 -5.523364e+02
     vertex -2.389265e+02  6.744869e+02 -5.525054e+02
   endloop
 endfacet
 facet normal  5.084039e-01 -9.122464e-02  8.562730e-01
   outer loop
     vertex -2.302386e+02  6.747582e+02 -5.576349e+02
     vertex -2.301958e+02  6.765830e+02 -5.574659e+02
     vertex -2.389265e+02  6.744869e+02 -5.525054e+02
   endloop
 endfacet
endsolid
