solid 
 facet normal  9.972817e-01 -1.853930e-02  7.131251e-02
   outer loop
     vertex -2.443319e+02  6.418006e+02 -4.861044e+02
     vertex -2.498465e+02  6.368852e+02 -4.102634e+02
     vertex -2.498612e+02  6.358258e+02 -4.103331e+02
   endloop
 endfacet
 facet normal  9.960787e-01 -5.559235e-02  6.882424e-02
   outer loop
     vertex -2.443467e+02  6.407384e+02 -4.861744e+02
     vertex -2.498612e+02  6.358258e+02 -4.103331e+02
     vertex -2.499152e+02  6.347680e+02 -4.104056e+02
   endloop
 endfacet
 facet normal  9.972811e-01 -1.858851e-02  7.130859e-02
   outer loop
     vertex -2.443467e+02  6.407384e+02 -4.861744e+02
     vertex -2.443319e+02  6.418006e+02 -4.861044e+02
     vertex -2.498612e+02  6.358258e+02 -4.103331e+02
   endloop
 endfacet
 facet normal  9.935005e-01 -9.256865e-02  6.624096e-02
   outer loop
     vertex -2.444011e+02  6.396778e+02 -4.862470e+02
     vertex -2.499152e+02  6.347680e+02 -4.104056e+02
     vertex -2.500085e+02  6.337130e+02 -4.104807e+02
   endloop
 endfacet
 facet normal  9.960713e-01 -5.573978e-02  6.881208e-02
   outer loop
     vertex -2.444011e+02  6.396778e+02 -4.862470e+02
     vertex -2.443467e+02  6.407384e+02 -4.861744e+02
     vertex -2.499152e+02  6.347680e+02 -4.104056e+02
   endloop
 endfacet
 facet normal  9.895507e-01 -1.294172e-01  6.356622e-02
   outer loop
     vertex -2.444949e+02  6.386200e+02 -4.863224e+02
     vertex -2.500085e+02  6.337130e+02 -4.104807e+02
     vertex -2.501409e+02  6.326624e+02 -4.105585e+02
   endloop
 endfacet
 facet normal  9.934790e-01 -9.281369e-02  6.622008e-02
   outer loop
     vertex -2.444949e+02  6.386200e+02 -4.863224e+02
     vertex -2.444011e+02  6.396778e+02 -4.862470e+02
     vertex -2.500085e+02  6.337130e+02 -4.104807e+02
   endloop
 endfacet
 facet normal  9.842347e-01 -1.660870e-01  6.080372e-02
   outer loop
     vertex -2.446280e+02  6.375667e+02 -4.864004e+02
     vertex -2.501409e+02  6.326624e+02 -4.105585e+02
     vertex -2.503122e+02  6.316177e+02 -4.106386e+02
   endloop
 endfacet
 facet normal  9.895079e-01 -1.297588e-01  6.353616e-02
   outer loop
     vertex -2.446280e+02  6.375667e+02 -4.864004e+02
     vertex -2.444949e+02  6.386200e+02 -4.863224e+02
     vertex -2.501409e+02  6.326624e+02 -4.105585e+02
   endloop
 endfacet
 facet normal  9.775600e-01 -2.025275e-01  5.795728e-02
   outer loop
     vertex -2.448002e+02  6.365193e+02 -4.864808e+02
     vertex -2.503122e+02  6.316177e+02 -4.106386e+02
     vertex -2.505223e+02  6.305802e+02 -4.107211e+02
   endloop
 endfacet
 facet normal  9.841634e-01 -1.665238e-01  6.076407e-02
   outer loop
     vertex -2.448002e+02  6.365193e+02 -4.864808e+02
     vertex -2.446280e+02  6.375667e+02 -4.864004e+02
     vertex -2.503122e+02  6.316177e+02 -4.106386e+02
   endloop
 endfacet
 facet normal  9.774530e-01 -2.030577e-01  5.790763e-02
   outer loop
     vertex -2.450114e+02  6.354792e+02 -4.865635e+02
     vertex -2.448002e+02  6.365193e+02 -4.864808e+02
     vertex -2.505223e+02  6.305802e+02 -4.107211e+02
   endloop
 endfacet
 facet normal  9.695357e-01 -2.386885e-01  5.503082e-02
   outer loop
     vertex -2.450114e+02  6.354792e+02 -4.865635e+02
     vertex -2.505223e+02  6.305802e+02 -4.107211e+02
     vertex -2.507708e+02  6.295515e+02 -4.108059e+02
   endloop
 endfacet
 facet normal  9.693859e-01 -2.393097e-01  5.497083e-02
   outer loop
     vertex -2.452612e+02  6.344478e+02 -4.866486e+02
     vertex -2.450114e+02  6.354792e+02 -4.865635e+02
     vertex -2.507708e+02  6.295515e+02 -4.108059e+02
   endloop
 endfacet
 facet normal  9.601728e-01 -2.745199e-01  5.202839e-02
   outer loop
     vertex -2.452612e+02  6.344478e+02 -4.866486e+02
     vertex -2.507708e+02  6.295515e+02 -4.108059e+02
     vertex -2.510573e+02  6.285328e+02 -4.108927e+02
   endloop
 endfacet
 facet normal  9.599735e-01 -2.752296e-01  5.195772e-02
   outer loop
     vertex -2.455492e+02  6.334267e+02 -4.867357e+02
     vertex -2.452612e+02  6.344478e+02 -4.866486e+02
     vertex -2.510573e+02  6.285328e+02 -4.108927e+02
   endloop
 endfacet
 facet normal  9.494844e-01 -3.099723e-01  4.895414e-02
   outer loop
     vertex -2.455492e+02  6.334267e+02 -4.867357e+02
     vertex -2.510573e+02  6.285328e+02 -4.108927e+02
     vertex -2.513815e+02  6.275257e+02 -4.109816e+02
   endloop
 endfacet
 facet normal  9.374852e-01 -3.449968e-01  4.581231e-02
   outer loop
     vertex -2.458752e+02  6.324172e+02 -4.868248e+02
     vertex -2.513815e+02  6.275257e+02 -4.109816e+02
     vertex -2.517429e+02  6.265315e+02 -4.110723e+02
   endloop
 endfacet
 facet normal  9.492286e-01 -3.107675e-01  4.887250e-02
   outer loop
     vertex -2.458752e+02  6.324172e+02 -4.868248e+02
     vertex -2.455492e+02  6.334267e+02 -4.867357e+02
     vertex -2.513815e+02  6.275257e+02 -4.109816e+02
   endloop
 endfacet
 facet normal  9.241917e-01 -3.795450e-01  4.260723e-02
   outer loop
     vertex -2.462385e+02  6.314207e+02 -4.869158e+02
     vertex -2.517429e+02  6.265315e+02 -4.110723e+02
     vertex -2.521411e+02  6.255516e+02 -4.111648e+02
   endloop
 endfacet
 facet normal  9.371664e-01 -3.458741e-01  4.571945e-02
   outer loop
     vertex -2.462385e+02  6.314207e+02 -4.869158e+02
     vertex -2.458752e+02  6.324172e+02 -4.868248e+02
     vertex -2.517429e+02  6.265315e+02 -4.110723e+02
   endloop
 endfacet
 facet normal  9.096223e-01 -4.135692e-01  3.934334e-02
   outer loop
     vertex -2.466387e+02  6.304386e+02 -4.870086e+02
     vertex -2.521411e+02  6.255516e+02 -4.111648e+02
     vertex -2.525754e+02  6.245874e+02 -4.112588e+02
   endloop
 endfacet
 facet normal  9.238034e-01 -3.805007e-01  4.250293e-02
   outer loop
     vertex -2.466387e+02  6.304386e+02 -4.870086e+02
     vertex -2.462385e+02  6.314207e+02 -4.869158e+02
     vertex -2.521411e+02  6.255516e+02 -4.111648e+02
   endloop
 endfacet
 facet normal  8.937970e-01 -4.470224e-01  3.602514e-02
   outer loop
     vertex -2.470753e+02  6.294723e+02 -4.871029e+02
     vertex -2.525754e+02  6.245874e+02 -4.112588e+02
     vertex -2.530453e+02  6.236401e+02 -4.113544e+02
   endloop
 endfacet
 facet normal  9.091583e-01 -4.145991e-01  3.922742e-02
   outer loop
     vertex -2.470753e+02  6.294723e+02 -4.871029e+02
     vertex -2.466387e+02  6.304386e+02 -4.870086e+02
     vertex -2.525754e+02  6.245874e+02 -4.112588e+02
   endloop
 endfacet
 facet normal  8.767379e-01 -4.798585e-01  3.265721e-02
   outer loop
     vertex -2.475477e+02  6.285231e+02 -4.871988e+02
     vertex -2.530453e+02  6.236401e+02 -4.113544e+02
     vertex -2.535502e+02  6.227111e+02 -4.114513e+02
   endloop
 endfacet
 facet normal  8.932513e-01 -4.481221e-01  3.589745e-02
   outer loop
     vertex -2.475477e+02  6.285231e+02 -4.871988e+02
     vertex -2.470753e+02  6.294723e+02 -4.871029e+02
     vertex -2.530453e+02  6.236401e+02 -4.113544e+02
   endloop
 endfacet
 facet normal  8.584683e-01 -5.120321e-01  2.924420e-02
   outer loop
     vertex -2.480551e+02  6.275923e+02 -4.872960e+02
     vertex -2.535502e+02  6.227111e+02 -4.114513e+02
     vertex -2.540893e+02  6.218017e+02 -4.115495e+02
   endloop
 endfacet
 facet normal  8.761046e-01 -4.810232e-01  3.251766e-02
   outer loop
     vertex -2.480551e+02  6.275923e+02 -4.872960e+02
     vertex -2.475477e+02  6.285231e+02 -4.871988e+02
     vertex -2.535502e+02  6.227111e+02 -4.114513e+02
   endloop
 endfacet
 facet normal  8.390136e-01 -5.434989e-01  2.579083e-02
   outer loop
     vertex -2.485969e+02  6.266813e+02 -4.873945e+02
     vertex -2.540893e+02  6.218017e+02 -4.115495e+02
     vertex -2.546618e+02  6.209131e+02 -4.116487e+02
   endloop
 endfacet
 facet normal  8.577419e-01 -5.132567e-01  2.909272e-02
   outer loop
     vertex -2.485969e+02  6.266813e+02 -4.873945e+02
     vertex -2.480551e+02  6.275923e+02 -4.872960e+02
     vertex -2.540893e+02  6.218017e+02 -4.115495e+02
   endloop
 endfacet
 facet normal  8.184006e-01 -5.742152e-01  2.230187e-02
   outer loop
     vertex -2.491724e+02  6.257912e+02 -4.874940e+02
     vertex -2.546618e+02  6.209131e+02 -4.116487e+02
     vertex -2.552671e+02  6.200466e+02 -4.117488e+02
   endloop
 endfacet
 facet normal  8.381888e-01 -5.447778e-01  2.562740e-02
   outer loop
     vertex -2.491724e+02  6.257912e+02 -4.874940e+02
     vertex -2.485969e+02  6.266813e+02 -4.873945e+02
     vertex -2.546618e+02  6.209131e+02 -4.116487e+02
   endloop
 endfacet
 facet normal  7.966577e-01 -6.041389e-01  1.878212e-02
   outer loop
     vertex -2.497806e+02  6.249234e+02 -4.875945e+02
     vertex -2.552671e+02  6.200466e+02 -4.117488e+02
     vertex -2.559042e+02  6.192033e+02 -4.118498e+02
   endloop
 endfacet
 facet normal  8.174723e-01 -5.755427e-01  2.212650e-02
   outer loop
     vertex -2.497806e+02  6.249234e+02 -4.875945e+02
     vertex -2.491724e+02  6.257912e+02 -4.874940e+02
     vertex -2.552671e+02  6.200466e+02 -4.117488e+02
   endloop
 endfacet
 facet normal  7.738149e-01 -6.332285e-01  1.523646e-02
   outer loop
     vertex -2.504209e+02  6.240789e+02 -4.876958e+02
     vertex -2.559042e+02  6.192033e+02 -4.118498e+02
     vertex -2.565723e+02  6.183844e+02 -4.119515e+02
   endloop
 endfacet
 facet normal  7.956213e-01 -6.055089e-01  1.859487e-02
   outer loop
     vertex -2.504209e+02  6.240789e+02 -4.876958e+02
     vertex -2.497806e+02  6.249234e+02 -4.875945e+02
     vertex -2.559042e+02  6.192033e+02 -4.118498e+02
   endloop
 endfacet
 facet normal  7.499039e-01 -6.614439e-01  1.166977e-02
   outer loop
     vertex -2.510923e+02  6.232591e+02 -4.877977e+02
     vertex -2.565723e+02  6.183844e+02 -4.119515e+02
     vertex -2.572705e+02  6.175910e+02 -4.120537e+02
   endloop
 endfacet
 facet normal  7.726659e-01 -6.346347e-01  1.503742e-02
   outer loop
     vertex -2.510923e+02  6.232591e+02 -4.877977e+02
     vertex -2.504209e+02  6.240789e+02 -4.876958e+02
     vertex -2.565723e+02  6.183844e+02 -4.119515e+02
   endloop
 endfacet
 facet normal  7.249575e-01 -6.887461e-01  8.086986e-03
   outer loop
     vertex -2.517939e+02  6.224650e+02 -4.879002e+02
     vertex -2.572705e+02  6.175910e+02 -4.120537e+02
     vertex -2.579977e+02  6.168243e+02 -4.121562e+02
   endloop
 endfacet
 facet normal  7.486382e-01 -6.628797e-01  1.145909e-02
   outer loop
     vertex -2.517939e+02  6.224650e+02 -4.879002e+02
     vertex -2.510923e+02  6.232591e+02 -4.877977e+02
     vertex -2.572705e+02  6.175910e+02 -4.120537e+02
   endloop
 endfacet
 facet normal  6.990103e-01 -7.150974e-01  4.493052e-03
   outer loop
     vertex -2.525246e+02  6.216978e+02 -4.880030e+02
     vertex -2.579977e+02  6.168243e+02 -4.121562e+02
     vertex -2.587531e+02  6.160853e+02 -4.122591e+02
   endloop
 endfacet
 facet normal  7.235715e-01 -6.902046e-01  7.864844e-03
   outer loop
     vertex -2.525246e+02  6.216978e+02 -4.880030e+02
     vertex -2.517939e+02  6.224650e+02 -4.879002e+02
     vertex -2.579977e+02  6.168243e+02 -4.121562e+02
   endloop
 endfacet
 facet normal  6.720981e-01 -7.404616e-01  8.929301e-04
   outer loop
     vertex -2.532836e+02  6.209584e+02 -4.881061e+02
     vertex -2.587531e+02  6.160853e+02 -4.122591e+02
     vertex -2.595355e+02  6.153750e+02 -4.123620e+02
   endloop
 endfacet
 facet normal  6.975005e-01 -7.165716e-01  4.259664e-03
   outer loop
     vertex -2.532836e+02  6.209584e+02 -4.881061e+02
     vertex -2.525246e+02  6.216978e+02 -4.880030e+02
     vertex -2.587531e+02  6.160853e+02 -4.122591e+02
   endloop
 endfacet
 facet normal  6.442580e-01 -7.648034e-01 -2.708409e-03
   outer loop
     vertex -2.540696e+02  6.202480e+02 -4.882094e+02
     vertex -2.595355e+02  6.153750e+02 -4.123620e+02
     vertex -2.603439e+02  6.146944e+02 -4.124649e+02
   endloop
 endfacet
 facet normal  6.704614e-01 -7.419441e-01  6.485563e-04
   outer loop
     vertex -2.540696e+02  6.202480e+02 -4.882094e+02
     vertex -2.532836e+02  6.209584e+02 -4.881061e+02
     vertex -2.595355e+02  6.153750e+02 -4.123620e+02
   endloop
 endfacet
 facet normal  6.155285e-01 -7.880894e-01 -6.305992e-03
   outer loop
     vertex -2.548818e+02  6.195675e+02 -4.883125e+02
     vertex -2.603439e+02  6.146944e+02 -4.124649e+02
     vertex -2.611771e+02  6.140445e+02 -4.125676e+02
   endloop
 endfacet
 facet normal  6.424918e-01 -7.662868e-01 -2.963469e-03
   outer loop
     vertex -2.548818e+02  6.195675e+02 -4.883125e+02
     vertex -2.540696e+02  6.202480e+02 -4.882094e+02
     vertex -2.603439e+02  6.146944e+02 -4.124649e+02
   endloop
 endfacet
 facet normal  5.859491e-01 -8.102874e-01 -9.894851e-03
   outer loop
     vertex -2.557188e+02  6.189178e+02 -4.884155e+02
     vertex -2.611771e+02  6.140445e+02 -4.125676e+02
     vertex -2.620341e+02  6.134260e+02 -4.126700e+02
   endloop
 endfacet
 facet normal  6.136305e-01 -7.895660e-01 -6.571399e-03
   outer loop
     vertex -2.557188e+02  6.189178e+02 -4.884155e+02
     vertex -2.548818e+02  6.195675e+02 -4.883125e+02
     vertex -2.611771e+02  6.140445e+02 -4.125676e+02
   endloop
 endfacet
 facet normal  5.555609e-01 -8.313668e-01 -1.347003e-02
   outer loop
     vertex -2.565796e+02  6.182999e+02 -4.885181e+02
     vertex -2.620341e+02  6.134260e+02 -4.126700e+02
     vertex -2.629135e+02  6.128400e+02 -4.127719e+02
   endloop
 endfacet
 facet normal  5.839175e-01 -8.117493e-01 -1.017023e-02
   outer loop
     vertex -2.565796e+02  6.182999e+02 -4.885181e+02
     vertex -2.557188e+02  6.189178e+02 -4.884155e+02
     vertex -2.620341e+02  6.134260e+02 -4.126700e+02
   endloop
 endfacet
 facet normal  5.244056e-01 -8.512983e-01 -1.702660e-02
   outer loop
     vertex -2.574629e+02  6.177146e+02 -4.886203e+02
     vertex -2.629135e+02  6.128400e+02 -4.127719e+02
     vertex -2.638143e+02  6.122871e+02 -4.128732e+02
   endloop
 endfacet
 facet normal  5.533941e-01 -8.328060e-01 -1.375496e-02
   outer loop
     vertex -2.574629e+02  6.177146e+02 -4.886203e+02
     vertex -2.565796e+02  6.182999e+02 -4.885181e+02
     vertex -2.629135e+02  6.128400e+02 -4.127719e+02
   endloop
 endfacet
 facet normal  4.925264e-01 -8.700546e-01 -2.055963e-02
   outer loop
     vertex -2.583676e+02  6.171628e+02 -4.887218e+02
     vertex -2.638143e+02  6.122871e+02 -4.128732e+02
     vertex -2.647351e+02  6.117682e+02 -4.129738e+02
   endloop
 endfacet
 facet normal  5.221026e-01 -8.527068e-01 -1.732062e-02
   outer loop
     vertex -2.583676e+02  6.171628e+02 -4.887218e+02
     vertex -2.574629e+02  6.177146e+02 -4.886203e+02
     vertex -2.638143e+02  6.122871e+02 -4.128732e+02
   endloop
 endfacet
 facet normal  4.599672e-01 -8.876098e-01 -2.406427e-02
   outer loop
     vertex -2.592923e+02  6.166451e+02 -4.888226e+02
     vertex -2.647351e+02  6.117682e+02 -4.129738e+02
     vertex -2.656747e+02  6.112840e+02 -4.130735e+02
   endloop
 endfacet
 facet normal  4.900865e-01 -8.714241e-01 -2.086226e-02
   outer loop
     vertex -2.592923e+02  6.166451e+02 -4.888226e+02
     vertex -2.583676e+02  6.171628e+02 -4.887218e+02
     vertex -2.647351e+02  6.117682e+02 -4.129738e+02
   endloop
 endfacet
 facet normal  4.267729e-01 -9.039395e-01 -2.753566e-02
   outer loop
     vertex -2.602358e+02  6.161624e+02 -4.889225e+02
     vertex -2.656747e+02  6.112840e+02 -4.130735e+02
     vertex -2.666318e+02  6.108352e+02 -4.131722e+02
   endloop
 endfacet
 facet normal  4.573902e-01 -8.889320e-01 -2.437497e-02
   outer loop
     vertex -2.602358e+02  6.161624e+02 -4.889225e+02
     vertex -2.592923e+02  6.166451e+02 -4.888226e+02
     vertex -2.656747e+02  6.112840e+02 -4.130735e+02
   endloop
 endfacet
 facet normal  4.240591e-01 -9.052061e-01 -2.785388e-02
   outer loop
     vertex -2.611969e+02  6.157152e+02 -4.890214e+02
     vertex -2.602358e+02  6.161624e+02 -4.889225e+02
     vertex -2.666318e+02  6.108352e+02 -4.131722e+02
   endloop
 endfacet
 facet normal  3.929895e-01 -9.190213e-01 -3.096901e-02
   outer loop
     vertex -2.611969e+02  6.157152e+02 -4.890214e+02
     vertex -2.666318e+02  6.108352e+02 -4.131722e+02
     vertex -2.676051e+02  6.104223e+02 -4.132697e+02
   endloop
 endfacet
 facet normal  3.901394e-01 -9.202238e-01 -3.129414e-02
   outer loop
     vertex -2.621740e+02  6.153042e+02 -4.891190e+02
     vertex -2.611969e+02  6.157152e+02 -4.890214e+02
     vertex -2.676051e+02  6.104223e+02 -4.132697e+02
   endloop
 endfacet
 facet normal  3.586636e-01 -9.328343e-01 -3.435959e-02
   outer loop
     vertex -2.621740e+02  6.153042e+02 -4.891190e+02
     vertex -2.676051e+02  6.104223e+02 -4.132697e+02
     vertex -2.685932e+02  6.100459e+02 -4.133660e+02
   endloop
 endfacet
 facet normal  3.556782e-01 -9.339644e-01 -3.469100e-02
   outer loop
     vertex -2.631660e+02  6.149301e+02 -4.892154e+02
     vertex -2.621740e+02  6.153042e+02 -4.891190e+02
     vertex -2.685932e+02  6.100459e+02 -4.133660e+02
   endloop
 endfacet
 facet normal  3.238424e-01 -9.453595e-01 -3.770270e-02
   outer loop
     vertex -2.631660e+02  6.149301e+02 -4.892154e+02
     vertex -2.685932e+02  6.100459e+02 -4.133660e+02
     vertex -2.695948e+02  6.097066e+02 -4.134608e+02
   endloop
 endfacet
 facet normal  3.207234e-01 -9.464087e-01 -3.803974e-02
   outer loop
     vertex -2.641713e+02  6.145932e+02 -4.893104e+02
     vertex -2.631660e+02  6.149301e+02 -4.892154e+02
     vertex -2.695948e+02  6.097066e+02 -4.134608e+02
   endloop
 endfacet
 facet normal  2.885742e-01 -9.565795e-01 -4.099374e-02
   outer loop
     vertex -2.641713e+02  6.145932e+02 -4.893104e+02
     vertex -2.695948e+02  6.097066e+02 -4.134608e+02
     vertex -2.706084e+02  6.094048e+02 -4.135541e+02
   endloop
 endfacet
 facet normal  2.853235e-01 -9.575395e-01 -4.133570e-02
   outer loop
     vertex -2.651887e+02  6.142940e+02 -4.894037e+02
     vertex -2.641713e+02  6.145932e+02 -4.893104e+02
     vertex -2.706084e+02  6.094048e+02 -4.135541e+02
   endloop
 endfacet
 facet normal  2.529076e-01 -9.664790e-01 -4.422816e-02
   outer loop
     vertex -2.651887e+02  6.142940e+02 -4.894037e+02
     vertex -2.706084e+02  6.094048e+02 -4.135541e+02
     vertex -2.716328e+02  6.091409e+02 -4.136456e+02
   endloop
 endfacet
 facet normal  2.495276e-01 -9.673413e-01 -4.457432e-02
   outer loop
     vertex -2.662167e+02  6.140331e+02 -4.894954e+02
     vertex -2.651887e+02  6.142940e+02 -4.894037e+02
     vertex -2.716328e+02  6.091409e+02 -4.136456e+02
   endloop
 endfacet
 facet normal  2.168919e-01 -9.750441e-01 -4.740149e-02
   outer loop
     vertex -2.662167e+02  6.140331e+02 -4.894954e+02
     vertex -2.716328e+02  6.091409e+02 -4.136456e+02
     vertex -2.726664e+02  6.089154e+02 -4.137354e+02
   endloop
 endfacet
 facet normal  2.133853e-01 -9.758005e-01 -4.775110e-02
   outer loop
     vertex -2.672539e+02  6.138107e+02 -4.895852e+02
     vertex -2.662167e+02  6.140331e+02 -4.894954e+02
     vertex -2.726664e+02  6.089154e+02 -4.137354e+02
   endloop
 endfacet
 facet normal  1.805766e-01 -9.822631e-01 -5.050935e-02
   outer loop
     vertex -2.672539e+02  6.138107e+02 -4.895852e+02
     vertex -2.726664e+02  6.089154e+02 -4.137354e+02
     vertex -2.737078e+02  6.087284e+02 -4.138233e+02
   endloop
 endfacet
 facet normal  1.769469e-01 -9.829053e-01 -5.086164e-02
   outer loop
     vertex -2.682988e+02  6.136271e+02 -4.896731e+02
     vertex -2.672539e+02  6.138107e+02 -4.895852e+02
     vertex -2.737078e+02  6.087284e+02 -4.138233e+02
   endloop
 endfacet
 facet normal  1.440121e-01 -9.881261e-01 -5.354746e-02
   outer loop
     vertex -2.682988e+02  6.136271e+02 -4.896731e+02
     vertex -2.737078e+02  6.087284e+02 -4.138233e+02
     vertex -2.747557e+02  6.085804e+02 -4.139090e+02
   endloop
 endfacet
 facet normal  1.402629e-01 -9.886460e-01 -5.390162e-02
   outer loop
     vertex -2.693500e+02  6.134827e+02 -4.897589e+02
     vertex -2.682988e+02  6.136271e+02 -4.896731e+02
     vertex -2.747557e+02  6.085804e+02 -4.139090e+02
   endloop
 endfacet
 facet normal  1.072488e-01 -9.926249e-01 -5.651161e-02
   outer loop
     vertex -2.693500e+02  6.134827e+02 -4.897589e+02
     vertex -2.747557e+02  6.085804e+02 -4.139090e+02
     vertex -2.758085e+02  6.084714e+02 -4.139927e+02
   endloop
 endfacet
 facet normal  1.033842e-01 -9.930145e-01 -5.686681e-02
   outer loop
     vertex -2.704061e+02  6.133775e+02 -4.898425e+02
     vertex -2.693500e+02  6.134827e+02 -4.897589e+02
     vertex -2.758085e+02  6.084714e+02 -4.139927e+02
   endloop
 endfacet
 facet normal  7.033743e-02 -9.957533e-01 -5.939771e-02
   outer loop
     vertex -2.704061e+02  6.133775e+02 -4.898425e+02
     vertex -2.758085e+02  6.084714e+02 -4.139927e+02
     vertex -2.768648e+02  6.084016e+02 -4.140740e+02
   endloop
 endfacet
 facet normal  6.636204e-02 -9.960048e-01 -5.975311e-02
   outer loop
     vertex -2.714655e+02  6.133118e+02 -4.899238e+02
     vertex -2.704061e+02  6.133775e+02 -4.898425e+02
     vertex -2.768648e+02  6.084016e+02 -4.140740e+02
   endloop
 endfacet
 facet normal  3.332893e-02 -9.975070e-01 -6.220178e-02
   outer loop
     vertex -2.714655e+02  6.133118e+02 -4.899238e+02
     vertex -2.768648e+02  6.084016e+02 -4.140740e+02
     vertex -2.779231e+02  6.083712e+02 -4.141529e+02
   endloop
 endfacet
 facet normal -3.725585e-03 -9.978835e-01 -6.491995e-02
   outer loop
     vertex -2.725268e+02  6.132856e+02 -4.900026e+02
     vertex -2.779231e+02  6.083712e+02 -4.141529e+02
     vertex -2.789821e+02  6.083801e+02 -4.142293e+02
   endloop
 endfacet
 facet normal  2.924777e-02 -9.976128e-01 -6.255650e-02
   outer loop
     vertex -2.725268e+02  6.132856e+02 -4.900026e+02
     vertex -2.714655e+02  6.133118e+02 -4.899238e+02
     vertex -2.779231e+02  6.083712e+02 -4.141529e+02
   endloop
 endfacet
 facet normal -4.077496e-02 -9.968824e-01 -6.754845e-02
   outer loop
     vertex -2.735885e+02  6.132990e+02 -4.900790e+02
     vertex -2.789821e+02  6.083801e+02 -4.142293e+02
     vertex -2.800402e+02  6.084284e+02 -4.143031e+02
   endloop
 endfacet
 facet normal -7.907080e-03 -9.978361e-01 -6.527311e-02
   outer loop
     vertex -2.735885e+02  6.132990e+02 -4.900790e+02
     vertex -2.725268e+02  6.132856e+02 -4.900026e+02
     vertex -2.789821e+02  6.083801e+02 -4.142293e+02
   endloop
 endfacet
 facet normal -7.776804e-02 -9.945051e-01 -7.008367e-02
   outer loop
     vertex -2.746492e+02  6.133520e+02 -4.901527e+02
     vertex -2.800402e+02  6.084284e+02 -4.143031e+02
     vertex -2.810959e+02  6.085159e+02 -4.143742e+02
   endloop
 endfacet
 facet normal -4.505096e-02 -9.966745e-01 -6.789915e-02
   outer loop
     vertex -2.746492e+02  6.133520e+02 -4.901527e+02
     vertex -2.735885e+02  6.132990e+02 -4.900790e+02
     vertex -2.800402e+02  6.084284e+02 -4.143031e+02
   endloop
 endfacet
 facet normal -1.146538e-01 -9.907548e-01 -7.252210e-02
   outer loop
     vertex -2.757074e+02  6.134444e+02 -4.902236e+02
     vertex -2.810959e+02  6.085159e+02 -4.143742e+02
     vertex -2.821478e+02  6.086427e+02 -4.144425e+02
   endloop
 endfacet
 facet normal -8.213231e-02 -9.941296e-01 -7.043099e-02
   outer loop
     vertex -2.757074e+02  6.134444e+02 -4.902236e+02
     vertex -2.746492e+02  6.133520e+02 -4.901527e+02
     vertex -2.810959e+02  6.085159e+02 -4.143742e+02
   endloop
 endfacet
 facet normal -1.513812e-01 -9.856367e-01 -7.486038e-02
   outer loop
     vertex -2.767615e+02  6.135762e+02 -4.902917e+02
     vertex -2.821478e+02  6.086427e+02 -4.144425e+02
     vertex -2.831945e+02  6.088084e+02 -4.145079e+02
   endloop
 endfacet
 facet normal -1.190997e-01 -9.902050e-01 -7.286511e-02
   outer loop
     vertex -2.767615e+02  6.135762e+02 -4.902917e+02
     vertex -2.757074e+02  6.134444e+02 -4.902236e+02
     vertex -2.821478e+02  6.086427e+02 -4.144425e+02
   endloop
 endfacet
 facet normal -1.878996e-01 -9.791578e-01 -7.709527e-02
   outer loop
     vertex -2.778102e+02  6.137472e+02 -4.903569e+02
     vertex -2.831945e+02  6.088084e+02 -4.145079e+02
     vertex -2.842345e+02  6.090129e+02 -4.145702e+02
   endloop
 endfacet
 facet normal -1.559017e-01 -9.849060e-01 -7.519814e-02
   outer loop
     vertex -2.778102e+02  6.137472e+02 -4.903569e+02
     vertex -2.767615e+02  6.135762e+02 -4.902917e+02
     vertex -2.831945e+02  6.088084e+02 -4.145079e+02
   endloop
 endfacet
 facet normal -2.241587e-01 -9.713272e-01 -7.922369e-02
   outer loop
     vertex -2.788520e+02  6.139571e+02 -4.904190e+02
     vertex -2.842345e+02  6.090129e+02 -4.145702e+02
     vertex -2.852663e+02  6.092558e+02 -4.146295e+02
   endloop
 endfacet
 facet normal -1.924874e-01 -9.782401e-01 -7.742683e-02
   outer loop
     vertex -2.788520e+02  6.139571e+02 -4.904190e+02
     vertex -2.778102e+02  6.137472e+02 -4.903569e+02
     vertex -2.842345e+02  6.090129e+02 -4.145702e+02
   endloop
 endfacet
 facet normal -2.601083e-01 -9.621556e-01 -8.124271e-02
   outer loop
     vertex -2.798855e+02  6.142057e+02 -4.904781e+02
     vertex -2.852663e+02  6.092558e+02 -4.146295e+02
     vertex -2.862886e+02  6.095369e+02 -4.146856e+02
   endloop
 endfacet
 facet normal -2.288059e-01 -9.702165e-01 -7.954810e-02
   outer loop
     vertex -2.798855e+02  6.142057e+02 -4.904781e+02
     vertex -2.788520e+02  6.139571e+02 -4.904190e+02
     vertex -2.852663e+02  6.092558e+02 -4.146295e+02
   endloop
 endfacet
 facet normal -2.956987e-01 -9.516556e-01 -8.314952e-02
   outer loop
     vertex -2.809091e+02  6.144925e+02 -4.905339e+02
     vertex -2.862886e+02  6.095369e+02 -4.146856e+02
     vertex -2.873000e+02  6.098558e+02 -4.147385e+02
   endloop
 endfacet
 facet normal -2.648068e-01 -9.608462e-01 -8.155900e-02
   outer loop
     vertex -2.809091e+02  6.144925e+02 -4.905339e+02
     vertex -2.798855e+02  6.142057e+02 -4.904781e+02
     vertex -2.862886e+02  6.095369e+02 -4.146856e+02
   endloop
 endfacet
 facet normal -3.308810e-01 -9.398419e-01 -8.494150e-02
   outer loop
     vertex -2.819216e+02  6.148173e+02 -4.905865e+02
     vertex -2.873000e+02  6.098558e+02 -4.147385e+02
     vertex -2.882989e+02  6.102120e+02 -4.147881e+02
   endloop
 endfacet
 facet normal -3.004403e-01 -9.501424e-01 -8.345674e-02
   outer loop
     vertex -2.819216e+02  6.148173e+02 -4.905865e+02
     vertex -2.809091e+02  6.144925e+02 -4.905339e+02
     vertex -2.873000e+02  6.098558e+02 -4.147385e+02
   endloop
 endfacet
 facet normal -3.656065e-01 -9.267306e-01 -8.661618e-02
   outer loop
     vertex -2.829214e+02  6.151795e+02 -4.906357e+02
     vertex -2.882989e+02  6.102120e+02 -4.147881e+02
     vertex -2.892842e+02  6.106050e+02 -4.148342e+02
   endloop
 endfacet
 facet normal -3.356567e-01 -9.381199e-01 -8.523869e-02
   outer loop
     vertex -2.829214e+02  6.151795e+02 -4.906357e+02
     vertex -2.819216e+02  6.148173e+02 -4.905865e+02
     vertex -2.882989e+02  6.102120e+02 -4.147881e+02
   endloop
 endfacet
 facet normal -3.998272e-01 -9.123399e-01 -8.817124e-02
   outer loop
     vertex -2.839072e+02  6.155787e+02 -4.906815e+02
     vertex -2.892842e+02  6.106050e+02 -4.148342e+02
     vertex -2.902543e+02  6.110343e+02 -4.148769e+02
   endloop
 endfacet
 facet normal -3.704072e-01 -9.247954e-01 -8.690237e-02
   outer loop
     vertex -2.839072e+02  6.155787e+02 -4.906815e+02
     vertex -2.829214e+02  6.151795e+02 -4.906357e+02
     vertex -2.892842e+02  6.106050e+02 -4.148342e+02
   endloop
 endfacet
 facet normal -4.334959e-01 -8.966897e-01 -8.960453e-02
   outer loop
     vertex -2.848777e+02  6.160142e+02 -4.907239e+02
     vertex -2.902543e+02  6.110343e+02 -4.148769e+02
     vertex -2.912080e+02  6.114992e+02 -4.149161e+02
   endloop
 endfacet
 facet normal -4.046437e-01 -9.101873e-01 -8.844548e-02
   outer loop
     vertex -2.848777e+02  6.160142e+02 -4.907239e+02
     vertex -2.839072e+02  6.155787e+02 -4.906815e+02
     vertex -2.902543e+02  6.110343e+02 -4.148769e+02
   endloop
 endfacet
 facet normal -4.665662e-01 -8.798015e-01 -9.091408e-02
   outer loop
     vertex -2.858314e+02  6.164856e+02 -4.907627e+02
     vertex -2.912080e+02  6.114992e+02 -4.149161e+02
     vertex -2.921440e+02  6.119993e+02 -4.149518e+02
   endloop
 endfacet
 facet normal -4.383186e-01 -8.943159e-01 -8.986588e-02
   outer loop
     vertex -2.858314e+02  6.164856e+02 -4.907627e+02
     vertex -2.848777e+02  6.160142e+02 -4.907239e+02
     vertex -2.912080e+02  6.114992e+02 -4.149161e+02
   endloop
 endfacet
 facet normal -4.989923e-01 -8.616987e-01 -9.209808e-02
   outer loop
     vertex -2.867671e+02  6.169920e+02 -4.907979e+02
     vertex -2.921440e+02  6.119993e+02 -4.149518e+02
     vertex -2.930609e+02  6.125336e+02 -4.149838e+02
   endloop
 endfacet
 facet normal -4.713851e-01 -8.772033e-01 -9.116159e-02
   outer loop
     vertex -2.867671e+02  6.169920e+02 -4.907979e+02
     vertex -2.858314e+02  6.164856e+02 -4.907627e+02
     vertex -2.921440e+02  6.119993e+02 -4.149518e+02
   endloop
 endfacet
 facet normal -5.307295e-01 -8.424063e-01 -9.315488e-02
   outer loop
     vertex -2.876834e+02  6.175329e+02 -4.908294e+02
     vertex -2.930609e+02  6.125336e+02 -4.149838e+02
     vertex -2.939574e+02  6.131016e+02 -4.150122e+02
   endloop
 endfacet
 facet normal -5.037973e-01 -8.588733e-01 -9.233082e-02
   outer loop
     vertex -2.876834e+02  6.175329e+02 -4.908294e+02
     vertex -2.867671e+02  6.169920e+02 -4.907979e+02
     vertex -2.930609e+02  6.125336e+02 -4.149838e+02
   endloop
 endfacet
 facet normal -5.355104e-01 -8.393511e-01 -9.337194e-02
   outer loop
     vertex -2.885792e+02  6.181075e+02 -4.908573e+02
     vertex -2.876834e+02  6.175329e+02 -4.908294e+02
     vertex -2.939574e+02  6.131016e+02 -4.150122e+02
   endloop
 endfacet
 facet normal -5.617341e-01 -8.219509e-01 -9.408304e-02
   outer loop
     vertex -2.885792e+02  6.181075e+02 -4.908573e+02
     vertex -2.939574e+02  6.131016e+02 -4.150122e+02
     vertex -2.948325e+02  6.137025e+02 -4.150369e+02
   endloop
 endfacet
 facet normal -5.664801e-01 -8.186641e-01 -9.428351e-02
   outer loop
     vertex -2.894531e+02  6.187150e+02 -4.908815e+02
     vertex -2.885792e+02  6.181075e+02 -4.908573e+02
     vertex -2.948325e+02  6.137025e+02 -4.150369e+02
   endloop
 endfacet
 facet normal -5.919631e-01 -8.003607e-01 -9.488127e-02
   outer loop
     vertex -2.894531e+02  6.187150e+02 -4.908815e+02
     vertex -2.948325e+02  6.137025e+02 -4.150369e+02
     vertex -2.956847e+02  6.143353e+02 -4.150578e+02
   endloop
 endfacet
 facet normal -5.966637e-01 -7.968408e-01 -9.506427e-02
   outer loop
     vertex -2.903039e+02  6.193545e+02 -4.909019e+02
     vertex -2.894531e+02  6.187150e+02 -4.908815e+02
     vertex -2.956847e+02  6.143353e+02 -4.150578e+02
   endloop
 endfacet
 facet normal -6.213749e-01 -7.776656e-01 -9.554846e-02
   outer loop
     vertex -2.903039e+02  6.193545e+02 -4.909019e+02
     vertex -2.956847e+02  6.143353e+02 -4.150578e+02
     vertex -2.965130e+02  6.149993e+02 -4.150750e+02
   endloop
 endfacet
 facet normal -6.260191e-01 -7.739115e-01 -9.571314e-02
   outer loop
     vertex -2.911304e+02  6.200252e+02 -4.909185e+02
     vertex -2.903039e+02  6.193545e+02 -4.909019e+02
     vertex -2.965130e+02  6.149993e+02 -4.150750e+02
   endloop
 endfacet
 facet normal -6.496632e-01 -7.541262e-01 -9.608005e-02
   outer loop
     vertex -2.911304e+02  6.200252e+02 -4.909185e+02
     vertex -2.965130e+02  6.149993e+02 -4.150750e+02
     vertex -2.973014e+02  6.156801e+02 -4.150882e+02
   endloop
 endfacet
 facet normal -6.545055e-01 -7.499079e-01 -9.623239e-02
   outer loop
     vertex -2.919316e+02  6.207261e+02 -4.909314e+02
     vertex -2.911304e+02  6.200252e+02 -4.909185e+02
     vertex -2.973014e+02  6.156801e+02 -4.150882e+02
   endloop
 endfacet
 facet normal -6.768147e-01 -7.298045e-01 -9.647438e-02
   outer loop
     vertex -2.919316e+02  6.207261e+02 -4.909314e+02
     vertex -2.973014e+02  6.156801e+02 -4.150882e+02
     vertex -2.980645e+02  6.163890e+02 -4.150978e+02
   endloop
 endfacet
 facet normal -6.820834e-01 -7.248636e-01 -9.661790e-02
   outer loop
     vertex -2.927063e+02  6.214562e+02 -4.909404e+02
     vertex -2.919316e+02  6.207261e+02 -4.909314e+02
     vertex -2.980645e+02  6.163890e+02 -4.150978e+02
   endloop
 endfacet
 facet normal -7.030667e-01 -7.045129e-01 -9.674069e-02
   outer loop
     vertex -2.927063e+02  6.214562e+02 -4.909404e+02
     vertex -2.980645e+02  6.163890e+02 -4.150978e+02
     vertex -2.988014e+02  6.171252e+02 -4.151036e+02
   endloop
 endfacet
 facet normal -7.087147e-01 -6.988132e-01 -9.686912e-02
   outer loop
     vertex -2.934533e+02  6.222146e+02 -4.909455e+02
     vertex -2.927063e+02  6.214562e+02 -4.909404e+02
     vertex -2.988014e+02  6.171252e+02 -4.151036e+02
   endloop
 endfacet
 facet normal -7.283844e-01 -6.782851e-01 -9.687863e-02
   outer loop
     vertex -2.934533e+02  6.222146e+02 -4.909455e+02
     vertex -2.988014e+02  6.171252e+02 -4.151036e+02
     vertex -2.995111e+02  6.178877e+02 -4.151058e+02
   endloop
 endfacet
 facet normal -7.343624e-01 -6.717929e-01 -9.698573e-02
   outer loop
     vertex -2.941718e+02  6.230001e+02 -4.909469e+02
     vertex -2.934533e+02  6.222146e+02 -4.909455e+02
     vertex -2.995111e+02  6.178877e+02 -4.151058e+02
   endloop
 endfacet
 facet normal -7.527341e-01 -6.511560e-01 -9.688801e-02
   outer loop
     vertex -2.941718e+02  6.230001e+02 -4.909469e+02
     vertex -2.995111e+02  6.178877e+02 -4.151058e+02
     vertex -3.001927e+02  6.186754e+02 -4.151043e+02
   endloop
 endfacet
 facet normal -7.589908e-01 -6.438402e-01 -9.696755e-02
   outer loop
     vertex -2.948606e+02  6.238118e+02 -4.909444e+02
     vertex -2.941718e+02  6.230001e+02 -4.909469e+02
     vertex -3.001927e+02  6.186754e+02 -4.151043e+02
   endloop
 endfacet
 facet normal -7.760835e-01 -6.231614e-01 -9.676880e-02
   outer loop
     vertex -2.948606e+02  6.238118e+02 -4.909444e+02
     vertex -3.001927e+02  6.186754e+02 -4.151043e+02
     vertex -3.008453e+02  6.194873e+02 -4.150992e+02
   endloop
 endfacet
 facet normal -7.825659e-01 -6.149939e-01 -9.681463e-02
   outer loop
     vertex -2.955189e+02  6.246484e+02 -4.909380e+02
     vertex -2.948606e+02  6.238118e+02 -4.909444e+02
     vertex -3.008453e+02  6.194873e+02 -4.150992e+02
   endloop
 endfacet
 facet normal -7.984016e-01 -5.943388e-01 -9.652118e-02
   outer loop
     vertex -2.955189e+02  6.246484e+02 -4.909380e+02
     vertex -3.008453e+02  6.194873e+02 -4.150992e+02
     vertex -3.014680e+02  6.203224e+02 -4.150903e+02
   endloop
 endfacet
 facet normal -8.050548e-01 -5.852941e-01 -9.652716e-02
   outer loop
     vertex -2.961456e+02  6.255088e+02 -4.909278e+02
     vertex -2.955189e+02  6.246484e+02 -4.909380e+02
     vertex -3.014680e+02  6.203224e+02 -4.150903e+02
   endloop
 endfacet
 facet normal -8.196586e-01 -5.647263e-01 -9.614546e-02
   outer loop
     vertex -2.961456e+02  6.255088e+02 -4.909278e+02
     vertex -3.014680e+02  6.203224e+02 -4.150903e+02
     vertex -3.020599e+02  6.211794e+02 -4.150778e+02
   endloop
 endfacet
 facet normal -8.264264e-01 -5.547820e-01 -9.610557e-02
   outer loop
     vertex -2.967401e+02  6.263919e+02 -4.909138e+02
     vertex -2.961456e+02  6.255088e+02 -4.909278e+02
     vertex -3.020599e+02  6.211794e+02 -4.150778e+02
   endloop
 endfacet
 facet normal -8.398264e-01 -5.343633e-01 -9.564214e-02
   outer loop
     vertex -2.967401e+02  6.263919e+02 -4.909138e+02
     vertex -3.020599e+02  6.211794e+02 -4.150778e+02
     vertex -3.026204e+02  6.220573e+02 -4.150617e+02
   endloop
 endfacet
 facet normal -8.466510e-01 -5.234999e-01 -9.555043e-02
   outer loop
     vertex -2.973013e+02  6.272963e+02 -4.908960e+02
     vertex -2.967401e+02  6.263919e+02 -4.909138e+02
     vertex -3.026204e+02  6.220573e+02 -4.150617e+02
   endloop
 endfacet
 facet normal -8.588781e-01 -5.032903e-01 -9.501189e-02
   outer loop
     vertex -2.973013e+02  6.272963e+02 -4.908960e+02
     vertex -3.026204e+02  6.220573e+02 -4.150617e+02
     vertex -3.031486e+02  6.229550e+02 -4.150419e+02
   endloop
 endfacet
 facet normal -8.657006e-01 -4.914912e-01 -9.486251e-02
   outer loop
     vertex -2.978286e+02  6.282208e+02 -4.908744e+02
     vertex -2.973013e+02  6.272963e+02 -4.908960e+02
     vertex -3.031486e+02  6.229550e+02 -4.150419e+02
   endloop
 endfacet
 facet normal -8.767885e-01 -4.715483e-01 -9.425554e-02
   outer loop
     vertex -2.978286e+02  6.282208e+02 -4.908744e+02
     vertex -3.031486e+02  6.229550e+02 -4.150419e+02
     vertex -3.036438e+02  6.238711e+02 -4.150185e+02
   endloop
 endfacet
 facet normal -8.835486e-01 -4.588004e-01 -9.404278e-02
   outer loop
     vertex -2.983211e+02  6.291642e+02 -4.908491e+02
     vertex -2.978286e+02  6.282208e+02 -4.908744e+02
     vertex -3.036438e+02  6.238711e+02 -4.150185e+02
   endloop
 endfacet
 facet normal -8.935337e-01 -4.391798e-01 -9.337409e-02
   outer loop
     vertex -2.983211e+02  6.291642e+02 -4.908491e+02
     vertex -3.036438e+02  6.238711e+02 -4.150185e+02
     vertex -3.041054e+02  6.248045e+02 -4.149916e+02
   endloop
 endfacet
 facet normal -9.001704e-01 -4.254728e-01 -9.309238e-02
   outer loop
     vertex -2.987783e+02  6.301252e+02 -4.908200e+02
     vertex -2.983211e+02  6.291642e+02 -4.908491e+02
     vertex -3.041054e+02  6.248045e+02 -4.149916e+02
   endloop
 endfacet
 facet normal -9.090914e-01 -4.062275e-01 -9.236872e-02
   outer loop
     vertex -2.987783e+02  6.301252e+02 -4.908200e+02
     vertex -3.041054e+02  6.248045e+02 -4.149916e+02
     vertex -3.045328e+02  6.257540e+02 -4.149611e+02
   endloop
 endfacet
 facet normal -9.155428e-01 -3.915548e-01 -9.201262e-02
   outer loop
     vertex -2.991995e+02  6.311023e+02 -4.907873e+02
     vertex -2.987783e+02  6.301252e+02 -4.908200e+02
     vertex -3.045328e+02  6.257540e+02 -4.149611e+02
   endloop
 endfacet
 facet normal -9.234411e-01 -3.727355e-01 -9.124075e-02
   outer loop
     vertex -2.991995e+02  6.311023e+02 -4.907873e+02
     vertex -3.045328e+02  6.257540e+02 -4.149611e+02
     vertex -3.049253e+02  6.267183e+02 -4.149272e+02
   endloop
 endfacet
 facet normal -9.296445e-01 -3.570932e-01 -9.080500e-02
   outer loop
     vertex -2.995841e+02  6.320943e+02 -4.907510e+02
     vertex -2.991995e+02  6.311023e+02 -4.907873e+02
     vertex -3.049253e+02  6.267183e+02 -4.149272e+02
   endloop
 endfacet
 facet normal -9.365635e-01 -3.387481e-01 -8.999170e-02
   outer loop
     vertex -2.995841e+02  6.320943e+02 -4.907510e+02
     vertex -3.049253e+02  6.267183e+02 -4.149272e+02
     vertex -3.052826e+02  6.276961e+02 -4.148898e+02
   endloop
 endfacet
 facet normal -9.484414e-01 -3.043105e-01 -8.862321e-02
   outer loop
     vertex -2.999316e+02  6.330998e+02 -4.907111e+02
     vertex -3.052826e+02  6.276961e+02 -4.148898e+02
     vertex -3.056040e+02  6.286861e+02 -4.148490e+02
   endloop
 endfacet
 facet normal -9.424560e-01 -3.221361e-01 -8.947120e-02
   outer loop
     vertex -2.999316e+02  6.330998e+02 -4.907111e+02
     vertex -2.995841e+02  6.320943e+02 -4.907510e+02
     vertex -3.052826e+02  6.276961e+02 -4.148898e+02
   endloop
 endfacet
 facet normal -9.590588e-01 -2.694685e-01 -8.713711e-02
   outer loop
     vertex -3.002414e+02  6.341173e+02 -4.906677e+02
     vertex -3.056040e+02  6.286861e+02 -4.148490e+02
     vertex -3.058893e+02  6.296870e+02 -4.148049e+02
   endloop
 endfacet
 facet normal -9.539594e-01 -2.867319e-01 -8.801308e-02
   outer loop
     vertex -3.002414e+02  6.341173e+02 -4.906677e+02
     vertex -2.999316e+02  6.330998e+02 -4.907111e+02
     vertex -3.056040e+02  6.286861e+02 -4.148490e+02
   endloop
 endfacet
 facet normal -9.684018e-01 -2.342685e-01 -8.553536e-02
   outer loop
     vertex -3.005132e+02  6.351455e+02 -4.906208e+02
     vertex -3.058893e+02  6.296870e+02 -4.148049e+02
     vertex -3.061379e+02  6.306974e+02 -4.147575e+02
   endloop
 endfacet
 facet normal -9.641388e-01 -2.509298e-01 -8.643265e-02
   outer loop
     vertex -3.005132e+02  6.351455e+02 -4.906208e+02
     vertex -3.002414e+02  6.341173e+02 -4.906677e+02
     vertex -3.058893e+02  6.296870e+02 -4.148049e+02
   endloop
 endfacet
 facet normal -9.764578e-01 -1.987570e-01 -8.382011e-02
   outer loop
     vertex -3.007466e+02  6.361829e+02 -4.905705e+02
     vertex -3.061379e+02  6.306974e+02 -4.147575e+02
     vertex -3.063496e+02  6.317161e+02 -4.147068e+02
   endloop
 endfacet
 facet normal -9.729801e-01 -2.147793e-01 -8.473211e-02
   outer loop
     vertex -3.007466e+02  6.361829e+02 -4.905705e+02
     vertex -3.005132e+02  6.351455e+02 -4.906208e+02
     vertex -3.061379e+02  6.306974e+02 -4.147575e+02
   endloop
 endfacet
 facet normal -9.832162e-01 -1.629815e-01 -8.199363e-02
   outer loop
     vertex -3.009412e+02  6.372282e+02 -4.905169e+02
     vertex -3.063496e+02  6.317161e+02 -4.147068e+02
     vertex -3.065241e+02  6.327416e+02 -4.146530e+02
   endloop
 endfacet
 facet normal -9.804710e-01 -1.783308e-01 -8.291382e-02
   outer loop
     vertex -3.009412e+02  6.372282e+02 -4.905169e+02
     vertex -3.007466e+02  6.361829e+02 -4.905705e+02
     vertex -3.063496e+02  6.317161e+02 -4.147068e+02
   endloop
 endfacet
 facet normal -9.866011e-01 -1.416348e-01 -8.098030e-02
   outer loop
     vertex -3.010969e+02  6.382797e+02 -4.904601e+02
     vertex -3.009412e+02  6.372282e+02 -4.905169e+02
     vertex -3.065241e+02  6.327416e+02 -4.146530e+02
   endloop
 endfacet
 facet normal -9.886680e-01 -1.269893e-01 -8.005834e-02
   outer loop
     vertex -3.010969e+02  6.382797e+02 -4.904601e+02
     vertex -3.065241e+02  6.327416e+02 -4.146530e+02
     vertex -3.066611e+02  6.337727e+02 -4.145962e+02
   endloop
 endfacet
 facet normal -9.913619e-01 -1.047423e-01 -7.893423e-02
   outer loop
     vertex -3.012133e+02  6.393362e+02 -4.904001e+02
     vertex -3.010969e+02  6.382797e+02 -4.904601e+02
     vertex -3.066611e+02  6.337727e+02 -4.145962e+02
   endloop
 endfacet
 facet normal -9.928059e-01 -9.082841e-02 -7.801682e-02
   outer loop
     vertex -3.012133e+02  6.393362e+02 -4.904001e+02
     vertex -3.066611e+02  6.337727e+02 -4.145962e+02
     vertex -3.067605e+02  6.348079e+02 -4.145363e+02
   endloop
 endfacet
 facet normal -9.947468e-01 -6.770434e-02 -7.677846e-02
   outer loop
     vertex -3.012903e+02  6.403961e+02 -4.903370e+02
     vertex -3.012133e+02  6.393362e+02 -4.904001e+02
     vertex -3.067605e+02  6.348079e+02 -4.145363e+02
   endloop
 endfacet
 facet normal -9.956245e-01 -5.454678e-02 -7.587179e-02
   outer loop
     vertex -3.012903e+02  6.403961e+02 -4.903370e+02
     vertex -3.067605e+02  6.348079e+02 -4.145363e+02
     vertex -3.068222e+02  6.358458e+02 -4.144735e+02
   endloop
 endfacet
 facet normal -9.967511e-01 -3.057245e-02 -7.451597e-02
   outer loop
     vertex -3.013278e+02  6.414579e+02 -4.902709e+02
     vertex -3.012903e+02  6.403961e+02 -4.903370e+02
     vertex -3.068222e+02  6.358458e+02 -4.144735e+02
   endloop
 endfacet
 facet normal -9.971200e-01 -1.819265e-02 -7.362610e-02
   outer loop
     vertex -3.013278e+02  6.414579e+02 -4.902709e+02
     vertex -3.068222e+02  6.358458e+02 -4.144735e+02
     vertex -3.068460e+02  6.368852e+02 -4.144079e+02
   endloop
 endfacet
 facet normal -9.972714e-01 -9.993825e-03 -7.314292e-02
   outer loop
     vertex -3.013295e+02  6.415722e+02 -4.902636e+02
     vertex -3.013278e+02  6.414579e+02 -4.902709e+02
     vertex -3.068460e+02  6.368852e+02 -4.144079e+02
   endloop
 endfacet
 facet normal -9.973213e-01 -5.996049e-03 -7.289953e-02
   outer loop
     vertex -3.013307e+02  6.416864e+02 -4.902563e+02
     vertex -3.013295e+02  6.415722e+02 -4.902636e+02
     vertex -3.068460e+02  6.368852e+02 -4.144079e+02
   endloop
 endfacet
 facet normal -9.973556e-01 -1.998564e-03 -7.264898e-02
   outer loop
     vertex -3.013315e+02  6.418006e+02 -4.902490e+02
     vertex -3.013307e+02  6.416864e+02 -4.902563e+02
     vertex -3.068460e+02  6.368852e+02 -4.144079e+02
   endloop
 endfacet
endsolid
