solid 
 facet normal -1.789953e-02  9.908796e-01  1.335561e-01
   outer loop
     vertex -2.919126e+02  5.915468e+02 -3.045380e+02
     vertex -2.883438e+02  5.952291e+02 -3.313793e+02
     vertex -2.894366e+02  5.952290e+02 -3.315247e+02
   endloop
 endfacet
 facet normal -1.789953e-02  9.908796e-01  1.335561e-01
   outer loop
     vertex -2.919126e+02  5.915468e+02 -3.045380e+02
     vertex -2.894366e+02  5.952290e+02 -3.315247e+02
     vertex -2.930054e+02  5.915467e+02 -3.046833e+02
   endloop
 endfacet
 facet normal -5.367524e-02  9.902286e-01  1.287100e-01
   outer loop
     vertex -2.908213e+02  5.915864e+02 -3.043874e+02
     vertex -2.872525e+02  5.952687e+02 -3.312288e+02
     vertex -2.883438e+02  5.952291e+02 -3.313793e+02
   endloop
 endfacet
 facet normal -5.367524e-02  9.902286e-01  1.287100e-01
   outer loop
     vertex -2.908213e+02  5.915864e+02 -3.043874e+02
     vertex -2.883438e+02  5.952291e+02 -3.313793e+02
     vertex -2.919126e+02  5.915468e+02 -3.045380e+02
   endloop
 endfacet
 facet normal -8.938097e-02  9.882865e-01  1.236962e-01
   outer loop
     vertex -2.897327e+02  5.916654e+02 -3.042319e+02
     vertex -2.861639e+02  5.953477e+02 -3.310732e+02
     vertex -2.872525e+02  5.952687e+02 -3.312288e+02
   endloop
 endfacet
 facet normal -8.938097e-02  9.882865e-01  1.236962e-01
   outer loop
     vertex -2.897327e+02  5.916654e+02 -3.042319e+02
     vertex -2.872525e+02  5.952687e+02 -3.312288e+02
     vertex -2.908213e+02  5.915864e+02 -3.043874e+02
   endloop
 endfacet
 facet normal -1.249702e-01  9.850559e-01  1.185211e-01
   outer loop
     vertex -2.886485e+02  5.917837e+02 -3.040715e+02
     vertex -2.850797e+02  5.954659e+02 -3.309128e+02
     vertex -2.861639e+02  5.953477e+02 -3.310732e+02
   endloop
 endfacet
 facet normal -1.249702e-01  9.850559e-01  1.185211e-01
   outer loop
     vertex -2.886485e+02  5.917837e+02 -3.040715e+02
     vertex -2.861639e+02  5.953477e+02 -3.310732e+02
     vertex -2.897327e+02  5.916654e+02 -3.042319e+02
   endloop
 endfacet
 facet normal -1.603964e-01  9.805410e-01  1.131915e-01
   outer loop
     vertex -2.875699e+02  5.919410e+02 -3.039065e+02
     vertex -2.840011e+02  5.956233e+02 -3.307478e+02
     vertex -2.850797e+02  5.954659e+02 -3.309128e+02
   endloop
 endfacet
 facet normal -1.603964e-01  9.805410e-01  1.131915e-01
   outer loop
     vertex -2.875699e+02  5.919410e+02 -3.039065e+02
     vertex -2.850797e+02  5.954659e+02 -3.309128e+02
     vertex -2.886485e+02  5.917837e+02 -3.040715e+02
   endloop
 endfacet
 facet normal -1.956136e-01  9.747476e-01  1.077143e-01
   outer loop
     vertex -2.864984e+02  5.921373e+02 -3.037371e+02
     vertex -2.829296e+02  5.958196e+02 -3.305785e+02
     vertex -2.840011e+02  5.956233e+02 -3.307478e+02
   endloop
 endfacet
 facet normal -1.956136e-01  9.747476e-01  1.077143e-01
   outer loop
     vertex -2.864984e+02  5.921373e+02 -3.037371e+02
     vertex -2.840011e+02  5.956233e+02 -3.307478e+02
     vertex -2.875699e+02  5.919410e+02 -3.039065e+02
   endloop
 endfacet
 facet normal -2.305756e-01  9.676834e-01  1.020966e-01
   outer loop
     vertex -2.854354e+02  5.923723e+02 -3.035635e+02
     vertex -2.829296e+02  5.958196e+02 -3.305785e+02
     vertex -2.864984e+02  5.921373e+02 -3.037371e+02
   endloop
 endfacet
 facet normal -2.305756e-01  9.676834e-01  1.020966e-01
   outer loop
     vertex -2.854354e+02  5.923723e+02 -3.035635e+02
     vertex -2.818666e+02  5.960546e+02 -3.304049e+02
     vertex -2.829296e+02  5.958196e+02 -3.305785e+02
   endloop
 endfacet
 facet normal -2.652371e-01  9.593575e-01  9.634588e-02
   outer loop
     vertex -2.843823e+02  5.926457e+02 -3.033860e+02
     vertex -2.818666e+02  5.960546e+02 -3.304049e+02
     vertex -2.854354e+02  5.923723e+02 -3.035635e+02
   endloop
 endfacet
 facet normal -2.652371e-01  9.593575e-01  9.634588e-02
   outer loop
     vertex -2.843823e+02  5.926457e+02 -3.033860e+02
     vertex -2.808135e+02  5.963279e+02 -3.302274e+02
     vertex -2.818666e+02  5.960546e+02 -3.304049e+02
   endloop
 endfacet
 facet normal -2.995527e-01  9.497807e-01  9.046950e-02
   outer loop
     vertex -2.833404e+02  5.929570e+02 -3.032048e+02
     vertex -2.808135e+02  5.963279e+02 -3.302274e+02
     vertex -2.843823e+02  5.926457e+02 -3.033860e+02
   endloop
 endfacet
 facet normal -2.995527e-01  9.497807e-01  9.046950e-02
   outer loop
     vertex -2.833404e+02  5.929570e+02 -3.032048e+02
     vertex -2.797716e+02  5.966393e+02 -3.300461e+02
     vertex -2.808135e+02  5.963279e+02 -3.302274e+02
   endloop
 endfacet
 facet normal -3.334778e-01  9.389656e-01  8.447516e-02
   outer loop
     vertex -2.823111e+02  5.933059e+02 -3.030200e+02
     vertex -2.797716e+02  5.966393e+02 -3.300461e+02
     vertex -2.833404e+02  5.929570e+02 -3.032048e+02
   endloop
 endfacet
 facet normal -3.334778e-01  9.389656e-01  8.447516e-02
   outer loop
     vertex -2.823111e+02  5.933059e+02 -3.030200e+02
     vertex -2.787423e+02  5.969882e+02 -3.298614e+02
     vertex -2.797716e+02  5.966393e+02 -3.300461e+02
   endloop
 endfacet
 facet normal -3.669681e-01  9.269263e-01  7.837069e-02
   outer loop
     vertex -2.812958e+02  5.936920e+02 -3.028321e+02
     vertex -2.787423e+02  5.969882e+02 -3.298614e+02
     vertex -2.823111e+02  5.933059e+02 -3.030200e+02
   endloop
 endfacet
 facet normal -3.669681e-01  9.269263e-01  7.837069e-02
   outer loop
     vertex -2.812958e+02  5.936920e+02 -3.028321e+02
     vertex -2.777270e+02  5.973743e+02 -3.296734e+02
     vertex -2.787423e+02  5.969882e+02 -3.298614e+02
   endloop
 endfacet
 facet normal -3.999800e-01  9.136785e-01  7.216404e-02
   outer loop
     vertex -2.802957e+02  5.941147e+02 -3.026411e+02
     vertex -2.777270e+02  5.973743e+02 -3.296734e+02
     vertex -2.812958e+02  5.936920e+02 -3.028321e+02
   endloop
 endfacet
 facet normal -3.999800e-01  9.136785e-01  7.216404e-02
   outer loop
     vertex -2.802957e+02  5.941147e+02 -3.026411e+02
     vertex -2.767269e+02  5.977970e+02 -3.294825e+02
     vertex -2.777270e+02  5.973743e+02 -3.296734e+02
   endloop
 endfacet
 facet normal -4.324703e-01  8.992394e-01  6.586330e-02
   outer loop
     vertex -2.793122e+02  5.945735e+02 -3.024474e+02
     vertex -2.767269e+02  5.977970e+02 -3.294825e+02
     vertex -2.802957e+02  5.941147e+02 -3.026411e+02
   endloop
 endfacet
 facet normal -4.324703e-01  8.992394e-01  6.586330e-02
   outer loop
     vertex -2.793122e+02  5.945735e+02 -3.024474e+02
     vertex -2.757434e+02  5.982558e+02 -3.292888e+02
     vertex -2.767269e+02  5.977970e+02 -3.294825e+02
   endloop
 endfacet
 facet normal -4.643968e-01  8.836278e-01  5.947668e-02
   outer loop
     vertex -2.783465e+02  5.950678e+02 -3.022512e+02
     vertex -2.757434e+02  5.982558e+02 -3.292888e+02
     vertex -2.793122e+02  5.945735e+02 -3.024474e+02
   endloop
 endfacet
 facet normal -4.643968e-01  8.836278e-01  5.947668e-02
   outer loop
     vertex -2.783465e+02  5.950678e+02 -3.022512e+02
     vertex -2.747777e+02  5.987501e+02 -3.290926e+02
     vertex -2.757434e+02  5.982558e+02 -3.292888e+02
   endloop
 endfacet
 facet normal -4.957178e-01  8.668642e-01  5.301252e-02
   outer loop
     vertex -2.774000e+02  5.955970e+02 -3.020528e+02
     vertex -2.747777e+02  5.987501e+02 -3.290926e+02
     vertex -2.783465e+02  5.950678e+02 -3.022512e+02
   endloop
 endfacet
 facet normal -4.957178e-01  8.668642e-01  5.301252e-02
   outer loop
     vertex -2.774000e+02  5.955970e+02 -3.020528e+02
     vertex -2.738312e+02  5.992793e+02 -3.288941e+02
     vertex -2.747777e+02  5.987501e+02 -3.290926e+02
   endloop
 endfacet
 facet normal -5.263924e-01  8.489704e-01  4.647924e-02
   outer loop
     vertex -2.764738e+02  5.961603e+02 -3.018523e+02
     vertex -2.738312e+02  5.992793e+02 -3.288941e+02
     vertex -2.774000e+02  5.955970e+02 -3.020528e+02
   endloop
 endfacet
 facet normal -5.263924e-01  8.489704e-01  4.647924e-02
   outer loop
     vertex -2.764738e+02  5.961603e+02 -3.018523e+02
     vertex -2.729050e+02  5.998426e+02 -3.286937e+02
     vertex -2.738312e+02  5.992793e+02 -3.288941e+02
   endloop
 endfacet
 facet normal -5.563808e-01  8.299696e-01  3.988536e-02
   outer loop
     vertex -2.755691e+02  5.967570e+02 -3.016502e+02
     vertex -2.729050e+02  5.998426e+02 -3.286937e+02
     vertex -2.764738e+02  5.961603e+02 -3.018523e+02
   endloop
 endfacet
 facet normal -5.563808e-01  8.299696e-01  3.988536e-02
   outer loop
     vertex -2.755691e+02  5.967570e+02 -3.016502e+02
     vertex -2.720003e+02  6.004393e+02 -3.284915e+02
     vertex -2.729050e+02  5.998426e+02 -3.286937e+02
   endloop
 endfacet
 facet normal -5.856437e-01  8.098867e-01  3.323948e-02
   outer loop
     vertex -2.746872e+02  5.973864e+02 -3.014466e+02
     vertex -2.720003e+02  6.004393e+02 -3.284915e+02
     vertex -2.755691e+02  5.967570e+02 -3.016502e+02
   endloop
 endfacet
 facet normal -5.856437e-01  8.098867e-01  3.323948e-02
   outer loop
     vertex -2.746872e+02  5.973864e+02 -3.014466e+02
     vertex -2.711184e+02  6.010687e+02 -3.282879e+02
     vertex -2.720003e+02  6.004393e+02 -3.284915e+02
   endloop
 endfacet
 facet normal -6.141431e-01  7.887479e-01  2.655026e-02
   outer loop
     vertex -2.738292e+02  5.980476e+02 -3.012418e+02
     vertex -2.702604e+02  6.017299e+02 -3.280832e+02
     vertex -2.711184e+02  6.010687e+02 -3.282879e+02
   endloop
 endfacet
 facet normal -6.141431e-01  7.887479e-01  2.655026e-02
   outer loop
     vertex -2.738292e+02  5.980476e+02 -3.012418e+02
     vertex -2.711184e+02  6.010687e+02 -3.282879e+02
     vertex -2.746872e+02  5.973864e+02 -3.014466e+02
   endloop
 endfacet
 facet normal -6.418418e-01  7.665808e-01  1.982642e-02
   outer loop
     vertex -2.729962e+02  5.987397e+02 -3.010361e+02
     vertex -2.694274e+02  6.024220e+02 -3.278774e+02
     vertex -2.702604e+02  6.017299e+02 -3.280832e+02
   endloop
 endfacet
 facet normal -6.418418e-01  7.665808e-01  1.982642e-02
   outer loop
     vertex -2.729962e+02  5.987397e+02 -3.010361e+02
     vertex -2.702604e+02  6.017299e+02 -3.280832e+02
     vertex -2.738292e+02  5.980476e+02 -3.012418e+02
   endloop
 endfacet
 facet normal -6.687036e-01  7.434141e-01  1.307674e-02
   outer loop
     vertex -2.721892e+02  5.994619e+02 -3.008297e+02
     vertex -2.694274e+02  6.024220e+02 -3.278774e+02
     vertex -2.729962e+02  5.987397e+02 -3.010361e+02
   endloop
 endfacet
 facet normal -6.687036e-01  7.434141e-01  1.307674e-02
   outer loop
     vertex -2.721892e+02  5.994619e+02 -3.008297e+02
     vertex -2.686204e+02  6.031442e+02 -3.276711e+02
     vertex -2.694274e+02  6.024220e+02 -3.278774e+02
   endloop
 endfacet
 facet normal -6.946935e-01  7.192782e-01  6.310001e-03
   outer loop
     vertex -2.714094e+02  6.002133e+02 -3.006230e+02
     vertex -2.678406e+02  6.038956e+02 -3.274643e+02
     vertex -2.686204e+02  6.031442e+02 -3.276711e+02
   endloop
 endfacet
 facet normal -6.946935e-01  7.192782e-01  6.310001e-03
   outer loop
     vertex -2.714094e+02  6.002133e+02 -3.006230e+02
     vertex -2.686204e+02  6.031442e+02 -3.276711e+02
     vertex -2.721892e+02  5.994619e+02 -3.008297e+02
   endloop
 endfacet
 facet normal -7.197777e-01  6.942044e-01 -4.649617e-04
   outer loop
     vertex -2.706578e+02  6.009927e+02 -3.004161e+02
     vertex -2.670890e+02  6.046750e+02 -3.272575e+02
     vertex -2.678406e+02  6.038956e+02 -3.274643e+02
   endloop
 endfacet
 facet normal -7.197777e-01  6.942044e-01 -4.649617e-04
   outer loop
     vertex -2.706578e+02  6.009927e+02 -3.004161e+02
     vertex -2.678406e+02  6.038956e+02 -3.274643e+02
     vertex -2.714094e+02  6.002133e+02 -3.006230e+02
   endloop
 endfacet
 facet normal -7.439235e-01  6.682256e-01 -7.239319e-03
   outer loop
     vertex -2.699353e+02  6.017993e+02 -3.002094e+02
     vertex -2.663665e+02  6.054816e+02 -3.270507e+02
     vertex -2.670890e+02  6.046750e+02 -3.272575e+02
   endloop
 endfacet
 facet normal -7.439235e-01  6.682256e-01 -7.239319e-03
   outer loop
     vertex -2.699353e+02  6.017993e+02 -3.002094e+02
     vertex -2.670890e+02  6.046750e+02 -3.272575e+02
     vertex -2.706578e+02  6.009927e+02 -3.004161e+02
   endloop
 endfacet
 facet normal -7.670993e-01  6.413755e-01 -1.400424e-02
   outer loop
     vertex -2.692429e+02  6.026320e+02 -3.000031e+02
     vertex -2.656741e+02  6.063143e+02 -3.268444e+02
     vertex -2.663665e+02  6.054816e+02 -3.270507e+02
   endloop
 endfacet
 facet normal -7.670993e-01  6.413755e-01 -1.400424e-02
   outer loop
     vertex -2.692429e+02  6.026320e+02 -3.000031e+02
     vertex -2.663665e+02  6.054816e+02 -3.270507e+02
     vertex -2.699353e+02  6.017993e+02 -3.002094e+02
   endloop
 endfacet
 facet normal -7.892750e-01  6.136892e-01 -2.075090e-02
   outer loop
     vertex -2.685814e+02  6.034896e+02 -2.997975e+02
     vertex -2.650126e+02  6.071719e+02 -3.266388e+02
     vertex -2.656741e+02  6.063143e+02 -3.268444e+02
   endloop
 endfacet
 facet normal -7.892750e-01  6.136892e-01 -2.075090e-02
   outer loop
     vertex -2.685814e+02  6.034896e+02 -2.997975e+02
     vertex -2.656741e+02  6.063143e+02 -3.268444e+02
     vertex -2.692429e+02  6.026320e+02 -3.000031e+02
   endloop
 endfacet
 facet normal -8.104216e-01  5.852028e-01 -2.747050e-02
   outer loop
     vertex -2.679519e+02  6.043711e+02 -2.995928e+02
     vertex -2.643831e+02  6.080534e+02 -3.264342e+02
     vertex -2.650126e+02  6.071719e+02 -3.266388e+02
   endloop
 endfacet
 facet normal -8.104216e-01  5.852028e-01 -2.747050e-02
   outer loop
     vertex -2.679519e+02  6.043711e+02 -2.995928e+02
     vertex -2.650126e+02  6.071719e+02 -3.266388e+02
     vertex -2.685814e+02  6.034896e+02 -2.997975e+02
   endloop
 endfacet
 facet normal -8.305115e-01  5.559533e-01 -3.415429e-02
   outer loop
     vertex -2.673549e+02  6.052753e+02 -2.993894e+02
     vertex -2.637861e+02  6.089576e+02 -3.262308e+02
     vertex -2.643831e+02  6.080534e+02 -3.264342e+02
   endloop
 endfacet
 facet normal -8.305115e-01  5.559533e-01 -3.415429e-02
   outer loop
     vertex -2.673549e+02  6.052753e+02 -2.993894e+02
     vertex -2.643831e+02  6.080534e+02 -3.264342e+02
     vertex -2.679519e+02  6.043711e+02 -2.995928e+02
   endloop
 endfacet
 facet normal -8.495187e-01  5.259790e-01 -4.079354e-02
   outer loop
     vertex -2.667914e+02  6.062011e+02 -2.991875e+02
     vertex -2.632226e+02  6.098834e+02 -3.260289e+02
     vertex -2.637861e+02  6.089576e+02 -3.262308e+02
   endloop
 endfacet
 facet normal -8.495187e-01  5.259790e-01 -4.079354e-02
   outer loop
     vertex -2.667914e+02  6.062011e+02 -2.991875e+02
     vertex -2.637861e+02  6.089576e+02 -3.262308e+02
     vertex -2.673549e+02  6.052753e+02 -2.993894e+02
   endloop
 endfacet
 facet normal -8.674182e-01  4.953190e-01 -4.737961e-02
   outer loop
     vertex -2.662621e+02  6.071472e+02 -2.989873e+02
     vertex -2.626933e+02  6.108295e+02 -3.258287e+02
     vertex -2.632226e+02  6.098834e+02 -3.260289e+02
   endloop
 endfacet
 facet normal -8.674182e-01  4.953190e-01 -4.737961e-02
   outer loop
     vertex -2.662621e+02  6.071472e+02 -2.989873e+02
     vertex -2.632226e+02  6.098834e+02 -3.260289e+02
     vertex -2.667914e+02  6.062011e+02 -2.991875e+02
   endloop
 endfacet
 facet normal -8.841868e-01  4.640131e-01 -5.390391e-02
   outer loop
     vertex -2.657677e+02  6.081124e+02 -2.987892e+02
     vertex -2.626933e+02  6.108295e+02 -3.258287e+02
     vertex -2.662621e+02  6.071472e+02 -2.989873e+02
   endloop
 endfacet
 facet normal -8.841868e-01  4.640131e-01 -5.390391e-02
   outer loop
     vertex -2.657677e+02  6.081124e+02 -2.987892e+02
     vertex -2.621989e+02  6.117947e+02 -3.256305e+02
     vertex -2.626933e+02  6.108295e+02 -3.258287e+02
   endloop
 endfacet
 facet normal -8.998025e-01  4.321022e-01 -6.035793e-02
   outer loop
     vertex -2.653088e+02  6.090954e+02 -2.985933e+02
     vertex -2.621989e+02  6.117947e+02 -3.256305e+02
     vertex -2.657677e+02  6.081124e+02 -2.987892e+02
   endloop
 endfacet
 facet normal -8.998025e-01  4.321022e-01 -6.035793e-02
   outer loop
     vertex -2.653088e+02  6.090954e+02 -2.985933e+02
     vertex -2.617400e+02  6.127777e+02 -3.254347e+02
     vertex -2.621989e+02  6.117947e+02 -3.256305e+02
   endloop
 endfacet
 facet normal -9.142451e-01  3.996280e-01 -6.673325e-02
   outer loop
     vertex -2.648859e+02  6.100950e+02 -2.984000e+02
     vertex -2.617400e+02  6.127777e+02 -3.254347e+02
     vertex -2.653088e+02  6.090954e+02 -2.985933e+02
   endloop
 endfacet
 facet normal -9.142451e-01  3.996280e-01 -6.673325e-02
   outer loop
     vertex -2.648859e+02  6.100950e+02 -2.984000e+02
     vertex -2.613171e+02  6.137773e+02 -3.252413e+02
     vertex -2.617400e+02  6.127777e+02 -3.254347e+02
   endloop
 endfacet
 facet normal -9.274957e-01  3.666327e-01 -7.302156e-02
   outer loop
     vertex -2.644998e+02  6.111098e+02 -2.982094e+02
     vertex -2.613171e+02  6.137773e+02 -3.252413e+02
     vertex -2.648859e+02  6.100950e+02 -2.984000e+02
   endloop
 endfacet
 facet normal -9.274957e-01  3.666327e-01 -7.302156e-02
   outer loop
     vertex -2.644998e+02  6.111098e+02 -2.982094e+02
     vertex -2.609310e+02  6.147921e+02 -3.250508e+02
     vertex -2.613171e+02  6.137773e+02 -3.252413e+02
   endloop
 endfacet
 facet normal -9.395370e-01  3.331594e-01 -7.921467e-02
   outer loop
     vertex -2.641508e+02  6.121386e+02 -2.980219e+02
     vertex -2.609310e+02  6.147921e+02 -3.250508e+02
     vertex -2.644998e+02  6.111098e+02 -2.982094e+02
   endloop
 endfacet
 facet normal -9.395370e-01  3.331594e-01 -7.921467e-02
   outer loop
     vertex -2.641508e+02  6.121386e+02 -2.980219e+02
     vertex -2.605820e+02  6.158209e+02 -3.248632e+02
     vertex -2.609310e+02  6.147921e+02 -3.250508e+02
   endloop
 endfacet
 facet normal -9.503534e-01  2.992518e-01 -8.530449e-02
   outer loop
     vertex -2.638394e+02  6.131799e+02 -2.978376e+02
     vertex -2.605820e+02  6.158209e+02 -3.248632e+02
     vertex -2.641508e+02  6.121386e+02 -2.980219e+02
   endloop
 endfacet
 facet normal -9.503534e-01  2.992518e-01 -8.530449e-02
   outer loop
     vertex -2.638394e+02  6.131799e+02 -2.978376e+02
     vertex -2.602706e+02  6.168622e+02 -3.246790e+02
     vertex -2.605820e+02  6.158209e+02 -3.248632e+02
   endloop
 endfacet
 facet normal -9.599306e-01  2.649539e-01 -9.128310e-02
   outer loop
     vertex -2.635661e+02  6.142325e+02 -2.976569e+02
     vertex -2.602706e+02  6.168622e+02 -3.246790e+02
     vertex -2.638394e+02  6.131799e+02 -2.978376e+02
   endloop
 endfacet
 facet normal -9.599306e-01  2.649539e-01 -9.128310e-02
   outer loop
     vertex -2.635661e+02  6.142325e+02 -2.976569e+02
     vertex -2.599973e+02  6.179148e+02 -3.244982e+02
     vertex -2.602706e+02  6.168622e+02 -3.246790e+02
   endloop
 endfacet
 facet normal -9.682563e-01  2.303106e-01 -9.714269e-02
   outer loop
     vertex -2.633311e+02  6.152950e+02 -2.974799e+02
     vertex -2.599973e+02  6.179148e+02 -3.244982e+02
     vertex -2.635661e+02  6.142325e+02 -2.976569e+02
   endloop
 endfacet
 facet normal -9.682563e-01  2.303106e-01 -9.714269e-02
   outer loop
     vertex -2.633311e+02  6.152950e+02 -2.974799e+02
     vertex -2.597623e+02  6.189773e+02 -3.243212e+02
     vertex -2.599973e+02  6.179148e+02 -3.244982e+02
   endloop
 endfacet
 facet normal -9.753196e-01  1.953671e-01 -1.028756e-01
   outer loop
     vertex -2.631349e+02  6.163659e+02 -2.973069e+02
     vertex -2.597623e+02  6.189773e+02 -3.243212e+02
     vertex -2.633311e+02  6.152950e+02 -2.974799e+02
   endloop
 endfacet
 facet normal -9.753196e-01  1.953671e-01 -1.028756e-01
   outer loop
     vertex -2.631349e+02  6.163659e+02 -2.973069e+02
     vertex -2.595661e+02  6.200482e+02 -3.241482e+02
     vertex -2.597623e+02  6.189773e+02 -3.243212e+02
   endloop
 endfacet
 facet normal -9.811112e-01  1.601688e-01 -1.084744e-01
   outer loop
     vertex -2.629775e+02  6.174439e+02 -2.971381e+02
     vertex -2.594087e+02  6.211262e+02 -3.239794e+02
     vertex -2.595661e+02  6.200482e+02 -3.241482e+02
   endloop
 endfacet
 facet normal -9.811112e-01  1.601688e-01 -1.084744e-01
   outer loop
     vertex -2.629775e+02  6.174439e+02 -2.971381e+02
     vertex -2.595661e+02  6.200482e+02 -3.241482e+02
     vertex -2.631349e+02  6.163659e+02 -2.973069e+02
   endloop
 endfacet
 facet normal -9.856237e-01  1.247617e-01 -1.139318e-01
   outer loop
     vertex -2.628594e+02  6.185275e+02 -2.969737e+02
     vertex -2.592906e+02  6.222098e+02 -3.238150e+02
     vertex -2.594087e+02  6.211262e+02 -3.239794e+02
   endloop
 endfacet
 facet normal -9.856237e-01  1.247617e-01 -1.139318e-01
   outer loop
     vertex -2.628594e+02  6.185275e+02 -2.969737e+02
     vertex -2.594087e+02  6.211262e+02 -3.239794e+02
     vertex -2.629775e+02  6.174439e+02 -2.971381e+02
   endloop
 endfacet
 facet normal -9.888511e-01  8.919189e-02 -1.192406e-01
   outer loop
     vertex -2.627805e+02  6.196155e+02 -2.968139e+02
     vertex -2.592117e+02  6.232978e+02 -3.236553e+02
     vertex -2.592906e+02  6.222098e+02 -3.238150e+02
   endloop
 endfacet
 facet normal -9.888511e-01  8.919189e-02 -1.192406e-01
   outer loop
     vertex -2.627805e+02  6.196155e+02 -2.968139e+02
     vertex -2.592906e+02  6.222098e+02 -3.238150e+02
     vertex -2.628594e+02  6.185275e+02 -2.969737e+02
   endloop
 endfacet
 facet normal -9.907892e-01  5.350582e-02 -1.243940e-01
   outer loop
     vertex -2.627410e+02  6.207062e+02 -2.966591e+02
     vertex -2.591722e+02  6.243885e+02 -3.235004e+02
     vertex -2.592117e+02  6.232978e+02 -3.236553e+02
   endloop
 endfacet
 facet normal -9.907892e-01  5.350582e-02 -1.243940e-01
   outer loop
     vertex -2.627410e+02  6.207062e+02 -2.966591e+02
     vertex -2.592117e+02  6.232978e+02 -3.236553e+02
     vertex -2.627805e+02  6.196155e+02 -2.968139e+02
   endloop
 endfacet
 facet normal -9.914355e-01  1.774998e-02 -1.293852e-01
   outer loop
     vertex -2.627410e+02  6.217984e+02 -2.965092e+02
     vertex -2.591722e+02  6.254807e+02 -3.233506e+02
     vertex -2.591722e+02  6.243885e+02 -3.235004e+02
   endloop
 endfacet
 facet normal -9.914355e-01  1.774998e-02 -1.293852e-01
   outer loop
     vertex -2.627410e+02  6.217984e+02 -2.965092e+02
     vertex -2.591722e+02  6.243885e+02 -3.235004e+02
     vertex -2.627410e+02  6.207062e+02 -2.966591e+02
   endloop
 endfacet
 facet normal -9.907892e-01 -1.802899e-02 -1.342076e-01
   outer loop
     vertex -2.627805e+02  6.228906e+02 -2.963646e+02
     vertex -2.592117e+02  6.265729e+02 -3.232060e+02
     vertex -2.591722e+02  6.254807e+02 -3.233506e+02
   endloop
 endfacet
 facet normal -9.907892e-01 -1.802899e-02 -1.342076e-01
   outer loop
     vertex -2.627805e+02  6.228906e+02 -2.963646e+02
     vertex -2.591722e+02  6.254807e+02 -3.233506e+02
     vertex -2.627410e+02  6.217984e+02 -2.965092e+02
   endloop
 endfacet
 facet normal -9.888511e-01 -5.378446e-02 -1.388551e-01
   outer loop
     vertex -2.628594e+02  6.239814e+02 -2.962255e+02
     vertex -2.592906e+02  6.276636e+02 -3.230668e+02
     vertex -2.592117e+02  6.265729e+02 -3.232060e+02
   endloop
 endfacet
 facet normal -9.888511e-01 -5.378446e-02 -1.388551e-01
   outer loop
     vertex -2.628594e+02  6.239814e+02 -2.962255e+02
     vertex -2.592117e+02  6.265729e+02 -3.232060e+02
     vertex -2.627805e+02  6.228906e+02 -2.963646e+02
   endloop
 endfacet
 facet normal -9.856237e-01 -8.946981e-02 -1.433216e-01
   outer loop
     vertex -2.629775e+02  6.250693e+02 -2.960919e+02
     vertex -2.594087e+02  6.287515e+02 -3.229333e+02
     vertex -2.592906e+02  6.276636e+02 -3.230668e+02
   endloop
 endfacet
 facet normal -9.856237e-01 -8.946981e-02 -1.433216e-01
   outer loop
     vertex -2.629775e+02  6.250693e+02 -2.960919e+02
     vertex -2.592906e+02  6.276636e+02 -3.230668e+02
     vertex -2.628594e+02  6.239814e+02 -2.962255e+02
   endloop
 endfacet
 facet normal -9.811112e-01 -1.250385e-01 -1.476012e-01
   outer loop
     vertex -2.631349e+02  6.261529e+02 -2.959642e+02
     vertex -2.595661e+02  6.298352e+02 -3.228056e+02
     vertex -2.594087e+02  6.287515e+02 -3.229333e+02
   endloop
 endfacet
 facet normal -9.811112e-01 -1.250385e-01 -1.476012e-01
   outer loop
     vertex -2.631349e+02  6.261529e+02 -2.959642e+02
     vertex -2.594087e+02  6.287515e+02 -3.229333e+02
     vertex -2.629775e+02  6.250693e+02 -2.960919e+02
   endloop
 endfacet
 facet normal -9.753196e-01 -1.604442e-01 -1.516884e-01
   outer loop
     vertex -2.633311e+02  6.272308e+02 -2.958424e+02
     vertex -2.597623e+02  6.309131e+02 -3.226838e+02
     vertex -2.595661e+02  6.298352e+02 -3.228056e+02
   endloop
 endfacet
 facet normal -9.753196e-01 -1.604442e-01 -1.516884e-01
   outer loop
     vertex -2.633311e+02  6.272308e+02 -2.958424e+02
     vertex -2.595661e+02  6.298352e+02 -3.228056e+02
     vertex -2.631349e+02  6.261529e+02 -2.959642e+02
   endloop
 endfacet
 facet normal -9.599306e-01 -2.305821e-01 -1.592643e-01
   outer loop
     vertex -2.635661e+02  6.283017e+02 -2.957268e+02
     vertex -2.602706e+02  6.330463e+02 -3.224587e+02
     vertex -2.599973e+02  6.319840e+02 -3.225681e+02
   endloop
 endfacet
 facet normal -9.682563e-01 -1.956406e-01 -1.555777e-01
   outer loop
     vertex -2.635661e+02  6.283017e+02 -2.957268e+02
     vertex -2.599973e+02  6.319840e+02 -3.225681e+02
     vertex -2.597623e+02  6.309131e+02 -3.226838e+02
   endloop
 endfacet
 facet normal -9.682563e-01 -1.956406e-01 -1.555777e-01
   outer loop
     vertex -2.635661e+02  6.283017e+02 -2.957268e+02
     vertex -2.597623e+02  6.309131e+02 -3.226838e+02
     vertex -2.633311e+02  6.272308e+02 -2.958424e+02
   endloop
 endfacet
 facet normal -9.599306e-01 -2.305821e-01 -1.592643e-01
   outer loop
     vertex -2.638394e+02  6.293641e+02 -2.956174e+02
     vertex -2.602706e+02  6.330463e+02 -3.224587e+02
     vertex -2.635661e+02  6.283017e+02 -2.957268e+02
   endloop
 endfacet
 facet normal -9.503534e-01 -2.652228e-01 -1.627432e-01
   outer loop
     vertex -2.641508e+02  6.304166e+02 -2.955144e+02
     vertex -2.605820e+02  6.340989e+02 -3.223557e+02
     vertex -2.602706e+02  6.330463e+02 -3.224587e+02
   endloop
 endfacet
 facet normal -9.503534e-01 -2.652228e-01 -1.627432e-01
   outer loop
     vertex -2.641508e+02  6.304166e+02 -2.955144e+02
     vertex -2.602706e+02  6.330463e+02 -3.224587e+02
     vertex -2.638394e+02  6.293641e+02 -2.956174e+02
   endloop
 endfacet
 facet normal -9.395370e-01 -2.995178e-01 -1.660099e-01
   outer loop
     vertex -2.644998e+02  6.314578e+02 -2.954179e+02
     vertex -2.609310e+02  6.351401e+02 -3.222593e+02
     vertex -2.605820e+02  6.340989e+02 -3.223557e+02
   endloop
 endfacet
 facet normal -9.395370e-01 -2.995178e-01 -1.660099e-01
   outer loop
     vertex -2.644998e+02  6.314578e+02 -2.954179e+02
     vertex -2.605820e+02  6.340989e+02 -3.223557e+02
     vertex -2.641508e+02  6.304166e+02 -2.955144e+02
   endloop
 endfacet
 facet normal -9.274957e-01 -3.334222e-01 -1.690601e-01
   outer loop
     vertex -2.648859e+02  6.324865e+02 -2.953281e+02
     vertex -2.613171e+02  6.361688e+02 -3.221695e+02
     vertex -2.609310e+02  6.351401e+02 -3.222593e+02
   endloop
 endfacet
 facet normal -9.274957e-01 -3.334222e-01 -1.690601e-01
   outer loop
     vertex -2.648859e+02  6.324865e+02 -2.953281e+02
     vertex -2.609310e+02  6.351401e+02 -3.222593e+02
     vertex -2.644998e+02  6.314578e+02 -2.954179e+02
   endloop
 endfacet
 facet normal -8.998025e-01 -3.998833e-01 -1.744957e-01
   outer loop
     vertex -2.653088e+02  6.335012e+02 -2.952451e+02
     vertex -2.621989e+02  6.381830e+02 -3.220104e+02
     vertex -2.617400e+02  6.371835e+02 -3.220865e+02
   endloop
 endfacet
 facet normal -9.142451e-01 -3.668920e-01 -1.718899e-01
   outer loop
     vertex -2.653088e+02  6.335012e+02 -2.952451e+02
     vertex -2.617400e+02  6.371835e+02 -3.220865e+02
     vertex -2.613171e+02  6.361688e+02 -3.221695e+02
   endloop
 endfacet
 facet normal -9.142451e-01 -3.668920e-01 -1.718899e-01
   outer loop
     vertex -2.653088e+02  6.335012e+02 -2.952451e+02
     vertex -2.613171e+02  6.361688e+02 -3.221695e+02
     vertex -2.648859e+02  6.324865e+02 -2.953281e+02
   endloop
 endfacet
 facet normal -8.998025e-01 -3.998833e-01 -1.744957e-01
   outer loop
     vertex -2.657677e+02  6.345007e+02 -2.951691e+02
     vertex -2.621989e+02  6.381830e+02 -3.220104e+02
     vertex -2.653088e+02  6.335012e+02 -2.952451e+02
   endloop
 endfacet
 facet normal -8.841868e-01 -4.323533e-01 -1.768739e-01
   outer loop
     vertex -2.662621e+02  6.354836e+02 -2.951000e+02
     vertex -2.621989e+02  6.381830e+02 -3.220104e+02
     vertex -2.657677e+02  6.345007e+02 -2.951691e+02
   endloop
 endfacet
 facet normal -8.841868e-01 -4.323533e-01 -1.768739e-01
   outer loop
     vertex -2.662621e+02  6.354836e+02 -2.951000e+02
     vertex -2.626933e+02  6.391658e+02 -3.219413e+02
     vertex -2.621989e+02  6.381830e+02 -3.220104e+02
   endloop
 endfacet
 facet normal -8.674182e-01 -4.642596e-01 -1.790215e-01
   outer loop
     vertex -2.667914e+02  6.364486e+02 -2.950379e+02
     vertex -2.626933e+02  6.391658e+02 -3.219413e+02
     vertex -2.662621e+02  6.354836e+02 -2.951000e+02
   endloop
 endfacet
 facet normal -8.674182e-01 -4.642596e-01 -1.790215e-01
   outer loop
     vertex -2.667914e+02  6.364486e+02 -2.950379e+02
     vertex -2.632226e+02  6.401309e+02 -3.218793e+02
     vertex -2.626933e+02  6.391658e+02 -3.219413e+02
   endloop
 endfacet
 facet normal -8.495187e-01 -4.955606e-01 -1.809357e-01
   outer loop
     vertex -2.673549e+02  6.373945e+02 -2.949831e+02
     vertex -2.632226e+02  6.401309e+02 -3.218793e+02
     vertex -2.667914e+02  6.364486e+02 -2.950379e+02
   endloop
 endfacet
 facet normal -8.495187e-01 -4.955606e-01 -1.809357e-01
   outer loop
     vertex -2.673549e+02  6.373945e+02 -2.949831e+02
     vertex -2.637861e+02  6.410768e+02 -3.218244e+02
     vertex -2.632226e+02  6.401309e+02 -3.218793e+02
   endloop
 endfacet
 facet normal -8.305115e-01 -5.262155e-01 -1.826140e-01
   outer loop
     vertex -2.679519e+02  6.383201e+02 -2.949355e+02
     vertex -2.637861e+02  6.410768e+02 -3.218244e+02
     vertex -2.673549e+02  6.373945e+02 -2.949831e+02
   endloop
 endfacet
 facet normal -8.305115e-01 -5.262155e-01 -1.826140e-01
   outer loop
     vertex -2.679519e+02  6.383201e+02 -2.949355e+02
     vertex -2.643831e+02  6.420024e+02 -3.217768e+02
     vertex -2.637861e+02  6.410768e+02 -3.218244e+02
   endloop
 endfacet
 facet normal -8.104216e-01 -5.561843e-01 -1.840541e-01
   outer loop
     vertex -2.685814e+02  6.392242e+02 -2.948952e+02
     vertex -2.650126e+02  6.429065e+02 -3.217365e+02
     vertex -2.643831e+02  6.420024e+02 -3.217768e+02
   endloop
 endfacet
 facet normal -8.104216e-01 -5.561843e-01 -1.840541e-01
   outer loop
     vertex -2.685814e+02  6.392242e+02 -2.948952e+02
     vertex -2.643831e+02  6.420024e+02 -3.217768e+02
     vertex -2.679519e+02  6.383201e+02 -2.949355e+02
   endloop
 endfacet
 facet normal -7.892750e-01 -5.854279e-01 -1.852544e-01
   outer loop
     vertex -2.692429e+02  6.401055e+02 -2.948622e+02
     vertex -2.656741e+02  6.437878e+02 -3.217036e+02
     vertex -2.650126e+02  6.429065e+02 -3.217365e+02
   endloop
 endfacet
 facet normal -7.892750e-01 -5.854279e-01 -1.852544e-01
   outer loop
     vertex -2.692429e+02  6.401055e+02 -2.948622e+02
     vertex -2.650126e+02  6.429065e+02 -3.217365e+02
     vertex -2.685814e+02  6.392242e+02 -2.948952e+02
   endloop
 endfacet
 facet normal -7.670993e-01 -6.139083e-01 -1.862131e-01
   outer loop
     vertex -2.699353e+02  6.409629e+02 -2.948366e+02
     vertex -2.663665e+02  6.446452e+02 -3.216780e+02
     vertex -2.656741e+02  6.437878e+02 -3.217036e+02
   endloop
 endfacet
 facet normal -7.670993e-01 -6.139083e-01 -1.862131e-01
   outer loop
     vertex -2.699353e+02  6.409629e+02 -2.948366e+02
     vertex -2.656741e+02  6.437878e+02 -3.217036e+02
     vertex -2.692429e+02  6.401055e+02 -2.948622e+02
   endloop
 endfacet
 facet normal -7.439235e-01 -6.415882e-01 -1.869290e-01
   outer loop
     vertex -2.706578e+02  6.417954e+02 -2.948185e+02
     vertex -2.670890e+02  6.454777e+02 -3.216599e+02
     vertex -2.663665e+02  6.446452e+02 -3.216780e+02
   endloop
 endfacet
 facet normal -7.439235e-01 -6.415882e-01 -1.869290e-01
   outer loop
     vertex -2.706578e+02  6.417954e+02 -2.948185e+02
     vertex -2.663665e+02  6.446452e+02 -3.216780e+02
     vertex -2.699353e+02  6.409629e+02 -2.948366e+02
   endloop
 endfacet
 facet normal -7.197777e-01 -6.684316e-01 -1.874011e-01
   outer loop
     vertex -2.714094e+02  6.426018e+02 -2.948078e+02
     vertex -2.678406e+02  6.462841e+02 -3.216492e+02
     vertex -2.670890e+02  6.454777e+02 -3.216599e+02
   endloop
 endfacet
 facet normal -7.197777e-01 -6.684316e-01 -1.874011e-01
   outer loop
     vertex -2.714094e+02  6.426018e+02 -2.948078e+02
     vertex -2.670890e+02  6.454777e+02 -3.216599e+02
     vertex -2.706578e+02  6.417954e+02 -2.948185e+02
   endloop
 endfacet
 facet normal -6.946935e-01 -6.944035e-01 -1.876290e-01
   outer loop
     vertex -2.721892e+02  6.433810e+02 -2.948046e+02
     vertex -2.686204e+02  6.470633e+02 -3.216459e+02
     vertex -2.678406e+02  6.462841e+02 -3.216492e+02
   endloop
 endfacet
 facet normal -6.946935e-01 -6.944035e-01 -1.876290e-01
   outer loop
     vertex -2.721892e+02  6.433810e+02 -2.948046e+02
     vertex -2.678406e+02  6.462841e+02 -3.216492e+02
     vertex -2.714094e+02  6.426018e+02 -2.948078e+02
   endloop
 endfacet
 facet normal -6.687036e-01 -7.194701e-01 -1.876122e-01
   outer loop
     vertex -2.729962e+02  6.441321e+02 -2.948088e+02
     vertex -2.694274e+02  6.478144e+02 -3.216502e+02
     vertex -2.686204e+02  6.470633e+02 -3.216459e+02
   endloop
 endfacet
 facet normal -6.687036e-01 -7.194701e-01 -1.876122e-01
   outer loop
     vertex -2.729962e+02  6.441321e+02 -2.948088e+02
     vertex -2.686204e+02  6.470633e+02 -3.216459e+02
     vertex -2.721892e+02  6.433810e+02 -2.948046e+02
   endloop
 endfacet
 facet normal -6.418418e-01 -7.435986e-01 -1.873508e-01
   outer loop
     vertex -2.738292e+02  6.448541e+02 -2.948205e+02
     vertex -2.702604e+02  6.485364e+02 -3.216619e+02
     vertex -2.694274e+02  6.478144e+02 -3.216502e+02
   endloop
 endfacet
 facet normal -6.418418e-01 -7.435986e-01 -1.873508e-01
   outer loop
     vertex -2.738292e+02  6.448541e+02 -2.948205e+02
     vertex -2.694274e+02  6.478144e+02 -3.216502e+02
     vertex -2.729962e+02  6.441321e+02 -2.948088e+02
   endloop
 endfacet
 facet normal -6.141431e-01 -7.667575e-01 -1.868451e-01
   outer loop
     vertex -2.746872e+02  6.455460e+02 -2.948397e+02
     vertex -2.711184e+02  6.492283e+02 -3.216811e+02
     vertex -2.702604e+02  6.485364e+02 -3.216619e+02
   endloop
 endfacet
 facet normal -6.141431e-01 -7.667575e-01 -1.868451e-01
   outer loop
     vertex -2.746872e+02  6.455460e+02 -2.948397e+02
     vertex -2.702604e+02  6.485364e+02 -3.216619e+02
     vertex -2.738292e+02  6.448541e+02 -2.948205e+02
   endloop
 endfacet
 facet normal -5.856437e-01 -7.889168e-01 -1.860958e-01
   outer loop
     vertex -2.755691e+02  6.462070e+02 -2.948663e+02
     vertex -2.720003e+02  6.498893e+02 -3.217076e+02
     vertex -2.711184e+02  6.492283e+02 -3.216811e+02
   endloop
 endfacet
 facet normal -5.856437e-01 -7.889168e-01 -1.860958e-01
   outer loop
     vertex -2.755691e+02  6.462070e+02 -2.948663e+02
     vertex -2.711184e+02  6.492283e+02 -3.216811e+02
     vertex -2.746872e+02  6.455460e+02 -2.948397e+02
   endloop
 endfacet
 facet normal -5.563808e-01 -8.100475e-01 -1.851039e-01
   outer loop
     vertex -2.764738e+02  6.468361e+02 -2.949003e+02
     vertex -2.729050e+02  6.505184e+02 -3.217416e+02
     vertex -2.720003e+02  6.498893e+02 -3.217076e+02
   endloop
 endfacet
 facet normal -5.563808e-01 -8.100475e-01 -1.851039e-01
   outer loop
     vertex -2.764738e+02  6.468361e+02 -2.949003e+02
     vertex -2.720003e+02  6.498893e+02 -3.217076e+02
     vertex -2.755691e+02  6.462070e+02 -2.948663e+02
   endloop
 endfacet
 facet normal -5.263924e-01 -8.301220e-01 -1.838707e-01
   outer loop
     vertex -2.774000e+02  6.474326e+02 -2.949416e+02
     vertex -2.738312e+02  6.511148e+02 -3.217829e+02
     vertex -2.729050e+02  6.505184e+02 -3.217416e+02
   endloop
 endfacet
 facet normal -5.263924e-01 -8.301220e-01 -1.838707e-01
   outer loop
     vertex -2.774000e+02  6.474326e+02 -2.949416e+02
     vertex -2.729050e+02  6.505184e+02 -3.217416e+02
     vertex -2.764738e+02  6.468361e+02 -2.949003e+02
   endloop
 endfacet
 facet normal -4.957178e-01 -8.491142e-01 -1.823977e-01
   outer loop
     vertex -2.783465e+02  6.479956e+02 -2.949902e+02
     vertex -2.747777e+02  6.516779e+02 -3.218315e+02
     vertex -2.738312e+02  6.511148e+02 -3.217829e+02
   endloop
 endfacet
 facet normal -4.957178e-01 -8.491142e-01 -1.823977e-01
   outer loop
     vertex -2.783465e+02  6.479956e+02 -2.949902e+02
     vertex -2.738312e+02  6.511148e+02 -3.217829e+02
     vertex -2.774000e+02  6.474326e+02 -2.949416e+02
   endloop
 endfacet
 facet normal -4.324703e-01 -8.837541e-01 -1.787405e-01
   outer loop
     vertex -2.793122e+02  6.485245e+02 -2.950460e+02
     vertex -2.767269e+02  6.527008e+02 -3.219504e+02
     vertex -2.757434e+02  6.522068e+02 -3.218874e+02
   endloop
 endfacet
 facet normal -4.643968e-01 -8.669994e-01 -1.806869e-01
   outer loop
     vertex -2.793122e+02  6.485245e+02 -2.950460e+02
     vertex -2.757434e+02  6.522068e+02 -3.218874e+02
     vertex -2.747777e+02  6.516779e+02 -3.218315e+02
   endloop
 endfacet
 facet normal -4.643968e-01 -8.669994e-01 -1.806869e-01
   outer loop
     vertex -2.793122e+02  6.485245e+02 -2.950460e+02
     vertex -2.747777e+02  6.516779e+02 -3.218315e+02
     vertex -2.783465e+02  6.479956e+02 -2.949902e+02
   endloop
 endfacet
 facet normal -4.324703e-01 -8.837541e-01 -1.787405e-01
   outer loop
     vertex -2.802957e+02  6.490185e+02 -2.951090e+02
     vertex -2.767269e+02  6.527008e+02 -3.219504e+02
     vertex -2.793122e+02  6.485245e+02 -2.950460e+02
   endloop
 endfacet
 facet normal -3.999800e-01 -8.993566e-01 -1.765611e-01
   outer loop
     vertex -2.812958e+02  6.494770e+02 -2.951791e+02
     vertex -2.767269e+02  6.527008e+02 -3.219504e+02
     vertex -2.802957e+02  6.490185e+02 -2.951090e+02
   endloop
 endfacet
 facet normal -3.999800e-01 -8.993566e-01 -1.765611e-01
   outer loop
     vertex -2.812958e+02  6.494770e+02 -2.951791e+02
     vertex -2.777270e+02  6.531593e+02 -3.220204e+02
     vertex -2.767269e+02  6.527008e+02 -3.219504e+02
   endloop
 endfacet
 facet normal -3.669681e-01 -9.137864e-01 -1.741515e-01
   outer loop
     vertex -2.823111e+02  6.498995e+02 -2.952561e+02
     vertex -2.777270e+02  6.531593e+02 -3.220204e+02
     vertex -2.812958e+02  6.494770e+02 -2.951791e+02
   endloop
 endfacet
 facet normal -3.669681e-01 -9.137864e-01 -1.741515e-01
   outer loop
     vertex -2.823111e+02  6.498995e+02 -2.952561e+02
     vertex -2.787423e+02  6.535818e+02 -3.220975e+02
     vertex -2.777270e+02  6.531593e+02 -3.220204e+02
   endloop
 endfacet
 facet normal -3.334778e-01 -9.270249e-01 -1.715148e-01
   outer loop
     vertex -2.833404e+02  6.502853e+02 -2.953401e+02
     vertex -2.787423e+02  6.535818e+02 -3.220975e+02
     vertex -2.823111e+02  6.498995e+02 -2.952561e+02
   endloop
 endfacet
 facet normal -2.995527e-01 -9.390547e-01 -1.686545e-01
   outer loop
     vertex -2.833404e+02  6.502853e+02 -2.953401e+02
     vertex -2.808135e+02  6.543162e+02 -3.222721e+02
     vertex -2.797716e+02  6.539676e+02 -3.221814e+02
   endloop
 endfacet
 facet normal -3.334778e-01 -9.270249e-01 -1.715148e-01
   outer loop
     vertex -2.833404e+02  6.502853e+02 -2.953401e+02
     vertex -2.797716e+02  6.539676e+02 -3.221814e+02
     vertex -2.787423e+02  6.535818e+02 -3.220975e+02
   endloop
 endfacet
 facet normal -2.995527e-01 -9.390547e-01 -1.686545e-01
   outer loop
     vertex -2.843823e+02  6.506339e+02 -2.954308e+02
     vertex -2.808135e+02  6.543162e+02 -3.222721e+02
     vertex -2.833404e+02  6.502853e+02 -2.953401e+02
   endloop
 endfacet
 facet normal -2.305756e-01 -9.594273e-01 -1.622782e-01
   outer loop
     vertex -2.854354e+02  6.509450e+02 -2.955281e+02
     vertex -2.829296e+02  6.549003e+02 -3.224733e+02
     vertex -2.818666e+02  6.546272e+02 -3.223695e+02
   endloop
 endfacet
 facet normal -2.652371e-01 -9.498602e-01 -1.655743e-01
   outer loop
     vertex -2.854354e+02  6.509450e+02 -2.955281e+02
     vertex -2.818666e+02  6.546272e+02 -3.223695e+02
     vertex -2.808135e+02  6.543162e+02 -3.222721e+02
   endloop
 endfacet
 facet normal -2.652371e-01 -9.498602e-01 -1.655743e-01
   outer loop
     vertex -2.854354e+02  6.509450e+02 -2.955281e+02
     vertex -2.808135e+02  6.543162e+02 -3.222721e+02
     vertex -2.843823e+02  6.506339e+02 -2.954308e+02
   endloop
 endfacet
 facet normal -2.305756e-01 -9.594273e-01 -1.622782e-01
   outer loop
     vertex -2.864984e+02  6.512180e+02 -2.956320e+02
     vertex -2.829296e+02  6.549003e+02 -3.224733e+02
     vertex -2.854354e+02  6.509450e+02 -2.955281e+02
   endloop
 endfacet
 facet normal -1.956136e-01 -9.677434e-01 -1.587705e-01
   outer loop
     vertex -2.864984e+02  6.512180e+02 -2.956320e+02
     vertex -2.840011e+02  6.551350e+02 -3.225836e+02
     vertex -2.829296e+02  6.549003e+02 -3.224733e+02
   endloop
 endfacet
 facet normal -1.956136e-01 -9.677434e-01 -1.587705e-01
   outer loop
     vertex -2.875699e+02  6.514527e+02 -2.957423e+02
     vertex -2.840011e+02  6.551350e+02 -3.225836e+02
     vertex -2.864984e+02  6.512180e+02 -2.956320e+02
   endloop
 endfacet
 facet normal -1.603964e-01 -9.747978e-01 -1.550559e-01
   outer loop
     vertex -2.886485e+02  6.516487e+02 -2.958588e+02
     vertex -2.840011e+02  6.551350e+02 -3.225836e+02
     vertex -2.875699e+02  6.514527e+02 -2.957423e+02
   endloop
 endfacet
 facet normal -1.249702e-01 -9.805812e-01 -1.511390e-01
   outer loop
     vertex -2.886485e+02  6.516487e+02 -2.958588e+02
     vertex -2.861639e+02  6.554880e+02 -3.228227e+02
     vertex -2.850797e+02  6.553310e+02 -3.227001e+02
   endloop
 endfacet
 facet normal -1.603964e-01 -9.747978e-01 -1.550559e-01
   outer loop
     vertex -2.886485e+02  6.516487e+02 -2.958588e+02
     vertex -2.850797e+02  6.553310e+02 -3.227001e+02
     vertex -2.840011e+02  6.551350e+02 -3.225836e+02
   endloop
 endfacet
 facet normal -1.249702e-01 -9.805812e-01 -1.511390e-01
   outer loop
     vertex -2.897327e+02  6.518058e+02 -2.959814e+02
     vertex -2.861639e+02  6.554880e+02 -3.228227e+02
     vertex -2.886485e+02  6.516487e+02 -2.958588e+02
   endloop
 endfacet
 facet normal -8.938097e-02 -9.850861e-01 -1.470252e-01
   outer loop
     vertex -2.897327e+02  6.518058e+02 -2.959814e+02
     vertex -2.872525e+02  6.556060e+02 -3.229513e+02
     vertex -2.861639e+02  6.554880e+02 -3.228227e+02
   endloop
 endfacet
 facet normal -8.938097e-02 -9.850861e-01 -1.470252e-01
   outer loop
     vertex -2.908213e+02  6.519237e+02 -2.961099e+02
     vertex -2.872525e+02  6.556060e+02 -3.229513e+02
     vertex -2.897327e+02  6.518058e+02 -2.959814e+02
   endloop
 endfacet
 facet normal -5.367524e-02 -9.883067e-01 -1.427196e-01
   outer loop
     vertex -2.908213e+02  6.519237e+02 -2.961099e+02
     vertex -2.883438e+02  6.556847e+02 -3.230856e+02
     vertex -2.872525e+02  6.556060e+02 -3.229513e+02
   endloop
 endfacet
 facet normal -5.367524e-02 -9.883067e-01 -1.427196e-01
   outer loop
     vertex -2.919126e+02  6.520024e+02 -2.962443e+02
     vertex -2.883438e+02  6.556847e+02 -3.230856e+02
     vertex -2.908213e+02  6.519237e+02 -2.961099e+02
   endloop
 endfacet
 facet normal -1.789953e-02 -9.902387e-01 -1.382279e-01
   outer loop
     vertex -2.919126e+02  6.520024e+02 -2.962443e+02
     vertex -2.894366e+02  6.557239e+02 -3.232255e+02
     vertex -2.883438e+02  6.556847e+02 -3.230856e+02
   endloop
 endfacet
 facet normal -1.789953e-02 -9.902387e-01 -1.382279e-01
   outer loop
     vertex -2.930054e+02  6.520417e+02 -2.963842e+02
     vertex -2.894366e+02  6.557239e+02 -3.232255e+02
     vertex -2.919126e+02  6.520024e+02 -2.962443e+02
   endloop
 endfacet
endsolid
