solid 
 facet normal -2.744170e-01 -8.164877e-01 -5.079795e-01
   outer loop
     vertex -2.310671e+02  6.739906e+02 -5.590787e+02
     vertex -2.397550e+02  6.737193e+02 -5.539493e+02
     vertex -2.405407e+02  6.747765e+02 -5.552241e+02
   endloop
 endfacet
 facet normal -2.744170e-01 -8.164877e-01 -5.079795e-01
   outer loop
     vertex -2.318528e+02  6.750478e+02 -5.603535e+02
     vertex -2.310671e+02  6.739906e+02 -5.590787e+02
     vertex -2.405407e+02  6.747765e+02 -5.552241e+02
   endloop
 endfacet
endsolid
