solid 
 facet normal  8.186095e-01 -5.735849e-01  2.964538e-02
   outer loop
     vertex -2.277480e+02  6.759491e+02 -5.709347e+02
     vertex -2.278591e+02  6.758272e+02 -5.702280e+02
     vertex -2.282353e+02  6.752033e+02 -5.719101e+02
   endloop
 endfacet
 facet normal  8.189859e-01 -5.730394e-01  2.979868e-02
   outer loop
     vertex -2.277480e+02  6.759491e+02 -5.709347e+02
     vertex -2.276809e+02  6.760760e+02 -5.703399e+02
     vertex -2.278591e+02  6.758272e+02 -5.702280e+02
   endloop
 endfacet
 facet normal  8.118530e-01 -5.829446e-01  3.271547e-02
   outer loop
     vertex -2.277480e+02  6.759491e+02 -5.709347e+02
     vertex -2.274941e+02  6.763318e+02 -5.704161e+02
     vertex -2.276809e+02  6.760760e+02 -5.703399e+02
   endloop
 endfacet
 facet normal  8.045531e-01 -5.928677e-01  3.467416e-02
   outer loop
     vertex -2.274994e+02  6.762888e+02 -5.710291e+02
     vertex -2.273012e+02  6.765914e+02 -5.704557e+02
     vertex -2.274941e+02  6.763318e+02 -5.704161e+02
   endloop
 endfacet
 facet normal  8.109676e-01 -5.841022e-01  3.400318e-02
   outer loop
     vertex -2.274994e+02  6.762888e+02 -5.710291e+02
     vertex -2.274941e+02  6.763318e+02 -5.704161e+02
     vertex -2.277480e+02  6.759491e+02 -5.709347e+02
   endloop
 endfacet
 facet normal  8.141158e-01 -5.797800e-01  3.272177e-02
   outer loop
     vertex -2.278318e+02  6.757993e+02 -5.715211e+02
     vertex -2.280026e+02  6.755289e+02 -5.720616e+02
     vertex -2.277604e+02  6.758625e+02 -5.721759e+02
   endloop
 endfacet
 facet normal  8.193165e-01 -5.726803e-01  2.752615e-02
   outer loop
     vertex -2.278318e+02  6.757993e+02 -5.715211e+02
     vertex -2.282353e+02  6.752033e+02 -5.719101e+02
     vertex -2.280026e+02  6.755289e+02 -5.720616e+02
   endloop
 endfacet
 facet normal  8.186095e-01 -5.735849e-01  2.964538e-02
   outer loop
     vertex -2.278318e+02  6.757993e+02 -5.715211e+02
     vertex -2.277480e+02  6.759491e+02 -5.709347e+02
     vertex -2.282353e+02  6.752033e+02 -5.719101e+02
   endloop
 endfacet
 facet normal  7.970995e-01 -6.028165e-01  3.527952e-02
   outer loop
     vertex -2.272426e+02  6.766329e+02 -5.710704e+02
     vertex -2.271046e+02  6.768512e+02 -5.704581e+02
     vertex -2.273012e+02  6.765914e+02 -5.704557e+02
   endloop
 endfacet
 facet normal  8.029105e-01 -5.949896e-01  3.636185e-02
   outer loop
     vertex -2.272426e+02  6.766329e+02 -5.710704e+02
     vertex -2.273012e+02  6.765914e+02 -5.704557e+02
     vertex -2.274994e+02  6.762888e+02 -5.710291e+02
   endloop
 endfacet
 facet normal  8.083066e-01 -5.877284e-01  3.486759e-02
   outer loop
     vertex -2.275394e+02  6.761987e+02 -5.716321e+02
     vertex -2.277604e+02  6.758625e+02 -5.721759e+02
     vertex -2.275107e+02  6.762015e+02 -5.722521e+02
   endloop
 endfacet
 facet normal  8.109113e-01 -5.842117e-01  3.346066e-02
   outer loop
     vertex -2.275394e+02  6.761987e+02 -5.716321e+02
     vertex -2.274994e+02  6.762888e+02 -5.710291e+02
     vertex -2.277480e+02  6.759491e+02 -5.709347e+02
   endloop
 endfacet
 facet normal  8.107474e-01 -5.845265e-01  3.189616e-02
   outer loop
     vertex -2.275394e+02  6.761987e+02 -5.716321e+02
     vertex -2.278318e+02  6.757993e+02 -5.715211e+02
     vertex -2.277604e+02  6.758625e+02 -5.721759e+02
   endloop
 endfacet
 facet normal  8.109113e-01 -5.842117e-01  3.346066e-02
   outer loop
     vertex -2.275394e+02  6.761987e+02 -5.716321e+02
     vertex -2.277480e+02  6.759491e+02 -5.709347e+02
     vertex -2.278318e+02  6.757993e+02 -5.715211e+02
   endloop
 endfacet
 facet normal  7.895773e-01 -6.126789e-01  3.452952e-02
   outer loop
     vertex -2.269815e+02  6.769760e+02 -5.710579e+02
     vertex -2.269069e+02  6.771079e+02 -5.704233e+02
     vertex -2.271046e+02  6.768512e+02 -5.704581e+02
   endloop
 endfacet
 facet normal  7.946273e-01 -6.059714e-01  3.696182e-02
   outer loop
     vertex -2.269815e+02  6.769760e+02 -5.710579e+02
     vertex -2.271046e+02  6.768512e+02 -5.704581e+02
     vertex -2.272426e+02  6.766329e+02 -5.710704e+02
   endloop
 endfacet
 facet normal  7.963179e-01 -6.037900e-01  3.626957e-02
   outer loop
     vertex -2.272374e+02  6.766034e+02 -5.716806e+02
     vertex -2.272555e+02  6.765428e+02 -5.722895e+02
     vertex -2.269971e+02  6.768838e+02 -5.722878e+02
   endloop
 endfacet
 facet normal  8.023365e-01 -5.958273e-01  3.529824e-02
   outer loop
     vertex -2.272374e+02  6.766034e+02 -5.716806e+02
     vertex -2.275107e+02  6.762015e+02 -5.722521e+02
     vertex -2.272555e+02  6.765428e+02 -5.722895e+02
   endloop
 endfacet
 facet normal  8.028893e-01 -5.950635e-01  3.561338e-02
   outer loop
     vertex -2.272374e+02  6.766034e+02 -5.716806e+02
     vertex -2.272426e+02  6.766329e+02 -5.710704e+02
     vertex -2.274994e+02  6.762888e+02 -5.710291e+02
   endloop
 endfacet
 facet normal  7.946689e-01 -6.059706e-01  3.606986e-02
   outer loop
     vertex -2.272374e+02  6.766034e+02 -5.716806e+02
     vertex -2.269815e+02  6.769760e+02 -5.710579e+02
     vertex -2.272426e+02  6.766329e+02 -5.710704e+02
   endloop
 endfacet
 facet normal  8.028893e-01 -5.950635e-01  3.561338e-02
   outer loop
     vertex -2.272374e+02  6.766034e+02 -5.716806e+02
     vertex -2.274994e+02  6.762888e+02 -5.710291e+02
     vertex -2.275394e+02  6.761987e+02 -5.716321e+02
   endloop
 endfacet
 facet normal  8.028593e-01 -5.951647e-01  3.458219e-02
   outer loop
     vertex -2.272374e+02  6.766034e+02 -5.716806e+02
     vertex -2.275394e+02  6.761987e+02 -5.716321e+02
     vertex -2.275107e+02  6.762015e+02 -5.722521e+02
   endloop
 endfacet
 facet normal  7.820720e-01 -6.223434e-01  3.243584e-02
   outer loop
     vertex -2.267202e+02  6.773128e+02 -5.709918e+02
     vertex -2.267108e+02  6.773580e+02 -5.703518e+02
     vertex -2.269069e+02  6.771079e+02 -5.704233e+02
   endloop
 endfacet
 facet normal  7.862594e-01 -6.168593e-01  3.578824e-02
   outer loop
     vertex -2.267202e+02  6.773128e+02 -5.709918e+02
     vertex -2.269069e+02  6.771079e+02 -5.704233e+02
     vertex -2.269815e+02  6.769760e+02 -5.710579e+02
   endloop
 endfacet
 facet normal  7.901903e-01 -6.117870e-01  3.627704e-02
   outer loop
     vertex -2.269303e+02  6.770069e+02 -5.716659e+02
     vertex -2.269971e+02  6.768838e+02 -5.722878e+02
     vertex -2.267375e+02  6.772215e+02 -5.722470e+02
   endloop
 endfacet
 facet normal  7.947344e-01 -6.059682e-01  3.463681e-02
   outer loop
     vertex -2.269303e+02  6.770069e+02 -5.716659e+02
     vertex -2.272374e+02  6.766034e+02 -5.716806e+02
     vertex -2.269971e+02  6.768838e+02 -5.722878e+02
   endloop
 endfacet
 facet normal  7.946689e-01 -6.059706e-01  3.606986e-02
   outer loop
     vertex -2.269303e+02  6.770069e+02 -5.716659e+02
     vertex -2.269815e+02  6.769760e+02 -5.710579e+02
     vertex -2.272374e+02  6.766034e+02 -5.716806e+02
   endloop
 endfacet
 facet normal  7.746685e-01 -6.317011e-01  2.902378e-02
   outer loop
     vertex -2.264629e+02  6.776381e+02 -5.708732e+02
     vertex -2.265188e+02  6.775984e+02 -5.702445e+02
     vertex -2.267108e+02  6.773580e+02 -5.703518e+02
   endloop
 endfacet
 facet normal  7.779502e-01 -6.274662e-01  3.285853e-02
   outer loop
     vertex -2.264629e+02  6.776381e+02 -5.708732e+02
     vertex -2.267108e+02  6.773580e+02 -5.703518e+02
     vertex -2.267202e+02  6.773128e+02 -5.709918e+02
   endloop
 endfacet
 facet normal  7.841219e-01 -6.196440e-01  3.455616e-02
   outer loop
     vertex -2.266231e+02  6.774031e+02 -5.715883e+02
     vertex -2.267375e+02  6.772215e+02 -5.722470e+02
     vertex -2.264791e+02  6.775530e+02 -5.721674e+02
   endloop
 endfacet
 facet normal  7.863787e-01 -6.167625e-01  3.482298e-02
   outer loop
     vertex -2.266231e+02  6.774031e+02 -5.715883e+02
     vertex -2.267202e+02  6.773128e+02 -5.709918e+02
     vertex -2.269815e+02  6.769760e+02 -5.710579e+02
   endloop
 endfacet
 facet normal  7.865660e-01 -6.166080e-01  3.329441e-02
   outer loop
     vertex -2.266231e+02  6.774031e+02 -5.715883e+02
     vertex -2.269303e+02  6.770069e+02 -5.716659e+02
     vertex -2.267375e+02  6.772215e+02 -5.722470e+02
   endloop
 endfacet
 facet normal  7.863787e-01 -6.167625e-01  3.482298e-02
   outer loop
     vertex -2.266231e+02  6.774031e+02 -5.715883e+02
     vertex -2.269815e+02  6.769760e+02 -5.710579e+02
     vertex -2.269303e+02  6.770069e+02 -5.716659e+02
   endloop
 endfacet
 facet normal  7.674508e-01 -6.406459e-01  2.433200e-02
   outer loop
     vertex -2.262135e+02  6.779467e+02 -5.707039e+02
     vertex -2.263335e+02  6.778258e+02 -5.701027e+02
     vertex -2.265188e+02  6.775984e+02 -5.702445e+02
   endloop
 endfacet
 facet normal  7.698423e-01 -6.376099e-01  2.822203e-02
   outer loop
     vertex -2.262135e+02  6.779467e+02 -5.707039e+02
     vertex -2.265188e+02  6.775984e+02 -5.702445e+02
     vertex -2.264629e+02  6.776381e+02 -5.708732e+02
   endloop
 endfacet
 facet normal  7.721355e-01 -6.347944e-01  2.903192e-02
   outer loop
     vertex -2.263204e+02  6.777856e+02 -5.714488e+02
     vertex -2.262238e+02  6.778756e+02 -5.720498e+02
     vertex -2.259740e+02  6.781865e+02 -5.718951e+02
   endloop
 endfacet
 facet normal  7.782955e-01 -6.271240e-01  3.117098e-02
   outer loop
     vertex -2.263204e+02  6.777856e+02 -5.714488e+02
     vertex -2.264791e+02  6.775530e+02 -5.721674e+02
     vertex -2.262238e+02  6.778756e+02 -5.720498e+02
   endloop
 endfacet
 facet normal  7.781482e-01 -6.272705e-01  3.189223e-02
   outer loop
     vertex -2.263204e+02  6.777856e+02 -5.714488e+02
     vertex -2.267202e+02  6.773128e+02 -5.709918e+02
     vertex -2.266231e+02  6.774031e+02 -5.715883e+02
   endloop
 endfacet
 facet normal  7.781482e-01 -6.272705e-01  3.189223e-02
   outer loop
     vertex -2.263204e+02  6.777856e+02 -5.714488e+02
     vertex -2.264629e+02  6.776381e+02 -5.708732e+02
     vertex -2.267202e+02  6.773128e+02 -5.709918e+02
   endloop
 endfacet
 facet normal  7.782955e-01 -6.271240e-01  3.117098e-02
   outer loop
     vertex -2.263204e+02  6.777856e+02 -5.714488e+02
     vertex -2.266231e+02  6.774031e+02 -5.715883e+02
     vertex -2.264791e+02  6.775530e+02 -5.721674e+02
   endloop
 endfacet
 facet normal  7.605008e-01 -6.490759e-01  1.841217e-02
   outer loop
     vertex -2.259760e+02  6.782338e+02 -5.704866e+02
     vertex -2.261572e+02  6.780373e+02 -5.699285e+02
     vertex -2.263335e+02  6.778258e+02 -5.701027e+02
   endloop
 endfacet
 facet normal  7.620745e-01 -6.471169e-01  2.195911e-02
   outer loop
     vertex -2.259760e+02  6.782338e+02 -5.704866e+02
     vertex -2.263335e+02  6.778258e+02 -5.701027e+02
     vertex -2.262135e+02  6.779467e+02 -5.707039e+02
   endloop
 endfacet
 facet normal  7.662519e-01 -6.420442e-01  2.524448e-02
   outer loop
     vertex -2.260271e+02  6.781485e+02 -5.712497e+02
     vertex -2.259740e+02  6.781865e+02 -5.718951e+02
     vertex -2.257317e+02  6.784832e+02 -5.717046e+02
   endloop
 endfacet
 facet normal  7.705226e-01 -6.368862e-01  2.590043e-02
   outer loop
     vertex -2.260271e+02  6.781485e+02 -5.712497e+02
     vertex -2.263204e+02  6.777856e+02 -5.714488e+02
     vertex -2.259740e+02  6.781865e+02 -5.718951e+02
   endloop
 endfacet
 facet normal  7.701062e-01 -6.373303e-01  2.732343e-02
   outer loop
     vertex -2.260271e+02  6.781485e+02 -5.712497e+02
     vertex -2.262135e+02  6.779467e+02 -5.707039e+02
     vertex -2.264629e+02  6.776381e+02 -5.708732e+02
   endloop
 endfacet
 facet normal  7.701062e-01 -6.373303e-01  2.732343e-02
   outer loop
     vertex -2.260271e+02  6.781485e+02 -5.712497e+02
     vertex -2.264629e+02  6.776381e+02 -5.708732e+02
     vertex -2.263204e+02  6.777856e+02 -5.714488e+02
   endloop
 endfacet
 facet normal  7.623783e-01 -6.467846e-01  2.118800e-02
   outer loop
     vertex -2.260271e+02  6.781485e+02 -5.712497e+02
     vertex -2.259760e+02  6.782338e+02 -5.704866e+02
     vertex -2.262135e+02  6.779467e+02 -5.707039e+02
   endloop
 endfacet
 facet normal  7.538978e-01 -6.568941e-01  1.132849e-02
   outer loop
     vertex -2.257540e+02  6.784949e+02 -5.702247e+02
     vertex -2.259923e+02  6.782301e+02 -5.697240e+02
     vertex -2.261572e+02  6.780373e+02 -5.699285e+02
   endloop
 endfacet
 facet normal  7.547796e-01 -6.558252e-01  1.417959e-02
   outer loop
     vertex -2.257540e+02  6.784949e+02 -5.702247e+02
     vertex -2.261572e+02  6.780373e+02 -5.699285e+02
     vertex -2.259760e+02  6.782338e+02 -5.704866e+02
   endloop
 endfacet
 facet normal  7.557167e-01 -6.547530e-01  1.381240e-02
   outer loop
     vertex -2.257478e+02  6.784861e+02 -5.709941e+02
     vertex -2.254989e+02  6.787632e+02 -5.714799e+02
     vertex -2.252776e+02  6.790240e+02 -5.712229e+02
   endloop
 endfacet
 facet normal  7.608265e-01 -6.486498e-01  1.991255e-02
   outer loop
     vertex -2.257478e+02  6.784861e+02 -5.709941e+02
     vertex -2.257317e+02  6.784832e+02 -5.717046e+02
     vertex -2.254989e+02  6.787632e+02 -5.714799e+02
   endloop
 endfacet
 facet normal  7.628652e-01 -6.462497e-01  1.994913e-02
   outer loop
     vertex -2.257478e+02  6.784861e+02 -5.709941e+02
     vertex -2.260271e+02  6.781485e+02 -5.712497e+02
     vertex -2.257317e+02  6.784832e+02 -5.717046e+02
   endloop
 endfacet
 facet normal  7.623783e-01 -6.467846e-01  2.118800e-02
   outer loop
     vertex -2.257478e+02  6.784861e+02 -5.709941e+02
     vertex -2.259760e+02  6.782338e+02 -5.704866e+02
     vertex -2.260271e+02  6.781485e+02 -5.712497e+02
   endloop
 endfacet
 facet normal  7.477176e-01 -6.640094e-01  3.157145e-03
   outer loop
     vertex -2.255511e+02  6.787259e+02 -5.699222e+02
     vertex -2.258410e+02  6.784016e+02 -5.694919e+02
     vertex -2.259923e+02  6.782301e+02 -5.697240e+02
   endloop
 endfacet
 facet normal  7.418196e-01 -6.705747e-01 -5.765242e-03
   outer loop
     vertex -2.255511e+02  6.787259e+02 -5.699222e+02
     vertex -2.257052e+02  6.785496e+02 -5.692353e+02
     vertex -2.258410e+02  6.784016e+02 -5.694919e+02
   endloop
 endfacet
 facet normal  7.480813e-01 -6.635881e-01  5.020575e-03
   outer loop
     vertex -2.255511e+02  6.787259e+02 -5.699222e+02
     vertex -2.259923e+02  6.782301e+02 -5.697240e+02
     vertex -2.257540e+02  6.784949e+02 -5.702247e+02
   endloop
 endfacet
 facet normal  7.550855e-01 -6.554857e-01  1.358188e-02
   outer loop
     vertex -2.254867e+02  6.787932e+02 -5.706861e+02
     vertex -2.257540e+02  6.784949e+02 -5.702247e+02
     vertex -2.259760e+02  6.782338e+02 -5.704866e+02
   endloop
 endfacet
 facet normal  7.502930e-01 -6.610555e-01  8.130662e-03
   outer loop
     vertex -2.254867e+02  6.787932e+02 -5.706861e+02
     vertex -2.252776e+02  6.790240e+02 -5.712229e+02
     vertex -2.250696e+02  6.792636e+02 -5.709358e+02
   endloop
 endfacet
 facet normal  7.483416e-01 -6.632974e-01  4.623956e-03
   outer loop
     vertex -2.254867e+02  6.787932e+02 -5.706861e+02
     vertex -2.255511e+02  6.787259e+02 -5.699222e+02
     vertex -2.257540e+02  6.784949e+02 -5.702247e+02
   endloop
 endfacet
 facet normal  7.555062e-01 -6.550173e-01  1.275840e-02
   outer loop
     vertex -2.254867e+02  6.787932e+02 -5.706861e+02
     vertex -2.257478e+02  6.784861e+02 -5.709941e+02
     vertex -2.252776e+02  6.790240e+02 -5.712229e+02
   endloop
 endfacet
 facet normal  7.550855e-01 -6.554857e-01  1.358188e-02
   outer loop
     vertex -2.254867e+02  6.787932e+02 -5.706861e+02
     vertex -2.259760e+02  6.782338e+02 -5.704866e+02
     vertex -2.257478e+02  6.784861e+02 -5.709941e+02
   endloop
 endfacet
 facet normal  7.423373e-01 -6.699792e-01 -7.951541e-03
   outer loop
     vertex -2.252481e+02  6.790650e+02 -5.703304e+02
     vertex -2.248768e+02  6.794798e+02 -5.706210e+02
     vertex -2.247007e+02  6.796709e+02 -5.702811e+02
   endloop
 endfacet
 facet normal  7.455208e-01 -6.664814e-01  1.108178e-03
   outer loop
     vertex -2.252481e+02  6.790650e+02 -5.703304e+02
     vertex -2.250696e+02  6.792636e+02 -5.709358e+02
     vertex -2.248768e+02  6.794798e+02 -5.706210e+02
   endloop
 endfacet
 facet normal  7.422521e-01 -6.700978e-01 -5.545705e-03
   outer loop
     vertex -2.252481e+02  6.790650e+02 -5.703304e+02
     vertex -2.257052e+02  6.785496e+02 -5.692353e+02
     vertex -2.255511e+02  6.787259e+02 -5.699222e+02
   endloop
 endfacet
 facet normal  7.490908e-01 -6.624583e-01  3.480230e-03
   outer loop
     vertex -2.252481e+02  6.790650e+02 -5.703304e+02
     vertex -2.254867e+02  6.787932e+02 -5.706861e+02
     vertex -2.250696e+02  6.792636e+02 -5.709358e+02
   endloop
 endfacet
 facet normal  7.422521e-01 -6.700978e-01 -5.545705e-03
   outer loop
     vertex -2.252481e+02  6.790650e+02 -5.703304e+02
     vertex -2.247007e+02  6.796709e+02 -5.702811e+02
     vertex -2.257052e+02  6.785496e+02 -5.692353e+02
   endloop
 endfacet
 facet normal  7.483416e-01 -6.632974e-01  4.623956e-03
   outer loop
     vertex -2.252481e+02  6.790650e+02 -5.703304e+02
     vertex -2.255511e+02  6.787259e+02 -5.699222e+02
     vertex -2.254867e+02  6.787932e+02 -5.706861e+02
   endloop
 endfacet
endsolid
