solid 
 facet normal  1.627485e-01 -8.191434e-01  5.500154e-01
   outer loop
     vertex -2.298662e+02  6.161135e+02 -5.636863e+02
     vertex -2.303777e+02  6.158603e+02 -5.639120e+02
     vertex -2.302008e+02  6.156631e+02 -5.642581e+02
   endloop
 endfacet
 facet normal  1.772418e-01 -8.298160e-01  5.291414e-01
   outer loop
     vertex -2.298662e+02  6.161135e+02 -5.636863e+02
     vertex -2.305845e+02  6.160342e+02 -5.635700e+02
     vertex -2.303777e+02  6.158603e+02 -5.639120e+02
   endloop
 endfacet
 facet normal  1.917946e-01 -8.395948e-01  5.082276e-01
   outer loop
     vertex -2.301328e+02  6.163262e+02 -5.632581e+02
     vertex -2.308197e+02  6.161835e+02 -5.632347e+02
     vertex -2.305845e+02  6.160342e+02 -5.635700e+02
   endloop
 endfacet
 facet normal  1.767775e-01 -8.331851e-01  5.239774e-01
   outer loop
     vertex -2.301328e+02  6.163262e+02 -5.632581e+02
     vertex -2.305845e+02  6.160342e+02 -5.635700e+02
     vertex -2.298662e+02  6.161135e+02 -5.636863e+02
   endloop
 endfacet
 facet normal  1.647682e-01 -8.193980e-01  5.490341e-01
   outer loop
     vertex -2.293305e+02  6.163436e+02 -5.635036e+02
     vertex -2.302008e+02  6.156631e+02 -5.642581e+02
     vertex -2.285233e+02  6.162765e+02 -5.638460e+02
   endloop
 endfacet
 facet normal  1.711549e-01 -8.279265e-01  5.340821e-01
   outer loop
     vertex -2.293305e+02  6.163436e+02 -5.635036e+02
     vertex -2.287156e+02  6.164965e+02 -5.634636e+02
     vertex -2.289351e+02  6.166957e+02 -5.630845e+02
   endloop
 endfacet
 facet normal  1.669248e-01 -8.159841e-01  5.534493e-01
   outer loop
     vertex -2.293305e+02  6.163436e+02 -5.635036e+02
     vertex -2.285233e+02  6.162765e+02 -5.638460e+02
     vertex -2.287156e+02  6.164965e+02 -5.634636e+02
   endloop
 endfacet
 facet normal  1.647682e-01 -8.193980e-01  5.490341e-01
   outer loop
     vertex -2.293305e+02  6.163436e+02 -5.635036e+02
     vertex -2.298662e+02  6.161135e+02 -5.636863e+02
     vertex -2.302008e+02  6.156631e+02 -5.642581e+02
   endloop
 endfacet
 facet normal  2.077231e-01 -8.478994e-01  4.877681e-01
   outer loop
     vertex -2.304387e+02  6.165037e+02 -5.628403e+02
     vertex -2.310813e+02  6.163069e+02 -5.629087e+02
     vertex -2.308197e+02  6.161835e+02 -5.632347e+02
   endloop
 endfacet
 facet normal  1.925295e-01 -8.445279e-01  4.997049e-01
   outer loop
     vertex -2.304387e+02  6.165037e+02 -5.628403e+02
     vertex -2.308197e+02  6.161835e+02 -5.632347e+02
     vertex -2.301328e+02  6.163262e+02 -5.632581e+02
   endloop
 endfacet
 facet normal  1.823821e-01 -8.366001e-01  5.165627e-01
   outer loop
     vertex -2.296249e+02  6.165785e+02 -5.630307e+02
     vertex -2.289351e+02  6.166957e+02 -5.630845e+02
     vertex -2.291807e+02  6.168731e+02 -5.627105e+02
   endloop
 endfacet
 facet normal  1.821217e-01 -8.307091e-01  5.260741e-01
   outer loop
     vertex -2.296249e+02  6.165785e+02 -5.630307e+02
     vertex -2.293305e+02  6.163436e+02 -5.635036e+02
     vertex -2.289351e+02  6.166957e+02 -5.630845e+02
   endloop
 endfacet
 facet normal  1.786215e-01 -8.323348e-01  5.247029e-01
   outer loop
     vertex -2.296249e+02  6.165785e+02 -5.630307e+02
     vertex -2.298662e+02  6.161135e+02 -5.636863e+02
     vertex -2.293305e+02  6.163436e+02 -5.635036e+02
   endloop
 endfacet
 facet normal  1.786215e-01 -8.323348e-01  5.247029e-01
   outer loop
     vertex -2.296249e+02  6.165785e+02 -5.630307e+02
     vertex -2.301328e+02  6.163262e+02 -5.632581e+02
     vertex -2.298662e+02  6.161135e+02 -5.636863e+02
   endloop
 endfacet
 facet normal  2.249515e-01 -8.546975e-01  4.678558e-01
   outer loop
     vertex -2.307811e+02  6.166442e+02 -5.624369e+02
     vertex -2.313674e+02  6.164036e+02 -5.625944e+02
     vertex -2.310813e+02  6.163069e+02 -5.629087e+02
   endloop
 endfacet
 facet normal  2.107348e-01 -8.537131e-01  4.761983e-01
   outer loop
     vertex -2.307811e+02  6.166442e+02 -5.624369e+02
     vertex -2.310813e+02  6.163069e+02 -5.629087e+02
     vertex -2.304387e+02  6.165037e+02 -5.628403e+02
   endloop
 endfacet
 facet normal  2.081734e-01 -8.507767e-01  4.825380e-01
   outer loop
     vertex -2.299627e+02  6.167745e+02 -5.625694e+02
     vertex -2.294512e+02  6.170277e+02 -5.623437e+02
     vertex -2.297451e+02  6.171587e+02 -5.619858e+02
   endloop
 endfacet
 facet normal  1.966011e-01 -8.432331e-01  5.003059e-01
   outer loop
     vertex -2.299627e+02  6.167745e+02 -5.625694e+02
     vertex -2.291807e+02  6.168731e+02 -5.627105e+02
     vertex -2.294512e+02  6.170277e+02 -5.623437e+02
   endloop
 endfacet
 facet normal  1.947692e-01 -8.433408e-01  5.008406e-01
   outer loop
     vertex -2.299627e+02  6.167745e+02 -5.625694e+02
     vertex -2.301328e+02  6.163262e+02 -5.632581e+02
     vertex -2.296249e+02  6.165785e+02 -5.630307e+02
   endloop
 endfacet
 facet normal  1.967591e-01 -8.422799e-01  5.018471e-01
   outer loop
     vertex -2.299627e+02  6.167745e+02 -5.625694e+02
     vertex -2.296249e+02  6.165785e+02 -5.630307e+02
     vertex -2.291807e+02  6.168731e+02 -5.627105e+02
   endloop
 endfacet
 facet normal  1.947692e-01 -8.433408e-01  5.008406e-01
   outer loop
     vertex -2.299627e+02  6.167745e+02 -5.625694e+02
     vertex -2.304387e+02  6.165037e+02 -5.628403e+02
     vertex -2.301328e+02  6.163262e+02 -5.632581e+02
   endloop
 endfacet
 facet normal  2.434000e-01 -8.599598e-01  4.485818e-01
   outer loop
     vertex -2.311565e+02  6.167463e+02 -5.620519e+02
     vertex -2.316758e+02  6.164729e+02 -5.622943e+02
     vertex -2.313674e+02  6.164036e+02 -5.625944e+02
   endloop
 endfacet
 facet normal  2.311705e-01 -8.606213e-01  4.537522e-01
   outer loop
     vertex -2.311565e+02  6.167463e+02 -5.620519e+02
     vertex -2.313674e+02  6.164036e+02 -5.625944e+02
     vertex -2.307811e+02  6.166442e+02 -5.624369e+02
   endloop
 endfacet
 facet normal  2.216027e-01 -8.568693e-01  4.654754e-01
   outer loop
     vertex -2.303408e+02  6.169297e+02 -5.621239e+02
     vertex -2.297451e+02  6.171587e+02 -5.619858e+02
     vertex -2.300611e+02  6.172655e+02 -5.616388e+02
   endloop
 endfacet
 facet normal  2.130547e-01 -8.523093e-01  4.776783e-01
   outer loop
     vertex -2.303408e+02  6.169297e+02 -5.621239e+02
     vertex -2.304387e+02  6.165037e+02 -5.628403e+02
     vertex -2.299627e+02  6.167745e+02 -5.625694e+02
   endloop
 endfacet
 facet normal  2.130547e-01 -8.523093e-01  4.776783e-01
   outer loop
     vertex -2.303408e+02  6.169297e+02 -5.621239e+02
     vertex -2.307811e+02  6.166442e+02 -5.624369e+02
     vertex -2.304387e+02  6.165037e+02 -5.628403e+02
   endloop
 endfacet
 facet normal  2.159249e-01 -8.505595e-01  4.795049e-01
   outer loop
     vertex -2.303408e+02  6.169297e+02 -5.621239e+02
     vertex -2.299627e+02  6.167745e+02 -5.625694e+02
     vertex -2.297451e+02  6.171587e+02 -5.619858e+02
   endloop
 endfacet
 facet normal  2.629850e-01 -8.636604e-01  4.300344e-01
   outer loop
     vertex -2.315615e+02  6.168092e+02 -5.616889e+02
     vertex -2.320042e+02  6.165141e+02 -5.620107e+02
     vertex -2.316758e+02  6.164729e+02 -5.622943e+02
   endloop
 endfacet
 facet normal  2.535818e-01 -8.651664e-01  4.326469e-01
   outer loop
     vertex -2.315615e+02  6.168092e+02 -5.616889e+02
     vertex -2.316758e+02  6.164729e+02 -5.622943e+02
     vertex -2.311565e+02  6.167463e+02 -5.620519e+02
   endloop
 endfacet
 facet normal  2.550907e-01 -8.630052e-01  4.360628e-01
   outer loop
     vertex -2.307554e+02  6.170425e+02 -5.616987e+02
     vertex -2.303973e+02  6.173475e+02 -5.613045e+02
     vertex -2.307522e+02  6.174043e+02 -5.609844e+02
   endloop
 endfacet
 facet normal  2.376732e-01 -8.607489e-01  4.501363e-01
   outer loop
     vertex -2.307554e+02  6.170425e+02 -5.616987e+02
     vertex -2.300611e+02  6.172655e+02 -5.616388e+02
     vertex -2.303973e+02  6.173475e+02 -5.613045e+02
   endloop
 endfacet
 facet normal  2.333011e-01 -8.591535e-01  4.554403e-01
   outer loop
     vertex -2.307554e+02  6.170425e+02 -5.616987e+02
     vertex -2.311565e+02  6.167463e+02 -5.620519e+02
     vertex -2.307811e+02  6.166442e+02 -5.624369e+02
   endloop
 endfacet
 facet normal  2.359365e-01 -8.573243e-01  4.575248e-01
   outer loop
     vertex -2.307554e+02  6.170425e+02 -5.616987e+02
     vertex -2.303408e+02  6.169297e+02 -5.621239e+02
     vertex -2.300611e+02  6.172655e+02 -5.616388e+02
   endloop
 endfacet
 facet normal  2.333011e-01 -8.591535e-01  4.554403e-01
   outer loop
     vertex -2.307554e+02  6.170425e+02 -5.616987e+02
     vertex -2.307811e+02  6.166442e+02 -5.624369e+02
     vertex -2.303408e+02  6.169297e+02 -5.621239e+02
   endloop
 endfacet
 facet normal  2.836197e-01 -8.657766e-01  4.122994e-01
   outer loop
     vertex -2.319919e+02  6.168321e+02 -5.613515e+02
     vertex -2.323500e+02  6.165270e+02 -5.617457e+02
     vertex -2.320042e+02  6.165141e+02 -5.620107e+02
   endloop
 endfacet
 facet normal  3.044853e-01 -8.670569e-01  3.943363e-01
   outer loop
     vertex -2.319919e+02  6.168321e+02 -5.613515e+02
     vertex -2.327106e+02  6.165115e+02 -5.615014e+02
     vertex -2.323500e+02  6.165270e+02 -5.617457e+02
   endloop
 endfacet
 facet normal  2.776858e-01 -8.672966e-01  4.131430e-01
   outer loop
     vertex -2.319919e+02  6.168321e+02 -5.613515e+02
     vertex -2.320042e+02  6.165141e+02 -5.620107e+02
     vertex -2.315615e+02  6.168092e+02 -5.616889e+02
   endloop
 endfacet
 facet normal  2.704467e-01 -8.663699e-01  4.198354e-01
   outer loop
     vertex -2.312026e+02  6.171119e+02 -5.612978e+02
     vertex -2.307522e+02  6.174043e+02 -5.609844e+02
     vertex -2.311239e+02  6.174357e+02 -5.606803e+02
   endloop
 endfacet
 facet normal  2.568490e-01 -8.625930e-01  4.358462e-01
   outer loop
     vertex -2.312026e+02  6.171119e+02 -5.612978e+02
     vertex -2.307554e+02  6.170425e+02 -5.616987e+02
     vertex -2.307522e+02  6.174043e+02 -5.609844e+02
   endloop
 endfacet
 facet normal  2.553123e-01 -8.638071e-01  4.343420e-01
   outer loop
     vertex -2.312026e+02  6.171119e+02 -5.612978e+02
     vertex -2.315615e+02  6.168092e+02 -5.616889e+02
     vertex -2.311565e+02  6.167463e+02 -5.620519e+02
   endloop
 endfacet
 facet normal  2.553123e-01 -8.638071e-01  4.343420e-01
   outer loop
     vertex -2.312026e+02  6.171119e+02 -5.612978e+02
     vertex -2.311565e+02  6.167463e+02 -5.620519e+02
     vertex -2.307554e+02  6.170425e+02 -5.616987e+02
   endloop
 endfacet
 facet normal  3.037613e-01 -8.663839e-01  3.963685e-01
   outer loop
     vertex -2.316779e+02  6.171371e+02 -5.609253e+02
     vertex -2.319101e+02  6.174214e+02 -5.601261e+02
     vertex -2.327106e+02  6.165115e+02 -5.615014e+02
   endloop
 endfacet
 facet normal  3.092332e-01 -8.640908e-01  3.971422e-01
   outer loop
     vertex -2.316779e+02  6.171371e+02 -5.609253e+02
     vertex -2.315105e+02  6.174414e+02 -5.603937e+02
     vertex -2.319101e+02  6.174214e+02 -5.601261e+02
   endloop
 endfacet
 facet normal  2.880058e-01 -8.674274e-01  4.057368e-01
   outer loop
     vertex -2.316779e+02  6.171371e+02 -5.609253e+02
     vertex -2.311239e+02  6.174357e+02 -5.606803e+02
     vertex -2.315105e+02  6.174414e+02 -5.603937e+02
   endloop
 endfacet
 facet normal  3.037613e-01 -8.663839e-01  3.963685e-01
   outer loop
     vertex -2.316779e+02  6.171371e+02 -5.609253e+02
     vertex -2.327106e+02  6.165115e+02 -5.615014e+02
     vertex -2.319919e+02  6.168321e+02 -5.613515e+02
   endloop
 endfacet
 facet normal  2.811304e-01 -8.641786e-01  4.173262e-01
   outer loop
     vertex -2.316779e+02  6.171371e+02 -5.609253e+02
     vertex -2.312026e+02  6.171119e+02 -5.612978e+02
     vertex -2.311239e+02  6.174357e+02 -5.606803e+02
   endloop
 endfacet
 facet normal  2.788751e-01 -8.662250e-01  4.145876e-01
   outer loop
     vertex -2.316779e+02  6.171371e+02 -5.609253e+02
     vertex -2.319919e+02  6.168321e+02 -5.613515e+02
     vertex -2.315615e+02  6.168092e+02 -5.616889e+02
   endloop
 endfacet
 facet normal  2.788751e-01 -8.662250e-01  4.145876e-01
   outer loop
     vertex -2.316779e+02  6.171371e+02 -5.609253e+02
     vertex -2.315615e+02  6.168092e+02 -5.616889e+02
     vertex -2.312026e+02  6.171119e+02 -5.612978e+02
   endloop
 endfacet
endsolid
