solid 
 facet normal  2.334033e-01 -5.789591e-01 -7.812357e-01
   outer loop
     vertex -2.316990e+02  6.730138e+02 -5.713223e+02
     vertex -2.282353e+02  6.752033e+02 -5.719101e+02
     vertex -2.302055e+02  6.724232e+02 -5.704385e+02
   endloop
 endfacet
 facet normal  2.334033e-01 -5.789591e-01 -7.812357e-01
   outer loop
     vertex -2.297287e+02  6.757939e+02 -5.727939e+02
     vertex -2.282353e+02  6.752033e+02 -5.719101e+02
     vertex -2.316990e+02  6.730138e+02 -5.713223e+02
   endloop
 endfacet
endsolid
