solid 
 facet normal  4.857646e-01 -1.374663e-01  8.632125e-01
   outer loop
     vertex -2.285041e+02  6.770065e+02 -5.697431e+02
     vertex -2.286494e+02  6.774919e+02 -5.695840e+02
     vertex -2.288172e+02  6.772633e+02 -5.695260e+02
   endloop
 endfacet
 facet normal  5.509030e-01 -3.326768e-02  8.339060e-01
   outer loop
     vertex -2.285041e+02  6.770065e+02 -5.697431e+02
     vertex -2.288172e+02  6.772633e+02 -5.695260e+02
     vertex -2.289763e+02  6.770415e+02 -5.694297e+02
   endloop
 endfacet
 facet normal  4.137104e-01 -2.392748e-01  8.784027e-01
   outer loop
     vertex -2.282999e+02  6.772835e+02 -5.698053e+02
     vertex -2.284761e+02  6.777229e+02 -5.696027e+02
     vertex -2.286494e+02  6.774919e+02 -5.695840e+02
   endloop
 endfacet
 facet normal  4.653740e-01 -1.467360e-01  8.728663e-01
   outer loop
     vertex -2.282999e+02  6.772835e+02 -5.698053e+02
     vertex -2.286494e+02  6.774919e+02 -5.695840e+02
     vertex -2.285041e+02  6.770065e+02 -5.697431e+02
   endloop
 endfacet
 facet normal  5.502746e-01 -4.194533e-02  8.339295e-01
   outer loop
     vertex -2.282092e+02  6.767245e+02 -5.699518e+02
     vertex -2.289763e+02  6.770415e+02 -5.694297e+02
     vertex -2.278591e+02  6.758272e+02 -5.702280e+02
   endloop
 endfacet
 facet normal  5.502746e-01 -4.194533e-02  8.339295e-01
   outer loop
     vertex -2.282092e+02  6.767245e+02 -5.699518e+02
     vertex -2.285041e+02  6.770065e+02 -5.697431e+02
     vertex -2.289763e+02  6.770415e+02 -5.694297e+02
   endloop
 endfacet
 facet normal  3.394166e-01 -3.403813e-01  8.768905e-01
   outer loop
     vertex -2.280894e+02  6.775626e+02 -5.698146e+02
     vertex -2.283006e+02  6.779521e+02 -5.695817e+02
     vertex -2.284761e+02  6.777229e+02 -5.696027e+02
   endloop
 endfacet
 facet normal  3.801532e-01 -2.573408e-01  8.884026e-01
   outer loop
     vertex -2.280894e+02  6.775626e+02 -5.698146e+02
     vertex -2.284761e+02  6.777229e+02 -5.696027e+02
     vertex -2.282999e+02  6.772835e+02 -5.698053e+02
   endloop
 endfacet
 facet normal  4.706117e-01 -1.514072e-01  8.692528e-01
   outer loop
     vertex -2.279886e+02  6.770239e+02 -5.700191e+02
     vertex -2.282999e+02  6.772835e+02 -5.698053e+02
     vertex -2.285041e+02  6.770065e+02 -5.697431e+02
   endloop
 endfacet
 facet normal  4.706117e-01 -1.514072e-01  8.692528e-01
   outer loop
     vertex -2.279886e+02  6.770239e+02 -5.700191e+02
     vertex -2.285041e+02  6.770065e+02 -5.697431e+02
     vertex -2.282092e+02  6.767245e+02 -5.699518e+02
   endloop
 endfacet
 facet normal  5.697032e-01 -3.877648e-02  8.209353e-01
   outer loop
     vertex -2.279143e+02  6.764426e+02 -5.701606e+02
     vertex -2.278591e+02  6.758272e+02 -5.702280e+02
     vertex -2.276809e+02  6.760760e+02 -5.703399e+02
   endloop
 endfacet
 facet normal  4.962443e-01 -1.055115e-01  8.617476e-01
   outer loop
     vertex -2.279143e+02  6.764426e+02 -5.701606e+02
     vertex -2.276809e+02  6.760760e+02 -5.703399e+02
     vertex -2.274941e+02  6.763318e+02 -5.704161e+02
   endloop
 endfacet
 facet normal  5.502746e-01 -4.194533e-02  8.339295e-01
   outer loop
     vertex -2.279143e+02  6.764426e+02 -5.701606e+02
     vertex -2.282092e+02  6.767245e+02 -5.699518e+02
     vertex -2.278591e+02  6.758272e+02 -5.702280e+02
   endloop
 endfacet
 facet normal  2.642186e-01 -4.390434e-01  8.587371e-01
   outer loop
     vertex -2.278773e+02  6.778372e+02 -5.697706e+02
     vertex -2.281261e+02  6.781750e+02 -5.695214e+02
     vertex -2.283006e+02  6.779521e+02 -5.695817e+02
   endloop
 endfacet
 facet normal  2.938840e-01 -3.681769e-01  8.820873e-01
   outer loop
     vertex -2.278773e+02  6.778372e+02 -5.697706e+02
     vertex -2.283006e+02  6.779521e+02 -5.695817e+02
     vertex -2.280894e+02  6.775626e+02 -5.698146e+02
   endloop
 endfacet
 facet normal  3.874157e-01 -2.629794e-01  8.836011e-01
   outer loop
     vertex -2.277611e+02  6.773254e+02 -5.700291e+02
     vertex -2.282999e+02  6.772835e+02 -5.698053e+02
     vertex -2.279886e+02  6.770239e+02 -5.700191e+02
   endloop
 endfacet
 facet normal  3.874157e-01 -2.629794e-01  8.836011e-01
   outer loop
     vertex -2.277611e+02  6.773254e+02 -5.700291e+02
     vertex -2.280894e+02  6.775626e+02 -5.698146e+02
     vertex -2.282999e+02  6.772835e+02 -5.698053e+02
   endloop
 endfacet
 facet normal  4.347722e-01 -1.889422e-01  8.804965e-01
   outer loop
     vertex -2.276773e+02  6.767643e+02 -5.702329e+02
     vertex -2.274941e+02  6.763318e+02 -5.704161e+02
     vertex -2.273012e+02  6.765914e+02 -5.704557e+02
   endloop
 endfacet
 facet normal  4.706117e-01 -1.514072e-01  8.692528e-01
   outer loop
     vertex -2.276773e+02  6.767643e+02 -5.702329e+02
     vertex -2.282092e+02  6.767245e+02 -5.699518e+02
     vertex -2.279143e+02  6.764426e+02 -5.701606e+02
   endloop
 endfacet
 facet normal  4.814537e-01 -1.611304e-01  8.615331e-01
   outer loop
     vertex -2.276773e+02  6.767643e+02 -5.702329e+02
     vertex -2.279143e+02  6.764426e+02 -5.701606e+02
     vertex -2.274941e+02  6.763318e+02 -5.704161e+02
   endloop
 endfacet
 facet normal  4.706117e-01 -1.514072e-01  8.692528e-01
   outer loop
     vertex -2.276773e+02  6.767643e+02 -5.702329e+02
     vertex -2.279886e+02  6.770239e+02 -5.700191e+02
     vertex -2.282092e+02  6.767245e+02 -5.699518e+02
   endloop
 endfacet
 facet normal  1.894478e-01 -5.335510e-01  8.242772e-01
   outer loop
     vertex -2.276687e+02  6.781008e+02 -5.696745e+02
     vertex -2.279561e+02  6.783875e+02 -5.694229e+02
     vertex -2.281261e+02  6.781750e+02 -5.695214e+02
   endloop
 endfacet
 facet normal  2.086655e-01 -4.764985e-01  8.540538e-01
   outer loop
     vertex -2.276687e+02  6.781008e+02 -5.696745e+02
     vertex -2.281261e+02  6.781750e+02 -5.695214e+02
     vertex -2.278773e+02  6.778372e+02 -5.697706e+02
   endloop
 endfacet
 facet normal  3.026281e-01 -3.740578e-01  8.766396e-01
   outer loop
     vertex -2.275320e+02  6.776222e+02 -5.699816e+02
     vertex -2.278773e+02  6.778372e+02 -5.697706e+02
     vertex -2.280894e+02  6.775626e+02 -5.698146e+02
   endloop
 endfacet
 facet normal  3.026281e-01 -3.740578e-01  8.766396e-01
   outer loop
     vertex -2.275320e+02  6.776222e+02 -5.699816e+02
     vertex -2.280894e+02  6.775626e+02 -5.698146e+02
     vertex -2.277611e+02  6.773254e+02 -5.700291e+02
   endloop
 endfacet
 facet normal  3.771950e-01 -2.771973e-01  8.836773e-01
   outer loop
     vertex -2.274328e+02  6.770883e+02 -5.702436e+02
     vertex -2.273012e+02  6.765914e+02 -5.704557e+02
     vertex -2.271046e+02  6.768512e+02 -5.704581e+02
   endloop
 endfacet
 facet normal  3.135904e-01 -3.605245e-01  8.784550e-01
   outer loop
     vertex -2.274328e+02  6.770883e+02 -5.702436e+02
     vertex -2.271046e+02  6.768512e+02 -5.704581e+02
     vertex -2.269069e+02  6.771079e+02 -5.704233e+02
   endloop
 endfacet
 facet normal  3.874157e-01 -2.629794e-01  8.836011e-01
   outer loop
     vertex -2.274328e+02  6.770883e+02 -5.702436e+02
     vertex -2.277611e+02  6.773254e+02 -5.700291e+02
     vertex -2.279886e+02  6.770239e+02 -5.700191e+02
   endloop
 endfacet
 facet normal  3.874157e-01 -2.629794e-01  8.836011e-01
   outer loop
     vertex -2.274328e+02  6.770883e+02 -5.702436e+02
     vertex -2.279886e+02  6.770239e+02 -5.700191e+02
     vertex -2.276773e+02  6.767643e+02 -5.702329e+02
   endloop
 endfacet
 facet normal  3.960314e-01 -2.696740e-01  8.777443e-01
   outer loop
     vertex -2.274328e+02  6.770883e+02 -5.702436e+02
     vertex -2.276773e+02  6.767643e+02 -5.702329e+02
     vertex -2.273012e+02  6.765914e+02 -5.704557e+02
   endloop
 endfacet
 facet normal  1.164115e-01 -6.222515e-01  7.741133e-01
   outer loop
     vertex -2.274684e+02  6.783475e+02 -5.695284e+02
     vertex -2.277936e+02  6.785855e+02 -5.692881e+02
     vertex -2.279561e+02  6.783875e+02 -5.694229e+02
   endloop
 endfacet
 facet normal  1.265870e-01 -5.796340e-01  8.049846e-01
   outer loop
     vertex -2.274684e+02  6.783475e+02 -5.695284e+02
     vertex -2.279561e+02  6.783875e+02 -5.694229e+02
     vertex -2.276687e+02  6.781008e+02 -5.696745e+02
   endloop
 endfacet
 facet normal  2.182280e-01 -4.820500e-01  8.485307e-01
   outer loop
     vertex -2.273066e+02  6.779071e+02 -5.698777e+02
     vertex -2.276687e+02  6.781008e+02 -5.696745e+02
     vertex -2.278773e+02  6.778372e+02 -5.697706e+02
   endloop
 endfacet
 facet normal  2.182280e-01 -4.820500e-01  8.485307e-01
   outer loop
     vertex -2.273066e+02  6.779071e+02 -5.698777e+02
     vertex -2.278773e+02  6.778372e+02 -5.697706e+02
     vertex -2.275320e+02  6.776222e+02 -5.699816e+02
   endloop
 endfacet
 facet normal  1.361852e-01 -5.844356e-01  7.999304e-01
   outer loop
     vertex -2.273066e+02  6.779071e+02 -5.698777e+02
     vertex -2.274684e+02  6.783475e+02 -5.695284e+02
     vertex -2.276687e+02  6.781008e+02 -5.696745e+02
   endloop
 endfacet
 facet normal  2.441502e-01 -4.386721e-01  8.648453e-01
   outer loop
     vertex -2.271866e+02  6.774071e+02 -5.701926e+02
     vertex -2.269069e+02  6.771079e+02 -5.704233e+02
     vertex -2.267108e+02  6.773580e+02 -5.703518e+02
   endloop
 endfacet
 facet normal  3.117107e-01 -3.801408e-01  8.708211e-01
   outer loop
     vertex -2.271866e+02  6.774071e+02 -5.701926e+02
     vertex -2.274328e+02  6.770883e+02 -5.702436e+02
     vertex -2.269069e+02  6.771079e+02 -5.704233e+02
   endloop
 endfacet
 facet normal  3.026281e-01 -3.740578e-01  8.766396e-01
   outer loop
     vertex -2.271866e+02  6.774071e+02 -5.701926e+02
     vertex -2.275320e+02  6.776222e+02 -5.699816e+02
     vertex -2.277611e+02  6.773254e+02 -5.700291e+02
   endloop
 endfacet
 facet normal  3.026281e-01 -3.740578e-01  8.766396e-01
   outer loop
     vertex -2.271866e+02  6.774071e+02 -5.701926e+02
     vertex -2.277611e+02  6.773254e+02 -5.700291e+02
     vertex -2.274328e+02  6.770883e+02 -5.702436e+02
   endloop
 endfacet
 facet normal  4.637422e-02 -7.035741e-01  7.091072e-01
   outer loop
     vertex -2.272811e+02  6.785713e+02 -5.693358e+02
     vertex -2.276419e+02  6.787653e+02 -5.691196e+02
     vertex -2.277936e+02  6.785855e+02 -5.692881e+02
   endloop
 endfacet
 facet normal  4.967331e-02 -6.750551e-01  7.360932e-01
   outer loop
     vertex -2.272811e+02  6.785713e+02 -5.693358e+02
     vertex -2.277936e+02  6.785855e+02 -5.692881e+02
     vertex -2.274684e+02  6.783475e+02 -5.695284e+02
   endloop
 endfacet
 facet normal  1.361852e-01 -5.844356e-01  7.999304e-01
   outer loop
     vertex -2.270901e+02  6.781736e+02 -5.697198e+02
     vertex -2.274684e+02  6.783475e+02 -5.695284e+02
     vertex -2.273066e+02  6.779071e+02 -5.698777e+02
   endloop
 endfacet
 facet normal  1.813253e-01 -5.180805e-01  8.358910e-01
   outer loop
     vertex -2.269444e+02  6.777133e+02 -5.700809e+02
     vertex -2.267108e+02  6.773580e+02 -5.703518e+02
     vertex -2.265188e+02  6.775984e+02 -5.702445e+02
   endloop
 endfacet
 facet normal  2.182280e-01 -4.820500e-01  8.485307e-01
   outer loop
     vertex -2.269444e+02  6.777133e+02 -5.700809e+02
     vertex -2.273066e+02  6.779071e+02 -5.698777e+02
     vertex -2.275320e+02  6.776222e+02 -5.699816e+02
   endloop
 endfacet
 facet normal  2.182280e-01 -4.820500e-01  8.485307e-01
   outer loop
     vertex -2.269444e+02  6.777133e+02 -5.700809e+02
     vertex -2.275320e+02  6.776222e+02 -5.699816e+02
     vertex -2.271866e+02  6.774071e+02 -5.701926e+02
   endloop
 endfacet
 facet normal  2.309282e-01 -4.893388e-01  8.409635e-01
   outer loop
     vertex -2.269444e+02  6.777133e+02 -5.700809e+02
     vertex -2.271866e+02  6.774071e+02 -5.701926e+02
     vertex -2.267108e+02  6.773580e+02 -5.703518e+02
   endloop
 endfacet
 facet normal -8.481023e-02 -8.367855e-01  5.409226e-01
   outer loop
     vertex -2.271111e+02  6.787671e+02 -5.691011e+02
     vertex -2.273816e+02  6.790572e+02 -5.686947e+02
     vertex -2.275037e+02  6.789236e+02 -5.689206e+02
   endloop
 endfacet
 facet normal -1.946136e-02 -7.760531e-01  6.303672e-01
   outer loop
     vertex -2.271111e+02  6.787671e+02 -5.691011e+02
     vertex -2.275037e+02  6.789236e+02 -5.689206e+02
     vertex -2.276419e+02  6.787653e+02 -5.691196e+02
   endloop
 endfacet
 facet normal -2.016667e-02 -7.604413e-01  6.490935e-01
   outer loop
     vertex -2.271111e+02  6.787671e+02 -5.691011e+02
     vertex -2.276419e+02  6.787653e+02 -5.691196e+02
     vertex -2.272811e+02  6.785713e+02 -5.693358e+02
   endloop
 endfacet
 facet normal  5.841437e-02 -6.788248e-01  7.319731e-01
   outer loop
     vertex -2.268877e+02  6.784155e+02 -5.695117e+02
     vertex -2.272811e+02  6.785713e+02 -5.693358e+02
     vertex -2.274684e+02  6.783475e+02 -5.695284e+02
   endloop
 endfacet
 facet normal  5.841437e-02 -6.788248e-01  7.319731e-01
   outer loop
     vertex -2.268877e+02  6.784155e+02 -5.695117e+02
     vertex -2.274684e+02  6.783475e+02 -5.695284e+02
     vertex -2.270901e+02  6.781736e+02 -5.697198e+02
   endloop
 endfacet
 facet normal  5.841437e-02 -6.788248e-01  7.319731e-01
   outer loop
     vertex -2.267118e+02  6.779997e+02 -5.699113e+02
     vertex -2.268877e+02  6.784155e+02 -5.695117e+02
     vertex -2.270901e+02  6.781736e+02 -5.697198e+02
   endloop
 endfacet
 facet normal  1.265748e-01 -5.969052e-01  7.922645e-01
   outer loop
     vertex -2.267118e+02  6.779997e+02 -5.699113e+02
     vertex -2.265188e+02  6.775984e+02 -5.702445e+02
     vertex -2.263335e+02  6.778258e+02 -5.701027e+02
   endloop
 endfacet
 facet normal  6.823387e-02 -6.677127e-01  7.412853e-01
   outer loop
     vertex -2.267118e+02  6.779997e+02 -5.699113e+02
     vertex -2.263335e+02  6.778258e+02 -5.701027e+02
     vertex -2.261572e+02  6.780373e+02 -5.699285e+02
   endloop
 endfacet
 facet normal  1.461843e-01 -5.893602e-01  7.945343e-01
   outer loop
     vertex -2.267118e+02  6.779997e+02 -5.699113e+02
     vertex -2.269444e+02  6.777133e+02 -5.700809e+02
     vertex -2.265188e+02  6.775984e+02 -5.702445e+02
   endloop
 endfacet
 facet normal  1.361852e-01 -5.844356e-01  7.999304e-01
   outer loop
     vertex -2.267118e+02  6.779997e+02 -5.699113e+02
     vertex -2.270901e+02  6.781736e+02 -5.697198e+02
     vertex -2.273066e+02  6.779071e+02 -5.698777e+02
   endloop
 endfacet
 facet normal  1.361852e-01 -5.844356e-01  7.999304e-01
   outer loop
     vertex -2.267118e+02  6.779997e+02 -5.699113e+02
     vertex -2.273066e+02  6.779071e+02 -5.698777e+02
     vertex -2.269444e+02  6.777133e+02 -5.700809e+02
   endloop
 endfacet
 facet normal -1.326922e-02 -7.630147e-01  6.462449e-01
   outer loop
     vertex -2.267040e+02  6.786270e+02 -5.692581e+02
     vertex -2.271111e+02  6.787671e+02 -5.691011e+02
     vertex -2.272811e+02  6.785713e+02 -5.693358e+02
   endloop
 endfacet
 facet normal -1.326922e-02 -7.630147e-01  6.462449e-01
   outer loop
     vertex -2.267040e+02  6.786270e+02 -5.692581e+02
     vertex -2.272811e+02  6.785713e+02 -5.693358e+02
     vertex -2.268877e+02  6.784155e+02 -5.695117e+02
   endloop
 endfacet
 facet normal -7.719256e-02 -8.350404e-01  5.447466e-01
   outer loop
     vertex -2.267040e+02  6.786270e+02 -5.692581e+02
     vertex -2.257052e+02  6.785496e+02 -5.692353e+02
     vertex -2.273816e+02  6.790572e+02 -5.686947e+02
   endloop
 endfacet
 facet normal -7.719256e-02 -8.350404e-01  5.447466e-01
   outer loop
     vertex -2.267040e+02  6.786270e+02 -5.692581e+02
     vertex -2.273816e+02  6.790572e+02 -5.686947e+02
     vertex -2.271111e+02  6.787671e+02 -5.691011e+02
   endloop
 endfacet
 facet normal  6.478627e-03 -7.302892e-01  6.831073e-01
   outer loop
     vertex -2.264943e+02  6.782596e+02 -5.696876e+02
     vertex -2.261572e+02  6.780373e+02 -5.699285e+02
     vertex -2.259923e+02  6.782301e+02 -5.697240e+02
   endloop
 endfacet
 facet normal  5.841437e-02 -6.788248e-01  7.319731e-01
   outer loop
     vertex -2.264943e+02  6.782596e+02 -5.696876e+02
     vertex -2.268877e+02  6.784155e+02 -5.695117e+02
     vertex -2.267118e+02  6.779997e+02 -5.699113e+02
   endloop
 endfacet
 facet normal  6.884171e-02 -6.832296e-01  7.269512e-01
   outer loop
     vertex -2.264943e+02  6.782596e+02 -5.696876e+02
     vertex -2.267118e+02  6.779997e+02 -5.699113e+02
     vertex -2.261572e+02  6.780373e+02 -5.699285e+02
   endloop
 endfacet
 facet normal -7.719256e-02 -8.350404e-01  5.447466e-01
   outer loop
     vertex -2.262969e+02  6.784870e+02 -5.694151e+02
     vertex -2.257052e+02  6.785496e+02 -5.692353e+02
     vertex -2.267040e+02  6.786270e+02 -5.692581e+02
   endloop
 endfacet
 facet normal -4.470706e-02 -7.892538e-01  6.124375e-01
   outer loop
     vertex -2.262969e+02  6.784870e+02 -5.694151e+02
     vertex -2.259923e+02  6.782301e+02 -5.697240e+02
     vertex -2.258410e+02  6.784016e+02 -5.694919e+02
   endloop
 endfacet
 facet normal -1.326922e-02 -7.630147e-01  6.462449e-01
   outer loop
     vertex -2.262969e+02  6.784870e+02 -5.694151e+02
     vertex -2.268877e+02  6.784155e+02 -5.695117e+02
     vertex -2.264943e+02  6.782596e+02 -5.696876e+02
   endloop
 endfacet
 facet normal -7.018044e-02 -8.475655e-01  5.260299e-01
   outer loop
     vertex -2.262969e+02  6.784870e+02 -5.694151e+02
     vertex -2.258410e+02  6.784016e+02 -5.694919e+02
     vertex -2.257052e+02  6.785496e+02 -5.692353e+02
   endloop
 endfacet
 facet normal -1.326922e-02 -7.630147e-01  6.462449e-01
   outer loop
     vertex -2.262969e+02  6.784870e+02 -5.694151e+02
     vertex -2.267040e+02  6.786270e+02 -5.692581e+02
     vertex -2.268877e+02  6.784155e+02 -5.695117e+02
   endloop
 endfacet
 facet normal  1.135454e-03 -7.682348e-01  6.401672e-01
   outer loop
     vertex -2.262969e+02  6.784870e+02 -5.694151e+02
     vertex -2.264943e+02  6.782596e+02 -5.696876e+02
     vertex -2.259923e+02  6.782301e+02 -5.697240e+02
   endloop
 endfacet
endsolid
