solid 
 facet normal -3.167833e-01  8.654360e-01 -3.881609e-01
   outer loop
     vertex -2.337164e+02  6.192593e+02 -5.627338e+02
     vertex -2.422142e+02  6.185715e+02 -5.573320e+02
     vertex -2.414136e+02  6.194814e+02 -5.559568e+02
   endloop
 endfacet
 facet normal -3.167833e-01  8.654360e-01 -3.881609e-01
   outer loop
     vertex -2.329158e+02  6.201691e+02 -5.613585e+02
     vertex -2.337164e+02  6.192593e+02 -5.627338e+02
     vertex -2.414136e+02  6.194814e+02 -5.559568e+02
   endloop
 endfacet
endsolid
