solid 
 facet normal -1.876194e-02 -9.901995e-01 -1.383944e-01
   outer loop
     vertex -2.790604e+02  6.632857e+02 -4.016591e+02
     vertex -2.862567e+02  6.547633e+02 -3.397063e+02
     vertex -2.872830e+02  6.548011e+02 -3.398376e+02
   endloop
 endfacet
 facet normal -1.883273e-02 -9.901970e-01 -1.384022e-01
   outer loop
     vertex -2.780303e+02  6.632477e+02 -4.015273e+02
     vertex -2.862567e+02  6.547633e+02 -3.397063e+02
     vertex -2.790604e+02  6.632857e+02 -4.016591e+02
   endloop
 endfacet
 facet normal -5.625880e-02 -9.881086e-01 -1.430959e-01
   outer loop
     vertex -2.780303e+02  6.632477e+02 -4.015273e+02
     vertex -2.852319e+02  6.546867e+02 -3.395805e+02
     vertex -2.862567e+02  6.547633e+02 -3.397063e+02
   endloop
 endfacet
 facet normal -5.647086e-02 -9.880932e-01 -1.431184e-01
   outer loop
     vertex -2.770016e+02  6.631706e+02 -4.014010e+02
     vertex -2.852319e+02  6.546867e+02 -3.395805e+02
     vertex -2.780303e+02  6.632477e+02 -4.015273e+02
   endloop
 endfacet
 facet normal -9.367507e-02 -9.846022e-01 -1.475924e-01
   outer loop
     vertex -2.770016e+02  6.631706e+02 -4.014010e+02
     vertex -2.842100e+02  6.545715e+02 -3.394604e+02
     vertex -2.852319e+02  6.546867e+02 -3.395805e+02
   endloop
 endfacet
 facet normal -9.402748e-02 -9.845633e-01 -1.476280e-01
   outer loop
     vertex -2.759759e+02  6.630546e+02 -4.012805e+02
     vertex -2.842100e+02  6.545715e+02 -3.394604e+02
     vertex -2.770016e+02  6.631706e+02 -4.014010e+02
   endloop
 endfacet
 facet normal -1.309571e-01 -9.796854e-01 -1.518775e-01
   outer loop
     vertex -2.759759e+02  6.630546e+02 -4.012805e+02
     vertex -2.831925e+02  6.544178e+02 -3.393462e+02
     vertex -2.842100e+02  6.545715e+02 -3.394604e+02
   endloop
 endfacet
 facet normal -1.680516e-01 -9.733652e-01 -1.559450e-01
   outer loop
     vertex -2.749546e+02  6.628998e+02 -4.011659e+02
     vertex -2.821808e+02  6.542258e+02 -3.392380e+02
     vertex -2.831925e+02  6.544178e+02 -3.393462e+02
   endloop
 endfacet
 facet normal -1.314484e-01 -9.796123e-01 -1.519245e-01
   outer loop
     vertex -2.749546e+02  6.628998e+02 -4.011659e+02
     vertex -2.831925e+02  6.544178e+02 -3.393462e+02
     vertex -2.759759e+02  6.630546e+02 -4.012805e+02
   endloop
 endfacet
 facet normal -2.049054e-01 -9.656507e-01 -1.597891e-01
   outer loop
     vertex -2.739392e+02  6.627064e+02 -4.010574e+02
     vertex -2.811765e+02  6.539958e+02 -3.391360e+02
     vertex -2.821808e+02  6.542258e+02 -3.392380e+02
   endloop
 endfacet
 facet normal -1.686796e-01 -9.732475e-01 -1.560018e-01
   outer loop
     vertex -2.739392e+02  6.627064e+02 -4.010574e+02
     vertex -2.821808e+02  6.542258e+02 -3.392380e+02
     vertex -2.749546e+02  6.628998e+02 -4.011659e+02
   endloop
 endfacet
 facet normal -2.414656e-01 -9.565529e-01 -1.634043e-01
   outer loop
     vertex -2.729313e+02  6.624748e+02 -4.009552e+02
     vertex -2.801809e+02  6.537281e+02 -3.390403e+02
     vertex -2.811765e+02  6.539958e+02 -3.391360e+02
   endloop
 endfacet
 facet normal -2.056673e-01 -9.654780e-01 -1.598539e-01
   outer loop
     vertex -2.729313e+02  6.624748e+02 -4.009552e+02
     vertex -2.811765e+02  6.539958e+02 -3.391360e+02
     vertex -2.739392e+02  6.627064e+02 -4.010574e+02
   endloop
 endfacet
 facet normal -2.776799e-01 -9.460848e-01 -1.667855e-01
   outer loop
     vertex -2.719322e+02  6.622052e+02 -4.008593e+02
     vertex -2.791955e+02  6.534232e+02 -3.389511e+02
     vertex -2.801809e+02  6.537281e+02 -3.390403e+02
   endloop
 endfacet
 facet normal -2.423582e-01 -9.563150e-01 -1.634753e-01
   outer loop
     vertex -2.719322e+02  6.622052e+02 -4.008593e+02
     vertex -2.801809e+02  6.537281e+02 -3.390403e+02
     vertex -2.729313e+02  6.624748e+02 -4.009552e+02
   endloop
 endfacet
 facet normal -2.786993e-01 -9.457717e-01 -1.668607e-01
   outer loop
     vertex -2.709434e+02  6.618981e+02 -4.007699e+02
     vertex -2.791955e+02  6.534232e+02 -3.389511e+02
     vertex -2.719322e+02  6.622052e+02 -4.008593e+02
   endloop
 endfacet
 facet normal -3.134965e-01 -9.342615e-01 -1.699277e-01
   outer loop
     vertex -2.709434e+02  6.618981e+02 -4.007699e+02
     vertex -2.782217e+02  6.530814e+02 -3.388685e+02
     vertex -2.791955e+02  6.534232e+02 -3.389511e+02
   endloop
 endfacet
 facet normal -3.146382e-01 -9.338635e-01 -1.700053e-01
   outer loop
     vertex -2.699663e+02  6.615538e+02 -4.006872e+02
     vertex -2.782217e+02  6.530814e+02 -3.388685e+02
     vertex -2.709434e+02  6.618981e+02 -4.007699e+02
   endloop
 endfacet
 facet normal -3.488640e-01 -9.210998e-01 -1.728266e-01
   outer loop
     vertex -2.699663e+02  6.615538e+02 -4.006872e+02
     vertex -2.772608e+02  6.527032e+02 -3.387926e+02
     vertex -2.782217e+02  6.530814e+02 -3.388685e+02
   endloop
 endfacet
 facet normal -3.501229e-01 -9.206074e-01 -1.729045e-01
   outer loop
     vertex -2.690023e+02  6.611729e+02 -4.006113e+02
     vertex -2.772608e+02  6.527032e+02 -3.387926e+02
     vertex -2.699663e+02  6.615538e+02 -4.006872e+02
   endloop
 endfacet
 facet normal -3.837317e-01 -9.066187e-01 -1.754778e-01
   outer loop
     vertex -2.690023e+02  6.611729e+02 -4.006113e+02
     vertex -2.763143e+02  6.522893e+02 -3.387235e+02
     vertex -2.772608e+02  6.527032e+02 -3.387926e+02
   endloop
 endfacet
 facet normal -3.851023e-01 -9.060226e-01 -1.755542e-01
   outer loop
     vertex -2.680529e+02  6.607560e+02 -4.005422e+02
     vertex -2.763143e+02  6.522893e+02 -3.387235e+02
     vertex -2.690023e+02  6.611729e+02 -4.006113e+02
   endloop
 endfacet
 facet normal -4.180497e-01 -8.908389e-01 -1.778777e-01
   outer loop
     vertex -2.680529e+02  6.607560e+02 -4.005422e+02
     vertex -2.753835e+02  6.518401e+02 -3.386613e+02
     vertex -2.763143e+02  6.522893e+02 -3.387235e+02
   endloop
 endfacet
 facet normal -4.195259e-01 -8.901301e-01 -1.779505e-01
   outer loop
     vertex -2.671193e+02  6.603036e+02 -4.004801e+02
     vertex -2.753835e+02  6.518401e+02 -3.386613e+02
     vertex -2.680529e+02  6.607560e+02 -4.005422e+02
   endloop
 endfacet
 facet normal -4.517689e-01 -8.737829e-01 -1.800228e-01
   outer loop
     vertex -2.671193e+02  6.603036e+02 -4.004801e+02
     vertex -2.744698e+02  6.513563e+02 -3.386062e+02
     vertex -2.753835e+02  6.518401e+02 -3.386613e+02
   endloop
 endfacet
 facet normal -4.533440e-01 -8.729529e-01 -1.800899e-01
   outer loop
     vertex -2.662030e+02  6.598163e+02 -4.004251e+02
     vertex -2.744698e+02  6.513563e+02 -3.386062e+02
     vertex -2.671193e+02  6.603036e+02 -4.004801e+02
   endloop
 endfacet
 facet normal -4.848410e-01 -8.554753e-01 -1.819100e-01
   outer loop
     vertex -2.662030e+02  6.598163e+02 -4.004251e+02
     vertex -2.735744e+02  6.508386e+02 -3.385582e+02
     vertex -2.744698e+02  6.513563e+02 -3.386062e+02
   endloop
 endfacet
 facet normal -4.865078e-01 -8.545158e-01 -1.819694e-01
   outer loop
     vertex -2.653052e+02  6.592950e+02 -4.003773e+02
     vertex -2.735744e+02  6.508386e+02 -3.385582e+02
     vertex -2.662030e+02  6.598163e+02 -4.004251e+02
   endloop
 endfacet
 facet normal -5.172185e-01 -8.359422e-01 -1.835367e-01
   outer loop
     vertex -2.653052e+02  6.592950e+02 -4.003773e+02
     vertex -2.726987e+02  6.502878e+02 -3.385173e+02
     vertex -2.735744e+02  6.508386e+02 -3.385582e+02
   endloop
 endfacet
 facet normal -5.189694e-01 -8.348454e-01 -1.835863e-01
   outer loop
     vertex -2.644273e+02  6.587403e+02 -4.003366e+02
     vertex -2.726987e+02  6.502878e+02 -3.385173e+02
     vertex -2.653052e+02  6.592950e+02 -4.003773e+02
   endloop
 endfacet
 facet normal -5.488550e-01 -8.152116e-01 -1.849004e-01
   outer loop
     vertex -2.644273e+02  6.587403e+02 -4.003366e+02
     vertex -2.718438e+02  6.497046e+02 -3.384836e+02
     vertex -2.726987e+02  6.502878e+02 -3.385173e+02
   endloop
 endfacet
 facet normal -5.797054e-01 -7.933132e-01 -1.859993e-01
   outer loop
     vertex -2.635705e+02  6.581531e+02 -4.003033e+02
     vertex -2.710111e+02  6.490899e+02 -3.384572e+02
     vertex -2.718438e+02  6.497046e+02 -3.384836e+02
   endloop
 endfacet
 facet normal -5.506820e-01 -8.139700e-01 -1.849381e-01
   outer loop
     vertex -2.635705e+02  6.581531e+02 -4.003033e+02
     vertex -2.718438e+02  6.497046e+02 -3.384836e+02
     vertex -2.644273e+02  6.587403e+02 -4.003366e+02
   endloop
 endfacet
 facet normal -6.097253e-01 -7.702785e-01 -1.868318e-01
   outer loop
     vertex -2.627360e+02  6.575341e+02 -4.002772e+02
     vertex -2.702017e+02  6.484446e+02 -3.384381e+02
     vertex -2.710111e+02  6.490899e+02 -3.384572e+02
   endloop
 endfacet
 facet normal -5.815998e-01 -7.919198e-01 -1.860231e-01
   outer loop
     vertex -2.627360e+02  6.575341e+02 -4.002772e+02
     vertex -2.710111e+02  6.490899e+02 -3.384572e+02
     vertex -2.635705e+02  6.581531e+02 -4.003033e+02
   endloop
 endfacet
 facet normal -6.388718e-01 -7.461403e-01 -1.873967e-01
   outer loop
     vertex -2.619251e+02  6.568844e+02 -4.002585e+02
     vertex -2.694167e+02  6.477695e+02 -3.384264e+02
     vertex -2.702017e+02  6.484446e+02 -3.384381e+02
   endloop
 endfacet
 facet normal -6.116782e-01 -7.687267e-01 -1.868395e-01
   outer loop
     vertex -2.619251e+02  6.568844e+02 -4.002585e+02
     vertex -2.702017e+02  6.484446e+02 -3.384381e+02
     vertex -2.627360e+02  6.575341e+02 -4.002772e+02
   endloop
 endfacet
 facet normal -6.671033e-01 -7.209334e-01 -1.876918e-01
   outer loop
     vertex -2.611427e+02  6.562081e+02 -4.002473e+02
     vertex -2.686574e+02  6.470657e+02 -3.384220e+02
     vertex -2.694167e+02  6.477695e+02 -3.384264e+02
   endloop
 endfacet
 facet normal -6.408047e-01 -7.444834e-01 -1.873866e-01
   outer loop
     vertex -2.611427e+02  6.562081e+02 -4.002473e+02
     vertex -2.694167e+02  6.477695e+02 -3.384264e+02
     vertex -2.619251e+02  6.568844e+02 -4.002585e+02
   endloop
 endfacet
 facet normal -6.943792e-01 -6.946938e-01 -1.877181e-01
   outer loop
     vertex -2.603858e+02  6.555031e+02 -4.002434e+02
     vertex -2.679247e+02  6.463342e+02 -3.384249e+02
     vertex -2.686574e+02  6.470657e+02 -3.384220e+02
   endloop
 endfacet
 facet normal -6.689443e-01 -7.192327e-01 -1.876641e-01
   outer loop
     vertex -2.603858e+02  6.555031e+02 -4.002434e+02
     vertex -2.686574e+02  6.470657e+02 -3.384220e+02
     vertex -2.611427e+02  6.562081e+02 -4.002473e+02
   endloop
 endfacet
 facet normal -7.206604e-01 -6.674590e-01 -1.874756e-01
   outer loop
     vertex -2.596557e+02  6.547706e+02 -4.002468e+02
     vertex -2.672198e+02  6.455759e+02 -3.384352e+02
     vertex -2.679247e+02  6.463342e+02 -3.384249e+02
   endloop
 endfacet
 facet normal -6.961275e-01 -6.929540e-01 -1.876733e-01
   outer loop
     vertex -2.596557e+02  6.547706e+02 -4.002468e+02
     vertex -2.679247e+02  6.463342e+02 -3.384249e+02
     vertex -2.603858e+02  6.555031e+02 -4.002434e+02
   endloop
 endfacet
 facet normal -7.459092e-01 -6.392682e-01 -1.869645e-01
   outer loop
     vertex -2.589533e+02  6.540114e+02 -4.002576e+02
     vertex -2.665436e+02  6.447921e+02 -3.384529e+02
     vertex -2.672198e+02  6.455759e+02 -3.384352e+02
   endloop
 endfacet
 facet normal -7.223157e-01 -6.656846e-01 -1.874142e-01
   outer loop
     vertex -2.589533e+02  6.540114e+02 -4.002576e+02
     vertex -2.672198e+02  6.455759e+02 -3.384352e+02
     vertex -2.596557e+02  6.547706e+02 -4.002468e+02
   endloop
 endfacet
 facet normal -7.700895e-01 -6.101615e-01 -1.861856e-01
   outer loop
     vertex -2.582796e+02  6.532268e+02 -4.002757e+02
     vertex -2.658971e+02  6.439837e+02 -3.384778e+02
     vertex -2.665436e+02  6.447921e+02 -3.384529e+02
   endloop
 endfacet
 facet normal -7.474713e-01 -6.374636e-01 -1.868872e-01
   outer loop
     vertex -2.582796e+02  6.532268e+02 -4.002757e+02
     vertex -2.665436e+02  6.447921e+02 -3.384529e+02
     vertex -2.589533e+02  6.540114e+02 -4.002576e+02
   endloop
 endfacet
 facet normal -7.931667e-01 -5.801808e-01 -1.851400e-01
   outer loop
     vertex -2.576357e+02  6.524179e+02 -4.003010e+02
     vertex -2.652812e+02  6.431521e+02 -3.385100e+02
     vertex -2.658971e+02  6.439837e+02 -3.384778e+02
   endloop
 endfacet
 facet normal -7.715584e-01 -6.083314e-01 -1.860929e-01
   outer loop
     vertex -2.576357e+02  6.524179e+02 -4.003010e+02
     vertex -2.658971e+02  6.439837e+02 -3.384778e+02
     vertex -2.582796e+02  6.532268e+02 -4.002757e+02
   endloop
 endfacet
 facet normal -8.151076e-01 -5.493690e-01 -1.838293e-01
   outer loop
     vertex -2.570224e+02  6.515857e+02 -4.003337e+02
     vertex -2.646968e+02  6.422983e+02 -3.385495e+02
     vertex -2.652812e+02  6.431521e+02 -3.385100e+02
   endloop
 endfacet
 facet normal -7.945425e-01 -5.783296e-01 -1.850327e-01
   outer loop
     vertex -2.570224e+02  6.515857e+02 -4.003337e+02
     vertex -2.652812e+02  6.431521e+02 -3.385100e+02
     vertex -2.576357e+02  6.524179e+02 -4.003010e+02
   endloop
 endfacet
 facet normal -8.358810e-01 -5.177703e-01 -1.822552e-01
   outer loop
     vertex -2.564405e+02  6.507315e+02 -4.003735e+02
     vertex -2.641449e+02  6.414236e+02 -3.385961e+02
     vertex -2.646968e+02  6.422983e+02 -3.385495e+02
   endloop
 endfacet
 facet normal -8.163909e-01 -5.475010e-01 -1.837079e-01
   outer loop
     vertex -2.564405e+02  6.507315e+02 -4.003735e+02
     vertex -2.646968e+02  6.422983e+02 -3.385495e+02
     vertex -2.570224e+02  6.515857e+02 -4.003337e+02
   endloop
 endfacet
 facet normal -8.554569e-01 -4.854298e-01 -1.804201e-01
   outer loop
     vertex -2.558911e+02  6.498565e+02 -4.004205e+02
     vertex -2.636260e+02  6.405292e+02 -3.386499e+02
     vertex -2.641449e+02  6.414236e+02 -3.385961e+02
   endloop
 endfacet
 facet normal -8.370722e-01 -5.158898e-01 -1.821205e-01
   outer loop
     vertex -2.558911e+02  6.498565e+02 -4.004205e+02
     vertex -2.641449e+02  6.414236e+02 -3.385961e+02
     vertex -2.564405e+02  6.507315e+02 -4.003735e+02
   endloop
 endfacet
 facet normal -8.738074e-01 -4.523940e-01 -1.783265e-01
   outer loop
     vertex -2.553747e+02  6.489619e+02 -4.004746e+02
     vertex -2.631411e+02  6.396164e+02 -3.387106e+02
     vertex -2.636260e+02  6.405292e+02 -3.386499e+02
   endloop
 endfacet
 facet normal -8.565569e-01 -4.835411e-01 -1.802727e-01
   outer loop
     vertex -2.553747e+02  6.489619e+02 -4.004746e+02
     vertex -2.636260e+02  6.405292e+02 -3.386499e+02
     vertex -2.558911e+02  6.498565e+02 -4.004205e+02
   endloop
 endfacet
 facet normal -8.909061e-01 -4.187101e-01 -1.759776e-01
   outer loop
     vertex -2.548922e+02  6.480491e+02 -4.005357e+02
     vertex -2.626907e+02  6.386866e+02 -3.387784e+02
     vertex -2.631411e+02  6.396164e+02 -3.387106e+02
   endloop
 endfacet
 facet normal -8.748172e-01 -4.505013e-01 -1.781671e-01
   outer loop
     vertex -2.548922e+02  6.480491e+02 -4.005357e+02
     vertex -2.631411e+02  6.396164e+02 -3.387106e+02
     vertex -2.553747e+02  6.489619e+02 -4.004746e+02
   endloop
 endfacet
 facet normal -9.067287e-01 -3.844264e-01 -1.733765e-01
   outer loop
     vertex -2.544442e+02  6.471194e+02 -4.006037e+02
     vertex -2.622755e+02  6.377411e+02 -3.388529e+02
     vertex -2.626907e+02  6.386866e+02 -3.387784e+02
   endloop
 endfacet
 facet normal -8.918269e-01 -4.168174e-01 -1.758069e-01
   outer loop
     vertex -2.544442e+02  6.471194e+02 -4.006037e+02
     vertex -2.626907e+02  6.386866e+02 -3.387784e+02
     vertex -2.548922e+02  6.480491e+02 -4.005357e+02
   endloop
 endfacet
 facet normal -9.212524e-01 -3.495920e-01 -1.705272e-01
   outer loop
     vertex -2.540315e+02  6.461740e+02 -4.006786e+02
     vertex -2.618962e+02  6.367811e+02 -3.389342e+02
     vertex -2.622755e+02  6.377411e+02 -3.388529e+02
   endloop
 endfacet
 facet normal -9.075617e-01 -3.825377e-01 -1.731953e-01
   outer loop
     vertex -2.540315e+02  6.461740e+02 -4.006786e+02
     vertex -2.622755e+02  6.377411e+02 -3.388529e+02
     vertex -2.544442e+02  6.471194e+02 -4.006037e+02
   endloop
 endfacet
 facet normal -9.344563e-01 -3.142568e-01 -1.674335e-01
   outer loop
     vertex -2.536545e+02  6.452143e+02 -4.007601e+02
     vertex -2.615533e+02  6.358082e+02 -3.390221e+02
     vertex -2.618962e+02  6.367811e+02 -3.389342e+02
   endloop
 endfacet
 facet normal -9.219992e-01 -3.477111e-01 -1.703362e-01
   outer loop
     vertex -2.536545e+02  6.452143e+02 -4.007601e+02
     vertex -2.618962e+02  6.367811e+02 -3.389342e+02
     vertex -2.540315e+02  6.461740e+02 -4.006786e+02
   endloop
 endfacet
 facet normal -9.351187e-01 -3.123875e-01 -1.672335e-01
   outer loop
     vertex -2.533138e+02  6.442417e+02 -4.008483e+02
     vertex -2.615533e+02  6.358082e+02 -3.390221e+02
     vertex -2.536545e+02  6.452143e+02 -4.007601e+02
   endloop
 endfacet
 facet normal -9.463217e-01 -2.784715e-01 -1.641001e-01
   outer loop
     vertex -2.533138e+02  6.442417e+02 -4.008483e+02
     vertex -2.612472e+02  6.348236e+02 -3.391165e+02
     vertex -2.615533e+02  6.358082e+02 -3.390221e+02
   endloop
 endfacet
 facet normal -9.469015e-01 -2.766173e-01 -1.638917e-01
   outer loop
     vertex -2.530099e+02  6.432576e+02 -4.009430e+02
     vertex -2.612472e+02  6.348236e+02 -3.391165e+02
     vertex -2.533138e+02  6.442417e+02 -4.008483e+02
   endloop
 endfacet
 facet normal -9.568315e-01 -2.422872e-01 -1.605315e-01
   outer loop
     vertex -2.530099e+02  6.432576e+02 -4.009430e+02
     vertex -2.609784e+02  6.338288e+02 -3.392173e+02
     vertex -2.612472e+02  6.348236e+02 -3.391165e+02
   endloop
 endfacet
 facet normal -9.573306e-01 -2.404517e-01 -1.603156e-01
   outer loop
     vertex -2.527433e+02  6.422634e+02 -4.010440e+02
     vertex -2.609784e+02  6.338288e+02 -3.392173e+02
     vertex -2.530099e+02  6.432576e+02 -4.009430e+02
   endloop
 endfacet
 facet normal -9.659706e-01 -2.057559e-01 -1.567331e-01
   outer loop
     vertex -2.527433e+02  6.422634e+02 -4.010440e+02
     vertex -2.607472e+02  6.328253e+02 -3.393243e+02
     vertex -2.609784e+02  6.338288e+02 -3.392173e+02
   endloop
 endfacet
 facet normal -9.663912e-01 -2.039424e-01 -1.565103e-01
   outer loop
     vertex -2.525143e+02  6.412605e+02 -4.011511e+02
     vertex -2.607472e+02  6.328253e+02 -3.393243e+02
     vertex -2.527433e+02  6.422634e+02 -4.010440e+02
   endloop
 endfacet
 facet normal -9.737260e-01 -1.689298e-01 -1.527101e-01
   outer loop
     vertex -2.525143e+02  6.412605e+02 -4.011511e+02
     vertex -2.605541e+02  6.318144e+02 -3.394374e+02
     vertex -2.607472e+02  6.328253e+02 -3.393243e+02
   endloop
 endfacet
 facet normal -9.740704e-01 -1.671416e-01 -1.524813e-01
   outer loop
     vertex -2.523232e+02  6.402503e+02 -4.012644e+02
     vertex -2.605541e+02  6.318144e+02 -3.394374e+02
     vertex -2.525143e+02  6.412605e+02 -4.011511e+02
   endloop
 endfacet
 facet normal -9.800865e-01 -1.318617e-01 -1.484685e-01
   outer loop
     vertex -2.523232e+02  6.402503e+02 -4.012644e+02
     vertex -2.603993e+02  6.307976e+02 -3.395563e+02
     vertex -2.605541e+02  6.318144e+02 -3.394374e+02
   endloop
 endfacet
 facet normal -9.803571e-01 -1.301018e-01 -1.482343e-01
   outer loop
     vertex -2.521704e+02  6.392344e+02 -4.013835e+02
     vertex -2.603993e+02  6.307976e+02 -3.395563e+02
     vertex -2.523232e+02  6.402503e+02 -4.012644e+02
   endloop
 endfacet
 facet normal -9.850431e-01 -9.460476e-02 -1.440141e-01
   outer loop
     vertex -2.521704e+02  6.392344e+02 -4.013835e+02
     vertex -2.602830e+02  6.297763e+02 -3.396810e+02
     vertex -2.603993e+02  6.307976e+02 -3.395563e+02
   endloop
 endfacet
 facet normal -9.885886e-01 -5.721226e-02 -1.393535e-01
   outer loop
     vertex -2.520560e+02  6.382140e+02 -4.015083e+02
     vertex -2.602054e+02  6.287521e+02 -3.398112e+02
     vertex -2.602830e+02  6.297763e+02 -3.396810e+02
   endloop
 endfacet
 facet normal -9.852425e-01 -9.287605e-02 -1.437753e-01
   outer loop
     vertex -2.520560e+02  6.382140e+02 -4.015083e+02
     vertex -2.602830e+02  6.297763e+02 -3.396810e+02
     vertex -2.521704e+02  6.392344e+02 -4.013835e+02
   endloop
 endfacet
 facet normal -9.907179e-01 -1.973781e-02 -1.344933e-01
   outer loop
     vertex -2.519802e+02  6.371908e+02 -4.016386e+02
     vertex -2.601665e+02  6.277264e+02 -3.399468e+02
     vertex -2.602054e+02  6.287521e+02 -3.398112e+02
   endloop
 endfacet
 facet normal -9.887194e-01 -5.551754e-02 -1.391109e-01
   outer loop
     vertex -2.519802e+02  6.371908e+02 -4.016386e+02
     vertex -2.602054e+02  6.287521e+02 -3.398112e+02
     vertex -2.520560e+02  6.382140e+02 -4.015083e+02
   endloop
 endfacet
 facet normal -9.914281e-01  1.776491e-02 -1.294404e-01
   outer loop
     vertex -2.519431e+02  6.361661e+02 -4.017743e+02
     vertex -2.601665e+02  6.267007e+02 -3.400876e+02
     vertex -2.601665e+02  6.277264e+02 -3.399468e+02
   endloop
 endfacet
 facet normal -9.907829e-01 -1.807966e-02 -1.342475e-01
   outer loop
     vertex -2.519431e+02  6.361661e+02 -4.017743e+02
     vertex -2.601665e+02  6.277264e+02 -3.399468e+02
     vertex -2.519802e+02  6.371908e+02 -4.016386e+02
   endloop
 endfacet
 facet normal -9.907180e-01  5.524220e-02 -1.242021e-01
   outer loop
     vertex -2.519448e+02  6.351414e+02 -4.019152e+02
     vertex -2.602054e+02  6.256763e+02 -3.402334e+02
     vertex -2.601665e+02  6.267007e+02 -3.400876e+02
   endloop
 endfacet
 facet normal -9.914301e-01  1.938406e-02 -1.291922e-01
   outer loop
     vertex -2.519448e+02  6.351414e+02 -4.019152e+02
     vertex -2.601665e+02  6.267007e+02 -3.400876e+02
     vertex -2.519431e+02  6.361661e+02 -4.017743e+02
   endloop
 endfacet
 facet normal -9.885887e-01  9.264035e-02 -1.187859e-01
   outer loop
     vertex -2.519852e+02  6.341183e+02 -4.020610e+02
     vertex -2.602830e+02  6.246549e+02 -3.403839e+02
     vertex -2.602054e+02  6.256763e+02 -3.402334e+02
   endloop
 endfacet
 facet normal -9.906600e-01  5.682006e-02 -1.239522e-01
   outer loop
     vertex -2.519852e+02  6.341183e+02 -4.020610e+02
     vertex -2.602054e+02  6.256763e+02 -3.402334e+02
     vertex -2.519448e+02  6.351414e+02 -4.019152e+02
   endloop
 endfacet
 facet normal -9.850433e-01  1.299058e-01 -1.131996e-01
   outer loop
     vertex -2.520644e+02  6.330981e+02 -4.022115e+02
     vertex -2.603993e+02  6.236378e+02 -3.405389e+02
     vertex -2.602830e+02  6.246549e+02 -3.403839e+02
   endloop
 endfacet
 facet normal -9.884738e-01  9.417484e-02 -1.185350e-01
   outer loop
     vertex -2.520644e+02  6.330981e+02 -4.022115e+02
     vertex -2.602830e+02  6.246549e+02 -3.403839e+02
     vertex -2.519852e+02  6.341183e+02 -4.020610e+02
   endloop
 endfacet
 facet normal -9.800868e-01  1.669852e-01 -1.074512e-01
   outer loop
     vertex -2.521821e+02  6.320823e+02 -4.023666e+02
     vertex -2.605541e+02  6.226266e+02 -3.406983e+02
     vertex -2.603993e+02  6.236378e+02 -3.405389e+02
   endloop
 endfacet
 facet normal -9.848746e-01  1.313950e-01 -1.129484e-01
   outer loop
     vertex -2.521821e+02  6.320823e+02 -4.023666e+02
     vertex -2.603993e+02  6.236378e+02 -3.405389e+02
     vertex -2.520644e+02  6.330981e+02 -4.022115e+02
   endloop
 endfacet
 facet normal -9.737264e-01  2.038253e-01 -1.015488e-01
   outer loop
     vertex -2.523383e+02  6.310723e+02 -4.025260e+02
     vertex -2.607472e+02  6.216226e+02 -3.408618e+02
     vertex -2.605541e+02  6.226266e+02 -3.406983e+02
   endloop
 endfacet
 facet normal -9.798675e-01  1.684273e-01 -1.072002e-01
   outer loop
     vertex -2.523383e+02  6.310723e+02 -4.025260e+02
     vertex -2.605541e+02  6.226266e+02 -3.406983e+02
     vertex -2.521821e+02  6.320823e+02 -4.023666e+02
   endloop
 endfacet
 facet normal -9.659711e-01  2.403735e-01 -9.550097e-02
   outer loop
     vertex -2.525326e+02  6.300697e+02 -4.026894e+02
     vertex -2.609784e+02  6.206273e+02 -3.410291e+02
     vertex -2.607472e+02  6.216226e+02 -3.408618e+02
   endloop
 endfacet
 facet normal -9.734597e-01  2.052189e-01 -1.012989e-01
   outer loop
     vertex -2.525326e+02  6.300697e+02 -4.026894e+02
     vertex -2.607472e+02  6.216226e+02 -3.408618e+02
     vertex -2.523383e+02  6.310723e+02 -4.025260e+02
   endloop
 endfacet
 facet normal -9.568320e-01  2.765773e-01 -8.931636e-02
   outer loop
     vertex -2.527649e+02  6.290758e+02 -4.028567e+02
     vertex -2.612472e+02  6.196422e+02 -3.412001e+02
     vertex -2.609784e+02  6.206273e+02 -3.410291e+02
   endloop
 endfacet
 facet normal -9.656603e-01  2.417171e-01 -9.525265e-02
   outer loop
     vertex -2.527649e+02  6.290758e+02 -4.028567e+02
     vertex -2.609784e+02  6.206273e+02 -3.410291e+02
     vertex -2.525326e+02  6.300697e+02 -4.026894e+02
   endloop
 endfacet
 facet normal -9.463223e-01  3.123850e-01 -8.300382e-02
   outer loop
     vertex -2.530348e+02  6.280921e+02 -4.030276e+02
     vertex -2.615533e+02  6.186686e+02 -3.413744e+02
     vertex -2.612472e+02  6.196422e+02 -3.412001e+02
   endloop
 endfacet
 facet normal -9.564805e-01  2.778697e-01 -8.907026e-02
   outer loop
     vertex -2.530348e+02  6.280921e+02 -4.030276e+02
     vertex -2.612472e+02  6.196422e+02 -3.412001e+02
     vertex -2.527649e+02  6.290758e+02 -4.028567e+02
   endloop
 endfacet
 facet normal -9.344570e-01  3.477452e-01 -7.657239e-02
   outer loop
     vertex -2.533419e+02  6.271199e+02 -4.032019e+02
     vertex -2.618962e+02  6.177079e+02 -3.415519e+02
     vertex -2.615533e+02  6.186686e+02 -3.413744e+02
   endloop
 endfacet
 facet normal -9.459334e-01  3.136251e-01 -8.276052e-02
   outer loop
     vertex -2.533419e+02  6.271199e+02 -4.032019e+02
     vertex -2.615533e+02  6.186686e+02 -3.413744e+02
     vertex -2.530348e+02  6.280921e+02 -4.030276e+02
   endloop
 endfacet
 facet normal -9.212531e-01  3.826072e-01 -7.003129e-02
   outer loop
     vertex -2.536857e+02  6.261607e+02 -4.033793e+02
     vertex -2.622755e+02  6.167616e+02 -3.417322e+02
     vertex -2.618962e+02  6.177079e+02 -3.415519e+02
   endloop
 endfacet
 facet normal -9.340341e-01  3.489322e-01 -7.633247e-02
   outer loop
     vertex -2.536857e+02  6.261607e+02 -4.033793e+02
     vertex -2.618962e+02  6.177079e+02 -3.415519e+02
     vertex -2.533419e+02  6.271199e+02 -4.032019e+02
   endloop
 endfacet
 facet normal -9.067295e-01  4.169212e-01 -6.338988e-02
   outer loop
     vertex -2.540658e+02  6.252159e+02 -4.035595e+02
     vertex -2.626907e+02  6.158309e+02 -3.419152e+02
     vertex -2.622755e+02  6.167616e+02 -3.417322e+02
   endloop
 endfacet
 facet normal -9.207996e-01  3.837405e-01 -6.979529e-02
   outer loop
     vertex -2.540658e+02  6.252159e+02 -4.035595e+02
     vertex -2.622755e+02  6.167616e+02 -3.417322e+02
     vertex -2.536857e+02  6.261607e+02 -4.033793e+02
   endloop
 endfacet
 facet normal -8.909071e-01  4.506379e-01 -5.665768e-02
   outer loop
     vertex -2.544817e+02  6.242867e+02 -4.037424e+02
     vertex -2.631411e+02  6.149172e+02 -3.421005e+02
     vertex -2.626907e+02  6.158309e+02 -3.419152e+02
   endloop
 endfacet
 facet normal -9.062487e-01  4.180003e-01 -6.315832e-02
   outer loop
     vertex -2.544817e+02  6.242867e+02 -4.037424e+02
     vertex -2.626907e+02  6.158309e+02 -3.419152e+02
     vertex -2.540658e+02  6.252159e+02 -4.035595e+02
   endloop
 endfacet
 facet normal -8.738084e-01  4.837091e-01 -4.984433e-02
   outer loop
     vertex -2.549326e+02  6.233745e+02 -4.039275e+02
     vertex -2.636260e+02  6.140218e+02 -3.422879e+02
     vertex -2.631411e+02  6.149172e+02 -3.421005e+02
   endloop
 endfacet
 facet normal -8.904025e-01  4.516625e-01 -5.643105e-02
   outer loop
     vertex -2.549326e+02  6.233745e+02 -4.039275e+02
     vertex -2.631411e+02  6.149172e+02 -3.421005e+02
     vertex -2.544817e+02  6.242867e+02 -4.037424e+02
   endloop
 endfacet
 facet normal -8.554580e-01  5.160873e-01 -4.295959e-02
   outer loop
     vertex -2.554181e+02  6.224806e+02 -4.041148e+02
     vertex -2.641449e+02  6.131461e+02 -3.424771e+02
     vertex -2.636260e+02  6.140218e+02 -3.422879e+02
   endloop
 endfacet
 facet normal -8.732833e-01  4.846790e-01 -4.962311e-02
   outer loop
     vertex -2.554181e+02  6.224806e+02 -4.041148e+02
     vertex -2.636260e+02  6.140218e+02 -3.422879e+02
     vertex -2.549326e+02  6.233745e+02 -4.039275e+02
   endloop
 endfacet
 facet normal -8.358821e-01  5.477263e-01 -3.601333e-02
   outer loop
     vertex -2.559374e+02  6.216063e+02 -4.043038e+02
     vertex -2.646968e+02  6.122911e+02 -3.426678e+02
     vertex -2.641449e+02  6.131461e+02 -3.424771e+02
   endloop
 endfacet
 facet normal -8.549158e-01  5.170027e-01 -4.274421e-02
   outer loop
     vertex -2.559374e+02  6.216063e+02 -4.043038e+02
     vertex -2.641449e+02  6.131461e+02 -3.424771e+02
     vertex -2.554181e+02  6.224806e+02 -4.041148e+02
   endloop
 endfacet
 facet normal -8.151089e-01  5.785807e-01 -2.901548e-02
   outer loop
     vertex -2.564897e+02  6.207529e+02 -4.044944e+02
     vertex -2.652812e+02  6.114583e+02 -3.428598e+02
     vertex -2.646968e+02  6.122911e+02 -3.426678e+02
   endloop
 endfacet
 facet normal -8.353263e-01  5.485874e-01 -3.580420e-02
   outer loop
     vertex -2.564897e+02  6.207529e+02 -4.044944e+02
     vertex -2.646968e+02  6.122911e+02 -3.426678e+02
     vertex -2.559374e+02  6.216063e+02 -4.043038e+02
   endloop
 endfacet
 facet normal -7.931680e-01  6.086063e-01 -2.197609e-02
   outer loop
     vertex -2.570743e+02  6.199215e+02 -4.046863e+02
     vertex -2.658971e+02  6.106487e+02 -3.430529e+02
     vertex -2.652812e+02  6.114583e+02 -3.428598e+02
   endloop
 endfacet
 facet normal -8.145426e-01  5.793878e-01 -2.881300e-02
   outer loop
     vertex -2.570743e+02  6.199215e+02 -4.046863e+02
     vertex -2.652812e+02  6.114583e+02 -3.428598e+02
     vertex -2.564897e+02  6.207529e+02 -4.044944e+02
   endloop
 endfacet
 facet normal -7.925945e-01  6.093600e-01 -2.178060e-02
   outer loop
     vertex -2.576903e+02  6.191133e+02 -4.048791e+02
     vertex -2.658971e+02  6.106487e+02 -3.430529e+02
     vertex -2.570743e+02  6.199215e+02 -4.046863e+02
   endloop
 endfacet
 facet normal -7.700909e-01  6.377600e-01 -1.490522e-02
   outer loop
     vertex -2.576903e+02  6.191133e+02 -4.048791e+02
     vertex -2.665436e+02  6.098635e+02 -3.432466e+02
     vertex -2.658971e+02  6.106487e+02 -3.430529e+02
   endloop
 endfacet
 facet normal -7.695134e-01  6.384611e-01 -1.471705e-02
   outer loop
     vertex -2.583368e+02  6.183296e+02 -4.050727e+02
     vertex -2.665436e+02  6.098635e+02 -3.432466e+02
     vertex -2.576903e+02  6.191133e+02 -4.048791e+02
   endloop
 endfacet
 facet normal -7.459106e-01  6.660002e-01 -7.813011e-03
   outer loop
     vertex -2.583368e+02  6.183296e+02 -4.050727e+02
     vertex -2.672198e+02  6.091039e+02 -3.434408e+02
     vertex -2.665436e+02  6.098635e+02 -3.432466e+02
   endloop
 endfacet
 facet normal -7.453323e-01  6.666495e-01 -7.632454e-03
   outer loop
     vertex -2.590130e+02  6.175714e+02 -4.052667e+02
     vertex -2.672198e+02  6.091039e+02 -3.434408e+02
     vertex -2.583368e+02  6.183296e+02 -4.050727e+02
   endloop
 endfacet
 facet normal -7.206619e-01  6.932863e-01 -7.096198e-04
   outer loop
     vertex -2.590130e+02  6.175714e+02 -4.052667e+02
     vertex -2.679247e+02  6.083709e+02 -3.436352e+02
     vertex -2.672198e+02  6.091039e+02 -3.434408e+02
   endloop
 endfacet
 facet normal -7.200857e-01  6.938849e-01 -5.369391e-04
   outer loop
     vertex -2.597179e+02  6.168398e+02 -4.054608e+02
     vertex -2.679247e+02  6.083709e+02 -3.436352e+02
     vertex -2.590130e+02  6.175714e+02 -4.052667e+02
   endloop
 endfacet
 facet normal -6.943808e-01  7.195793e-01  6.394779e-03
   outer loop
     vertex -2.597179e+02  6.168398e+02 -4.054608e+02
     vertex -2.686574e+02  6.076656e+02 -3.438294e+02
     vertex -2.679247e+02  6.083709e+02 -3.436352e+02
   endloop
 endfacet
 facet normal -6.938097e-01  7.201285e-01  6.559352e-03
   outer loop
     vertex -2.604504e+02  6.161358e+02 -4.056549e+02
     vertex -2.686574e+02  6.076656e+02 -3.438294e+02
     vertex -2.597179e+02  6.168398e+02 -4.054608e+02
   endloop
 endfacet
 facet normal -6.671050e-01  7.448415e-01  1.349001e-02
   outer loop
     vertex -2.604504e+02  6.161358e+02 -4.056549e+02
     vertex -2.694167e+02  6.069890e+02 -3.440233e+02
     vertex -2.686574e+02  6.076656e+02 -3.438294e+02
   endloop
 endfacet
 facet normal -6.665420e-01  7.453426e-01  1.364627e-02
   outer loop
     vertex -2.612095e+02  6.154605e+02 -4.058485e+02
     vertex -2.694167e+02  6.069890e+02 -3.440233e+02
     vertex -2.604504e+02  6.161358e+02 -4.056549e+02
   endloop
 endfacet
 facet normal -6.388736e-01  7.690368e-01  2.056590e-02
   outer loop
     vertex -2.612095e+02  6.154605e+02 -4.058485e+02
     vertex -2.702017e+02  6.063421e+02 -3.442165e+02
     vertex -2.694167e+02  6.069890e+02 -3.440233e+02
   endloop
 endfacet
 facet normal -6.383214e-01  7.694912e-01  2.071370e-02
   outer loop
     vertex -2.619941e+02  6.148148e+02 -4.060415e+02
     vertex -2.702017e+02  6.063421e+02 -3.442165e+02
     vertex -2.612095e+02  6.154605e+02 -4.058485e+02
   endloop
 endfacet
 facet normal -6.097270e-01  7.921304e-01  2.761233e-02
   outer loop
     vertex -2.619941e+02  6.148148e+02 -4.060415e+02
     vertex -2.710111e+02  6.057257e+02 -3.444087e+02
     vertex -2.702017e+02  6.063421e+02 -3.442165e+02
   endloop
 endfacet
 facet normal -6.091884e-01  7.925398e-01  2.775152e-02
   outer loop
     vertex -2.628031e+02  6.141997e+02 -4.062335e+02
     vertex -2.710111e+02  6.057257e+02 -3.444087e+02
     vertex -2.619941e+02  6.148148e+02 -4.060415e+02
   endloop
 endfacet
 facet normal -5.797070e-01  8.140893e-01  3.461920e-02
   outer loop
     vertex -2.628031e+02  6.141997e+02 -4.062335e+02
     vertex -2.718438e+02  6.051409e+02 -3.445997e+02
     vertex -2.710111e+02  6.057257e+02 -3.444087e+02
   endloop
 endfacet
 facet normal -5.791845e-01  8.144555e-01  3.474967e-02
   outer loop
     vertex -2.636354e+02  6.136160e+02 -4.064243e+02
     vertex -2.718438e+02  6.051409e+02 -3.445997e+02
     vertex -2.628031e+02  6.141997e+02 -4.062335e+02
   endloop
 endfacet
 facet normal -5.488565e-01  8.348820e-01  4.157647e-02
   outer loop
     vertex -2.636354e+02  6.136160e+02 -4.064243e+02
     vertex -2.726987e+02  6.045883e+02 -3.447893e+02
     vertex -2.718438e+02  6.051409e+02 -3.445997e+02
   endloop
 endfacet
 facet normal -5.483527e-01  8.352069e-01  4.169816e-02
   outer loop
     vertex -2.644897e+02  6.130646e+02 -4.066136e+02
     vertex -2.726987e+02  6.045883e+02 -3.447893e+02
     vertex -2.636354e+02  6.136160e+02 -4.064243e+02
   endloop
 endfacet
 facet normal -5.172199e-01  8.544787e-01  4.847417e-02
   outer loop
     vertex -2.644897e+02  6.130646e+02 -4.066136e+02
     vertex -2.735744e+02  6.040689e+02 -3.449770e+02
     vertex -2.726987e+02  6.045883e+02 -3.447893e+02
   endloop
 endfacet
 facet normal -5.167370e-01  8.547644e-01  4.858705e-02
   outer loop
     vertex -2.653648e+02  6.125462e+02 -4.068012e+02
     vertex -2.735744e+02  6.040689e+02 -3.449770e+02
     vertex -2.644897e+02  6.130646e+02 -4.066136e+02
   endloop
 endfacet
 facet normal -4.848423e-01  8.728514e-01  5.530243e-02
   outer loop
     vertex -2.653648e+02  6.125462e+02 -4.068012e+02
     vertex -2.744698e+02  6.035833e+02 -3.451628e+02
     vertex -2.735744e+02  6.040689e+02 -3.449770e+02
   endloop
 endfacet
 facet normal -4.843826e-01  8.731000e-01  5.540648e-02
   outer loop
     vertex -2.662595e+02  6.120616e+02 -4.069867e+02
     vertex -2.744698e+02  6.035833e+02 -3.451628e+02
     vertex -2.653648e+02  6.125462e+02 -4.068012e+02
   endloop
 endfacet
 facet normal -4.517701e-01  8.899738e-01  6.205146e-02
   outer loop
     vertex -2.662595e+02  6.120616e+02 -4.069867e+02
     vertex -2.753835e+02  6.031323e+02 -3.453462e+02
     vertex -2.744698e+02  6.035833e+02 -3.451628e+02
   endloop
 endfacet
 facet normal -4.513358e-01  8.901875e-01  6.214672e-02
   outer loop
     vertex -2.671725e+02  6.116115e+02 -4.071699e+02
     vertex -2.753835e+02  6.031323e+02 -3.453462e+02
     vertex -2.662595e+02  6.120616e+02 -4.069867e+02
   endloop
 endfacet
 facet normal -4.180509e-01  9.058213e-01  6.871160e-02
   outer loop
     vertex -2.671725e+02  6.116115e+02 -4.071699e+02
     vertex -2.763143e+02  6.027164e+02 -3.455271e+02
     vertex -2.753835e+02  6.031323e+02 -3.453462e+02
   endloop
 endfacet
 facet normal -3.837327e-01  9.203712e-01  7.527331e-02
   outer loop
     vertex -2.681025e+02  6.111965e+02 -4.073506e+02
     vertex -2.772608e+02  6.023364e+02 -3.457051e+02
     vertex -2.763143e+02  6.027164e+02 -3.455271e+02
   endloop
 endfacet
 facet normal -4.176438e-01  9.060025e-01  6.879812e-02
   outer loop
     vertex -2.681025e+02  6.111965e+02 -4.073506e+02
     vertex -2.763143e+02  6.027164e+02 -3.455271e+02
     vertex -2.671725e+02  6.116115e+02 -4.071699e+02
   endloop
 endfacet
 facet normal -3.488649e-01  9.336027e-01  8.172718e-02
   outer loop
     vertex -2.690482e+02  6.108172e+02 -4.075284e+02
     vertex -2.782217e+02  6.019926e+02 -3.458801e+02
     vertex -2.772608e+02  6.023364e+02 -3.457051e+02
   endloop
 endfacet
 facet normal -3.833547e-01  9.205223e-01  7.535118e-02
   outer loop
     vertex -2.690482e+02  6.108172e+02 -4.075284e+02
     vertex -2.772608e+02  6.023364e+02 -3.457051e+02
     vertex -2.681025e+02  6.111965e+02 -4.073506e+02
   endloop
 endfacet
 facet normal -3.134973e-01  9.454968e-01  8.806398e-02
   outer loop
     vertex -2.700082e+02  6.104742e+02 -4.077031e+02
     vertex -2.791955e+02  6.016857e+02 -3.460517e+02
     vertex -2.782217e+02  6.019926e+02 -3.458801e+02
   endloop
 endfacet
 facet normal -3.485177e-01  9.337263e-01  8.179653e-02
   outer loop
     vertex -2.700082e+02  6.104742e+02 -4.077031e+02
     vertex -2.782217e+02  6.019926e+02 -3.458801e+02
     vertex -2.690482e+02  6.108172e+02 -4.075284e+02
   endloop
 endfacet
 facet normal -2.776807e-01  9.560365e-01  9.427462e-02
   outer loop
     vertex -2.709811e+02  6.101680e+02 -4.078746e+02
     vertex -2.801809e+02  6.014161e+02 -3.462198e+02
     vertex -2.791955e+02  6.016857e+02 -3.460517e+02
   endloop
 endfacet
 facet normal -3.131825e-01  9.455954e-01  8.812496e-02
   outer loop
     vertex -2.709811e+02  6.101680e+02 -4.078746e+02
     vertex -2.791955e+02  6.016857e+02 -3.460517e+02
     vertex -2.700082e+02  6.104742e+02 -4.077031e+02
   endloop
 endfacet
 facet normal -2.414662e-01  9.652067e-01  1.003502e-01
   outer loop
     vertex -2.719655e+02  6.098989e+02 -4.080424e+02
     vertex -2.811765e+02  6.011841e+02 -3.463841e+02
     vertex -2.801809e+02  6.014161e+02 -3.462198e+02
   endloop
 endfacet
 facet normal -2.773996e-01  9.561129e-01  9.432741e-02
   outer loop
     vertex -2.719655e+02  6.098989e+02 -4.080424e+02
     vertex -2.801809e+02  6.014161e+02 -3.462198e+02
     vertex -2.709811e+02  6.101680e+02 -4.078746e+02
   endloop
 endfacet
 facet normal -2.049059e-01  9.729942e-01  1.062820e-01
   outer loop
     vertex -2.729602e+02  6.096674e+02 -4.082065e+02
     vertex -2.821808e+02  6.009901e+02 -3.465443e+02
     vertex -2.811765e+02  6.011841e+02 -3.463841e+02
   endloop
 endfacet
 facet normal -2.412201e-01  9.652635e-01  1.003950e-01
   outer loop
     vertex -2.729602e+02  6.096674e+02 -4.082065e+02
     vertex -2.811765e+02  6.011841e+02 -3.463841e+02
     vertex -2.719655e+02  6.098989e+02 -4.080424e+02
   endloop
 endfacet
 facet normal -1.680520e-01  9.793879e-01  1.120616e-01
   outer loop
     vertex -2.739635e+02  6.094738e+02 -4.083665e+02
     vertex -2.831925e+02  6.008344e+02 -3.467002e+02
     vertex -2.821808e+02  6.009901e+02 -3.465443e+02
   endloop
 endfacet
 facet normal -2.046958e-01  9.730344e-01  1.063191e-01
   outer loop
     vertex -2.739635e+02  6.094738e+02 -4.083665e+02
     vertex -2.821808e+02  6.009901e+02 -3.465443e+02
     vertex -2.729602e+02  6.096674e+02 -4.082065e+02
   endloop
 endfacet
 facet normal -1.309574e-01  9.843787e-01  1.176807e-01
   outer loop
     vertex -2.749741e+02  6.093184e+02 -4.085223e+02
     vertex -2.842100e+02  6.007171e+02 -3.468516e+02
     vertex -2.831925e+02  6.008344e+02 -3.467002e+02
   endloop
 endfacet
 facet normal -1.678789e-01  9.794142e-01  1.120912e-01
   outer loop
     vertex -2.749741e+02  6.093184e+02 -4.085223e+02
     vertex -2.831925e+02  6.008344e+02 -3.467002e+02
     vertex -2.739635e+02  6.094738e+02 -4.083665e+02
   endloop
 endfacet
 facet normal -9.367524e-02  9.879593e-01  1.231312e-01
   outer loop
     vertex -2.759906e+02  6.092014e+02 -4.086735e+02
     vertex -2.852319e+02  6.006385e+02 -3.469983e+02
     vertex -2.842100e+02  6.007171e+02 -3.468516e+02
   endloop
 endfacet
 facet normal -1.308220e-01  9.843940e-01  1.177031e-01
   outer loop
     vertex -2.759906e+02  6.092014e+02 -4.086735e+02
     vertex -2.842100e+02  6.007171e+02 -3.468516e+02
     vertex -2.749741e+02  6.093184e+02 -4.085223e+02
   endloop
 endfacet
 facet normal -5.625887e-02  9.901248e-01  1.284053e-01
   outer loop
     vertex -2.770114e+02  6.091230e+02 -4.088201e+02
     vertex -2.862567e+02  6.005986e+02 -3.471401e+02
     vertex -2.852319e+02  6.006385e+02 -3.469983e+02
   endloop
 endfacet
 facet normal -9.357807e-02  9.879666e-01  1.231467e-01
   outer loop
     vertex -2.770114e+02  6.091230e+02 -4.088201e+02
     vertex -2.852319e+02  6.006385e+02 -3.469983e+02
     vertex -2.759906e+02  6.092014e+02 -4.086735e+02
   endloop
 endfacet
 facet normal -1.876190e-02  9.908718e-01  1.334954e-01
   outer loop
     vertex -2.780352e+02  6.090832e+02 -4.089617e+02
     vertex -2.872830e+02  6.005976e+02 -3.472768e+02
     vertex -2.862567e+02  6.005986e+02 -3.471401e+02
   endloop
 endfacet
 facet normal -5.620040e-02  9.901269e-01  1.284143e-01
   outer loop
     vertex -2.780352e+02  6.090832e+02 -4.089617e+02
     vertex -2.862567e+02  6.005986e+02 -3.471401e+02
     vertex -2.770114e+02  6.091230e+02 -4.088201e+02
   endloop
 endfacet
 facet normal -1.874238e-02  9.908718e-01  1.334984e-01
   outer loop
     vertex -2.790604e+02  6.090822e+02 -4.090982e+02
     vertex -2.872830e+02  6.005976e+02 -3.472768e+02
     vertex -2.780352e+02  6.090832e+02 -4.089617e+02
   endloop
 endfacet
endsolid
