solid 
 facet normal  9.671674e-01 -1.282085e-05  2.541400e-01
   outer loop
     vertex -1.387985e+02  6.281878e+02 -5.657672e+02
     vertex -1.387283e+02  6.267665e+02 -5.660345e+02
     vertex -1.385326e+02  6.275079e+02 -5.667788e+02
   endloop
 endfacet
 facet normal  9.671674e-01 -1.282085e-05  2.541400e-01
   outer loop
     vertex -1.386142e+02  6.289268e+02 -5.664685e+02
     vertex -1.385326e+02  6.275079e+02 -5.667788e+02
     vertex -1.383442e+02  6.282775e+02 -5.674959e+02
   endloop
 endfacet
 facet normal  9.671674e-01 -1.282085e-05  2.541400e-01
   outer loop
     vertex -1.386142e+02  6.289268e+02 -5.664685e+02
     vertex -1.387985e+02  6.281878e+02 -5.657672e+02
     vertex -1.385326e+02  6.275079e+02 -5.667788e+02
   endloop
 endfacet
 facet normal  9.671674e-01 -1.282085e-05  2.541400e-01
   outer loop
     vertex -1.389897e+02  6.274768e+02 -5.650393e+02
     vertex -1.389308e+02  6.260544e+02 -5.652638e+02
     vertex -1.387283e+02  6.267665e+02 -5.660345e+02
   endloop
 endfacet
 facet normal  9.671674e-01 -1.282085e-05  2.541400e-01
   outer loop
     vertex -1.389897e+02  6.274768e+02 -5.650393e+02
     vertex -1.387283e+02  6.267665e+02 -5.660345e+02
     vertex -1.387985e+02  6.281878e+02 -5.657672e+02
   endloop
 endfacet
 facet normal  9.671674e-01 -1.282085e-05  2.541400e-01
   outer loop
     vertex -1.384371e+02  6.296928e+02 -5.671423e+02
     vertex -1.383442e+02  6.282775e+02 -5.674959e+02
     vertex -1.381632e+02  6.290744e+02 -5.681846e+02
   endloop
 endfacet
 facet normal  9.671674e-01 -1.282085e-05  2.541400e-01
   outer loop
     vertex -1.384371e+02  6.296928e+02 -5.671423e+02
     vertex -1.386142e+02  6.289268e+02 -5.664685e+02
     vertex -1.383442e+02  6.282775e+02 -5.674959e+02
   endloop
 endfacet
 facet normal  9.671674e-01 -1.282085e-05  2.541400e-01
   outer loop
     vertex -1.391877e+02  6.267947e+02 -5.642859e+02
     vertex -1.391399e+02  6.253726e+02 -5.644679e+02
     vertex -1.389308e+02  6.260544e+02 -5.652638e+02
   endloop
 endfacet
 facet normal  9.671674e-01 -1.282085e-05  2.541400e-01
   outer loop
     vertex -1.391877e+02  6.267947e+02 -5.642859e+02
     vertex -1.389308e+02  6.260544e+02 -5.652638e+02
     vertex -1.389897e+02  6.274768e+02 -5.650393e+02
   endloop
 endfacet
 facet normal  9.671674e-01 -1.282085e-05  2.541400e-01
   outer loop
     vertex -1.382675e+02  6.304845e+02 -5.677876e+02
     vertex -1.381632e+02  6.290744e+02 -5.681846e+02
     vertex -1.379900e+02  6.298973e+02 -5.688440e+02
   endloop
 endfacet
 facet normal  9.671674e-01 -1.282085e-05  2.541400e-01
   outer loop
     vertex -1.382675e+02  6.304845e+02 -5.677876e+02
     vertex -1.384371e+02  6.296928e+02 -5.671423e+02
     vertex -1.381632e+02  6.290744e+02 -5.681846e+02
   endloop
 endfacet
 facet normal  9.671674e-01 -1.282085e-05  2.541400e-01
   outer loop
     vertex -1.393921e+02  6.261427e+02 -5.635081e+02
     vertex -1.393554e+02  6.247221e+02 -5.636480e+02
     vertex -1.391399e+02  6.253726e+02 -5.644679e+02
   endloop
 endfacet
 facet normal  9.671674e-01 -1.282085e-05  2.541400e-01
   outer loop
     vertex -1.393921e+02  6.261427e+02 -5.635081e+02
     vertex -1.391399e+02  6.253726e+02 -5.644679e+02
     vertex -1.391877e+02  6.267947e+02 -5.642859e+02
   endloop
 endfacet
 facet normal  9.671674e-01 -1.282085e-05  2.541400e-01
   outer loop
     vertex -1.381057e+02  6.313009e+02 -5.684034e+02
     vertex -1.379900e+02  6.298973e+02 -5.688440e+02
     vertex -1.378246e+02  6.307451e+02 -5.694732e+02
   endloop
 endfacet
 facet normal  9.671674e-01 -1.282085e-05  2.541400e-01
   outer loop
     vertex -1.381057e+02  6.313009e+02 -5.684034e+02
     vertex -1.382675e+02  6.304845e+02 -5.677876e+02
     vertex -1.379900e+02  6.298973e+02 -5.688440e+02
   endloop
 endfacet
 facet normal  9.671674e-01 -1.282085e-05  2.541400e-01
   outer loop
     vertex -1.396026e+02  6.255215e+02 -5.627069e+02
     vertex -1.395769e+02  6.241037e+02 -5.628050e+02
     vertex -1.393554e+02  6.247221e+02 -5.636480e+02
   endloop
 endfacet
 facet normal  9.671674e-01 -1.282085e-05  2.541400e-01
   outer loop
     vertex -1.396026e+02  6.255215e+02 -5.627069e+02
     vertex -1.393554e+02  6.247221e+02 -5.636480e+02
     vertex -1.393921e+02  6.261427e+02 -5.635081e+02
   endloop
 endfacet
 facet normal  9.671674e-01 -1.282085e-05  2.541400e-01
   outer loop
     vertex -1.379518e+02  6.321409e+02 -5.689889e+02
     vertex -1.378246e+02  6.307451e+02 -5.694732e+02
     vertex -1.376675e+02  6.316166e+02 -5.700712e+02
   endloop
 endfacet
 facet normal  9.671674e-01 -1.282085e-05  2.541400e-01
   outer loop
     vertex -1.379518e+02  6.321409e+02 -5.689889e+02
     vertex -1.381057e+02  6.313009e+02 -5.684034e+02
     vertex -1.378246e+02  6.307451e+02 -5.694732e+02
   endloop
 endfacet
 facet normal  9.671674e-01 -1.282085e-05  2.541400e-01
   outer loop
     vertex -1.398190e+02  6.249321e+02 -5.618837e+02
     vertex -1.398041e+02  6.235183e+02 -5.619403e+02
     vertex -1.395769e+02  6.241037e+02 -5.628050e+02
   endloop
 endfacet
 facet normal  9.671674e-01 -1.282085e-05  2.541400e-01
   outer loop
     vertex -1.398190e+02  6.249321e+02 -5.618837e+02
     vertex -1.395769e+02  6.241037e+02 -5.628050e+02
     vertex -1.396026e+02  6.255215e+02 -5.627069e+02
   endloop
 endfacet
 facet normal  9.671674e-01 -1.282085e-05  2.541400e-01
   outer loop
     vertex -1.378062e+02  6.330031e+02 -5.695433e+02
     vertex -1.379518e+02  6.321409e+02 -5.689889e+02
     vertex -1.376675e+02  6.316166e+02 -5.700712e+02
   endloop
 endfacet
 facet normal  9.671674e-01 -1.282085e-05  2.541400e-01
   outer loop
     vertex -1.378062e+02  6.330031e+02 -5.695433e+02
     vertex -1.376675e+02  6.316166e+02 -5.700712e+02
     vertex -1.375187e+02  6.325107e+02 -5.706374e+02
   endloop
 endfacet
 facet normal  9.671674e-01 -1.282085e-05  2.541400e-01
   outer loop
     vertex -1.400408e+02  6.243753e+02 -5.610394e+02
     vertex -1.400367e+02  6.229668e+02 -5.610551e+02
     vertex -1.398041e+02  6.235183e+02 -5.619403e+02
   endloop
 endfacet
 facet normal  9.671674e-01 -1.282085e-05  2.541400e-01
   outer loop
     vertex -1.400408e+02  6.243753e+02 -5.610394e+02
     vertex -1.398041e+02  6.235183e+02 -5.619403e+02
     vertex -1.398190e+02  6.249321e+02 -5.618837e+02
   endloop
 endfacet
 facet normal  9.671674e-01 -1.282085e-05  2.541400e-01
   outer loop
     vertex -1.376689e+02  6.338864e+02 -5.700657e+02
     vertex -1.378062e+02  6.330031e+02 -5.695433e+02
     vertex -1.375187e+02  6.325107e+02 -5.706374e+02
   endloop
 endfacet
 facet normal  9.671674e-01 -1.282085e-05  2.541400e-01
   outer loop
     vertex -1.376689e+02  6.338864e+02 -5.700657e+02
     vertex -1.375187e+02  6.325107e+02 -5.706374e+02
     vertex -1.373785e+02  6.334260e+02 -5.711708e+02
   endloop
 endfacet
 facet normal  9.671674e-01 -1.282085e-05  2.541400e-01
   outer loop
     vertex -1.402679e+02  6.238520e+02 -5.601754e+02
     vertex -1.402744e+02  6.224499e+02 -5.601505e+02
     vertex -1.400367e+02  6.229668e+02 -5.610551e+02
   endloop
 endfacet
 facet normal  9.671674e-01 -1.282085e-05  2.541400e-01
   outer loop
     vertex -1.402679e+02  6.238520e+02 -5.601754e+02
     vertex -1.400367e+02  6.229668e+02 -5.610551e+02
     vertex -1.400408e+02  6.243753e+02 -5.610394e+02
   endloop
 endfacet
 facet normal  9.671674e-01 -1.282085e-05  2.541400e-01
   outer loop
     vertex -1.375402e+02  6.347895e+02 -5.705554e+02
     vertex -1.376689e+02  6.338864e+02 -5.700657e+02
     vertex -1.373785e+02  6.334260e+02 -5.711708e+02
   endloop
 endfacet
 facet normal  9.671674e-01 -1.282085e-05  2.541400e-01
   outer loop
     vertex -1.375402e+02  6.347895e+02 -5.705554e+02
     vertex -1.373785e+02  6.334260e+02 -5.711708e+02
     vertex -1.372471e+02  6.343613e+02 -5.716708e+02
   endloop
 endfacet
 facet normal  9.671674e-01 -1.282085e-05  2.541400e-01
   outer loop
     vertex -1.404998e+02  6.233628e+02 -5.592928e+02
     vertex -1.405169e+02  6.219683e+02 -5.592278e+02
     vertex -1.402744e+02  6.224499e+02 -5.601505e+02
   endloop
 endfacet
 facet normal  9.671674e-01 -1.282085e-05  2.541400e-01
   outer loop
     vertex -1.404998e+02  6.233628e+02 -5.592928e+02
     vertex -1.402744e+02  6.224499e+02 -5.601505e+02
     vertex -1.402679e+02  6.238520e+02 -5.601754e+02
   endloop
 endfacet
 facet normal  9.671674e-01 -1.282085e-05  2.541400e-01
   outer loop
     vertex -1.374203e+02  6.357111e+02 -5.710117e+02
     vertex -1.375402e+02  6.347895e+02 -5.705554e+02
     vertex -1.372471e+02  6.343613e+02 -5.716708e+02
   endloop
 endfacet
 facet normal  9.671674e-01 -1.282085e-05  2.541400e-01
   outer loop
     vertex -1.374203e+02  6.357111e+02 -5.710117e+02
     vertex -1.372471e+02  6.343613e+02 -5.716708e+02
     vertex -1.371247e+02  6.353153e+02 -5.721365e+02
   endloop
 endfacet
 facet normal  9.671674e-01 -1.282085e-05  2.541400e-01
   outer loop
     vertex -1.407362e+02  6.229086e+02 -5.583929e+02
     vertex -1.405169e+02  6.219683e+02 -5.592278e+02
     vertex -1.404998e+02  6.233628e+02 -5.592928e+02
   endloop
 endfacet
 facet normal  9.671674e-01 -1.282085e-05  2.541400e-01
   outer loop
     vertex -1.407362e+02  6.229086e+02 -5.583929e+02
     vertex -1.407637e+02  6.215227e+02 -5.582884e+02
     vertex -1.405169e+02  6.219683e+02 -5.592278e+02
   endloop
 endfacet
 facet normal  9.671674e-01 -1.282085e-05  2.541400e-01
   outer loop
     vertex -1.373093e+02  6.366500e+02 -5.714340e+02
     vertex -1.374203e+02  6.357111e+02 -5.710117e+02
     vertex -1.371247e+02  6.353153e+02 -5.721365e+02
   endloop
 endfacet
 facet normal  9.671674e-01 -1.282085e-05  2.541400e-01
   outer loop
     vertex -1.373093e+02  6.366500e+02 -5.714340e+02
     vertex -1.371247e+02  6.353153e+02 -5.721365e+02
     vertex -1.370115e+02  6.362866e+02 -5.725675e+02
   endloop
 endfacet
 facet normal  9.671674e-01 -1.282085e-05  2.541400e-01
   outer loop
     vertex -1.409769e+02  6.224898e+02 -5.574771e+02
     vertex -1.407637e+02  6.215227e+02 -5.582884e+02
     vertex -1.407362e+02  6.229086e+02 -5.583929e+02
   endloop
 endfacet
 facet normal  9.671674e-01 -1.282085e-05  2.541400e-01
   outer loop
     vertex -1.409769e+02  6.224898e+02 -5.574771e+02
     vertex -1.410146e+02  6.211138e+02 -5.573335e+02
     vertex -1.407637e+02  6.215227e+02 -5.582884e+02
   endloop
 endfacet
 facet normal  9.671674e-01 -1.282085e-05  2.541400e-01
   outer loop
     vertex -1.372075e+02  6.376046e+02 -5.718215e+02
     vertex -1.373093e+02  6.366500e+02 -5.714340e+02
     vertex -1.370115e+02  6.362866e+02 -5.725675e+02
   endloop
 endfacet
 facet normal  9.671674e-01 -1.282085e-05  2.541400e-01
   outer loop
     vertex -1.372075e+02  6.376046e+02 -5.718215e+02
     vertex -1.370115e+02  6.362866e+02 -5.725675e+02
     vertex -1.369075e+02  6.372739e+02 -5.729630e+02
   endloop
 endfacet
 facet normal  9.671674e-01 -1.282085e-05  2.541400e-01
   outer loop
     vertex -1.412214e+02  6.221072e+02 -5.565466e+02
     vertex -1.412693e+02  6.207420e+02 -5.563645e+02
     vertex -1.410146e+02  6.211138e+02 -5.573335e+02
   endloop
 endfacet
 facet normal  9.671674e-01 -1.282085e-05  2.541400e-01
   outer loop
     vertex -1.412214e+02  6.221072e+02 -5.565466e+02
     vertex -1.410146e+02  6.211138e+02 -5.573335e+02
     vertex -1.409769e+02  6.224898e+02 -5.574771e+02
   endloop
 endfacet
 facet normal  9.671674e-01 -1.282085e-05  2.541400e-01
   outer loop
     vertex -1.371149e+02  6.385738e+02 -5.721739e+02
     vertex -1.372075e+02  6.376046e+02 -5.718215e+02
     vertex -1.369075e+02  6.372739e+02 -5.729630e+02
   endloop
 endfacet
 facet normal  9.671674e-01 -1.282085e-05  2.541400e-01
   outer loop
     vertex -1.371149e+02  6.385738e+02 -5.721739e+02
     vertex -1.369075e+02  6.372739e+02 -5.729630e+02
     vertex -1.368130e+02  6.382758e+02 -5.733225e+02
   endloop
 endfacet
 facet normal  9.671674e-01 -1.282085e-05  2.541400e-01
   outer loop
     vertex -1.414694e+02  6.217613e+02 -5.556028e+02
     vertex -1.412693e+02  6.207420e+02 -5.563645e+02
     vertex -1.412214e+02  6.221072e+02 -5.565466e+02
   endloop
 endfacet
 facet normal  9.671674e-01 -1.282085e-05  2.541400e-01
   outer loop
     vertex -1.414694e+02  6.217613e+02 -5.556028e+02
     vertex -1.415273e+02  6.204080e+02 -5.553828e+02
     vertex -1.412693e+02  6.207420e+02 -5.563645e+02
   endloop
 endfacet
 facet normal  9.671674e-01 -1.282085e-05  2.541400e-01
   outer loop
     vertex -1.370316e+02  6.395560e+02 -5.724905e+02
     vertex -1.371149e+02  6.385738e+02 -5.721739e+02
     vertex -1.368130e+02  6.382758e+02 -5.733225e+02
   endloop
 endfacet
 facet normal  9.671674e-01 -1.282085e-05  2.541400e-01
   outer loop
     vertex -1.370316e+02  6.395560e+02 -5.724905e+02
     vertex -1.368130e+02  6.382758e+02 -5.733225e+02
     vertex -1.367281e+02  6.392908e+02 -5.736456e+02
   endloop
 endfacet
 facet normal  9.671674e-01 -1.282085e-05  2.541400e-01
   outer loop
     vertex -1.417206e+02  6.214526e+02 -5.546470e+02
     vertex -1.417882e+02  6.201121e+02 -5.543896e+02
     vertex -1.415273e+02  6.204080e+02 -5.553828e+02
   endloop
 endfacet
 facet normal  9.671674e-01 -1.282085e-05  2.541400e-01
   outer loop
     vertex -1.417206e+02  6.214526e+02 -5.546470e+02
     vertex -1.415273e+02  6.204080e+02 -5.553828e+02
     vertex -1.414694e+02  6.217613e+02 -5.556028e+02
   endloop
 endfacet
 facet normal  9.671674e-01 -1.282085e-05  2.541400e-01
   outer loop
     vertex -1.369579e+02  6.405500e+02 -5.727710e+02
     vertex -1.370316e+02  6.395560e+02 -5.724905e+02
     vertex -1.367281e+02  6.392908e+02 -5.736456e+02
   endloop
 endfacet
 facet normal  9.671674e-01 -1.282085e-05  2.541400e-01
   outer loop
     vertex -1.369579e+02  6.405500e+02 -5.727710e+02
     vertex -1.367281e+02  6.392908e+02 -5.736456e+02
     vertex -1.366529e+02  6.403177e+02 -5.739317e+02
   endloop
 endfacet
 facet normal  9.671674e-01 -1.282085e-05  2.541400e-01
   outer loop
     vertex -1.419745e+02  6.211814e+02 -5.536805e+02
     vertex -1.420518e+02  6.198549e+02 -5.533864e+02
     vertex -1.417882e+02  6.201121e+02 -5.543896e+02
   endloop
 endfacet
 facet normal  9.671674e-01 -1.282085e-05  2.541400e-01
   outer loop
     vertex -1.419745e+02  6.211814e+02 -5.536805e+02
     vertex -1.417882e+02  6.201121e+02 -5.543896e+02
     vertex -1.417206e+02  6.214526e+02 -5.546470e+02
   endloop
 endfacet
 facet normal  9.671674e-01 -1.282085e-05  2.541400e-01
   outer loop
     vertex -1.368938e+02  6.415542e+02 -5.730149e+02
     vertex -1.369579e+02  6.405500e+02 -5.727710e+02
     vertex -1.366529e+02  6.403177e+02 -5.739317e+02
   endloop
 endfacet
 facet normal  9.671674e-01 -1.282085e-05  2.541400e-01
   outer loop
     vertex -1.368938e+02  6.415542e+02 -5.730149e+02
     vertex -1.366529e+02  6.403177e+02 -5.739317e+02
     vertex -1.365875e+02  6.413549e+02 -5.741805e+02
   endloop
 endfacet
 facet normal  9.671674e-01 -1.282085e-05  2.541400e-01
   outer loop
     vertex -1.422309e+02  6.209483e+02 -5.527049e+02
     vertex -1.423177e+02  6.196366e+02 -5.523747e+02
     vertex -1.420518e+02  6.198549e+02 -5.533864e+02
   endloop
 endfacet
 facet normal  9.671674e-01 -1.282085e-05  2.541400e-01
   outer loop
     vertex -1.422309e+02  6.209483e+02 -5.527049e+02
     vertex -1.420518e+02  6.198549e+02 -5.533864e+02
     vertex -1.419745e+02  6.211814e+02 -5.536805e+02
   endloop
 endfacet
 facet normal  9.671674e-01 -1.282085e-05  2.541400e-01
   outer loop
     vertex -1.368394e+02  6.425672e+02 -5.732218e+02
     vertex -1.368938e+02  6.415542e+02 -5.730149e+02
     vertex -1.365875e+02  6.413549e+02 -5.741805e+02
   endloop
 endfacet
 facet normal  9.671674e-01 -1.282085e-05  2.541400e-01
   outer loop
     vertex -1.368394e+02  6.425672e+02 -5.732218e+02
     vertex -1.365875e+02  6.413549e+02 -5.741805e+02
     vertex -1.365321e+02  6.424011e+02 -5.743916e+02
   endloop
 endfacet
 facet normal  9.671674e-01 -1.282085e-05  2.541400e-01
   outer loop
     vertex -1.424893e+02  6.207535e+02 -5.517214e+02
     vertex -1.425854e+02  6.194576e+02 -5.513557e+02
     vertex -1.423177e+02  6.196366e+02 -5.523747e+02
   endloop
 endfacet
 facet normal  9.671674e-01 -1.282085e-05  2.541400e-01
   outer loop
     vertex -1.424893e+02  6.207535e+02 -5.517214e+02
     vertex -1.423177e+02  6.196366e+02 -5.523747e+02
     vertex -1.422309e+02  6.209483e+02 -5.527049e+02
   endloop
 endfacet
 facet normal  9.671674e-01 -1.282085e-05  2.541400e-01
   outer loop
     vertex -1.367948e+02  6.435876e+02 -5.733916e+02
     vertex -1.368394e+02  6.425672e+02 -5.732218e+02
     vertex -1.365321e+02  6.424011e+02 -5.743916e+02
   endloop
 endfacet
 facet normal  9.671674e-01 -1.282085e-05  2.541400e-01
   outer loop
     vertex -1.367948e+02  6.435876e+02 -5.733916e+02
     vertex -1.365321e+02  6.424011e+02 -5.743916e+02
     vertex -1.364866e+02  6.434546e+02 -5.745647e+02
   endloop
 endfacet
 facet normal  9.671674e-01 -1.282085e-05  2.541400e-01
   outer loop
     vertex -1.427495e+02  6.205974e+02 -5.507315e+02
     vertex -1.428547e+02  6.193182e+02 -5.503310e+02
     vertex -1.425854e+02  6.194576e+02 -5.513557e+02
   endloop
 endfacet
 facet normal  9.671674e-01 -1.282085e-05  2.541400e-01
   outer loop
     vertex -1.427495e+02  6.205974e+02 -5.507315e+02
     vertex -1.425854e+02  6.194576e+02 -5.513557e+02
     vertex -1.424893e+02  6.207535e+02 -5.517214e+02
   endloop
 endfacet
 facet normal  9.671674e-01 -1.282085e-05  2.541400e-01
   outer loop
     vertex -1.367601e+02  6.446139e+02 -5.735239e+02
     vertex -1.367948e+02  6.435876e+02 -5.733916e+02
     vertex -1.364866e+02  6.434546e+02 -5.745647e+02
   endloop
 endfacet
 facet normal  9.671674e-01 -1.282085e-05  2.541400e-01
   outer loop
     vertex -1.367601e+02  6.446139e+02 -5.735239e+02
     vertex -1.364866e+02  6.434546e+02 -5.745647e+02
     vertex -1.364511e+02  6.445141e+02 -5.746996e+02
   endloop
 endfacet
 facet normal  9.671674e-01 -1.282085e-05  2.541400e-01
   outer loop
     vertex -1.430109e+02  6.204801e+02 -5.497365e+02
     vertex -1.431251e+02  6.192184e+02 -5.493020e+02
     vertex -1.428547e+02  6.193182e+02 -5.503310e+02
   endloop
 endfacet
 facet normal  9.671674e-01 -1.282085e-05  2.541400e-01
   outer loop
     vertex -1.430109e+02  6.204801e+02 -5.497365e+02
     vertex -1.428547e+02  6.193182e+02 -5.503310e+02
     vertex -1.427495e+02  6.205974e+02 -5.507315e+02
   endloop
 endfacet
 facet normal  9.671674e-01 -1.282085e-05  2.541400e-01
   outer loop
     vertex -1.367352e+02  6.456446e+02 -5.736185e+02
     vertex -1.367601e+02  6.446139e+02 -5.735239e+02
     vertex -1.364511e+02  6.445141e+02 -5.746996e+02
   endloop
 endfacet
 facet normal  9.671674e-01 -1.282085e-05  2.541400e-01
   outer loop
     vertex -1.367352e+02  6.456446e+02 -5.736185e+02
     vertex -1.364511e+02  6.445141e+02 -5.746996e+02
     vertex -1.364257e+02  6.455781e+02 -5.747961e+02
   endloop
 endfacet
 facet normal  9.671674e-01 -1.282085e-05  2.541400e-01
   outer loop
     vertex -1.432733e+02  6.204018e+02 -5.487380e+02
     vertex -1.433963e+02  6.191585e+02 -5.482701e+02
     vertex -1.431251e+02  6.192184e+02 -5.493020e+02
   endloop
 endfacet
 facet normal  9.671674e-01 -1.282085e-05  2.541400e-01
   outer loop
     vertex -1.432733e+02  6.204018e+02 -5.487380e+02
     vertex -1.431251e+02  6.192184e+02 -5.493020e+02
     vertex -1.430109e+02  6.204801e+02 -5.497365e+02
   endloop
 endfacet
 facet normal  9.671674e-01 -1.282085e-05  2.541400e-01
   outer loop
     vertex -1.367202e+02  6.466783e+02 -5.736753e+02
     vertex -1.364257e+02  6.455781e+02 -5.747961e+02
     vertex -1.364105e+02  6.466450e+02 -5.748541e+02
   endloop
 endfacet
 facet normal  9.671674e-01 -1.282085e-05  2.541400e-01
   outer loop
     vertex -1.367202e+02  6.466783e+02 -5.736753e+02
     vertex -1.367352e+02  6.456446e+02 -5.736185e+02
     vertex -1.364257e+02  6.455781e+02 -5.747961e+02
   endloop
 endfacet
 facet normal  9.671674e-01 -1.282085e-05  2.541400e-01
   outer loop
     vertex -1.435362e+02  6.203626e+02 -5.477374e+02
     vertex -1.436678e+02  6.191385e+02 -5.472367e+02
     vertex -1.433963e+02  6.191585e+02 -5.482701e+02
   endloop
 endfacet
 facet normal  9.671674e-01 -1.282085e-05  2.541400e-01
   outer loop
     vertex -1.435362e+02  6.203626e+02 -5.477374e+02
     vertex -1.433963e+02  6.191585e+02 -5.482701e+02
     vertex -1.432733e+02  6.204018e+02 -5.487380e+02
   endloop
 endfacet
 facet normal  9.671674e-01 -1.282085e-05  2.541400e-01
   outer loop
     vertex -1.367152e+02  6.477135e+02 -5.736942e+02
     vertex -1.367202e+02  6.466783e+02 -5.736753e+02
     vertex -1.364105e+02  6.466450e+02 -5.748541e+02
   endloop
 endfacet
 facet normal  9.671674e-01 -1.282085e-05  2.541400e-01
   outer loop
     vertex -1.367152e+02  6.477135e+02 -5.736942e+02
     vertex -1.364054e+02  6.477135e+02 -5.748734e+02
     vertex -1.364105e+02  6.487819e+02 -5.748541e+02
   endloop
 endfacet
 facet normal  9.671674e-01 -1.282085e-05  2.541400e-01
   outer loop
     vertex -1.367152e+02  6.477135e+02 -5.736942e+02
     vertex -1.364105e+02  6.466450e+02 -5.748541e+02
     vertex -1.364054e+02  6.477135e+02 -5.748734e+02
   endloop
 endfacet
 facet normal  9.671674e-01 -1.282085e-05  2.541400e-01
   outer loop
     vertex -1.437993e+02  6.203626e+02 -5.467360e+02
     vertex -1.439393e+02  6.191585e+02 -5.462033e+02
     vertex -1.436678e+02  6.191385e+02 -5.472367e+02
   endloop
 endfacet
 facet normal  9.671674e-01 -1.282085e-05  2.541400e-01
   outer loop
     vertex -1.437993e+02  6.203626e+02 -5.467360e+02
     vertex -1.436678e+02  6.191385e+02 -5.472367e+02
     vertex -1.435362e+02  6.203626e+02 -5.477374e+02
   endloop
 endfacet
 facet normal  9.671674e-01 -1.282085e-05  2.541400e-01
   outer loop
     vertex -1.367202e+02  6.487487e+02 -5.736753e+02
     vertex -1.367152e+02  6.477135e+02 -5.736942e+02
     vertex -1.364105e+02  6.487819e+02 -5.748541e+02
   endloop
 endfacet
 facet normal  9.671674e-01 -1.282085e-05  2.541400e-01
   outer loop
     vertex -1.367202e+02  6.487487e+02 -5.736753e+02
     vertex -1.364105e+02  6.487819e+02 -5.748541e+02
     vertex -1.364257e+02  6.498489e+02 -5.747961e+02
   endloop
 endfacet
 facet normal  9.671674e-01 -1.282085e-05  2.541400e-01
   outer loop
     vertex -1.440623e+02  6.204018e+02 -5.457353e+02
     vertex -1.439393e+02  6.191585e+02 -5.462033e+02
     vertex -1.437993e+02  6.203626e+02 -5.467360e+02
   endloop
 endfacet
 facet normal  9.671674e-01 -1.282085e-05  2.541400e-01
   outer loop
     vertex -1.440623e+02  6.204018e+02 -5.457353e+02
     vertex -1.442105e+02  6.192184e+02 -5.451714e+02
     vertex -1.439393e+02  6.191585e+02 -5.462033e+02
   endloop
 endfacet
 facet normal  9.671674e-01 -1.282085e-05  2.541400e-01
   outer loop
     vertex -1.367351e+02  6.497824e+02 -5.736184e+02
     vertex -1.367202e+02  6.487487e+02 -5.736753e+02
     vertex -1.364257e+02  6.498489e+02 -5.747961e+02
   endloop
 endfacet
 facet normal  9.671674e-01 -1.282085e-05  2.541400e-01
   outer loop
     vertex -1.364510e+02  6.509129e+02 -5.746996e+02
     vertex -1.367351e+02  6.497824e+02 -5.736184e+02
     vertex -1.364257e+02  6.498489e+02 -5.747961e+02
   endloop
 endfacet
 facet normal  9.671674e-01 -1.282085e-05  2.541400e-01
   outer loop
     vertex -1.443247e+02  6.204801e+02 -5.447368e+02
     vertex -1.444809e+02  6.193182e+02 -5.441423e+02
     vertex -1.442105e+02  6.192184e+02 -5.451714e+02
   endloop
 endfacet
 facet normal  9.671674e-01 -1.282085e-05  2.541400e-01
   outer loop
     vertex -1.443247e+02  6.204801e+02 -5.447368e+02
     vertex -1.442105e+02  6.192184e+02 -5.451714e+02
     vertex -1.440623e+02  6.204018e+02 -5.457353e+02
   endloop
 endfacet
 facet normal  9.671674e-01 -1.282085e-05  2.541400e-01
   outer loop
     vertex -1.367600e+02  6.508131e+02 -5.735238e+02
     vertex -1.367351e+02  6.497824e+02 -5.736184e+02
     vertex -1.364510e+02  6.509129e+02 -5.746996e+02
   endloop
 endfacet
 facet normal  9.671674e-01 -1.282085e-05  2.541400e-01
   outer loop
     vertex -1.364865e+02  6.519724e+02 -5.745647e+02
     vertex -1.367600e+02  6.508131e+02 -5.735238e+02
     vertex -1.364510e+02  6.509129e+02 -5.746996e+02
   endloop
 endfacet
 facet normal  9.671674e-01 -1.282085e-05  2.541400e-01
   outer loop
     vertex -1.445861e+02  6.205974e+02 -5.437419e+02
     vertex -1.444809e+02  6.193182e+02 -5.441423e+02
     vertex -1.443247e+02  6.204801e+02 -5.447368e+02
   endloop
 endfacet
 facet normal  9.671674e-01 -1.282085e-05  2.541400e-01
   outer loop
     vertex -1.445861e+02  6.205974e+02 -5.437419e+02
     vertex -1.447501e+02  6.194576e+02 -5.431176e+02
     vertex -1.444809e+02  6.193182e+02 -5.441423e+02
   endloop
 endfacet
 facet normal  9.671674e-01 -1.282085e-05  2.541400e-01
   outer loop
     vertex -1.367947e+02  6.518394e+02 -5.733916e+02
     vertex -1.367600e+02  6.508131e+02 -5.735238e+02
     vertex -1.364865e+02  6.519724e+02 -5.745647e+02
   endloop
 endfacet
 facet normal  9.671674e-01 -1.282085e-05  2.541400e-01
   outer loop
     vertex -1.365319e+02  6.530259e+02 -5.743916e+02
     vertex -1.367947e+02  6.518394e+02 -5.733916e+02
     vertex -1.364865e+02  6.519724e+02 -5.745647e+02
   endloop
 endfacet
 facet normal  9.671674e-01 -1.282085e-05  2.541400e-01
   outer loop
     vertex -1.448462e+02  6.207535e+02 -5.427520e+02
     vertex -1.450179e+02  6.196366e+02 -5.420987e+02
     vertex -1.447501e+02  6.194576e+02 -5.431176e+02
   endloop
 endfacet
 facet normal  9.671674e-01 -1.282085e-05  2.541400e-01
   outer loop
     vertex -1.448462e+02  6.207535e+02 -5.427520e+02
     vertex -1.447501e+02  6.194576e+02 -5.431176e+02
     vertex -1.445861e+02  6.205974e+02 -5.437419e+02
   endloop
 endfacet
 facet normal  9.671674e-01 -1.282085e-05  2.541400e-01
   outer loop
     vertex -1.368393e+02  6.528598e+02 -5.732218e+02
     vertex -1.367947e+02  6.518394e+02 -5.733916e+02
     vertex -1.365319e+02  6.530259e+02 -5.743916e+02
   endloop
 endfacet
 facet normal  9.671674e-01 -1.282085e-05  2.541400e-01
   outer loop
     vertex -1.365874e+02  6.540720e+02 -5.741805e+02
     vertex -1.368393e+02  6.528598e+02 -5.732218e+02
     vertex -1.365319e+02  6.530259e+02 -5.743916e+02
   endloop
 endfacet
 facet normal  9.671674e-01 -1.282085e-05  2.541400e-01
   outer loop
     vertex -1.451046e+02  6.209483e+02 -5.417685e+02
     vertex -1.452837e+02  6.198549e+02 -5.410869e+02
     vertex -1.450179e+02  6.196366e+02 -5.420987e+02
   endloop
 endfacet
 facet normal  9.671674e-01 -1.282085e-05  2.541400e-01
   outer loop
     vertex -1.451046e+02  6.209483e+02 -5.417685e+02
     vertex -1.450179e+02  6.196366e+02 -5.420987e+02
     vertex -1.448462e+02  6.207535e+02 -5.427520e+02
   endloop
 endfacet
 facet normal  9.671674e-01 -1.282085e-05  2.541400e-01
   outer loop
     vertex -1.368937e+02  6.538728e+02 -5.730148e+02
     vertex -1.368393e+02  6.528598e+02 -5.732218e+02
     vertex -1.365874e+02  6.540720e+02 -5.741805e+02
   endloop
 endfacet
 facet normal  9.671674e-01 -1.282085e-05  2.541400e-01
   outer loop
     vertex -1.366527e+02  6.551092e+02 -5.739317e+02
     vertex -1.368937e+02  6.538728e+02 -5.730148e+02
     vertex -1.365874e+02  6.540720e+02 -5.741805e+02
   endloop
 endfacet
 facet normal  9.671674e-01 -1.282085e-05  2.541400e-01
   outer loop
     vertex -1.453610e+02  6.211814e+02 -5.407928e+02
     vertex -1.455473e+02  6.201121e+02 -5.400837e+02
     vertex -1.452837e+02  6.198549e+02 -5.410869e+02
   endloop
 endfacet
 facet normal  9.671674e-01 -1.282085e-05  2.541400e-01
   outer loop
     vertex -1.453610e+02  6.211814e+02 -5.407928e+02
     vertex -1.452837e+02  6.198549e+02 -5.410869e+02
     vertex -1.451046e+02  6.209483e+02 -5.417685e+02
   endloop
 endfacet
 facet normal  9.671674e-01 -1.282085e-05  2.541400e-01
   outer loop
     vertex -1.369578e+02  6.548770e+02 -5.727710e+02
     vertex -1.368937e+02  6.538728e+02 -5.730148e+02
     vertex -1.366527e+02  6.551092e+02 -5.739317e+02
   endloop
 endfacet
 facet normal  9.671674e-01 -1.282085e-05  2.541400e-01
   outer loop
     vertex -1.367279e+02  6.561361e+02 -5.736455e+02
     vertex -1.369578e+02  6.548770e+02 -5.727710e+02
     vertex -1.366527e+02  6.551092e+02 -5.739317e+02
   endloop
 endfacet
 facet normal  9.671674e-01 -1.282085e-05  2.541400e-01
   outer loop
     vertex -1.456150e+02  6.214526e+02 -5.398264e+02
     vertex -1.458083e+02  6.204080e+02 -5.390906e+02
     vertex -1.455473e+02  6.201121e+02 -5.400837e+02
   endloop
 endfacet
 facet normal  9.671674e-01 -1.282085e-05  2.541400e-01
   outer loop
     vertex -1.456150e+02  6.214526e+02 -5.398264e+02
     vertex -1.455473e+02  6.201121e+02 -5.400837e+02
     vertex -1.453610e+02  6.211814e+02 -5.407928e+02
   endloop
 endfacet
 facet normal  9.671674e-01 -1.282085e-05  2.541400e-01
   outer loop
     vertex -1.370314e+02  6.558709e+02 -5.724905e+02
     vertex -1.369578e+02  6.548770e+02 -5.727710e+02
     vertex -1.367279e+02  6.561361e+02 -5.736455e+02
   endloop
 endfacet
 facet normal  9.671674e-01 -1.282085e-05  2.541400e-01
   outer loop
     vertex -1.368128e+02  6.571512e+02 -5.733225e+02
     vertex -1.370314e+02  6.558709e+02 -5.724905e+02
     vertex -1.367279e+02  6.561361e+02 -5.736455e+02
   endloop
 endfacet
 facet normal  9.671674e-01 -1.282085e-05  2.541400e-01
   outer loop
     vertex -1.458661e+02  6.217613e+02 -5.388706e+02
     vertex -1.460663e+02  6.207420e+02 -5.381088e+02
     vertex -1.458083e+02  6.204080e+02 -5.390906e+02
   endloop
 endfacet
 facet normal  9.671674e-01 -1.282085e-05  2.541400e-01
   outer loop
     vertex -1.458661e+02  6.217613e+02 -5.388706e+02
     vertex -1.458083e+02  6.204080e+02 -5.390906e+02
     vertex -1.456150e+02  6.214526e+02 -5.398264e+02
   endloop
 endfacet
 facet normal  9.671674e-01 -1.282085e-05  2.541400e-01
   outer loop
     vertex -1.371146e+02  6.568532e+02 -5.721738e+02
     vertex -1.370314e+02  6.558709e+02 -5.724905e+02
     vertex -1.368128e+02  6.571512e+02 -5.733225e+02
   endloop
 endfacet
 facet normal  9.671674e-01 -1.282085e-05  2.541400e-01
   outer loop
     vertex -1.369073e+02  6.581531e+02 -5.729629e+02
     vertex -1.371146e+02  6.568532e+02 -5.721738e+02
     vertex -1.368128e+02  6.571512e+02 -5.733225e+02
   endloop
 endfacet
 facet normal  9.671674e-01 -1.282085e-05  2.541400e-01
   outer loop
     vertex -1.461141e+02  6.221072e+02 -5.379267e+02
     vertex -1.463209e+02  6.211138e+02 -5.371398e+02
     vertex -1.460663e+02  6.207420e+02 -5.381088e+02
   endloop
 endfacet
 facet normal  9.671674e-01 -1.282085e-05  2.541400e-01
   outer loop
     vertex -1.461141e+02  6.221072e+02 -5.379267e+02
     vertex -1.460663e+02  6.207420e+02 -5.381088e+02
     vertex -1.458661e+02  6.217613e+02 -5.388706e+02
   endloop
 endfacet
 facet normal  9.671674e-01 -1.282085e-05  2.541400e-01
   outer loop
     vertex -1.372072e+02  6.578223e+02 -5.718215e+02
     vertex -1.371146e+02  6.568532e+02 -5.721738e+02
     vertex -1.369073e+02  6.581531e+02 -5.729629e+02
   endloop
 endfacet
 facet normal  9.671674e-01 -1.282085e-05  2.541400e-01
   outer loop
     vertex -1.370112e+02  6.591404e+02 -5.725674e+02
     vertex -1.372072e+02  6.578223e+02 -5.718215e+02
     vertex -1.369073e+02  6.581531e+02 -5.729629e+02
   endloop
 endfacet
 facet normal  9.671674e-01 -1.282085e-05  2.541400e-01
   outer loop
     vertex -1.463586e+02  6.224898e+02 -5.369962e+02
     vertex -1.465718e+02  6.215227e+02 -5.361849e+02
     vertex -1.463209e+02  6.211138e+02 -5.371398e+02
   endloop
 endfacet
 facet normal  9.671674e-01 -1.282085e-05  2.541400e-01
   outer loop
     vertex -1.463586e+02  6.224898e+02 -5.369962e+02
     vertex -1.463209e+02  6.211138e+02 -5.371398e+02
     vertex -1.461141e+02  6.221072e+02 -5.379267e+02
   endloop
 endfacet
 facet normal  9.671674e-01 -1.282085e-05  2.541400e-01
   outer loop
     vertex -1.373090e+02  6.587770e+02 -5.714339e+02
     vertex -1.372072e+02  6.578223e+02 -5.718215e+02
     vertex -1.370112e+02  6.591404e+02 -5.725674e+02
   endloop
 endfacet
 facet normal  9.671674e-01 -1.282085e-05  2.541400e-01
   outer loop
     vertex -1.371244e+02  6.601117e+02 -5.721365e+02
     vertex -1.373090e+02  6.587770e+02 -5.714339e+02
     vertex -1.370112e+02  6.591404e+02 -5.725674e+02
   endloop
 endfacet
 facet normal  9.671674e-01 -1.282085e-05  2.541400e-01
   outer loop
     vertex -1.465993e+02  6.229086e+02 -5.360804e+02
     vertex -1.468186e+02  6.219683e+02 -5.352455e+02
     vertex -1.465718e+02  6.215227e+02 -5.361849e+02
   endloop
 endfacet
 facet normal  9.671674e-01 -1.282085e-05  2.541400e-01
   outer loop
     vertex -1.465993e+02  6.229086e+02 -5.360804e+02
     vertex -1.465718e+02  6.215227e+02 -5.361849e+02
     vertex -1.463586e+02  6.224898e+02 -5.369962e+02
   endloop
 endfacet
 facet normal  9.671674e-01 -1.282085e-05  2.541400e-01
   outer loop
     vertex -1.374200e+02  6.597158e+02 -5.710116e+02
     vertex -1.373090e+02  6.587770e+02 -5.714339e+02
     vertex -1.371244e+02  6.601117e+02 -5.721365e+02
   endloop
 endfacet
 facet normal  9.671674e-01 -1.282085e-05  2.541400e-01
   outer loop
     vertex -1.372468e+02  6.610657e+02 -5.716707e+02
     vertex -1.374200e+02  6.597158e+02 -5.710116e+02
     vertex -1.371244e+02  6.601117e+02 -5.721365e+02
   endloop
 endfacet
 facet normal  9.671674e-01 -1.282085e-05  2.541400e-01
   outer loop
     vertex -1.468357e+02  6.233628e+02 -5.351806e+02
     vertex -1.470611e+02  6.224499e+02 -5.343229e+02
     vertex -1.468186e+02  6.219683e+02 -5.352455e+02
   endloop
 endfacet
 facet normal  9.671674e-01 -1.282085e-05  2.541400e-01
   outer loop
     vertex -1.468357e+02  6.233628e+02 -5.351806e+02
     vertex -1.468186e+02  6.219683e+02 -5.352455e+02
     vertex -1.465993e+02  6.229086e+02 -5.360804e+02
   endloop
 endfacet
 facet normal  9.671674e-01 -1.282085e-05  2.541400e-01
   outer loop
     vertex -1.375399e+02  6.606374e+02 -5.705553e+02
     vertex -1.374200e+02  6.597158e+02 -5.710116e+02
     vertex -1.372468e+02  6.610657e+02 -5.716707e+02
   endloop
 endfacet
 facet normal  9.671674e-01 -1.282085e-05  2.541400e-01
   outer loop
     vertex -1.470676e+02  6.238520e+02 -5.342980e+02
     vertex -1.470611e+02  6.224499e+02 -5.343229e+02
     vertex -1.468357e+02  6.233628e+02 -5.351806e+02
   endloop
 endfacet
 facet normal  9.671674e-01 -1.282085e-05  2.541400e-01
   outer loop
     vertex -1.472988e+02  6.229668e+02 -5.334183e+02
     vertex -1.470611e+02  6.224499e+02 -5.343229e+02
     vertex -1.470676e+02  6.238520e+02 -5.342980e+02
   endloop
 endfacet
 facet normal  9.671674e-01 -1.282085e-05  2.541400e-01
   outer loop
     vertex -1.373781e+02  6.620010e+02 -5.711707e+02
     vertex -1.375399e+02  6.606374e+02 -5.705553e+02
     vertex -1.372468e+02  6.610657e+02 -5.716707e+02
   endloop
 endfacet
 facet normal  9.671674e-01 -1.282085e-05  2.541400e-01
   outer loop
     vertex -1.376685e+02  6.615406e+02 -5.700656e+02
     vertex -1.375399e+02  6.606374e+02 -5.705553e+02
     vertex -1.373781e+02  6.620010e+02 -5.711707e+02
   endloop
 endfacet
 facet normal  9.671674e-01 -1.282085e-05  2.541400e-01
   outer loop
     vertex -1.472946e+02  6.243753e+02 -5.334339e+02
     vertex -1.472988e+02  6.229668e+02 -5.334183e+02
     vertex -1.470676e+02  6.238520e+02 -5.342980e+02
   endloop
 endfacet
 facet normal  9.671674e-01 -1.282085e-05  2.541400e-01
   outer loop
     vertex -1.475314e+02  6.235183e+02 -5.325330e+02
     vertex -1.472988e+02  6.229668e+02 -5.334183e+02
     vertex -1.472946e+02  6.243753e+02 -5.334339e+02
   endloop
 endfacet
 facet normal  9.671674e-01 -1.282085e-05  2.541400e-01
   outer loop
     vertex -1.375183e+02  6.629163e+02 -5.706373e+02
     vertex -1.376685e+02  6.615406e+02 -5.700656e+02
     vertex -1.373781e+02  6.620010e+02 -5.711707e+02
   endloop
 endfacet
 facet normal  9.671674e-01 -1.282085e-05  2.541400e-01
   outer loop
     vertex -1.378058e+02  6.624239e+02 -5.695432e+02
     vertex -1.376685e+02  6.615406e+02 -5.700656e+02
     vertex -1.375183e+02  6.629163e+02 -5.706373e+02
   endloop
 endfacet
 facet normal  9.671674e-01 -1.282085e-05  2.541400e-01
   outer loop
     vertex -1.475165e+02  6.249321e+02 -5.325897e+02
     vertex -1.475314e+02  6.235183e+02 -5.325330e+02
     vertex -1.472946e+02  6.243753e+02 -5.334339e+02
   endloop
 endfacet
 facet normal  9.671674e-01 -1.282085e-05  2.541400e-01
   outer loop
     vertex -1.477586e+02  6.241037e+02 -5.316683e+02
     vertex -1.475314e+02  6.235183e+02 -5.325330e+02
     vertex -1.475165e+02  6.249321e+02 -5.325897e+02
   endloop
 endfacet
 facet normal  9.671674e-01 -1.282085e-05  2.541400e-01
   outer loop
     vertex -1.376671e+02  6.638103e+02 -5.700711e+02
     vertex -1.378058e+02  6.624239e+02 -5.695432e+02
     vertex -1.375183e+02  6.629163e+02 -5.706373e+02
   endloop
 endfacet
 facet normal  9.671674e-01 -1.282085e-05  2.541400e-01
   outer loop
     vertex -1.379515e+02  6.632861e+02 -5.689888e+02
     vertex -1.378058e+02  6.624239e+02 -5.695432e+02
     vertex -1.376671e+02  6.638103e+02 -5.700711e+02
   endloop
 endfacet
 facet normal  9.671674e-01 -1.282085e-05  2.541400e-01
   outer loop
     vertex -1.477328e+02  6.255215e+02 -5.317664e+02
     vertex -1.477586e+02  6.241037e+02 -5.316683e+02
     vertex -1.475165e+02  6.249321e+02 -5.325897e+02
   endloop
 endfacet
 facet normal  9.671674e-01 -1.282085e-05  2.541400e-01
   outer loop
     vertex -1.479801e+02  6.247221e+02 -5.308254e+02
     vertex -1.477586e+02  6.241037e+02 -5.316683e+02
     vertex -1.477328e+02  6.255215e+02 -5.317664e+02
   endloop
 endfacet
 facet normal  9.671674e-01 -1.282085e-05  2.541400e-01
   outer loop
     vertex -1.378242e+02  6.646819e+02 -5.694731e+02
     vertex -1.379515e+02  6.632861e+02 -5.689888e+02
     vertex -1.376671e+02  6.638103e+02 -5.700711e+02
   endloop
 endfacet
 facet normal  9.671674e-01 -1.282085e-05  2.541400e-01
   outer loop
     vertex -1.381053e+02  6.641260e+02 -5.684033e+02
     vertex -1.379515e+02  6.632861e+02 -5.689888e+02
     vertex -1.378242e+02  6.646819e+02 -5.694731e+02
   endloop
 endfacet
 facet normal  9.671674e-01 -1.282085e-05  2.541400e-01
   outer loop
     vertex -1.479433e+02  6.261427e+02 -5.309653e+02
     vertex -1.479801e+02  6.247221e+02 -5.308254e+02
     vertex -1.477328e+02  6.255215e+02 -5.317664e+02
   endloop
 endfacet
 facet normal  9.671674e-01 -1.282085e-05  2.541400e-01
   outer loop
     vertex -1.481955e+02  6.253726e+02 -5.300054e+02
     vertex -1.479801e+02  6.247221e+02 -5.308254e+02
     vertex -1.479433e+02  6.261427e+02 -5.309653e+02
   endloop
 endfacet
 facet normal  9.671674e-01 -1.282085e-05  2.541400e-01
   outer loop
     vertex -1.379895e+02  6.655297e+02 -5.688439e+02
     vertex -1.381053e+02  6.641260e+02 -5.684033e+02
     vertex -1.378242e+02  6.646819e+02 -5.694731e+02
   endloop
 endfacet
 facet normal  9.671674e-01 -1.282085e-05  2.541400e-01
   outer loop
     vertex -1.382671e+02  6.649424e+02 -5.677875e+02
     vertex -1.381053e+02  6.641260e+02 -5.684033e+02
     vertex -1.379895e+02  6.655297e+02 -5.688439e+02
   endloop
 endfacet
 facet normal  9.671674e-01 -1.282085e-05  2.541400e-01
   outer loop
     vertex -1.481477e+02  6.267947e+02 -5.301874e+02
     vertex -1.481955e+02  6.253726e+02 -5.300054e+02
     vertex -1.479433e+02  6.261427e+02 -5.309653e+02
   endloop
 endfacet
 facet normal  9.671674e-01 -1.282085e-05  2.541400e-01
   outer loop
     vertex -1.484047e+02  6.260544e+02 -5.292095e+02
     vertex -1.481955e+02  6.253726e+02 -5.300054e+02
     vertex -1.481477e+02  6.267947e+02 -5.301874e+02
   endloop
 endfacet
 facet normal  9.671674e-01 -1.282085e-05  2.541400e-01
   outer loop
     vertex -1.381628e+02  6.663526e+02 -5.681844e+02
     vertex -1.382671e+02  6.649424e+02 -5.677875e+02
     vertex -1.379895e+02  6.655297e+02 -5.688439e+02
   endloop
 endfacet
 facet normal  9.671674e-01 -1.282085e-05  2.541400e-01
   outer loop
     vertex -1.384367e+02  6.657342e+02 -5.671422e+02
     vertex -1.382671e+02  6.649424e+02 -5.677875e+02
     vertex -1.381628e+02  6.663526e+02 -5.681844e+02
   endloop
 endfacet
 facet normal  9.671674e-01 -1.282085e-05  2.541400e-01
   outer loop
     vertex -1.483456e+02  6.274768e+02 -5.294340e+02
     vertex -1.484047e+02  6.260544e+02 -5.292095e+02
     vertex -1.481477e+02  6.267947e+02 -5.301874e+02
   endloop
 endfacet
 facet normal  9.671674e-01 -1.282085e-05  2.541400e-01
   outer loop
     vertex -1.486072e+02  6.267665e+02 -5.284389e+02
     vertex -1.484047e+02  6.260544e+02 -5.292095e+02
     vertex -1.483456e+02  6.274768e+02 -5.294340e+02
   endloop
 endfacet
 facet normal  9.671674e-01 -1.282085e-05  2.541400e-01
   outer loop
     vertex -1.383437e+02  6.671494e+02 -5.674957e+02
     vertex -1.384367e+02  6.657342e+02 -5.671422e+02
     vertex -1.381628e+02  6.663526e+02 -5.681844e+02
   endloop
 endfacet
 facet normal  9.671674e-01 -1.282085e-05  2.541400e-01
   outer loop
     vertex -1.386137e+02  6.665001e+02 -5.664684e+02
     vertex -1.384367e+02  6.657342e+02 -5.671422e+02
     vertex -1.383437e+02  6.671494e+02 -5.674957e+02
   endloop
 endfacet
 facet normal  9.671674e-01 -1.282085e-05  2.541400e-01
   outer loop
     vertex -1.485369e+02  6.281878e+02 -5.287061e+02
     vertex -1.486072e+02  6.267665e+02 -5.284389e+02
     vertex -1.483456e+02  6.274768e+02 -5.294340e+02
   endloop
 endfacet
 facet normal  9.671674e-01 -1.282085e-05  2.541400e-01
   outer loop
     vertex -1.488027e+02  6.275079e+02 -5.276945e+02
     vertex -1.486072e+02  6.267665e+02 -5.284389e+02
     vertex -1.485369e+02  6.281878e+02 -5.287061e+02
   endloop
 endfacet
 facet normal  9.671674e-01 -1.282085e-05  2.541400e-01
   outer loop
     vertex -1.385321e+02  6.679191e+02 -5.667787e+02
     vertex -1.386137e+02  6.665001e+02 -5.664684e+02
     vertex -1.383437e+02  6.671494e+02 -5.674957e+02
   endloop
 endfacet
 facet normal  9.671674e-01 -1.282085e-05  2.541400e-01
   outer loop
     vertex -1.387980e+02  6.672391e+02 -5.657670e+02
     vertex -1.386137e+02  6.665001e+02 -5.664684e+02
     vertex -1.385321e+02  6.679191e+02 -5.667787e+02
   endloop
 endfacet
 facet normal  9.671674e-01 -1.282085e-05  2.541400e-01
   outer loop
     vertex -1.487212e+02  6.289268e+02 -5.280048e+02
     vertex -1.488027e+02  6.275079e+02 -5.276945e+02
     vertex -1.485369e+02  6.281878e+02 -5.287061e+02
   endloop
 endfacet
 facet normal  9.671674e-01 -1.282085e-05  2.541400e-01
   outer loop
     vertex -1.489911e+02  6.282775e+02 -5.269774e+02
     vertex -1.488027e+02  6.275079e+02 -5.276945e+02
     vertex -1.487212e+02  6.289268e+02 -5.280048e+02
   endloop
 endfacet
 facet normal  9.671674e-01 -1.282085e-05  2.541400e-01
   outer loop
     vertex -1.387277e+02  6.686604e+02 -5.660343e+02
     vertex -1.387980e+02  6.672391e+02 -5.657670e+02
     vertex -1.385321e+02  6.679191e+02 -5.667787e+02
   endloop
 endfacet
 facet normal  9.671674e-01 -1.282085e-05  2.541400e-01
   outer loop
     vertex -1.389892e+02  6.679502e+02 -5.650391e+02
     vertex -1.387980e+02  6.672391e+02 -5.657670e+02
     vertex -1.387277e+02  6.686604e+02 -5.660343e+02
   endloop
 endfacet
 facet normal  9.671674e-01 -1.282085e-05  2.541400e-01
   outer loop
     vertex -1.488982e+02  6.296928e+02 -5.273310e+02
     vertex -1.489911e+02  6.282775e+02 -5.269774e+02
     vertex -1.487212e+02  6.289268e+02 -5.280048e+02
   endloop
 endfacet
 facet normal  9.671674e-01 -1.282085e-05  2.541400e-01
   outer loop
     vertex -1.491721e+02  6.290744e+02 -5.262887e+02
     vertex -1.489911e+02  6.282775e+02 -5.269774e+02
     vertex -1.488982e+02  6.296928e+02 -5.273310e+02
   endloop
 endfacet
 facet normal  9.671674e-01 -1.282085e-05  2.541400e-01
   outer loop
     vertex -1.389302e+02  6.693725e+02 -5.652637e+02
     vertex -1.389892e+02  6.679502e+02 -5.650391e+02
     vertex -1.387277e+02  6.686604e+02 -5.660343e+02
   endloop
 endfacet
 facet normal  9.671674e-01 -1.282085e-05  2.541400e-01
   outer loop
     vertex -1.391872e+02  6.686322e+02 -5.642857e+02
     vertex -1.389892e+02  6.679502e+02 -5.650391e+02
     vertex -1.389302e+02  6.693725e+02 -5.652637e+02
   endloop
 endfacet
 facet normal  9.671674e-01 -1.282085e-05  2.541400e-01
   outer loop
     vertex -1.490678e+02  6.304845e+02 -5.266857e+02
     vertex -1.491721e+02  6.290744e+02 -5.262887e+02
     vertex -1.488982e+02  6.296928e+02 -5.273310e+02
   endloop
 endfacet
 facet normal  9.671674e-01 -1.282085e-05  2.541400e-01
   outer loop
     vertex -1.493454e+02  6.298973e+02 -5.256293e+02
     vertex -1.491721e+02  6.290744e+02 -5.262887e+02
     vertex -1.490678e+02  6.304845e+02 -5.266857e+02
   endloop
 endfacet
 facet normal  9.671674e-01 -1.282085e-05  2.541400e-01
   outer loop
     vertex -1.391394e+02  6.700543e+02 -5.644678e+02
     vertex -1.391872e+02  6.686322e+02 -5.642857e+02
     vertex -1.389302e+02  6.693725e+02 -5.652637e+02
   endloop
 endfacet
 facet normal  9.671674e-01 -1.282085e-05  2.541400e-01
   outer loop
     vertex -1.393916e+02  6.692843e+02 -5.635079e+02
     vertex -1.391872e+02  6.686322e+02 -5.642857e+02
     vertex -1.391394e+02  6.700543e+02 -5.644678e+02
   endloop
 endfacet
 facet normal  9.671674e-01 -1.282085e-05  2.541400e-01
   outer loop
     vertex -1.492296e+02  6.313009e+02 -5.260699e+02
     vertex -1.493454e+02  6.298973e+02 -5.256293e+02
     vertex -1.490678e+02  6.304845e+02 -5.266857e+02
   endloop
 endfacet
 facet normal  9.671674e-01 -1.282085e-05  2.541400e-01
   outer loop
     vertex -1.495107e+02  6.307451e+02 -5.250001e+02
     vertex -1.493454e+02  6.298973e+02 -5.256293e+02
     vertex -1.492296e+02  6.313009e+02 -5.260699e+02
   endloop
 endfacet
 facet normal  9.671674e-01 -1.282085e-05  2.541400e-01
   outer loop
     vertex -1.393548e+02  6.707049e+02 -5.636478e+02
     vertex -1.393916e+02  6.692843e+02 -5.635079e+02
     vertex -1.391394e+02  6.700543e+02 -5.644678e+02
   endloop
 endfacet
 facet normal  9.671674e-01 -1.282085e-05  2.541400e-01
   outer loop
     vertex -1.396021e+02  6.699055e+02 -5.627068e+02
     vertex -1.393916e+02  6.692843e+02 -5.635079e+02
     vertex -1.393548e+02  6.707049e+02 -5.636478e+02
   endloop
 endfacet
 facet normal  9.671674e-01 -1.282085e-05  2.541400e-01
   outer loop
     vertex -1.493834e+02  6.321409e+02 -5.254843e+02
     vertex -1.495107e+02  6.307451e+02 -5.250001e+02
     vertex -1.492296e+02  6.313009e+02 -5.260699e+02
   endloop
 endfacet
 facet normal  9.671674e-01 -1.282085e-05  2.541400e-01
   outer loop
     vertex -1.496678e+02  6.316166e+02 -5.244020e+02
     vertex -1.495107e+02  6.307451e+02 -5.250001e+02
     vertex -1.493834e+02  6.321409e+02 -5.254843e+02
   endloop
 endfacet
 facet normal  9.671674e-01 -1.282085e-05  2.541400e-01
   outer loop
     vertex -1.395763e+02  6.713233e+02 -5.628049e+02
     vertex -1.396021e+02  6.699055e+02 -5.627068e+02
     vertex -1.393548e+02  6.707049e+02 -5.636478e+02
   endloop
 endfacet
 facet normal  9.671674e-01 -1.282085e-05  2.541400e-01
   outer loop
     vertex -1.398184e+02  6.704949e+02 -5.618835e+02
     vertex -1.396021e+02  6.699055e+02 -5.627068e+02
     vertex -1.395763e+02  6.713233e+02 -5.628049e+02
   endloop
 endfacet
 facet normal  9.671674e-01 -1.282085e-05  2.541400e-01
   outer loop
     vertex -1.495291e+02  6.330031e+02 -5.249300e+02
     vertex -1.496678e+02  6.316166e+02 -5.244020e+02
     vertex -1.493834e+02  6.321409e+02 -5.254843e+02
   endloop
 endfacet
 facet normal  9.671674e-01 -1.282085e-05  2.541400e-01
   outer loop
     vertex -1.498166e+02  6.325107e+02 -5.238359e+02
     vertex -1.496678e+02  6.316166e+02 -5.244020e+02
     vertex -1.495291e+02  6.330031e+02 -5.249300e+02
   endloop
 endfacet
 facet normal  9.671674e-01 -1.282085e-05  2.541400e-01
   outer loop
     vertex -1.398035e+02  6.719086e+02 -5.619402e+02
     vertex -1.398184e+02  6.704949e+02 -5.618835e+02
     vertex -1.395763e+02  6.713233e+02 -5.628049e+02
   endloop
 endfacet
 facet normal  9.671674e-01 -1.282085e-05  2.541400e-01
   outer loop
     vertex -1.400402e+02  6.710516e+02 -5.610392e+02
     vertex -1.398184e+02  6.704949e+02 -5.618835e+02
     vertex -1.398035e+02  6.719086e+02 -5.619402e+02
   endloop
 endfacet
 facet normal  9.671674e-01 -1.282085e-05  2.541400e-01
   outer loop
     vertex -1.496663e+02  6.338864e+02 -5.244076e+02
     vertex -1.498166e+02  6.325107e+02 -5.238359e+02
     vertex -1.495291e+02  6.330031e+02 -5.249300e+02
   endloop
 endfacet
 facet normal  9.671674e-01 -1.282085e-05  2.541400e-01
   outer loop
     vertex -1.499567e+02  6.334260e+02 -5.233025e+02
     vertex -1.498166e+02  6.325107e+02 -5.238359e+02
     vertex -1.496663e+02  6.338864e+02 -5.244076e+02
   endloop
 endfacet
 facet normal  9.671674e-01 -1.282085e-05  2.541400e-01
   outer loop
     vertex -1.400361e+02  6.724602e+02 -5.610549e+02
     vertex -1.400402e+02  6.710516e+02 -5.610392e+02
     vertex -1.398035e+02  6.719086e+02 -5.619402e+02
   endloop
 endfacet
 facet normal  9.671674e-01 -1.282085e-05  2.541400e-01
   outer loop
     vertex -1.402673e+02  6.715750e+02 -5.601752e+02
     vertex -1.400402e+02  6.710516e+02 -5.610392e+02
     vertex -1.400361e+02  6.724602e+02 -5.610549e+02
   endloop
 endfacet
 facet normal  9.671674e-01 -1.282085e-05  2.541400e-01
   outer loop
     vertex -1.497950e+02  6.347895e+02 -5.239178e+02
     vertex -1.499567e+02  6.334260e+02 -5.233025e+02
     vertex -1.496663e+02  6.338864e+02 -5.244076e+02
   endloop
 endfacet
 facet normal  9.671674e-01 -1.282085e-05  2.541400e-01
   outer loop
     vertex -1.500881e+02  6.343613e+02 -5.228025e+02
     vertex -1.499567e+02  6.334260e+02 -5.233025e+02
     vertex -1.497950e+02  6.347895e+02 -5.239178e+02
   endloop
 endfacet
 facet normal  9.671674e-01 -1.282085e-05  2.541400e-01
   outer loop
     vertex -1.402738e+02  6.729771e+02 -5.601503e+02
     vertex -1.402673e+02  6.715750e+02 -5.601752e+02
     vertex -1.400361e+02  6.724602e+02 -5.610549e+02
   endloop
 endfacet
 facet normal  9.671674e-01 -1.282085e-05  2.541400e-01
   outer loop
     vertex -1.402738e+02  6.729771e+02 -5.601503e+02
     vertex -1.404992e+02  6.720641e+02 -5.592926e+02
     vertex -1.402673e+02  6.715750e+02 -5.601752e+02
   endloop
 endfacet
 facet normal  9.671674e-01 -1.282085e-05  2.541400e-01
   outer loop
     vertex -1.499149e+02  6.357111e+02 -5.234615e+02
     vertex -1.500881e+02  6.343613e+02 -5.228025e+02
     vertex -1.497950e+02  6.347895e+02 -5.239178e+02
   endloop
 endfacet
 facet normal  9.671674e-01 -1.282085e-05  2.541400e-01
   outer loop
     vertex -1.502105e+02  6.353153e+02 -5.223367e+02
     vertex -1.500881e+02  6.343613e+02 -5.228025e+02
     vertex -1.499149e+02  6.357111e+02 -5.234615e+02
   endloop
 endfacet
 facet normal  9.671674e-01 -1.282085e-05  2.541400e-01
   outer loop
     vertex -1.405162e+02  6.734587e+02 -5.592277e+02
     vertex -1.404992e+02  6.720641e+02 -5.592926e+02
     vertex -1.402738e+02  6.729771e+02 -5.601503e+02
   endloop
 endfacet
 facet normal  9.671674e-01 -1.282085e-05  2.541400e-01
   outer loop
     vertex -1.405162e+02  6.734587e+02 -5.592277e+02
     vertex -1.407356e+02  6.725184e+02 -5.583928e+02
     vertex -1.404992e+02  6.720641e+02 -5.592926e+02
   endloop
 endfacet
 facet normal  9.671674e-01 -1.282085e-05  2.541400e-01
   outer loop
     vertex -1.500258e+02  6.366500e+02 -5.230393e+02
     vertex -1.502105e+02  6.353153e+02 -5.223367e+02
     vertex -1.499149e+02  6.357111e+02 -5.234615e+02
   endloop
 endfacet
 facet normal  9.671674e-01 -1.282085e-05  2.541400e-01
   outer loop
     vertex -1.503237e+02  6.362866e+02 -5.219058e+02
     vertex -1.502105e+02  6.353153e+02 -5.223367e+02
     vertex -1.500258e+02  6.366500e+02 -5.230393e+02
   endloop
 endfacet
 facet normal  9.671674e-01 -1.282085e-05  2.541400e-01
   outer loop
     vertex -1.407631e+02  6.739042e+02 -5.582882e+02
     vertex -1.407356e+02  6.725184e+02 -5.583928e+02
     vertex -1.405162e+02  6.734587e+02 -5.592277e+02
   endloop
 endfacet
 facet normal  9.671674e-01 -1.282085e-05  2.541400e-01
   outer loop
     vertex -1.407631e+02  6.739042e+02 -5.582882e+02
     vertex -1.409763e+02  6.729371e+02 -5.574769e+02
     vertex -1.407356e+02  6.725184e+02 -5.583928e+02
   endloop
 endfacet
 facet normal  9.671674e-01 -1.282085e-05  2.541400e-01
   outer loop
     vertex -1.501277e+02  6.376046e+02 -5.226517e+02
     vertex -1.503237e+02  6.362866e+02 -5.219058e+02
     vertex -1.500258e+02  6.366500e+02 -5.230393e+02
   endloop
 endfacet
 facet normal  9.671674e-01 -1.282085e-05  2.541400e-01
   outer loop
     vertex -1.504276e+02  6.372739e+02 -5.215102e+02
     vertex -1.503237e+02  6.362866e+02 -5.219058e+02
     vertex -1.501277e+02  6.376046e+02 -5.226517e+02
   endloop
 endfacet
 facet normal  9.671674e-01 -1.282085e-05  2.541400e-01
   outer loop
     vertex -1.410140e+02  6.743132e+02 -5.573334e+02
     vertex -1.409763e+02  6.729371e+02 -5.574769e+02
     vertex -1.407631e+02  6.739042e+02 -5.582882e+02
   endloop
 endfacet
 facet normal  9.671674e-01 -1.282085e-05  2.541400e-01
   outer loop
     vertex -1.410140e+02  6.743132e+02 -5.573334e+02
     vertex -1.412208e+02  6.733197e+02 -5.565464e+02
     vertex -1.409763e+02  6.729371e+02 -5.574769e+02
   endloop
 endfacet
 facet normal  9.671674e-01 -1.282085e-05  2.541400e-01
   outer loop
     vertex -1.502203e+02  6.385738e+02 -5.222993e+02
     vertex -1.504276e+02  6.372739e+02 -5.215102e+02
     vertex -1.501277e+02  6.376046e+02 -5.226517e+02
   endloop
 endfacet
 facet normal  9.671674e-01 -1.282085e-05  2.541400e-01
   outer loop
     vertex -1.505221e+02  6.382758e+02 -5.211507e+02
     vertex -1.504276e+02  6.372739e+02 -5.215102e+02
     vertex -1.502203e+02  6.385738e+02 -5.222993e+02
   endloop
 endfacet
 facet normal  9.671674e-01 -1.282085e-05  2.541400e-01
   outer loop
     vertex -1.412686e+02  6.746849e+02 -5.563644e+02
     vertex -1.412208e+02  6.733197e+02 -5.565464e+02
     vertex -1.410140e+02  6.743132e+02 -5.573334e+02
   endloop
 endfacet
 facet normal  9.671674e-01 -1.282085e-05  2.541400e-01
   outer loop
     vertex -1.412686e+02  6.746849e+02 -5.563644e+02
     vertex -1.414688e+02  6.736657e+02 -5.556026e+02
     vertex -1.412208e+02  6.733197e+02 -5.565464e+02
   endloop
 endfacet
 facet normal  9.671674e-01 -1.282085e-05  2.541400e-01
   outer loop
     vertex -1.503034e+02  6.395560e+02 -5.219827e+02
     vertex -1.505221e+02  6.382758e+02 -5.211507e+02
     vertex -1.502203e+02  6.385738e+02 -5.222993e+02
   endloop
 endfacet
 facet normal  9.671674e-01 -1.282085e-05  2.541400e-01
   outer loop
     vertex -1.506070e+02  6.392908e+02 -5.208276e+02
     vertex -1.505221e+02  6.382758e+02 -5.211507e+02
     vertex -1.503034e+02  6.395560e+02 -5.219827e+02
   endloop
 endfacet
 facet normal  9.671674e-01 -1.282085e-05  2.541400e-01
   outer loop
     vertex -1.415266e+02  6.750190e+02 -5.553826e+02
     vertex -1.414688e+02  6.736657e+02 -5.556026e+02
     vertex -1.412686e+02  6.746849e+02 -5.563644e+02
   endloop
 endfacet
 facet normal  9.671674e-01 -1.282085e-05  2.541400e-01
   outer loop
     vertex -1.415266e+02  6.750190e+02 -5.553826e+02
     vertex -1.417199e+02  6.739744e+02 -5.546468e+02
     vertex -1.414688e+02  6.736657e+02 -5.556026e+02
   endloop
 endfacet
 facet normal  9.671674e-01 -1.282085e-05  2.541400e-01
   outer loop
     vertex -1.503771e+02  6.405500e+02 -5.217022e+02
     vertex -1.506070e+02  6.392908e+02 -5.208276e+02
     vertex -1.503034e+02  6.395560e+02 -5.219827e+02
   endloop
 endfacet
 facet normal  9.671674e-01 -1.282085e-05  2.541400e-01
   outer loop
     vertex -1.506821e+02  6.403177e+02 -5.205415e+02
     vertex -1.506070e+02  6.392908e+02 -5.208276e+02
     vertex -1.503771e+02  6.405500e+02 -5.217022e+02
   endloop
 endfacet
 facet normal  9.671674e-01 -1.282085e-05  2.541400e-01
   outer loop
     vertex -1.417875e+02  6.753148e+02 -5.543894e+02
     vertex -1.417199e+02  6.739744e+02 -5.546468e+02
     vertex -1.415266e+02  6.750190e+02 -5.553826e+02
   endloop
 endfacet
 facet normal  9.671674e-01 -1.282085e-05  2.541400e-01
   outer loop
     vertex -1.417875e+02  6.753148e+02 -5.543894e+02
     vertex -1.419739e+02  6.742455e+02 -5.536804e+02
     vertex -1.417199e+02  6.739744e+02 -5.546468e+02
   endloop
 endfacet
 facet normal  9.671674e-01 -1.282085e-05  2.541400e-01
   outer loop
     vertex -1.504412e+02  6.415542e+02 -5.214583e+02
     vertex -1.506821e+02  6.403177e+02 -5.205415e+02
     vertex -1.503771e+02  6.405500e+02 -5.217022e+02
   endloop
 endfacet
 facet normal  9.671674e-01 -1.282085e-05  2.541400e-01
   outer loop
     vertex -1.507475e+02  6.413549e+02 -5.202927e+02
     vertex -1.506821e+02  6.403177e+02 -5.205415e+02
     vertex -1.504412e+02  6.415542e+02 -5.214583e+02
   endloop
 endfacet
 facet normal  9.671674e-01 -1.282085e-05  2.541400e-01
   outer loop
     vertex -1.420511e+02  6.755720e+02 -5.533863e+02
     vertex -1.419739e+02  6.742455e+02 -5.536804e+02
     vertex -1.417875e+02  6.753148e+02 -5.543894e+02
   endloop
 endfacet
 facet normal  9.671674e-01 -1.282085e-05  2.541400e-01
   outer loop
     vertex -1.420511e+02  6.755720e+02 -5.533863e+02
     vertex -1.422302e+02  6.744786e+02 -5.527047e+02
     vertex -1.419739e+02  6.742455e+02 -5.536804e+02
   endloop
 endfacet
 facet normal  9.671674e-01 -1.282085e-05  2.541400e-01
   outer loop
     vertex -1.504956e+02  6.425672e+02 -5.212514e+02
     vertex -1.507475e+02  6.413549e+02 -5.202927e+02
     vertex -1.504412e+02  6.415542e+02 -5.214583e+02
   endloop
 endfacet
 facet normal  9.671674e-01 -1.282085e-05  2.541400e-01
   outer loop
     vertex -1.508030e+02  6.424011e+02 -5.200816e+02
     vertex -1.507475e+02  6.413549e+02 -5.202927e+02
     vertex -1.504956e+02  6.425672e+02 -5.212514e+02
   endloop
 endfacet
 facet normal  9.671674e-01 -1.282085e-05  2.541400e-01
   outer loop
     vertex -1.423170e+02  6.757903e+02 -5.523745e+02
     vertex -1.424887e+02  6.746734e+02 -5.517212e+02
     vertex -1.422302e+02  6.744786e+02 -5.527047e+02
   endloop
 endfacet
 facet normal  9.671674e-01 -1.282085e-05  2.541400e-01
   outer loop
     vertex -1.423170e+02  6.757903e+02 -5.523745e+02
     vertex -1.422302e+02  6.744786e+02 -5.527047e+02
     vertex -1.420511e+02  6.755720e+02 -5.533863e+02
   endloop
 endfacet
 facet normal  9.671674e-01 -1.282085e-05  2.541400e-01
   outer loop
     vertex -1.505402e+02  6.435876e+02 -5.210816e+02
     vertex -1.508030e+02  6.424011e+02 -5.200816e+02
     vertex -1.504956e+02  6.425672e+02 -5.212514e+02
   endloop
 endfacet
 facet normal  9.671674e-01 -1.282085e-05  2.541400e-01
   outer loop
     vertex -1.508484e+02  6.434546e+02 -5.199085e+02
     vertex -1.508030e+02  6.424011e+02 -5.200816e+02
     vertex -1.505402e+02  6.435876e+02 -5.210816e+02
   endloop
 endfacet
 facet normal  9.671674e-01 -1.282085e-05  2.541400e-01
   outer loop
     vertex -1.425847e+02  6.759693e+02 -5.513556e+02
     vertex -1.427488e+02  6.748296e+02 -5.507313e+02
     vertex -1.424887e+02  6.746734e+02 -5.517212e+02
   endloop
 endfacet
 facet normal  9.671674e-01 -1.282085e-05  2.541400e-01
   outer loop
     vertex -1.425847e+02  6.759693e+02 -5.513556e+02
     vertex -1.424887e+02  6.746734e+02 -5.517212e+02
     vertex -1.423170e+02  6.757903e+02 -5.523745e+02
   endloop
 endfacet
 facet normal  9.671674e-01 -1.282085e-05  2.541400e-01
   outer loop
     vertex -1.505749e+02  6.446139e+02 -5.209493e+02
     vertex -1.508484e+02  6.434546e+02 -5.199085e+02
     vertex -1.505402e+02  6.435876e+02 -5.210816e+02
   endloop
 endfacet
 facet normal  9.671674e-01 -1.282085e-05  2.541400e-01
   outer loop
     vertex -1.508839e+02  6.445141e+02 -5.197736e+02
     vertex -1.508484e+02  6.434546e+02 -5.199085e+02
     vertex -1.505749e+02  6.446139e+02 -5.209493e+02
   endloop
 endfacet
 facet normal  9.671674e-01 -1.282085e-05  2.541400e-01
   outer loop
     vertex -1.428540e+02  6.761088e+02 -5.503308e+02
     vertex -1.427488e+02  6.748296e+02 -5.507313e+02
     vertex -1.425847e+02  6.759693e+02 -5.513556e+02
   endloop
 endfacet
 facet normal  9.671674e-01 -1.282085e-05  2.541400e-01
   outer loop
     vertex -1.428540e+02  6.761088e+02 -5.503308e+02
     vertex -1.430102e+02  6.749469e+02 -5.497364e+02
     vertex -1.427488e+02  6.748296e+02 -5.507313e+02
   endloop
 endfacet
 facet normal  9.671674e-01 -1.282085e-05  2.541400e-01
   outer loop
     vertex -1.505998e+02  6.456446e+02 -5.208547e+02
     vertex -1.508839e+02  6.445141e+02 -5.197736e+02
     vertex -1.505749e+02  6.446139e+02 -5.209493e+02
   endloop
 endfacet
 facet normal  9.671674e-01 -1.282085e-05  2.541400e-01
   outer loop
     vertex -1.431244e+02  6.762086e+02 -5.493018e+02
     vertex -1.430102e+02  6.749469e+02 -5.497364e+02
     vertex -1.428540e+02  6.761088e+02 -5.503308e+02
   endloop
 endfacet
 facet normal  9.671674e-01 -1.282085e-05  2.541400e-01
   outer loop
     vertex -1.431244e+02  6.762086e+02 -5.493018e+02
     vertex -1.432726e+02  6.750252e+02 -5.487378e+02
     vertex -1.430102e+02  6.749469e+02 -5.497364e+02
   endloop
 endfacet
 facet normal  9.671674e-01 -1.282085e-05  2.541400e-01
   outer loop
     vertex -1.509092e+02  6.455781e+02 -5.196771e+02
     vertex -1.508839e+02  6.445141e+02 -5.197736e+02
     vertex -1.505998e+02  6.456446e+02 -5.208547e+02
   endloop
 endfacet
 facet normal  9.671674e-01 -1.282085e-05  2.541400e-01
   outer loop
     vertex -1.509092e+02  6.455781e+02 -5.196771e+02
     vertex -1.505998e+02  6.456446e+02 -5.208547e+02
     vertex -1.506147e+02  6.466783e+02 -5.207979e+02
   endloop
 endfacet
 facet normal  9.671674e-01 -1.282085e-05  2.541400e-01
   outer loop
     vertex -1.433956e+02  6.762685e+02 -5.482699e+02
     vertex -1.432726e+02  6.750252e+02 -5.487378e+02
     vertex -1.431244e+02  6.762086e+02 -5.493018e+02
   endloop
 endfacet
 facet normal  9.671674e-01 -1.282085e-05  2.541400e-01
   outer loop
     vertex -1.433956e+02  6.762685e+02 -5.482699e+02
     vertex -1.435355e+02  6.750644e+02 -5.477372e+02
     vertex -1.432726e+02  6.750252e+02 -5.487378e+02
   endloop
 endfacet
 facet normal  9.671674e-01 -1.282085e-05  2.541400e-01
   outer loop
     vertex -1.509244e+02  6.466450e+02 -5.196191e+02
     vertex -1.509092e+02  6.455781e+02 -5.196771e+02
     vertex -1.506147e+02  6.466783e+02 -5.207979e+02
   endloop
 endfacet
 facet normal  9.671674e-01 -1.282085e-05  2.541400e-01
   outer loop
     vertex -1.509244e+02  6.466450e+02 -5.196191e+02
     vertex -1.506147e+02  6.466783e+02 -5.207979e+02
     vertex -1.506196e+02  6.477135e+02 -5.207790e+02
   endloop
 endfacet
 facet normal  9.671674e-01 -1.282085e-05  2.541400e-01
   outer loop
     vertex -1.509295e+02  6.477135e+02 -5.195998e+02
     vertex -1.509244e+02  6.466450e+02 -5.196191e+02
     vertex -1.506196e+02  6.477135e+02 -5.207790e+02
   endloop
 endfacet
 facet normal  9.671674e-01 -1.282085e-05  2.541400e-01
   outer loop
     vertex -1.436671e+02  6.762885e+02 -5.472365e+02
     vertex -1.435355e+02  6.750644e+02 -5.477372e+02
     vertex -1.433956e+02  6.762685e+02 -5.482699e+02
   endloop
 endfacet
 facet normal  9.671674e-01 -1.282085e-05  2.541400e-01
   outer loop
     vertex -1.436671e+02  6.762885e+02 -5.472365e+02
     vertex -1.437987e+02  6.750644e+02 -5.467358e+02
     vertex -1.435355e+02  6.750644e+02 -5.477372e+02
   endloop
 endfacet
 facet normal  9.671674e-01 -1.282085e-05  2.541400e-01
   outer loop
     vertex -1.509244e+02  6.487819e+02 -5.196191e+02
     vertex -1.509295e+02  6.477135e+02 -5.195998e+02
     vertex -1.506196e+02  6.477135e+02 -5.207790e+02
   endloop
 endfacet
 facet normal  9.671674e-01 -1.282085e-05  2.541400e-01
   outer loop
     vertex -1.509244e+02  6.487819e+02 -5.196191e+02
     vertex -1.506196e+02  6.477135e+02 -5.207790e+02
     vertex -1.506147e+02  6.487487e+02 -5.207979e+02
   endloop
 endfacet
 facet normal  9.671674e-01 -1.282085e-05  2.541400e-01
   outer loop
     vertex -1.439386e+02  6.762685e+02 -5.462031e+02
     vertex -1.437987e+02  6.750644e+02 -5.467358e+02
     vertex -1.436671e+02  6.762885e+02 -5.472365e+02
   endloop
 endfacet
 facet normal  9.671674e-01 -1.282085e-05  2.541400e-01
   outer loop
     vertex -1.439386e+02  6.762685e+02 -5.462031e+02
     vertex -1.440616e+02  6.750252e+02 -5.457352e+02
     vertex -1.437987e+02  6.750644e+02 -5.467358e+02
   endloop
 endfacet
 facet normal  9.671674e-01 -1.282085e-05  2.541400e-01
   outer loop
     vertex -1.509092e+02  6.498489e+02 -5.196771e+02
     vertex -1.506147e+02  6.487487e+02 -5.207979e+02
     vertex -1.505997e+02  6.497824e+02 -5.208547e+02
   endloop
 endfacet
 facet normal  9.671674e-01 -1.282085e-05  2.541400e-01
   outer loop
     vertex -1.509092e+02  6.498489e+02 -5.196771e+02
     vertex -1.509244e+02  6.487819e+02 -5.196191e+02
     vertex -1.506147e+02  6.487487e+02 -5.207979e+02
   endloop
 endfacet
 facet normal  9.671674e-01 -1.282085e-05  2.541400e-01
   outer loop
     vertex -1.442098e+02  6.762086e+02 -5.451712e+02
     vertex -1.440616e+02  6.750252e+02 -5.457352e+02
     vertex -1.439386e+02  6.762685e+02 -5.462031e+02
   endloop
 endfacet
 facet normal  9.671674e-01 -1.282085e-05  2.541400e-01
   outer loop
     vertex -1.442098e+02  6.762086e+02 -5.451712e+02
     vertex -1.443240e+02  6.749469e+02 -5.447366e+02
     vertex -1.440616e+02  6.750252e+02 -5.457352e+02
   endloop
 endfacet
 facet normal  9.671674e-01 -1.282085e-05  2.541400e-01
   outer loop
     vertex -1.508838e+02  6.509129e+02 -5.197735e+02
     vertex -1.505997e+02  6.497824e+02 -5.208547e+02
     vertex -1.505748e+02  6.508131e+02 -5.209493e+02
   endloop
 endfacet
 facet normal  9.671674e-01 -1.282085e-05  2.541400e-01
   outer loop
     vertex -1.508838e+02  6.509129e+02 -5.197735e+02
     vertex -1.509092e+02  6.498489e+02 -5.196771e+02
     vertex -1.505997e+02  6.497824e+02 -5.208547e+02
   endloop
 endfacet
 facet normal  9.671674e-01 -1.282085e-05  2.541400e-01
   outer loop
     vertex -1.444802e+02  6.761088e+02 -5.441422e+02
     vertex -1.443240e+02  6.749469e+02 -5.447366e+02
     vertex -1.442098e+02  6.762086e+02 -5.451712e+02
   endloop
 endfacet
 facet normal  9.671674e-01 -1.282085e-05  2.541400e-01
   outer loop
     vertex -1.444802e+02  6.761088e+02 -5.441422e+02
     vertex -1.445854e+02  6.748296e+02 -5.437417e+02
     vertex -1.443240e+02  6.749469e+02 -5.447366e+02
   endloop
 endfacet
 facet normal  9.671674e-01 -1.282085e-05  2.541400e-01
   outer loop
     vertex -1.447494e+02  6.759693e+02 -5.431174e+02
     vertex -1.445854e+02  6.748296e+02 -5.437417e+02
     vertex -1.444802e+02  6.761088e+02 -5.441422e+02
   endloop
 endfacet
 facet normal  9.671674e-01 -1.282085e-05  2.541400e-01
   outer loop
     vertex -1.447494e+02  6.759693e+02 -5.431174e+02
     vertex -1.448455e+02  6.746734e+02 -5.427518e+02
     vertex -1.445854e+02  6.748296e+02 -5.437417e+02
   endloop
 endfacet
 facet normal  9.671674e-01 -1.282085e-05  2.541400e-01
   outer loop
     vertex -1.508483e+02  6.519724e+02 -5.199084e+02
     vertex -1.505748e+02  6.508131e+02 -5.209493e+02
     vertex -1.505401e+02  6.518394e+02 -5.210816e+02
   endloop
 endfacet
 facet normal  9.671674e-01 -1.282085e-05  2.541400e-01
   outer loop
     vertex -1.508483e+02  6.519724e+02 -5.199084e+02
     vertex -1.508838e+02  6.509129e+02 -5.197735e+02
     vertex -1.505748e+02  6.508131e+02 -5.209493e+02
   endloop
 endfacet
 facet normal  9.671674e-01 -1.282085e-05  2.541400e-01
   outer loop
     vertex -1.508028e+02  6.530259e+02 -5.200816e+02
     vertex -1.505401e+02  6.518394e+02 -5.210816e+02
     vertex -1.504955e+02  6.528598e+02 -5.212513e+02
   endloop
 endfacet
 facet normal  9.671674e-01 -1.282085e-05  2.541400e-01
   outer loop
     vertex -1.508028e+02  6.530259e+02 -5.200816e+02
     vertex -1.508483e+02  6.519724e+02 -5.199084e+02
     vertex -1.505401e+02  6.518394e+02 -5.210816e+02
   endloop
 endfacet
 facet normal  9.671674e-01 -1.282085e-05  2.541400e-01
   outer loop
     vertex -1.450172e+02  6.757903e+02 -5.420985e+02
     vertex -1.448455e+02  6.746734e+02 -5.427518e+02
     vertex -1.447494e+02  6.759693e+02 -5.431174e+02
   endloop
 endfacet
 facet normal  9.671674e-01 -1.282085e-05  2.541400e-01
   outer loop
     vertex -1.450172e+02  6.757903e+02 -5.420985e+02
     vertex -1.451040e+02  6.744786e+02 -5.417683e+02
     vertex -1.448455e+02  6.746734e+02 -5.427518e+02
   endloop
 endfacet
 facet normal  9.671674e-01 -1.282085e-05  2.541400e-01
   outer loop
     vertex -1.452831e+02  6.755720e+02 -5.410867e+02
     vertex -1.451040e+02  6.744786e+02 -5.417683e+02
     vertex -1.450172e+02  6.757903e+02 -5.420985e+02
   endloop
 endfacet
 facet normal  9.671674e-01 -1.282085e-05  2.541400e-01
   outer loop
     vertex -1.452831e+02  6.755720e+02 -5.410867e+02
     vertex -1.453603e+02  6.742455e+02 -5.407926e+02
     vertex -1.451040e+02  6.744786e+02 -5.417683e+02
   endloop
 endfacet
 facet normal  9.671674e-01 -1.282085e-05  2.541400e-01
   outer loop
     vertex -1.507473e+02  6.540720e+02 -5.202927e+02
     vertex -1.504955e+02  6.528598e+02 -5.212513e+02
     vertex -1.504411e+02  6.538728e+02 -5.214583e+02
   endloop
 endfacet
 facet normal  9.671674e-01 -1.282085e-05  2.541400e-01
   outer loop
     vertex -1.507473e+02  6.540720e+02 -5.202927e+02
     vertex -1.508028e+02  6.530259e+02 -5.200816e+02
     vertex -1.504955e+02  6.528598e+02 -5.212513e+02
   endloop
 endfacet
 facet normal  9.671674e-01 -1.282085e-05  2.541400e-01
   outer loop
     vertex -1.455467e+02  6.753148e+02 -5.400836e+02
     vertex -1.453603e+02  6.742455e+02 -5.407926e+02
     vertex -1.452831e+02  6.755720e+02 -5.410867e+02
   endloop
 endfacet
 facet normal  9.671674e-01 -1.282085e-05  2.541400e-01
   outer loop
     vertex -1.455467e+02  6.753148e+02 -5.400836e+02
     vertex -1.456143e+02  6.739744e+02 -5.398262e+02
     vertex -1.453603e+02  6.742455e+02 -5.407926e+02
   endloop
 endfacet
 facet normal  9.671674e-01 -1.282085e-05  2.541400e-01
   outer loop
     vertex -1.506820e+02  6.551092e+02 -5.205415e+02
     vertex -1.504411e+02  6.538728e+02 -5.214583e+02
     vertex -1.503770e+02  6.548770e+02 -5.217022e+02
   endloop
 endfacet
 facet normal  9.671674e-01 -1.282085e-05  2.541400e-01
   outer loop
     vertex -1.506820e+02  6.551092e+02 -5.205415e+02
     vertex -1.507473e+02  6.540720e+02 -5.202927e+02
     vertex -1.504411e+02  6.538728e+02 -5.214583e+02
   endloop
 endfacet
 facet normal  9.671674e-01 -1.282085e-05  2.541400e-01
   outer loop
     vertex -1.458076e+02  6.750190e+02 -5.390904e+02
     vertex -1.456143e+02  6.739744e+02 -5.398262e+02
     vertex -1.455467e+02  6.753148e+02 -5.400836e+02
   endloop
 endfacet
 facet normal  9.671674e-01 -1.282085e-05  2.541400e-01
   outer loop
     vertex -1.458076e+02  6.750190e+02 -5.390904e+02
     vertex -1.458655e+02  6.736657e+02 -5.388704e+02
     vertex -1.456143e+02  6.739744e+02 -5.398262e+02
   endloop
 endfacet
 facet normal  9.671674e-01 -1.282085e-05  2.541400e-01
   outer loop
     vertex -1.506068e+02  6.561361e+02 -5.208276e+02
     vertex -1.503770e+02  6.548770e+02 -5.217022e+02
     vertex -1.503032e+02  6.558709e+02 -5.219826e+02
   endloop
 endfacet
 facet normal  9.671674e-01 -1.282085e-05  2.541400e-01
   outer loop
     vertex -1.506068e+02  6.561361e+02 -5.208276e+02
     vertex -1.506820e+02  6.551092e+02 -5.205415e+02
     vertex -1.503770e+02  6.548770e+02 -5.217022e+02
   endloop
 endfacet
 facet normal  9.671674e-01 -1.282085e-05  2.541400e-01
   outer loop
     vertex -1.460656e+02  6.746849e+02 -5.381086e+02
     vertex -1.458655e+02  6.736657e+02 -5.388704e+02
     vertex -1.458076e+02  6.750190e+02 -5.390904e+02
   endloop
 endfacet
 facet normal  9.671674e-01 -1.282085e-05  2.541400e-01
   outer loop
     vertex -1.460656e+02  6.746849e+02 -5.381086e+02
     vertex -1.461135e+02  6.733197e+02 -5.379266e+02
     vertex -1.458655e+02  6.736657e+02 -5.388704e+02
   endloop
 endfacet
 facet normal  9.671674e-01 -1.282085e-05  2.541400e-01
   outer loop
     vertex -1.505219e+02  6.571512e+02 -5.211506e+02
     vertex -1.503032e+02  6.558709e+02 -5.219826e+02
     vertex -1.502200e+02  6.568532e+02 -5.222993e+02
   endloop
 endfacet
 facet normal  9.671674e-01 -1.282085e-05  2.541400e-01
   outer loop
     vertex -1.505219e+02  6.571512e+02 -5.211506e+02
     vertex -1.506068e+02  6.561361e+02 -5.208276e+02
     vertex -1.503032e+02  6.558709e+02 -5.219826e+02
   endloop
 endfacet
 facet normal  9.671674e-01 -1.282085e-05  2.541400e-01
   outer loop
     vertex -1.463202e+02  6.743132e+02 -5.371396e+02
     vertex -1.463580e+02  6.729371e+02 -5.369961e+02
     vertex -1.461135e+02  6.733197e+02 -5.379266e+02
   endloop
 endfacet
 facet normal  9.671674e-01 -1.282085e-05  2.541400e-01
   outer loop
     vertex -1.463202e+02  6.743132e+02 -5.371396e+02
     vertex -1.461135e+02  6.733197e+02 -5.379266e+02
     vertex -1.460656e+02  6.746849e+02 -5.381086e+02
   endloop
 endfacet
 facet normal  9.671674e-01 -1.282085e-05  2.541400e-01
   outer loop
     vertex -1.504274e+02  6.581531e+02 -5.215102e+02
     vertex -1.502200e+02  6.568532e+02 -5.222993e+02
     vertex -1.501274e+02  6.578223e+02 -5.226516e+02
   endloop
 endfacet
 facet normal  9.671674e-01 -1.282085e-05  2.541400e-01
   outer loop
     vertex -1.504274e+02  6.581531e+02 -5.215102e+02
     vertex -1.505219e+02  6.571512e+02 -5.211506e+02
     vertex -1.502200e+02  6.568532e+02 -5.222993e+02
   endloop
 endfacet
 facet normal  9.671674e-01 -1.282085e-05  2.541400e-01
   outer loop
     vertex -1.465712e+02  6.739042e+02 -5.361848e+02
     vertex -1.465986e+02  6.725184e+02 -5.360802e+02
     vertex -1.463580e+02  6.729371e+02 -5.369961e+02
   endloop
 endfacet
 facet normal  9.671674e-01 -1.282085e-05  2.541400e-01
   outer loop
     vertex -1.465712e+02  6.739042e+02 -5.361848e+02
     vertex -1.463580e+02  6.729371e+02 -5.369961e+02
     vertex -1.463202e+02  6.743132e+02 -5.371396e+02
   endloop
 endfacet
 facet normal  9.671674e-01 -1.282085e-05  2.541400e-01
   outer loop
     vertex -1.503234e+02  6.591404e+02 -5.219057e+02
     vertex -1.504274e+02  6.581531e+02 -5.215102e+02
     vertex -1.501274e+02  6.578223e+02 -5.226516e+02
   endloop
 endfacet
 facet normal  9.671674e-01 -1.282085e-05  2.541400e-01
   outer loop
     vertex -1.503234e+02  6.591404e+02 -5.219057e+02
     vertex -1.501274e+02  6.578223e+02 -5.226516e+02
     vertex -1.500256e+02  6.587770e+02 -5.230392e+02
   endloop
 endfacet
 facet normal  9.671674e-01 -1.282085e-05  2.541400e-01
   outer loop
     vertex -1.468180e+02  6.734587e+02 -5.352453e+02
     vertex -1.468351e+02  6.720641e+02 -5.351804e+02
     vertex -1.465986e+02  6.725184e+02 -5.360802e+02
   endloop
 endfacet
 facet normal  9.671674e-01 -1.282085e-05  2.541400e-01
   outer loop
     vertex -1.468180e+02  6.734587e+02 -5.352453e+02
     vertex -1.465986e+02  6.725184e+02 -5.360802e+02
     vertex -1.465712e+02  6.739042e+02 -5.361848e+02
   endloop
 endfacet
 facet normal  9.671674e-01 -1.282085e-05  2.541400e-01
   outer loop
     vertex -1.502102e+02  6.601117e+02 -5.223366e+02
     vertex -1.503234e+02  6.591404e+02 -5.219057e+02
     vertex -1.500256e+02  6.587770e+02 -5.230392e+02
   endloop
 endfacet
 facet normal  9.671674e-01 -1.282085e-05  2.541400e-01
   outer loop
     vertex -1.502102e+02  6.601117e+02 -5.223366e+02
     vertex -1.500256e+02  6.587770e+02 -5.230392e+02
     vertex -1.499146e+02  6.597158e+02 -5.234615e+02
   endloop
 endfacet
 facet normal  9.671674e-01 -1.282085e-05  2.541400e-01
   outer loop
     vertex -1.470605e+02  6.729771e+02 -5.343227e+02
     vertex -1.470670e+02  6.715750e+02 -5.342978e+02
     vertex -1.468351e+02  6.720641e+02 -5.351804e+02
   endloop
 endfacet
 facet normal  9.671674e-01 -1.282085e-05  2.541400e-01
   outer loop
     vertex -1.470605e+02  6.729771e+02 -5.343227e+02
     vertex -1.468351e+02  6.720641e+02 -5.351804e+02
     vertex -1.468180e+02  6.734587e+02 -5.352453e+02
   endloop
 endfacet
 facet normal  9.671674e-01 -1.282085e-05  2.541400e-01
   outer loop
     vertex -1.500878e+02  6.610657e+02 -5.228024e+02
     vertex -1.502102e+02  6.601117e+02 -5.223366e+02
     vertex -1.499146e+02  6.597158e+02 -5.234615e+02
   endloop
 endfacet
 facet normal  9.671674e-01 -1.282085e-05  2.541400e-01
   outer loop
     vertex -1.500878e+02  6.610657e+02 -5.228024e+02
     vertex -1.499146e+02  6.597158e+02 -5.234615e+02
     vertex -1.497947e+02  6.606374e+02 -5.239178e+02
   endloop
 endfacet
 facet normal  9.671674e-01 -1.282085e-05  2.541400e-01
   outer loop
     vertex -1.472982e+02  6.724602e+02 -5.334181e+02
     vertex -1.472941e+02  6.710516e+02 -5.334338e+02
     vertex -1.470670e+02  6.715750e+02 -5.342978e+02
   endloop
 endfacet
 facet normal  9.671674e-01 -1.282085e-05  2.541400e-01
   outer loop
     vertex -1.472982e+02  6.724602e+02 -5.334181e+02
     vertex -1.470670e+02  6.715750e+02 -5.342978e+02
     vertex -1.470605e+02  6.729771e+02 -5.343227e+02
   endloop
 endfacet
 facet normal  9.671674e-01 -1.282085e-05  2.541400e-01
   outer loop
     vertex -1.499564e+02  6.620010e+02 -5.233024e+02
     vertex -1.500878e+02  6.610657e+02 -5.228024e+02
     vertex -1.497947e+02  6.606374e+02 -5.239178e+02
   endloop
 endfacet
 facet normal  9.671674e-01 -1.282085e-05  2.541400e-01
   outer loop
     vertex -1.499564e+02  6.620010e+02 -5.233024e+02
     vertex -1.497947e+02  6.606374e+02 -5.239178e+02
     vertex -1.496660e+02  6.615406e+02 -5.244075e+02
   endloop
 endfacet
 facet normal  9.671674e-01 -1.282085e-05  2.541400e-01
   outer loop
     vertex -1.475308e+02  6.719086e+02 -5.325328e+02
     vertex -1.475159e+02  6.704949e+02 -5.325895e+02
     vertex -1.472941e+02  6.710516e+02 -5.334338e+02
   endloop
 endfacet
 facet normal  9.671674e-01 -1.282085e-05  2.541400e-01
   outer loop
     vertex -1.475308e+02  6.719086e+02 -5.325328e+02
     vertex -1.472941e+02  6.710516e+02 -5.334338e+02
     vertex -1.472982e+02  6.724602e+02 -5.334181e+02
   endloop
 endfacet
 facet normal  9.671674e-01 -1.282085e-05  2.541400e-01
   outer loop
     vertex -1.498162e+02  6.629163e+02 -5.238358e+02
     vertex -1.496660e+02  6.615406e+02 -5.244075e+02
     vertex -1.495287e+02  6.624239e+02 -5.249299e+02
   endloop
 endfacet
 facet normal  9.671674e-01 -1.282085e-05  2.541400e-01
   outer loop
     vertex -1.498162e+02  6.629163e+02 -5.238358e+02
     vertex -1.499564e+02  6.620010e+02 -5.233024e+02
     vertex -1.496660e+02  6.615406e+02 -5.244075e+02
   endloop
 endfacet
 facet normal  9.671674e-01 -1.282085e-05  2.541400e-01
   outer loop
     vertex -1.477580e+02  6.713233e+02 -5.316681e+02
     vertex -1.477323e+02  6.699055e+02 -5.317662e+02
     vertex -1.475159e+02  6.704949e+02 -5.325895e+02
   endloop
 endfacet
 facet normal  9.671674e-01 -1.282085e-05  2.541400e-01
   outer loop
     vertex -1.477580e+02  6.713233e+02 -5.316681e+02
     vertex -1.475159e+02  6.704949e+02 -5.325895e+02
     vertex -1.475308e+02  6.719086e+02 -5.325328e+02
   endloop
 endfacet
 facet normal  9.671674e-01 -1.282085e-05  2.541400e-01
   outer loop
     vertex -1.496674e+02  6.638103e+02 -5.244019e+02
     vertex -1.495287e+02  6.624239e+02 -5.249299e+02
     vertex -1.493830e+02  6.632861e+02 -5.254842e+02
   endloop
 endfacet
 facet normal  9.671674e-01 -1.282085e-05  2.541400e-01
   outer loop
     vertex -1.496674e+02  6.638103e+02 -5.244019e+02
     vertex -1.498162e+02  6.629163e+02 -5.238358e+02
     vertex -1.495287e+02  6.624239e+02 -5.249299e+02
   endloop
 endfacet
 facet normal  9.671674e-01 -1.282085e-05  2.541400e-01
   outer loop
     vertex -1.479795e+02  6.707049e+02 -5.308252e+02
     vertex -1.479428e+02  6.692843e+02 -5.309651e+02
     vertex -1.477323e+02  6.699055e+02 -5.317662e+02
   endloop
 endfacet
 facet normal  9.671674e-01 -1.282085e-05  2.541400e-01
   outer loop
     vertex -1.479795e+02  6.707049e+02 -5.308252e+02
     vertex -1.477323e+02  6.699055e+02 -5.317662e+02
     vertex -1.477580e+02  6.713233e+02 -5.316681e+02
   endloop
 endfacet
 facet normal  9.671674e-01 -1.282085e-05  2.541400e-01
   outer loop
     vertex -1.495103e+02  6.646819e+02 -5.250000e+02
     vertex -1.493830e+02  6.632861e+02 -5.254842e+02
     vertex -1.492292e+02  6.641260e+02 -5.260698e+02
   endloop
 endfacet
 facet normal  9.671674e-01 -1.282085e-05  2.541400e-01
   outer loop
     vertex -1.495103e+02  6.646819e+02 -5.250000e+02
     vertex -1.496674e+02  6.638103e+02 -5.244019e+02
     vertex -1.493830e+02  6.632861e+02 -5.254842e+02
   endloop
 endfacet
 facet normal  9.671674e-01 -1.282085e-05  2.541400e-01
   outer loop
     vertex -1.481950e+02  6.700543e+02 -5.300052e+02
     vertex -1.481472e+02  6.686322e+02 -5.301873e+02
     vertex -1.479428e+02  6.692843e+02 -5.309651e+02
   endloop
 endfacet
 facet normal  9.671674e-01 -1.282085e-05  2.541400e-01
   outer loop
     vertex -1.481950e+02  6.700543e+02 -5.300052e+02
     vertex -1.479428e+02  6.692843e+02 -5.309651e+02
     vertex -1.479795e+02  6.707049e+02 -5.308252e+02
   endloop
 endfacet
 facet normal  9.671674e-01 -1.282085e-05  2.541400e-01
   outer loop
     vertex -1.493449e+02  6.655297e+02 -5.256292e+02
     vertex -1.492292e+02  6.641260e+02 -5.260698e+02
     vertex -1.490673e+02  6.649424e+02 -5.266856e+02
   endloop
 endfacet
 facet normal  9.671674e-01 -1.282085e-05  2.541400e-01
   outer loop
     vertex -1.493449e+02  6.655297e+02 -5.256292e+02
     vertex -1.495103e+02  6.646819e+02 -5.250000e+02
     vertex -1.492292e+02  6.641260e+02 -5.260698e+02
   endloop
 endfacet
 facet normal  9.671674e-01 -1.282085e-05  2.541400e-01
   outer loop
     vertex -1.484041e+02  6.693725e+02 -5.292094e+02
     vertex -1.483451e+02  6.679502e+02 -5.294339e+02
     vertex -1.481472e+02  6.686322e+02 -5.301873e+02
   endloop
 endfacet
 facet normal  9.671674e-01 -1.282085e-05  2.541400e-01
   outer loop
     vertex -1.484041e+02  6.693725e+02 -5.292094e+02
     vertex -1.481472e+02  6.686322e+02 -5.301873e+02
     vertex -1.481950e+02  6.700543e+02 -5.300052e+02
   endloop
 endfacet
 facet normal  9.671674e-01 -1.282085e-05  2.541400e-01
   outer loop
     vertex -1.491716e+02  6.663526e+02 -5.262886e+02
     vertex -1.490673e+02  6.649424e+02 -5.266856e+02
     vertex -1.488978e+02  6.657342e+02 -5.273309e+02
   endloop
 endfacet
 facet normal  9.671674e-01 -1.282085e-05  2.541400e-01
   outer loop
     vertex -1.491716e+02  6.663526e+02 -5.262886e+02
     vertex -1.493449e+02  6.655297e+02 -5.256292e+02
     vertex -1.490673e+02  6.649424e+02 -5.266856e+02
   endloop
 endfacet
 facet normal  9.671674e-01 -1.282085e-05  2.541400e-01
   outer loop
     vertex -1.486066e+02  6.686604e+02 -5.284387e+02
     vertex -1.485364e+02  6.672391e+02 -5.287060e+02
     vertex -1.483451e+02  6.679502e+02 -5.294339e+02
   endloop
 endfacet
 facet normal  9.671674e-01 -1.282085e-05  2.541400e-01
   outer loop
     vertex -1.486066e+02  6.686604e+02 -5.284387e+02
     vertex -1.483451e+02  6.679502e+02 -5.294339e+02
     vertex -1.484041e+02  6.693725e+02 -5.292094e+02
   endloop
 endfacet
 facet normal  9.671674e-01 -1.282085e-05  2.541400e-01
   outer loop
     vertex -1.489907e+02  6.671494e+02 -5.269773e+02
     vertex -1.488978e+02  6.657342e+02 -5.273309e+02
     vertex -1.487207e+02  6.665001e+02 -5.280047e+02
   endloop
 endfacet
 facet normal  9.671674e-01 -1.282085e-05  2.541400e-01
   outer loop
     vertex -1.489907e+02  6.671494e+02 -5.269773e+02
     vertex -1.491716e+02  6.663526e+02 -5.262886e+02
     vertex -1.488978e+02  6.657342e+02 -5.273309e+02
   endloop
 endfacet
 facet normal  9.671674e-01 -1.282085e-05  2.541400e-01
   outer loop
     vertex -1.488022e+02  6.679191e+02 -5.276943e+02
     vertex -1.489907e+02  6.671494e+02 -5.269773e+02
     vertex -1.487207e+02  6.665001e+02 -5.280047e+02
   endloop
 endfacet
 facet normal  9.671674e-01 -1.282085e-05  2.541400e-01
   outer loop
     vertex -1.488022e+02  6.679191e+02 -5.276943e+02
     vertex -1.487207e+02  6.665001e+02 -5.280047e+02
     vertex -1.485364e+02  6.672391e+02 -5.287060e+02
   endloop
 endfacet
 facet normal  9.671674e-01 -1.282085e-05  2.541400e-01
   outer loop
     vertex -1.488022e+02  6.679191e+02 -5.276943e+02
     vertex -1.485364e+02  6.672391e+02 -5.287060e+02
     vertex -1.486066e+02  6.686604e+02 -5.284387e+02
   endloop
 endfacet
endsolid
