solid 
 facet normal  7.995531e-01 -6.000507e-01  2.557380e-02
   outer loop
     vertex -2.303929e+02  6.722856e+02 -5.690054e+02
     vertex -2.298294e+02  6.730471e+02 -5.687564e+02
     vertex -2.301375e+02  6.726459e+02 -5.685343e+02
   endloop
 endfacet
 facet normal  7.638372e-01 -6.408973e-01  7.618011e-02
   outer loop
     vertex -2.303929e+02  6.722856e+02 -5.690054e+02
     vertex -2.301375e+02  6.726459e+02 -5.685343e+02
     vertex -2.304742e+02  6.722716e+02 -5.683070e+02
   endloop
 endfacet
 facet normal  8.088975e-01 -5.850398e-01  5.842304e-02
   outer loop
     vertex -2.305252e+02  6.720689e+02 -5.695611e+02
     vertex -2.305005e+02  6.720367e+02 -5.702253e+02
     vertex -2.302055e+02  6.724232e+02 -5.704385e+02
   endloop
 endfacet
 facet normal  7.660262e-01 -6.400505e-01  5.949129e-02
   outer loop
     vertex -2.305252e+02  6.720689e+02 -5.695611e+02
     vertex -2.308208e+02  6.716736e+02 -5.700074e+02
     vertex -2.305005e+02  6.720367e+02 -5.702253e+02
   endloop
 endfacet
 facet normal  7.957293e-01 -6.039026e-01  4.600565e-02
   outer loop
     vertex -2.305252e+02  6.720689e+02 -5.695611e+02
     vertex -2.302055e+02  6.724232e+02 -5.704385e+02
     vertex -2.298294e+02  6.730471e+02 -5.687564e+02
   endloop
 endfacet
 facet normal  7.957293e-01 -6.039026e-01  4.600565e-02
   outer loop
     vertex -2.305252e+02  6.720689e+02 -5.695611e+02
     vertex -2.298294e+02  6.730471e+02 -5.687564e+02
     vertex -2.303929e+02  6.722856e+02 -5.690054e+02
   endloop
 endfacet
 facet normal  7.191201e-01 -6.870768e-01  1.038838e-01
   outer loop
     vertex -2.308847e+02  6.717849e+02 -5.686845e+02
     vertex -2.304742e+02  6.722716e+02 -5.683070e+02
     vertex -2.308379e+02  6.719260e+02 -5.680757e+02
   endloop
 endfacet
 facet normal  7.342018e-01 -6.750982e-01  7.204199e-02
   outer loop
     vertex -2.308847e+02  6.717849e+02 -5.686845e+02
     vertex -2.303929e+02  6.722856e+02 -5.690054e+02
     vertex -2.304742e+02  6.722716e+02 -5.683070e+02
   endloop
 endfacet
 facet normal  7.273092e-01 -6.800676e-01  9.235502e-02
   outer loop
     vertex -2.310249e+02  6.715603e+02 -5.692352e+02
     vertex -2.311650e+02  6.713356e+02 -5.697858e+02
     vertex -2.308208e+02  6.716736e+02 -5.700074e+02
   endloop
 endfacet
 facet normal  6.842741e-01 -7.193913e-01  1.193526e-01
   outer loop
     vertex -2.310249e+02  6.715603e+02 -5.692352e+02
     vertex -2.315317e+02  6.710240e+02 -5.695615e+02
     vertex -2.311650e+02  6.713356e+02 -5.697858e+02
   endloop
 endfacet
 facet normal  7.376061e-01 -6.697909e-01  8.554130e-02
   outer loop
     vertex -2.310249e+02  6.715603e+02 -5.692352e+02
     vertex -2.303929e+02  6.722856e+02 -5.690054e+02
     vertex -2.308847e+02  6.717849e+02 -5.686845e+02
   endloop
 endfacet
 facet normal  7.406380e-01 -6.646993e-01  9.813317e-02
   outer loop
     vertex -2.310249e+02  6.715603e+02 -5.692352e+02
     vertex -2.308208e+02  6.716736e+02 -5.700074e+02
     vertex -2.305252e+02  6.720689e+02 -5.695611e+02
   endloop
 endfacet
 facet normal  7.376061e-01 -6.697909e-01  8.554130e-02
   outer loop
     vertex -2.310249e+02  6.715603e+02 -5.692352e+02
     vertex -2.305252e+02  6.720689e+02 -5.695611e+02
     vertex -2.303929e+02  6.722856e+02 -5.690054e+02
   endloop
 endfacet
 facet normal  6.689362e-01 -7.329170e-01  1.239237e-01
   outer loop
     vertex -2.314255e+02  6.713420e+02 -5.683576e+02
     vertex -2.308379e+02  6.719260e+02 -5.680757e+02
     vertex -2.312265e+02  6.716109e+02 -5.678415e+02
   endloop
 endfacet
 facet normal  6.200887e-01 -7.678435e-01  1.609547e-01
   outer loop
     vertex -2.314255e+02  6.713420e+02 -5.683576e+02
     vertex -2.312265e+02  6.716109e+02 -5.678415e+02
     vertex -2.316382e+02  6.713279e+02 -5.676057e+02
   endloop
 endfacet
 facet normal  6.709287e-01 -7.320703e-01  1.180160e-01
   outer loop
     vertex -2.314255e+02  6.713420e+02 -5.683576e+02
     vertex -2.308847e+02  6.717849e+02 -5.686845e+02
     vertex -2.308379e+02  6.719260e+02 -5.680757e+02
   endloop
 endfacet
 facet normal  6.369250e-01 -7.580181e-01  1.404816e-01
   outer loop
     vertex -2.315742e+02  6.711103e+02 -5.689031e+02
     vertex -2.319193e+02  6.707403e+02 -5.693353e+02
     vertex -2.315317e+02  6.710240e+02 -5.695615e+02
   endloop
 endfacet
 facet normal  6.762911e-01 -7.234970e-01  1.385005e-01
   outer loop
     vertex -2.315742e+02  6.711103e+02 -5.689031e+02
     vertex -2.315317e+02  6.710240e+02 -5.695615e+02
     vertex -2.310249e+02  6.715603e+02 -5.692352e+02
   endloop
 endfacet
 facet normal  6.730663e-01 -7.287649e-01  1.260297e-01
   outer loop
     vertex -2.315742e+02  6.711103e+02 -5.689031e+02
     vertex -2.310249e+02  6.715603e+02 -5.692352e+02
     vertex -2.308847e+02  6.717849e+02 -5.686845e+02
   endloop
 endfacet
 facet normal  6.730663e-01 -7.287649e-01  1.260297e-01
   outer loop
     vertex -2.315742e+02  6.711103e+02 -5.689031e+02
     vertex -2.308847e+02  6.717849e+02 -5.686845e+02
     vertex -2.314255e+02  6.713420e+02 -5.683576e+02
   endloop
 endfacet
 facet normal  5.676980e-01 -7.998356e-01  1.948900e-01
   outer loop
     vertex -2.320100e+02  6.709611e+02 -5.680277e+02
     vertex -2.316382e+02  6.713279e+02 -5.676057e+02
     vertex -2.320707e+02  6.710784e+02 -5.673694e+02
   endloop
 endfacet
 facet normal  5.991864e-01 -7.855192e-01  1.547103e-01
   outer loop
     vertex -2.320100e+02  6.709611e+02 -5.680277e+02
     vertex -2.314255e+02  6.713420e+02 -5.683576e+02
     vertex -2.316382e+02  6.713279e+02 -5.676057e+02
   endloop
 endfacet
 facet normal  5.905307e-01 -7.880193e-01  1.740660e-01
   outer loop
     vertex -2.321680e+02  6.707234e+02 -5.685680e+02
     vertex -2.323260e+02  6.704856e+02 -5.691082e+02
     vertex -2.319193e+02  6.707403e+02 -5.693353e+02
   endloop
 endfacet
 facet normal  5.402260e-01 -8.170281e-01  2.015462e-01
   outer loop
     vertex -2.321680e+02  6.707234e+02 -5.685680e+02
     vertex -2.327502e+02  6.702611e+02 -5.688813e+02
     vertex -2.323260e+02  6.704856e+02 -5.691082e+02
   endloop
 endfacet
 facet normal  6.027347e-01 -7.802535e-01  1.670788e-01
   outer loop
     vertex -2.321680e+02  6.707234e+02 -5.685680e+02
     vertex -2.315742e+02  6.711103e+02 -5.689031e+02
     vertex -2.314255e+02  6.713420e+02 -5.683576e+02
   endloop
 endfacet
 facet normal  6.061697e-01 -7.748318e-01  1.794269e-01
   outer loop
     vertex -2.321680e+02  6.707234e+02 -5.685680e+02
     vertex -2.319193e+02  6.707403e+02 -5.693353e+02
     vertex -2.315742e+02  6.711103e+02 -5.689031e+02
   endloop
 endfacet
 facet normal  6.027347e-01 -7.802535e-01  1.670788e-01
   outer loop
     vertex -2.321680e+02  6.707234e+02 -5.685680e+02
     vertex -2.314255e+02  6.713420e+02 -5.683576e+02
     vertex -2.320100e+02  6.709611e+02 -5.680277e+02
   endloop
 endfacet
 facet normal  5.104875e-01 -8.310463e-01  2.208272e-01
   outer loop
     vertex -2.326325e+02  6.706460e+02 -5.676982e+02
     vertex -2.320707e+02  6.710784e+02 -5.673694e+02
     vertex -2.325220e+02  6.708638e+02 -5.671338e+02
   endloop
 endfacet
 facet normal  4.499299e-01 -8.592095e-01  2.435614e-01
   outer loop
     vertex -2.326325e+02  6.706460e+02 -5.676982e+02
     vertex -2.325220e+02  6.708638e+02 -5.671338e+02
     vertex -2.329896e+02  6.706852e+02 -5.669002e+02
   endloop
 endfacet
 facet normal  5.235334e-01 -8.291453e-01  1.960376e-01
   outer loop
     vertex -2.326325e+02  6.706460e+02 -5.676982e+02
     vertex -2.320100e+02  6.709611e+02 -5.680277e+02
     vertex -2.320707e+02  6.710784e+02 -5.673694e+02
   endloop
 endfacet
 facet normal  4.860153e-01 -8.450419e-01  2.229198e-01
   outer loop
     vertex -2.328004e+02  6.704032e+02 -5.682332e+02
     vertex -2.331901e+02  6.700677e+02 -5.686555e+02
     vertex -2.327502e+02  6.702611e+02 -5.688813e+02
   endloop
 endfacet
 facet normal  5.272924e-01 -8.237582e-01  2.082910e-01
   outer loop
     vertex -2.328004e+02  6.704032e+02 -5.682332e+02
     vertex -2.320100e+02  6.709611e+02 -5.680277e+02
     vertex -2.326325e+02  6.706460e+02 -5.676982e+02
   endloop
 endfacet
 facet normal  5.309530e-01 -8.182064e-01  2.205160e-01
   outer loop
     vertex -2.328004e+02  6.704032e+02 -5.682332e+02
     vertex -2.327502e+02  6.702611e+02 -5.688813e+02
     vertex -2.321680e+02  6.707234e+02 -5.685680e+02
   endloop
 endfacet
 facet normal  5.272924e-01 -8.237582e-01  2.082910e-01
   outer loop
     vertex -2.328004e+02  6.704032e+02 -5.682332e+02
     vertex -2.321680e+02  6.707234e+02 -5.685680e+02
     vertex -2.320100e+02  6.709611e+02 -5.680277e+02
   endloop
 endfacet
 facet normal  3.927344e-01 -8.752908e-01  2.821802e-01
   outer loop
     vertex -2.332871e+02  6.703995e+02 -5.673721e+02
     vertex -2.329896e+02  6.706852e+02 -5.669002e+02
     vertex -2.334713e+02  6.705433e+02 -5.666698e+02
   endloop
 endfacet
 facet normal  4.474700e-01 -8.588576e-01  2.492673e-01
   outer loop
     vertex -2.332871e+02  6.703995e+02 -5.673721e+02
     vertex -2.328004e+02  6.704032e+02 -5.682332e+02
     vertex -2.326325e+02  6.706460e+02 -5.676982e+02
   endloop
 endfacet
 facet normal  4.449229e-01 -8.623992e-01  2.414774e-01
   outer loop
     vertex -2.332871e+02  6.703995e+02 -5.673721e+02
     vertex -2.326325e+02  6.706460e+02 -5.676982e+02
     vertex -2.329896e+02  6.706852e+02 -5.669002e+02
   endloop
 endfacet
 facet normal  4.338326e-01 -8.638113e-01  2.561626e-01
   outer loop
     vertex -2.334654e+02  6.701529e+02 -5.679020e+02
     vertex -2.336437e+02  6.699062e+02 -5.684318e+02
     vertex -2.331901e+02  6.700677e+02 -5.686555e+02
   endloop
 endfacet
 facet normal  3.782020e-01 -8.813843e-01  2.830636e-01
   outer loop
     vertex -2.334654e+02  6.701529e+02 -5.679020e+02
     vertex -2.341091e+02  6.697774e+02 -5.682111e+02
     vertex -2.336437e+02  6.699062e+02 -5.684318e+02
   endloop
 endfacet
 facet normal  4.513692e-01 -8.532008e-01  2.613698e-01
   outer loop
     vertex -2.334654e+02  6.701529e+02 -5.679020e+02
     vertex -2.331901e+02  6.700677e+02 -5.686555e+02
     vertex -2.328004e+02  6.704032e+02 -5.682332e+02
   endloop
 endfacet
 facet normal  4.474700e-01 -8.588576e-01  2.492673e-01
   outer loop
     vertex -2.334654e+02  6.701529e+02 -5.679020e+02
     vertex -2.328004e+02  6.704032e+02 -5.682332e+02
     vertex -2.332871e+02  6.703995e+02 -5.673721e+02
   endloop
 endfacet
 facet normal  3.314022e-01 -8.902659e-01  3.124086e-01
   outer loop
     vertex -2.339674e+02  6.702243e+02 -5.670527e+02
     vertex -2.334713e+02  6.705433e+02 -5.666698e+02
     vertex -2.339644e+02  6.704391e+02 -5.664437e+02
   endloop
 endfacet
 facet normal  2.605357e-01 -9.108813e-01  3.200256e-01
   outer loop
     vertex -2.339674e+02  6.702243e+02 -5.670527e+02
     vertex -2.339644e+02  6.704391e+02 -5.664437e+02
     vertex -2.344666e+02  6.703730e+02 -5.662232e+02
   endloop
 endfacet
 facet normal  3.595209e-01 -8.911623e-01  2.767209e-01
   outer loop
     vertex -2.339674e+02  6.702243e+02 -5.670527e+02
     vertex -2.332871e+02  6.703995e+02 -5.673721e+02
     vertex -2.334713e+02  6.705433e+02 -5.666698e+02
   endloop
 endfacet
 facet normal  2.778118e-01 -9.025657e-01  3.289312e-01
   outer loop
     vertex -2.341565e+02  6.699748e+02 -5.675775e+02
     vertex -2.344666e+02  6.703730e+02 -5.662232e+02
     vertex -2.350671e+02  6.696197e+02 -5.677827e+02
   endloop
 endfacet
 facet normal  3.191284e-01 -8.977592e-01  3.036205e-01
   outer loop
     vertex -2.341565e+02  6.699748e+02 -5.675775e+02
     vertex -2.345842e+02  6.696818e+02 -5.679945e+02
     vertex -2.341091e+02  6.697774e+02 -5.682111e+02
   endloop
 endfacet
 facet normal  2.698116e-01 -8.959099e-01  3.529123e-01
   outer loop
     vertex -2.341565e+02  6.699748e+02 -5.675775e+02
     vertex -2.350671e+02  6.696197e+02 -5.677827e+02
     vertex -2.345842e+02  6.696818e+02 -5.679945e+02
   endloop
 endfacet
 facet normal  3.681891e-01 -8.794763e-01  3.015928e-01
   outer loop
     vertex -2.341565e+02  6.699748e+02 -5.675775e+02
     vertex -2.341091e+02  6.697774e+02 -5.682111e+02
     vertex -2.334654e+02  6.701529e+02 -5.679020e+02
   endloop
 endfacet
 facet normal  2.778118e-01 -9.025657e-01  3.289312e-01
   outer loop
     vertex -2.341565e+02  6.699748e+02 -5.675775e+02
     vertex -2.339674e+02  6.702243e+02 -5.670527e+02
     vertex -2.344666e+02  6.703730e+02 -5.662232e+02
   endloop
 endfacet
 facet normal  3.640405e-01 -8.852118e-01  2.896109e-01
   outer loop
     vertex -2.341565e+02  6.699748e+02 -5.675775e+02
     vertex -2.334654e+02  6.701529e+02 -5.679020e+02
     vertex -2.332871e+02  6.703995e+02 -5.673721e+02
   endloop
 endfacet
 facet normal  3.640405e-01 -8.852118e-01  2.896109e-01
   outer loop
     vertex -2.341565e+02  6.699748e+02 -5.675775e+02
     vertex -2.332871e+02  6.703995e+02 -5.673721e+02
     vertex -2.339674e+02  6.702243e+02 -5.670527e+02
   endloop
 endfacet
endsolid
