solid 
 facet normal -2.110369e-01  8.694237e-01 -4.467280e-01
   outer loop
     vertex -2.380484e+02  6.245829e+02 -5.707217e+02
     vertex -2.471561e+02  6.246068e+02 -5.663727e+02
     vertex -2.464675e+02  6.255124e+02 -5.649355e+02
   endloop
 endfacet
 facet normal -2.110369e-01  8.694237e-01 -4.467280e-01
   outer loop
     vertex -2.373598e+02  6.254886e+02 -5.692844e+02
     vertex -2.380484e+02  6.245829e+02 -5.707217e+02
     vertex -2.464675e+02  6.255124e+02 -5.649355e+02
   endloop
 endfacet
endsolid
