solid 
 facet normal  1.305970e-01  1.347501e-01 -9.822356e-01
   outer loop
     vertex -3.110326e+02  6.470573e+02 -3.272858e+02
     vertex -3.122764e+02  6.475311e+02 -3.273862e+02
     vertex -3.114977e+02  6.483091e+02 -3.271759e+02
   endloop
 endfacet
 facet normal  1.305970e-01  1.347501e-01 -9.822356e-01
   outer loop
     vertex -3.102528e+02  6.478087e+02 -3.270791e+02
     vertex -3.114977e+02  6.483091e+02 -3.271759e+02
     vertex -3.106915e+02  6.490587e+02 -3.269659e+02
   endloop
 endfacet
 facet normal  1.305970e-01  1.347501e-01 -9.822356e-01
   outer loop
     vertex -3.102528e+02  6.478087e+02 -3.270791e+02
     vertex -3.110326e+02  6.470573e+02 -3.272858e+02
     vertex -3.114977e+02  6.483091e+02 -3.271759e+02
   endloop
 endfacet
 facet normal  1.305970e-01  1.347501e-01 -9.822356e-01
   outer loop
     vertex -3.117843e+02  6.462779e+02 -3.274927e+02
     vertex -3.130266e+02  6.467256e+02 -3.275965e+02
     vertex -3.122764e+02  6.475311e+02 -3.273862e+02
   endloop
 endfacet
 facet normal  1.305970e-01  1.347501e-01 -9.822356e-01
   outer loop
     vertex -3.117843e+02  6.462779e+02 -3.274927e+02
     vertex -3.122764e+02  6.475311e+02 -3.273862e+02
     vertex -3.110326e+02  6.470573e+02 -3.272858e+02
   endloop
 endfacet
 facet normal  1.305970e-01  1.347501e-01 -9.822356e-01
   outer loop
     vertex -3.094459e+02  6.485309e+02 -3.268727e+02
     vertex -3.106915e+02  6.490587e+02 -3.269659e+02
     vertex -3.098589e+02  6.497790e+02 -3.267564e+02
   endloop
 endfacet
 facet normal  1.305970e-01  1.347501e-01 -9.822356e-01
   outer loop
     vertex -3.094459e+02  6.485309e+02 -3.268727e+02
     vertex -3.102528e+02  6.478087e+02 -3.270791e+02
     vertex -3.106915e+02  6.490587e+02 -3.269659e+02
   endloop
 endfacet
 facet normal  1.305970e-01  1.347501e-01 -9.822356e-01
   outer loop
     vertex -3.125068e+02  6.454713e+02 -3.276994e+02
     vertex -3.137475e+02  6.458936e+02 -3.278065e+02
     vertex -3.130266e+02  6.467256e+02 -3.275965e+02
   endloop
 endfacet
 facet normal  1.305970e-01  1.347501e-01 -9.822356e-01
   outer loop
     vertex -3.125068e+02  6.454713e+02 -3.276994e+02
     vertex -3.130266e+02  6.467256e+02 -3.275965e+02
     vertex -3.117843e+02  6.462779e+02 -3.274927e+02
   endloop
 endfacet
 facet normal  1.305970e-01  1.347501e-01 -9.822356e-01
   outer loop
     vertex -3.086129e+02  6.492230e+02 -3.266670e+02
     vertex -3.098589e+02  6.497790e+02 -3.267564e+02
     vertex -3.090008e+02  6.504689e+02 -3.265477e+02
   endloop
 endfacet
 facet normal  1.305970e-01  1.347501e-01 -9.822356e-01
   outer loop
     vertex -3.086129e+02  6.492230e+02 -3.266670e+02
     vertex -3.094459e+02  6.485309e+02 -3.268727e+02
     vertex -3.098589e+02  6.497790e+02 -3.267564e+02
   endloop
 endfacet
 facet normal  1.305970e-01  1.347501e-01 -9.822356e-01
   outer loop
     vertex -3.131992e+02  6.446386e+02 -3.279057e+02
     vertex -3.144380e+02  6.450362e+02 -3.280159e+02
     vertex -3.137475e+02  6.458936e+02 -3.278065e+02
   endloop
 endfacet
 facet normal  1.305970e-01  1.347501e-01 -9.822356e-01
   outer loop
     vertex -3.131992e+02  6.446386e+02 -3.279057e+02
     vertex -3.137475e+02  6.458936e+02 -3.278065e+02
     vertex -3.125068e+02  6.454713e+02 -3.276994e+02
   endloop
 endfacet
 facet normal  1.305970e-01  1.347501e-01 -9.822356e-01
   outer loop
     vertex -3.077548e+02  6.498842e+02 -3.264622e+02
     vertex -3.090008e+02  6.504689e+02 -3.265477e+02
     vertex -3.081183e+02  6.511277e+02 -3.263400e+02
   endloop
 endfacet
 facet normal  1.305970e-01  1.347501e-01 -9.822356e-01
   outer loop
     vertex -3.077548e+02  6.498842e+02 -3.264622e+02
     vertex -3.086129e+02  6.492230e+02 -3.266670e+02
     vertex -3.090008e+02  6.504689e+02 -3.265477e+02
   endloop
 endfacet
 facet normal  1.305970e-01  1.347501e-01 -9.822356e-01
   outer loop
     vertex -3.138606e+02  6.437810e+02 -3.281113e+02
     vertex -3.150974e+02  6.441544e+02 -3.282245e+02
     vertex -3.144380e+02  6.450362e+02 -3.280159e+02
   endloop
 endfacet
 facet normal  1.305970e-01  1.347501e-01 -9.822356e-01
   outer loop
     vertex -3.138606e+02  6.437810e+02 -3.281113e+02
     vertex -3.144380e+02  6.450362e+02 -3.280159e+02
     vertex -3.131992e+02  6.446386e+02 -3.279057e+02
   endloop
 endfacet
 facet normal  1.305970e-01  1.347501e-01 -9.822356e-01
   outer loop
     vertex -3.068729e+02  6.505136e+02 -3.262586e+02
     vertex -3.077548e+02  6.498842e+02 -3.264622e+02
     vertex -3.081183e+02  6.511277e+02 -3.263400e+02
   endloop
 endfacet
 facet normal  1.305970e-01  1.347501e-01 -9.822356e-01
   outer loop
     vertex -3.068729e+02  6.505136e+02 -3.262586e+02
     vertex -3.081183e+02  6.511277e+02 -3.263400e+02
     vertex -3.072126e+02  6.517545e+02 -3.261335e+02
   endloop
 endfacet
 facet normal  1.305970e-01  1.347501e-01 -9.822356e-01
   outer loop
     vertex -3.144902e+02  6.428995e+02 -3.283160e+02
     vertex -3.157249e+02  6.432493e+02 -3.284321e+02
     vertex -3.150974e+02  6.441544e+02 -3.282245e+02
   endloop
 endfacet
 facet normal  1.305970e-01  1.347501e-01 -9.822356e-01
   outer loop
     vertex -3.144902e+02  6.428995e+02 -3.283160e+02
     vertex -3.150974e+02  6.441544e+02 -3.282245e+02
     vertex -3.138606e+02  6.437810e+02 -3.281113e+02
   endloop
 endfacet
 facet normal  1.305970e-01  1.347501e-01 -9.822356e-01
   outer loop
     vertex -3.059683e+02  6.511103e+02 -3.260565e+02
     vertex -3.072126e+02  6.517545e+02 -3.261335e+02
     vertex -3.062847e+02  6.523486e+02 -3.259287e+02
   endloop
 endfacet
 facet normal  1.305970e-01  1.347501e-01 -9.822356e-01
   outer loop
     vertex -3.059683e+02  6.511103e+02 -3.260565e+02
     vertex -3.068729e+02  6.505136e+02 -3.262586e+02
     vertex -3.072126e+02  6.517545e+02 -3.261335e+02
   endloop
 endfacet
 facet normal  1.305970e-01  1.347501e-01 -9.822356e-01
   outer loop
     vertex -3.150871e+02  6.419953e+02 -3.285194e+02
     vertex -3.157249e+02  6.432493e+02 -3.284321e+02
     vertex -3.144902e+02  6.428995e+02 -3.283160e+02
   endloop
 endfacet
 facet normal  1.305970e-01  1.347501e-01 -9.822356e-01
   outer loop
     vertex -3.150871e+02  6.419953e+02 -3.285194e+02
     vertex -3.163196e+02  6.423221e+02 -3.286384e+02
     vertex -3.157249e+02  6.432493e+02 -3.284321e+02
   endloop
 endfacet
 facet normal  1.305970e-01  1.347501e-01 -9.822356e-01
   outer loop
     vertex -3.050421e+02  6.516736e+02 -3.258561e+02
     vertex -3.062847e+02  6.523486e+02 -3.259287e+02
     vertex -3.053358e+02  6.529093e+02 -3.257256e+02
   endloop
 endfacet
 facet normal  1.305970e-01  1.347501e-01 -9.822356e-01
   outer loop
     vertex -3.050421e+02  6.516736e+02 -3.258561e+02
     vertex -3.059683e+02  6.511103e+02 -3.260565e+02
     vertex -3.062847e+02  6.523486e+02 -3.259287e+02
   endloop
 endfacet
 facet normal  1.305970e-01  1.347501e-01 -9.822356e-01
   outer loop
     vertex -3.156506e+02  6.410695e+02 -3.287213e+02
     vertex -3.168807e+02  6.413739e+02 -3.288431e+02
     vertex -3.163196e+02  6.423221e+02 -3.286384e+02
   endloop
 endfacet
 facet normal  1.305970e-01  1.347501e-01 -9.822356e-01
   outer loop
     vertex -3.156506e+02  6.410695e+02 -3.287213e+02
     vertex -3.163196e+02  6.423221e+02 -3.286384e+02
     vertex -3.150871e+02  6.419953e+02 -3.285194e+02
   endloop
 endfacet
 facet normal  1.305970e-01  1.347501e-01 -9.822356e-01
   outer loop
     vertex -3.040956e+02  6.522028e+02 -3.256576e+02
     vertex -3.053358e+02  6.529093e+02 -3.257256e+02
     vertex -3.043671e+02  6.534357e+02 -3.255246e+02
   endloop
 endfacet
 facet normal  1.305970e-01  1.347501e-01 -9.822356e-01
   outer loop
     vertex -3.040956e+02  6.522028e+02 -3.256576e+02
     vertex -3.050421e+02  6.516736e+02 -3.258561e+02
     vertex -3.053358e+02  6.529093e+02 -3.257256e+02
   endloop
 endfacet
 facet normal  1.305970e-01  1.347501e-01 -9.822356e-01
   outer loop
     vertex -3.161799e+02  6.401234e+02 -3.289215e+02
     vertex -3.168807e+02  6.413739e+02 -3.288431e+02
     vertex -3.156506e+02  6.410695e+02 -3.287213e+02
   endloop
 endfacet
 facet normal  1.305970e-01  1.347501e-01 -9.822356e-01
   outer loop
     vertex -3.161799e+02  6.401234e+02 -3.289215e+02
     vertex -3.174077e+02  6.404059e+02 -3.290460e+02
     vertex -3.168807e+02  6.413739e+02 -3.288431e+02
   endloop
 endfacet
 facet normal  1.305970e-01  1.347501e-01 -9.822356e-01
   outer loop
     vertex -3.031299e+02  6.526971e+02 -3.254614e+02
     vertex -3.043671e+02  6.534357e+02 -3.255246e+02
     vertex -3.033798e+02  6.539273e+02 -3.253259e+02
   endloop
 endfacet
 facet normal  1.305970e-01  1.347501e-01 -9.822356e-01
   outer loop
     vertex -3.031299e+02  6.526971e+02 -3.254614e+02
     vertex -3.040956e+02  6.522028e+02 -3.256576e+02
     vertex -3.043671e+02  6.534357e+02 -3.255246e+02
   endloop
 endfacet
 facet normal  1.305970e-01  1.347501e-01 -9.822356e-01
   outer loop
     vertex -3.166744e+02  6.391582e+02 -3.291196e+02
     vertex -3.174077e+02  6.404059e+02 -3.290460e+02
     vertex -3.161799e+02  6.401234e+02 -3.289215e+02
   endloop
 endfacet
 facet normal  1.305970e-01  1.347501e-01 -9.822356e-01
   outer loop
     vertex -3.166744e+02  6.391582e+02 -3.291196e+02
     vertex -3.178999e+02  6.394193e+02 -3.292468e+02
     vertex -3.174077e+02  6.404059e+02 -3.290460e+02
   endloop
 endfacet
 facet normal  1.305970e-01  1.347501e-01 -9.822356e-01
   outer loop
     vertex -3.021464e+02  6.531559e+02 -3.252677e+02
     vertex -3.033798e+02  6.539273e+02 -3.253259e+02
     vertex -3.023751e+02  6.543835e+02 -3.251297e+02
   endloop
 endfacet
 facet normal  1.305970e-01  1.347501e-01 -9.822356e-01
   outer loop
     vertex -3.021464e+02  6.531559e+02 -3.252677e+02
     vertex -3.031299e+02  6.526971e+02 -3.254614e+02
     vertex -3.033798e+02  6.539273e+02 -3.253259e+02
   endloop
 endfacet
 facet normal  1.305970e-01  1.347501e-01 -9.822356e-01
   outer loop
     vertex -3.171333e+02  6.381752e+02 -3.293155e+02
     vertex -3.183566e+02  6.384153e+02 -3.294452e+02
     vertex -3.178999e+02  6.394193e+02 -3.292468e+02
   endloop
 endfacet
 facet normal  1.305970e-01  1.347501e-01 -9.822356e-01
   outer loop
     vertex -3.171333e+02  6.381752e+02 -3.293155e+02
     vertex -3.178999e+02  6.394193e+02 -3.292468e+02
     vertex -3.166744e+02  6.391582e+02 -3.291196e+02
   endloop
 endfacet
 facet normal  1.305970e-01  1.347501e-01 -9.822356e-01
   outer loop
     vertex -3.011463e+02  6.535786e+02 -3.250767e+02
     vertex -3.023751e+02  6.543835e+02 -3.251297e+02
     vertex -3.013543e+02  6.548036e+02 -3.249363e+02
   endloop
 endfacet
 facet normal  1.305970e-01  1.347501e-01 -9.822356e-01
   outer loop
     vertex -3.011463e+02  6.535786e+02 -3.250767e+02
     vertex -3.021464e+02  6.531559e+02 -3.252677e+02
     vertex -3.023751e+02  6.543835e+02 -3.251297e+02
   endloop
 endfacet
 facet normal  1.305970e-01  1.347501e-01 -9.822356e-01
   outer loop
     vertex -3.175561e+02  6.371756e+02 -3.295088e+02
     vertex -3.183566e+02  6.384153e+02 -3.294452e+02
     vertex -3.171333e+02  6.381752e+02 -3.293155e+02
   endloop
 endfacet
 facet normal  1.305970e-01  1.347501e-01 -9.822356e-01
   outer loop
     vertex -3.175561e+02  6.371756e+02 -3.295088e+02
     vertex -3.187772e+02  6.373952e+02 -3.296411e+02
     vertex -3.183566e+02  6.384153e+02 -3.294452e+02
   endloop
 endfacet
 facet normal  1.305970e-01  1.347501e-01 -9.822356e-01
   outer loop
     vertex -3.001310e+02  6.539647e+02 -3.248888e+02
     vertex -3.013543e+02  6.548036e+02 -3.249363e+02
     vertex -3.003187e+02  6.551872e+02 -3.247460e+02
   endloop
 endfacet
 facet normal  1.305970e-01  1.347501e-01 -9.822356e-01
   outer loop
     vertex -3.001310e+02  6.539647e+02 -3.248888e+02
     vertex -3.011463e+02  6.535786e+02 -3.250767e+02
     vertex -3.013543e+02  6.548036e+02 -3.249363e+02
   endloop
 endfacet
 facet normal  1.305970e-01  1.347501e-01 -9.822356e-01
   outer loop
     vertex -3.179423e+02  6.361608e+02 -3.296994e+02
     vertex -3.187772e+02  6.373952e+02 -3.296411e+02
     vertex -3.175561e+02  6.371756e+02 -3.295088e+02
   endloop
 endfacet
 facet normal  1.305970e-01  1.347501e-01 -9.822356e-01
   outer loop
     vertex -3.179423e+02  6.361608e+02 -3.296994e+02
     vertex -3.191614e+02  6.363602e+02 -3.298341e+02
     vertex -3.187772e+02  6.373952e+02 -3.296411e+02
   endloop
 endfacet
 facet normal  1.305970e-01  1.347501e-01 -9.822356e-01
   outer loop
     vertex -2.991017e+02  6.543136e+02 -3.247040e+02
     vertex -3.003187e+02  6.551872e+02 -3.247460e+02
     vertex -2.992695e+02  6.555338e+02 -3.245590e+02
   endloop
 endfacet
 facet normal  1.305970e-01  1.347501e-01 -9.822356e-01
   outer loop
     vertex -2.991017e+02  6.543136e+02 -3.247040e+02
     vertex -3.001310e+02  6.539647e+02 -3.248888e+02
     vertex -3.003187e+02  6.551872e+02 -3.247460e+02
   endloop
 endfacet
 facet normal  1.305970e-01  1.347501e-01 -9.822356e-01
   outer loop
     vertex -3.182913e+02  6.351320e+02 -3.298869e+02
     vertex -3.195084e+02  6.353117e+02 -3.300241e+02
     vertex -3.191614e+02  6.363602e+02 -3.298341e+02
   endloop
 endfacet
 facet normal  1.305970e-01  1.347501e-01 -9.822356e-01
   outer loop
     vertex -3.182913e+02  6.351320e+02 -3.298869e+02
     vertex -3.191614e+02  6.363602e+02 -3.298341e+02
     vertex -3.179423e+02  6.361608e+02 -3.296994e+02
   endloop
 endfacet
 facet normal  1.305970e-01  1.347501e-01 -9.822356e-01
   outer loop
     vertex -2.980598e+02  6.546250e+02 -3.245228e+02
     vertex -2.992695e+02  6.555338e+02 -3.245590e+02
     vertex -2.982081e+02  6.558430e+02 -3.243754e+02
   endloop
 endfacet
 facet normal  1.305970e-01  1.347501e-01 -9.822356e-01
   outer loop
     vertex -2.980598e+02  6.546250e+02 -3.245228e+02
     vertex -2.991017e+02  6.543136e+02 -3.247040e+02
     vertex -2.992695e+02  6.555338e+02 -3.245590e+02
   endloop
 endfacet
 facet normal  1.305970e-01  1.347501e-01 -9.822356e-01
   outer loop
     vertex -3.186026e+02  6.340907e+02 -3.300712e+02
     vertex -3.198180e+02  6.342510e+02 -3.302108e+02
     vertex -3.195084e+02  6.353117e+02 -3.300241e+02
   endloop
 endfacet
 facet normal  1.305970e-01  1.347501e-01 -9.822356e-01
   outer loop
     vertex -3.186026e+02  6.340907e+02 -3.300712e+02
     vertex -3.195084e+02  6.353117e+02 -3.300241e+02
     vertex -3.182913e+02  6.351320e+02 -3.298869e+02
   endloop
 endfacet
 facet normal  1.305970e-01  1.347501e-01 -9.822356e-01
   outer loop
     vertex -2.970066e+02  6.548983e+02 -3.243453e+02
     vertex -2.982081e+02  6.558430e+02 -3.243754e+02
     vertex -2.971357e+02  6.561143e+02 -3.241956e+02
   endloop
 endfacet
 facet normal  1.305970e-01  1.347501e-01 -9.822356e-01
   outer loop
     vertex -2.970066e+02  6.548983e+02 -3.243453e+02
     vertex -2.980598e+02  6.546250e+02 -3.245228e+02
     vertex -2.982081e+02  6.558430e+02 -3.243754e+02
   endloop
 endfacet
 facet normal  1.305970e-01  1.347501e-01 -9.822356e-01
   outer loop
     vertex -3.188760e+02  6.330381e+02 -3.302519e+02
     vertex -3.200898e+02  6.331793e+02 -3.303940e+02
     vertex -3.198180e+02  6.342510e+02 -3.302108e+02
   endloop
 endfacet
 facet normal  1.305970e-01  1.347501e-01 -9.822356e-01
   outer loop
     vertex -3.188760e+02  6.330381e+02 -3.302519e+02
     vertex -3.198180e+02  6.342510e+02 -3.302108e+02
     vertex -3.186026e+02  6.340907e+02 -3.300712e+02
   endloop
 endfacet
 facet normal  1.305970e-01  1.347501e-01 -9.822356e-01
   outer loop
     vertex -2.959436e+02  6.551333e+02 -3.241717e+02
     vertex -2.971357e+02  6.561143e+02 -3.241956e+02
     vertex -2.960537e+02  6.563475e+02 -3.240198e+02
   endloop
 endfacet
 facet normal  1.305970e-01  1.347501e-01 -9.822356e-01
   outer loop
     vertex -2.959436e+02  6.551333e+02 -3.241717e+02
     vertex -2.970066e+02  6.548983e+02 -3.243453e+02
     vertex -2.971357e+02  6.561143e+02 -3.241956e+02
   endloop
 endfacet
 facet normal  1.305970e-01  1.347501e-01 -9.822356e-01
   outer loop
     vertex -3.191109e+02  6.319757e+02 -3.304289e+02
     vertex -3.203233e+02  6.320980e+02 -3.305734e+02
     vertex -3.200898e+02  6.331793e+02 -3.303940e+02
   endloop
 endfacet
 facet normal  1.305970e-01  1.347501e-01 -9.822356e-01
   outer loop
     vertex -3.191109e+02  6.319757e+02 -3.304289e+02
     vertex -3.200898e+02  6.331793e+02 -3.303940e+02
     vertex -3.188760e+02  6.330381e+02 -3.302519e+02
   endloop
 endfacet
 facet normal  1.305970e-01  1.347501e-01 -9.822356e-01
   outer loop
     vertex -2.948722e+02  6.553296e+02 -3.240023e+02
     vertex -2.960537e+02  6.563475e+02 -3.240198e+02
     vertex -2.949635e+02  6.565421e+02 -3.238481e+02
   endloop
 endfacet
 facet normal  1.305970e-01  1.347501e-01 -9.822356e-01
   outer loop
     vertex -2.948722e+02  6.553296e+02 -3.240023e+02
     vertex -2.959436e+02  6.551333e+02 -3.241717e+02
     vertex -2.960537e+02  6.563475e+02 -3.240198e+02
   endloop
 endfacet
 facet normal  1.305970e-01  1.347501e-01 -9.822356e-01
   outer loop
     vertex -3.193072e+02  6.309047e+02 -3.306020e+02
     vertex -3.205184e+02  6.310085e+02 -3.307488e+02
     vertex -3.203233e+02  6.320980e+02 -3.305734e+02
   endloop
 endfacet
 facet normal  1.305970e-01  1.347501e-01 -9.822356e-01
   outer loop
     vertex -3.193072e+02  6.309047e+02 -3.306020e+02
     vertex -3.203233e+02  6.320980e+02 -3.305734e+02
     vertex -3.191109e+02  6.319757e+02 -3.304289e+02
   endloop
 endfacet
 facet normal  1.305970e-01  1.347501e-01 -9.822356e-01
   outer loop
     vertex -2.937936e+02  6.554870e+02 -3.238373e+02
     vertex -2.949635e+02  6.565421e+02 -3.238481e+02
     vertex -2.938664e+02  6.566981e+02 -3.236809e+02
   endloop
 endfacet
 facet normal  1.305970e-01  1.347501e-01 -9.822356e-01
   outer loop
     vertex -2.937936e+02  6.554870e+02 -3.238373e+02
     vertex -2.948722e+02  6.553296e+02 -3.240023e+02
     vertex -2.949635e+02  6.565421e+02 -3.238481e+02
   endloop
 endfacet
 facet normal  1.305970e-01  1.347501e-01 -9.822356e-01
   outer loop
     vertex -3.194645e+02  6.298267e+02 -3.307708e+02
     vertex -3.206748e+02  6.299120e+02 -3.309200e+02
     vertex -3.205184e+02  6.310085e+02 -3.307488e+02
   endloop
 endfacet
 facet normal  1.305970e-01  1.347501e-01 -9.822356e-01
   outer loop
     vertex -3.194645e+02  6.298267e+02 -3.307708e+02
     vertex -3.205184e+02  6.310085e+02 -3.307488e+02
     vertex -3.193072e+02  6.309047e+02 -3.306020e+02
   endloop
 endfacet
 facet normal  1.305970e-01  1.347501e-01 -9.822356e-01
   outer loop
     vertex -2.927093e+02  6.556052e+02 -3.236769e+02
     vertex -2.938664e+02  6.566981e+02 -3.236809e+02
     vertex -2.927638e+02  6.568152e+02 -3.235182e+02
   endloop
 endfacet
 facet normal  1.305970e-01  1.347501e-01 -9.822356e-01
   outer loop
     vertex -2.927093e+02  6.556052e+02 -3.236769e+02
     vertex -2.937936e+02  6.554870e+02 -3.238373e+02
     vertex -2.938664e+02  6.566981e+02 -3.236809e+02
   endloop
 endfacet
 facet normal  1.305970e-01  1.347501e-01 -9.822356e-01
   outer loop
     vertex -3.195827e+02  6.287431e+02 -3.309351e+02
     vertex -3.207922e+02  6.288101e+02 -3.310868e+02
     vertex -3.206748e+02  6.299120e+02 -3.309200e+02
   endloop
 endfacet
 facet normal  1.305970e-01  1.347501e-01 -9.822356e-01
   outer loop
     vertex -3.195827e+02  6.287431e+02 -3.309351e+02
     vertex -3.206748e+02  6.299120e+02 -3.309200e+02
     vertex -3.194645e+02  6.298267e+02 -3.307708e+02
   endloop
 endfacet
 facet normal  1.305970e-01  1.347501e-01 -9.822356e-01
   outer loop
     vertex -2.916208e+02  6.556842e+02 -3.235214e+02
     vertex -2.927638e+02  6.568152e+02 -3.235182e+02
     vertex -2.916571e+02  6.568932e+02 -3.233603e+02
   endloop
 endfacet
 facet normal  1.305970e-01  1.347501e-01 -9.822356e-01
   outer loop
     vertex -2.916208e+02  6.556842e+02 -3.235214e+02
     vertex -2.927093e+02  6.556052e+02 -3.236769e+02
     vertex -2.927638e+02  6.568152e+02 -3.235182e+02
   endloop
 endfacet
 facet normal  1.305970e-01  1.347501e-01 -9.822356e-01
   outer loop
     vertex -3.196616e+02  6.276551e+02 -3.310949e+02
     vertex -3.207922e+02  6.288101e+02 -3.310868e+02
     vertex -3.195827e+02  6.287431e+02 -3.309351e+02
   endloop
 endfacet
 facet normal  1.305970e-01  1.347501e-01 -9.822356e-01
   outer loop
     vertex -3.196616e+02  6.276551e+02 -3.310949e+02
     vertex -3.208706e+02  6.277040e+02 -3.312489e+02
     vertex -3.207922e+02  6.288101e+02 -3.310868e+02
   endloop
 endfacet
 facet normal  1.305970e-01  1.347501e-01 -9.822356e-01
   outer loop
     vertex -2.905294e+02  6.557238e+02 -3.233708e+02
     vertex -2.916571e+02  6.568932e+02 -3.233603e+02
     vertex -2.905475e+02  6.569321e+02 -3.232075e+02
   endloop
 endfacet
 facet normal  1.305970e-01  1.347501e-01 -9.822356e-01
   outer loop
     vertex -2.905294e+02  6.557238e+02 -3.233708e+02
     vertex -2.916208e+02  6.556842e+02 -3.235214e+02
     vertex -2.916571e+02  6.568932e+02 -3.233603e+02
   endloop
 endfacet
 facet normal  1.305970e-01  1.347501e-01 -9.822356e-01
   outer loop
     vertex -3.197010e+02  6.265644e+02 -3.312498e+02
     vertex -3.208706e+02  6.277040e+02 -3.312489e+02
     vertex -3.196616e+02  6.276551e+02 -3.310949e+02
   endloop
 endfacet
 facet normal  1.305970e-01  1.347501e-01 -9.822356e-01
   outer loop
     vertex -3.197010e+02  6.265644e+02 -3.312498e+02
     vertex -3.209098e+02  6.265951e+02 -3.314063e+02
     vertex -3.208706e+02  6.277040e+02 -3.312489e+02
   endloop
 endfacet
 facet normal  1.305970e-01  1.347501e-01 -9.822356e-01
   outer loop
     vertex -2.894366e+02  6.557239e+02 -3.232255e+02
     vertex -2.905475e+02  6.569321e+02 -3.232075e+02
     vertex -2.894366e+02  6.569318e+02 -3.230598e+02
   endloop
 endfacet
 facet normal  1.305970e-01  1.347501e-01 -9.822356e-01
   outer loop
     vertex -2.894366e+02  6.557239e+02 -3.232255e+02
     vertex -2.905294e+02  6.557238e+02 -3.233708e+02
     vertex -2.905475e+02  6.569321e+02 -3.232075e+02
   endloop
 endfacet
 facet normal  1.305970e-01  1.347501e-01 -9.822356e-01
   outer loop
     vertex -2.894366e+02  6.557239e+02 -3.232255e+02
     vertex -2.894366e+02  6.569318e+02 -3.230598e+02
     vertex -2.883257e+02  6.568924e+02 -3.229175e+02
   endloop
 endfacet
 facet normal  1.305970e-01  1.347501e-01 -9.822356e-01
   outer loop
     vertex -3.197010e+02  6.254722e+02 -3.313996e+02
     vertex -3.209098e+02  6.265951e+02 -3.314063e+02
     vertex -3.197010e+02  6.265644e+02 -3.312498e+02
   endloop
 endfacet
 facet normal  1.305970e-01  1.347501e-01 -9.822356e-01
   outer loop
     vertex -3.197010e+02  6.254722e+02 -3.313996e+02
     vertex -3.209098e+02  6.254848e+02 -3.315586e+02
     vertex -3.209098e+02  6.265951e+02 -3.314063e+02
   endloop
 endfacet
 facet normal  1.305970e-01  1.347501e-01 -9.822356e-01
   outer loop
     vertex -3.197010e+02  6.254722e+02 -3.313996e+02
     vertex -3.208706e+02  6.243745e+02 -3.317057e+02
     vertex -3.209098e+02  6.254848e+02 -3.315586e+02
   endloop
 endfacet
 facet normal  1.305970e-01  1.347501e-01 -9.822356e-01
   outer loop
     vertex -2.883438e+02  6.556847e+02 -3.230856e+02
     vertex -2.894366e+02  6.557239e+02 -3.232255e+02
     vertex -2.883257e+02  6.568924e+02 -3.229175e+02
   endloop
 endfacet
 facet normal  1.305970e-01  1.347501e-01 -9.822356e-01
   outer loop
     vertex -2.883438e+02  6.556847e+02 -3.230856e+02
     vertex -2.883257e+02  6.568924e+02 -3.229175e+02
     vertex -2.872162e+02  6.568137e+02 -3.227808e+02
   endloop
 endfacet
 facet normal  1.305970e-01  1.347501e-01 -9.822356e-01
   outer loop
     vertex -3.196616e+02  6.243800e+02 -3.315442e+02
     vertex -3.208706e+02  6.243745e+02 -3.317057e+02
     vertex -3.197010e+02  6.254722e+02 -3.313996e+02
   endloop
 endfacet
 facet normal  1.305970e-01  1.347501e-01 -9.822356e-01
   outer loop
     vertex -3.207922e+02  6.232656e+02 -3.318474e+02
     vertex -3.208706e+02  6.243745e+02 -3.317057e+02
     vertex -3.196616e+02  6.243800e+02 -3.315442e+02
   endloop
 endfacet
 facet normal  1.305970e-01  1.347501e-01 -9.822356e-01
   outer loop
     vertex -2.872525e+02  6.556060e+02 -3.229513e+02
     vertex -2.883438e+02  6.556847e+02 -3.230856e+02
     vertex -2.872162e+02  6.568137e+02 -3.227808e+02
   endloop
 endfacet
 facet normal  1.305970e-01  1.347501e-01 -9.822356e-01
   outer loop
     vertex -2.861094e+02  6.566961e+02 -3.226498e+02
     vertex -2.872525e+02  6.556060e+02 -3.229513e+02
     vertex -2.872162e+02  6.568137e+02 -3.227808e+02
   endloop
 endfacet
 facet normal  1.305970e-01  1.347501e-01 -9.822356e-01
   outer loop
     vertex -3.195827e+02  6.232893e+02 -3.316833e+02
     vertex -3.207922e+02  6.232656e+02 -3.318474e+02
     vertex -3.196616e+02  6.243800e+02 -3.315442e+02
   endloop
 endfacet
 facet normal  1.305970e-01  1.347501e-01 -9.822356e-01
   outer loop
     vertex -3.206748e+02  6.221594e+02 -3.319835e+02
     vertex -3.207922e+02  6.232656e+02 -3.318474e+02
     vertex -3.195827e+02  6.232893e+02 -3.316833e+02
   endloop
 endfacet
 facet normal  1.305970e-01  1.347501e-01 -9.822356e-01
   outer loop
     vertex -2.861639e+02  6.554880e+02 -3.228227e+02
     vertex -2.872525e+02  6.556060e+02 -3.229513e+02
     vertex -2.861094e+02  6.566961e+02 -3.226498e+02
   endloop
 endfacet
 facet normal  1.305970e-01  1.347501e-01 -9.822356e-01
   outer loop
     vertex -2.850068e+02  6.565395e+02 -3.225247e+02
     vertex -2.861639e+02  6.554880e+02 -3.228227e+02
     vertex -2.861094e+02  6.566961e+02 -3.226498e+02
   endloop
 endfacet
 facet normal  1.305970e-01  1.347501e-01 -9.822356e-01
   outer loop
     vertex -3.194645e+02  6.222014e+02 -3.318169e+02
     vertex -3.206748e+02  6.221594e+02 -3.319835e+02
     vertex -3.195827e+02  6.232893e+02 -3.316833e+02
   endloop
 endfacet
 facet normal  1.305970e-01  1.347501e-01 -9.822356e-01
   outer loop
     vertex -3.205184e+02  6.210574e+02 -3.321139e+02
     vertex -3.206748e+02  6.221594e+02 -3.319835e+02
     vertex -3.194645e+02  6.222014e+02 -3.318169e+02
   endloop
 endfacet
 facet normal  1.305970e-01  1.347501e-01 -9.822356e-01
   outer loop
     vertex -2.850797e+02  6.553310e+02 -3.227001e+02
     vertex -2.861639e+02  6.554880e+02 -3.228227e+02
     vertex -2.850068e+02  6.565395e+02 -3.225247e+02
   endloop
 endfacet
 facet normal  1.305970e-01  1.347501e-01 -9.822356e-01
   outer loop
     vertex -2.839097e+02  6.563442e+02 -3.224056e+02
     vertex -2.850797e+02  6.553310e+02 -3.227001e+02
     vertex -2.850068e+02  6.565395e+02 -3.225247e+02
   endloop
 endfacet
 facet normal  1.305970e-01  1.347501e-01 -9.822356e-01
   outer loop
     vertex -3.193072e+02  6.211177e+02 -3.319446e+02
     vertex -3.205184e+02  6.210574e+02 -3.321139e+02
     vertex -3.194645e+02  6.222014e+02 -3.318169e+02
   endloop
 endfacet
 facet normal  1.305970e-01  1.347501e-01 -9.822356e-01
   outer loop
     vertex -3.203233e+02  6.199609e+02 -3.322384e+02
     vertex -3.205184e+02  6.210574e+02 -3.321139e+02
     vertex -3.193072e+02  6.211177e+02 -3.319446e+02
   endloop
 endfacet
 facet normal  1.305970e-01  1.347501e-01 -9.822356e-01
   outer loop
     vertex -2.840011e+02  6.551350e+02 -3.225836e+02
     vertex -2.850797e+02  6.553310e+02 -3.227001e+02
     vertex -2.839097e+02  6.563442e+02 -3.224056e+02
   endloop
 endfacet
 facet normal  1.305970e-01  1.347501e-01 -9.822356e-01
   outer loop
     vertex -2.828195e+02  6.561105e+02 -3.222927e+02
     vertex -2.840011e+02  6.551350e+02 -3.225836e+02
     vertex -2.839097e+02  6.563442e+02 -3.224056e+02
   endloop
 endfacet
 facet normal  1.305970e-01  1.347501e-01 -9.822356e-01
   outer loop
     vertex -3.191109e+02  6.200398e+02 -3.320664e+02
     vertex -3.203233e+02  6.199609e+02 -3.322384e+02
     vertex -3.193072e+02  6.211177e+02 -3.319446e+02
   endloop
 endfacet
 facet normal  1.305970e-01  1.347501e-01 -9.822356e-01
   outer loop
     vertex -3.200898e+02  6.188712e+02 -3.323568e+02
     vertex -3.203233e+02  6.199609e+02 -3.322384e+02
     vertex -3.191109e+02  6.200398e+02 -3.320664e+02
   endloop
 endfacet
 facet normal  1.305970e-01  1.347501e-01 -9.822356e-01
   outer loop
     vertex -2.829296e+02  6.549003e+02 -3.224733e+02
     vertex -2.840011e+02  6.551350e+02 -3.225836e+02
     vertex -2.828195e+02  6.561105e+02 -3.222927e+02
   endloop
 endfacet
 facet normal  1.305970e-01  1.347501e-01 -9.822356e-01
   outer loop
     vertex -2.817376e+02  6.558386e+02 -3.221861e+02
     vertex -2.829296e+02  6.549003e+02 -3.224733e+02
     vertex -2.828195e+02  6.561105e+02 -3.222927e+02
   endloop
 endfacet
 facet normal  1.305970e-01  1.347501e-01 -9.822356e-01
   outer loop
     vertex -3.188760e+02  6.189689e+02 -3.321821e+02
     vertex -3.200898e+02  6.188712e+02 -3.323568e+02
     vertex -3.191109e+02  6.200398e+02 -3.320664e+02
   endloop
 endfacet
 facet normal  1.305970e-01  1.347501e-01 -9.822356e-01
   outer loop
     vertex -3.198180e+02  6.177898e+02 -3.324691e+02
     vertex -3.200898e+02  6.188712e+02 -3.323568e+02
     vertex -3.188760e+02  6.189689e+02 -3.321821e+02
   endloop
 endfacet
 facet normal  1.305970e-01  1.347501e-01 -9.822356e-01
   outer loop
     vertex -2.818666e+02  6.546272e+02 -3.223695e+02
     vertex -2.829296e+02  6.549003e+02 -3.224733e+02
     vertex -2.817376e+02  6.558386e+02 -3.221861e+02
   endloop
 endfacet
 facet normal  1.305970e-01  1.347501e-01 -9.822356e-01
   outer loop
     vertex -2.806652e+02  6.555289e+02 -3.220860e+02
     vertex -2.818666e+02  6.546272e+02 -3.223695e+02
     vertex -2.817376e+02  6.558386e+02 -3.221861e+02
   endloop
 endfacet
 facet normal  1.305970e-01  1.347501e-01 -9.822356e-01
   outer loop
     vertex -3.186026e+02  6.179066e+02 -3.322915e+02
     vertex -3.198180e+02  6.177898e+02 -3.324691e+02
     vertex -3.188760e+02  6.189689e+02 -3.321821e+02
   endloop
 endfacet
 facet normal  1.305970e-01  1.347501e-01 -9.822356e-01
   outer loop
     vertex -3.195084e+02  6.167179e+02 -3.325750e+02
     vertex -3.198180e+02  6.177898e+02 -3.324691e+02
     vertex -3.186026e+02  6.179066e+02 -3.322915e+02
   endloop
 endfacet
 facet normal  1.305970e-01  1.347501e-01 -9.822356e-01
   outer loop
     vertex -2.808135e+02  6.543162e+02 -3.222721e+02
     vertex -2.818666e+02  6.546272e+02 -3.223695e+02
     vertex -2.806652e+02  6.555289e+02 -3.220860e+02
   endloop
 endfacet
 facet normal  1.305970e-01  1.347501e-01 -9.822356e-01
   outer loop
     vertex -2.796038e+02  6.551818e+02 -3.219925e+02
     vertex -2.808135e+02  6.543162e+02 -3.222721e+02
     vertex -2.806652e+02  6.555289e+02 -3.220860e+02
   endloop
 endfacet
 facet normal  1.305970e-01  1.347501e-01 -9.822356e-01
   outer loop
     vertex -3.182913e+02  6.168541e+02 -3.323944e+02
     vertex -3.195084e+02  6.167179e+02 -3.325750e+02
     vertex -3.186026e+02  6.179066e+02 -3.322915e+02
   endloop
 endfacet
 facet normal  1.305970e-01  1.347501e-01 -9.822356e-01
   outer loop
     vertex -3.191614e+02  6.156570e+02 -3.326744e+02
     vertex -3.195084e+02  6.167179e+02 -3.325750e+02
     vertex -3.182913e+02  6.168541e+02 -3.323944e+02
   endloop
 endfacet
 facet normal  1.305970e-01  1.347501e-01 -9.822356e-01
   outer loop
     vertex -2.797716e+02  6.539676e+02 -3.221814e+02
     vertex -2.808135e+02  6.543162e+02 -3.222721e+02
     vertex -2.796038e+02  6.551818e+02 -3.219925e+02
   endloop
 endfacet
 facet normal  1.305970e-01  1.347501e-01 -9.822356e-01
   outer loop
     vertex -2.785546e+02  6.547976e+02 -3.219057e+02
     vertex -2.797716e+02  6.539676e+02 -3.221814e+02
     vertex -2.796038e+02  6.551818e+02 -3.219925e+02
   endloop
 endfacet
 facet normal  1.305970e-01  1.347501e-01 -9.822356e-01
   outer loop
     vertex -3.179423e+02  6.158128e+02 -3.324909e+02
     vertex -3.191614e+02  6.156570e+02 -3.326744e+02
     vertex -3.182913e+02  6.168541e+02 -3.323944e+02
   endloop
 endfacet
 facet normal  1.305970e-01  1.347501e-01 -9.822356e-01
   outer loop
     vertex -3.187772e+02  6.146083e+02 -3.327671e+02
     vertex -3.191614e+02  6.156570e+02 -3.326744e+02
     vertex -3.179423e+02  6.158128e+02 -3.324909e+02
   endloop
 endfacet
 facet normal  1.305970e-01  1.347501e-01 -9.822356e-01
   outer loop
     vertex -2.787423e+02  6.535818e+02 -3.220975e+02
     vertex -2.797716e+02  6.539676e+02 -3.221814e+02
     vertex -2.785546e+02  6.547976e+02 -3.219057e+02
   endloop
 endfacet
 facet normal  1.305970e-01  1.347501e-01 -9.822356e-01
   outer loop
     vertex -2.775189e+02  6.543769e+02 -3.218257e+02
     vertex -2.787423e+02  6.535818e+02 -3.220975e+02
     vertex -2.785546e+02  6.547976e+02 -3.219057e+02
   endloop
 endfacet
 facet normal  1.305970e-01  1.347501e-01 -9.822356e-01
   outer loop
     vertex -3.175561e+02  6.147841e+02 -3.325807e+02
     vertex -3.187772e+02  6.146083e+02 -3.327671e+02
     vertex -3.179423e+02  6.158128e+02 -3.324909e+02
   endloop
 endfacet
 facet normal  1.305970e-01  1.347501e-01 -9.822356e-01
   outer loop
     vertex -3.183566e+02  6.135731e+02 -3.328532e+02
     vertex -3.187772e+02  6.146083e+02 -3.327671e+02
     vertex -3.175561e+02  6.147841e+02 -3.325807e+02
   endloop
 endfacet
 facet normal  1.305970e-01  1.347501e-01 -9.822356e-01
   outer loop
     vertex -2.777270e+02  6.531593e+02 -3.220204e+02
     vertex -2.787423e+02  6.535818e+02 -3.220975e+02
     vertex -2.775189e+02  6.543769e+02 -3.218257e+02
   endloop
 endfacet
 facet normal  1.305970e-01  1.347501e-01 -9.822356e-01
   outer loop
     vertex -2.764981e+02  6.539202e+02 -3.217527e+02
     vertex -2.777270e+02  6.531593e+02 -3.220204e+02
     vertex -2.775189e+02  6.543769e+02 -3.218257e+02
   endloop
 endfacet
 facet normal  1.305970e-01  1.347501e-01 -9.822356e-01
   outer loop
     vertex -3.171333e+02  6.137694e+02 -3.326637e+02
     vertex -3.183566e+02  6.135731e+02 -3.328532e+02
     vertex -3.175561e+02  6.147841e+02 -3.325807e+02
   endloop
 endfacet
 facet normal  1.305970e-01  1.347501e-01 -9.822356e-01
   outer loop
     vertex -3.178999e+02  6.125528e+02 -3.329325e+02
     vertex -3.183566e+02  6.135731e+02 -3.328532e+02
     vertex -3.171333e+02  6.137694e+02 -3.326637e+02
   endloop
 endfacet
 facet normal  1.305970e-01  1.347501e-01 -9.822356e-01
   outer loop
     vertex -2.767269e+02  6.527008e+02 -3.219504e+02
     vertex -2.777270e+02  6.531593e+02 -3.220204e+02
     vertex -2.764981e+02  6.539202e+02 -3.217527e+02
   endloop
 endfacet
 facet normal  1.305970e-01  1.347501e-01 -9.822356e-01
   outer loop
     vertex -2.754935e+02  6.534281e+02 -3.216866e+02
     vertex -2.767269e+02  6.527008e+02 -3.219504e+02
     vertex -2.764981e+02  6.539202e+02 -3.217527e+02
   endloop
 endfacet
 facet normal  1.305970e-01  1.347501e-01 -9.822356e-01
   outer loop
     vertex -3.166744e+02  6.127700e+02 -3.327398e+02
     vertex -3.178999e+02  6.125528e+02 -3.329325e+02
     vertex -3.171333e+02  6.137694e+02 -3.326637e+02
   endloop
 endfacet
 facet normal  1.305970e-01  1.347501e-01 -9.822356e-01
   outer loop
     vertex -3.174077e+02  6.115486e+02 -3.330048e+02
     vertex -3.178999e+02  6.125528e+02 -3.329325e+02
     vertex -3.166744e+02  6.127700e+02 -3.327398e+02
   endloop
 endfacet
 facet normal  1.305970e-01  1.347501e-01 -9.822356e-01
   outer loop
     vertex -2.757434e+02  6.522068e+02 -3.218874e+02
     vertex -2.767269e+02  6.527008e+02 -3.219504e+02
     vertex -2.754935e+02  6.534281e+02 -3.216866e+02
   endloop
 endfacet
 facet normal  1.305970e-01  1.347501e-01 -9.822356e-01
   outer loop
     vertex -2.745062e+02  6.529011e+02 -3.216276e+02
     vertex -2.757434e+02  6.522068e+02 -3.218874e+02
     vertex -2.754935e+02  6.534281e+02 -3.216866e+02
   endloop
 endfacet
 facet normal  1.305970e-01  1.347501e-01 -9.822356e-01
   outer loop
     vertex -3.161799e+02  6.117871e+02 -3.328089e+02
     vertex -3.174077e+02  6.115486e+02 -3.330048e+02
     vertex -3.166744e+02  6.127700e+02 -3.327398e+02
   endloop
 endfacet
 facet normal  1.305970e-01  1.347501e-01 -9.822356e-01
   outer loop
     vertex -3.168807e+02  6.105617e+02 -3.330701e+02
     vertex -3.174077e+02  6.115486e+02 -3.330048e+02
     vertex -3.161799e+02  6.117871e+02 -3.328089e+02
   endloop
 endfacet
 facet normal  1.305970e-01  1.347501e-01 -9.822356e-01
   outer loop
     vertex -2.747777e+02  6.516779e+02 -3.218315e+02
     vertex -2.757434e+02  6.522068e+02 -3.218874e+02
     vertex -2.745062e+02  6.529011e+02 -3.216276e+02
   endloop
 endfacet
 facet normal  1.305970e-01  1.347501e-01 -9.822356e-01
   outer loop
     vertex -2.735375e+02  6.523400e+02 -3.215758e+02
     vertex -2.747777e+02  6.516779e+02 -3.218315e+02
     vertex -2.745062e+02  6.529011e+02 -3.216276e+02
   endloop
 endfacet
 facet normal  1.305970e-01  1.347501e-01 -9.822356e-01
   outer loop
     vertex -3.156506e+02  6.108220e+02 -3.328709e+02
     vertex -3.168807e+02  6.105617e+02 -3.330701e+02
     vertex -3.161799e+02  6.117871e+02 -3.328089e+02
   endloop
 endfacet
 facet normal  1.305970e-01  1.347501e-01 -9.822356e-01
   outer loop
     vertex -3.163196e+02  6.095934e+02 -3.331284e+02
     vertex -3.168807e+02  6.105617e+02 -3.330701e+02
     vertex -3.156506e+02  6.108220e+02 -3.328709e+02
   endloop
 endfacet
 facet normal  1.305970e-01  1.347501e-01 -9.822356e-01
   outer loop
     vertex -2.738312e+02  6.511148e+02 -3.217829e+02
     vertex -2.747777e+02  6.516779e+02 -3.218315e+02
     vertex -2.735375e+02  6.523400e+02 -3.215758e+02
   endloop
 endfacet
 facet normal  1.305970e-01  1.347501e-01 -9.822356e-01
   outer loop
     vertex -2.725886e+02  6.517454e+02 -3.215312e+02
     vertex -2.738312e+02  6.511148e+02 -3.217829e+02
     vertex -2.735375e+02  6.523400e+02 -3.215758e+02
   endloop
 endfacet
 facet normal  1.305970e-01  1.347501e-01 -9.822356e-01
   outer loop
     vertex -3.150871e+02  6.098761e+02 -3.329257e+02
     vertex -3.163196e+02  6.095934e+02 -3.331284e+02
     vertex -3.156506e+02  6.108220e+02 -3.328709e+02
   endloop
 endfacet
 facet normal  1.305970e-01  1.347501e-01 -9.822356e-01
   outer loop
     vertex -3.157249e+02  6.086449e+02 -3.331794e+02
     vertex -3.163196e+02  6.095934e+02 -3.331284e+02
     vertex -3.150871e+02  6.098761e+02 -3.329257e+02
   endloop
 endfacet
 facet normal  1.305970e-01  1.347501e-01 -9.822356e-01
   outer loop
     vertex -2.729050e+02  6.505184e+02 -3.217416e+02
     vertex -2.738312e+02  6.511148e+02 -3.217829e+02
     vertex -2.725886e+02  6.517454e+02 -3.215312e+02
   endloop
 endfacet
 facet normal  1.305970e-01  1.347501e-01 -9.822356e-01
   outer loop
     vertex -2.716607e+02  6.511180e+02 -3.214939e+02
     vertex -2.729050e+02  6.505184e+02 -3.217416e+02
     vertex -2.725886e+02  6.517454e+02 -3.215312e+02
   endloop
 endfacet
 facet normal  1.305970e-01  1.347501e-01 -9.822356e-01
   outer loop
     vertex -3.144902e+02  6.089505e+02 -3.329733e+02
     vertex -3.157249e+02  6.086449e+02 -3.331794e+02
     vertex -3.150871e+02  6.098761e+02 -3.329257e+02
   endloop
 endfacet
 facet normal  1.305970e-01  1.347501e-01 -9.822356e-01
   outer loop
     vertex -3.150974e+02  6.077174e+02 -3.332232e+02
     vertex -3.157249e+02  6.086449e+02 -3.331794e+02
     vertex -3.144902e+02  6.089505e+02 -3.329733e+02
   endloop
 endfacet
 facet normal  1.305970e-01  1.347501e-01 -9.822356e-01
   outer loop
     vertex -2.720003e+02  6.498893e+02 -3.217076e+02
     vertex -2.729050e+02  6.505184e+02 -3.217416e+02
     vertex -2.716607e+02  6.511180e+02 -3.214939e+02
   endloop
 endfacet
 facet normal  1.305970e-01  1.347501e-01 -9.822356e-01
   outer loop
     vertex -2.707550e+02  6.504588e+02 -3.214639e+02
     vertex -2.720003e+02  6.498893e+02 -3.217076e+02
     vertex -2.716607e+02  6.511180e+02 -3.214939e+02
   endloop
 endfacet
 facet normal  1.305970e-01  1.347501e-01 -9.822356e-01
   outer loop
     vertex -3.138606e+02  6.080464e+02 -3.330136e+02
     vertex -3.150974e+02  6.077174e+02 -3.332232e+02
     vertex -3.144902e+02  6.089505e+02 -3.329733e+02
   endloop
 endfacet
 facet normal  1.305970e-01  1.347501e-01 -9.822356e-01
   outer loop
     vertex -3.144380e+02  6.068120e+02 -3.332598e+02
     vertex -3.150974e+02  6.077174e+02 -3.332232e+02
     vertex -3.138606e+02  6.080464e+02 -3.330136e+02
   endloop
 endfacet
 facet normal  1.305970e-01  1.347501e-01 -9.822356e-01
   outer loop
     vertex -2.711184e+02  6.492283e+02 -3.216811e+02
     vertex -2.720003e+02  6.498893e+02 -3.217076e+02
     vertex -2.707550e+02  6.504588e+02 -3.214639e+02
   endloop
 endfacet
 facet normal  1.305970e-01  1.347501e-01 -9.822356e-01
   outer loop
     vertex -2.698725e+02  6.497684e+02 -3.214413e+02
     vertex -2.711184e+02  6.492283e+02 -3.216811e+02
     vertex -2.707550e+02  6.504588e+02 -3.214639e+02
   endloop
 endfacet
 facet normal  1.305970e-01  1.347501e-01 -9.822356e-01
   outer loop
     vertex -3.131992e+02  6.071651e+02 -3.330466e+02
     vertex -3.144380e+02  6.068120e+02 -3.332598e+02
     vertex -3.138606e+02  6.080464e+02 -3.330136e+02
   endloop
 endfacet
 facet normal  1.305970e-01  1.347501e-01 -9.822356e-01
   outer loop
     vertex -3.137475e+02  6.059298e+02 -3.332890e+02
     vertex -3.144380e+02  6.068120e+02 -3.332598e+02
     vertex -3.131992e+02  6.071651e+02 -3.330466e+02
   endloop
 endfacet
 facet normal  1.305970e-01  1.347501e-01 -9.822356e-01
   outer loop
     vertex -2.702604e+02  6.485364e+02 -3.216619e+02
     vertex -2.711184e+02  6.492283e+02 -3.216811e+02
     vertex -2.698725e+02  6.497684e+02 -3.214413e+02
   endloop
 endfacet
 facet normal  1.305970e-01  1.347501e-01 -9.822356e-01
   outer loop
     vertex -2.690144e+02  6.490477e+02 -3.214261e+02
     vertex -2.702604e+02  6.485364e+02 -3.216619e+02
     vertex -2.698725e+02  6.497684e+02 -3.214413e+02
   endloop
 endfacet
 facet normal  1.305970e-01  1.347501e-01 -9.822356e-01
   outer loop
     vertex -3.125068e+02  6.063077e+02 -3.330722e+02
     vertex -3.137475e+02  6.059298e+02 -3.332890e+02
     vertex -3.131992e+02  6.071651e+02 -3.330466e+02
   endloop
 endfacet
 facet normal  1.305970e-01  1.347501e-01 -9.822356e-01
   outer loop
     vertex -3.130266e+02  6.050720e+02 -3.333108e+02
     vertex -3.137475e+02  6.059298e+02 -3.332890e+02
     vertex -3.125068e+02  6.063077e+02 -3.330722e+02
   endloop
 endfacet
 facet normal  1.305970e-01  1.347501e-01 -9.822356e-01
   outer loop
     vertex -2.694274e+02  6.478144e+02 -3.216502e+02
     vertex -2.702604e+02  6.485364e+02 -3.216619e+02
     vertex -2.690144e+02  6.490477e+02 -3.214261e+02
   endloop
 endfacet
 facet normal  1.305970e-01  1.347501e-01 -9.822356e-01
   outer loop
     vertex -2.681817e+02  6.482977e+02 -3.214183e+02
     vertex -2.694274e+02  6.478144e+02 -3.216502e+02
     vertex -2.690144e+02  6.490477e+02 -3.214261e+02
   endloop
 endfacet
 facet normal  1.305970e-01  1.347501e-01 -9.822356e-01
   outer loop
     vertex -3.117843e+02  6.054752e+02 -3.330903e+02
     vertex -3.130266e+02  6.050720e+02 -3.333108e+02
     vertex -3.125068e+02  6.063077e+02 -3.330722e+02
   endloop
 endfacet
 facet normal  1.305970e-01  1.347501e-01 -9.822356e-01
   outer loop
     vertex -3.122764e+02  6.042396e+02 -3.333253e+02
     vertex -3.130266e+02  6.050720e+02 -3.333108e+02
     vertex -3.117843e+02  6.054752e+02 -3.330903e+02
   endloop
 endfacet
 facet normal  1.305970e-01  1.347501e-01 -9.822356e-01
   outer loop
     vertex -2.686204e+02  6.470633e+02 -3.216459e+02
     vertex -2.694274e+02  6.478144e+02 -3.216502e+02
     vertex -2.681817e+02  6.482977e+02 -3.214183e+02
   endloop
 endfacet
 facet normal  1.305970e-01  1.347501e-01 -9.822356e-01
   outer loop
     vertex -2.673756e+02  6.475192e+02 -3.214179e+02
     vertex -2.686204e+02  6.470633e+02 -3.216459e+02
     vertex -2.681817e+02  6.482977e+02 -3.214183e+02
   endloop
 endfacet
 facet normal  1.305970e-01  1.347501e-01 -9.822356e-01
   outer loop
     vertex -3.110326e+02  6.046688e+02 -3.331010e+02
     vertex -3.122764e+02  6.042396e+02 -3.333253e+02
     vertex -3.117843e+02  6.054752e+02 -3.330903e+02
   endloop
 endfacet
 facet normal  1.305970e-01  1.347501e-01 -9.822356e-01
   outer loop
     vertex -2.678406e+02  6.462841e+02 -3.216492e+02
     vertex -2.686204e+02  6.470633e+02 -3.216459e+02
     vertex -2.673756e+02  6.475192e+02 -3.214179e+02
   endloop
 endfacet
 facet normal  1.305970e-01  1.347501e-01 -9.822356e-01
   outer loop
     vertex -3.114977e+02  6.034337e+02 -3.333323e+02
     vertex -3.122764e+02  6.042396e+02 -3.333253e+02
     vertex -3.110326e+02  6.046688e+02 -3.331010e+02
   endloop
 endfacet
 facet normal  1.305970e-01  1.347501e-01 -9.822356e-01
   outer loop
     vertex -3.102528e+02  6.038896e+02 -3.331042e+02
     vertex -3.114977e+02  6.034337e+02 -3.333323e+02
     vertex -3.110326e+02  6.046688e+02 -3.331010e+02
   endloop
 endfacet
 facet normal  1.305970e-01  1.347501e-01 -9.822356e-01
   outer loop
     vertex -2.665969e+02  6.467133e+02 -3.214249e+02
     vertex -2.678406e+02  6.462841e+02 -3.216492e+02
     vertex -2.673756e+02  6.475192e+02 -3.214179e+02
   endloop
 endfacet
 facet normal  1.305970e-01  1.347501e-01 -9.822356e-01
   outer loop
     vertex -2.670890e+02  6.454777e+02 -3.216599e+02
     vertex -2.678406e+02  6.462841e+02 -3.216492e+02
     vertex -2.665969e+02  6.467133e+02 -3.214249e+02
   endloop
 endfacet
 facet normal  1.305970e-01  1.347501e-01 -9.822356e-01
   outer loop
     vertex -3.106915e+02  6.026552e+02 -3.333319e+02
     vertex -3.114977e+02  6.034337e+02 -3.333323e+02
     vertex -3.102528e+02  6.038896e+02 -3.331042e+02
   endloop
 endfacet
 facet normal  1.305970e-01  1.347501e-01 -9.822356e-01
   outer loop
     vertex -3.094459e+02  6.031385e+02 -3.331000e+02
     vertex -3.106915e+02  6.026552e+02 -3.333319e+02
     vertex -3.102528e+02  6.038896e+02 -3.331042e+02
   endloop
 endfacet
 facet normal  1.305970e-01  1.347501e-01 -9.822356e-01
   outer loop
     vertex -2.658466e+02  6.458809e+02 -3.214394e+02
     vertex -2.670890e+02  6.454777e+02 -3.216599e+02
     vertex -2.665969e+02  6.467133e+02 -3.214249e+02
   endloop
 endfacet
 facet normal  1.305970e-01  1.347501e-01 -9.822356e-01
   outer loop
     vertex -2.663665e+02  6.446452e+02 -3.216780e+02
     vertex -2.670890e+02  6.454777e+02 -3.216599e+02
     vertex -2.658466e+02  6.458809e+02 -3.214394e+02
   endloop
 endfacet
 facet normal  1.305970e-01  1.347501e-01 -9.822356e-01
   outer loop
     vertex -3.098589e+02  6.019052e+02 -3.333241e+02
     vertex -3.106915e+02  6.026552e+02 -3.333319e+02
     vertex -3.094459e+02  6.031385e+02 -3.331000e+02
   endloop
 endfacet
 facet normal  1.305970e-01  1.347501e-01 -9.822356e-01
   outer loop
     vertex -3.086129e+02  6.024165e+02 -3.330883e+02
     vertex -3.098589e+02  6.019052e+02 -3.333241e+02
     vertex -3.094459e+02  6.031385e+02 -3.331000e+02
   endloop
 endfacet
 facet normal  1.305970e-01  1.347501e-01 -9.822356e-01
   outer loop
     vertex -2.651258e+02  6.450231e+02 -3.214612e+02
     vertex -2.663665e+02  6.446452e+02 -3.216780e+02
     vertex -2.658466e+02  6.458809e+02 -3.214394e+02
   endloop
 endfacet
 facet normal  1.305970e-01  1.347501e-01 -9.822356e-01
   outer loop
     vertex -2.656741e+02  6.437878e+02 -3.217036e+02
     vertex -2.663665e+02  6.446452e+02 -3.216780e+02
     vertex -2.651258e+02  6.450231e+02 -3.214612e+02
   endloop
 endfacet
 facet normal  1.305970e-01  1.347501e-01 -9.822356e-01
   outer loop
     vertex -3.090008e+02  6.011845e+02 -3.333088e+02
     vertex -3.098589e+02  6.019052e+02 -3.333241e+02
     vertex -3.086129e+02  6.024165e+02 -3.330883e+02
   endloop
 endfacet
 facet normal  1.305970e-01  1.347501e-01 -9.822356e-01
   outer loop
     vertex -3.077548e+02  6.017246e+02 -3.330691e+02
     vertex -3.090008e+02  6.011845e+02 -3.333088e+02
     vertex -3.086129e+02  6.024165e+02 -3.330883e+02
   endloop
 endfacet
 facet normal  1.305970e-01  1.347501e-01 -9.822356e-01
   outer loop
     vertex -2.644352e+02  6.441409e+02 -3.214904e+02
     vertex -2.656741e+02  6.437878e+02 -3.217036e+02
     vertex -2.651258e+02  6.450231e+02 -3.214612e+02
   endloop
 endfacet
 facet normal  1.305970e-01  1.347501e-01 -9.822356e-01
   outer loop
     vertex -2.650126e+02  6.429065e+02 -3.217365e+02
     vertex -2.656741e+02  6.437878e+02 -3.217036e+02
     vertex -2.644352e+02  6.441409e+02 -3.214904e+02
   endloop
 endfacet
 facet normal  1.305970e-01  1.347501e-01 -9.822356e-01
   outer loop
     vertex -3.081183e+02  6.004941e+02 -3.332862e+02
     vertex -3.090008e+02  6.011845e+02 -3.333088e+02
     vertex -3.077548e+02  6.017246e+02 -3.330691e+02
   endloop
 endfacet
 facet normal  1.305970e-01  1.347501e-01 -9.822356e-01
   outer loop
     vertex -3.068729e+02  6.010636e+02 -3.330425e+02
     vertex -3.081183e+02  6.004941e+02 -3.332862e+02
     vertex -3.077548e+02  6.017246e+02 -3.330691e+02
   endloop
 endfacet
 facet normal  1.305970e-01  1.347501e-01 -9.822356e-01
   outer loop
     vertex -2.637758e+02  6.432355e+02 -3.215269e+02
     vertex -2.650126e+02  6.429065e+02 -3.217365e+02
     vertex -2.644352e+02  6.441409e+02 -3.214904e+02
   endloop
 endfacet
 facet normal  1.305970e-01  1.347501e-01 -9.822356e-01
   outer loop
     vertex -2.643831e+02  6.420024e+02 -3.217768e+02
     vertex -2.650126e+02  6.429065e+02 -3.217365e+02
     vertex -2.637758e+02  6.432355e+02 -3.215269e+02
   endloop
 endfacet
 facet normal  1.305970e-01  1.347501e-01 -9.822356e-01
   outer loop
     vertex -3.072126e+02  5.998349e+02 -3.332562e+02
     vertex -3.081183e+02  6.004941e+02 -3.332862e+02
     vertex -3.068729e+02  6.010636e+02 -3.330425e+02
   endloop
 endfacet
 facet normal  1.305970e-01  1.347501e-01 -9.822356e-01
   outer loop
     vertex -3.059683e+02  6.004345e+02 -3.330085e+02
     vertex -3.072126e+02  5.998349e+02 -3.332562e+02
     vertex -3.068729e+02  6.010636e+02 -3.330425e+02
   endloop
 endfacet
 facet normal  1.305970e-01  1.347501e-01 -9.822356e-01
   outer loop
     vertex -2.631484e+02  6.423080e+02 -3.215708e+02
     vertex -2.643831e+02  6.420024e+02 -3.217768e+02
     vertex -2.637758e+02  6.432355e+02 -3.215269e+02
   endloop
 endfacet
 facet normal  1.305970e-01  1.347501e-01 -9.822356e-01
   outer loop
     vertex -2.637861e+02  6.410768e+02 -3.218244e+02
     vertex -2.643831e+02  6.420024e+02 -3.217768e+02
     vertex -2.631484e+02  6.423080e+02 -3.215708e+02
   endloop
 endfacet
 facet normal  1.305970e-01  1.347501e-01 -9.822356e-01
   outer loop
     vertex -3.062847e+02  5.992075e+02 -3.332189e+02
     vertex -3.072126e+02  5.998349e+02 -3.332562e+02
     vertex -3.059683e+02  6.004345e+02 -3.330085e+02
   endloop
 endfacet
 facet normal  1.305970e-01  1.347501e-01 -9.822356e-01
   outer loop
     vertex -3.050421e+02  5.998381e+02 -3.329672e+02
     vertex -3.062847e+02  5.992075e+02 -3.332189e+02
     vertex -3.059683e+02  6.004345e+02 -3.330085e+02
   endloop
 endfacet
 facet normal  1.305970e-01  1.347501e-01 -9.822356e-01
   outer loop
     vertex -2.625537e+02  6.413595e+02 -3.216218e+02
     vertex -2.637861e+02  6.410768e+02 -3.218244e+02
     vertex -2.631484e+02  6.423080e+02 -3.215708e+02
   endloop
 endfacet
 facet normal  1.305970e-01  1.347501e-01 -9.822356e-01
   outer loop
     vertex -2.632226e+02  6.401309e+02 -3.218793e+02
     vertex -2.637861e+02  6.410768e+02 -3.218244e+02
     vertex -2.625537e+02  6.413595e+02 -3.216218e+02
   endloop
 endfacet
 facet normal  1.305970e-01  1.347501e-01 -9.822356e-01
   outer loop
     vertex -3.053358e+02  5.986129e+02 -3.331743e+02
     vertex -3.062847e+02  5.992075e+02 -3.332189e+02
     vertex -3.050421e+02  5.998381e+02 -3.329672e+02
   endloop
 endfacet
 facet normal  1.305970e-01  1.347501e-01 -9.822356e-01
   outer loop
     vertex -3.040956e+02  5.992750e+02 -3.329186e+02
     vertex -3.053358e+02  5.986129e+02 -3.331743e+02
     vertex -3.050421e+02  5.998381e+02 -3.329672e+02
   endloop
 endfacet
 facet normal  1.305970e-01  1.347501e-01 -9.822356e-01
   outer loop
     vertex -2.619925e+02  6.403912e+02 -3.216800e+02
     vertex -2.632226e+02  6.401309e+02 -3.218793e+02
     vertex -2.625537e+02  6.413595e+02 -3.216218e+02
   endloop
 endfacet
 facet normal  1.305970e-01  1.347501e-01 -9.822356e-01
   outer loop
     vertex -2.626933e+02  6.391658e+02 -3.219413e+02
     vertex -2.632226e+02  6.401309e+02 -3.218793e+02
     vertex -2.619925e+02  6.403912e+02 -3.216800e+02
   endloop
 endfacet
 facet normal  1.305970e-01  1.347501e-01 -9.822356e-01
   outer loop
     vertex -3.043671e+02  5.980518e+02 -3.331225e+02
     vertex -3.053358e+02  5.986129e+02 -3.331743e+02
     vertex -3.040956e+02  5.992750e+02 -3.329186e+02
   endloop
 endfacet
 facet normal  1.305970e-01  1.347501e-01 -9.822356e-01
   outer loop
     vertex -3.031299e+02  5.987461e+02 -3.328628e+02
     vertex -3.043671e+02  5.980518e+02 -3.331225e+02
     vertex -3.040956e+02  5.992750e+02 -3.329186e+02
   endloop
 endfacet
 facet normal  1.305970e-01  1.347501e-01 -9.822356e-01
   outer loop
     vertex -2.614655e+02  6.394043e+02 -3.217453e+02
     vertex -2.626933e+02  6.391658e+02 -3.219413e+02
     vertex -2.619925e+02  6.403912e+02 -3.216800e+02
   endloop
 endfacet
 facet normal  1.305970e-01  1.347501e-01 -9.822356e-01
   outer loop
     vertex -2.621989e+02  6.381830e+02 -3.220104e+02
     vertex -2.626933e+02  6.391658e+02 -3.219413e+02
     vertex -2.614655e+02  6.394043e+02 -3.217453e+02
   endloop
 endfacet
 facet normal  1.305970e-01  1.347501e-01 -9.822356e-01
   outer loop
     vertex -3.033798e+02  5.975248e+02 -3.330636e+02
     vertex -3.043671e+02  5.980518e+02 -3.331225e+02
     vertex -3.031299e+02  5.987461e+02 -3.328628e+02
   endloop
 endfacet
 facet normal  1.305970e-01  1.347501e-01 -9.822356e-01
   outer loop
     vertex -3.021464e+02  5.982521e+02 -3.327998e+02
     vertex -3.033798e+02  5.975248e+02 -3.330636e+02
     vertex -3.031299e+02  5.987461e+02 -3.328628e+02
   endloop
 endfacet
 facet normal  1.305970e-01  1.347501e-01 -9.822356e-01
   outer loop
     vertex -2.609734e+02  6.384001e+02 -3.218177e+02
     vertex -2.621989e+02  6.381830e+02 -3.220104e+02
     vertex -2.614655e+02  6.394043e+02 -3.217453e+02
   endloop
 endfacet
 facet normal  1.305970e-01  1.347501e-01 -9.822356e-01
   outer loop
     vertex -2.617400e+02  6.371835e+02 -3.220865e+02
     vertex -2.621989e+02  6.381830e+02 -3.220104e+02
     vertex -2.609734e+02  6.384001e+02 -3.218177e+02
   endloop
 endfacet
 facet normal  1.305970e-01  1.347501e-01 -9.822356e-01
   outer loop
     vertex -3.023751e+02  5.970327e+02 -3.329975e+02
     vertex -3.033798e+02  5.975248e+02 -3.330636e+02
     vertex -3.021464e+02  5.982521e+02 -3.327998e+02
   endloop
 endfacet
 facet normal  1.305970e-01  1.347501e-01 -9.822356e-01
   outer loop
     vertex -3.011463e+02  5.977936e+02 -3.327297e+02
     vertex -3.023751e+02  5.970327e+02 -3.329975e+02
     vertex -3.021464e+02  5.982521e+02 -3.327998e+02
   endloop
 endfacet
 facet normal  1.305970e-01  1.347501e-01 -9.822356e-01
   outer loop
     vertex -2.605167e+02  6.373798e+02 -3.218969e+02
     vertex -2.617400e+02  6.371835e+02 -3.220865e+02
     vertex -2.609734e+02  6.384001e+02 -3.218177e+02
   endloop
 endfacet
 facet normal  1.305970e-01  1.347501e-01 -9.822356e-01
   outer loop
     vertex -2.613171e+02  6.361688e+02 -3.221695e+02
     vertex -2.617400e+02  6.371835e+02 -3.220865e+02
     vertex -2.605167e+02  6.373798e+02 -3.218969e+02
   endloop
 endfacet
 facet normal  1.305970e-01  1.347501e-01 -9.822356e-01
   outer loop
     vertex -3.013543e+02  5.965760e+02 -3.329244e+02
     vertex -3.023751e+02  5.970327e+02 -3.329975e+02
     vertex -3.011463e+02  5.977936e+02 -3.327297e+02
   endloop
 endfacet
 facet normal  1.305970e-01  1.347501e-01 -9.822356e-01
   outer loop
     vertex -3.001310e+02  5.973712e+02 -3.326527e+02
     vertex -3.013543e+02  5.965760e+02 -3.329244e+02
     vertex -3.011463e+02  5.977936e+02 -3.327297e+02
   endloop
 endfacet
 facet normal  1.305970e-01  1.347501e-01 -9.822356e-01
   outer loop
     vertex -2.600960e+02  6.363446e+02 -3.219830e+02
     vertex -2.613171e+02  6.361688e+02 -3.221695e+02
     vertex -2.605167e+02  6.373798e+02 -3.218969e+02
   endloop
 endfacet
 facet normal  1.305970e-01  1.347501e-01 -9.822356e-01
   outer loop
     vertex -2.609310e+02  6.351401e+02 -3.222593e+02
     vertex -2.613171e+02  6.361688e+02 -3.221695e+02
     vertex -2.600960e+02  6.363446e+02 -3.219830e+02
   endloop
 endfacet
 facet normal  1.305970e-01  1.347501e-01 -9.822356e-01
   outer loop
     vertex -3.003187e+02  5.961553e+02 -3.328444e+02
     vertex -3.013543e+02  5.965760e+02 -3.329244e+02
     vertex -3.001310e+02  5.973712e+02 -3.326527e+02
   endloop
 endfacet
 facet normal  1.305970e-01  1.347501e-01 -9.822356e-01
   outer loop
     vertex -2.991017e+02  5.969854e+02 -3.325687e+02
     vertex -3.003187e+02  5.961553e+02 -3.328444e+02
     vertex -3.001310e+02  5.973712e+02 -3.326527e+02
   endloop
 endfacet
 facet normal  1.305970e-01  1.347501e-01 -9.822356e-01
   outer loop
     vertex -2.597119e+02  6.352959e+02 -3.220758e+02
     vertex -2.609310e+02  6.351401e+02 -3.222593e+02
     vertex -2.600960e+02  6.363446e+02 -3.219830e+02
   endloop
 endfacet
 facet normal  1.305970e-01  1.347501e-01 -9.822356e-01
   outer loop
     vertex -2.605820e+02  6.340989e+02 -3.223557e+02
     vertex -2.609310e+02  6.351401e+02 -3.222593e+02
     vertex -2.597119e+02  6.352959e+02 -3.220758e+02
   endloop
 endfacet
 facet normal  1.305970e-01  1.347501e-01 -9.822356e-01
   outer loop
     vertex -2.992695e+02  5.957711e+02 -3.327576e+02
     vertex -3.003187e+02  5.961553e+02 -3.328444e+02
     vertex -2.991017e+02  5.969854e+02 -3.325687e+02
   endloop
 endfacet
 facet normal  1.305970e-01  1.347501e-01 -9.822356e-01
   outer loop
     vertex -2.980598e+02  5.966367e+02 -3.324780e+02
     vertex -2.992695e+02  5.957711e+02 -3.327576e+02
     vertex -2.991017e+02  5.969854e+02 -3.325687e+02
   endloop
 endfacet
 facet normal  1.305970e-01  1.347501e-01 -9.822356e-01
   outer loop
     vertex -2.593648e+02  6.342350e+02 -3.221752e+02
     vertex -2.605820e+02  6.340989e+02 -3.223557e+02
     vertex -2.597119e+02  6.352959e+02 -3.220758e+02
   endloop
 endfacet
 facet normal  1.305970e-01  1.347501e-01 -9.822356e-01
   outer loop
     vertex -2.602706e+02  6.330463e+02 -3.224587e+02
     vertex -2.605820e+02  6.340989e+02 -3.223557e+02
     vertex -2.593648e+02  6.342350e+02 -3.221752e+02
   endloop
 endfacet
 facet normal  1.305970e-01  1.347501e-01 -9.822356e-01
   outer loop
     vertex -2.982081e+02  5.954240e+02 -3.326641e+02
     vertex -2.992695e+02  5.957711e+02 -3.327576e+02
     vertex -2.980598e+02  5.966367e+02 -3.324780e+02
   endloop
 endfacet
 facet normal  1.305970e-01  1.347501e-01 -9.822356e-01
   outer loop
     vertex -2.970066e+02  5.963257e+02 -3.323807e+02
     vertex -2.982081e+02  5.954240e+02 -3.326641e+02
     vertex -2.980598e+02  5.966367e+02 -3.324780e+02
   endloop
 endfacet
 facet normal  1.305970e-01  1.347501e-01 -9.822356e-01
   outer loop
     vertex -2.590552e+02  6.331631e+02 -3.222811e+02
     vertex -2.602706e+02  6.330463e+02 -3.224587e+02
     vertex -2.593648e+02  6.342350e+02 -3.221752e+02
   endloop
 endfacet
 facet normal  1.305970e-01  1.347501e-01 -9.822356e-01
   outer loop
     vertex -2.599973e+02  6.319840e+02 -3.225681e+02
     vertex -2.602706e+02  6.330463e+02 -3.224587e+02
     vertex -2.590552e+02  6.331631e+02 -3.222811e+02
   endloop
 endfacet
 facet normal  1.305970e-01  1.347501e-01 -9.822356e-01
   outer loop
     vertex -2.971357e+02  5.951143e+02 -3.325640e+02
     vertex -2.982081e+02  5.954240e+02 -3.326641e+02
     vertex -2.970066e+02  5.963257e+02 -3.323807e+02
   endloop
 endfacet
 facet normal  1.305970e-01  1.347501e-01 -9.822356e-01
   outer loop
     vertex -2.959436e+02  5.960526e+02 -3.322768e+02
     vertex -2.971357e+02  5.951143e+02 -3.325640e+02
     vertex -2.970066e+02  5.963257e+02 -3.323807e+02
   endloop
 endfacet
 facet normal  1.305970e-01  1.347501e-01 -9.822356e-01
   outer loop
     vertex -2.587835e+02  6.320817e+02 -3.223933e+02
     vertex -2.599973e+02  6.319840e+02 -3.225681e+02
     vertex -2.590552e+02  6.331631e+02 -3.222811e+02
   endloop
 endfacet
 facet normal  1.305970e-01  1.347501e-01 -9.822356e-01
   outer loop
     vertex -2.597623e+02  6.309131e+02 -3.226838e+02
     vertex -2.599973e+02  6.319840e+02 -3.225681e+02
     vertex -2.587835e+02  6.320817e+02 -3.223933e+02
   endloop
 endfacet
 facet normal  1.305970e-01  1.347501e-01 -9.822356e-01
   outer loop
     vertex -2.960537e+02  5.948424e+02 -3.324575e+02
     vertex -2.971357e+02  5.951143e+02 -3.325640e+02
     vertex -2.959436e+02  5.960526e+02 -3.322768e+02
   endloop
 endfacet
 facet normal  1.305970e-01  1.347501e-01 -9.822356e-01
   outer loop
     vertex -2.948722e+02  5.958180e+02 -3.321665e+02
     vertex -2.960537e+02  5.948424e+02 -3.324575e+02
     vertex -2.959436e+02  5.960526e+02 -3.322768e+02
   endloop
 endfacet
 facet normal  1.305970e-01  1.347501e-01 -9.822356e-01
   outer loop
     vertex -2.585499e+02  6.309920e+02 -3.225118e+02
     vertex -2.597623e+02  6.309131e+02 -3.226838e+02
     vertex -2.587835e+02  6.320817e+02 -3.223933e+02
   endloop
 endfacet
 facet normal  1.305970e-01  1.347501e-01 -9.822356e-01
   outer loop
     vertex -2.595661e+02  6.298352e+02 -3.228056e+02
     vertex -2.597623e+02  6.309131e+02 -3.226838e+02
     vertex -2.585499e+02  6.309920e+02 -3.225118e+02
   endloop
 endfacet
 facet normal  1.305970e-01  1.347501e-01 -9.822356e-01
   outer loop
     vertex -2.949635e+02  5.946087e+02 -3.323446e+02
     vertex -2.960537e+02  5.948424e+02 -3.324575e+02
     vertex -2.948722e+02  5.958180e+02 -3.321665e+02
   endloop
 endfacet
 facet normal  1.305970e-01  1.347501e-01 -9.822356e-01
   outer loop
     vertex -2.937936e+02  5.956219e+02 -3.320500e+02
     vertex -2.949635e+02  5.946087e+02 -3.323446e+02
     vertex -2.948722e+02  5.958180e+02 -3.321665e+02
   endloop
 endfacet
 facet normal  1.305970e-01  1.347501e-01 -9.822356e-01
   outer loop
     vertex -2.583548e+02  6.298955e+02 -3.226362e+02
     vertex -2.595661e+02  6.298352e+02 -3.228056e+02
     vertex -2.585499e+02  6.309920e+02 -3.225118e+02
   endloop
 endfacet
 facet normal  1.305970e-01  1.347501e-01 -9.822356e-01
   outer loop
     vertex -2.594087e+02  6.287515e+02 -3.229333e+02
     vertex -2.595661e+02  6.298352e+02 -3.228056e+02
     vertex -2.583548e+02  6.298955e+02 -3.226362e+02
   endloop
 endfacet
 facet normal  1.305970e-01  1.347501e-01 -9.822356e-01
   outer loop
     vertex -2.938664e+02  5.944134e+02 -3.322255e+02
     vertex -2.949635e+02  5.946087e+02 -3.323446e+02
     vertex -2.937936e+02  5.956219e+02 -3.320500e+02
   endloop
 endfacet
 facet normal  1.305970e-01  1.347501e-01 -9.822356e-01
   outer loop
     vertex -2.927093e+02  5.954649e+02 -3.319274e+02
     vertex -2.938664e+02  5.944134e+02 -3.322255e+02
     vertex -2.937936e+02  5.956219e+02 -3.320500e+02
   endloop
 endfacet
 facet normal  1.305970e-01  1.347501e-01 -9.822356e-01
   outer loop
     vertex -2.581985e+02  6.287935e+02 -3.227666e+02
     vertex -2.594087e+02  6.287515e+02 -3.229333e+02
     vertex -2.583548e+02  6.298955e+02 -3.226362e+02
   endloop
 endfacet
 facet normal  1.305970e-01  1.347501e-01 -9.822356e-01
   outer loop
     vertex -2.592906e+02  6.276636e+02 -3.230668e+02
     vertex -2.594087e+02  6.287515e+02 -3.229333e+02
     vertex -2.581985e+02  6.287935e+02 -3.227666e+02
   endloop
 endfacet
 facet normal  1.305970e-01  1.347501e-01 -9.822356e-01
   outer loop
     vertex -2.927638e+02  5.942568e+02 -3.321004e+02
     vertex -2.938664e+02  5.944134e+02 -3.322255e+02
     vertex -2.927093e+02  5.954649e+02 -3.319274e+02
   endloop
 endfacet
 facet normal  1.305970e-01  1.347501e-01 -9.822356e-01
   outer loop
     vertex -2.916208e+02  5.953469e+02 -3.317989e+02
     vertex -2.927638e+02  5.942568e+02 -3.321004e+02
     vertex -2.927093e+02  5.954649e+02 -3.319274e+02
   endloop
 endfacet
 facet normal  1.305970e-01  1.347501e-01 -9.822356e-01
   outer loop
     vertex -2.580810e+02  6.276873e+02 -3.229028e+02
     vertex -2.592906e+02  6.276636e+02 -3.230668e+02
     vertex -2.581985e+02  6.287935e+02 -3.227666e+02
   endloop
 endfacet
 facet normal  1.305970e-01  1.347501e-01 -9.822356e-01
   outer loop
     vertex -2.592117e+02  6.265729e+02 -3.232060e+02
     vertex -2.592906e+02  6.276636e+02 -3.230668e+02
     vertex -2.580810e+02  6.276873e+02 -3.229028e+02
   endloop
 endfacet
 facet normal  1.305970e-01  1.347501e-01 -9.822356e-01
   outer loop
     vertex -2.916571e+02  5.941392e+02 -3.319694e+02
     vertex -2.927638e+02  5.942568e+02 -3.321004e+02
     vertex -2.916208e+02  5.953469e+02 -3.317989e+02
   endloop
 endfacet
 facet normal  1.305970e-01  1.347501e-01 -9.822356e-01
   outer loop
     vertex -2.916571e+02  5.941392e+02 -3.319694e+02
     vertex -2.916208e+02  5.953469e+02 -3.317989e+02
     vertex -2.905294e+02  5.952682e+02 -3.316646e+02
   endloop
 endfacet
 facet normal  1.305970e-01  1.347501e-01 -9.822356e-01
   outer loop
     vertex -2.580027e+02  6.265784e+02 -3.230445e+02
     vertex -2.591722e+02  6.254807e+02 -3.233506e+02
     vertex -2.592117e+02  6.265729e+02 -3.232060e+02
   endloop
 endfacet
 facet normal  1.305970e-01  1.347501e-01 -9.822356e-01
   outer loop
     vertex -2.580027e+02  6.265784e+02 -3.230445e+02
     vertex -2.592117e+02  6.265729e+02 -3.232060e+02
     vertex -2.580810e+02  6.276873e+02 -3.229028e+02
   endloop
 endfacet
 facet normal  1.305970e-01  1.347501e-01 -9.822356e-01
   outer loop
     vertex -2.905475e+02  5.940606e+02 -3.318326e+02
     vertex -2.905294e+02  5.952682e+02 -3.316646e+02
     vertex -2.894366e+02  5.952290e+02 -3.315247e+02
   endloop
 endfacet
 facet normal  1.305970e-01  1.347501e-01 -9.822356e-01
   outer loop
     vertex -2.905475e+02  5.940606e+02 -3.318326e+02
     vertex -2.916571e+02  5.941392e+02 -3.319694e+02
     vertex -2.905294e+02  5.952682e+02 -3.316646e+02
   endloop
 endfacet
 facet normal  1.305970e-01  1.347501e-01 -9.822356e-01
   outer loop
     vertex -2.579635e+02  6.254681e+02 -3.231916e+02
     vertex -2.591722e+02  6.254807e+02 -3.233506e+02
     vertex -2.580027e+02  6.265784e+02 -3.230445e+02
   endloop
 endfacet
 facet normal  1.305970e-01  1.347501e-01 -9.822356e-01
   outer loop
     vertex -2.894366e+02  5.940211e+02 -3.316904e+02
     vertex -2.905475e+02  5.940606e+02 -3.318326e+02
     vertex -2.894366e+02  5.952290e+02 -3.315247e+02
   endloop
 endfacet
 facet normal  1.305970e-01  1.347501e-01 -9.822356e-01
   outer loop
     vertex -2.579635e+02  6.243578e+02 -3.233439e+02
     vertex -2.591722e+02  6.243885e+02 -3.235004e+02
     vertex -2.591722e+02  6.254807e+02 -3.233506e+02
   endloop
 endfacet
 facet normal  1.305970e-01  1.347501e-01 -9.822356e-01
   outer loop
     vertex -2.579635e+02  6.243578e+02 -3.233439e+02
     vertex -2.591722e+02  6.254807e+02 -3.233506e+02
     vertex -2.579635e+02  6.254681e+02 -3.231916e+02
   endloop
 endfacet
 facet normal  1.305970e-01  1.347501e-01 -9.822356e-01
   outer loop
     vertex -2.883257e+02  5.940208e+02 -3.315427e+02
     vertex -2.894366e+02  5.952290e+02 -3.315247e+02
     vertex -2.883438e+02  5.952291e+02 -3.313793e+02
   endloop
 endfacet
 facet normal  1.305970e-01  1.347501e-01 -9.822356e-01
   outer loop
     vertex -2.883257e+02  5.940208e+02 -3.315427e+02
     vertex -2.894366e+02  5.940211e+02 -3.316904e+02
     vertex -2.894366e+02  5.952290e+02 -3.315247e+02
   endloop
 endfacet
 facet normal  1.305970e-01  1.347501e-01 -9.822356e-01
   outer loop
     vertex -2.580027e+02  6.232490e+02 -3.235012e+02
     vertex -2.592117e+02  6.232978e+02 -3.236553e+02
     vertex -2.591722e+02  6.243885e+02 -3.235004e+02
   endloop
 endfacet
 facet normal  1.305970e-01  1.347501e-01 -9.822356e-01
   outer loop
     vertex -2.580027e+02  6.232490e+02 -3.235012e+02
     vertex -2.591722e+02  6.243885e+02 -3.235004e+02
     vertex -2.579635e+02  6.243578e+02 -3.233439e+02
   endloop
 endfacet
 facet normal  1.305970e-01  1.347501e-01 -9.822356e-01
   outer loop
     vertex -2.872162e+02  5.940597e+02 -3.313898e+02
     vertex -2.883438e+02  5.952291e+02 -3.313793e+02
     vertex -2.872525e+02  5.952687e+02 -3.312288e+02
   endloop
 endfacet
 facet normal  1.305970e-01  1.347501e-01 -9.822356e-01
   outer loop
     vertex -2.872162e+02  5.940597e+02 -3.313898e+02
     vertex -2.883257e+02  5.940208e+02 -3.315427e+02
     vertex -2.883438e+02  5.952291e+02 -3.313793e+02
   endloop
 endfacet
 facet normal  1.305970e-01  1.347501e-01 -9.822356e-01
   outer loop
     vertex -2.580810e+02  6.221428e+02 -3.236634e+02
     vertex -2.592906e+02  6.222098e+02 -3.238150e+02
     vertex -2.592117e+02  6.232978e+02 -3.236553e+02
   endloop
 endfacet
 facet normal  1.305970e-01  1.347501e-01 -9.822356e-01
   outer loop
     vertex -2.580810e+02  6.221428e+02 -3.236634e+02
     vertex -2.592117e+02  6.232978e+02 -3.236553e+02
     vertex -2.580027e+02  6.232490e+02 -3.235012e+02
   endloop
 endfacet
 facet normal  1.305970e-01  1.347501e-01 -9.822356e-01
   outer loop
     vertex -2.861094e+02  5.941377e+02 -3.312320e+02
     vertex -2.872525e+02  5.952687e+02 -3.312288e+02
     vertex -2.861639e+02  5.953477e+02 -3.310732e+02
   endloop
 endfacet
 facet normal  1.305970e-01  1.347501e-01 -9.822356e-01
   outer loop
     vertex -2.861094e+02  5.941377e+02 -3.312320e+02
     vertex -2.872162e+02  5.940597e+02 -3.313898e+02
     vertex -2.872525e+02  5.952687e+02 -3.312288e+02
   endloop
 endfacet
 facet normal  1.305970e-01  1.347501e-01 -9.822356e-01
   outer loop
     vertex -2.581985e+02  6.210409e+02 -3.238302e+02
     vertex -2.592906e+02  6.222098e+02 -3.238150e+02
     vertex -2.580810e+02  6.221428e+02 -3.236634e+02
   endloop
 endfacet
 facet normal  1.305970e-01  1.347501e-01 -9.822356e-01
   outer loop
     vertex -2.581985e+02  6.210409e+02 -3.238302e+02
     vertex -2.594087e+02  6.211262e+02 -3.239794e+02
     vertex -2.592906e+02  6.222098e+02 -3.238150e+02
   endloop
 endfacet
 facet normal  1.305970e-01  1.347501e-01 -9.822356e-01
   outer loop
     vertex -2.850068e+02  5.942548e+02 -3.310693e+02
     vertex -2.861094e+02  5.941377e+02 -3.312320e+02
     vertex -2.861639e+02  5.953477e+02 -3.310732e+02
   endloop
 endfacet
 facet normal  1.305970e-01  1.347501e-01 -9.822356e-01
   outer loop
     vertex -2.850068e+02  5.942548e+02 -3.310693e+02
     vertex -2.861639e+02  5.953477e+02 -3.310732e+02
     vertex -2.850797e+02  5.954659e+02 -3.309128e+02
   endloop
 endfacet
 facet normal  1.305970e-01  1.347501e-01 -9.822356e-01
   outer loop
     vertex -2.583548e+02  6.199445e+02 -3.240014e+02
     vertex -2.594087e+02  6.211262e+02 -3.239794e+02
     vertex -2.581985e+02  6.210409e+02 -3.238302e+02
   endloop
 endfacet
 facet normal  1.305970e-01  1.347501e-01 -9.822356e-01
   outer loop
     vertex -2.583548e+02  6.199445e+02 -3.240014e+02
     vertex -2.595661e+02  6.200482e+02 -3.241482e+02
     vertex -2.594087e+02  6.211262e+02 -3.239794e+02
   endloop
 endfacet
 facet normal  1.305970e-01  1.347501e-01 -9.822356e-01
   outer loop
     vertex -2.839097e+02  5.944108e+02 -3.309020e+02
     vertex -2.850068e+02  5.942548e+02 -3.310693e+02
     vertex -2.850797e+02  5.954659e+02 -3.309128e+02
   endloop
 endfacet
 facet normal  1.305970e-01  1.347501e-01 -9.822356e-01
   outer loop
     vertex -2.839097e+02  5.944108e+02 -3.309020e+02
     vertex -2.850797e+02  5.954659e+02 -3.309128e+02
     vertex -2.840011e+02  5.956233e+02 -3.307478e+02
   endloop
 endfacet
 facet normal  1.305970e-01  1.347501e-01 -9.822356e-01
   outer loop
     vertex -2.585499e+02  6.188549e+02 -3.241768e+02
     vertex -2.595661e+02  6.200482e+02 -3.241482e+02
     vertex -2.583548e+02  6.199445e+02 -3.240014e+02
   endloop
 endfacet
 facet normal  1.305970e-01  1.347501e-01 -9.822356e-01
   outer loop
     vertex -2.585499e+02  6.188549e+02 -3.241768e+02
     vertex -2.597623e+02  6.189773e+02 -3.243212e+02
     vertex -2.595661e+02  6.200482e+02 -3.241482e+02
   endloop
 endfacet
 facet normal  1.305970e-01  1.347501e-01 -9.822356e-01
   outer loop
     vertex -2.828195e+02  5.946055e+02 -3.307304e+02
     vertex -2.839097e+02  5.944108e+02 -3.309020e+02
     vertex -2.840011e+02  5.956233e+02 -3.307478e+02
   endloop
 endfacet
 facet normal  1.305970e-01  1.347501e-01 -9.822356e-01
   outer loop
     vertex -2.828195e+02  5.946055e+02 -3.307304e+02
     vertex -2.840011e+02  5.956233e+02 -3.307478e+02
     vertex -2.829296e+02  5.958196e+02 -3.305785e+02
   endloop
 endfacet
 facet normal  1.305970e-01  1.347501e-01 -9.822356e-01
   outer loop
     vertex -2.587835e+02  6.177736e+02 -3.243562e+02
     vertex -2.599973e+02  6.179148e+02 -3.244982e+02
     vertex -2.597623e+02  6.189773e+02 -3.243212e+02
   endloop
 endfacet
 facet normal  1.305970e-01  1.347501e-01 -9.822356e-01
   outer loop
     vertex -2.587835e+02  6.177736e+02 -3.243562e+02
     vertex -2.597623e+02  6.189773e+02 -3.243212e+02
     vertex -2.585499e+02  6.188549e+02 -3.241768e+02
   endloop
 endfacet
 facet normal  1.305970e-01  1.347501e-01 -9.822356e-01
   outer loop
     vertex -2.817376e+02  5.948386e+02 -3.305545e+02
     vertex -2.828195e+02  5.946055e+02 -3.307304e+02
     vertex -2.829296e+02  5.958196e+02 -3.305785e+02
   endloop
 endfacet
 facet normal  1.305970e-01  1.347501e-01 -9.822356e-01
   outer loop
     vertex -2.817376e+02  5.948386e+02 -3.305545e+02
     vertex -2.829296e+02  5.958196e+02 -3.305785e+02
     vertex -2.818666e+02  5.960546e+02 -3.304049e+02
   endloop
 endfacet
 facet normal  1.305970e-01  1.347501e-01 -9.822356e-01
   outer loop
     vertex -2.590552e+02  6.167019e+02 -3.245394e+02
     vertex -2.599973e+02  6.179148e+02 -3.244982e+02
     vertex -2.587835e+02  6.177736e+02 -3.243562e+02
   endloop
 endfacet
 facet normal  1.305970e-01  1.347501e-01 -9.822356e-01
   outer loop
     vertex -2.590552e+02  6.167019e+02 -3.245394e+02
     vertex -2.602706e+02  6.168622e+02 -3.246790e+02
     vertex -2.599973e+02  6.179148e+02 -3.244982e+02
   endloop
 endfacet
 facet normal  1.305970e-01  1.347501e-01 -9.822356e-01
   outer loop
     vertex -2.806652e+02  5.951099e+02 -3.303747e+02
     vertex -2.817376e+02  5.948386e+02 -3.305545e+02
     vertex -2.818666e+02  5.960546e+02 -3.304049e+02
   endloop
 endfacet
 facet normal  1.305970e-01  1.347501e-01 -9.822356e-01
   outer loop
     vertex -2.806652e+02  5.951099e+02 -3.303747e+02
     vertex -2.818666e+02  5.960546e+02 -3.304049e+02
     vertex -2.808135e+02  5.963279e+02 -3.302274e+02
   endloop
 endfacet
 facet normal  1.305970e-01  1.347501e-01 -9.822356e-01
   outer loop
     vertex -2.593648e+02  6.156412e+02 -3.247260e+02
     vertex -2.605820e+02  6.158209e+02 -3.248632e+02
     vertex -2.602706e+02  6.168622e+02 -3.246790e+02
   endloop
 endfacet
 facet normal  1.305970e-01  1.347501e-01 -9.822356e-01
   outer loop
     vertex -2.593648e+02  6.156412e+02 -3.247260e+02
     vertex -2.602706e+02  6.168622e+02 -3.246790e+02
     vertex -2.590552e+02  6.167019e+02 -3.245394e+02
   endloop
 endfacet
 facet normal  1.305970e-01  1.347501e-01 -9.822356e-01
   outer loop
     vertex -2.796038e+02  5.954191e+02 -3.301912e+02
     vertex -2.806652e+02  5.951099e+02 -3.303747e+02
     vertex -2.808135e+02  5.963279e+02 -3.302274e+02
   endloop
 endfacet
 facet normal  1.305970e-01  1.347501e-01 -9.822356e-01
   outer loop
     vertex -2.796038e+02  5.954191e+02 -3.301912e+02
     vertex -2.808135e+02  5.963279e+02 -3.302274e+02
     vertex -2.797716e+02  5.966393e+02 -3.300461e+02
   endloop
 endfacet
 facet normal  1.305970e-01  1.347501e-01 -9.822356e-01
   outer loop
     vertex -2.597119e+02  6.145927e+02 -3.249160e+02
     vertex -2.605820e+02  6.158209e+02 -3.248632e+02
     vertex -2.593648e+02  6.156412e+02 -3.247260e+02
   endloop
 endfacet
 facet normal  1.305970e-01  1.347501e-01 -9.822356e-01
   outer loop
     vertex -2.597119e+02  6.145927e+02 -3.249160e+02
     vertex -2.609310e+02  6.147921e+02 -3.250508e+02
     vertex -2.605820e+02  6.158209e+02 -3.248632e+02
   endloop
 endfacet
 facet normal  1.305970e-01  1.347501e-01 -9.822356e-01
   outer loop
     vertex -2.785546e+02  5.957657e+02 -3.300042e+02
     vertex -2.797716e+02  5.966393e+02 -3.300461e+02
     vertex -2.787423e+02  5.969882e+02 -3.298614e+02
   endloop
 endfacet
 facet normal  1.305970e-01  1.347501e-01 -9.822356e-01
   outer loop
     vertex -2.785546e+02  5.957657e+02 -3.300042e+02
     vertex -2.796038e+02  5.954191e+02 -3.301912e+02
     vertex -2.797716e+02  5.966393e+02 -3.300461e+02
   endloop
 endfacet
 facet normal  1.305970e-01  1.347501e-01 -9.822356e-01
   outer loop
     vertex -2.600960e+02  6.135577e+02 -3.251091e+02
     vertex -2.613171e+02  6.137773e+02 -3.252413e+02
     vertex -2.609310e+02  6.147921e+02 -3.250508e+02
   endloop
 endfacet
 facet normal  1.305970e-01  1.347501e-01 -9.822356e-01
   outer loop
     vertex -2.600960e+02  6.135577e+02 -3.251091e+02
     vertex -2.609310e+02  6.147921e+02 -3.250508e+02
     vertex -2.597119e+02  6.145927e+02 -3.249160e+02
   endloop
 endfacet
 facet normal  1.305970e-01  1.347501e-01 -9.822356e-01
   outer loop
     vertex -2.775189e+02  5.961493e+02 -3.298138e+02
     vertex -2.787423e+02  5.969882e+02 -3.298614e+02
     vertex -2.777270e+02  5.973743e+02 -3.296734e+02
   endloop
 endfacet
 facet normal  1.305970e-01  1.347501e-01 -9.822356e-01
   outer loop
     vertex -2.775189e+02  5.961493e+02 -3.298138e+02
     vertex -2.785546e+02  5.957657e+02 -3.300042e+02
     vertex -2.787423e+02  5.969882e+02 -3.298614e+02
   endloop
 endfacet
 facet normal  1.305970e-01  1.347501e-01 -9.822356e-01
   outer loop
     vertex -2.605167e+02  6.125376e+02 -3.253050e+02
     vertex -2.617400e+02  6.127777e+02 -3.254347e+02
     vertex -2.613171e+02  6.137773e+02 -3.252413e+02
   endloop
 endfacet
 facet normal  1.305970e-01  1.347501e-01 -9.822356e-01
   outer loop
     vertex -2.605167e+02  6.125376e+02 -3.253050e+02
     vertex -2.613171e+02  6.137773e+02 -3.252413e+02
     vertex -2.600960e+02  6.135577e+02 -3.251091e+02
   endloop
 endfacet
 facet normal  1.305970e-01  1.347501e-01 -9.822356e-01
   outer loop
     vertex -2.764981e+02  5.965694e+02 -3.296205e+02
     vertex -2.775189e+02  5.961493e+02 -3.298138e+02
     vertex -2.777270e+02  5.973743e+02 -3.296734e+02
   endloop
 endfacet
 facet normal  1.305970e-01  1.347501e-01 -9.822356e-01
   outer loop
     vertex -2.764981e+02  5.965694e+02 -3.296205e+02
     vertex -2.777270e+02  5.973743e+02 -3.296734e+02
     vertex -2.767269e+02  5.977970e+02 -3.294825e+02
   endloop
 endfacet
 facet normal  1.305970e-01  1.347501e-01 -9.822356e-01
   outer loop
     vertex -2.609734e+02  6.115336e+02 -3.255034e+02
     vertex -2.621989e+02  6.117947e+02 -3.256305e+02
     vertex -2.617400e+02  6.127777e+02 -3.254347e+02
   endloop
 endfacet
 facet normal  1.305970e-01  1.347501e-01 -9.822356e-01
   outer loop
     vertex -2.609734e+02  6.115336e+02 -3.255034e+02
     vertex -2.617400e+02  6.127777e+02 -3.254347e+02
     vertex -2.605167e+02  6.125376e+02 -3.253050e+02
   endloop
 endfacet
 facet normal  1.305970e-01  1.347501e-01 -9.822356e-01
   outer loop
     vertex -2.754935e+02  5.970256e+02 -3.294243e+02
     vertex -2.764981e+02  5.965694e+02 -3.296205e+02
     vertex -2.767269e+02  5.977970e+02 -3.294825e+02
   endloop
 endfacet
 facet normal  1.305970e-01  1.347501e-01 -9.822356e-01
   outer loop
     vertex -2.754935e+02  5.970256e+02 -3.294243e+02
     vertex -2.767269e+02  5.977970e+02 -3.294825e+02
     vertex -2.757434e+02  5.982558e+02 -3.292888e+02
   endloop
 endfacet
 facet normal  1.305970e-01  1.347501e-01 -9.822356e-01
   outer loop
     vertex -2.614655e+02  6.105470e+02 -3.257042e+02
     vertex -2.626933e+02  6.108295e+02 -3.258287e+02
     vertex -2.621989e+02  6.117947e+02 -3.256305e+02
   endloop
 endfacet
 facet normal  1.305970e-01  1.347501e-01 -9.822356e-01
   outer loop
     vertex -2.614655e+02  6.105470e+02 -3.257042e+02
     vertex -2.621989e+02  6.117947e+02 -3.256305e+02
     vertex -2.609734e+02  6.115336e+02 -3.255034e+02
   endloop
 endfacet
 facet normal  1.305970e-01  1.347501e-01 -9.822356e-01
   outer loop
     vertex -2.745062e+02  5.975172e+02 -3.292256e+02
     vertex -2.757434e+02  5.982558e+02 -3.292888e+02
     vertex -2.747777e+02  5.987501e+02 -3.290926e+02
   endloop
 endfacet
 facet normal  1.305970e-01  1.347501e-01 -9.822356e-01
   outer loop
     vertex -2.745062e+02  5.975172e+02 -3.292256e+02
     vertex -2.754935e+02  5.970256e+02 -3.294243e+02
     vertex -2.757434e+02  5.982558e+02 -3.292888e+02
   endloop
 endfacet
 facet normal  1.305970e-01  1.347501e-01 -9.822356e-01
   outer loop
     vertex -2.619925e+02  6.095790e+02 -3.259071e+02
     vertex -2.632226e+02  6.098834e+02 -3.260289e+02
     vertex -2.626933e+02  6.108295e+02 -3.258287e+02
   endloop
 endfacet
 facet normal  1.305970e-01  1.347501e-01 -9.822356e-01
   outer loop
     vertex -2.619925e+02  6.095790e+02 -3.259071e+02
     vertex -2.626933e+02  6.108295e+02 -3.258287e+02
     vertex -2.614655e+02  6.105470e+02 -3.257042e+02
   endloop
 endfacet
 facet normal  1.305970e-01  1.347501e-01 -9.822356e-01
   outer loop
     vertex -2.735375e+02  5.980436e+02 -3.290246e+02
     vertex -2.747777e+02  5.987501e+02 -3.290926e+02
     vertex -2.738312e+02  5.992793e+02 -3.288941e+02
   endloop
 endfacet
 facet normal  1.305970e-01  1.347501e-01 -9.822356e-01
   outer loop
     vertex -2.735375e+02  5.980436e+02 -3.290246e+02
     vertex -2.745062e+02  5.975172e+02 -3.292256e+02
     vertex -2.747777e+02  5.987501e+02 -3.290926e+02
   endloop
 endfacet
 facet normal  1.305970e-01  1.347501e-01 -9.822356e-01
   outer loop
     vertex -2.625537e+02  6.086308e+02 -3.261118e+02
     vertex -2.632226e+02  6.098834e+02 -3.260289e+02
     vertex -2.619925e+02  6.095790e+02 -3.259071e+02
   endloop
 endfacet
 facet normal  1.305970e-01  1.347501e-01 -9.822356e-01
   outer loop
     vertex -2.625537e+02  6.086308e+02 -3.261118e+02
     vertex -2.637861e+02  6.089576e+02 -3.262308e+02
     vertex -2.632226e+02  6.098834e+02 -3.260289e+02
   endloop
 endfacet
 facet normal  1.305970e-01  1.347501e-01 -9.822356e-01
   outer loop
     vertex -2.725886e+02  5.986043e+02 -3.288215e+02
     vertex -2.735375e+02  5.980436e+02 -3.290246e+02
     vertex -2.738312e+02  5.992793e+02 -3.288941e+02
   endloop
 endfacet
 facet normal  1.305970e-01  1.347501e-01 -9.822356e-01
   outer loop
     vertex -2.725886e+02  5.986043e+02 -3.288215e+02
     vertex -2.738312e+02  5.992793e+02 -3.288941e+02
     vertex -2.729050e+02  5.998426e+02 -3.286937e+02
   endloop
 endfacet
 facet normal  1.305970e-01  1.347501e-01 -9.822356e-01
   outer loop
     vertex -2.631484e+02  6.077036e+02 -3.263180e+02
     vertex -2.643831e+02  6.080534e+02 -3.264342e+02
     vertex -2.637861e+02  6.089576e+02 -3.262308e+02
   endloop
 endfacet
 facet normal  1.305970e-01  1.347501e-01 -9.822356e-01
   outer loop
     vertex -2.631484e+02  6.077036e+02 -3.263180e+02
     vertex -2.637861e+02  6.089576e+02 -3.262308e+02
     vertex -2.625537e+02  6.086308e+02 -3.261118e+02
   endloop
 endfacet
 facet normal  1.305970e-01  1.347501e-01 -9.822356e-01
   outer loop
     vertex -2.716607e+02  5.991984e+02 -3.286166e+02
     vertex -2.725886e+02  5.986043e+02 -3.288215e+02
     vertex -2.729050e+02  5.998426e+02 -3.286937e+02
   endloop
 endfacet
 facet normal  1.305970e-01  1.347501e-01 -9.822356e-01
   outer loop
     vertex -2.716607e+02  5.991984e+02 -3.286166e+02
     vertex -2.729050e+02  5.998426e+02 -3.286937e+02
     vertex -2.720003e+02  6.004393e+02 -3.284915e+02
   endloop
 endfacet
 facet normal  1.305970e-01  1.347501e-01 -9.822356e-01
   outer loop
     vertex -2.637758e+02  6.067985e+02 -3.265256e+02
     vertex -2.643831e+02  6.080534e+02 -3.264342e+02
     vertex -2.631484e+02  6.077036e+02 -3.263180e+02
   endloop
 endfacet
 facet normal  1.305970e-01  1.347501e-01 -9.822356e-01
   outer loop
     vertex -2.637758e+02  6.067985e+02 -3.265256e+02
     vertex -2.650126e+02  6.071719e+02 -3.266388e+02
     vertex -2.643831e+02  6.080534e+02 -3.264342e+02
   endloop
 endfacet
 facet normal  1.305970e-01  1.347501e-01 -9.822356e-01
   outer loop
     vertex -2.707550e+02  5.998252e+02 -3.284102e+02
     vertex -2.716607e+02  5.991984e+02 -3.286166e+02
     vertex -2.720003e+02  6.004393e+02 -3.284915e+02
   endloop
 endfacet
 facet normal  1.305970e-01  1.347501e-01 -9.822356e-01
   outer loop
     vertex -2.707550e+02  5.998252e+02 -3.284102e+02
     vertex -2.720003e+02  6.004393e+02 -3.284915e+02
     vertex -2.711184e+02  6.010687e+02 -3.282879e+02
   endloop
 endfacet
 facet normal  1.305970e-01  1.347501e-01 -9.822356e-01
   outer loop
     vertex -2.644352e+02  6.059167e+02 -3.267343e+02
     vertex -2.656741e+02  6.063143e+02 -3.268444e+02
     vertex -2.650126e+02  6.071719e+02 -3.266388e+02
   endloop
 endfacet
 facet normal  1.305970e-01  1.347501e-01 -9.822356e-01
   outer loop
     vertex -2.644352e+02  6.059167e+02 -3.267343e+02
     vertex -2.650126e+02  6.071719e+02 -3.266388e+02
     vertex -2.637758e+02  6.067985e+02 -3.265256e+02
   endloop
 endfacet
 facet normal  1.305970e-01  1.347501e-01 -9.822356e-01
   outer loop
     vertex -2.698725e+02  6.004840e+02 -3.282025e+02
     vertex -2.707550e+02  5.998252e+02 -3.284102e+02
     vertex -2.711184e+02  6.010687e+02 -3.282879e+02
   endloop
 endfacet
 facet normal  1.305970e-01  1.347501e-01 -9.822356e-01
   outer loop
     vertex -2.698725e+02  6.004840e+02 -3.282025e+02
     vertex -2.711184e+02  6.010687e+02 -3.282879e+02
     vertex -2.702604e+02  6.017299e+02 -3.280832e+02
   endloop
 endfacet
 facet normal  1.305970e-01  1.347501e-01 -9.822356e-01
   outer loop
     vertex -2.651258e+02  6.050593e+02 -3.269437e+02
     vertex -2.656741e+02  6.063143e+02 -3.268444e+02
     vertex -2.644352e+02  6.059167e+02 -3.267343e+02
   endloop
 endfacet
 facet normal  1.305970e-01  1.347501e-01 -9.822356e-01
   outer loop
     vertex -2.651258e+02  6.050593e+02 -3.269437e+02
     vertex -2.663665e+02  6.054816e+02 -3.270507e+02
     vertex -2.656741e+02  6.063143e+02 -3.268444e+02
   endloop
 endfacet
 facet normal  1.305970e-01  1.347501e-01 -9.822356e-01
   outer loop
     vertex -2.690144e+02  6.011740e+02 -3.279938e+02
     vertex -2.698725e+02  6.004840e+02 -3.282025e+02
     vertex -2.702604e+02  6.017299e+02 -3.280832e+02
   endloop
 endfacet
 facet normal  1.305970e-01  1.347501e-01 -9.822356e-01
   outer loop
     vertex -2.690144e+02  6.011740e+02 -3.279938e+02
     vertex -2.702604e+02  6.017299e+02 -3.280832e+02
     vertex -2.694274e+02  6.024220e+02 -3.278774e+02
   endloop
 endfacet
 facet normal  1.305970e-01  1.347501e-01 -9.822356e-01
   outer loop
     vertex -2.658466e+02  6.042273e+02 -3.271537e+02
     vertex -2.663665e+02  6.054816e+02 -3.270507e+02
     vertex -2.651258e+02  6.050593e+02 -3.269437e+02
   endloop
 endfacet
 facet normal  1.305970e-01  1.347501e-01 -9.822356e-01
   outer loop
     vertex -2.658466e+02  6.042273e+02 -3.271537e+02
     vertex -2.670890e+02  6.046750e+02 -3.272575e+02
     vertex -2.663665e+02  6.054816e+02 -3.270507e+02
   endloop
 endfacet
 facet normal  1.305970e-01  1.347501e-01 -9.822356e-01
   outer loop
     vertex -2.681817e+02  6.018942e+02 -3.277842e+02
     vertex -2.690144e+02  6.011740e+02 -3.279938e+02
     vertex -2.694274e+02  6.024220e+02 -3.278774e+02
   endloop
 endfacet
 facet normal  1.305970e-01  1.347501e-01 -9.822356e-01
   outer loop
     vertex -2.681817e+02  6.018942e+02 -3.277842e+02
     vertex -2.694274e+02  6.024220e+02 -3.278774e+02
     vertex -2.686204e+02  6.031442e+02 -3.276711e+02
   endloop
 endfacet
 facet normal  1.305970e-01  1.347501e-01 -9.822356e-01
   outer loop
     vertex -2.665969e+02  6.034218e+02 -3.273639e+02
     vertex -2.678406e+02  6.038956e+02 -3.274643e+02
     vertex -2.670890e+02  6.046750e+02 -3.272575e+02
   endloop
 endfacet
 facet normal  1.305970e-01  1.347501e-01 -9.822356e-01
   outer loop
     vertex -2.665969e+02  6.034218e+02 -3.273639e+02
     vertex -2.670890e+02  6.046750e+02 -3.272575e+02
     vertex -2.658466e+02  6.042273e+02 -3.271537e+02
   endloop
 endfacet
 facet normal  1.305970e-01  1.347501e-01 -9.822356e-01
   outer loop
     vertex -2.673756e+02  6.026438e+02 -3.275742e+02
     vertex -2.686204e+02  6.031442e+02 -3.276711e+02
     vertex -2.678406e+02  6.038956e+02 -3.274643e+02
   endloop
 endfacet
 facet normal  1.305970e-01  1.347501e-01 -9.822356e-01
   outer loop
     vertex -2.673756e+02  6.026438e+02 -3.275742e+02
     vertex -2.681817e+02  6.018942e+02 -3.277842e+02
     vertex -2.686204e+02  6.031442e+02 -3.276711e+02
   endloop
 endfacet
 facet normal  1.305970e-01  1.347501e-01 -9.822356e-01
   outer loop
     vertex -2.673756e+02  6.026438e+02 -3.275742e+02
     vertex -2.678406e+02  6.038956e+02 -3.274643e+02
     vertex -2.665969e+02  6.034218e+02 -3.273639e+02
   endloop
 endfacet
endsolid
