solid 
 facet normal -8.056202e-01 -5.878095e-01 -7.386511e-02
   outer loop
     vertex -2.350765e+02  6.213515e+02 -5.726742e+02
     vertex -2.330808e+02  6.188530e+02 -5.745586e+02
     vertex -2.326249e+02  6.180304e+02 -5.729852e+02
   endloop
 endfacet
 facet normal -8.056202e-01 -5.878095e-01 -7.386511e-02
   outer loop
     vertex -2.350765e+02  6.213515e+02 -5.726742e+02
     vertex -2.326249e+02  6.180304e+02 -5.729852e+02
     vertex -2.346206e+02  6.205289e+02 -5.711007e+02
   endloop
 endfacet
endsolid
