solid 
 facet normal -4.007290e-01  9.800481e-02 -9.109398e-01
   outer loop
     vertex -2.357389e+02  6.706841e+02 -5.691154e+02
     vertex -2.449775e+02  6.698267e+02 -5.651435e+02
     vertex -2.450487e+02  6.716443e+02 -5.649166e+02
   endloop
 endfacet
 facet normal -4.007290e-01  9.800481e-02 -9.109398e-01
   outer loop
     vertex -2.358100e+02  6.725017e+02 -5.688885e+02
     vertex -2.357389e+02  6.706841e+02 -5.691154e+02
     vertex -2.450487e+02  6.716443e+02 -5.649166e+02
   endloop
 endfacet
endsolid
