solid 
 facet normal -1.749733e-02  9.908796e-01  1.336095e-01
   outer loop
     vertex -2.941163e+02  6.532498e+02 -2.963661e+02
     vertex -2.930054e+02  6.532495e+02 -2.962185e+02
     vertex -2.894366e+02  6.569318e+02 -3.230598e+02
   endloop
 endfacet
 facet normal -1.749733e-02  9.908796e-01  1.336095e-01
   outer loop
     vertex -2.941163e+02  6.532498e+02 -2.963661e+02
     vertex -2.894366e+02  6.569318e+02 -3.230598e+02
     vertex -2.905475e+02  6.569321e+02 -3.232075e+02
   endloop
 endfacet
 facet normal -5.247019e-02  9.902716e-01  1.288762e-01
   outer loop
     vertex -2.952259e+02  6.532109e+02 -2.965190e+02
     vertex -2.905475e+02  6.569321e+02 -3.232075e+02
     vertex -2.916571e+02  6.568932e+02 -3.233603e+02
   endloop
 endfacet
 facet normal -5.247019e-02  9.902716e-01  1.288762e-01
   outer loop
     vertex -2.952259e+02  6.532109e+02 -2.965190e+02
     vertex -2.941163e+02  6.532498e+02 -2.963661e+02
     vertex -2.905475e+02  6.569321e+02 -3.232075e+02
   endloop
 endfacet
 facet normal -8.737768e-02  9.884298e-01  1.239822e-01
   outer loop
     vertex -2.963326e+02  6.531329e+02 -2.966768e+02
     vertex -2.916571e+02  6.568932e+02 -3.233603e+02
     vertex -2.927638e+02  6.568152e+02 -3.235182e+02
   endloop
 endfacet
 facet normal -8.737768e-02  9.884298e-01  1.239822e-01
   outer loop
     vertex -2.963326e+02  6.531329e+02 -2.966768e+02
     vertex -2.952259e+02  6.532109e+02 -2.965190e+02
     vertex -2.916571e+02  6.568932e+02 -3.233603e+02
   endloop
 endfacet
 facet normal -1.221763e-01  9.853566e-01  1.189338e-01
   outer loop
     vertex -2.974352e+02  6.530158e+02 -2.968395e+02
     vertex -2.927638e+02  6.568152e+02 -3.235182e+02
     vertex -2.938664e+02  6.566981e+02 -3.236809e+02
   endloop
 endfacet
 facet normal -1.221763e-01  9.853566e-01  1.189338e-01
   outer loop
     vertex -2.974352e+02  6.530158e+02 -2.968395e+02
     vertex -2.963326e+02  6.531329e+02 -2.966768e+02
     vertex -2.927638e+02  6.568152e+02 -3.235182e+02
   endloop
 endfacet
 facet normal -1.568227e-01  9.810558e-01  1.137373e-01
   outer loop
     vertex -2.985323e+02  6.528598e+02 -2.970068e+02
     vertex -2.974352e+02  6.530158e+02 -2.968395e+02
     vertex -2.938664e+02  6.566981e+02 -3.236809e+02
   endloop
 endfacet
 facet normal -1.568227e-01  9.810558e-01  1.137373e-01
   outer loop
     vertex -2.985323e+02  6.528598e+02 -2.970068e+02
     vertex -2.938664e+02  6.566981e+02 -3.236809e+02
     vertex -2.949635e+02  6.565421e+02 -3.238481e+02
   endloop
 endfacet
 facet normal -1.912738e-01  9.755327e-01  1.083990e-01
   outer loop
     vertex -2.996225e+02  6.526652e+02 -2.971784e+02
     vertex -2.985323e+02  6.528598e+02 -2.970068e+02
     vertex -2.949635e+02  6.565421e+02 -3.238481e+02
   endloop
 endfacet
 facet normal -1.912738e-01  9.755327e-01  1.083990e-01
   outer loop
     vertex -2.996225e+02  6.526652e+02 -2.971784e+02
     vertex -2.949635e+02  6.565421e+02 -3.238481e+02
     vertex -2.960537e+02  6.563475e+02 -3.240198e+02
   endloop
 endfacet
 facet normal -2.254865e-01  9.687942e-01  1.029257e-01
   outer loop
     vertex -3.007045e+02  6.524320e+02 -2.973543e+02
     vertex -2.960537e+02  6.563475e+02 -3.240198e+02
     vertex -2.971357e+02  6.561143e+02 -3.241956e+02
   endloop
 endfacet
 facet normal -2.254865e-01  9.687942e-01  1.029257e-01
   outer loop
     vertex -3.007045e+02  6.524320e+02 -2.973543e+02
     vertex -2.996225e+02  6.526652e+02 -2.971784e+02
     vertex -2.960537e+02  6.563475e+02 -3.240198e+02
   endloop
 endfacet
 facet normal -2.594183e-01  9.608487e-01  9.732411e-02
   outer loop
     vertex -3.017769e+02  6.521607e+02 -2.975341e+02
     vertex -3.007045e+02  6.524320e+02 -2.973543e+02
     vertex -2.971357e+02  6.561143e+02 -3.241956e+02
   endloop
 endfacet
 facet normal -2.594183e-01  9.608487e-01  9.732411e-02
   outer loop
     vertex -3.017769e+02  6.521607e+02 -2.975341e+02
     vertex -2.971357e+02  6.561143e+02 -3.241956e+02
     vertex -2.982081e+02  6.558430e+02 -3.243754e+02
   endloop
 endfacet
 facet normal -2.930269e-01  9.517061e-01  9.160130e-02
   outer loop
     vertex -3.028383e+02  6.518516e+02 -2.977176e+02
     vertex -2.982081e+02  6.558430e+02 -3.243754e+02
     vertex -2.992695e+02  6.555338e+02 -3.245590e+02
   endloop
 endfacet
 facet normal -2.930269e-01  9.517061e-01  9.160130e-02
   outer loop
     vertex -3.028383e+02  6.518516e+02 -2.977176e+02
     vertex -3.017769e+02  6.521607e+02 -2.975341e+02
     vertex -2.982081e+02  6.558430e+02 -3.243754e+02
   endloop
 endfacet
 facet normal -3.262704e-01  9.413778e-01  8.576437e-02
   outer loop
     vertex -3.038875e+02  6.515050e+02 -2.979047e+02
     vertex -2.992695e+02  6.555338e+02 -3.245590e+02
     vertex -3.003187e+02  6.551872e+02 -3.247460e+02
   endloop
 endfacet
 facet normal -3.262704e-01  9.413778e-01  8.576437e-02
   outer loop
     vertex -3.038875e+02  6.515050e+02 -2.979047e+02
     vertex -3.028383e+02  6.518516e+02 -2.977176e+02
     vertex -2.992695e+02  6.555338e+02 -3.245590e+02
   endloop
 endfacet
 facet normal -3.591074e-01  9.298766e-01  7.982058e-02
   outer loop
     vertex -3.049231e+02  6.511213e+02 -2.980950e+02
     vertex -3.003187e+02  6.551872e+02 -3.247460e+02
     vertex -3.013543e+02  6.548036e+02 -3.249363e+02
   endloop
 endfacet
 facet normal -3.591074e-01  9.298766e-01  7.982058e-02
   outer loop
     vertex -3.049231e+02  6.511213e+02 -2.980950e+02
     vertex -3.038875e+02  6.515050e+02 -2.979047e+02
     vertex -3.003187e+02  6.551872e+02 -3.247460e+02
   endloop
 endfacet
 facet normal -3.914971e-01  9.172170e-01  7.377735e-02
   outer loop
     vertex -3.059439e+02  6.507012e+02 -2.982883e+02
     vertex -3.013543e+02  6.548036e+02 -3.249363e+02
     vertex -3.023751e+02  6.543835e+02 -3.251297e+02
   endloop
 endfacet
 facet normal -3.914971e-01  9.172170e-01  7.377735e-02
   outer loop
     vertex -3.059439e+02  6.507012e+02 -2.982883e+02
     vertex -3.049231e+02  6.511213e+02 -2.980950e+02
     vertex -3.013543e+02  6.548036e+02 -3.249363e+02
   endloop
 endfacet
 facet normal -4.233989e-01  9.034146e-01  6.764220e-02
   outer loop
     vertex -3.069486e+02  6.502450e+02 -2.984845e+02
     vertex -3.023751e+02  6.543835e+02 -3.251297e+02
     vertex -3.033798e+02  6.539273e+02 -3.253259e+02
   endloop
 endfacet
 facet normal -4.233989e-01  9.034146e-01  6.764220e-02
   outer loop
     vertex -3.069486e+02  6.502450e+02 -2.984845e+02
     vertex -3.059439e+02  6.507012e+02 -2.982883e+02
     vertex -3.023751e+02  6.543835e+02 -3.251297e+02
   endloop
 endfacet
 facet normal -4.547733e-01  8.884866e-01  6.142277e-02
   outer loop
     vertex -3.079359e+02  6.497534e+02 -2.986832e+02
     vertex -3.033798e+02  6.539273e+02 -3.253259e+02
     vertex -3.043671e+02  6.534357e+02 -3.255246e+02
   endloop
 endfacet
 facet normal -4.547733e-01  8.884866e-01  6.142277e-02
   outer loop
     vertex -3.079359e+02  6.497534e+02 -2.986832e+02
     vertex -3.069486e+02  6.502450e+02 -2.984845e+02
     vertex -3.033798e+02  6.539273e+02 -3.253259e+02
   endloop
 endfacet
 facet normal -4.855811e-01  8.724517e-01  5.512682e-02
   outer loop
     vertex -3.089046e+02  6.492270e+02 -2.988842e+02
     vertex -3.043671e+02  6.534357e+02 -3.255246e+02
     vertex -3.053358e+02  6.529093e+02 -3.257256e+02
   endloop
 endfacet
 facet normal -4.855811e-01  8.724517e-01  5.512682e-02
   outer loop
     vertex -3.089046e+02  6.492270e+02 -2.988842e+02
     vertex -3.079359e+02  6.497534e+02 -2.986832e+02
     vertex -3.043671e+02  6.534357e+02 -3.255246e+02
   endloop
 endfacet
 facet normal -5.157839e-01  8.553299e-01  4.876219e-02
   outer loop
     vertex -3.098535e+02  6.486663e+02 -2.990873e+02
     vertex -3.053358e+02  6.529093e+02 -3.257256e+02
     vertex -3.062847e+02  6.523486e+02 -3.259287e+02
   endloop
 endfacet
 facet normal -5.157839e-01  8.553299e-01  4.876219e-02
   outer loop
     vertex -3.098535e+02  6.486663e+02 -2.990873e+02
     vertex -3.089046e+02  6.492270e+02 -2.988842e+02
     vertex -3.053358e+02  6.529093e+02 -3.257256e+02
   endloop
 endfacet
 facet normal -5.453441e-01  8.371424e-01  4.233681e-02
   outer loop
     vertex -3.107814e+02  6.480722e+02 -2.992922e+02
     vertex -3.062847e+02  6.523486e+02 -3.259287e+02
     vertex -3.072126e+02  6.517545e+02 -3.261335e+02
   endloop
 endfacet
 facet normal -5.453441e-01  8.371424e-01  4.233681e-02
   outer loop
     vertex -3.107814e+02  6.480722e+02 -2.992922e+02
     vertex -3.098535e+02  6.486663e+02 -2.990873e+02
     vertex -3.062847e+02  6.523486e+02 -3.259287e+02
   endloop
 endfacet
 facet normal -5.742248e-01  8.179120e-01  3.585868e-02
   outer loop
     vertex -3.116871e+02  6.474454e+02 -2.994986e+02
     vertex -3.072126e+02  6.517545e+02 -3.261335e+02
     vertex -3.081183e+02  6.511277e+02 -3.263400e+02
   endloop
 endfacet
 facet normal -5.742248e-01  8.179120e-01  3.585868e-02
   outer loop
     vertex -3.116871e+02  6.474454e+02 -2.994986e+02
     vertex -3.107814e+02  6.480722e+02 -2.992922e+02
     vertex -3.072126e+02  6.517545e+02 -3.261335e+02
   endloop
 endfacet
 facet normal -6.023902e-01  7.976625e-01  2.933588e-02
   outer loop
     vertex -3.125696e+02  6.467866e+02 -2.997063e+02
     vertex -3.081183e+02  6.511277e+02 -3.263400e+02
     vertex -3.090008e+02  6.504689e+02 -3.265477e+02
   endloop
 endfacet
 facet normal -6.023902e-01  7.976625e-01  2.933588e-02
   outer loop
     vertex -3.125696e+02  6.467866e+02 -2.997063e+02
     vertex -3.116871e+02  6.474454e+02 -2.994986e+02
     vertex -3.081183e+02  6.511277e+02 -3.263400e+02
   endloop
 endfacet
 facet normal -6.298051e-01  7.764192e-01  2.277652e-02
   outer loop
     vertex -3.134277e+02  6.460967e+02 -2.999151e+02
     vertex -3.090008e+02  6.504689e+02 -3.265477e+02
     vertex -3.098589e+02  6.497790e+02 -3.267564e+02
   endloop
 endfacet
 facet normal -6.298051e-01  7.764192e-01  2.277652e-02
   outer loop
     vertex -3.134277e+02  6.460967e+02 -2.999151e+02
     vertex -3.125696e+02  6.467866e+02 -2.997063e+02
     vertex -3.090008e+02  6.504689e+02 -3.265477e+02
   endloop
 endfacet
 facet normal -6.564353e-01  7.542086e-01  1.618879e-02
   outer loop
     vertex -3.142603e+02  6.453765e+02 -3.001246e+02
     vertex -3.098589e+02  6.497790e+02 -3.267564e+02
     vertex -3.106915e+02  6.490587e+02 -3.269659e+02
   endloop
 endfacet
 facet normal -6.564353e-01  7.542086e-01  1.618879e-02
   outer loop
     vertex -3.142603e+02  6.453765e+02 -3.001246e+02
     vertex -3.134277e+02  6.460967e+02 -2.999151e+02
     vertex -3.098589e+02  6.497790e+02 -3.267564e+02
   endloop
 endfacet
 facet normal -6.822476e-01  7.310584e-01  9.580895e-03
   outer loop
     vertex -3.150665e+02  6.446269e+02 -3.003346e+02
     vertex -3.106915e+02  6.490587e+02 -3.269659e+02
     vertex -3.114977e+02  6.483091e+02 -3.271759e+02
   endloop
 endfacet
 facet normal -6.822476e-01  7.310584e-01  9.580895e-03
   outer loop
     vertex -3.150665e+02  6.446269e+02 -3.003346e+02
     vertex -3.142603e+02  6.453765e+02 -3.001246e+02
     vertex -3.106915e+02  6.490587e+02 -3.269659e+02
   endloop
 endfacet
 facet normal -7.072100e-01  7.069974e-01  2.961060e-03
   outer loop
     vertex -3.158452e+02  6.438488e+02 -3.005449e+02
     vertex -3.114977e+02  6.483091e+02 -3.271759e+02
     vertex -3.122764e+02  6.475311e+02 -3.273862e+02
   endloop
 endfacet
 facet normal -7.072100e-01  7.069974e-01  2.961060e-03
   outer loop
     vertex -3.158452e+02  6.438488e+02 -3.005449e+02
     vertex -3.150665e+02  6.446269e+02 -3.003346e+02
     vertex -3.114977e+02  6.483091e+02 -3.271759e+02
   endloop
 endfacet
 facet normal -7.312912e-01  6.820555e-01 -3.662465e-03
   outer loop
     vertex -3.165954e+02  6.430433e+02 -3.007551e+02
     vertex -3.122764e+02  6.475311e+02 -3.273862e+02
     vertex -3.130266e+02  6.467256e+02 -3.275965e+02
   endloop
 endfacet
 facet normal -7.312912e-01  6.820555e-01 -3.662465e-03
   outer loop
     vertex -3.165954e+02  6.430433e+02 -3.007551e+02
     vertex -3.158452e+02  6.438488e+02 -3.005449e+02
     vertex -3.122764e+02  6.475311e+02 -3.273862e+02
   endloop
 endfacet
 facet normal -7.544614e-01  6.562639e-01 -1.028143e-02
   outer loop
     vertex -3.173163e+02  6.422113e+02 -3.009651e+02
     vertex -3.130266e+02  6.467256e+02 -3.275965e+02
     vertex -3.137475e+02  6.458936e+02 -3.278065e+02
   endloop
 endfacet
 facet normal -7.544614e-01  6.562639e-01 -1.028143e-02
   outer loop
     vertex -3.173163e+02  6.422113e+02 -3.009651e+02
     vertex -3.165954e+02  6.430433e+02 -3.007551e+02
     vertex -3.130266e+02  6.467256e+02 -3.275965e+02
   endloop
 endfacet
 facet normal -7.766916e-01  6.296546e-01 -1.688758e-02
   outer loop
     vertex -3.180068e+02  6.413539e+02 -3.011745e+02
     vertex -3.137475e+02  6.458936e+02 -3.278065e+02
     vertex -3.144380e+02  6.450362e+02 -3.280159e+02
   endloop
 endfacet
 facet normal -7.766916e-01  6.296546e-01 -1.688758e-02
   outer loop
     vertex -3.180068e+02  6.413539e+02 -3.011745e+02
     vertex -3.173163e+02  6.422113e+02 -3.009651e+02
     vertex -3.137475e+02  6.458936e+02 -3.278065e+02
   endloop
 endfacet
 facet normal -7.979542e-01  6.022609e-01 -2.347269e-02
   outer loop
     vertex -3.186662e+02  6.404721e+02 -3.013832e+02
     vertex -3.144380e+02  6.450362e+02 -3.280159e+02
     vertex -3.150974e+02  6.441544e+02 -3.282245e+02
   endloop
 endfacet
 facet normal -7.979542e-01  6.022609e-01 -2.347269e-02
   outer loop
     vertex -3.186662e+02  6.404721e+02 -3.013832e+02
     vertex -3.180068e+02  6.413539e+02 -3.011745e+02
     vertex -3.144380e+02  6.450362e+02 -3.280159e+02
   endloop
 endfacet
 facet normal -8.182226e-01  5.741168e-01 -3.002856e-02
   outer loop
     vertex -3.192937e+02  6.395670e+02 -3.015908e+02
     vertex -3.150974e+02  6.441544e+02 -3.282245e+02
     vertex -3.157249e+02  6.432493e+02 -3.284321e+02
   endloop
 endfacet
 facet normal -8.182226e-01  5.741168e-01 -3.002856e-02
   outer loop
     vertex -3.192937e+02  6.395670e+02 -3.015908e+02
     vertex -3.186662e+02  6.404721e+02 -3.013832e+02
     vertex -3.150974e+02  6.441544e+02 -3.282245e+02
   endloop
 endfacet
 facet normal -8.374715e-01  5.452575e-01 -3.654702e-02
   outer loop
     vertex -3.198884e+02  6.386398e+02 -3.017970e+02
     vertex -3.157249e+02  6.432493e+02 -3.284321e+02
     vertex -3.163196e+02  6.423221e+02 -3.286384e+02
   endloop
 endfacet
 facet normal -8.374715e-01  5.452575e-01 -3.654702e-02
   outer loop
     vertex -3.198884e+02  6.386398e+02 -3.017970e+02
     vertex -3.192937e+02  6.395670e+02 -3.015908e+02
     vertex -3.157249e+02  6.432493e+02 -3.284321e+02
   endloop
 endfacet
 facet normal -8.556771e-01  5.157188e-01 -4.301994e-02
   outer loop
     vertex -3.204495e+02  6.376916e+02 -3.020017e+02
     vertex -3.198884e+02  6.386398e+02 -3.017970e+02
     vertex -3.163196e+02  6.423221e+02 -3.286384e+02
   endloop
 endfacet
 facet normal -8.556771e-01  5.157188e-01 -4.301994e-02
   outer loop
     vertex -3.204495e+02  6.376916e+02 -3.020017e+02
     vertex -3.163196e+02  6.423221e+02 -3.286384e+02
     vertex -3.168807e+02  6.413739e+02 -3.288431e+02
   endloop
 endfacet
 facet normal -8.728167e-01  4.855376e-01 -4.943927e-02
   outer loop
     vertex -3.209765e+02  6.367236e+02 -3.022046e+02
     vertex -3.204495e+02  6.376916e+02 -3.020017e+02
     vertex -3.168807e+02  6.413739e+02 -3.288431e+02
   endloop
 endfacet
 facet normal -8.728167e-01  4.855376e-01 -4.943927e-02
   outer loop
     vertex -3.209765e+02  6.367236e+02 -3.022046e+02
     vertex -3.168807e+02  6.413739e+02 -3.288431e+02
     vertex -3.174077e+02  6.404059e+02 -3.290460e+02
   endloop
 endfacet
 facet normal -8.888688e-01  4.547515e-01 -5.579700e-02
   outer loop
     vertex -3.214687e+02  6.357370e+02 -3.024054e+02
     vertex -3.209765e+02  6.367236e+02 -3.022046e+02
     vertex -3.174077e+02  6.404059e+02 -3.290460e+02
   endloop
 endfacet
 facet normal -8.888688e-01  4.547515e-01 -5.579700e-02
   outer loop
     vertex -3.214687e+02  6.357370e+02 -3.024054e+02
     vertex -3.174077e+02  6.404059e+02 -3.290460e+02
     vertex -3.178999e+02  6.394193e+02 -3.292468e+02
   endloop
 endfacet
 facet normal -9.038135e-01  4.233989e-01 -6.208521e-02
   outer loop
     vertex -3.219254e+02  6.347330e+02 -3.026039e+02
     vertex -3.214687e+02  6.357370e+02 -3.024054e+02
     vertex -3.178999e+02  6.394193e+02 -3.292468e+02
   endloop
 endfacet
 facet normal -9.038135e-01  4.233989e-01 -6.208521e-02
   outer loop
     vertex -3.219254e+02  6.347330e+02 -3.026039e+02
     vertex -3.178999e+02  6.394193e+02 -3.292468e+02
     vertex -3.183566e+02  6.384153e+02 -3.294452e+02
   endloop
 endfacet
 facet normal -9.176321e-01  3.915187e-01 -6.829608e-02
   outer loop
     vertex -3.223460e+02  6.337129e+02 -3.027997e+02
     vertex -3.219254e+02  6.347330e+02 -3.026039e+02
     vertex -3.183566e+02  6.384153e+02 -3.294452e+02
   endloop
 endfacet
 facet normal -9.176321e-01  3.915187e-01 -6.829608e-02
   outer loop
     vertex -3.223460e+02  6.337129e+02 -3.027997e+02
     vertex -3.183566e+02  6.384153e+02 -3.294452e+02
     vertex -3.187772e+02  6.373952e+02 -3.296411e+02
   endloop
 endfacet
 facet normal -9.303075e-01  3.591507e-01 -7.442185e-02
   outer loop
     vertex -3.227301e+02  6.326780e+02 -3.029928e+02
     vertex -3.223460e+02  6.337129e+02 -3.027997e+02
     vertex -3.187772e+02  6.373952e+02 -3.296411e+02
   endloop
 endfacet
 facet normal -9.303075e-01  3.591507e-01 -7.442185e-02
   outer loop
     vertex -3.227301e+02  6.326780e+02 -3.029928e+02
     vertex -3.187772e+02  6.373952e+02 -3.296411e+02
     vertex -3.191614e+02  6.363602e+02 -3.298341e+02
   endloop
 endfacet
 facet normal -9.418239e-01  3.263353e-01 -8.045491e-02
   outer loop
     vertex -3.230772e+02  6.316294e+02 -3.031828e+02
     vertex -3.227301e+02  6.326780e+02 -3.029928e+02
     vertex -3.191614e+02  6.363602e+02 -3.298341e+02
   endloop
 endfacet
 facet normal -9.418239e-01  3.263353e-01 -8.045491e-02
   outer loop
     vertex -3.230772e+02  6.316294e+02 -3.031828e+02
     vertex -3.191614e+02  6.363602e+02 -3.298341e+02
     vertex -3.195084e+02  6.353117e+02 -3.300241e+02
   endloop
 endfacet
 facet normal -9.521669e-01  2.931133e-01 -8.638773e-02
   outer loop
     vertex -3.233868e+02  6.305687e+02 -3.033695e+02
     vertex -3.230772e+02  6.316294e+02 -3.031828e+02
     vertex -3.195084e+02  6.353117e+02 -3.300241e+02
   endloop
 endfacet
 facet normal -9.521669e-01  2.931133e-01 -8.638773e-02
   outer loop
     vertex -3.233868e+02  6.305687e+02 -3.033695e+02
     vertex -3.195084e+02  6.353117e+02 -3.300241e+02
     vertex -3.198180e+02  6.342510e+02 -3.302108e+02
   endloop
 endfacet
 facet normal -9.613235e-01  2.595262e-01 -9.221292e-02
   outer loop
     vertex -3.236586e+02  6.294970e+02 -3.035526e+02
     vertex -3.233868e+02  6.305687e+02 -3.033695e+02
     vertex -3.198180e+02  6.342510e+02 -3.302108e+02
   endloop
 endfacet
 facet normal -9.613235e-01  2.595262e-01 -9.221292e-02
   outer loop
     vertex -3.236586e+02  6.294970e+02 -3.035526e+02
     vertex -3.198180e+02  6.342510e+02 -3.302108e+02
     vertex -3.200898e+02  6.331793e+02 -3.303940e+02
   endloop
 endfacet
 facet normal -9.692825e-01  2.256157e-01 -9.792322e-02
   outer loop
     vertex -3.238921e+02  6.284157e+02 -3.037320e+02
     vertex -3.236586e+02  6.294970e+02 -3.035526e+02
     vertex -3.200898e+02  6.331793e+02 -3.303940e+02
   endloop
 endfacet
 facet normal -9.692825e-01  2.256157e-01 -9.792322e-02
   outer loop
     vertex -3.238921e+02  6.284157e+02 -3.037320e+02
     vertex -3.200898e+02  6.331793e+02 -3.303940e+02
     vertex -3.203233e+02  6.320980e+02 -3.305734e+02
   endloop
 endfacet
 facet normal -9.760339e-01  1.914241e-01 -1.035115e-01
   outer loop
     vertex -3.240872e+02  6.273262e+02 -3.039074e+02
     vertex -3.203233e+02  6.320980e+02 -3.305734e+02
     vertex -3.205184e+02  6.310085e+02 -3.307488e+02
   endloop
 endfacet
 facet normal -9.760339e-01  1.914241e-01 -1.035115e-01
   outer loop
     vertex -3.240872e+02  6.273262e+02 -3.039074e+02
     vertex -3.238921e+02  6.284157e+02 -3.037320e+02
     vertex -3.203233e+02  6.320980e+02 -3.305734e+02
   endloop
 endfacet
 facet normal -9.815693e-01  1.569940e-01 -1.089709e-01
   outer loop
     vertex -3.242436e+02  6.262297e+02 -3.040786e+02
     vertex -3.205184e+02  6.310085e+02 -3.307488e+02
     vertex -3.206748e+02  6.299120e+02 -3.309200e+02
   endloop
 endfacet
 facet normal -9.815693e-01  1.569940e-01 -1.089709e-01
   outer loop
     vertex -3.242436e+02  6.262297e+02 -3.040786e+02
     vertex -3.240872e+02  6.273262e+02 -3.039074e+02
     vertex -3.205184e+02  6.310085e+02 -3.307488e+02
   endloop
 endfacet
 facet normal -9.858817e-01  1.223683e-01 -1.142944e-01
   outer loop
     vertex -3.243610e+02  6.251278e+02 -3.042454e+02
     vertex -3.206748e+02  6.299120e+02 -3.309200e+02
     vertex -3.207922e+02  6.288101e+02 -3.310868e+02
   endloop
 endfacet
 facet normal -9.858817e-01  1.223683e-01 -1.142944e-01
   outer loop
     vertex -3.243610e+02  6.251278e+02 -3.042454e+02
     vertex -3.242436e+02  6.262297e+02 -3.040786e+02
     vertex -3.206748e+02  6.299120e+02 -3.309200e+02
   endloop
 endfacet
 facet normal -9.889659e-01  8.759017e-02 -1.194756e-01
   outer loop
     vertex -3.244394e+02  6.240217e+02 -3.044076e+02
     vertex -3.207922e+02  6.288101e+02 -3.310868e+02
     vertex -3.208706e+02  6.277040e+02 -3.312489e+02
   endloop
 endfacet
 facet normal -9.889659e-01  8.759017e-02 -1.194756e-01
   outer loop
     vertex -3.244394e+02  6.240217e+02 -3.044076e+02
     vertex -3.243610e+02  6.251278e+02 -3.042454e+02
     vertex -3.207922e+02  6.288101e+02 -3.310868e+02
   endloop
 endfacet
 facet normal -9.908179e-01  5.270291e-02 -1.245080e-01
   outer loop
     vertex -3.244786e+02  6.229128e+02 -3.045649e+02
     vertex -3.208706e+02  6.277040e+02 -3.312489e+02
     vertex -3.209098e+02  6.265951e+02 -3.314063e+02
   endloop
 endfacet
 facet normal -9.908179e-01  5.270291e-02 -1.245080e-01
   outer loop
     vertex -3.244786e+02  6.229128e+02 -3.045649e+02
     vertex -3.244394e+02  6.240217e+02 -3.044076e+02
     vertex -3.208706e+02  6.277040e+02 -3.312489e+02
   endloop
 endfacet
 facet normal -9.914355e-01  1.774998e-02 -1.293852e-01
   outer loop
     vertex -3.244786e+02  6.218025e+02 -3.047172e+02
     vertex -3.209098e+02  6.265951e+02 -3.314063e+02
     vertex -3.209098e+02  6.254848e+02 -3.315586e+02
   endloop
 endfacet
 facet normal -9.914355e-01  1.774998e-02 -1.293852e-01
   outer loop
     vertex -3.244786e+02  6.218025e+02 -3.047172e+02
     vertex -3.244786e+02  6.229128e+02 -3.045649e+02
     vertex -3.209098e+02  6.265951e+02 -3.314063e+02
   endloop
 endfacet
 facet normal -9.908179e-01 -1.722506e-02 -1.341012e-01
   outer loop
     vertex -3.244394e+02  6.206922e+02 -3.048643e+02
     vertex -3.209098e+02  6.254848e+02 -3.315586e+02
     vertex -3.208706e+02  6.243745e+02 -3.317057e+02
   endloop
 endfacet
 facet normal -9.908179e-01 -1.722506e-02 -1.341012e-01
   outer loop
     vertex -3.244394e+02  6.206922e+02 -3.048643e+02
     vertex -3.244786e+02  6.218025e+02 -3.047172e+02
     vertex -3.209098e+02  6.254848e+02 -3.315586e+02
   endloop
 endfacet
 facet normal -9.889659e-01 -5.217863e-02 -1.386501e-01
   outer loop
     vertex -3.243610e+02  6.195833e+02 -3.050060e+02
     vertex -3.208706e+02  6.243745e+02 -3.317057e+02
     vertex -3.207922e+02  6.232656e+02 -3.318474e+02
   endloop
 endfacet
 facet normal -9.889659e-01 -5.217863e-02 -1.386501e-01
   outer loop
     vertex -3.243610e+02  6.195833e+02 -3.050060e+02
     vertex -3.244394e+02  6.206922e+02 -3.048643e+02
     vertex -3.208706e+02  6.243745e+02 -3.317057e+02
   endloop
 endfacet
 facet normal -9.858817e-01 -8.706720e-02 -1.430263e-01
   outer loop
     vertex -3.242436e+02  6.184771e+02 -3.051422e+02
     vertex -3.207922e+02  6.232656e+02 -3.318474e+02
     vertex -3.206748e+02  6.221594e+02 -3.319835e+02
   endloop
 endfacet
 facet normal -9.858817e-01 -8.706720e-02 -1.430263e-01
   outer loop
     vertex -3.242436e+02  6.184771e+02 -3.051422e+02
     vertex -3.243610e+02  6.195833e+02 -3.050060e+02
     vertex -3.207922e+02  6.232656e+02 -3.318474e+02
   endloop
 endfacet
 facet normal -9.815693e-01 -1.218473e-01 -1.472243e-01
   outer loop
     vertex -3.240872e+02  6.173751e+02 -3.052726e+02
     vertex -3.206748e+02  6.221594e+02 -3.319835e+02
     vertex -3.205184e+02  6.210574e+02 -3.321139e+02
   endloop
 endfacet
 facet normal -9.815693e-01 -1.218473e-01 -1.472243e-01
   outer loop
     vertex -3.240872e+02  6.173751e+02 -3.052726e+02
     vertex -3.242436e+02  6.184771e+02 -3.051422e+02
     vertex -3.206748e+02  6.221594e+02 -3.319835e+02
   endloop
 endfacet
 facet normal -9.760339e-01 -1.564756e-01 -1.512389e-01
   outer loop
     vertex -3.238921e+02  6.162786e+02 -3.053971e+02
     vertex -3.205184e+02  6.210574e+02 -3.321139e+02
     vertex -3.203233e+02  6.199609e+02 -3.322384e+02
   endloop
 endfacet
 facet normal -9.760339e-01 -1.564756e-01 -1.512389e-01
   outer loop
     vertex -3.238921e+02  6.162786e+02 -3.053971e+02
     vertex -3.240872e+02  6.173751e+02 -3.052726e+02
     vertex -3.205184e+02  6.210574e+02 -3.321139e+02
   endloop
 endfacet
 facet normal -9.692825e-01 -1.909089e-01 -1.550650e-01
   outer loop
     vertex -3.236586e+02  6.151889e+02 -3.055155e+02
     vertex -3.203233e+02  6.199609e+02 -3.322384e+02
     vertex -3.200898e+02  6.188712e+02 -3.323568e+02
   endloop
 endfacet
 facet normal -9.692825e-01 -1.909089e-01 -1.550650e-01
   outer loop
     vertex -3.236586e+02  6.151889e+02 -3.055155e+02
     vertex -3.238921e+02  6.162786e+02 -3.053971e+02
     vertex -3.203233e+02  6.199609e+02 -3.322384e+02
   endloop
 endfacet
 facet normal -9.613235e-01 -2.251044e-01 -1.586980e-01
   outer loop
     vertex -3.233868e+02  6.141075e+02 -3.056277e+02
     vertex -3.200898e+02  6.188712e+02 -3.323568e+02
     vertex -3.198180e+02  6.177898e+02 -3.324691e+02
   endloop
 endfacet
 facet normal -9.613235e-01 -2.251044e-01 -1.586980e-01
   outer loop
     vertex -3.233868e+02  6.141075e+02 -3.056277e+02
     vertex -3.236586e+02  6.151889e+02 -3.055155e+02
     vertex -3.200898e+02  6.188712e+02 -3.323568e+02
   endloop
 endfacet
 facet normal -9.521669e-01 -2.590195e-01 -1.621333e-01
   outer loop
     vertex -3.230772e+02  6.130357e+02 -3.057336e+02
     vertex -3.198180e+02  6.177898e+02 -3.324691e+02
     vertex -3.195084e+02  6.167179e+02 -3.325750e+02
   endloop
 endfacet
 facet normal -9.521669e-01 -2.590195e-01 -1.621333e-01
   outer loop
     vertex -3.230772e+02  6.130357e+02 -3.057336e+02
     vertex -3.233868e+02  6.141075e+02 -3.056277e+02
     vertex -3.198180e+02  6.177898e+02 -3.324691e+02
   endloop
 endfacet
 facet normal -9.418239e-01 -2.926118e-01 -1.653665e-01
   outer loop
     vertex -3.227301e+02  6.119747e+02 -3.058330e+02
     vertex -3.195084e+02  6.167179e+02 -3.325750e+02
     vertex -3.191614e+02  6.156570e+02 -3.326744e+02
   endloop
 endfacet
 facet normal -9.418239e-01 -2.926118e-01 -1.653665e-01
   outer loop
     vertex -3.227301e+02  6.119747e+02 -3.058330e+02
     vertex -3.230772e+02  6.130357e+02 -3.057336e+02
     vertex -3.195084e+02  6.167179e+02 -3.325750e+02
   endloop
 endfacet
 facet normal -9.303075e-01 -3.258396e-01 -1.683937e-01
   outer loop
     vertex -3.223460e+02  6.109260e+02 -3.059258e+02
     vertex -3.191614e+02  6.156570e+02 -3.326744e+02
     vertex -3.187772e+02  6.146083e+02 -3.327671e+02
   endloop
 endfacet
 facet normal -9.303075e-01 -3.258396e-01 -1.683937e-01
   outer loop
     vertex -3.223460e+02  6.109260e+02 -3.059258e+02
     vertex -3.227301e+02  6.119747e+02 -3.058330e+02
     vertex -3.191614e+02  6.156570e+02 -3.326744e+02
   endloop
 endfacet
 facet normal -9.176321e-01 -3.586614e-01 -1.712111e-01
   outer loop
     vertex -3.219254e+02  6.098909e+02 -3.060119e+02
     vertex -3.223460e+02  6.109260e+02 -3.059258e+02
     vertex -3.187772e+02  6.146083e+02 -3.327671e+02
   endloop
 endfacet
 facet normal -9.176321e-01 -3.586614e-01 -1.712111e-01
   outer loop
     vertex -3.219254e+02  6.098909e+02 -3.060119e+02
     vertex -3.187772e+02  6.146083e+02 -3.327671e+02
     vertex -3.183566e+02  6.135731e+02 -3.328532e+02
   endloop
 endfacet
 facet normal -9.038135e-01 -3.910364e-01 -1.738153e-01
   outer loop
     vertex -3.214687e+02  6.088705e+02 -3.060911e+02
     vertex -3.219254e+02  6.098909e+02 -3.060119e+02
     vertex -3.183566e+02  6.135731e+02 -3.328532e+02
   endloop
 endfacet
 facet normal -9.038135e-01 -3.910364e-01 -1.738153e-01
   outer loop
     vertex -3.214687e+02  6.088705e+02 -3.060911e+02
     vertex -3.183566e+02  6.135731e+02 -3.328532e+02
     vertex -3.178999e+02  6.125528e+02 -3.329325e+02
   endloop
 endfacet
 facet normal -8.888688e-01 -4.229241e-01 -1.762028e-01
   outer loop
     vertex -3.209765e+02  6.078663e+02 -3.061635e+02
     vertex -3.214687e+02  6.088705e+02 -3.060911e+02
     vertex -3.178999e+02  6.125528e+02 -3.329325e+02
   endloop
 endfacet
 facet normal -8.888688e-01 -4.229241e-01 -1.762028e-01
   outer loop
     vertex -3.209765e+02  6.078663e+02 -3.061635e+02
     vertex -3.178999e+02  6.125528e+02 -3.329325e+02
     vertex -3.174077e+02  6.115486e+02 -3.330048e+02
   endloop
 endfacet
 facet normal -8.728167e-01 -4.542850e-01 -1.783709e-01
   outer loop
     vertex -3.204495e+02  6.068794e+02 -3.062288e+02
     vertex -3.209765e+02  6.078663e+02 -3.061635e+02
     vertex -3.174077e+02  6.115486e+02 -3.330048e+02
   endloop
 endfacet
 facet normal -8.728167e-01 -4.542850e-01 -1.783709e-01
   outer loop
     vertex -3.204495e+02  6.068794e+02 -3.062288e+02
     vertex -3.174077e+02  6.115486e+02 -3.330048e+02
     vertex -3.168807e+02  6.105617e+02 -3.330701e+02
   endloop
 endfacet
 facet normal -8.556771e-01 -4.850799e-01 -1.803167e-01
   outer loop
     vertex -3.198884e+02  6.059111e+02 -3.062870e+02
     vertex -3.204495e+02  6.068794e+02 -3.062288e+02
     vertex -3.168807e+02  6.105617e+02 -3.330701e+02
   endloop
 endfacet
 facet normal -8.556771e-01 -4.850799e-01 -1.803167e-01
   outer loop
     vertex -3.198884e+02  6.059111e+02 -3.062870e+02
     vertex -3.168807e+02  6.105617e+02 -3.330701e+02
     vertex -3.163196e+02  6.095934e+02 -3.331284e+02
   endloop
 endfacet
 facet normal -8.374715e-01 -5.152705e-01 -1.820378e-01
   outer loop
     vertex -3.192937e+02  6.049626e+02 -3.063381e+02
     vertex -3.198884e+02  6.059111e+02 -3.062870e+02
     vertex -3.163196e+02  6.095934e+02 -3.331284e+02
   endloop
 endfacet
 facet normal -8.374715e-01 -5.152705e-01 -1.820378e-01
   outer loop
     vertex -3.192937e+02  6.049626e+02 -3.063381e+02
     vertex -3.163196e+02  6.095934e+02 -3.331284e+02
     vertex -3.157249e+02  6.086449e+02 -3.331794e+02
   endloop
 endfacet
 facet normal -8.182226e-01 -5.448190e-01 -1.835322e-01
   outer loop
     vertex -3.192937e+02  6.049626e+02 -3.063381e+02
     vertex -3.157249e+02  6.086449e+02 -3.331794e+02
     vertex -3.150974e+02  6.077174e+02 -3.332232e+02
   endloop
 endfacet
 facet normal -8.182226e-01 -5.448190e-01 -1.835322e-01
   outer loop
     vertex -3.186662e+02  6.040351e+02 -3.063819e+02
     vertex -3.192937e+02  6.049626e+02 -3.063381e+02
     vertex -3.150974e+02  6.077174e+02 -3.332232e+02
   endloop
 endfacet
 facet normal -7.979542e-01 -5.736889e-01 -1.847979e-01
   outer loop
     vertex -3.180068e+02  6.031297e+02 -3.064184e+02
     vertex -3.186662e+02  6.040351e+02 -3.063819e+02
     vertex -3.150974e+02  6.077174e+02 -3.332232e+02
   endloop
 endfacet
 facet normal -7.979542e-01 -5.736889e-01 -1.847979e-01
   outer loop
     vertex -3.180068e+02  6.031297e+02 -3.064184e+02
     vertex -3.150974e+02  6.077174e+02 -3.332232e+02
     vertex -3.144380e+02  6.068120e+02 -3.332598e+02
   endloop
 endfacet
 facet normal -7.766916e-01 -6.018439e-01 -1.858334e-01
   outer loop
     vertex -3.173163e+02  6.022475e+02 -3.064476e+02
     vertex -3.180068e+02  6.031297e+02 -3.064184e+02
     vertex -3.144380e+02  6.068120e+02 -3.332598e+02
   endloop
 endfacet
 facet normal -7.766916e-01 -6.018439e-01 -1.858334e-01
   outer loop
     vertex -3.173163e+02  6.022475e+02 -3.064476e+02
     vertex -3.144380e+02  6.068120e+02 -3.332598e+02
     vertex -3.137475e+02  6.059298e+02 -3.332890e+02
   endloop
 endfacet
 facet normal -7.544614e-01 -6.292492e-01 -1.866373e-01
   outer loop
     vertex -3.173163e+02  6.022475e+02 -3.064476e+02
     vertex -3.137475e+02  6.059298e+02 -3.332890e+02
     vertex -3.130266e+02  6.050720e+02 -3.333108e+02
   endloop
 endfacet
 facet normal -7.544614e-01 -6.292492e-01 -1.866373e-01
   outer loop
     vertex -3.165954e+02  6.013897e+02 -3.064695e+02
     vertex -3.173163e+02  6.022475e+02 -3.064476e+02
     vertex -3.130266e+02  6.050720e+02 -3.333108e+02
   endloop
 endfacet
 facet normal -7.312912e-01 -6.558704e-01 -1.872087e-01
   outer loop
     vertex -3.158452e+02  6.005573e+02 -3.064839e+02
     vertex -3.165954e+02  6.013897e+02 -3.064695e+02
     vertex -3.130266e+02  6.050720e+02 -3.333108e+02
   endloop
 endfacet
 facet normal -7.312912e-01 -6.558704e-01 -1.872087e-01
   outer loop
     vertex -3.158452e+02  6.005573e+02 -3.064839e+02
     vertex -3.130266e+02  6.050720e+02 -3.333108e+02
     vertex -3.122764e+02  6.042396e+02 -3.333253e+02
   endloop
 endfacet
 facet normal -7.072100e-01 -6.816746e-01 -1.875469e-01
   outer loop
     vertex -3.150665e+02  5.997514e+02 -3.064909e+02
     vertex -3.158452e+02  6.005573e+02 -3.064839e+02
     vertex -3.122764e+02  6.042396e+02 -3.333253e+02
   endloop
 endfacet
 facet normal -7.072100e-01 -6.816746e-01 -1.875469e-01
   outer loop
     vertex -3.150665e+02  5.997514e+02 -3.064909e+02
     vertex -3.122764e+02  6.042396e+02 -3.333253e+02
     vertex -3.114977e+02  6.034337e+02 -3.333323e+02
   endloop
 endfacet
 facet normal -6.822476e-01 -7.066294e-01 -1.876514e-01
   outer loop
     vertex -3.142603e+02  5.989729e+02 -3.064905e+02
     vertex -3.150665e+02  5.997514e+02 -3.064909e+02
     vertex -3.114977e+02  6.034337e+02 -3.333323e+02
   endloop
 endfacet
 facet normal -6.822476e-01 -7.066294e-01 -1.876514e-01
   outer loop
     vertex -3.142603e+02  5.989729e+02 -3.064905e+02
     vertex -3.114977e+02  6.034337e+02 -3.333323e+02
     vertex -3.106915e+02  6.026552e+02 -3.333319e+02
   endloop
 endfacet
 facet normal -6.564353e-01 -7.307039e-01 -1.875221e-01
   outer loop
     vertex -3.134277e+02  5.982229e+02 -3.064827e+02
     vertex -3.142603e+02  5.989729e+02 -3.064905e+02
     vertex -3.106915e+02  6.026552e+02 -3.333319e+02
   endloop
 endfacet
 facet normal -6.564353e-01 -7.307039e-01 -1.875221e-01
   outer loop
     vertex -3.134277e+02  5.982229e+02 -3.064827e+02
     vertex -3.106915e+02  6.026552e+02 -3.333319e+02
     vertex -3.098589e+02  6.019052e+02 -3.333241e+02
   endloop
 endfacet
 facet normal -6.298051e-01 -7.538680e-01 -1.871592e-01
   outer loop
     vertex -3.125696e+02  5.975023e+02 -3.064675e+02
     vertex -3.134277e+02  5.982229e+02 -3.064827e+02
     vertex -3.098589e+02  6.019052e+02 -3.333241e+02
   endloop
 endfacet
 facet normal -6.298051e-01 -7.538680e-01 -1.871592e-01
   outer loop
     vertex -3.125696e+02  5.975023e+02 -3.064675e+02
     vertex -3.098589e+02  6.019052e+02 -3.333241e+02
     vertex -3.090008e+02  6.011845e+02 -3.333088e+02
   endloop
 endfacet
 facet normal -6.023902e-01 -7.760929e-01 -1.865632e-01
   outer loop
     vertex -3.125696e+02  5.975023e+02 -3.064675e+02
     vertex -3.090008e+02  6.011845e+02 -3.333088e+02
     vertex -3.081183e+02  6.004941e+02 -3.332862e+02
   endloop
 endfacet
 facet normal -6.023902e-01 -7.760929e-01 -1.865632e-01
   outer loop
     vertex -3.116871e+02  5.968119e+02 -3.064449e+02
     vertex -3.125696e+02  5.975023e+02 -3.064675e+02
     vertex -3.081183e+02  6.004941e+02 -3.332862e+02
   endloop
 endfacet
 facet normal -5.742248e-01 -7.973509e-01 -1.857346e-01
   outer loop
     vertex -3.107814e+02  5.961526e+02 -3.064149e+02
     vertex -3.116871e+02  5.968119e+02 -3.064449e+02
     vertex -3.081183e+02  6.004941e+02 -3.332862e+02
   endloop
 endfacet
 facet normal -5.742248e-01 -7.973509e-01 -1.857346e-01
   outer loop
     vertex -3.107814e+02  5.961526e+02 -3.064149e+02
     vertex -3.081183e+02  6.004941e+02 -3.332862e+02
     vertex -3.072126e+02  5.998349e+02 -3.332562e+02
   endloop
 endfacet
 facet normal -5.453441e-01 -8.176155e-01 -1.846747e-01
   outer loop
     vertex -3.098535e+02  5.955253e+02 -3.063776e+02
     vertex -3.072126e+02  5.998349e+02 -3.332562e+02
     vertex -3.062847e+02  5.992075e+02 -3.332189e+02
   endloop
 endfacet
 facet normal -5.453441e-01 -8.176155e-01 -1.846747e-01
   outer loop
     vertex -3.098535e+02  5.955253e+02 -3.063776e+02
     vertex -3.107814e+02  5.961526e+02 -3.064149e+02
     vertex -3.072126e+02  5.998349e+02 -3.332562e+02
   endloop
 endfacet
 facet normal -5.157839e-01 -8.368614e-01 -1.833847e-01
   outer loop
     vertex -3.089046e+02  5.949307e+02 -3.063330e+02
     vertex -3.098535e+02  5.955253e+02 -3.063776e+02
     vertex -3.062847e+02  5.992075e+02 -3.332189e+02
   endloop
 endfacet
 facet normal -5.157839e-01 -8.368614e-01 -1.833847e-01
   outer loop
     vertex -3.089046e+02  5.949307e+02 -3.063330e+02
     vertex -3.062847e+02  5.992075e+02 -3.332189e+02
     vertex -3.053358e+02  5.986129e+02 -3.331743e+02
   endloop
 endfacet
 facet normal -4.855811e-01 -8.550647e-01 -1.818663e-01
   outer loop
     vertex -3.089046e+02  5.949307e+02 -3.063330e+02
     vertex -3.053358e+02  5.986129e+02 -3.331743e+02
     vertex -3.043671e+02  5.980518e+02 -3.331225e+02
   endloop
 endfacet
 facet normal -4.855811e-01 -8.550647e-01 -1.818663e-01
   outer loop
     vertex -3.079359e+02  5.943695e+02 -3.062812e+02
     vertex -3.089046e+02  5.949307e+02 -3.063330e+02
     vertex -3.043671e+02  5.980518e+02 -3.331225e+02
   endloop
 endfacet
 facet normal -4.547733e-01 -8.722027e-01 -1.801212e-01
   outer loop
     vertex -3.069486e+02  5.938426e+02 -3.062222e+02
     vertex -3.043671e+02  5.980518e+02 -3.331225e+02
     vertex -3.033798e+02  5.975248e+02 -3.330636e+02
   endloop
 endfacet
 facet normal -4.547733e-01 -8.722027e-01 -1.801212e-01
   outer loop
     vertex -3.069486e+02  5.938426e+02 -3.062222e+02
     vertex -3.079359e+02  5.943695e+02 -3.062812e+02
     vertex -3.043671e+02  5.980518e+02 -3.331225e+02
   endloop
 endfacet
 facet normal -4.233989e-01 -8.882541e-01 -1.781517e-01
   outer loop
     vertex -3.059439e+02  5.933504e+02 -3.061561e+02
     vertex -3.033798e+02  5.975248e+02 -3.330636e+02
     vertex -3.023751e+02  5.970327e+02 -3.329975e+02
   endloop
 endfacet
 facet normal -3.914971e-01 -9.031988e-01 -1.759603e-01
   outer loop
     vertex -3.059439e+02  5.933504e+02 -3.061561e+02
     vertex -3.023751e+02  5.970327e+02 -3.329975e+02
     vertex -3.013543e+02  5.965760e+02 -3.329244e+02
   endloop
 endfacet
 facet normal -4.233989e-01 -8.882541e-01 -1.781517e-01
   outer loop
     vertex -3.059439e+02  5.933504e+02 -3.061561e+02
     vertex -3.069486e+02  5.938426e+02 -3.062222e+02
     vertex -3.033798e+02  5.975248e+02 -3.330636e+02
   endloop
 endfacet
 facet normal -3.914971e-01 -9.031988e-01 -1.759603e-01
   outer loop
     vertex -3.049231e+02  5.928937e+02 -3.060831e+02
     vertex -3.059439e+02  5.933504e+02 -3.061561e+02
     vertex -3.013543e+02  5.965760e+02 -3.329244e+02
   endloop
 endfacet
 facet normal -3.591074e-01 -9.170182e-01 -1.735497e-01
   outer loop
     vertex -3.038875e+02  5.924730e+02 -3.060031e+02
     vertex -3.013543e+02  5.965760e+02 -3.329244e+02
     vertex -3.003187e+02  5.961553e+02 -3.328444e+02
   endloop
 endfacet
 facet normal -3.591074e-01 -9.170182e-01 -1.735497e-01
   outer loop
     vertex -3.038875e+02  5.924730e+02 -3.060031e+02
     vertex -3.049231e+02  5.928937e+02 -3.060831e+02
     vertex -3.013543e+02  5.965760e+02 -3.329244e+02
   endloop
 endfacet
 facet normal -3.262704e-01 -9.296951e-01 -1.709228e-01
   outer loop
     vertex -3.028383e+02  5.920889e+02 -3.059163e+02
     vertex -3.003187e+02  5.961553e+02 -3.328444e+02
     vertex -2.992695e+02  5.957711e+02 -3.327576e+02
   endloop
 endfacet
 facet normal -3.262704e-01 -9.296951e-01 -1.709228e-01
   outer loop
     vertex -3.028383e+02  5.920889e+02 -3.059163e+02
     vertex -3.038875e+02  5.924730e+02 -3.060031e+02
     vertex -3.003187e+02  5.961553e+02 -3.328444e+02
   endloop
 endfacet
 facet normal -2.930269e-01 -9.412138e-01 -1.680830e-01
   outer loop
     vertex -3.017769e+02  5.917417e+02 -3.058228e+02
     vertex -3.028383e+02  5.920889e+02 -3.059163e+02
     vertex -2.992695e+02  5.957711e+02 -3.327576e+02
   endloop
 endfacet
 facet normal -2.930269e-01 -9.412138e-01 -1.680830e-01
   outer loop
     vertex -3.017769e+02  5.917417e+02 -3.058228e+02
     vertex -2.992695e+02  5.957711e+02 -3.327576e+02
     vertex -2.982081e+02  5.954240e+02 -3.326641e+02
   endloop
 endfacet
 facet normal -2.594183e-01 -9.515598e-01 -1.650338e-01
   outer loop
     vertex -3.007045e+02  5.914320e+02 -3.057227e+02
     vertex -3.017769e+02  5.917417e+02 -3.058228e+02
     vertex -2.982081e+02  5.954240e+02 -3.326641e+02
   endloop
 endfacet
 facet normal -2.594183e-01 -9.515598e-01 -1.650338e-01
   outer loop
     vertex -3.007045e+02  5.914320e+02 -3.057227e+02
     vertex -2.982081e+02  5.954240e+02 -3.326641e+02
     vertex -2.971357e+02  5.951143e+02 -3.325640e+02
   endloop
 endfacet
 facet normal -2.254865e-01 -9.607203e-01 -1.617789e-01
   outer loop
     vertex -2.996225e+02  5.911601e+02 -3.056161e+02
     vertex -3.007045e+02  5.914320e+02 -3.057227e+02
     vertex -2.971357e+02  5.951143e+02 -3.325640e+02
   endloop
 endfacet
 facet normal -2.254865e-01 -9.607203e-01 -1.617789e-01
   outer loop
     vertex -2.996225e+02  5.911601e+02 -3.056161e+02
     vertex -2.971357e+02  5.951143e+02 -3.325640e+02
     vertex -2.960537e+02  5.948424e+02 -3.324575e+02
   endloop
 endfacet
 facet normal -1.912738e-01 -9.686838e-01 -1.583225e-01
   outer loop
     vertex -2.985323e+02  5.909264e+02 -3.055032e+02
     vertex -2.996225e+02  5.911601e+02 -3.056161e+02
     vertex -2.960537e+02  5.948424e+02 -3.324575e+02
   endloop
 endfacet
 facet normal -1.912738e-01 -9.686838e-01 -1.583225e-01
   outer loop
     vertex -2.985323e+02  5.909264e+02 -3.055032e+02
     vertex -2.960537e+02  5.948424e+02 -3.324575e+02
     vertex -2.949635e+02  5.946087e+02 -3.323446e+02
   endloop
 endfacet
 facet normal -1.568227e-01 -9.754405e-01 -1.546689e-01
   outer loop
     vertex -2.985323e+02  5.909264e+02 -3.055032e+02
     vertex -2.949635e+02  5.946087e+02 -3.323446e+02
     vertex -2.938664e+02  5.944134e+02 -3.322255e+02
   endloop
 endfacet
 facet normal -1.568227e-01 -9.754405e-01 -1.546689e-01
   outer loop
     vertex -2.974352e+02  5.907311e+02 -3.053842e+02
     vertex -2.985323e+02  5.909264e+02 -3.055032e+02
     vertex -2.938664e+02  5.944134e+02 -3.322255e+02
   endloop
 endfacet
 facet normal -1.221763e-01 -9.809819e-01 -1.508226e-01
   outer loop
     vertex -2.963326e+02  5.905746e+02 -3.052590e+02
     vertex -2.974352e+02  5.907311e+02 -3.053842e+02
     vertex -2.938664e+02  5.944134e+02 -3.322255e+02
   endloop
 endfacet
 facet normal -1.221763e-01 -9.809819e-01 -1.508226e-01
   outer loop
     vertex -2.963326e+02  5.905746e+02 -3.052590e+02
     vertex -2.938664e+02  5.944134e+02 -3.322255e+02
     vertex -2.927638e+02  5.942568e+02 -3.321004e+02
   endloop
 endfacet
 facet normal -8.737768e-02 -9.853011e-01 -1.467883e-01
   outer loop
     vertex -2.952259e+02  5.904569e+02 -3.051280e+02
     vertex -2.963326e+02  5.905746e+02 -3.052590e+02
     vertex -2.927638e+02  5.942568e+02 -3.321004e+02
   endloop
 endfacet
 facet normal -8.737768e-02 -9.853011e-01 -1.467883e-01
   outer loop
     vertex -2.952259e+02  5.904569e+02 -3.051280e+02
     vertex -2.927638e+02  5.942568e+02 -3.321004e+02
     vertex -2.916571e+02  5.941392e+02 -3.319694e+02
   endloop
 endfacet
 facet normal -5.247019e-02 -9.883928e-01 -1.425712e-01
   outer loop
     vertex -2.952259e+02  5.904569e+02 -3.051280e+02
     vertex -2.916571e+02  5.941392e+02 -3.319694e+02
     vertex -2.905475e+02  5.940606e+02 -3.318326e+02
   endloop
 endfacet
 facet normal -5.247019e-02 -9.883928e-01 -1.425712e-01
   outer loop
     vertex -2.941163e+02  5.903783e+02 -3.049913e+02
     vertex -2.952259e+02  5.904569e+02 -3.051280e+02
     vertex -2.905475e+02  5.940606e+02 -3.318326e+02
   endloop
 endfacet
 facet normal -1.749733e-02 -9.902531e-01 -1.381764e-01
   outer loop
     vertex -2.930054e+02  5.903388e+02 -3.048490e+02
     vertex -2.941163e+02  5.903783e+02 -3.049913e+02
     vertex -2.905475e+02  5.940606e+02 -3.318326e+02
   endloop
 endfacet
 facet normal -1.749733e-02 -9.902531e-01 -1.381764e-01
   outer loop
     vertex -2.930054e+02  5.903388e+02 -3.048490e+02
     vertex -2.905475e+02  5.940606e+02 -3.318326e+02
     vertex -2.894366e+02  5.940211e+02 -3.316904e+02
   endloop
 endfacet
endsolid
