solid 
 facet normal  9.972774e-01 -1.884825e-02  7.129217e-02
   outer loop
     vertex -3.001155e+02  6.418006e+02 -4.901606e+02
     vertex -3.056154e+02  6.379162e+02 -4.142516e+02
     vertex -3.056300e+02  6.368852e+02 -4.143195e+02
   endloop
 endfacet
 facet normal  9.972744e-01 -1.904205e-02  7.128204e-02
   outer loop
     vertex -3.001005e+02  6.428422e+02 -4.900920e+02
     vertex -3.056154e+02  6.379162e+02 -4.142516e+02
     vertex -3.001155e+02  6.418006e+02 -4.901606e+02
   endloop
 endfacet
 facet normal  9.960312e-01 -5.651769e-02  6.875751e-02
   outer loop
     vertex -3.001005e+02  6.428422e+02 -4.900920e+02
     vertex -3.055618e+02  6.389458e+02 -4.141810e+02
     vertex -3.056154e+02  6.379162e+02 -4.142516e+02
   endloop
 endfacet
 facet normal  9.960003e-01 -5.709825e-02  6.872549e-02
   outer loop
     vertex -3.000458e+02  6.438823e+02 -4.900206e+02
     vertex -3.055618e+02  6.389458e+02 -4.141810e+02
     vertex -3.001005e+02  6.428422e+02 -4.900920e+02
   endloop
 endfacet
 facet normal  9.933637e-01 -9.410648e-02  6.612479e-02
   outer loop
     vertex -3.000458e+02  6.438823e+02 -4.900206e+02
     vertex -3.054694e+02  6.399724e+02 -4.141077e+02
     vertex -3.055618e+02  6.389458e+02 -4.141810e+02
   endloop
 endfacet
 facet normal  9.932756e-01 -9.507128e-02  6.606880e-02
   outer loop
     vertex -2.999514e+02  6.449194e+02 -4.899465e+02
     vertex -3.054694e+02  6.399724e+02 -4.141077e+02
     vertex -3.000458e+02  6.438823e+02 -4.900206e+02
   endloop
 endfacet
 facet normal  9.892787e-01 -1.315610e-01  6.339775e-02
   outer loop
     vertex -2.999514e+02  6.449194e+02 -4.899465e+02
     vertex -3.053384e+02  6.409946e+02 -4.140319e+02
     vertex -3.054694e+02  6.399724e+02 -4.141077e+02
   endloop
 endfacet
 facet normal  9.837821e-01 -1.688278e-01  6.058029e-02
   outer loop
     vertex -2.998176e+02  6.459519e+02 -4.898698e+02
     vertex -3.051688e+02  6.420110e+02 -4.139537e+02
     vertex -3.053384e+02  6.409946e+02 -4.140319e+02
   endloop
 endfacet
 facet normal  9.891042e-01 -1.329058e-01  6.331584e-02
   outer loop
     vertex -2.998176e+02  6.459519e+02 -4.898698e+02
     vertex -3.053384e+02  6.409946e+02 -4.140319e+02
     vertex -2.999514e+02  6.449194e+02 -4.899465e+02
   endloop
 endfacet
 facet normal  9.768816e-01 -2.058536e-01  5.767642e-02
   outer loop
     vertex -2.996445e+02  6.469784e+02 -4.897907e+02
     vertex -3.049609e+02  6.430200e+02 -4.138732e+02
     vertex -3.051688e+02  6.420110e+02 -4.139537e+02
   endloop
 endfacet
 facet normal  9.834923e-01 -1.705468e-01  6.047062e-02
   outer loop
     vertex -2.996445e+02  6.469784e+02 -4.897907e+02
     vertex -3.051688e+02  6.420110e+02 -4.139537e+02
     vertex -2.998176e+02  6.459519e+02 -4.898698e+02
   endloop
 endfacet
 facet normal  9.685872e-01 -2.425858e-01  5.469029e-02
   outer loop
     vertex -2.994323e+02  6.479973e+02 -4.897093e+02
     vertex -3.047150e+02  6.440203e+02 -4.137905e+02
     vertex -3.049609e+02  6.430200e+02 -4.138732e+02
   endloop
 endfacet
 facet normal  9.764480e-01 -2.079394e-01  5.753730e-02
   outer loop
     vertex -2.994323e+02  6.479973e+02 -4.897093e+02
     vertex -3.049609e+02  6.430200e+02 -4.138732e+02
     vertex -2.996445e+02  6.469784e+02 -4.897907e+02
   endloop
 endfacet
 facet normal  9.679815e-01 -2.450292e-01  5.452015e-02
   outer loop
     vertex -2.991814e+02  6.490073e+02 -4.896256e+02
     vertex -3.047150e+02  6.440203e+02 -4.137905e+02
     vertex -2.994323e+02  6.479973e+02 -4.897093e+02
   endloop
 endfacet
 facet normal  9.589106e-01 -2.789717e-01  5.162615e-02
   outer loop
     vertex -2.991814e+02  6.490073e+02 -4.896256e+02
     vertex -3.044315e+02  6.450104e+02 -4.137057e+02
     vertex -3.047150e+02  6.440203e+02 -4.137905e+02
   endloop
 endfacet
 facet normal  9.581053e-01 -2.817621e-01  5.142356e-02
   outer loop
     vertex -2.988920e+02  6.500067e+02 -4.895397e+02
     vertex -3.044315e+02  6.450104e+02 -4.137057e+02
     vertex -2.991814e+02  6.490073e+02 -4.896256e+02
   endloop
 endfacet
 facet normal  9.478657e-01 -3.149596e-01  4.848837e-02
   outer loop
     vertex -2.988920e+02  6.500067e+02 -4.895397e+02
     vertex -3.041108e+02  6.459889e+02 -4.136190e+02
     vertex -3.044315e+02  6.450104e+02 -4.137057e+02
   endloop
 endfacet
 facet normal  9.468336e-01 -3.180846e-01  4.825206e-02
   outer loop
     vertex -2.985648e+02  6.509942e+02 -4.894519e+02
     vertex -3.041108e+02  6.459889e+02 -4.136190e+02
     vertex -2.988920e+02  6.500067e+02 -4.895397e+02
   endloop
 endfacet
 facet normal  9.354682e-01 -3.504981e-01  4.528143e-02
   outer loop
     vertex -2.985648e+02  6.509942e+02 -4.894519e+02
     vertex -3.037534e+02  6.469544e+02 -4.135304e+02
     vertex -3.041108e+02  6.459889e+02 -4.136190e+02
   endloop
 endfacet
 facet normal  9.341830e-01 -3.539438e-01  4.501025e-02
   outer loop
     vertex -2.982000e+02  6.519682e+02 -4.893623e+02
     vertex -3.037534e+02  6.469544e+02 -4.135304e+02
     vertex -2.985648e+02  6.509942e+02 -4.894519e+02
   endloop
 endfacet
 facet normal  9.217358e-01 -3.855364e-01  4.200989e-02
   outer loop
     vertex -2.982000e+02  6.519682e+02 -4.893623e+02
     vertex -3.033596e+02  6.479056e+02 -4.134401e+02
     vertex -3.037534e+02  6.469544e+02 -4.135304e+02
   endloop
 endfacet
 facet normal  9.201718e-01 -3.892876e-01  4.170287e-02
   outer loop
     vertex -2.977984e+02  6.529275e+02 -4.892709e+02
     vertex -3.033596e+02  6.479056e+02 -4.134401e+02
     vertex -2.982000e+02  6.519682e+02 -4.893623e+02
   endloop
 endfacet
 facet normal  9.066881e-01 -4.200246e-01  3.867843e-02
   outer loop
     vertex -2.977984e+02  6.529275e+02 -4.892709e+02
     vertex -3.029302e+02  6.488410e+02 -4.133483e+02
     vertex -3.033596e+02  6.479056e+02 -4.134401e+02
   endloop
 endfacet
 facet normal  9.048204e-01 -4.240643e-01  3.833474e-02
   outer loop
     vertex -2.973603e+02  6.538706e+02 -4.891779e+02
     vertex -3.029302e+02  6.488410e+02 -4.133483e+02
     vertex -2.977984e+02  6.529275e+02 -4.892709e+02
   endloop
 endfacet
 facet normal  8.903466e-01 -4.539134e-01  3.529179e-02
   outer loop
     vertex -2.973603e+02  6.538706e+02 -4.891779e+02
     vertex -3.024657e+02  6.497594e+02 -4.132550e+02
     vertex -3.029302e+02  6.488410e+02 -4.133483e+02
   endloop
 endfacet
 facet normal  8.881512e-01 -4.582235e-01  3.491076e-02
   outer loop
     vertex -2.968865e+02  6.547961e+02 -4.890835e+02
     vertex -3.024657e+02  6.497594e+02 -4.132550e+02
     vertex -2.973603e+02  6.538706e+02 -4.891779e+02
   endloop
 endfacet
 facet normal  8.727347e-01 -4.871544e-01  3.185481e-02
   outer loop
     vertex -2.968865e+02  6.547961e+02 -4.890835e+02
     vertex -3.019668e+02  6.506593e+02 -4.131604e+02
     vertex -3.024657e+02  6.497594e+02 -4.132550e+02
   endloop
 endfacet
 facet normal  8.538773e-01 -5.197004e-01  2.837238e-02
   outer loop
     vertex -2.963777e+02  6.557026e+02 -4.889878e+02
     vertex -3.014342e+02  6.515397e+02 -4.130646e+02
     vertex -3.019668e+02  6.506593e+02 -4.131604e+02
   endloop
 endfacet
 facet normal  8.701884e-01 -4.917153e-01  3.143593e-02
   outer loop
     vertex -2.963777e+02  6.557026e+02 -4.889878e+02
     vertex -3.019668e+02  6.506593e+02 -4.131604e+02
     vertex -2.968865e+02  6.547961e+02 -4.890835e+02
   endloop
 endfacet
 facet normal  8.338016e-01 -5.515047e-01  2.484947e-02
   outer loop
     vertex -2.958346e+02  6.565889e+02 -4.888908e+02
     vertex -3.008686e+02  6.523991e+02 -4.129678e+02
     vertex -3.014342e+02  6.515397e+02 -4.130646e+02
   endloop
 endfacet
 facet normal  8.509583e-01 -5.244909e-01  2.791530e-02
   outer loop
     vertex -2.958346e+02  6.565889e+02 -4.888908e+02
     vertex -3.014342e+02  6.515397e+02 -4.130646e+02
     vertex -2.963777e+02  6.557026e+02 -4.889878e+02
   endloop
 endfacet
 facet normal  8.125360e-01 -5.825221e-01  2.129112e-02
   outer loop
     vertex -2.952580e+02  6.574537e+02 -4.887928e+02
     vertex -3.002709e+02  6.532364e+02 -4.128701e+02
     vertex -3.008686e+02  6.523991e+02 -4.129678e+02
   endloop
 endfacet
 facet normal  8.304888e-01 -5.565026e-01  2.435402e-02
   outer loop
     vertex -2.952580e+02  6.574537e+02 -4.887928e+02
     vertex -3.008686e+02  6.523991e+02 -4.129678e+02
     vertex -2.958346e+02  6.565889e+02 -4.888908e+02
   endloop
 endfacet
 facet normal  7.901109e-01 -6.127082e-01  1.770238e-02
   outer loop
     vertex -2.946487e+02  6.582957e+02 -4.886940e+02
     vertex -2.996419e+02  6.540504e+02 -4.127716e+02
     vertex -3.002709e+02  6.532364e+02 -4.128701e+02
   endloop
 endfacet
 facet normal  8.088098e-01 -5.877039e-01  2.075726e-02
   outer loop
     vertex -2.946487e+02  6.582957e+02 -4.886940e+02
     vertex -3.002709e+02  6.532364e+02 -4.128701e+02
     vertex -2.952580e+02  6.574537e+02 -4.887928e+02
   endloop
 endfacet
 facet normal  7.665584e-01 -6.420200e-01  1.408839e-02
   outer loop
     vertex -2.940077e+02  6.591136e+02 -4.885944e+02
     vertex -2.989825e+02  6.548398e+02 -4.126725e+02
     vertex -2.996419e+02  6.540504e+02 -4.127716e+02
   endloop
 endfacet
 facet normal  7.859528e-01 -6.180491e-01  1.713027e-02
   outer loop
     vertex -2.940077e+02  6.591136e+02 -4.885944e+02
     vertex -2.996419e+02  6.540504e+02 -4.127716e+02
     vertex -2.946487e+02  6.582957e+02 -4.886940e+02
   endloop
 endfacet
 facet normal  7.419121e-01 -6.704157e-01  1.045429e-02
   outer loop
     vertex -2.933358e+02  6.599064e+02 -4.884941e+02
     vertex -2.982937e+02  6.556037e+02 -4.125729e+02
     vertex -2.989825e+02  6.548398e+02 -4.126725e+02
   endloop
 endfacet
 facet normal  7.619511e-01 -6.474943e-01  1.347833e-02
   outer loop
     vertex -2.933358e+02  6.599064e+02 -4.884941e+02
     vertex -2.989825e+02  6.548398e+02 -4.126725e+02
     vertex -2.940077e+02  6.591136e+02 -4.885944e+02
   endloop
 endfacet
 facet normal  7.162070e-01 -6.978547e-01  6.805265e-03
   outer loop
     vertex -2.926341e+02  6.606728e+02 -4.883934e+02
     vertex -2.975764e+02  6.563408e+02 -4.124729e+02
     vertex -2.982937e+02  6.556037e+02 -4.125729e+02
   endloop
 endfacet
 facet normal  7.368397e-01 -6.759964e-01  9.806769e-03
   outer loop
     vertex -2.926341e+02  6.606728e+02 -4.883934e+02
     vertex -2.982937e+02  6.556037e+02 -4.125729e+02
     vertex -2.933358e+02  6.599064e+02 -4.884941e+02
   endloop
 endfacet
 facet normal  6.894800e-01 -7.242979e-01  3.146528e-03
   outer loop
     vertex -2.919035e+02  6.614116e+02 -4.882924e+02
     vertex -2.968317e+02  6.570501e+02 -4.123728e+02
     vertex -2.975764e+02  6.563408e+02 -4.124729e+02
   endloop
 endfacet
 facet normal  7.106551e-01 -7.035139e-01  6.120932e-03
   outer loop
     vertex -2.919035e+02  6.614116e+02 -4.882924e+02
     vertex -2.975764e+02  6.563408e+02 -4.124729e+02
     vertex -2.926341e+02  6.606728e+02 -4.883934e+02
   endloop
 endfacet
 facet normal  6.617691e-01 -7.497076e-01 -5.167072e-04
   outer loop
     vertex -2.911451e+02  6.621220e+02 -4.881912e+02
     vertex -2.960606e+02  6.577307e+02 -4.122726e+02
     vertex -2.968317e+02  6.570501e+02 -4.123728e+02
   endloop
 endfacet
 facet normal  6.834355e-01 -7.300069e-01  2.426190e-03
   outer loop
     vertex -2.911451e+02  6.621220e+02 -4.881912e+02
     vertex -2.968317e+02  6.570501e+02 -4.123728e+02
     vertex -2.919035e+02  6.614116e+02 -4.882924e+02
   endloop
 endfacet
 facet normal  6.331138e-01 -7.740474e-01 -4.179215e-03
   outer loop
     vertex -2.903601e+02  6.628027e+02 -4.880900e+02
     vertex -2.952642e+02  6.583816e+02 -4.121725e+02
     vertex -2.960606e+02  6.577307e+02 -4.122726e+02
   endloop
 endfacet
 facet normal  6.552205e-01 -7.554366e-01 -1.272073e-03
   outer loop
     vertex -2.903601e+02  6.628027e+02 -4.880900e+02
     vertex -2.960606e+02  6.577307e+02 -4.122726e+02
     vertex -2.911451e+02  6.621220e+02 -4.881912e+02
   endloop
 endfacet
 facet normal  6.035552e-01 -7.972827e-01 -7.835770e-03
   outer loop
     vertex -2.895495e+02  6.634528e+02 -4.879890e+02
     vertex -2.944437e+02  6.590018e+02 -4.120727e+02
     vertex -2.952642e+02  6.583816e+02 -4.121725e+02
   endloop
 endfacet
 facet normal  6.260513e-01 -7.797661e-01 -4.968470e-03
   outer loop
     vertex -2.895495e+02  6.634528e+02 -4.879890e+02
     vertex -2.952642e+02  6.583816e+02 -4.121725e+02
     vertex -2.903601e+02  6.628027e+02 -4.880900e+02
   endloop
 endfacet
 facet normal  5.731353e-01 -8.193803e-01 -1.148116e-02
   outer loop
     vertex -2.887146e+02  6.640714e+02 -4.878882e+02
     vertex -2.936002e+02  6.595904e+02 -4.119732e+02
     vertex -2.944437e+02  6.590018e+02 -4.120727e+02
   endloop
 endfacet
 facet normal  5.959702e-01 -8.029599e-01 -8.657614e-03
   outer loop
     vertex -2.887146e+02  6.640714e+02 -4.878882e+02
     vertex -2.944437e+02  6.590018e+02 -4.120727e+02
     vertex -2.895495e+02  6.634528e+02 -4.879890e+02
   endloop
 endfacet
 facet normal  5.418975e-01 -8.403087e-01 -1.511018e-02
   outer loop
     vertex -2.878566e+02  6.646576e+02 -4.877878e+02
     vertex -2.927349e+02  6.601466e+02 -4.118742e+02
     vertex -2.936002e+02  6.595904e+02 -4.119732e+02
   endloop
 endfacet
 facet normal  5.650211e-01 -8.249842e-01 -1.233413e-02
   outer loop
     vertex -2.878566e+02  6.646576e+02 -4.877878e+02
     vertex -2.936002e+02  6.595904e+02 -4.119732e+02
     vertex -2.887146e+02  6.640714e+02 -4.878882e+02
   endloop
 endfacet
 facet normal  5.098865e-01 -8.600380e-01 -1.871766e-02
   outer loop
     vertex -2.869766e+02  6.652104e+02 -4.876880e+02
     vertex -2.918491e+02  6.606696e+02 -4.117759e+02
     vertex -2.927349e+02  6.601466e+02 -4.118742e+02
   endloop
 endfacet
 facet normal  5.332492e-01 -8.458071e-01 -1.599266e-02
   outer loop
     vertex -2.869766e+02  6.652104e+02 -4.876880e+02
     vertex -2.927349e+02  6.601466e+02 -4.118742e+02
     vertex -2.878566e+02  6.646576e+02 -4.877878e+02
   endloop
 endfacet
 facet normal  4.771479e-01 -8.785401e-01 -2.229844e-02
   outer loop
     vertex -2.860761e+02  6.657292e+02 -4.875889e+02
     vertex -2.909440e+02  6.611587e+02 -4.116784e+02
     vertex -2.918491e+02  6.606696e+02 -4.117759e+02
   endloop
 endfacet
 facet normal  5.007005e-01 -8.653980e-01 -1.962788e-02
   outer loop
     vertex -2.860761e+02  6.657292e+02 -4.875889e+02
     vertex -2.918491e+02  6.606696e+02 -4.117759e+02
     vertex -2.869766e+02  6.652104e+02 -4.876880e+02
   endloop
 endfacet
 facet normal  4.437284e-01 -8.957885e-01 -2.584743e-02
   outer loop
     vertex -2.851563e+02  6.662132e+02 -4.874906e+02
     vertex -2.900210e+02  6.616131e+02 -4.115819e+02
     vertex -2.909440e+02  6.611587e+02 -4.116784e+02
   endloop
 endfacet
 facet normal  4.674227e-01 -8.837286e-01 -2.323449e-02
   outer loop
     vertex -2.851563e+02  6.662132e+02 -4.874906e+02
     vertex -2.909440e+02  6.611587e+02 -4.116784e+02
     vertex -2.860761e+02  6.657292e+02 -4.875889e+02
   endloop
 endfacet
 facet normal  4.096758e-01 -9.117586e-01 -2.935955e-02
   outer loop
     vertex -2.842185e+02  6.666615e+02 -4.873934e+02
     vertex -2.890813e+02  6.620323e+02 -4.114864e+02
     vertex -2.900210e+02  6.616131e+02 -4.115819e+02
   endloop
 endfacet
 facet normal  4.334640e-01 -9.007721e-01 -2.680724e-02
   outer loop
     vertex -2.842185e+02  6.666615e+02 -4.873934e+02
     vertex -2.900210e+02  6.616131e+02 -4.115819e+02
     vertex -2.851563e+02  6.662132e+02 -4.874906e+02
   endloop
 endfacet
 facet normal  3.750385e-01 -9.264277e-01 -3.282981e-02
   outer loop
     vertex -2.832642e+02  6.670737e+02 -4.872973e+02
     vertex -2.881263e+02  6.624156e+02 -4.113921e+02
     vertex -2.890813e+02  6.620323e+02 -4.114864e+02
   endloop
 endfacet
 facet normal  3.988741e-01 -9.165036e-01 -3.034091e-02
   outer loop
     vertex -2.832642e+02  6.670737e+02 -4.872973e+02
     vertex -2.890813e+02  6.620323e+02 -4.114864e+02
     vertex -2.842185e+02  6.666615e+02 -4.873934e+02
   endloop
 endfacet
 facet normal  3.398661e-01 -9.397748e-01 -3.625324e-02
   outer loop
     vertex -2.822946e+02  6.674491e+02 -4.872024e+02
     vertex -2.871573e+02  6.627624e+02 -4.112991e+02
     vertex -2.881263e+02  6.624156e+02 -4.113921e+02
   endloop
 endfacet
 facet normal  3.637032e-01 -9.309004e-01 -3.383037e-02
   outer loop
     vertex -2.822946e+02  6.674491e+02 -4.872024e+02
     vertex -2.881263e+02  6.624156e+02 -4.113921e+02
     vertex -2.832642e+02  6.670737e+02 -4.872973e+02
   endloop
 endfacet
 facet normal  3.280026e-01 -9.439413e-01 -3.727053e-02
   outer loop
     vertex -2.813113e+02  6.677871e+02 -4.871090e+02
     vertex -2.871573e+02  6.627624e+02 -4.112991e+02
     vertex -2.822946e+02  6.674491e+02 -4.872024e+02
   endloop
 endfacet
 facet normal  3.042087e-01 -9.517809e-01 -3.962497e-02
   outer loop
     vertex -2.813113e+02  6.677871e+02 -4.871090e+02
     vertex -2.861757e+02  6.630723e+02 -4.112077e+02
     vertex -2.871573e+02  6.627624e+02 -4.112991e+02
   endloop
 endfacet
 facet normal  2.918243e-01 -9.556075e-01 -4.065637e-02
   outer loop
     vertex -2.803156e+02  6.680872e+02 -4.870172e+02
     vertex -2.861757e+02  6.630723e+02 -4.112077e+02
     vertex -2.813113e+02  6.677871e+02 -4.871090e+02
   endloop
 endfacet
 facet normal  2.681172e-01 -9.624288e-01 -4.294018e-02
   outer loop
     vertex -2.803156e+02  6.680872e+02 -4.870172e+02
     vertex -2.851830e+02  6.633449e+02 -4.111178e+02
     vertex -2.861757e+02  6.630723e+02 -4.112077e+02
   endloop
 endfacet
 facet normal  2.552210e-01 -9.658819e-01 -4.398297e-02
   outer loop
     vertex -2.793090e+02  6.683491e+02 -4.869270e+02
     vertex -2.851830e+02  6.633449e+02 -4.111178e+02
     vertex -2.803156e+02  6.680872e+02 -4.870172e+02
   endloop
 endfacet
 facet normal  2.316432e-01 -9.717034e-01 -4.619415e-02
   outer loop
     vertex -2.793090e+02  6.683491e+02 -4.869270e+02
     vertex -2.841805e+02  6.635797e+02 -4.110297e+02
     vertex -2.851830e+02  6.633449e+02 -4.111178e+02
   endloop
 endfacet
 facet normal  2.182459e-01 -9.747495e-01 -4.724548e-02
   outer loop
     vertex -2.782930e+02  6.685723e+02 -4.868387e+02
     vertex -2.841805e+02  6.635797e+02 -4.110297e+02
     vertex -2.793090e+02  6.683491e+02 -4.869270e+02
   endloop
 endfacet
 facet normal  1.948385e-01 -9.795914e-01 -4.938223e-02
   outer loop
     vertex -2.782930e+02  6.685723e+02 -4.868387e+02
     vertex -2.831697e+02  6.637764e+02 -4.109435e+02
     vertex -2.841805e+02  6.635797e+02 -4.110297e+02
   endloop
 endfacet
 facet normal  1.809530e-01 -9.821975e-01 -5.043914e-02
   outer loop
     vertex -2.772690e+02  6.687565e+02 -4.867523e+02
     vertex -2.831697e+02  6.637764e+02 -4.109435e+02
     vertex -2.782930e+02  6.685723e+02 -4.868387e+02
   endloop
 endfacet
 facet normal  1.577559e-01 -9.860816e-01 -5.249987e-02
   outer loop
     vertex -2.772690e+02  6.687565e+02 -4.867523e+02
     vertex -2.821520e+02  6.639347e+02 -4.108592e+02
     vertex -2.831697e+02  6.637764e+02 -4.109435e+02
   endloop
 endfacet
 facet normal  1.204482e-01 -9.911646e-01 -5.554263e-02
   outer loop
     vertex -2.762386e+02  6.689014e+02 -4.866680e+02
     vertex -2.811289e+02  6.640544e+02 -4.107771e+02
     vertex -2.821520e+02  6.639347e+02 -4.108592e+02
   endloop
 endfacet
 facet normal  1.433965e-01 -9.882150e-01 -5.355931e-02
   outer loop
     vertex -2.762386e+02  6.689014e+02 -4.866680e+02
     vertex -2.821520e+02  6.639347e+02 -4.108592e+02
     vertex -2.772690e+02  6.687565e+02 -4.867523e+02
   endloop
 endfacet
 facet normal  8.296853e-02 -9.948333e-01 -5.850617e-02
   outer loop
     vertex -2.752032e+02  6.690069e+02 -4.865858e+02
     vertex -2.801018e+02  6.641354e+02 -4.106971e+02
     vertex -2.811289e+02  6.640544e+02 -4.107771e+02
   endloop
 endfacet
 facet normal  1.056312e-01 -9.927932e-01 -5.660143e-02
   outer loop
     vertex -2.752032e+02  6.690069e+02 -4.865858e+02
     vertex -2.811289e+02  6.640544e+02 -4.107771e+02
     vertex -2.762386e+02  6.689014e+02 -4.866680e+02
   endloop
 endfacet
 facet normal  4.537051e-02 -9.970824e-01 -6.138625e-02
   outer loop
     vertex -2.741644e+02  6.690728e+02 -4.865060e+02
     vertex -2.790722e+02  6.641774e+02 -4.106196e+02
     vertex -2.801018e+02  6.641354e+02 -4.106971e+02
   endloop
 endfacet
 facet normal  6.771206e-02 -9.959255e-01 -5.956108e-02
   outer loop
     vertex -2.741644e+02  6.690728e+02 -4.865060e+02
     vertex -2.801018e+02  6.641354e+02 -4.106971e+02
     vertex -2.752032e+02  6.690069e+02 -4.865858e+02
   endloop
 endfacet
 facet normal  7.707753e-03 -9.979087e-01 -6.417877e-02
   outer loop
     vertex -2.731236e+02  6.690989e+02 -4.864287e+02
     vertex -2.780416e+02  6.641806e+02 -4.105444e+02
     vertex -2.790722e+02  6.641774e+02 -4.106196e+02
   endloop
 endfacet
 facet normal  2.969427e-02 -9.976073e-01 -6.243395e-02
   outer loop
     vertex -2.731236e+02  6.690989e+02 -4.864287e+02
     vertex -2.790722e+02  6.641774e+02 -4.106196e+02
     vertex -2.741644e+02  6.690728e+02 -4.865060e+02
   endloop
 endfacet
 facet normal -2.996600e-02 -9.973110e-01 -6.687975e-02
   outer loop
     vertex -2.720824e+02  6.690853e+02 -4.863538e+02
     vertex -2.770114e+02  6.641447e+02 -4.104718e+02
     vertex -2.780416e+02  6.641806e+02 -4.105444e+02
   endloop
 endfacet
 facet normal -8.366758e-03 -9.978361e-01 -6.521585e-02
   outer loop
     vertex -2.720824e+02  6.690853e+02 -4.863538e+02
     vertex -2.780416e+02  6.641806e+02 -4.105444e+02
     vertex -2.731236e+02  6.690989e+02 -4.864287e+02
   endloop
 endfacet
 facet normal -6.759699e-02 -9.952901e-01 -6.948532e-02
   outer loop
     vertex -2.710423e+02  6.690319e+02 -4.862817e+02
     vertex -2.759831e+02  6.640700e+02 -4.104019e+02
     vertex -2.770114e+02  6.641447e+02 -4.104718e+02
   endloop
 endfacet
 facet normal -4.641561e-02 -9.966117e-01 -6.790273e-02
   outer loop
     vertex -2.710423e+02  6.690319e+02 -4.862817e+02
     vertex -2.770114e+02  6.641447e+02 -4.104718e+02
     vertex -2.720824e+02  6.690853e+02 -4.863538e+02
   endloop
 endfacet
 facet normal -1.051315e-01 -9.918491e-01 -7.199178e-02
   outer loop
     vertex -2.700047e+02  6.689389e+02 -4.862123e+02
     vertex -2.749582e+02  6.639565e+02 -4.103347e+02
     vertex -2.759831e+02  6.640700e+02 -4.104019e+02
   endloop
 endfacet
 facet normal -8.439686e-02 -9.939357e-01 -7.049067e-02
   outer loop
     vertex -2.700047e+02  6.689389e+02 -4.862123e+02
     vertex -2.759831e+02  6.640700e+02 -4.104019e+02
     vertex -2.710423e+02  6.690319e+02 -4.862817e+02
   endloop
 endfacet
 facet normal -1.425160e-01 -9.869926e-01 -7.439555e-02
   outer loop
     vertex -2.689713e+02  6.688064e+02 -4.861457e+02
     vertex -2.739381e+02  6.638044e+02 -4.102704e+02
     vertex -2.749582e+02  6.639565e+02 -4.103347e+02
   endloop
 endfacet
 facet normal -1.222552e-01 -9.898122e-01 -7.297591e-02
   outer loop
     vertex -2.689713e+02  6.688064e+02 -4.861457e+02
     vertex -2.749582e+02  6.639565e+02 -4.103347e+02
     vertex -2.700047e+02  6.689389e+02 -4.862123e+02
   endloop
 endfacet
 facet normal -1.796972e-01 -9.807278e-01 -7.669319e-02
   outer loop
     vertex -2.679436e+02  6.686345e+02 -4.860821e+02
     vertex -2.729243e+02  6.636138e+02 -4.102091e+02
     vertex -2.739381e+02  6.638044e+02 -4.102704e+02
   endloop
 endfacet
 facet normal -1.599355e-01 -9.842471e-01 -7.535482e-02
   outer loop
     vertex -2.679436e+02  6.686345e+02 -4.860821e+02
     vertex -2.739381e+02  6.638044e+02 -4.102704e+02
     vertex -2.689713e+02  6.688064e+02 -4.861457e+02
   endloop
 endfacet
 facet normal -2.166219e-01 -9.730636e-01 -7.888143e-02
   outer loop
     vertex -2.669229e+02  6.684235e+02 -4.860216e+02
     vertex -2.719183e+02  6.633851e+02 -4.101507e+02
     vertex -2.729243e+02  6.636138e+02 -4.102091e+02
   endloop
 endfacet
 facet normal -1.973828e-01 -9.772485e-01 -7.762394e-02
   outer loop
     vertex -2.669229e+02  6.684235e+02 -4.860216e+02
     vertex -2.729243e+02  6.636138e+02 -4.102091e+02
     vertex -2.679436e+02  6.686345e+02 -4.860821e+02
   endloop
 endfacet
 facet normal -2.532375e-01 -9.640107e-01 -8.095715e-02
   outer loop
     vertex -2.659109e+02  6.681738e+02 -4.859642e+02
     vertex -2.709214e+02  6.631186e+02 -4.100955e+02
     vertex -2.719183e+02  6.633851e+02 -4.101507e+02
   endloop
 endfacet
 facet normal -2.345427e-01 -9.688265e-01 -7.977997e-02
   outer loop
     vertex -2.659109e+02  6.681738e+02 -4.859642e+02
     vertex -2.719183e+02  6.633851e+02 -4.101507e+02
     vertex -2.669229e+02  6.684235e+02 -4.860216e+02
   endloop
 endfacet
 facet normal -2.894917e-01 -9.535823e-01 -8.291738e-02
   outer loop
     vertex -2.649089e+02  6.678857e+02 -4.859100e+02
     vertex -2.699351e+02  6.628147e+02 -4.100435e+02
     vertex -2.709214e+02  6.631186e+02 -4.100955e+02
   endloop
 endfacet
 facet normal -2.713610e-01 -9.589936e-01 -8.181976e-02
   outer loop
     vertex -2.649089e+02  6.678857e+02 -4.859100e+02
     vertex -2.709214e+02  6.631186e+02 -4.100955e+02
     vertex -2.659109e+02  6.681738e+02 -4.859642e+02
   endloop
 endfacet
 facet normal -3.253329e-01 -9.417932e-01 -8.475932e-02
   outer loop
     vertex -2.639185e+02  6.675595e+02 -4.858591e+02
     vertex -2.689608e+02  6.624737e+02 -4.099948e+02
     vertex -2.699351e+02  6.628147e+02 -4.100435e+02
   endloop
 endfacet
 facet normal -3.077841e-01 -9.477640e-01 -8.374035e-02
   outer loop
     vertex -2.639185e+02  6.675595e+02 -4.858591e+02
     vertex -2.699351e+02  6.628147e+02 -4.100435e+02
     vertex -2.649089e+02  6.678857e+02 -4.859100e+02
   endloop
 endfacet
 facet normal -3.607097e-01 -9.286601e-01 -8.648036e-02
   outer loop
     vertex -2.629410e+02  6.671959e+02 -4.858116e+02
     vertex -2.679999e+02  6.620963e+02 -4.099493e+02
     vertex -2.689608e+02  6.624737e+02 -4.099948e+02
   endloop
 endfacet
 facet normal -3.437589e-01 -9.351540e-01 -8.553893e-02
   outer loop
     vertex -2.629410e+02  6.671959e+02 -4.858116e+02
     vertex -2.689608e+02  6.624737e+02 -4.099948e+02
     vertex -2.639185e+02  6.675595e+02 -4.858591e+02
   endloop
 endfacet
 facet normal -3.955719e-01 -9.142019e-01 -8.807803e-02
   outer loop
     vertex -2.619780e+02  6.667952e+02 -4.857676e+02
     vertex -2.670538e+02  6.616828e+02 -4.099073e+02
     vertex -2.679999e+02  6.620963e+02 -4.099493e+02
   endloop
 endfacet
 facet normal -3.792330e-01 -9.211820e-01 -8.721289e-02
   outer loop
     vertex -2.619780e+02  6.667952e+02 -4.857676e+02
     vertex -2.679999e+02  6.620963e+02 -4.099493e+02
     vertex -2.629410e+02  6.671959e+02 -4.858116e+02
   endloop
 endfacet
 facet normal -4.298696e-01 -8.984391e-01 -8.955005e-02
   outer loop
     vertex -2.610307e+02  6.663582e+02 -4.857270e+02
     vertex -2.661238e+02  6.612340e+02 -4.098688e+02
     vertex -2.670538e+02  6.616828e+02 -4.099073e+02
   endloop
 endfacet
 facet normal -4.141548e-01 -9.058684e-01 -8.875979e-02
   outer loop
     vertex -2.610307e+02  6.663582e+02 -4.857270e+02
     vertex -2.670538e+02  6.616828e+02 -4.099073e+02
     vertex -2.619780e+02  6.667952e+02 -4.857676e+02
   endloop
 endfacet
 facet normal -4.635539e-01 -8.813943e-01 -9.089432e-02
   outer loop
     vertex -2.601007e+02  6.658854e+02 -4.856900e+02
     vertex -2.652112e+02  6.607505e+02 -4.098338e+02
     vertex -2.661238e+02  6.612340e+02 -4.098688e+02
   endloop
 endfacet
 facet normal -4.484735e-01 -8.892354e-01 -9.017738e-02
   outer loop
     vertex -2.601007e+02  6.658854e+02 -4.856900e+02
     vertex -2.661238e+02  6.612340e+02 -4.098688e+02
     vertex -2.610307e+02  6.663582e+02 -4.857270e+02
   endloop
 endfacet
 facet normal -4.965767e-01 -8.630918e-01 -9.210893e-02
   outer loop
     vertex -2.591892e+02  6.653775e+02 -4.856567e+02
     vertex -2.643174e+02  6.602328e+02 -4.098024e+02
     vertex -2.652112e+02  6.607505e+02 -4.098338e+02
   endloop
 endfacet
 facet normal -4.821389e-01 -8.713073e-01 -9.146359e-02
   outer loop
     vertex -2.591892e+02  6.653775e+02 -4.856567e+02
     vertex -2.652112e+02  6.607505e+02 -4.098338e+02
     vertex -2.601007e+02  6.658854e+02 -4.856900e+02
   endloop
 endfacet
 facet normal -5.288910e-01 -8.435577e-01 -9.319213e-02
   outer loop
     vertex -2.582975e+02  6.648353e+02 -4.856270e+02
     vertex -2.634435e+02  6.596819e+02 -4.097745e+02
     vertex -2.643174e+02  6.602328e+02 -4.098024e+02
   endloop
 endfacet
 facet normal -5.151022e-01 -8.521103e-01 -9.261655e-02
   outer loop
     vertex -2.582975e+02  6.648353e+02 -4.856270e+02
     vertex -2.643174e+02  6.602328e+02 -4.098024e+02
     vertex -2.591892e+02  6.653775e+02 -4.856567e+02
   endloop
 endfacet
 facet normal -5.604505e-01 -8.228198e-01 -9.414239e-02
   outer loop
     vertex -2.574271e+02  6.642595e+02 -4.856010e+02
     vertex -2.625910e+02  6.590984e+02 -4.097504e+02
     vertex -2.634435e+02  6.596819e+02 -4.097745e+02
   endloop
 endfacet
 facet normal -5.473152e-01 -8.316722e-01 -9.363458e-02
   outer loop
     vertex -2.574271e+02  6.642595e+02 -4.856010e+02
     vertex -2.634435e+02  6.596819e+02 -4.097745e+02
     vertex -2.582975e+02  6.648353e+02 -4.856270e+02
   endloop
 endfacet
 facet normal -5.787312e-01 -8.100228e-01 -9.451620e-02
   outer loop
     vertex -2.565790e+02  6.636510e+02 -4.855788e+02
     vertex -2.625910e+02  6.590984e+02 -4.097504e+02
     vertex -2.574271e+02  6.642595e+02 -4.856010e+02
   endloop
 endfacet
 facet normal -5.912102e-01 -8.009078e-01 -9.495835e-02
   outer loop
     vertex -2.565790e+02  6.636510e+02 -4.855788e+02
     vertex -2.617609e+02  6.584833e+02 -4.097299e+02
     vertex -2.625910e+02  6.590984e+02 -4.097504e+02
   endloop
 endfacet
 facet normal -6.093042e-01 -7.871937e-01 -9.526013e-02
   outer loop
     vertex -2.557547e+02  6.630107e+02 -4.855603e+02
     vertex -2.617609e+02  6.584833e+02 -4.097299e+02
     vertex -2.565790e+02  6.636510e+02 -4.855788e+02
   endloop
 endfacet
 facet normal -6.211264e-01 -7.778530e-01 -9.563883e-02
   outer loop
     vertex -2.557547e+02  6.630107e+02 -4.855603e+02
     vertex -2.609545e+02  6.578373e+02 -4.097131e+02
     vertex -2.617609e+02  6.584833e+02 -4.097299e+02
   endloop
 endfacet
 facet normal -6.389899e-01 -7.632181e-01 -9.586528e-02
   outer loop
     vertex -2.549552e+02  6.623395e+02 -4.855457e+02
     vertex -2.609545e+02  6.578373e+02 -4.097131e+02
     vertex -2.557547e+02  6.630107e+02 -4.855603e+02
   endloop
 endfacet
 facet normal -6.502558e-01 -7.536018e-01 -9.618564e-02
   outer loop
     vertex -2.549552e+02  6.623395e+02 -4.855457e+02
     vertex -2.601676e+02  6.571566e+02 -4.097000e+02
     vertex -2.609545e+02  6.578373e+02 -4.097131e+02
   endloop
 endfacet
 facet normal -6.677449e-01 -7.381309e-01 -9.633035e-02
   outer loop
     vertex -2.541817e+02  6.616384e+02 -4.855349e+02
     vertex -2.601676e+02  6.571566e+02 -4.097000e+02
     vertex -2.549552e+02  6.623395e+02 -4.855457e+02
   endloop
 endfacet
 facet normal -6.785473e-01 -7.281778e-01 -9.659479e-02
   outer loop
     vertex -2.541817e+02  6.616384e+02 -4.855349e+02
     vertex -2.594069e+02  6.564466e+02 -4.096907e+02
     vertex -2.601676e+02  6.571566e+02 -4.097000e+02
   endloop
 endfacet
 facet normal -6.955274e-01 -7.119687e-01 -9.665503e-02
   outer loop
     vertex -2.534354e+02  6.609084e+02 -4.855280e+02
     vertex -2.594069e+02  6.564466e+02 -4.096907e+02
     vertex -2.541817e+02  6.616384e+02 -4.855349e+02
   endloop
 endfacet
 facet normal -7.058570e-01 -7.017002e-01 -9.686426e-02
   outer loop
     vertex -2.534354e+02  6.609084e+02 -4.855280e+02
     vertex -2.586737e+02  6.557082e+02 -4.096852e+02
     vertex -2.594069e+02  6.564466e+02 -4.096907e+02
   endloop
 endfacet
 facet normal -7.222969e-01 -6.847696e-01 -9.683887e-02
   outer loop
     vertex -2.527174e+02  6.601506e+02 -4.855249e+02
     vertex -2.586737e+02  6.557082e+02 -4.096852e+02
     vertex -2.534354e+02  6.609084e+02 -4.855280e+02
   endloop
 endfacet
 facet normal -7.321454e-01 -6.742072e-01 -9.699365e-02
   outer loop
     vertex -2.527174e+02  6.601506e+02 -4.855249e+02
     vertex -2.579689e+02  6.549426e+02 -4.096836e+02
     vertex -2.586737e+02  6.557082e+02 -4.096852e+02
   endloop
 endfacet
 facet normal -7.480145e-01 -6.565732e-01 -9.688157e-02
   outer loop
     vertex -2.520286e+02  6.593660e+02 -4.855256e+02
     vertex -2.579689e+02  6.549426e+02 -4.096836e+02
     vertex -2.527174e+02  6.601506e+02 -4.855249e+02
   endloop
 endfacet
 facet normal -7.573743e-01 -6.457387e-01 -9.698278e-02
   outer loop
     vertex -2.520286e+02  6.593660e+02 -4.855256e+02
     vertex -2.572936e+02  6.541509e+02 -4.096858e+02
     vertex -2.579689e+02  6.549426e+02 -4.096836e+02
   endloop
 endfacet
 facet normal -7.726426e-01 -6.274205e-01 -9.678310e-02
   outer loop
     vertex -2.513702e+02  6.585559e+02 -4.855303e+02
     vertex -2.572936e+02  6.541509e+02 -4.096858e+02
     vertex -2.520286e+02  6.593660e+02 -4.855256e+02
   endloop
 endfacet
 facet normal -7.815074e-01 -6.163358e-01 -9.683166e-02
   outer loop
     vertex -2.513702e+02  6.585559e+02 -4.855303e+02
     vertex -2.566488e+02  6.533342e+02 -4.096919e+02
     vertex -2.572936e+02  6.541509e+02 -4.096858e+02
   endloop
 endfacet
 facet normal -7.961454e-01 -5.973540e-01 -9.654358e-02
   outer loop
     vertex -2.507430e+02  6.577213e+02 -4.855387e+02
     vertex -2.566488e+02  6.533342e+02 -4.096919e+02
     vertex -2.513702e+02  6.585559e+02 -4.855303e+02
   endloop
 endfacet
 facet normal -8.045096e-01 -5.860411e-01 -9.654051e-02
   outer loop
     vertex -2.507430e+02  6.577213e+02 -4.855387e+02
     vertex -2.560354e+02  6.524938e+02 -4.097017e+02
     vertex -2.566488e+02  6.533342e+02 -4.096919e+02
   endloop
 endfacet
 facet normal -8.184887e-01 -5.664175e-01 -9.616337e-02
   outer loop
     vertex -2.501480e+02  6.568636e+02 -4.855511e+02
     vertex -2.560354e+02  6.524938e+02 -4.097017e+02
     vertex -2.507430e+02  6.577213e+02 -4.855387e+02
   endloop
 endfacet
 facet normal -8.263478e-01 -5.548984e-01 -9.610975e-02
   outer loop
     vertex -2.501480e+02  6.568636e+02 -4.855511e+02
     vertex -2.554542e+02  6.516307e+02 -4.097154e+02
     vertex -2.560354e+02  6.524938e+02 -4.097017e+02
   endloop
 endfacet
 facet normal -8.396400e-01 -5.346561e-01 -9.564302e-02
   outer loop
     vertex -2.495860e+02  6.559839e+02 -4.855672e+02
     vertex -2.554542e+02  6.516307e+02 -4.097154e+02
     vertex -2.501480e+02  6.568636e+02 -4.855511e+02
   endloop
 endfacet
 facet normal -8.469902e-01 -5.229528e-01 -9.554000e-02
   outer loop
     vertex -2.495860e+02  6.559839e+02 -4.855672e+02
     vertex -2.549062e+02  6.507463e+02 -4.097329e+02
     vertex -2.554542e+02  6.516307e+02 -4.097154e+02
   endloop
 endfacet
 facet normal -8.595683e-01 -5.021160e-01 -9.498329e-02
   outer loop
     vertex -2.490578e+02  6.550836e+02 -4.855872e+02
     vertex -2.549062e+02  6.507463e+02 -4.097329e+02
     vertex -2.495860e+02  6.559839e+02 -4.855672e+02
   endloop
 endfacet
 facet normal -8.664071e-01 -4.902505e-01 -9.483210e-02
   outer loop
     vertex -2.490578e+02  6.550836e+02 -4.855872e+02
     vertex -2.543921e+02  6.498418e+02 -4.097541e+02
     vertex -2.549062e+02  6.507463e+02 -4.097329e+02
   endloop
 endfacet
 facet normal -8.782448e-01 -4.688446e-01 -9.418515e-02
   outer loop
     vertex -2.485643e+02  6.541639e+02 -4.856109e+02
     vertex -2.543921e+02  6.498418e+02 -4.097541e+02
     vertex -2.490578e+02  6.550836e+02 -4.855872e+02
   endloop
 endfacet
 facet normal -8.845703e-01 -4.568389e-01 -9.398706e-02
   outer loop
     vertex -2.485643e+02  6.541639e+02 -4.856109e+02
     vertex -2.539126e+02  6.489186e+02 -4.097791e+02
     vertex -2.543921e+02  6.498418e+02 -4.097541e+02
   endloop
 endfacet
 facet normal -8.956422e-01 -4.348903e-01 -9.324974e-02
   outer loop
     vertex -2.481062e+02  6.532262e+02 -4.856383e+02
     vertex -2.539126e+02  6.489186e+02 -4.097791e+02
     vertex -2.485643e+02  6.541639e+02 -4.856109e+02
   endloop
 endfacet
 facet normal -9.014536e-01 -4.227662e-01 -9.300610e-02
   outer loop
     vertex -2.481062e+02  6.532262e+02 -4.856383e+02
     vertex -2.534685e+02  6.479780e+02 -4.098078e+02
     vertex -2.539126e+02  6.489186e+02 -4.097791e+02
   endloop
 endfacet
 facet normal -9.117351e-01 -4.003027e-01 -9.217845e-02
   outer loop
     vertex -2.476840e+02  6.522719e+02 -4.856695e+02
     vertex -2.534685e+02  6.479780e+02 -4.098078e+02
     vertex -2.481062e+02  6.532262e+02 -4.856383e+02
   endloop
 endfacet
 facet normal -9.170325e-01 -3.880817e-01 -9.189065e-02
   outer loop
     vertex -2.476840e+02  6.522719e+02 -4.856695e+02
     vertex -2.530604e+02  6.470213e+02 -4.098401e+02
     vertex -2.534685e+02  6.479780e+02 -4.098078e+02
   endloop
 endfacet
 facet normal -9.312845e-01 -3.528357e-01 -9.064231e-02
   outer loop
     vertex -2.472985e+02  6.513024e+02 -4.857043e+02
     vertex -2.526889e+02  6.460500e+02 -4.098761e+02
     vertex -2.530604e+02  6.470213e+02 -4.098401e+02
   endloop
 endfacet
 facet normal -9.265001e-01 -3.651321e-01 -9.097282e-02
   outer loop
     vertex -2.472985e+02  6.513024e+02 -4.857043e+02
     vertex -2.530604e+02  6.470213e+02 -4.098401e+02
     vertex -2.476840e+02  6.522719e+02 -4.856695e+02
   endloop
 endfacet
 facet normal -9.441890e-01 -3.170792e-01 -8.926290e-02
   outer loop
     vertex -2.469502e+02  6.503190e+02 -4.857427e+02
     vertex -2.523545e+02  6.450654e+02 -4.099156e+02
     vertex -2.526889e+02  6.460500e+02 -4.098761e+02
   endloop
 endfacet
 facet normal -9.399158e-01 -3.294297e-01 -8.963461e-02
   outer loop
     vertex -2.469502e+02  6.503190e+02 -4.857427e+02
     vertex -2.526889e+02  6.460500e+02 -4.098761e+02
     vertex -2.472985e+02  6.513024e+02 -4.857043e+02
   endloop
 endfacet
 facet normal -9.557273e-01 -2.808639e-01 -8.775440e-02
   outer loop
     vertex -2.466395e+02  6.493231e+02 -4.857847e+02
     vertex -2.520578e+02  6.440689e+02 -4.099586e+02
     vertex -2.523545e+02  6.450654e+02 -4.099156e+02
   endloop
 endfacet
 facet normal -9.519626e-01 -2.932475e-01 -8.816578e-02
   outer loop
     vertex -2.466395e+02  6.493231e+02 -4.857847e+02
     vertex -2.523545e+02  6.450654e+02 -4.099156e+02
     vertex -2.469502e+02  6.503190e+02 -4.857427e+02
   endloop
 endfacet
 facet normal -9.658826e-01 -2.442422e-01 -8.611901e-02
   outer loop
     vertex -2.463670e+02  6.483164e+02 -4.858301e+02
     vertex -2.517990e+02  6.430621e+02 -4.100050e+02
     vertex -2.520578e+02  6.440689e+02 -4.099586e+02
   endloop
 endfacet
 facet normal -9.626228e-01 -2.566382e-01 -8.656846e-02
   outer loop
     vertex -2.463670e+02  6.483164e+02 -4.858301e+02
     vertex -2.520578e+02  6.440689e+02 -4.099586e+02
     vertex -2.466395e+02  6.493231e+02 -4.857847e+02
   endloop
 endfacet
 facet normal -9.746404e-01 -2.072670e-01 -8.435909e-02
   outer loop
     vertex -2.461331e+02  6.473001e+02 -4.858790e+02
     vertex -2.515787e+02  6.420463e+02 -4.100548e+02
     vertex -2.517990e+02  6.430621e+02 -4.100050e+02
   endloop
 endfacet
 facet normal -9.718811e-01 -2.196551e-01 -8.484498e-02
   outer loop
     vertex -2.461331e+02  6.473001e+02 -4.858790e+02
     vertex -2.517990e+02  6.430621e+02 -4.100050e+02
     vertex -2.463670e+02  6.483164e+02 -4.858301e+02
   endloop
 endfacet
 facet normal -9.819879e-01 -1.699920e-01 -8.247717e-02
   outer loop
     vertex -2.459380e+02  6.462758e+02 -4.859312e+02
     vertex -2.513971e+02  6.410231e+02 -4.101079e+02
     vertex -2.515787e+02  6.420463e+02 -4.100548e+02
   endloop
 endfacet
 facet normal -9.797240e-01 -1.823521e-01 -8.299786e-02
   outer loop
     vertex -2.459380e+02  6.462758e+02 -4.859312e+02
     vertex -2.515787e+02  6.420463e+02 -4.100548e+02
     vertex -2.461331e+02  6.473001e+02 -4.858790e+02
   endloop
 endfacet
 facet normal -9.879145e-01 -1.324709e-01 -8.047600e-02
   outer loop
     vertex -2.457821e+02  6.452450e+02 -4.859866e+02
     vertex -2.512545e+02  6.399939e+02 -4.101643e+02
     vertex -2.513971e+02  6.410231e+02 -4.101079e+02
   endloop
 endfacet
 facet normal -9.861399e-01 -1.447836e-01 -8.102977e-02
   outer loop
     vertex -2.457821e+02  6.452450e+02 -4.859866e+02
     vertex -2.513971e+02  6.410231e+02 -4.101079e+02
     vertex -2.459380e+02  6.462758e+02 -4.859312e+02
   endloop
 endfacet
 facet normal -9.924116e-01 -9.475822e-02 -7.835846e-02
   outer loop
     vertex -2.456656e+02  6.442092e+02 -4.860453e+02
     vertex -2.511511e+02  6.389601e+02 -4.102237e+02
     vertex -2.512545e+02  6.399939e+02 -4.101643e+02
   endloop
 endfacet
 facet normal -9.911196e-01 -1.070042e-01 -7.894359e-02
   outer loop
     vertex -2.456656e+02  6.442092e+02 -4.860453e+02
     vertex -2.512545e+02  6.399939e+02 -4.101643e+02
     vertex -2.457821e+02  6.452450e+02 -4.859866e+02
   endloop
 endfacet
 facet normal -9.954728e-01 -5.690839e-02 -7.612761e-02
   outer loop
     vertex -2.455887e+02  6.431699e+02 -4.861071e+02
     vertex -2.510871e+02  6.379234e+02 -4.102863e+02
     vertex -2.511511e+02  6.389601e+02 -4.102237e+02
   endloop
 endfacet
 facet normal -9.946558e-01 -6.906893e-02 -7.674235e-02
   outer loop
     vertex -2.455887e+02  6.431699e+02 -4.861071e+02
     vertex -2.511511e+02  6.389601e+02 -4.102237e+02
     vertex -2.456656e+02  6.442092e+02 -4.860453e+02
   endloop
 endfacet
 facet normal -9.970935e-01 -1.897621e-02 -7.378668e-02
   outer loop
     vertex -2.455514e+02  6.421286e+02 -4.861718e+02
     vertex -2.510625e+02  6.368852e+02 -4.103518e+02
     vertex -2.510871e+02  6.379234e+02 -4.102863e+02
   endloop
 endfacet
 facet normal -9.967433e-01 -3.103309e-02 -7.442927e-02
   outer loop
     vertex -2.455514e+02  6.421286e+02 -4.861718e+02
     vertex -2.510871e+02  6.379234e+02 -4.102863e+02
     vertex -2.455887e+02  6.431699e+02 -4.861071e+02
   endloop
 endfacet
 facet normal -9.972688e-01 -9.991546e-03 -7.317808e-02
   outer loop
     vertex -2.455498e+02  6.420193e+02 -4.861788e+02
     vertex -2.510625e+02  6.368852e+02 -4.103518e+02
     vertex -2.455514e+02  6.421286e+02 -4.861718e+02
   endloop
 endfacet
 facet normal -9.973204e-01 -5.995289e-03 -7.291125e-02
   outer loop
     vertex -2.455487e+02  6.419099e+02 -4.861858e+02
     vertex -2.510625e+02  6.368852e+02 -4.103518e+02
     vertex -2.455498e+02  6.420193e+02 -4.861788e+02
   endloop
 endfacet
 facet normal -9.973556e-01 -1.998564e-03 -7.264898e-02
   outer loop
     vertex -2.455479e+02  6.418006e+02 -4.861929e+02
     vertex -2.510625e+02  6.368852e+02 -4.103518e+02
     vertex -2.455487e+02  6.419099e+02 -4.861858e+02
   endloop
 endfacet
endsolid
