solid 
 facet normal  7.369077e-01 -6.758019e-01 -1.608817e-02
   outer loop
     vertex -2.252147e+02  6.790840e+02 -5.692151e+02
     vertex -2.255868e+02  6.786721e+02 -5.689576e+02
     vertex -2.257052e+02  6.785496e+02 -5.692353e+02
   endloop
 endfacet
 facet normal  7.331449e-01 -6.795175e-01 -2.746948e-02
   outer loop
     vertex -2.252147e+02  6.790840e+02 -5.692151e+02
     vertex -2.254872e+02  6.787676e+02 -5.686625e+02
     vertex -2.255868e+02  6.786721e+02 -5.689576e+02
   endloop
 endfacet
 facet normal  7.298814e-01 -6.824521e-01 -3.914558e-02
   outer loop
     vertex -2.250864e+02  6.792054e+02 -5.688216e+02
     vertex -2.254079e+02  6.788347e+02 -5.683537e+02
     vertex -2.254872e+02  6.787676e+02 -5.686625e+02
   endloop
 endfacet
 facet normal  7.320647e-01 -6.806327e-01 -2.864066e-02
   outer loop
     vertex -2.250864e+02  6.792054e+02 -5.688216e+02
     vertex -2.254872e+02  6.787676e+02 -5.686625e+02
     vertex -2.252147e+02  6.790840e+02 -5.692151e+02
   endloop
 endfacet
 facet normal  7.337373e-01 -6.790213e-01 -2.365664e-02
   outer loop
     vertex -2.248524e+02  6.794861e+02 -5.694988e+02
     vertex -2.245428e+02  6.798353e+02 -5.699190e+02
     vertex -2.244044e+02  6.799715e+02 -5.695378e+02
   endloop
 endfacet
 facet normal  7.384770e-01 -6.740873e-01 -1.606461e-02
   outer loop
     vertex -2.248524e+02  6.794861e+02 -5.694988e+02
     vertex -2.247007e+02  6.796709e+02 -5.702811e+02
     vertex -2.245428e+02  6.798353e+02 -5.699190e+02
   endloop
 endfacet
 facet normal  7.369123e-01 -6.757803e-01 -1.676812e-02
   outer loop
     vertex -2.248524e+02  6.794861e+02 -5.694988e+02
     vertex -2.257052e+02  6.785496e+02 -5.692353e+02
     vertex -2.247007e+02  6.796709e+02 -5.702811e+02
   endloop
 endfacet
 facet normal  7.369123e-01 -6.757803e-01 -1.676812e-02
   outer loop
     vertex -2.248524e+02  6.794861e+02 -5.694988e+02
     vertex -2.252147e+02  6.790840e+02 -5.692151e+02
     vertex -2.257052e+02  6.785496e+02 -5.692353e+02
   endloop
 endfacet
 facet normal  7.273812e-01 -6.843215e-01 -5.119368e-02
   outer loop
     vertex -2.249876e+02  6.792856e+02 -5.684094e+02
     vertex -2.253497e+02  6.788727e+02 -5.680353e+02
     vertex -2.254079e+02  6.788347e+02 -5.683537e+02
   endloop
 endfacet
 facet normal  7.283168e-01 -6.839867e-01 -4.143594e-02
   outer loop
     vertex -2.249876e+02  6.792856e+02 -5.684094e+02
     vertex -2.254079e+02  6.788347e+02 -5.683537e+02
     vertex -2.250864e+02  6.792054e+02 -5.688216e+02
   endloop
 endfacet
 facet normal  7.307820e-01 -6.818188e-01 -3.287454e-02
   outer loop
     vertex -2.247016e+02  6.796288e+02 -5.690359e+02
     vertex -2.244044e+02  6.799715e+02 -5.695378e+02
     vertex -2.242868e+02  6.800784e+02 -5.691406e+02
   endloop
 endfacet
 facet normal  7.324056e-01 -6.802563e-01 -2.886783e-02
   outer loop
     vertex -2.247016e+02  6.796288e+02 -5.690359e+02
     vertex -2.250864e+02  6.792054e+02 -5.688216e+02
     vertex -2.252147e+02  6.790840e+02 -5.692151e+02
   endloop
 endfacet
 facet normal  7.333873e-01 -6.791697e-01 -2.952285e-02
   outer loop
     vertex -2.247016e+02  6.796288e+02 -5.690359e+02
     vertex -2.248524e+02  6.794861e+02 -5.694988e+02
     vertex -2.244044e+02  6.799715e+02 -5.695378e+02
   endloop
 endfacet
 facet normal  7.324056e-01 -6.802563e-01 -2.886783e-02
   outer loop
     vertex -2.247016e+02  6.796288e+02 -5.690359e+02
     vertex -2.252147e+02  6.790840e+02 -5.692151e+02
     vertex -2.248524e+02  6.794861e+02 -5.694988e+02
   endloop
 endfacet
 facet normal  7.256701e-01 -6.851085e-01 -6.347635e-02
   outer loop
     vertex -2.249199e+02  6.793234e+02 -5.679851e+02
     vertex -2.253136e+02  6.788810e+02 -5.677116e+02
     vertex -2.253497e+02  6.788727e+02 -5.680353e+02
   endloop
 endfacet
 facet normal  7.255613e-01 -6.859738e-01 -5.477877e-02
   outer loop
     vertex -2.249199e+02  6.793234e+02 -5.679851e+02
     vertex -2.253497e+02  6.788727e+02 -5.680353e+02
     vertex -2.249876e+02  6.792856e+02 -5.684094e+02
   endloop
 endfacet
 facet normal  7.265060e-01 -6.851733e-01 -5.221707e-02
   outer loop
     vertex -2.245854e+02  6.797231e+02 -5.685512e+02
     vertex -2.241908e+02  6.801552e+02 -5.687308e+02
     vertex -2.241173e+02  6.802012e+02 -5.683118e+02
   endloop
 endfacet
 facet normal  7.288549e-01 -6.833390e-01 -4.264155e-02
   outer loop
     vertex -2.245854e+02  6.797231e+02 -5.685512e+02
     vertex -2.242868e+02  6.800784e+02 -5.691406e+02
     vertex -2.241908e+02  6.801552e+02 -5.687308e+02
   endloop
 endfacet
 facet normal  7.288025e-01 -6.834557e-01 -4.165567e-02
   outer loop
     vertex -2.245854e+02  6.797231e+02 -5.685512e+02
     vertex -2.250864e+02  6.792054e+02 -5.688216e+02
     vertex -2.247016e+02  6.796288e+02 -5.690359e+02
   endloop
 endfacet
 facet normal  7.288025e-01 -6.834557e-01 -4.165567e-02
   outer loop
     vertex -2.245854e+02  6.797231e+02 -5.685512e+02
     vertex -2.249876e+02  6.792856e+02 -5.684094e+02
     vertex -2.250864e+02  6.792054e+02 -5.688216e+02
   endloop
 endfacet
 facet normal  7.294710e-01 -6.827236e-01 -4.195836e-02
   outer loop
     vertex -2.245854e+02  6.797231e+02 -5.685512e+02
     vertex -2.247016e+02  6.796288e+02 -5.690359e+02
     vertex -2.242868e+02  6.800784e+02 -5.691406e+02
   endloop
 endfacet
 facet normal  7.247658e-01 -6.848070e-01 -7.585410e-02
   outer loop
     vertex -2.248842e+02  6.793181e+02 -5.675553e+02
     vertex -2.253000e+02  6.788594e+02 -5.673868e+02
     vertex -2.253136e+02  6.788810e+02 -5.677116e+02
   endloop
 endfacet
 facet normal  7.238481e-01 -6.865564e-01 -6.844151e-02
   outer loop
     vertex -2.248842e+02  6.793181e+02 -5.675553e+02
     vertex -2.253136e+02  6.788810e+02 -5.677116e+02
     vertex -2.249199e+02  6.793234e+02 -5.679851e+02
   endloop
 endfacet
 facet normal  7.247061e-01 -6.862568e-01 -6.207023e-02
   outer loop
     vertex -2.245057e+02  6.797676e+02 -5.680522e+02
     vertex -2.241173e+02  6.802012e+02 -5.683118e+02
     vertex -2.240670e+02  6.802160e+02 -5.678872e+02
   endloop
 endfacet
 facet normal  7.271187e-01 -6.842907e-01 -5.517738e-02
   outer loop
     vertex -2.245057e+02  6.797676e+02 -5.680522e+02
     vertex -2.245854e+02  6.797231e+02 -5.685512e+02
     vertex -2.241173e+02  6.802012e+02 -5.683118e+02
   endloop
 endfacet
 facet normal  7.261593e-01 -6.853286e-01 -5.493173e-02
   outer loop
     vertex -2.245057e+02  6.797676e+02 -5.680522e+02
     vertex -2.249876e+02  6.792856e+02 -5.684094e+02
     vertex -2.245854e+02  6.797231e+02 -5.685512e+02
   endloop
 endfacet
 facet normal  7.261593e-01 -6.853286e-01 -5.493173e-02
   outer loop
     vertex -2.245057e+02  6.797676e+02 -5.680522e+02
     vertex -2.249199e+02  6.793234e+02 -5.679851e+02
     vertex -2.249876e+02  6.792856e+02 -5.684094e+02
   endloop
 endfacet
 facet normal  7.246777e-01 -6.834218e-01 -8.818671e-02
   outer loop
     vertex -2.248811e+02  6.792700e+02 -5.671266e+02
     vertex -2.253090e+02  6.788083e+02 -5.670651e+02
     vertex -2.253000e+02  6.788594e+02 -5.673868e+02
   endloop
 endfacet
 facet normal  7.232081e-01 -6.857221e-01 -8.219018e-02
   outer loop
     vertex -2.248811e+02  6.792700e+02 -5.671266e+02
     vertex -2.253000e+02  6.788594e+02 -5.673868e+02
     vertex -2.248842e+02  6.793181e+02 -5.675553e+02
   endloop
 endfacet
 facet normal  7.240063e-01 -6.860130e-01 -7.211862e-02
   outer loop
     vertex -2.244637e+02  6.797614e+02 -5.675467e+02
     vertex -2.240670e+02  6.802160e+02 -5.678872e+02
     vertex -2.240402e+02  6.801994e+02 -5.674605e+02
   endloop
 endfacet
 facet normal  7.255755e-01 -6.847185e-01 -6.856262e-02
   outer loop
     vertex -2.244637e+02  6.797614e+02 -5.675467e+02
     vertex -2.245057e+02  6.797676e+02 -5.680522e+02
     vertex -2.240670e+02  6.802160e+02 -5.678872e+02
   endloop
 endfacet
 facet normal  7.245173e-01 -6.858455e-01 -6.848844e-02
   outer loop
     vertex -2.244637e+02  6.797614e+02 -5.675467e+02
     vertex -2.248842e+02  6.793181e+02 -5.675553e+02
     vertex -2.249199e+02  6.793234e+02 -5.679851e+02
   endloop
 endfacet
 facet normal  7.245173e-01 -6.858455e-01 -6.848844e-02
   outer loop
     vertex -2.244637e+02  6.797614e+02 -5.675467e+02
     vertex -2.249199e+02  6.793234e+02 -5.679851e+02
     vertex -2.245057e+02  6.797676e+02 -5.680522e+02
   endloop
 endfacet
 facet normal  7.254067e-01 -6.809685e-01 -1.003344e-01
   outer loop
     vertex -2.249107e+02  6.791797e+02 -5.667059e+02
     vertex -2.253406e+02  6.787284e+02 -5.667508e+02
     vertex -2.253090e+02  6.788083e+02 -5.670651e+02
   endloop
 endfacet
 facet normal  7.236527e-01 -6.834846e-01 -9.578898e-02
   outer loop
     vertex -2.249107e+02  6.791797e+02 -5.667059e+02
     vertex -2.253090e+02  6.788083e+02 -5.670651e+02
     vertex -2.248811e+02  6.792700e+02 -5.671266e+02
   endloop
 endfacet
 facet normal  7.238636e-01 -6.837702e-01 -9.208554e-02
   outer loop
     vertex -2.244601e+02  6.797048e+02 -5.670426e+02
     vertex -2.240371e+02  6.801516e+02 -5.670354e+02
     vertex -2.240579e+02  6.800731e+02 -5.666153e+02
   endloop
 endfacet
 facet normal  7.244198e-01 -6.844580e-01 -8.205684e-02
   outer loop
     vertex -2.244601e+02  6.797048e+02 -5.670426e+02
     vertex -2.240402e+02  6.801994e+02 -5.674605e+02
     vertex -2.240371e+02  6.801516e+02 -5.670354e+02
   endloop
 endfacet
 facet normal  7.244198e-01 -6.844580e-01 -8.205684e-02
   outer loop
     vertex -2.244601e+02  6.797048e+02 -5.670426e+02
     vertex -2.244637e+02  6.797614e+02 -5.675467e+02
     vertex -2.240402e+02  6.801994e+02 -5.674605e+02
   endloop
 endfacet
 facet normal  7.239022e-01 -6.849985e-01 -8.211386e-02
   outer loop
     vertex -2.244601e+02  6.797048e+02 -5.670426e+02
     vertex -2.248811e+02  6.792700e+02 -5.671266e+02
     vertex -2.248842e+02  6.793181e+02 -5.675553e+02
   endloop
 endfacet
 facet normal  7.239022e-01 -6.849985e-01 -8.211386e-02
   outer loop
     vertex -2.244601e+02  6.797048e+02 -5.670426e+02
     vertex -2.248842e+02  6.793181e+02 -5.675553e+02
     vertex -2.244637e+02  6.797614e+02 -5.675467e+02
   endloop
 endfacet
 facet normal  7.269455e-01 -6.774736e-01 -1.121594e-01
   outer loop
     vertex -2.249726e+02  6.790486e+02 -5.662996e+02
     vertex -2.253942e+02  6.786207e+02 -5.664480e+02
     vertex -2.253406e+02  6.787284e+02 -5.667508e+02
   endloop
 endfacet
 facet normal  7.251738e-01 -6.798830e-01 -1.090048e-01
   outer loop
     vertex -2.249726e+02  6.790486e+02 -5.662996e+02
     vertex -2.253406e+02  6.787284e+02 -5.667508e+02
     vertex -2.249107e+02  6.791797e+02 -5.667059e+02
   endloop
 endfacet
 facet normal  7.244212e-01 -6.817777e-01 -1.019465e-01
   outer loop
     vertex -2.244950e+02  6.795986e+02 -5.665477e+02
     vertex -2.240579e+02  6.800731e+02 -5.666153e+02
     vertex -2.241023e+02  6.799644e+02 -5.662039e+02
   endloop
 endfacet
 facet normal  7.253845e-01 -6.817166e-01 -9.528755e-02
   outer loop
     vertex -2.244950e+02  6.795986e+02 -5.665477e+02
     vertex -2.244601e+02  6.797048e+02 -5.670426e+02
     vertex -2.240579e+02  6.800731e+02 -5.666153e+02
   endloop
 endfacet
 facet normal  7.243236e-01 -6.828008e-01 -9.559496e-02
   outer loop
     vertex -2.244950e+02  6.795986e+02 -5.665477e+02
     vertex -2.249107e+02  6.791797e+02 -5.667059e+02
     vertex -2.248811e+02  6.792700e+02 -5.671266e+02
   endloop
 endfacet
 facet normal  7.243236e-01 -6.828008e-01 -9.559496e-02
   outer loop
     vertex -2.244950e+02  6.795986e+02 -5.665477e+02
     vertex -2.248811e+02  6.792700e+02 -5.671266e+02
     vertex -2.244601e+02  6.797048e+02 -5.670426e+02
   endloop
 endfacet
 facet normal  7.257749e-01 -6.792868e-01 -1.087210e-01
   outer loop
     vertex -2.244950e+02  6.795986e+02 -5.665477e+02
     vertex -2.249726e+02  6.790486e+02 -5.662996e+02
     vertex -2.249107e+02  6.791797e+02 -5.667059e+02
   endloop
 endfacet
 facet normal  7.292784e-01 -6.729741e-01 -1.235266e-01
   outer loop
     vertex -2.250656e+02  6.788788e+02 -5.659141e+02
     vertex -2.254693e+02  6.784866e+02 -5.661607e+02
     vertex -2.253942e+02  6.786207e+02 -5.664480e+02
   endloop
 endfacet
 facet normal  7.277439e-01 -6.749810e-01 -1.216119e-01
   outer loop
     vertex -2.250656e+02  6.788788e+02 -5.659141e+02
     vertex -2.253942e+02  6.786207e+02 -5.664480e+02
     vertex -2.249726e+02  6.790486e+02 -5.662996e+02
   endloop
 endfacet
 facet normal  7.283000e-01 -6.746161e-01 -1.203004e-01
   outer loop
     vertex -2.245677e+02  6.794444e+02 -5.660699e+02
     vertex -2.241699e+02  6.798265e+02 -5.658046e+02
     vertex -2.242602e+02  6.796606e+02 -5.654207e+02
   endloop
 endfacet
 facet normal  7.260836e-01 -6.785326e-01 -1.113382e-01
   outer loop
     vertex -2.245677e+02  6.794444e+02 -5.660699e+02
     vertex -2.241023e+02  6.799644e+02 -5.662039e+02
     vertex -2.241699e+02  6.798265e+02 -5.658046e+02
   endloop
 endfacet
 facet normal  7.267394e-01 -6.783278e-01 -1.082648e-01
   outer loop
     vertex -2.245677e+02  6.794444e+02 -5.660699e+02
     vertex -2.244950e+02  6.795986e+02 -5.665477e+02
     vertex -2.241023e+02  6.799644e+02 -5.662039e+02
   endloop
 endfacet
 facet normal  7.257749e-01 -6.792868e-01 -1.087210e-01
   outer loop
     vertex -2.245677e+02  6.794444e+02 -5.660699e+02
     vertex -2.249726e+02  6.790486e+02 -5.662996e+02
     vertex -2.244950e+02  6.795986e+02 -5.665477e+02
   endloop
 endfacet
 facet normal  7.313162e-01 -6.688663e-01 -1.333959e-01
   outer loop
     vertex -2.251885e+02  6.786729e+02 -5.655555e+02
     vertex -2.254693e+02  6.784866e+02 -5.661607e+02
     vertex -2.250656e+02  6.788788e+02 -5.659141e+02
   endloop
 endfacet
 facet normal  7.360035e-01 -6.614933e-01 -1.439634e-01
   outer loop
     vertex -2.251885e+02  6.786729e+02 -5.655555e+02
     vertex -2.246586e+02  6.790096e+02 -5.643933e+02
     vertex -2.256796e+02  6.781466e+02 -5.656475e+02
   endloop
 endfacet
 facet normal  7.323815e-01 -6.675173e-01 -1.343057e-01
   outer loop
     vertex -2.251885e+02  6.786729e+02 -5.655555e+02
     vertex -2.255649e+02  6.783278e+02 -5.658927e+02
     vertex -2.254693e+02  6.784866e+02 -5.661607e+02
   endloop
 endfacet
 facet normal  7.359893e-01 -6.613635e-01 -1.446311e-01
   outer loop
     vertex -2.251885e+02  6.786729e+02 -5.655555e+02
     vertex -2.256796e+02  6.781466e+02 -5.656475e+02
     vertex -2.255649e+02  6.783278e+02 -5.658927e+02
   endloop
 endfacet
 facet normal  7.282335e-01 -6.745113e-01 -1.212868e-01
   outer loop
     vertex -2.246771e+02  6.792447e+02 -5.656166e+02
     vertex -2.250656e+02  6.788788e+02 -5.659141e+02
     vertex -2.249726e+02  6.790486e+02 -5.662996e+02
   endloop
 endfacet
 facet normal  7.300915e-01 -6.709641e-01 -1.295130e-01
   outer loop
     vertex -2.246771e+02  6.792447e+02 -5.656166e+02
     vertex -2.242602e+02  6.796606e+02 -5.654207e+02
     vertex -2.243724e+02  6.794680e+02 -5.650555e+02
   endloop
 endfacet
 facet normal  7.282335e-01 -6.745113e-01 -1.212868e-01
   outer loop
     vertex -2.246771e+02  6.792447e+02 -5.656166e+02
     vertex -2.249726e+02  6.790486e+02 -5.662996e+02
     vertex -2.245677e+02  6.794444e+02 -5.660699e+02
   endloop
 endfacet
 facet normal  7.289074e-01 -6.738635e-01 -1.208387e-01
   outer loop
     vertex -2.246771e+02  6.792447e+02 -5.656166e+02
     vertex -2.245677e+02  6.794444e+02 -5.660699e+02
     vertex -2.242602e+02  6.796606e+02 -5.654207e+02
   endloop
 endfacet
 facet normal  7.375607e-01 -6.596839e-01 -1.442958e-01
   outer loop
     vertex -2.248216e+02  6.790026e+02 -5.651949e+02
     vertex -2.245056e+02  6.792504e+02 -5.647121e+02
     vertex -2.246586e+02  6.790096e+02 -5.643933e+02
   endloop
 endfacet
 facet normal  7.329208e-01 -6.661867e-01 -1.379214e-01
   outer loop
     vertex -2.248216e+02  6.790026e+02 -5.651949e+02
     vertex -2.243724e+02  6.794680e+02 -5.650555e+02
     vertex -2.245056e+02  6.792504e+02 -5.647121e+02
   endloop
 endfacet
 facet normal  7.316609e-01 -6.685491e-01 -1.330958e-01
   outer loop
     vertex -2.248216e+02  6.790026e+02 -5.651949e+02
     vertex -2.250656e+02  6.788788e+02 -5.659141e+02
     vertex -2.246771e+02  6.792447e+02 -5.656166e+02
   endloop
 endfacet
 facet normal  7.326535e-01 -6.676333e-01 -1.322299e-01
   outer loop
     vertex -2.248216e+02  6.790026e+02 -5.651949e+02
     vertex -2.246771e+02  6.792447e+02 -5.656166e+02
     vertex -2.243724e+02  6.794680e+02 -5.650555e+02
   endloop
 endfacet
 facet normal  7.360035e-01 -6.614933e-01 -1.439634e-01
   outer loop
     vertex -2.248216e+02  6.790026e+02 -5.651949e+02
     vertex -2.246586e+02  6.790096e+02 -5.643933e+02
     vertex -2.251885e+02  6.786729e+02 -5.655555e+02
   endloop
 endfacet
 facet normal  7.316609e-01 -6.685491e-01 -1.330958e-01
   outer loop
     vertex -2.248216e+02  6.790026e+02 -5.651949e+02
     vertex -2.251885e+02  6.786729e+02 -5.655555e+02
     vertex -2.250656e+02  6.788788e+02 -5.659141e+02
   endloop
 endfacet
endsolid
