solid 
 facet normal -2.198364e-01 -8.625818e-01 -4.556584e-01
   outer loop
     vertex -2.327106e+02  6.165115e+02 -5.615014e+02
     vertex -2.412084e+02  6.158238e+02 -5.560996e+02
     vertex -2.421116e+02  6.167427e+02 -5.574035e+02
   endloop
 endfacet
 facet normal -2.198364e-01 -8.625818e-01 -4.556584e-01
   outer loop
     vertex -2.336138e+02  6.174304e+02 -5.628052e+02
     vertex -2.327106e+02  6.165115e+02 -5.615014e+02
     vertex -2.421116e+02  6.167427e+02 -5.574035e+02
   endloop
 endfacet
endsolid
