solid 
 facet normal  8.056202e-01  5.878095e-01  7.386511e-02
   outer loop
     vertex -2.305229e+02  6.207193e+02 -5.743241e+02
     vertex -2.320628e+02  6.223952e+02 -5.708662e+02
     vertex -2.300670e+02  6.198967e+02 -5.727507e+02
   endloop
 endfacet
 facet normal  8.056202e-01  5.878095e-01  7.386511e-02
   outer loop
     vertex -2.305229e+02  6.207193e+02 -5.743241e+02
     vertex -2.325187e+02  6.232178e+02 -5.724397e+02
     vertex -2.320628e+02  6.223952e+02 -5.708662e+02
   endloop
 endfacet
endsolid
