solid 
 facet normal  1.130409e-01  7.364684e-01  6.669603e-01
   outer loop
     vertex -2.267303e+02  6.783014e+02 -5.608799e+02
     vertex -2.253207e+02  6.804848e+02 -5.635299e+02
     vertex -2.270037e+02  6.810971e+02 -5.639207e+02
   endloop
 endfacet
 facet normal  1.130409e-01  7.364684e-01  6.669603e-01
   outer loop
     vertex -2.267303e+02  6.783014e+02 -5.608799e+02
     vertex -2.270037e+02  6.810971e+02 -5.639207e+02
     vertex -2.284133e+02  6.789136e+02 -5.612708e+02
   endloop
 endfacet
endsolid
